<svg xmlns="http://www.w3.org/2000/svg" xmlns:xlink="http://www.w3.org/1999/xlink" width="418" height="253" viewBox="0 0 418 253">
  <defs>
    <filter id="Imagen_3" x="0" y="0" width="418" height="253" filterUnits="userSpaceOnUse">
      <feOffset dx="3" dy="3" input="SourceAlpha"/>
      <feGaussianBlur stdDeviation="3" result="blur"/>
      <feFlood flood-opacity="0.161"/>
      <feComposite operator="in" in2="blur"/>
      <feComposite in="SourceGraphic"/>
    </filter>
    <clipPath id="clip-path">
      <rect id="Rectángulo_351052" data-name="Rectángulo 351052" width="290" height="118.076" fill="none"/>
    </clipPath>
  </defs>
  <g id="Grupo_1008312" data-name="Grupo 1008312" transform="translate(7135 10921)">
    <g transform="matrix(1, 0, 0, 1, -7135, -10921)" filter="url(#Imagen_3)">
      <rect id="Imagen_3-2" data-name="Imagen 3" width="400" height="235" rx="19" transform="translate(6 6)" fill="#fff"/>
    </g>
    <g id="Grupo_1008311" data-name="Grupo 1008311" transform="translate(-7074 -10857)">
      <g id="Grupo_1008310" data-name="Grupo 1008310" clip-path="url(#clip-path)">
        <path id="Trazado_720592" data-name="Trazado 720592" d="M126.285,98.113a38.2,38.2,0,0,0-4.3.033,3.188,3.188,0,0,1-3.521-2.236c-.759-1.737-1.294-3.569-2.011-5.325-1.448-3.548-2.886-7.1-4.451-10.6-2.27-5.072-4.537-10.15-7.032-15.112A32.661,32.661,0,0,0,100.8,58.9a16.071,16.071,0,0,0-3.315-2.6c-1.887-1.314-2.147-2.8-.587-4.438a27.75,27.75,0,0,1,7.292-5.59c1.545-.8,3.138-1.517,4.741-2.2a2.762,2.762,0,0,1,3.318.813,34.671,34.671,0,0,1,3.11,4.218,69.227,69.227,0,0,1,6.878,15.831c.623,1.953,1.157,3.937,1.7,5.917.234.854.916,1.464,1.615.5,1.075-1.491,2.055-3.05,3.078-4.579,2.444-3.658,4.832-7.355,7.353-10.958,2.006-2.868,4.149-5.642,6.28-8.421q2.514-3.282,5.153-6.468,3.7-4.462,7.506-8.842c1.3-1.505,2.657-2.964,4.022-4.412q3.749-3.984,7.54-7.925c2.224-2.314,4.436-4.64,6.719-6.894q3.008-2.969,6.164-5.785a34.565,34.565,0,0,1,7.586-5.66A28.2,28.2,0,0,1,190.616.06a2.116,2.116,0,0,1,1.042.012c.767.161,1.536.525,1.576,1.355a2.487,2.487,0,0,1-.669,1.72c-1.314,1.259-2.754,2.388-4.145,3.568-.718.61-1.473,1.182-2.146,1.839-3.464,3.372-7.035,6.647-10.319,10.185-3.31,3.567-6.466,7.3-9.439,11.149-3.376,4.374-6.573,8.894-9.656,13.48-2.12,3.153-3.987,6.485-5.829,9.813-1.86,3.361-3.7,6.748-5.28,10.241-2.172,4.792-4.19,9.66-6.106,14.561a110.167,110.167,0,0,0-4.864,15.878c-.313,1.388-.571,2.794-1.8,3.7a2.58,2.58,0,0,1-1.339.527c-1.782.06-3.568.024-5.352.024" transform="translate(-32.025 0)" fill="#82a52c" fill-rule="evenodd"/>
        <path id="Trazado_720593" data-name="Trazado 720593" d="M229.916,113.893h-7.287c-.017-.245-.047-.458-.048-.671-.067-9.865-.085-19.73-.218-29.594a15.013,15.013,0,0,0-11.309-13.775,14.428,14.428,0,0,0-13,3.09,14.866,14.866,0,0,0-5.274,9.323,20.4,20.4,0,0,0-.036,3.354q0,13.813,0,27.625c0,.186-.016.374-.028.621h-7.229v-1.145c0-8.984.028-17.971-.013-26.955A16.706,16.706,0,0,0,182.421,75.7a14.312,14.312,0,0,0-10.416-6.156c-5.231-.56-9.3,1.56-12.645,5.268a14.217,14.217,0,0,0-3.717,9.861c.034,9.335.011,18.671.011,28.006v1.19h-7.179v-49h7.155V68.8c4.81-5.02,10.561-7.225,17.328-6.463s11.767,4.439,15.59,9.832c1.136-1.268,2.178-2.6,3.4-3.756a22.384,22.384,0,0,1,12.083-5.931,21.269,21.269,0,0,1,9.845.638,22.87,22.87,0,0,1,7.625,4.11,21.979,21.979,0,0,1,5.959,7.554,18.623,18.623,0,0,1,2,6.973c.084,1.291.182,2.586.184,3.879.017,7.583-.009,15.167.021,22.75.007,1.8.165,3.6.258,5.507m60.09-.009h-7V107.76c-1.7,1.359-3.259,2.779-4.99,3.939a25.878,25.878,0,0,1-11.512,4.357,26.933,26.933,0,0,1-19.1-4.628,26.22,26.22,0,0,1-8.374-9.5,27.1,27.1,0,0,1-3.1-11.556,27,27,0,0,1,41.017-24.3A27.065,27.065,0,0,1,288,78.892a20.236,20.236,0,0,1,1.853,7.59c.125,6.164.156,12.332.206,18.5.024,2.834,0,5.67,0,8.5a3.365,3.365,0,0,1-.052.4m-7.012-23.623h0c.012-12.184-8.949-20.736-19.251-21.057a19.977,19.977,0,0,0-20.855,20.007,20.067,20.067,0,0,0,40.106,1.05m-140.79,23.669c-2.191,0-4.321,0-6.45,0-.153,0-.3-.02-.5-.035V64.848h6.951Zm-115.221-.039H19.976V64.849h6.994v4.039a17.891,17.891,0,0,1,11.169-6.346,21.269,21.269,0,0,1,16.389,3.685,21.175,21.175,0,0,1,9.538,18.6c.032,2.2-.006,4.4.011,6.6q.084,10.733.188,21.468c0,.311,0,.624,0,.983H57.008v-1c0-4.491.024-8.984-.007-13.476-.037-5.5-.047-11-.216-16.5a13.04,13.04,0,0,0-3.06-7.706,14.689,14.689,0,0,0-6.495-4.783,13.836,13.836,0,0,0-12.736,1.241A16.08,16.08,0,0,0,27,82.825a4.607,4.607,0,0,0-.016.858v30.208ZM.224,59.273c1.937,2.392,4.135,3.824,6.995,3.789a8.344,8.344,0,0,0,6.906-3.681c.023.459.047.726.047.992q0,25.175.024,50.351a3.731,3.731,0,0,1-3.451,3.407c-2.292-.037-4.59-.1-6.878.017C1.836,114.248.2,112.1.215,110.47c.033-2.77.009-5.54.009-8.312V59.273Zm13.95-4.849c.25-3.909-3.189-6.911-6.639-7.06A7.016,7.016,0,1,0,7.15,61.388c3.759.107,7.329-3.378,7.024-6.964" transform="translate(-0.069 -15.817)" fill="#007eac" fill-rule="evenodd"/>
        <path id="Trazado_720594" data-name="Trazado 720594" d="M242.232,47.423a6.5,6.5,0,0,1,6.593,6.469,6.58,6.58,0,0,1-13.161.013,6.429,6.429,0,0,1,6.567-6.482" transform="translate(-78.713 -15.837)" fill="#2896bc" fill-rule="evenodd"/>
        <path id="Trazado_720595" data-name="Trazado 720595" d="M204.947,60.405a6.381,6.381,0,0,1-6.585-6.453,6.58,6.58,0,1,1,13.16.061,6.465,6.465,0,0,1-6.575,6.392" transform="translate(-66.253 -15.825)" fill="#007eac" fill-rule="evenodd"/>
        <path id="Trazado_720596" data-name="Trazado 720596" d="M279.516,47.418a6.415,6.415,0,0,1,6.58,6.475,6.508,6.508,0,0,1-6.911,6.545,6.634,6.634,0,0,1-6.261-6.565c-.057-3.323,3.275-6.76,6.592-6.455" transform="translate(-91.157 -15.831)" fill="#41a2c6" fill-rule="evenodd"/>
        <path id="Trazado_720597" data-name="Trazado 720597" d="M316.886,47.423a6.519,6.519,0,0,1,6.537,6.5,6.586,6.586,0,1,1-6.537-6.5" transform="translate(-103.626 -15.837)" fill="#5cb0cd" fill-rule="evenodd"/>
        <path id="Trazado_720598" data-name="Trazado 720598" d="M360.581,53.911c.364,3.226-2.871,6.649-6.62,6.529a6.538,6.538,0,1,1,.4-13.07c3.345.081,6.571,3.233,6.223,6.54" transform="translate(-116.091 -15.821)" fill="#75bbd4" fill-rule="evenodd"/>
        <path id="Trazado_720599" data-name="Trazado 720599" d="M397.9,54c.281,3.361-3.092,6.552-6.6,6.453a6.645,6.645,0,0,1-6.395-6.615,6.546,6.546,0,0,1,6.751-6.438A6.478,6.478,0,0,1,397.9,54" transform="translate(-128.56 -15.831)" fill="#8fc8dc" fill-rule="evenodd"/>
        <path id="Trazado_720600" data-name="Trazado 720600" d="M1.194,157.5H.107a.108.108,0,0,0-.107.107v10.021a.107.107,0,0,0,.107.107H1.194a.108.108,0,0,0,.107-.107V157.606a.108.108,0,0,0-.107-.107m5.787,3.317a1.936,1.936,0,0,0-.694-.521,2.192,2.192,0,0,0-.928-.2,2.134,2.134,0,0,0-1.146.311,2.29,2.29,0,0,0-.638.612v-.652a.107.107,0,0,0-.107-.107h-.91a.107.107,0,0,0-.107.107v7.259a.107.107,0,0,0,.107.107h1a.107.107,0,0,0,.107-.107v-3.969a2.959,2.959,0,0,1,.408-1.788,1.288,1.288,0,0,1,1.072-.5,1.036,1.036,0,0,1,.612.182,1.068,1.068,0,0,1,.388.52,3.588,3.588,0,0,1,.13,1.134v4.42a.107.107,0,0,0,.107.107h1a.107.107,0,0,0,.107-.107v-4.464a6.706,6.706,0,0,0-.126-1.516,2.121,2.121,0,0,0-.392-.831m5.405,2.945a8.228,8.228,0,0,0-1.645-.646,5,5,0,0,1-1.065-.42.641.641,0,0,1-.265-.547.719.719,0,0,1,.281-.587,1.437,1.437,0,0,1,.91-.239,1.08,1.08,0,0,1,1.186,1.1.1.1,0,0,0,.042.073.1.1,0,0,0,.081.02l.985-.165a.107.107,0,0,0,.089-.12,2.918,2.918,0,0,0-.386-1.2,1.96,1.96,0,0,0-.812-.681,2.8,2.8,0,0,0-1.212-.249,2.37,2.37,0,0,0-1.722.611,2.131,2.131,0,0,0-.627,1.588,2.183,2.183,0,0,0,.23,1.012,1.822,1.822,0,0,0,.653.718,7.434,7.434,0,0,0,1.6.629,3.618,3.618,0,0,1,.991.392.692.692,0,0,1,.266.585.955.955,0,0,1-.323.745,1.363,1.363,0,0,1-.941.3,1.366,1.366,0,0,1-.976-.345,1.709,1.709,0,0,1-.452-1.077.1.1,0,0,0-.043-.075.107.107,0,0,0-.084-.019l-1,.192a.106.106,0,0,0-.086.121,2.448,2.448,0,0,0,2.587,2.429,2.586,2.586,0,0,0,1.876-.674,2.365,2.365,0,0,0,.691-1.762A2.253,2.253,0,0,0,13,164.447a1.714,1.714,0,0,0-.61-.685m3.822,2.68a.114.114,0,0,0-.083-.02,2.626,2.626,0,0,1-.426.047.4.4,0,0,1-.39-.19,1.811,1.811,0,0,1-.077-.708v-4.138h.911a.107.107,0,0,0,.107-.107v-.957a.107.107,0,0,0-.107-.107h-.911v-2.429a.109.109,0,0,0-.059-.1.105.105,0,0,0-.111.01l-1.006.738a.108.108,0,0,0-.043.087v1.691h-.631a.107.107,0,0,0-.107.107v.957a.108.108,0,0,0,.107.107h.631V165.5a5.525,5.525,0,0,0,.125,1.476,1.166,1.166,0,0,0,.484.627,1.656,1.656,0,0,0,.906.226,3.094,3.094,0,0,0,.78-.114.107.107,0,0,0,.079-.117l-.137-1.088a.108.108,0,0,0-.043-.072m1.5-8.942h-1a.107.107,0,0,0-.107.107v1.415a.107.107,0,0,0,.107.108h1a.108.108,0,0,0,.107-.108v-1.415a.108.108,0,0,0-.107-.107m0,2.762h-1a.107.107,0,0,0-.107.107v7.259a.107.107,0,0,0,.107.107h1a.107.107,0,0,0,.107-.107v-7.259a.107.107,0,0,0-.107-.107m3.459,6.18a.111.111,0,0,0-.082-.02c-.494.087-.712.055-.816-.143a1.811,1.811,0,0,1-.077-.708v-4.138H21.1a.108.108,0,0,0,.107-.107v-.957a.107.107,0,0,0-.107-.107h-.911v-2.429a.107.107,0,0,0-.171-.087l-1,.738a.109.109,0,0,0-.043.087v1.691h-.631a.108.108,0,0,0-.107.107v.957a.108.108,0,0,0,.107.107h.631V165.5a5.525,5.525,0,0,0,.125,1.476,1.167,1.167,0,0,0,.484.627,1.651,1.651,0,0,0,.906.226,3.076,3.076,0,0,0,.779-.114.107.107,0,0,0,.079-.117l-.137-1.088a.107.107,0,0,0-.043-.072m5.293-6.18H25.448a.107.107,0,0,0-.107.107v3.889a3.148,3.148,0,0,1-.374,1.814,1.334,1.334,0,0,1-1.106.554,1.009,1.009,0,0,1-.629-.208,1.037,1.037,0,0,1-.378-.553,6.309,6.309,0,0,1-.109-1.469v-4.027a.107.107,0,0,0-.107-.107h-1a.108.108,0,0,0-.107.107v4.5a6.073,6.073,0,0,0,.172,1.615,1.925,1.925,0,0,0,.7,1.016,2.044,2.044,0,0,0,1.268.4,2.017,2.017,0,0,0,1.125-.326,2.481,2.481,0,0,0,.655-.645v.7a.107.107,0,0,0,.107.107h.9a.107.107,0,0,0,.107-.107v-7.259a.107.107,0,0,0-.107-.107m3.5,6.18a.113.113,0,0,0-.083-.02c-.494.087-.712.055-.816-.143a1.8,1.8,0,0,1-.077-.708v-4.138H29.9a.108.108,0,0,0,.107-.107v-.957a.108.108,0,0,0-.107-.107h-.912v-2.429a.108.108,0,0,0-.059-.1.106.106,0,0,0-.112.01l-1,.738a.108.108,0,0,0-.043.087v1.691h-.632a.108.108,0,0,0-.107.107v.957a.108.108,0,0,0,.107.107h.632V165.5a5.534,5.534,0,0,0,.125,1.476,1.167,1.167,0,0,0,.484.627,1.652,1.652,0,0,0,.906.226,3.089,3.089,0,0,0,.779-.114.106.106,0,0,0,.079-.117L30,166.513a.1.1,0,0,0-.043-.072m2.9-6.344a2.6,2.6,0,0,1,2.072.995,4.326,4.326,0,0,1,.825,2.831,4.644,4.644,0,0,1-.811,2.98,2.667,2.667,0,0,1-4.16,0,5.565,5.565,0,0,1-.007-5.807,2.6,2.6,0,0,1,2.082-1m.028,6.575a1.374,1.374,0,0,0,1.134-.651,4.442,4.442,0,0,0,0-4.055,1.421,1.421,0,0,0-1.185-.645,1.371,1.371,0,0,0-1.138.649,4.461,4.461,0,0,0,.007,4.058,1.422,1.422,0,0,0,1.185.644M45.831,157.5H44.792a.108.108,0,0,0-.108.107v7.464l-4.119-7.516a.106.106,0,0,0-.094-.056H39.357a.108.108,0,0,0-.107.107v10.021a.107.107,0,0,0,.107.107H40.4a.107.107,0,0,0,.107-.107v-7.466l4.113,7.518a.107.107,0,0,0,.095.055h1.114a.107.107,0,0,0,.107-.107V157.606a.107.107,0,0,0-.107-.107m6.293,9.242a21.112,21.112,0,0,1-.064-2.156v-1.64a6.308,6.308,0,0,0-.144-1.545,1.618,1.618,0,0,0-.717-.934,2.759,2.759,0,0,0-1.528-.37,2.944,2.944,0,0,0-1.918.557,2.874,2.874,0,0,0-.9,1.765.115.115,0,0,0,.018.082.109.109,0,0,0,.07.044l.992.164a.107.107,0,0,0,.123-.085,1.816,1.816,0,0,1,.476-1.034,1.52,1.52,0,0,1,.984-.268,1.347,1.347,0,0,1,1.075.4,1.5,1.5,0,0,1,.239.972l0,.244a8.046,8.046,0,0,1-1.714.4,3.857,3.857,0,0,0-1.408.417,2.06,2.06,0,0,0-.75.8,2.444,2.444,0,0,0-.272,1.166,2.167,2.167,0,0,0,.585,1.586,2.1,2.1,0,0,0,1.56.593,2.677,2.677,0,0,0,1.181-.278,3.69,3.69,0,0,0,.925-.658,2.966,2.966,0,0,0,.186.705.108.108,0,0,0,.1.066h1.056a.107.107,0,0,0,.11-.107.1.1,0,0,0-.027-.07,3.189,3.189,0,0,1-.236-.816m-1.3-2.591h0v.284a3.262,3.262,0,0,1-.208,1.319,1.651,1.651,0,0,1-.62.7,1.7,1.7,0,0,1-.924.263,1.127,1.127,0,0,1-.815-.28.993.993,0,0,1-.288-.754,1.108,1.108,0,0,1,.127-.539.877.877,0,0,1,.351-.354,3.047,3.047,0,0,1,.855-.238,7.162,7.162,0,0,0,1.522-.4m7.211.87-.991-.157a.1.1,0,0,0-.082.021.1.1,0,0,0-.041.072,2.308,2.308,0,0,1-.489,1.31,1.173,1.173,0,0,1-.9.406,1.3,1.3,0,0,1-1.112-.617,3.719,3.719,0,0,1-.449-2.084,3.476,3.476,0,0,1,.468-2.032,1.368,1.368,0,0,1,1.148-.617,1.044,1.044,0,0,1,.778.332,2.034,2.034,0,0,1,.47,1.045.109.109,0,0,0,.125.085l.978-.178a.106.106,0,0,0,.087-.122,2.941,2.941,0,0,0-.844-1.785,2.341,2.341,0,0,0-1.628-.6,2.516,2.516,0,0,0-2.042.986,4.59,4.59,0,0,0-.786,2.908A4.655,4.655,0,0,0,53.5,166.9a2.457,2.457,0,0,0,2.008,1,2.371,2.371,0,0,0,1.727-.715,3.424,3.424,0,0,0,.888-2.044.106.106,0,0,0-.089-.12m1.45-7.521h-1a.108.108,0,0,0-.107.107v1.415a.108.108,0,0,0,.107.108h1a.108.108,0,0,0,.108-.108v-1.415a.108.108,0,0,0-.108-.107m0,2.762h-1a.107.107,0,0,0-.107.107v7.259a.107.107,0,0,0,.107.107h1a.107.107,0,0,0,.108-.107v-7.259a.107.107,0,0,0-.108-.107m3.56-.164a2.6,2.6,0,0,0-2.082,1,5.563,5.563,0,0,0,.007,5.807,2.668,2.668,0,0,0,4.161,0,4.648,4.648,0,0,0,.811-2.98,4.326,4.326,0,0,0-.825-2.831,2.6,2.6,0,0,0-2.072-.995m.028,6.575h0a1.42,1.42,0,0,1-1.185-.644,4.45,4.45,0,0,1-.007-4.058,1.37,1.37,0,0,1,1.137-.649,1.425,1.425,0,0,1,1.186.645,4.442,4.442,0,0,1,0,4.055,1.373,1.373,0,0,1-1.133.651m7.98-5.856a1.94,1.94,0,0,0-.693-.521,2.192,2.192,0,0,0-.928-.2,2.136,2.136,0,0,0-1.146.311,2.3,2.3,0,0,0-.638.612v-.652a.107.107,0,0,0-.107-.107h-.909a.108.108,0,0,0-.107.107v7.259a.108.108,0,0,0,.107.107h1a.107.107,0,0,0,.107-.107v-3.969a2.959,2.959,0,0,1,.408-1.788,1.289,1.289,0,0,1,1.072-.5,1.032,1.032,0,0,1,.611.182,1.066,1.066,0,0,1,.389.52,3.588,3.588,0,0,1,.13,1.134v4.42a.107.107,0,0,0,.107.107h1a.107.107,0,0,0,.107-.107v-4.464a6.753,6.753,0,0,0-.125-1.516,2.13,2.13,0,0,0-.393-.831m6.555,5.925a21.2,21.2,0,0,1-.063-2.156v-1.64A6.341,6.341,0,0,0,77.4,161.4a1.625,1.625,0,0,0-.718-.934,2.759,2.759,0,0,0-1.528-.37,2.941,2.941,0,0,0-1.917.557,2.867,2.867,0,0,0-.9,1.765.115.115,0,0,0,.018.082.111.111,0,0,0,.07.044l.992.164a.107.107,0,0,0,.123-.085,1.821,1.821,0,0,1,.476-1.034,1.52,1.52,0,0,1,.984-.268,1.346,1.346,0,0,1,1.075.4,1.5,1.5,0,0,1,.24.972l-.005.244a8.036,8.036,0,0,1-1.714.4,3.853,3.853,0,0,0-1.407.417,2.057,2.057,0,0,0-.751.8,2.452,2.452,0,0,0-.272,1.166,2.167,2.167,0,0,0,.585,1.586,2.1,2.1,0,0,0,1.56.593,2.679,2.679,0,0,0,1.182-.278,3.712,3.712,0,0,0,.924-.658,2.933,2.933,0,0,0,.187.705.107.107,0,0,0,.1.066h1.056a.107.107,0,0,0,.083-.177,3.165,3.165,0,0,1-.236-.816m-1.3-2.591h0v.284a3.251,3.251,0,0,1-.208,1.319,1.651,1.651,0,0,1-.62.7,1.7,1.7,0,0,1-.924.263,1.126,1.126,0,0,1-.814-.28.994.994,0,0,1-.288-.754,1.108,1.108,0,0,1,.127-.539.881.881,0,0,1,.351-.354,3.047,3.047,0,0,1,.855-.238,7.151,7.151,0,0,0,1.522-.4m3.277-6.651h-1a.108.108,0,0,0-.108.107v10.021a.108.108,0,0,0,.108.107h1a.108.108,0,0,0,.108-.107V157.606a.108.108,0,0,0-.108-.107m8.787,0H87.359a.107.107,0,0,0-.107.107v3.252a2.159,2.159,0,0,0-.543-.483,1.848,1.848,0,0,0-.981-.278,2.2,2.2,0,0,0-1.329.438,2.932,2.932,0,0,0-.948,1.325A5.834,5.834,0,0,0,83.1,164a4.607,4.607,0,0,0,.791,2.865A2.365,2.365,0,0,0,85.8,167.9a1.8,1.8,0,0,0,.988-.294,2.007,2.007,0,0,0,.539-.515v.538a.107.107,0,0,0,.107.107h.944a.107.107,0,0,0,.107-.107V157.606a.108.108,0,0,0-.107-.107m-1.028,6.643h0a3.319,3.319,0,0,1-.452,1.92,1.249,1.249,0,0,1-1.028.611,1.282,1.282,0,0,1-1.051-.638,3.529,3.529,0,0,1-.47-2.03,3.751,3.751,0,0,1,.44-2.055,1.207,1.207,0,0,1,1.006-.627,1.285,1.285,0,0,1,1.1.655,4,4,0,0,1,.455,2.165m4.662-4.045a2.565,2.565,0,0,0-2.083,1.028,4.627,4.627,0,0,0-.813,2.934,4.414,4.414,0,0,0,.806,2.839,2.628,2.628,0,0,0,2.131,1,2.593,2.593,0,0,0,1.755-.617,3.276,3.276,0,0,0,.974-1.812.107.107,0,0,0-.089-.129l-1.039-.156a.1.1,0,0,0-.119.075c-.284.952-.767,1.413-1.477,1.413a1.419,1.419,0,0,1-1.148-.583,2.946,2.946,0,0,1-.537-1.67h4.33a.107.107,0,0,0,.107-.105l.007-.331a4.543,4.543,0,0,0-.8-2.876,2.479,2.479,0,0,0-2.011-1.011M92,161.322h0a1.355,1.355,0,0,1,1.15.633,2.543,2.543,0,0,1,.374,1.239H90.438a2.318,2.318,0,0,1,.494-1.344A1.351,1.351,0,0,1,92,161.322m13.189-3.823h-1.108a.107.107,0,0,0-.1.075l-2.224,7.281c-.121.4-.234.807-.336,1.215-.1-.395-.208-.8-.328-1.214l-2.143-7.281a.106.106,0,0,0-.1-.077H97.674a.106.106,0,0,0-.1.139l3.189,10.022a.108.108,0,0,0,.1.075h1.118a.107.107,0,0,0,.1-.073L105.3,157.64a.107.107,0,0,0-.1-.141m1.241,0h-1a.107.107,0,0,0-.107.107v1.415a.108.108,0,0,0,.107.108h1a.107.107,0,0,0,.107-.108v-1.415a.107.107,0,0,0-.107-.107m0,2.762h-1a.107.107,0,0,0-.107.107v7.259a.107.107,0,0,0,.107.107h1a.107.107,0,0,0,.107-.107v-7.259a.107.107,0,0,0-.107-.107m6,0h-.93a.107.107,0,0,0-.107.107v.537a2.351,2.351,0,0,0-.607-.536,1.959,1.959,0,0,0-1.015-.272,2.3,2.3,0,0,0-1.358.429,2.947,2.947,0,0,0-.97,1.333,5.539,5.539,0,0,0-.363,2.084,4.55,4.55,0,0,0,.829,2.849,2.272,2.272,0,0,0,1.855.943,1.892,1.892,0,0,0,.962-.252,2.3,2.3,0,0,0,.577-.485,7.288,7.288,0,0,1-.085,1.275,1.367,1.367,0,0,1-1.489,1.181,1.352,1.352,0,0,1-.881-.26,1.173,1.173,0,0,1-.373-.8.108.108,0,0,0-.088-.093l-.984-.177a.106.106,0,0,0-.087.023.1.1,0,0,0-.039.081,2.373,2.373,0,0,0,.633,1.8,2.516,2.516,0,0,0,1.853.653,2.757,2.757,0,0,0,1.556-.432,2.43,2.43,0,0,0,.936-1.179,7.386,7.386,0,0,0,.28-2.427v-6.276a.107.107,0,0,0-.107-.107m-1.044,3.662h0a3.382,3.382,0,0,1-.458,1.985,1.3,1.3,0,0,1-1.078.6,1.278,1.278,0,0,1-1.071-.613,3.55,3.55,0,0,1-.453-2.027,3.331,3.331,0,0,1,.456-1.922,1.245,1.245,0,0,1,1.019-.625,1.344,1.344,0,0,1,1.113.625,3.356,3.356,0,0,1,.472,1.976m3.195-3.662h-1a.108.108,0,0,0-.107.107v7.259a.108.108,0,0,0,.107.107h1a.107.107,0,0,0,.107-.107v-7.259a.107.107,0,0,0-.107-.107m0-2.762h-1a.108.108,0,0,0-.107.107v1.415a.108.108,0,0,0,.107.108h1a.108.108,0,0,0,.107-.108v-1.415a.107.107,0,0,0-.107-.107m2.123,0h-1a.108.108,0,0,0-.107.107v10.021a.107.107,0,0,0,.107.107h1a.107.107,0,0,0,.107-.107V157.606a.108.108,0,0,0-.107-.107m6.171,9.242a20.9,20.9,0,0,1-.064-2.156v-1.64a6.268,6.268,0,0,0-.145-1.545,1.618,1.618,0,0,0-.717-.934,2.756,2.756,0,0,0-1.528-.37,2.944,2.944,0,0,0-1.917.557,2.867,2.867,0,0,0-.9,1.765.108.108,0,0,0,.088.126l.991.164a.106.106,0,0,0,.123-.085,1.816,1.816,0,0,1,.477-1.034,1.516,1.516,0,0,1,.984-.268,1.346,1.346,0,0,1,1.075.4,1.5,1.5,0,0,1,.24.972l-.005.244a8.026,8.026,0,0,1-1.714.4,3.857,3.857,0,0,0-1.407.417,2.05,2.05,0,0,0-.75.8,2.445,2.445,0,0,0-.272,1.166,2.167,2.167,0,0,0,.584,1.586,2.1,2.1,0,0,0,1.56.593,2.677,2.677,0,0,0,1.181-.278,3.714,3.714,0,0,0,.925-.658,2.934,2.934,0,0,0,.186.705.108.108,0,0,0,.1.066h1.054a.105.105,0,0,0,.111-.107.1.1,0,0,0-.027-.07,3.137,3.137,0,0,1-.236-.816m-1.3-2.591h0v.284a3.262,3.262,0,0,1-.208,1.319,1.652,1.652,0,0,1-.621.7,1.693,1.693,0,0,1-.923.263,1.126,1.126,0,0,1-.815-.28.994.994,0,0,1-.288-.754,1.115,1.115,0,0,1,.127-.539.877.877,0,0,1,.351-.354,3.053,3.053,0,0,1,.856-.238,7.173,7.173,0,0,0,1.522-.4m6.727-3.334a1.934,1.934,0,0,0-.693-.521,2.192,2.192,0,0,0-.928-.2,2.134,2.134,0,0,0-1.146.311,2.29,2.29,0,0,0-.638.612v-.652a.107.107,0,0,0-.107-.107h-.909a.107.107,0,0,0-.107.107v7.259a.107.107,0,0,0,.107.107h1a.108.108,0,0,0,.107-.107v-3.969a2.959,2.959,0,0,1,.408-1.788,1.287,1.287,0,0,1,1.071-.5,1.038,1.038,0,0,1,.613.182,1.067,1.067,0,0,1,.388.52,3.564,3.564,0,0,1,.131,1.134v4.42a.107.107,0,0,0,.107.107h1a.107.107,0,0,0,.107-.107v-4.464a6.706,6.706,0,0,0-.126-1.516,2.121,2.121,0,0,0-.393-.831m6.476,4.2-.992-.157a.1.1,0,0,0-.081.021.1.1,0,0,0-.042.072,2.308,2.308,0,0,1-.489,1.31,1.173,1.173,0,0,1-.9.406,1.3,1.3,0,0,1-1.112-.617,3.719,3.719,0,0,1-.449-2.084,3.471,3.471,0,0,1,.468-2.032,1.367,1.367,0,0,1,1.148-.617,1.041,1.041,0,0,1,.777.332,2.04,2.04,0,0,1,.472,1.045.108.108,0,0,0,.124.085l.978-.178a.106.106,0,0,0,.087-.122,2.938,2.938,0,0,0-.844-1.785,2.339,2.339,0,0,0-1.628-.6,2.516,2.516,0,0,0-2.042.986,4.6,4.6,0,0,0-.785,2.908,4.655,4.655,0,0,0,.778,2.906,2.459,2.459,0,0,0,2.009,1,2.374,2.374,0,0,0,1.727-.715,3.436,3.436,0,0,0,.888-2.044.107.107,0,0,0-.09-.12m1.451-7.521h-1a.108.108,0,0,0-.108.107v1.415a.108.108,0,0,0,.108.108h1a.108.108,0,0,0,.107-.108v-1.415a.108.108,0,0,0-.107-.107m0,2.762h-1a.107.107,0,0,0-.108.107v7.259a.107.107,0,0,0,.108.107h1a.107.107,0,0,0,.107-.107v-7.259a.107.107,0,0,0-.107-.107m6.136,6.48a21.116,21.116,0,0,1-.064-2.156v-1.64a6.308,6.308,0,0,0-.144-1.545,1.619,1.619,0,0,0-.718-.934,2.756,2.756,0,0,0-1.528-.37,2.945,2.945,0,0,0-1.917.557,2.87,2.87,0,0,0-.9,1.765.108.108,0,0,0,.088.126l.992.164a.106.106,0,0,0,.122-.085,1.816,1.816,0,0,1,.477-1.034,1.52,1.52,0,0,1,.984-.268,1.346,1.346,0,0,1,1.074.4,1.493,1.493,0,0,1,.24.972l-.006.244a8.018,8.018,0,0,1-1.714.4,3.844,3.844,0,0,0-1.407.417,2.054,2.054,0,0,0-.751.8,2.46,2.46,0,0,0-.272,1.166,2.167,2.167,0,0,0,.585,1.586,2.1,2.1,0,0,0,1.56.593,2.677,2.677,0,0,0,1.181-.278,3.715,3.715,0,0,0,.925-.658,2.933,2.933,0,0,0,.187.705.106.106,0,0,0,.1.066h1.056a.107.107,0,0,0,.11-.107.1.1,0,0,0-.027-.07,3.19,3.19,0,0,1-.236-.816m-1.3-2.591h0v.284a3.249,3.249,0,0,1-.209,1.319,1.645,1.645,0,0,1-.619.7,1.7,1.7,0,0,1-.924.263,1.125,1.125,0,0,1-.814-.28.992.992,0,0,1-.289-.754,1.123,1.123,0,0,1,.127-.539.879.879,0,0,1,.352-.354,3.04,3.04,0,0,1,.855-.238,7.174,7.174,0,0,0,1.522-.4m9.906-6.651h-1.019a.107.107,0,0,0-.107.107v3.252a2.128,2.128,0,0,0-.544-.483,1.842,1.842,0,0,0-.98-.278,2.21,2.21,0,0,0-1.33.438,2.935,2.935,0,0,0-.946,1.325,5.848,5.848,0,0,0-.349,2.139,4.6,4.6,0,0,0,.792,2.865,2.365,2.365,0,0,0,1.905,1.036,1.8,1.8,0,0,0,.988-.294,2,2,0,0,0,.539-.515v.538a.107.107,0,0,0,.107.107h.944a.107.107,0,0,0,.106-.107V157.606a.107.107,0,0,0-.106-.107m-1.029,6.643h0a3.325,3.325,0,0,1-.452,1.92,1.249,1.249,0,0,1-1.028.611,1.284,1.284,0,0,1-1.052-.638,3.529,3.529,0,0,1-.47-2.03,3.756,3.756,0,0,1,.441-2.055,1.206,1.206,0,0,1,1.006-.627,1.288,1.288,0,0,1,1.1.655,4,4,0,0,1,.453,2.165m4.663-4.045a2.566,2.566,0,0,0-2.083,1.028,4.627,4.627,0,0,0-.813,2.934,4.414,4.414,0,0,0,.807,2.839,2.628,2.628,0,0,0,2.131,1,2.591,2.591,0,0,0,1.754-.617,3.277,3.277,0,0,0,.976-1.812.1.1,0,0,0-.017-.083.1.1,0,0,0-.071-.046l-1.04-.156a.1.1,0,0,0-.119.075c-.285.952-.767,1.413-1.477,1.413a1.419,1.419,0,0,1-1.148-.583,2.936,2.936,0,0,1-.537-1.67h4.33a.108.108,0,0,0,.107-.105l.007-.331a4.547,4.547,0,0,0-.8-2.876,2.482,2.482,0,0,0-2.012-1.011m-.006,1.225h0a1.356,1.356,0,0,1,1.15.633,2.557,2.557,0,0,1,.374,1.239h-3.092a2.314,2.314,0,0,1,.494-1.344,1.351,1.351,0,0,1,1.074-.527m14.316-3.823h-1.463a.106.106,0,0,0-.1.078l-1.971,6.974c-.136.484-.246.889-.335,1.215l-2.238-8.188a.106.106,0,0,0-.1-.079h-1.636a.107.107,0,0,0-.106.107v10.021a.106.106,0,0,0,.106.107h1.047a.107.107,0,0,0,.106-.107v-7.744l2.173,7.773a.107.107,0,0,0,.1.078h.978a.107.107,0,0,0,.1-.078l2.186-7.646v7.616a.108.108,0,0,0,.108.107h1.045a.108.108,0,0,0,.108-.107V157.606a.108.108,0,0,0-.108-.107m3.656,2.6a2.566,2.566,0,0,0-2.083,1.028,4.623,4.623,0,0,0-.813,2.934,4.41,4.41,0,0,0,.807,2.839,2.626,2.626,0,0,0,2.131,1,2.6,2.6,0,0,0,1.755-.617,3.272,3.272,0,0,0,.974-1.812.106.106,0,0,0-.017-.083.108.108,0,0,0-.072-.046l-1.039-.156a.1.1,0,0,0-.119.075c-.284.952-.767,1.413-1.477,1.413a1.421,1.421,0,0,1-1.148-.583,2.941,2.941,0,0,1-.536-1.67h4.33a.108.108,0,0,0,.107-.105l.008-.331a4.551,4.551,0,0,0-.8-2.876,2.482,2.482,0,0,0-2.012-1.011m-.007,1.225h0a1.355,1.355,0,0,1,1.15.633,2.55,2.55,0,0,1,.374,1.239h-3.091a2.314,2.314,0,0,1,.494-1.344,1.351,1.351,0,0,1,1.074-.527m8.357-3.823h-1.018a.107.107,0,0,0-.108.107v3.252a2.122,2.122,0,0,0-.543-.483,1.848,1.848,0,0,0-.981-.278,2.2,2.2,0,0,0-1.329.438,2.931,2.931,0,0,0-.948,1.325,5.849,5.849,0,0,0-.348,2.139,4.607,4.607,0,0,0,.792,2.865,2.363,2.363,0,0,0,1.905,1.036,1.8,1.8,0,0,0,.988-.294,2,2,0,0,0,.539-.515v.538a.107.107,0,0,0,.107.107h.943a.107.107,0,0,0,.107-.107V157.606a.107.107,0,0,0-.107-.107m-1.028,6.643h0a3.315,3.315,0,0,1-.452,1.92,1.248,1.248,0,0,1-1.028.611,1.284,1.284,0,0,1-1.052-.638A3.535,3.535,0,0,1,176.9,164a3.745,3.745,0,0,1,.44-2.055,1.2,1.2,0,0,1,1.006-.627,1.285,1.285,0,0,1,1.1.655,3.984,3.984,0,0,1,.454,2.165m3.227-6.643h-1a.107.107,0,0,0-.107.107v1.415a.107.107,0,0,0,.107.108h1a.108.108,0,0,0,.108-.108v-1.415a.108.108,0,0,0-.108-.107m0,2.762h-1a.107.107,0,0,0-.107.107v7.259a.107.107,0,0,0,.107.107h1a.108.108,0,0,0,.108-.107v-7.259a.108.108,0,0,0-.108-.107m11.486,6.48c-.041-.291-.063-1.016-.063-2.156v-1.64a6.275,6.275,0,0,0-.144-1.545,1.622,1.622,0,0,0-.718-.934,2.757,2.757,0,0,0-1.528-.37,2.945,2.945,0,0,0-1.917.557,2.866,2.866,0,0,0-.894,1.765.1.1,0,0,0,.017.082.108.108,0,0,0,.069.044l.992.164a.1.1,0,0,0,.122-.085,1.821,1.821,0,0,1,.476-1.034,1.521,1.521,0,0,1,.984-.268,1.345,1.345,0,0,1,1.075.4,1.493,1.493,0,0,1,.24.972l0,.244a8.044,8.044,0,0,1-1.715.4,3.857,3.857,0,0,0-1.407.417,2.06,2.06,0,0,0-.75.8,2.278,2.278,0,0,0-.192.509.107.107,0,0,0-.07-.043l-.992-.157a.1.1,0,0,0-.08.021.109.109,0,0,0-.043.072,2.3,2.3,0,0,1-.488,1.31,1.174,1.174,0,0,1-.9.406,1.3,1.3,0,0,1-1.112-.617,3.725,3.725,0,0,1-.448-2.084,3.481,3.481,0,0,1,.468-2.032,1.369,1.369,0,0,1,1.149-.617,1.038,1.038,0,0,1,.776.332,2.024,2.024,0,0,1,.472,1.045.109.109,0,0,0,.124.085l.978-.178a.1.1,0,0,0,.086-.122,2.934,2.934,0,0,0-.843-1.785,2.338,2.338,0,0,0-1.626-.6,2.516,2.516,0,0,0-2.043.986,4.594,4.594,0,0,0-.786,2.908,4.655,4.655,0,0,0,.779,2.906,2.456,2.456,0,0,0,2.009,1,2.371,2.371,0,0,0,1.726-.715,3.118,3.118,0,0,0,.791-1.529c0,.022,0,.043,0,.066a2.169,2.169,0,0,0,.584,1.586,2.1,2.1,0,0,0,1.56.593,2.679,2.679,0,0,0,1.182-.278,3.711,3.711,0,0,0,.924-.658,3,3,0,0,0,.186.705.108.108,0,0,0,.1.066h1.056a.1.1,0,0,0,.11-.107.1.1,0,0,0-.027-.07,3.22,3.22,0,0,1-.237-.816m-1.3-2.591h0v.284a3.251,3.251,0,0,1-.208,1.319,1.651,1.651,0,0,1-.62.7,1.7,1.7,0,0,1-.924.263,1.13,1.13,0,0,1-.815-.28,1,1,0,0,1-.288-.754,1.115,1.115,0,0,1,.127-.539.875.875,0,0,1,.35-.354,3.062,3.062,0,0,1,.854-.238,7.166,7.166,0,0,0,1.523-.4m8.54-4.053a1.894,1.894,0,0,0-1.086.335,2.727,2.727,0,0,0-.733.785,1.777,1.777,0,0,0-.579-.777,1.834,1.834,0,0,0-1.126-.344,1.968,1.968,0,0,0-1.088.323,2.248,2.248,0,0,0-.605.584v-.636a.107.107,0,0,0-.108-.107h-.9a.108.108,0,0,0-.107.107v7.259a.108.108,0,0,0,.107.107h1.006a.107.107,0,0,0,.107-.107v-3.77a3.627,3.627,0,0,1,.38-1.974,1.159,1.159,0,0,1,1-.512.788.788,0,0,1,.675.326,2.1,2.1,0,0,1,.256,1.208v4.722a.107.107,0,0,0,.107.107h1a.107.107,0,0,0,.107-.107v-4.222a2.516,2.516,0,0,1,.39-1.558,1.188,1.188,0,0,1,.982-.476.865.865,0,0,1,.508.158.886.886,0,0,1,.328.451,3.681,3.681,0,0,1,.107,1.07v4.578a.108.108,0,0,0,.108.107h1a.107.107,0,0,0,.108-.107v-4.982a2.965,2.965,0,0,0-.519-1.93,1.79,1.79,0,0,0-1.434-.618m5.377,0a2.565,2.565,0,0,0-2.083,1.028,4.631,4.631,0,0,0-.814,2.934,4.414,4.414,0,0,0,.807,2.839,2.629,2.629,0,0,0,2.131,1,2.6,2.6,0,0,0,1.757-.617,3.283,3.283,0,0,0,.973-1.812.109.109,0,0,0-.016-.083.1.1,0,0,0-.073-.046l-1.038-.156a.1.1,0,0,0-.119.075c-.284.952-.768,1.413-1.477,1.413a1.418,1.418,0,0,1-1.146-.583,2.932,2.932,0,0,1-.537-1.67h4.329a.11.11,0,0,0,.108-.105l.007-.331a4.547,4.547,0,0,0-.8-2.876,2.48,2.48,0,0,0-2.012-1.011m-.006,1.225h0a1.357,1.357,0,0,1,1.151.633,2.564,2.564,0,0,1,.374,1.239h-3.094a2.319,2.319,0,0,1,.5-1.344,1.349,1.349,0,0,1,1.073-.527m7.98-.505a1.931,1.931,0,0,0-.693-.521,2.2,2.2,0,0,0-.929-.2,2.137,2.137,0,0,0-1.145.311,2.31,2.31,0,0,0-.639.612v-.652a.106.106,0,0,0-.106-.107h-.91a.107.107,0,0,0-.107.107v7.259a.107.107,0,0,0,.107.107h1a.108.108,0,0,0,.107-.107v-3.969a2.959,2.959,0,0,1,.408-1.788,1.288,1.288,0,0,1,1.071-.5,1.037,1.037,0,0,1,.612.182,1.064,1.064,0,0,1,.388.52,3.607,3.607,0,0,1,.13,1.134v4.42a.108.108,0,0,0,.107.107h1a.107.107,0,0,0,.107-.107v-4.464a6.714,6.714,0,0,0-.125-1.516,2.131,2.131,0,0,0-.394-.831m3.879,5.625a.114.114,0,0,0-.083-.02,2.626,2.626,0,0,1-.426.047.4.4,0,0,1-.39-.19,1.764,1.764,0,0,1-.078-.708v-4.138h.912a.108.108,0,0,0,.108-.107v-.957a.107.107,0,0,0-.108-.107h-.912v-2.429a.109.109,0,0,0-.058-.1.107.107,0,0,0-.113.01l-1,.738a.105.105,0,0,0-.045.087v1.691h-.63a.107.107,0,0,0-.109.107v.957a.108.108,0,0,0,.109.107h.63V165.5a5.593,5.593,0,0,0,.125,1.476,1.177,1.177,0,0,0,.484.627,1.657,1.657,0,0,0,.906.226,3.072,3.072,0,0,0,.779-.114.108.108,0,0,0,.08-.117l-.136-1.088a.112.112,0,0,0-.043-.072m2.9-6.344a2.6,2.6,0,0,1,2.071.995,4.322,4.322,0,0,1,.825,2.831,4.64,4.64,0,0,1-.811,2.98,2.666,2.666,0,0,1-4.16,0,5.565,5.565,0,0,1-.009-5.807,2.6,2.6,0,0,1,2.083-1m.027,6.575a1.375,1.375,0,0,0,1.134-.651,4.433,4.433,0,0,0,0-4.055,1.423,1.423,0,0,0-1.185-.645,1.371,1.371,0,0,0-1.137.649,4.458,4.458,0,0,0,.006,4.058,1.422,1.422,0,0,0,1.186.644m7.393-2.911a8.228,8.228,0,0,0-1.645-.646,4.962,4.962,0,0,1-1.064-.42.638.638,0,0,1-.266-.547.722.722,0,0,1,.282-.587,1.439,1.439,0,0,1,.91-.239,1.079,1.079,0,0,1,1.185,1.1.118.118,0,0,0,.042.073.105.105,0,0,0,.083.02l.984-.165a.107.107,0,0,0,.089-.12,2.918,2.918,0,0,0-.386-1.2,1.958,1.958,0,0,0-.813-.681,2.8,2.8,0,0,0-1.211-.249,2.369,2.369,0,0,0-1.722.611,2.134,2.134,0,0,0-.627,1.588,2.168,2.168,0,0,0,.231,1.012,1.822,1.822,0,0,0,.653.718,7.4,7.4,0,0,0,1.6.629,3.618,3.618,0,0,1,.991.392.693.693,0,0,1,.266.585.955.955,0,0,1-.322.745,1.6,1.6,0,0,1-1.918-.049,1.713,1.713,0,0,1-.452-1.077.105.105,0,0,0-.042-.075.109.109,0,0,0-.085-.019l-1,.192a.106.106,0,0,0-.086.121,2.448,2.448,0,0,0,2.587,2.429,2.583,2.583,0,0,0,1.875-.674,2.363,2.363,0,0,0,.692-1.762,2.262,2.262,0,0,0-.215-1.017,1.709,1.709,0,0,0-.61-.685m9.211-3.5h-1.012a.107.107,0,0,0-.1.076l-1.271,4.229c-.115.388-.219.787-.311,1.191-.1-.425-.211-.833-.324-1.217l-1.243-4.2a.109.109,0,0,0-.1-.077H233.17a.1.1,0,0,0-.087.043.106.106,0,0,0-.016.1l2.255,7.239c-.294.931-.366,1.126-.381,1.158a.881.881,0,0,1-.307.36,1.176,1.176,0,0,1-1.014.009.113.113,0,0,0-.1.017.111.111,0,0,0-.04.094l.11,1.157a.106.106,0,0,0,.065.089,1.837,1.837,0,0,0,.692.158,1.427,1.427,0,0,0,.794-.229,1.934,1.934,0,0,0,.619-.733,13.394,13.394,0,0,0,.71-1.937l2.258-7.383a.1.1,0,0,0-.016-.1.107.107,0,0,0-.086-.043m6.3-2.689a.108.108,0,0,0-.1-.073h-1.162a.106.106,0,0,0-.1.075l-3.17,10.021a.105.105,0,0,0,.016.1.108.108,0,0,0,.087.045h1.146a.107.107,0,0,0,.1-.077l.87-2.958h3.3l.933,2.96a.106.106,0,0,0,.1.075h1.245a.1.1,0,0,0,.087-.045.111.111,0,0,0,.015-.1Zm.579,5.833H243l.87-2.8a14.788,14.788,0,0,0,.362-1.435c.119.451.274.988.463,1.6Zm3.981-5.906h-1a.108.108,0,0,0-.109.107v10.021a.107.107,0,0,0,.109.107h1a.108.108,0,0,0,.108-.107V157.606a.108.108,0,0,0-.108-.107m2.192,2.762h-1a.108.108,0,0,0-.107.107v7.259a.108.108,0,0,0,.107.107h1a.107.107,0,0,0,.107-.107v-7.259a.107.107,0,0,0-.107-.107m0-2.762h-1a.108.108,0,0,0-.107.107v1.415a.108.108,0,0,0,.107.108h1a.107.107,0,0,0,.107-.108v-1.415a.107.107,0,0,0-.107-.107m7.388,2.6a1.884,1.884,0,0,0-1.086.335,2.673,2.673,0,0,0-.733.785,1.778,1.778,0,0,0-.58-.777,1.837,1.837,0,0,0-1.125-.344,1.967,1.967,0,0,0-1.089.323,2.26,2.26,0,0,0-.606.584v-.636a.107.107,0,0,0-.107-.107h-.9a.108.108,0,0,0-.108.107v7.259a.108.108,0,0,0,.108.107h1a.107.107,0,0,0,.109-.107v-3.77a3.65,3.65,0,0,1,.378-1.974,1.162,1.162,0,0,1,1-.512.791.791,0,0,1,.677.326,2.111,2.111,0,0,1,.255,1.208v4.722a.107.107,0,0,0,.107.107h1a.108.108,0,0,0,.109-.107v-4.222a2.509,2.509,0,0,1,.388-1.558,1.189,1.189,0,0,1,.981-.476.866.866,0,0,1,.509.158.882.882,0,0,1,.328.451,3.675,3.675,0,0,1,.108,1.07v4.578a.107.107,0,0,0,.106.107h1.006a.107.107,0,0,0,.107-.107v-4.982a2.961,2.961,0,0,0-.519-1.93,1.79,1.79,0,0,0-1.433-.618m5.377,0a2.565,2.565,0,0,0-2.083,1.028,4.618,4.618,0,0,0-.814,2.934,4.41,4.41,0,0,0,.807,2.839,2.626,2.626,0,0,0,2.131,1,2.592,2.592,0,0,0,1.754-.617,3.273,3.273,0,0,0,.975-1.812.1.1,0,0,0-.017-.083.108.108,0,0,0-.071-.046l-1.04-.156a.106.106,0,0,0-.12.075c-.283.952-.766,1.413-1.475,1.413a1.419,1.419,0,0,1-1.147-.583,2.957,2.957,0,0,1-.538-1.67h4.331a.106.106,0,0,0,.106-.105l.008-.331a4.551,4.551,0,0,0-.8-2.876,2.481,2.481,0,0,0-2.012-1.011m-.007,1.225h0a1.353,1.353,0,0,1,1.15.633,2.529,2.529,0,0,1,.374,1.239H262.87a2.318,2.318,0,0,1,.493-1.344,1.355,1.355,0,0,1,1.074-.527m7.981-.505a1.922,1.922,0,0,0-.693-.521,2.19,2.19,0,0,0-.928-.2,2.128,2.128,0,0,0-1.145.311,2.29,2.29,0,0,0-.638.612v-.652a.107.107,0,0,0-.107-.107H268a.108.108,0,0,0-.107.107v7.259a.108.108,0,0,0,.107.107h1a.107.107,0,0,0,.107-.107v-3.969a2.964,2.964,0,0,1,.407-1.788,1.291,1.291,0,0,1,1.072-.5,1.039,1.039,0,0,1,.613.182,1.066,1.066,0,0,1,.387.52,3.568,3.568,0,0,1,.13,1.134v4.42a.107.107,0,0,0,.109.107h1a.107.107,0,0,0,.108-.107v-4.464a6.737,6.737,0,0,0-.127-1.516,2.112,2.112,0,0,0-.393-.831m3.877,5.625a.111.111,0,0,0-.082-.02c-.494.087-.713.055-.817-.143a1.836,1.836,0,0,1-.076-.708v-4.138h.911a.108.108,0,0,0,.107-.107v-.957a.108.108,0,0,0-.107-.107h-.911v-2.429a.107.107,0,0,0-.061-.1.1.1,0,0,0-.11.01l-1.006.738a.109.109,0,0,0-.043.087v1.691h-.631a.106.106,0,0,0-.106.107v.957a.107.107,0,0,0,.106.107h.631V165.5a5.517,5.517,0,0,0,.126,1.476,1.164,1.164,0,0,0,.484.627,1.653,1.653,0,0,0,.906.226,3.084,3.084,0,0,0,.779-.114.106.106,0,0,0,.079-.117l-.137-1.088a.1.1,0,0,0-.043-.072m2.9-6.344a2.6,2.6,0,0,1,2.071.995,4.322,4.322,0,0,1,.824,2.831,4.657,4.657,0,0,1-.809,2.98,2.668,2.668,0,0,1-4.162,0,5.563,5.563,0,0,1-.007-5.807,2.6,2.6,0,0,1,2.082-1m.027,6.575a1.373,1.373,0,0,0,1.134-.651,4.442,4.442,0,0,0,0-4.055,1.424,1.424,0,0,0-1.185-.645,1.372,1.372,0,0,0-1.138.649,4.466,4.466,0,0,0,.007,4.058,1.423,1.423,0,0,0,1.185.644m8-2.226a1.724,1.724,0,0,0-.61-.685,8.222,8.222,0,0,0-1.644-.646,5.03,5.03,0,0,1-1.067-.42.643.643,0,0,1-.264-.547.718.718,0,0,1,.282-.587,1.435,1.435,0,0,1,.91-.239,1.081,1.081,0,0,1,1.187,1.1.1.1,0,0,0,.041.073.1.1,0,0,0,.082.02l.984-.165a.106.106,0,0,0,.089-.12,2.908,2.908,0,0,0-.386-1.2,1.952,1.952,0,0,0-.812-.681,2.8,2.8,0,0,0-1.211-.249,2.369,2.369,0,0,0-1.722.611,2.132,2.132,0,0,0-.627,1.588,2.184,2.184,0,0,0,.231,1.012,1.814,1.814,0,0,0,.652.718,7.414,7.414,0,0,0,1.6.629,3.629,3.629,0,0,1,.991.392.7.7,0,0,1,.266.585.952.952,0,0,1-.324.745,1.6,1.6,0,0,1-1.917-.049,1.706,1.706,0,0,1-.452-1.077.1.1,0,0,0-.043-.075.1.1,0,0,0-.083-.019l-1.006.192a.107.107,0,0,0-.086.121,2.449,2.449,0,0,0,2.587,2.429,2.586,2.586,0,0,0,1.877-.674,2.368,2.368,0,0,0,.692-1.762,2.262,2.262,0,0,0-.216-1.017m2.529,1.823h-1a.107.107,0,0,0-.107.108v1.415a.106.106,0,0,0,.107.107h1a.107.107,0,0,0,.107-.107v-1.415a.108.108,0,0,0-.107-.108" transform="translate(0 -52.605)" fill="#007eac" fill-rule="evenodd"/>
      </g>
    </g>
  </g>
</svg>
