<svg xmlns="http://www.w3.org/2000/svg" xmlns:xlink="http://www.w3.org/1999/xlink" width="418" height="253" viewBox="0 0 418 253">
  <defs>
    <filter id="Imagen_4" x="0" y="0" width="418" height="253" filterUnits="userSpaceOnUse">
      <feOffset dx="3" dy="3" input="SourceAlpha"/>
      <feGaussianBlur stdDeviation="3" result="blur"/>
      <feFlood flood-opacity="0.161"/>
      <feComposite operator="in" in2="blur"/>
      <feComposite in="SourceGraphic"/>
    </filter>
  </defs>
  <g id="Grupo_1008309" data-name="Grupo 1008309" transform="translate(7135 10646)">
    <g transform="matrix(1, 0, 0, 1, -7135, -10646)" filter="url(#Imagen_4)">
      <rect id="Imagen_4-2" data-name="Imagen 4" width="400" height="235" rx="19" transform="translate(6 6)" fill="#fff"/>
    </g>
    <g id="Capa_2_1_" transform="translate(-7074 -10586.7)">
      <g id="Capa_1-2">
        <rect id="Rectángulo_351051" data-name="Rectángulo 351051" width="294.894" height="126.3" fill="none"/>
        <path id="Trazado_720493" data-name="Trazado 720493" d="M.3,55.6H2.822V69.181H.3Z" transform="translate(0.282 52.269)" fill="#2f7338"/>
        <path id="Trazado_720494" data-name="Trazado 720494" d="M2.8,57.6H4.934v1.164h0a3.031,3.031,0,0,1,2.91-1.552c2.134,0,3.1,1.746,3.1,3.88v6.4H8.814V62.065c0-1.164,0-2.91-1.552-2.91s-2.134,2.134-2.134,3.492V67.5H2.8Z" transform="translate(2.632 53.759)" fill="#2f7338"/>
        <path id="Trazado_720495" data-name="Trazado 720495" d="M14.014,59.534a6.974,6.974,0,0,0-2.134-.388c-.582,0-1.358.194-1.358,1.164,0,1.552,4.074.582,4.074,4.268,0,2.328-1.94,3.3-3.88,3.3A13.1,13.1,0,0,1,8,67.488l.194-2.134a5.166,5.166,0,0,0,2.328.582c.582,0,1.552-.194,1.552-1.164C12.074,62.832,8,64.19,8,60.5a3.064,3.064,0,0,1,3.1-3.1h.388a11.355,11.355,0,0,1,2.522.388Z" transform="translate(7.521 53.961)" fill="#2f7338"/>
        <path id="Trazado_720496" data-name="Trazado 720496" d="M13.546,60.656H11.8v-1.94h1.746v-1.94L15.874,56v2.91h2.134v1.94H15.874v4.656c0,.776.194,1.552,1.164,1.552a1.454,1.454,0,0,0,.97-.194V69a5.372,5.372,0,0,1-1.746.194c-1.746,0-2.91-1.358-2.91-3.3Z" transform="translate(11.093 52.645)" fill="#2f7338"/>
        <path id="Trazado_720497" data-name="Trazado 720497" d="M15.8,55.2h2.328v2.522H15.8Zm0,4.268h2.328V69.557H15.8Z" transform="translate(14.854 51.893)" fill="#2f7338"/>
        <path id="Trazado_720498" data-name="Trazado 720498" d="M19.546,60.656H17.8v-1.94h1.746v-1.94L21.874,56v2.91h2.134v1.94H21.874v4.656c0,.776.194,1.552,1.164,1.552a1.454,1.454,0,0,0,.97-.194V69a5.372,5.372,0,0,1-1.746.194c-1.94,0-2.91-1.358-2.91-3.3Z" transform="translate(16.734 52.645)" fill="#2f7338"/>
        <path id="Trazado_720499" data-name="Trazado 720499" d="M30.048,67.388H27.914V66.03h0A3.421,3.421,0,0,1,25,67.582c-2.134,0-3.1-1.746-3.1-3.88V57.3h2.134v5.432c0,1.164,0,2.91,1.552,2.91s2.134-2.134,2.134-3.3v-4.85h2.328Z" transform="translate(20.588 53.867)" fill="#2f7338"/>
        <path id="Trazado_720500" data-name="Trazado 720500" d="M28.546,60.656H26.8v-1.94h1.746v-1.94L30.874,56v2.91h2.134v1.94H30.874v4.656c0,.776.194,1.552,1.164,1.552a1.454,1.454,0,0,0,.97-.194V69a5.372,5.372,0,0,1-1.746.194c-1.94,0-2.91-1.358-2.91-3.3Z" transform="translate(25.195 52.645)" fill="#2f7338"/>
        <path id="Trazado_720501" data-name="Trazado 720501" d="M35.28,57.3a4.8,4.8,0,0,1,4.85,4.85v.582a5.054,5.054,0,0,1-4.268,5.238A5.054,5.054,0,0,1,30.624,63.7v-.776A4.824,4.824,0,0,1,34.7,57.494.713.713,0,0,1,35.28,57.3Zm0,8.342c1.746,0,2.328-1.746,2.328-3.492s-.776-2.91-2.328-2.91-2.328,1.552-2.328,2.91C32.952,63.7,33.534,65.642,35.28,65.642Z" transform="translate(28.743 53.867)" fill="#2f7338"/>
        <path id="Trazado_720502" data-name="Trazado 720502" d="M48.206,68.981a13.1,13.1,0,0,1-2.716.388,6.248,6.248,0,0,1-6.79-5.432V62.578c0-4.656,2.522-7.178,6.79-7.178a6.2,6.2,0,0,1,2.716.582l-.194,2.328a4.454,4.454,0,0,0-2.716-.776c-2.522,0-4.074,2.134-4.074,4.85a4.333,4.333,0,0,0,3.686,4.85H45.3a6.847,6.847,0,0,0,2.716-.582Z" transform="translate(36.382 52.081)" fill="#2f7338"/>
        <path id="Trazado_720503" data-name="Trazado 720503" d="M48.874,57.3a4.532,4.532,0,0,1,4.656,4.85v.582a4.9,4.9,0,0,1-4.268,5.238A4.652,4.652,0,0,1,44.024,63.7v-.97A4.824,4.824,0,0,1,48.1,57.3Zm0,8.342c1.746,0,2.328-1.746,2.328-3.492s-.776-2.91-2.328-2.91-2.328,1.358-2.328,2.91S47.128,65.642,48.874,65.642Z" transform="translate(41.34 53.867)" fill="#2f7338"/>
        <path id="Trazado_720504" data-name="Trazado 720504" d="M49.9,55h2.328V69.551H49.9Z" transform="translate(46.911 51.705)" fill="#2f7338"/>
        <path id="Trazado_720505" data-name="Trazado 720505" d="M56.874,57.3a4.532,4.532,0,0,1,4.656,4.85v.582a4.778,4.778,0,0,1-9.506.97v-.776A4.824,4.824,0,0,1,56.1,57.494,1.467,1.467,0,0,1,56.874,57.3Zm0,8.342c1.746,0,2.328-1.746,2.328-3.492s-.776-2.91-2.328-2.91-2.328,1.552-2.328,2.91C54.74,63.7,55.128,65.642,56.874,65.642Z" transform="translate(48.861 53.867)" fill="#2f7338"/>
        <path id="Trazado_720506" data-name="Trazado 720506" d="M57.994,57.494h2.134v1.358h0A3.1,3.1,0,0,1,62.844,57.3a2.747,2.747,0,0,1,2.716,1.746A2.926,2.926,0,0,1,68.277,57.3c2.134,0,2.91,1.746,2.91,3.88v6.4H68.859V61.568c0-.97,0-2.328-1.358-2.328s-1.746,2.134-1.746,3.3v4.85H63.232V61.374c0-.97,0-2.328-1.358-2.328s-1.746,2.134-1.746,3.3v4.85H57.8v-9.7Z" transform="translate(54.338 53.867)" fill="#2f7338"/>
        <path id="Trazado_720507" data-name="Trazado 720507" d="M65.9,55h2.328v5.82h0a3.1,3.1,0,0,1,2.716-1.552c2.716,0,3.686,2.522,3.686,5.238s-.97,5.238-3.686,5.238a3.1,3.1,0,0,1-2.716-1.552h0v1.164H65.9Zm4.462,12.8c1.552,0,1.94-1.94,1.94-3.3s-.388-3.1-1.94-3.1-2.134,1.746-2.134,3.1.582,3.3,2.134,3.3Z" transform="translate(61.952 51.705)" fill="#2f7338"/>
        <path id="Trazado_720508" data-name="Trazado 720508" d="M71.5,55.2h2.328v2.522H71.5Zm0,4.268h2.328V69.557H71.5Z" transform="translate(67.217 51.893)" fill="#2f7338"/>
        <path id="Trazado_720509" data-name="Trazado 720509" d="M74.491,58.076a9.132,9.132,0,0,1,3.1-.776c2.716,0,3.88,1.358,3.88,4.268v3.88a9.446,9.446,0,0,0,.194,2.328h-1.94a3.782,3.782,0,0,0-.194-1.552h0a3.285,3.285,0,0,1-2.716,1.746,2.866,2.866,0,0,1-3.1-2.716V65.06a3.031,3.031,0,0,1,1.552-2.91,8.043,8.043,0,0,1,3.1-.582h1.164c0-1.552-.582-2.134-1.94-2.134A3.83,3.83,0,0,0,74.879,60.6Zm2.91,7.76a1.728,1.728,0,0,0,1.552-.97,2.389,2.389,0,0,0,.388-1.94h-.97c-.97,0-2.522.194-2.522,1.746,0,.776.582,1.164,1.552,1.164Z" transform="translate(69.271 53.867)" fill="#2f7338"/>
        <path id="Trazado_720510" data-name="Trazado 720510" d="M78.9,57.588h2.328v1.164h0a3.421,3.421,0,0,1,2.91-1.552c2.134,0,3.1,1.746,3.1,3.88v6.4H84.914V62.05c0-1.164,0-2.91-1.552-2.91s-2.134,1.94-2.134,3.3v4.85H78.9Z" transform="translate(74.174 53.773)" fill="#2f7338"/>
        <path id="Trazado_720511" data-name="Trazado 720511" d="M88.974,57.3a4.532,4.532,0,0,1,4.656,4.85v.582a4.778,4.778,0,1,1-9.506.97v-.97A4.824,4.824,0,0,1,88.2,57.3Zm0,8.342c1.746,0,2.328-1.746,2.328-3.492s-.776-2.91-2.328-2.91-2.328,1.552-2.328,2.91C86.646,63.7,87.034,65.642,88.974,65.642Z" transform="translate(79.038 53.867)" fill="#2f7338"/>
        <path id="Trazado_720512" data-name="Trazado 720512" d="M96.844,55.6H99.56l4.85,13.581h-2.716l-1.164-3.1H95.486l-1.164,3.1H91.8ZM98.2,58.316h0l-1.746,5.626h3.492Z" transform="translate(86.301 52.269)" fill="#2f7338"/>
        <path id="Trazado_720513" data-name="Trazado 720513" d="M107.43,57.588v8.924c0,2.716-.97,5.238-4.656,5.238a5.693,5.693,0,0,1-3.1-.776l.194-2.134a6.779,6.779,0,0,0,2.522.97c2.522,0,2.716-2.134,2.716-3.88h0a3.1,3.1,0,0,1-2.716,1.552c-2.716,0-3.686-2.328-3.686-5.044s1.164-5.238,3.88-5.238a2.883,2.883,0,0,1,2.716,1.552h0V57.394Zm-2.328,4.85c0-1.746-.582-3.1-1.94-3.1s-2.134,1.552-2.134,3.1.582,3.1,1.94,3.1S105.1,64.184,105.1,62.438Z" transform="translate(92.787 53.773)" fill="#2f7338"/>
        <path id="Trazado_720514" data-name="Trazado 720514" d="M104.5,57.494h2.134v2.328h0a2.7,2.7,0,0,1,2.522-2.522h.776v2.522a2.461,2.461,0,0,0-1.164-.194c-1.94,0-1.94,2.522-1.94,4.074v3.686H104.5Z" transform="translate(98.24 53.867)" fill="#2f7338"/>
        <path id="Trazado_720515" data-name="Trazado 720515" d="M112.28,57.3a4.8,4.8,0,0,1,4.85,4.85v.582a4.778,4.778,0,1,1-9.506.97v-.776a4.824,4.824,0,0,1,4.074-5.432A.713.713,0,0,1,112.28,57.3Zm0,8.342c1.746,0,2.328-1.746,2.328-3.492s-.776-2.91-2.328-2.91-2.328,1.552-2.328,2.91C109.952,63.7,110.34,65.642,112.28,65.642Z" transform="translate(101.13 53.867)" fill="#2f7338"/>
        <path id="Trazado_720516" data-name="Trazado 720516" d="M113.3,57.509h2.328v1.358h0a2.753,2.753,0,0,1,2.716-1.552c2.716,0,3.88,2.522,3.88,5.238s-.97,5.238-3.88,5.238a3.146,3.146,0,0,1-2.716-1.358h0v5.238H113.3Zm2.522,5.044c0,1.358.582,3.3,2.134,3.3s1.94-1.94,1.94-3.3-.388-3.1-1.94-3.1S115.822,61,115.822,62.553Z" transform="translate(106.513 53.853)" fill="#2f7338"/>
        <path id="Trazado_720517" data-name="Trazado 720517" d="M126.36,67a5.693,5.693,0,0,1-3.1.776c-2.91,0-4.656-1.94-4.656-5.238,0-2.91,1.358-5.238,4.074-5.238,3.3,0,4.268,2.522,4.268,6.014h-6.208a2.406,2.406,0,0,0,2.328,2.522h.194a5.863,5.863,0,0,0,3.1-.97V67Zm-1.552-5.432c0-1.358-.582-2.328-1.94-2.328s-1.94.97-2.134,2.328Z" transform="translate(111.495 53.867)" fill="#2f7338"/>
        <path id="Trazado_720518" data-name="Trazado 720518" d="M129.908,59.628a4.566,4.566,0,0,0-1.552-.388c-1.552,0-2.328,1.358-2.328,3.1,0,1.94.776,3.3,2.522,3.3a5.665,5.665,0,0,0,1.746-.388l.194,2.134a9.738,9.738,0,0,1-2.328.388c-2.91,0-4.462-2.328-4.462-5.238s1.552-5.238,4.268-5.238a4.921,4.921,0,0,1,2.328.388Z" transform="translate(116.29 53.867)" fill="#2f7338"/>
        <path id="Trazado_720519" data-name="Trazado 720519" d="M136.048,67.388h-2.134V66.03h0A3.421,3.421,0,0,1,131,67.582c-2.134,0-3.1-1.746-3.1-3.88V57.3h2.328v5.432c0,1.164,0,2.91,1.552,2.91s2.134-2.134,2.134-3.3v-4.85h2.328Z" transform="translate(120.238 53.867)" fill="#2f7338"/>
        <path id="Trazado_720520" data-name="Trazado 720520" d="M134.164,58.076a9.132,9.132,0,0,1,3.1-.776c2.716,0,3.88,1.358,3.88,4.268v6.208h-2.134c0-.582-.194-.97-.194-1.552h0a3.285,3.285,0,0,1-2.716,1.746,3.064,3.064,0,0,1-3.1-3.1,3.1,3.1,0,0,1,1.552-2.716,8.043,8.043,0,0,1,3.1-.582h1.358c0-1.552-.582-2.134-2.134-2.134a3.83,3.83,0,0,0-2.716,1.164Zm2.716,7.76a2.315,2.315,0,0,0,1.746-.97,3.911,3.911,0,0,0,.582-2.134h-.97c-.97,0-2.716.194-2.716,1.746-.194.97.582,1.358,1.358,1.358Z" transform="translate(125.033 53.867)" fill="#2f7338"/>
        <path id="Trazado_720521" data-name="Trazado 720521" d="M138.4,57.494h2.134v2.328h0a2.878,2.878,0,0,1,2.522-2.522h.776v2.522a2.11,2.11,0,0,0-.97-.194c-1.94,0-1.94,2.522-1.94,4.074v3.686h-2.328Z" transform="translate(130.109 53.867)" fill="#2f7338"/>
        <path id="Trazado_720522" data-name="Trazado 720522" d="M141.9,55.2h2.328v2.522H141.9Zm0,4.268h2.328V69.557H141.9Z" transform="translate(133.4 51.893)" fill="#2f7338"/>
        <path id="Trazado_720523" data-name="Trazado 720523" d="M148.78,57.3a4.8,4.8,0,0,1,4.85,4.85v.582a4.778,4.778,0,1,1-9.506.97v-.776a4.824,4.824,0,0,1,4.074-5.432A.713.713,0,0,1,148.78,57.3Zm0,8.342c1.746,0,2.328-1.746,2.328-3.492s-.776-2.91-2.328-2.91-2.328,1.552-2.328,2.91C146.646,63.7,147.034,65.642,148.78,65.642Z" transform="translate(135.444 53.867)" fill="#2f7338"/>
        <path id="Trazado_720524" data-name="Trazado 720524" d="M116.015,23.184h.194l2.91,1.164.776.388-.194-.194,10.865-4.656-3.3-.97L114.075,16.2,100.3,18.14l4.656,1.746Z" transform="translate(94.292 15.23)" fill="#2f7338"/>
        <path id="Trazado_720525" data-name="Trazado 720525" d="M120.011,19.474,135.143,15.4H114.966L107.4,16.952h0l13.193,2.716-.776-.194Z" transform="translate(100.966 14.477)" fill="#85bb40"/>
        <path id="Trazado_720526" data-name="Trazado 720526" d="M128.149,23.338l4.074-2.134-10.283-2.91-.776-.194L110.3,22.756l.194.194h.388l.582.388,10.477,4.656h0l2.716,1.164,7.566-4.85-1.746-.388Z" transform="translate(103.693 17.016)" fill="#bfc630"/>
        <path id="Trazado_720527" data-name="Trazado 720527" d="M134.559,14.976l-5.432,1.552L113.994,20.6H113.8l.776.194,3.3.97.776.194,10.282,2.91.97-.582L148.334,14.2Z" transform="translate(106.983 13.349)" fill="#009748"/>
        <path id="Trazado_720528" data-name="Trazado 720528" d="M147.631,12.8l-4.656,2.716L124.544,25.6l-.97.582L119.5,28.321l2.328.582,1.746.388,3.88-2.328h0l10.477,1.746,1.164-.97.388-.388L156.75,14.934l.194-.194h.194l2.716-1.94Z" transform="translate(112.341 12.033)" fill="#85bb40"/>
        <path id="Trazado_720529" data-name="Trazado 720529" d="M149.6,23.746l-.776.776-.388.388L137.377,22,126.9,31.506h.194l2.134.776,13,4.268-1.94,2.134-.776.582,3.1.97,15.133-14.745-2.91-.388Z" transform="translate(119.298 20.682)" fill="#bfc630"/>
        <path id="Trazado_720530" data-name="Trazado 720530" d="M148.207,14.74h-.194l-.194.194L130.552,27.351l-.388.388-1.164.97,1.552.194,3.1.582,2.522.388h.194l-.97.776,11.059,2.91.388-.388.776-.776L167.8,12.8Z" transform="translate(121.272 12.033)" fill="#009748"/>
        <path id="Trazado_720531" data-name="Trazado 720531" d="M99.721,30.987l10.671-5.044L98.169,17.6,84.2,20.316,99.527,35.643l3.686-1.746-1.358-1.164Z" transform="translate(79.156 16.546)" fill="#2f7338"/>
        <path id="Trazado_720532" data-name="Trazado 720532" d="M114.357,20.074,109.7,18.328,103.1,16,90.3,17.746,92.434,19.1l12.223,8.342,1.552-.776.582-.194,3.492,2.328,1.164-.388.194-.194,11.253-4.074.582-.194,1.94-.582Z" transform="translate(84.891 15.042)" fill="#85bb40"/>
        <path id="Trazado_720533" data-name="Trazado 720533" d="M121.883,33.041l-.194-.194h0l-8.924-6.208-3.88-2.522h0l-.388-.194-.194-.194h.194L105,21.4l-.582.194-1.552.776L92.2,27.414l2.134,1.746,1.358,1.164,13,11.835,1.164-.776Z" transform="translate(86.677 20.118)" fill="#bfc630"/>
        <path id="Trazado_720534" data-name="Trazado 720534" d="M122.211,26.3l2.91-1.94h.194L122.6,23.2h0l.388.194v.194L109.6,32.124l15.327,10.088.776-.582.388-.194,11.253-9.312Z" transform="translate(103.034 21.81)" fill="#85bb40"/>
        <path id="Trazado_720535" data-name="Trazado 720535" d="M107.4,27.3h0l.194.194h0Z" transform="translate(100.966 25.665)" fill="#8abf45"/>
        <path id="Trazado_720536" data-name="Trazado 720536" d="M138.065,27.676l-2.134-.776h-.194l-.582.388-2.522,2.328-2.716-.97-11.253,9.312-.388.194-.776.582h0l3.3,2.328L133.991,49.6,148.347,34.66l.776-.582,1.94-2.134Z" transform="translate(110.461 25.289)" fill="#009748"/>
        <path id="Trazado_720537" data-name="Trazado 720537" d="M148.306,23.01h0l-2.522-.388-3.1-.582-1.552-.194L130.651,20.1h0l-3.88,2.328-7.566,4.85h-.194l-2.91,1.94,15.133,5.82,2.716.97,2.522-2.328.582-.388,10.477-9.506.97-.776Z" transform="translate(109.145 18.896)" fill="#2f7338"/>
        <path id="Trazado_720538" data-name="Trazado 720538" d="M110.788,20.6h0Z" transform="translate(103.787 19.366)" fill="#13a654"/>
        <path id="Trazado_720539" data-name="Trazado 720539" d="M131.154,26.4,120.677,21.74l-.582-.388h-.388l-.776-.388-2.91-1.164h-.194l-1.94.582-.582.194L102.052,24.65l-.194.194-1.164.388H100.5l.194.194.388.194h0l3.88,2.522,8.924,6.208.194.194.194-.194.97-.582.388-.194h0l2.522,1.746,13.387-8.536V26.59Z" transform="translate(94.48 18.614)" fill="#009748"/>
        <path id="Trazado_720540" data-name="Trazado 720540" d="M117.5,33h0l.388.388Z" transform="translate(110.461 31.023)" fill="#3d7f3c"/>
        <path id="Trazado_720541" data-name="Trazado 720541" d="M140.383,43.488l-13.193-8.536L125.057,33.4,110.7,48.921l18.237,18.625L147.95,48.533Z" transform="translate(104.069 31.399)" fill="#bfc630"/>
        <path id="Trazado_720542" data-name="Trazado 720542" d="M118.476,33.588,117.7,33.2Z" transform="translate(110.649 31.211)" fill="#3d7f3c"/>
        <path id="Trazado_720543" data-name="Trazado 720543" d="M133.118,39.123l-.388-.388L117.4,28.646,114.881,26.9h0l-.388.194-.97.582-.194.194h0L101.3,36.212l.388.582,17.849,18.431v-.194l14.357-15.521Z" transform="translate(95.232 25.289)" fill="#2f7338"/>
        <path id="Trazado_720544" data-name="Trazado 720544" d="M101.759,25.023h0l-.582.194.582-.194a9.458,9.458,0,0,0-1.358.582c-.582.582.194.582.582.388s1.164-.388,1.358-.776,0-.194-.582-.194" transform="translate(94.19 23.479)" fill="#3d7f3c"/>
        <path id="Trazado_720545" data-name="Trazado 720545" d="M100.638,26.1h.194c-.97,0-.97,2.134.388,1.746,0-.194-.194-.582,0-.776s.582-.194.582-.582-.776-.388-1.164-.388" transform="translate(94.148 24.536)" fill="#3d7f3c"/>
        <path id="Trazado_720546" data-name="Trazado 720546" d="M99.976,25.5h0c-.582.194-.776.194-.776.776s0,.582.388.388a1.515,1.515,0,0,0,.776-.776c0-.194,0-.388-.388-.388" transform="translate(93.257 23.972)" fill="#3d7f3c"/>
        <path id="Trazado_720547" data-name="Trazado 720547" d="M99.87,26.8l-.582.582c-.194.194-.194.582-.388.776a.655.655,0,0,0,.97.582c.194-.776.388-1.552,0-1.94" transform="translate(92.975 25.195)" fill="#3d7f3c"/>
        <path id="Trazado_720548" data-name="Trazado 720548" d="M101.083,25.3l.194-.776c0-.388-.388-.582-.776-.388h.194c-.776.582-1.358,1.94,0,1.358.194,0,.194.194.388-.194" transform="translate(93.897 22.619)" fill="#3d7f3c"/>
        <path id="Trazado_720549" data-name="Trazado 720549" d="M98.7,25.8h0c-.582.582-.97,1.164-.776,1.746.388,0,.582-.194.97-.194,0-.194.388-.97.388-1.164s-.388-.388-.582-.388" transform="translate(92.011 24.254)" fill="#3d7f3c"/>
        <path id="Trazado_720550" data-name="Trazado 720550" d="M118.663,41.908c0-.194-.194-.388-.194-.582s-.776.194-.97.388c-.582.776.194,1.164.97,1.164s.776,0,.776-.582-.388-.194-.582-.388" transform="translate(110.269 38.8)" fill="#08a554"/>
        <path id="Trazado_720551" data-name="Trazado 720551" d="M122.371,43.164c0-.194.194-.582,0-.776-.194-.388-.582-.388-.97-.388-.194.194-.776.388-.582.97s.97.388.97.97c.582-.194.582-.388.582-.776" transform="translate(113.545 39.484)" fill="#08a554"/>
        <path id="Trazado_720552" data-name="Trazado 720552" d="M118.27,40.064c.194,0,.582.582.776.194V39.87a2.338,2.338,0,0,0-.97-.97c-.194,0-.776.194-.776.582s.776.388.97.582" transform="translate(110.273 36.57)" fill="#08a554"/>
        <path id="Trazado_720553" data-name="Trazado 720553" d="M118.242,40.5c-.194,0,0,.388,0,.582.194.582.194.776.776.97.194,0,.194-.776,0-.97s-.388-.582-.776-.582" transform="translate(111.077 38.074)" fill="#08a554"/>
        <path id="Trazado_720554" data-name="Trazado 720554" d="M119.844,41.038h0c-.582-.388-.582.776-.388,1.164s.776.97,1.164.776a1.283,1.283,0,0,0,.194-1.164c-.194-.194-.582-.194-.97-.776" transform="translate(112.191 38.506)" fill="#08a554"/>
        <path id="Trazado_720555" data-name="Trazado 720555" d="M120.546,40.846a.713.713,0,0,0-.194-.582,5.144,5.144,0,0,0-.97-1.164,1.173,1.173,0,0,0-.582,1.164c.194.388.776.582.97.776s.776.194.776-.194" transform="translate(111.683 36.758)" fill="#08a554"/>
        <path id="Trazado_720556" data-name="Trazado 720556" d="M121.835,41.07c.388,0,.776.194.582-.388s-.776-.582-1.358-.582c-.194,0-.388,0-.388.194a.881.881,0,0,0,0,.97c.194.388.194.388.388.194a1.008,1.008,0,0,1,.776-.388" transform="translate(113.305 37.698)" fill="#08a554"/>
        <path id="Trazado_720557" data-name="Trazado 720557" d="M117.96,29.023c-.194,0-.388.194-.582.194-.388,0-.582.388,0,1.164s.582.582.776,0l.194-.582s.388-.194,0-.582-.388-.194-.388-.194" transform="translate(110.001 27.239)" fill="#3d7f3c"/>
        <path id="Trazado_720558" data-name="Trazado 720558" d="M115.758,28h-.194a.19.19,0,0,0-.194.194c-.582.388-.388.97.194,1.746.194.194.194.582.582-.194a2.758,2.758,0,0,0,.388-1.164c-.194-.388-.388-.582-.776-.582" transform="translate(108.129 26.323)" fill="#3d7f3c"/>
        <path id="Trazado_720559" data-name="Trazado 720559" d="M118.944,27.8h-.582c-.776.194-.776,1.164.388,1.164s1.164-.776.194-1.164" transform="translate(110.763 26.135)" fill="#3d7f3c"/>
        <path id="Trazado_720560" data-name="Trazado 720560" d="M116.795,27.771c.776-.194,1.746-.97.388-1.164s-1.164,1.552-.388,1.164" transform="translate(109.227 24.999)" fill="#3d7f3c"/>
        <path id="Trazado_720561" data-name="Trazado 720561" d="M117.795,29.4a3.3,3.3,0,0,0-.194-1.358c-.388-.194-.388,0-.582,0h-.194c-.388,0-.582.388-.388,1.358.194.388.582.388.97.194.194,0,.194,0,.388-.194" transform="translate(109.39 26.281)" fill="#3d7f3c"/>
        <path id="Trazado_720562" data-name="Trazado 720562" d="M116.293,27.122c-.194,0-.194-1.358-1.164-.194s.97,1.358,1.552.582l-.388-.388" transform="translate(107.982 24.872)" fill="#3d7f3c"/>
        <path id="Trazado_720563" data-name="Trazado 720563" d="M128.252,23.182a1.761,1.761,0,0,0-1.358-.582.19.19,0,0,0-.194.194c.388.388.582.776,1.164.97.388.194.388-.388.388-.582" transform="translate(119.11 21.246)" fill="#91bf3f"/>
        <path id="Trazado_720564" data-name="Trazado 720564" d="M125.882,22.3h0c-.388,0-.582.194-.582.388s.388.194.776.194c1.358,0,.194-.582-.194-.582" transform="translate(117.794 20.964)" fill="#91bf3f"/>
        <path id="Trazado_720565" data-name="Trazado 720565" d="M125.1,24.239c-.194-.194-.194,0-.388.194h0c-.582.388,0,2.522.776,1.164a3.6,3.6,0,0,0-.388-1.358" transform="translate(117.021 22.711)" fill="#91bf3f"/>
        <path id="Trazado_720566" data-name="Trazado 720566" d="M126.37,23.2h0l-.388.194c-.194.194-.582.388-.582.776,0,.194.388.388.582.388s.194,0,.194-.194a.731.731,0,0,0,.194-1.164" transform="translate(117.888 21.81)" fill="#91bf3f"/>
        <path id="Trazado_720567" data-name="Trazado 720567" d="M125.121,22.537h-.388c-.194,0-.388.194-.194.388s.582,0,.776,0c.776-.388.194-.582-.194-.388" transform="translate(117.003 21.115)" fill="#91bf3f"/>
        <path id="Trazado_720568" data-name="Trazado 720568" d="M123.207,24.494c-.388.388-.776.776-.582,1.164.194.582,1.164-.776,1.358-1.358h0c-.388,0-.582.194-.776.194" transform="translate(115.231 22.844)" fill="#91bf3f"/>
        <path id="Trazado_720569" data-name="Trazado 720569" d="M123.8,23.494c0-.194-.194-.194-.388-.194a.713.713,0,0,0-.582.194c-.582.582-1.164,1.94,0,1.358.388-.194,1.164-.776.97-1.358" transform="translate(114.836 21.904)" fill="#91bf3f"/>
        <path id="Trazado_720570" data-name="Trazado 720570" d="M124.269,22.7c-.582.194-1.746,1.358-.194.97.388-.194.97-.582.97-.776s-.582-.194-.776-.194" transform="translate(115.915 21.34)" fill="#91bf3f"/>
        <path id="Trazado_720571" data-name="Trazado 720571" d="M125.253,23c-.582.194-1.552,2.134-.388,1.358.388-.194.776-1.164.388-1.358" transform="translate(116.871 21.622)" fill="#91bf3f"/>
        <path id="Trazado_720572" data-name="Trazado 720572" d="M127.034,16a2.461,2.461,0,0,0-1.164.194c-.582.194-.388.582.194.776s.776-.194.97-.388c0-.194.194-.194.194-.388a.19.19,0,0,1-.194-.194" transform="translate(118 15.042)" fill="#91bf3f"/>
        <path id="Trazado_720573" data-name="Trazado 720573" d="M120.809,16.866c-.194.388,1.164,0,1.164-.388h0c.388-.388-1.164,0-1.164.388" transform="translate(113.554 15.34)" fill="#91bf3f"/>
        <path id="Trazado_720574" data-name="Trazado 720574" d="M122.049,17.3a2.491,2.491,0,0,0-1.94.776c-.194.388,1.164-.194,1.94-.776h0" transform="translate(112.896 16.264)" fill="#91bf3f"/>
        <path id="Trazado_720575" data-name="Trazado 720575" d="M121.771,16.9c-1.164.194-3.1.97-1.746.776.582-.194,1.358-.388,1.94-.582.194,0,0-.194-.194-.194" transform="translate(112.398 15.888)" fill="#91bf3f"/>
        <path id="Trazado_720576" data-name="Trazado 720576" d="M119.615,17.282a13.368,13.368,0,0,0,1.552-.582h-.388c-.582.194-1.358.582-1.164.582" transform="translate(112.421 15.7)" fill="#91bf3f"/>
        <path id="Trazado_720577" data-name="Trazado 720577" d="M121.815,16.876c.194.194.776-.194,1.164-.388.194,0,.194-.194.388-.194a.19.19,0,0,0-.194-.194c-.776.194-1.552.582-1.358.776" transform="translate(114.489 15.136)" fill="#91bf3f"/>
        <path id="Trazado_720578" data-name="Trazado 720578" d="M123.446,17.071a2.142,2.142,0,0,0-1.552,0l-.194.194c0,.388.194.776,1.746,0,.194.194.388-.194,0-.194" transform="translate(114.41 15.911)" fill="#91bf3f"/>
        <path id="Trazado_720579" data-name="Trazado 720579" d="M122.876,16.4c-.776.194-.776.388-.776.582s1.164-.194,1.552-.582h-.776" transform="translate(114.786 15.418)" fill="#91bf3f"/>
        <path id="Trazado_720580" data-name="Trazado 720580" d="M125.723,16.4h-.194a3.6,3.6,0,0,0-1.358.388c-.194,0-.194.194,0,.194.582.194,2.328-.194,1.552-.582" transform="translate(116.595 15.418)" fill="#91bf3f"/>
        <path id="Trazado_720581" data-name="Trazado 720581" d="M124.368,15.8c-.388,0-1.94.388-1.164.582.97-.194,1.358-.582,1.164-.582" transform="translate(115.622 14.854)" fill="#91bf3f"/>
        <path id="Trazado_720582" data-name="Trazado 720582" d="M124.556,16.309h0c.194-.388-.388-.194-.776,0s0,.194.194.194h.194a.677.677,0,0,0,.388-.194" transform="translate(116.209 15.121)" fill="#91bf3f"/>
        <path id="Trazado_720583" data-name="Trazado 720583" d="M126.646,15.8a2.883,2.883,0,0,0-1.746.388.677.677,0,0,0,.388.194c.194,0,.582-.194.776-.194h.582c0-.194.194-.194,0-.388" transform="translate(117.418 14.854)" fill="#91bf3f"/>
        <path id="Trazado_720584" data-name="Trazado 720584" d="M125.658,15.794h0c.388-.194.194-.194,0-.194h-.388a1.067,1.067,0,0,0-.97.582,12.363,12.363,0,0,1,1.358-.388" transform="translate(116.854 14.665)" fill="#91bf3f"/>
        <path id="Trazado_720585" data-name="Trazado 720585" d="M107,27.2Z" transform="translate(100.59 25.571)" fill="#8abf45"/>
        <path id="Trazado_720586" data-name="Trazado 720586" d="M110.388,20.494,110,20.3Z" transform="translate(103.41 19.084)" fill="#13a654"/>
        <path id="Trazado_720587" data-name="Trazado 720587" d="M117.3,33h0l.388.194Z" transform="translate(110.273 31.023)" fill="#3d7f3c"/>
        <path id="Trazado_720588" data-name="Trazado 720588" d="M118.082,33.488,117.5,33.1Z" transform="translate(110.461 31.117)" fill="#3d7f3c"/>
        <path id="Trazado_720589" data-name="Trazado 720589" d="M82.668,27.739h0L71.8,58.2H93.338ZM74.713,12.8H91.4l28.713,73.918h-16.3l-6.4-16.879H67.729l-6.4,16.879H46Z" transform="translate(43.244 12.033)" fill="#2f7338"/>
        <path id="Trazado_720590" data-name="Trazado 720590" d="M68.157,73.989A40.6,40.6,0,0,1,52.248,76.9c-15.715,0-25.027-11.253-25.027-26.385S36.727,23.741,51.86,23.741a30.248,30.248,0,0,1,15.909,3.88h0l1.358.776L70.679,15.98,68.933,15.2h0a53,53,0,0,0-16.685-3.1C27.221,12.1,11.7,26.263,11.7,51.678S28.191,88.734,52.248,88.734a84.131,84.131,0,0,0,16.879-2.328l1.746-.582L69.321,73.6Z" transform="translate(10.999 11.375)" fill="#2f7338"/>
        <path id="Trazado_720591" data-name="Trazado 720591" d="M.3,12.8H15.045V86.718H.3Z" transform="translate(0.282 12.033)" fill="#2f7338"/>
      </g>
    </g>
  </g>
</svg>
