<svg xmlns="http://www.w3.org/2000/svg" width="37.214" height="37.199" viewBox="0 0 37.214 37.199"><g transform="translate(0 0)"><path d="M12.237,116.177a7.165,7.165,0,1,0,0,10.137,7.176,7.176,0,0,0,0-10.137Zm0,0" transform="translate(0 -105.79)" fill="#ffd039"/><path d="M12.237,198.907A7.17,7.17,0,0,1,.113,195.114,7.247,7.247,0,0,0,0,196.389a7.166,7.166,0,1,0,14.217-1.275,7.125,7.125,0,0,1-1.981,3.793Zm0,0" transform="translate(0 -180.933)" fill="#ffae47"/><path d="M170.027,1.207a16.137,16.137,0,0,0-11.767-.188c-1.73.751-2.694,1.823-2.713,3.019s.91,2.3,2.615,3.1a14.65,14.65,0,0,0,5.866,1.2l.3,0a14.436,14.436,0,0,0,5.6-1.02c1.73-.751,2.694-1.823,2.713-3.018s-.91-2.3-2.615-3.1Zm0,0" transform="translate(-144.241 0)" fill="#b29eee"/><path d="M169.929,41.04a14.441,14.441,0,0,1-5.6,1.019l-.3,0a14.65,14.65,0,0,1-5.866-1.2,5.083,5.083,0,0,1-2.255-1.825,2.367,2.367,0,0,0-.36,1.2c-.019,1.2.91,2.3,2.615,3.1a14.655,14.655,0,0,0,5.866,1.2l.3,0a14.442,14.442,0,0,0,5.6-1.019c1.731-.751,2.694-1.823,2.713-3.019a2.386,2.386,0,0,0-.36-1.278,4.992,4.992,0,0,1-2.353,1.817Zm0,0" transform="translate(-144.241 -36.191)" fill="#7e5ee3"/><path d="M264.179,150.011l6.932-6.923a6.905,6.905,0,0,0-4.875-11.791h0a6.861,6.861,0,0,0-4.879,2.019l-6.932,6.923-.006.007Zm0,0" transform="translate(-235.922 -121.754)" fill="#00bcd4"/><path d="M140.205,254.33l.006-.007-6.932,6.923a6.905,6.905,0,0,0,4.875,11.791h0a6.861,6.861,0,0,0,4.88-2.019l6.932-6.923h0Zm0,0" transform="translate(-121.713 -235.839)" fill="#f9f1ef"/><path d="M375.623,153.934a6.86,6.86,0,0,0-2.019-4.884,7.022,7.022,0,0,0-.945-.793,6.908,6.908,0,0,1-.793,8.826l-6.932,6.923,1.732,1.732,6.932-6.923a6.86,6.86,0,0,0,2.025-4.881Zm0,0" transform="translate(-338.408 -137.482)" fill="#008a9c"/><path d="M165.7,366.662l-1.732-1.732h0l-6.932,6.923a6.86,6.86,0,0,1-4.879,2.019h0a6.854,6.854,0,0,1-3.936-1.233,7,7,0,0,0,.786.939,6.86,6.86,0,0,0,4.881,2.026h0a6.859,6.859,0,0,0,4.879-2.019l6.932-6.923Zm0,0" transform="translate(-137.438 -338.405)" fill="#ccc"/><path d="M34.286,138.209c-.13-.13-.265-.252-.4-.369L23.778,147.946q.177.206.371.4c.13.13.265.252.4.369l10.1-10.1c-.118-.137-.24-.272-.369-.4Zm0,0" transform="translate(-22.049 -127.822)" fill="#ff9522"/><path d="M265.307.01l-.065,8.327c.168.007.338.013.508.016l.3,0c.1,0,.191,0,.286,0L266.4.025c-.17-.007-.342-.013-.514-.016-.193,0-.385,0-.576,0Zm0,0" transform="translate(-245.963 -0.007)" fill="#7e5ee3"/></g></svg>