<svg xmlns="http://www.w3.org/2000/svg" xmlns:xlink="http://www.w3.org/1999/xlink" width="1149" height="467" viewBox="0 0 1149 467">
  <defs>
    <filter id="Trazado_723785" x="0" y="0" width="1149" height="467" filterUnits="userSpaceOnUse">
      <feOffset dx="3" dy="3" input="SourceAlpha"/>
      <feGaussianBlur stdDeviation="3" result="blur"/>
      <feFlood flood-opacity="0.161"/>
      <feComposite operator="in" in2="blur"/>
      <feComposite in="SourceGraphic"/>
    </filter>
  </defs>
  <g id="Grupo_1009487" data-name="Grupo 1009487" transform="translate(-1747 6528)">
    <g transform="matrix(1, 0, 0, 1, 1747, -6528)" filter="url(#Trazado_723785)">
      <path id="Trazado_723785-2" data-name="Trazado 723785" d="M0,0H1131V449H0Z" transform="translate(6 6)" fill="#fff"/>
    </g>
    <path id="Trazado_723526" data-name="Trazado 723526" d="M435.29,83.41a4.626,4.626,0,0,1,4.63-4.63H616.01a4.626,4.626,0,0,1,4.63,4.63V321.29a4.626,4.626,0,0,1-4.63,4.63H439.92a4.626,4.626,0,0,1-4.63-4.63Z" transform="translate(1868.83 -6499.16)" fill="#dbfbff" stroke="rgba(0,0,0,0)" stroke-width="2.32"/>
    <path id="Trazado_723527" data-name="Trazado 723527" d="M218.42,83.41a4.626,4.626,0,0,1,4.63-4.63H399.14a4.626,4.626,0,0,1,4.63,4.63V321.29a4.626,4.626,0,0,1-4.63,4.63H223.05a4.626,4.626,0,0,1-4.63-4.63V83.41Z" transform="translate(1868.83 -6499.16)" fill="#cdf9ff" stroke="rgba(0,0,0,0)" stroke-width="2.32"/>
    <path id="Trazado_723528" data-name="Trazado 723528" d="M2.17,83.41A4.626,4.626,0,0,1,6.8,78.78H182.89a4.626,4.626,0,0,1,4.63,4.63V321.29a4.626,4.626,0,0,1-4.63,4.63H6.8a4.626,4.626,0,0,1-4.63-4.63Z" transform="translate(1868.83 -6499.16)" fill="#d8cef7" stroke="rgba(0,0,0,0)" stroke-width="2.32"/>
    <path id="Trazado_723529" data-name="Trazado 723529" d="M17.61,222.43a4.626,4.626,0,0,1,4.63-4.63h145.2a4.626,4.626,0,0,1,4.63,4.63v84.63a4.626,4.626,0,0,1-4.63,4.63H22.25a4.626,4.626,0,0,1-4.63-4.63V222.43Z" transform="translate(1868.83 -6499.16)" fill="#fff" stroke="#7e5ee3" stroke-width="1.54"/>
    <g id="as" transform="translate(1868.83 -6499.16)">
      <path id="gX" d="M76.84,255.93c0,1.74-1.18,2.59-3,2.59H71.83v3.34H70.7v-8.54h3.15A2.623,2.623,0,0,1,76.84,255.93Zm-1.13.01a1.66,1.66,0,0,0-1.8-1.7H71.82v3.35h2.02c1.15,0,1.87-.54,1.87-1.65"/>
      <path id="fs" d="M81.18,256.49c-.96-.16-1.69.11-1.98.87v4.51H78.11v-6.35h1.06l.02.73a1.686,1.686,0,0,1,1.51-.85,1.19,1.19,0,0,1,.48.08v1.01"/>
      <path id="ft" d="M84.66,261.98c-1.8.04-2.95-1.45-2.89-3.35.06-1.88,1.03-3.2,2.88-3.23,1.81-.03,2.95,1.45,2.9,3.36C87.5,260.65,86.52,261.95,84.66,261.98Zm-.01-5.69c-1.22,0-1.79,1.09-1.79,2.47,0,1.27.62,2.33,1.8,2.33,1.24,0,1.8-1.09,1.8-2.46,0-1.26-.64-2.34-1.81-2.34"/>
      <path id="gY" d="M89.71,258.61c0,1.43.45,2.46,1.74,2.49a1.458,1.458,0,0,0,1.5-1.23h1.03a2.4,2.4,0,0,1-2.52,2.12c-1.85,0-2.89-1.42-2.83-3.41.06-1.87.96-3.13,2.82-3.17a2.388,2.388,0,0,1,2.53,2.3H92.95a1.474,1.474,0,0,0-1.5-1.41c-1.23.02-1.74.97-1.74,2.32"/>
      <path id="fn" d="M97.89,261.1a1.969,1.969,0,0,0,1.67-.86l.66.52a2.659,2.659,0,0,1-2.39,1.23c-1.81,0-2.91-1.37-2.91-3.31a3.266,3.266,0,0,1,1.37-2.85,2.532,2.532,0,0,1,1.41-.42c1.76.01,2.63,1.28,2.61,3.15v.45h-4.3a1.938,1.938,0,0,0,1.88,2.09Zm1.33-2.99c-.02-1.06-.52-1.82-1.53-1.82s-1.55.82-1.65,1.82h3.18"/>
      <path id="fq" d="M103.9,261.1c.71,0,1.36-.29,1.36-.92a.853.853,0,0,0-.33-.69c-.43-.35-1.96-.54-2.46-.84a1.515,1.515,0,0,1-.95-1.4,2.442,2.442,0,0,1,4.77.12H105.2a1.243,1.243,0,0,0-1.33-1.09c-.68,0-1.26.31-1.26.93a.668.668,0,0,0,.31.59c.45.31,1.94.53,2.44.82a1.561,1.561,0,0,1,.99,1.47c0,1.22-1.14,1.88-2.45,1.88a2.646,2.646,0,0,1-2.26-1.02,1.815,1.815,0,0,1-.33-1.05h1.09c.04.76.68,1.18,1.51,1.18"/>
      <path id="ft-2" data-name="ft" d="M110.36,261.98c-1.8.04-2.95-1.45-2.89-3.35.06-1.88,1.03-3.2,2.88-3.23,1.81-.03,2.95,1.45,2.9,3.36C113.2,260.65,112.22,261.95,110.36,261.98Zm-.01-5.69c-1.22,0-1.79,1.09-1.79,2.47,0,1.27.62,2.33,1.8,2.33,1.24,0,1.8-1.09,1.8-2.46,0-1.26-.64-2.34-1.81-2.34"/>
      <path id="fq-2" data-name="fq" d="M116.94,261.1c.71,0,1.36-.29,1.36-.92a.853.853,0,0,0-.33-.69c-.43-.35-1.96-.54-2.46-.84a1.515,1.515,0,0,1-.95-1.4,2.442,2.442,0,0,1,4.77.12h-1.09a1.243,1.243,0,0,0-1.33-1.09c-.68,0-1.26.31-1.26.93a.668.668,0,0,0,.31.59c.45.31,1.94.53,2.44.82a1.561,1.561,0,0,1,.99,1.47c0,1.22-1.14,1.88-2.45,1.88a2.646,2.646,0,0,1-2.26-1.02,1.815,1.815,0,0,1-.33-1.05h1.09c.04.76.68,1.18,1.51,1.18"/>
    </g>
    <g id="at" transform="translate(1868.83 -6499.16)">
      <path id="ft-3" data-name="ft" d="M52.87,276.06c-1.8.04-2.95-1.45-2.89-3.35.06-1.88,1.03-3.2,2.88-3.23,1.81-.03,2.95,1.45,2.9,3.36-.05,1.89-1.03,3.19-2.89,3.22Zm-.01-5.69c-1.22,0-1.79,1.09-1.79,2.47,0,1.27.62,2.33,1.8,2.33,1.24,0,1.8-1.09,1.8-2.46,0-1.26-.64-2.34-1.81-2.34"/>
      <path id="fs-2" data-name="fs" d="M60.18,270.57c-.96-.16-1.69.11-1.98.87v4.51H57.11V269.6h1.06l.02.73a1.686,1.686,0,0,1,1.51-.85,1.19,1.19,0,0,1,.48.08v1.01"/>
      <path id="fo" d="M63.3,276.06c-1.65,0-2.49-1.52-2.49-3.34s.86-3.24,2.5-3.24a2.2,2.2,0,0,1,1.81.82l.05-.7h.99v6.19a2.489,2.489,0,0,1-2.69,2.65,2.917,2.917,0,0,1-2.35-1.1l.56-.65a2.121,2.121,0,0,0,1.71.86,1.547,1.547,0,0,0,1.68-1.7v-.55a2.233,2.233,0,0,1-1.78.75Zm.28-5.66c-1.23,0-1.68,1.04-1.68,2.44,0,1.27.5,2.3,1.67,2.3a1.6,1.6,0,0,0,1.51-.93v-2.9a1.618,1.618,0,0,0-1.5-.91"/>
      <path id="fu" d="M70.28,269.48a2.055,2.055,0,0,1,2.36,2.06v2.92a3.777,3.777,0,0,0,.22,1.39v.09H71.72a2.391,2.391,0,0,1-.15-.67,2.44,2.44,0,0,1-1.81.79,1.966,1.966,0,0,1-2.14-1.88c.02-1.47,1.26-2.11,2.87-2.09h1.06v-.5a1.181,1.181,0,0,0-1.34-1.24c-.67,0-1.36.39-1.37,1H67.75c.12-1.2,1.21-1.85,2.52-1.88Zm-1.57,4.55a1.1,1.1,0,0,0,1.21,1.09,1.9,1.9,0,0,0,1.63-.95v-1.3H70.7c-1.33,0-1.99.39-1.99,1.17"/>
      <path id="fv" d="M76.98,270.4a1.714,1.714,0,0,0-1.55,1.02v4.52H74.34v-6.35h1.03l.04.8a2.326,2.326,0,0,1,1.9-.92c1.34,0,2.03.76,2.03,2.27v4.19H78.25v-4.2c-.01-.9-.38-1.34-1.27-1.34"/>
      <path id="fp" d="M82.15,275.94H81.06v-6.35h1.09Zm-.53-7.41a.593.593,0,0,1-.64-.62.646.646,0,1,1,.64.62"/>
      <path id="gZ" d="M84.91,275.06h3.71v.89H83.58v-.8l3.5-4.65H83.63v-.9h4.81v.77"/>
      <path id="fu-2" data-name="fu" d="M92.31,269.48a2.055,2.055,0,0,1,2.36,2.06v2.92a3.777,3.777,0,0,0,.22,1.39v.09H93.75a2.391,2.391,0,0,1-.15-.67,2.44,2.44,0,0,1-1.81.79,1.966,1.966,0,0,1-2.14-1.88c.02-1.47,1.26-2.11,2.87-2.09h1.06v-.5a1.181,1.181,0,0,0-1.34-1.24c-.67,0-1.36.39-1.37,1H89.78c.12-1.2,1.21-1.85,2.52-1.88Zm-1.57,4.55a1.1,1.1,0,0,0,1.21,1.09,1.9,1.9,0,0,0,1.63-.95v-1.3h-.85c-1.33,0-1.99.39-1.99,1.17"/>
      <path id="gY-2" data-name="gY" d="M97.18,272.69c0,1.43.45,2.46,1.74,2.49a1.458,1.458,0,0,0,1.5-1.23h1.03a2.4,2.4,0,0,1-2.52,2.12c-1.85,0-2.89-1.42-2.83-3.41.06-1.87.96-3.13,2.82-3.17a2.388,2.388,0,0,1,2.53,2.3h-1.03a1.474,1.474,0,0,0-1.5-1.41c-1.23.02-1.74.97-1.74,2.32"/>
      <path id="fp-2" data-name="fp" d="M103.85,275.94h-1.09v-6.35h1.09Zm-.53-7.41a.593.593,0,0,1-.64-.62.646.646,0,1,1,.64.62"/>
      <path id="ft-4" data-name="ft" d="M108.19,276.06c-1.8.04-2.95-1.45-2.89-3.35.06-1.88,1.03-3.2,2.88-3.23,1.81-.03,2.95,1.45,2.9,3.36-.05,1.89-1.03,3.19-2.89,3.22Zm-.01-5.69c-1.22,0-1.79,1.09-1.79,2.47,0,1.27.62,2.33,1.8,2.33,1.24,0,1.8-1.09,1.8-2.46,0-1.26-.64-2.34-1.81-2.34"/>
      <path id="fv-2" data-name="fv" d="M115.07,270.4a1.714,1.714,0,0,0-1.55,1.02v4.52h-1.09v-6.35h1.03l.04.8a2.326,2.326,0,0,1,1.9-.92c1.34,0,2.03.76,2.03,2.27v4.19h-1.09v-4.2c-.01-.9-.38-1.34-1.27-1.34"/>
      <path id="fu-3" data-name="fu" d="M121.53,269.48a2.055,2.055,0,0,1,2.36,2.06v2.92a3.777,3.777,0,0,0,.22,1.39v.09h-1.14a2.391,2.391,0,0,1-.15-.67,2.44,2.44,0,0,1-1.81.79,1.966,1.966,0,0,1-2.14-1.88c.02-1.47,1.26-2.11,2.87-2.09h1.06v-.5a1.181,1.181,0,0,0-1.34-1.24c-.67,0-1.36.39-1.37,1H119c.12-1.2,1.21-1.85,2.52-1.88Zm-1.57,4.55a1.1,1.1,0,0,0,1.21,1.09,1.9,1.9,0,0,0,1.63-.95v-1.3h-.85c-1.33,0-1.99.39-1.99,1.17"/>
      <path id="ha" d="M126.78,275.94h-1.09v-9.01h1.09v9.01"/>
      <path id="fn-2" data-name="fn" d="M131.21,275.18a1.969,1.969,0,0,0,1.67-.86l.66.52a2.659,2.659,0,0,1-2.39,1.23c-1.81,0-2.91-1.37-2.91-3.31a3.266,3.266,0,0,1,1.37-2.85,2.532,2.532,0,0,1,1.41-.42c1.76.01,2.63,1.28,2.61,3.15v.45h-4.3A1.938,1.938,0,0,0,131.21,275.18Zm1.33-2.99c-.02-1.06-.52-1.82-1.53-1.82s-1.55.82-1.65,1.82h3.18"/>
      <path id="fq-3" data-name="fq" d="M137.21,275.18c.71,0,1.36-.29,1.36-.92a.853.853,0,0,0-.33-.69c-.43-.35-1.96-.54-2.46-.84a1.515,1.515,0,0,1-.95-1.4,2.442,2.442,0,0,1,4.77.12h-1.09a1.243,1.243,0,0,0-1.33-1.09c-.68,0-1.26.31-1.26.93a.668.668,0,0,0,.31.59c.45.31,1.94.53,2.44.82a1.561,1.561,0,0,1,.99,1.47c0,1.22-1.14,1.88-2.45,1.88a2.646,2.646,0,0,1-2.26-1.02,1.815,1.815,0,0,1-.33-1.05h1.09c.04.76.68,1.18,1.51,1.18"/>
    </g>
    <path id="Trazado_723530" data-name="Trazado 723530" d="M2.17,346.01a4.626,4.626,0,0,1,4.63-4.63H182.89a4.626,4.626,0,0,1,4.63,4.63v52.52a4.626,4.626,0,0,1-4.63,4.63H6.8a4.626,4.626,0,0,1-4.63-4.63Z" transform="translate(1868.83 -6499.16)" fill="#7e5ee3" stroke="rgba(0,0,0,0)" stroke-width="2.32"/>
    <g id="au" transform="translate(1868.83 -6499.16)">
      <path id="hb" d="M61.53,372.05H58.15v3.49H56.39V367h5.56v1.43h-3.8v2.21h3.38v1.42" fill="#fff"/>
      <path id="eT" d="M65.25,369.08a2.231,2.231,0,0,1,2.55,2.25v2.75a3.068,3.068,0,0,0,.25,1.37v.1H66.34a1.926,1.926,0,0,1-.17-.57,2.038,2.038,0,0,1-1.6.69,2,2,0,0,1-2.16-1.9c.03-1.51,1.24-2.09,2.91-2.09h.78c.06-.8-.17-1.33-.94-1.33-.53,0-.92.26-.92.77h-1.7c.09-1.36,1.25-2.01,2.7-2.02Zm-1.14,4.56a.749.749,0,0,0,.83.73,1.279,1.279,0,0,0,1.16-.62v-1.09h-.63c-.89.01-1.36.3-1.36.98" fill="#fff"/>
      <path id="hc" d="M70.89,375.54h-1.7v-9.01h1.7v9.01" fill="#fff"/>
      <path id="hc-2" data-name="hc" d="M74.07,375.54h-1.7v-9.01h1.7v9.01" fill="#fff"/>
      <path id="eT-2" data-name="eT" d="M78.06,369.08a2.231,2.231,0,0,1,2.55,2.25v2.75a3.068,3.068,0,0,0,.25,1.37v.1H79.15a1.926,1.926,0,0,1-.17-.57,2.038,2.038,0,0,1-1.6.69,2,2,0,0,1-2.16-1.9c.03-1.51,1.24-2.09,2.91-2.09h.78c.06-.8-.17-1.33-.94-1.33-.53,0-.92.26-.92.77h-1.7c.09-1.36,1.25-2.01,2.7-2.02Zm-1.14,4.56a.749.749,0,0,0,.83.73,1.279,1.279,0,0,0,1.16-.62v-1.09h-.63c-.89.01-1.36.3-1.36.98" fill="#fff"/>
      <path id="fV-3" data-name="fV" d="M84.36,374.46c.55,0,.99-.19.99-.67a.556.556,0,0,0-.31-.49,3.249,3.249,0,0,0-.99-.32c-1.51-.32-2.26-.96-2.26-1.92,0-1.22,1.19-1.98,2.53-1.98,1.44,0,2.65.73,2.66,2.05h-1.7c-.01-.53-.36-.84-.97-.84-.5,0-.89.24-.9.69a.517.517,0,0,0,.27.45,16.929,16.929,0,0,0,1.97.59,1.778,1.778,0,0,1,1.34,1.71c0,1.75-2.49,2.37-4.08,1.66a2.113,2.113,0,0,1-1.33-1.85h1.61c.03.62.5.93,1.17.93" fill="#fff"/>
    </g>
    <g id="av" transform="translate(1868.83 -6499.16)">
      <path id="hc-3" data-name="hc" d="M92.87,375.54h-1.7v-9.01h1.7v9.01" fill="#fff"/>
      <path id="eT-3" data-name="eT" d="M96.85,369.08a2.231,2.231,0,0,1,2.55,2.25v2.75a3.068,3.068,0,0,0,.25,1.37v.1H97.94a1.926,1.926,0,0,1-.17-.57,2.038,2.038,0,0,1-1.6.69,2,2,0,0,1-2.16-1.9c.03-1.51,1.24-2.09,2.91-2.09h.78c.06-.8-.17-1.33-.94-1.33-.53,0-.92.26-.92.77h-1.7c.09-1.36,1.25-2.01,2.7-2.02Zm-1.14,4.56a.749.749,0,0,0,.83.73,1.279,1.279,0,0,0,1.16-.62v-1.09h-.63c-.89.01-1.36.3-1.36.98" fill="#fff"/>
      <path id="fW" d="M102.74,373.61c.01.49.15.65.65.66a2.533,2.533,0,0,0,.5-.04v1.28a3.515,3.515,0,0,1-1.03.15,1.609,1.609,0,0,1-1.82-1.8v-3.42h-.93V369.2h.93v-1.56h1.7v1.56h1.09v1.24h-1.09v3.17" fill="#fff"/>
      <path id="eQ" d="M110.16,374.52a2.968,2.968,0,0,1-2.48,1.14,3.018,3.018,0,0,1-3.15-3.3c.07-1.94,1.06-3.28,2.96-3.28s2.83,1.26,2.8,3.15v.69h-4.04a1.485,1.485,0,0,0,1.54,1.37,1.817,1.817,0,0,0,1.53-.71l.83.93Zm-1.53-2.75c.03-.82-.36-1.33-1.14-1.31-.76,0-1.12.57-1.22,1.31h2.36" fill="#fff"/>
      <path id="hd" d="M115.01,371.48c0-.73-.28-1.02-1.01-1.03a1.172,1.172,0,0,0-1.07.61v4.48h-1.7v-6.35h1.6l.05.73a2.2,2.2,0,0,1,1.82-.85c1.43,0,2.01.89,2.01,2.36v4.1h-1.7v-4.06" fill="#fff"/>
      <path id="fW-2" data-name="fW" d="M120.02,373.61c.01.49.15.65.65.66a2.533,2.533,0,0,0,.5-.04v1.28a3.515,3.515,0,0,1-1.03.15,1.609,1.609,0,0,1-1.82-1.8v-3.42h-.93V369.2h.93v-1.56h1.7v1.56h1.09v1.24h-1.09v3.17" fill="#fff"/>
      <path id="eQ-2" data-name="eQ" d="M127.45,374.52a2.968,2.968,0,0,1-2.48,1.14,3.018,3.018,0,0,1-3.15-3.3c.07-1.94,1.06-3.28,2.96-3.28s2.83,1.26,2.8,3.15v.69h-4.04a1.485,1.485,0,0,0,1.54,1.37,1.817,1.817,0,0,0,1.53-.71l.83.93Zm-1.53-2.75c.03-.82-.36-1.33-1.14-1.31-.76,0-1.12.57-1.22,1.31h2.36" fill="#fff"/>
      <path id="fV-4" data-name="fV" d="M130.99,374.46c.55,0,.99-.19.99-.67a.556.556,0,0,0-.31-.49,3.249,3.249,0,0,0-.99-.32c-1.51-.32-2.26-.96-2.26-1.92,0-1.22,1.19-1.98,2.53-1.98,1.44,0,2.65.73,2.66,2.05h-1.7c-.01-.53-.36-.84-.97-.84-.5,0-.89.24-.9.69a.517.517,0,0,0,.27.45,16.928,16.928,0,0,0,1.97.59,1.778,1.778,0,0,1,1.34,1.71c0,1.75-2.49,2.37-4.08,1.66a2.113,2.113,0,0,1-1.33-1.85h1.61c.03.62.5.93,1.17.93" fill="#fff"/>
    </g>
    <path id="Trazado_723531" data-name="Trazado 723531" d="M233.87,98.86a4.626,4.626,0,0,1,4.63-4.63H383.7a4.626,4.626,0,0,1,4.63,4.63v21.63a4.626,4.626,0,0,1-4.63,4.63H238.5a4.626,4.626,0,0,1-4.63-4.63V98.86Z" transform="translate(1868.83 -6499.16)" fill="#fff" stroke="#00bcd4" stroke-width="1.54"/>
    <g id="aw" transform="translate(1868.83 -6499.16)">
      <path id="gX-2" data-name="gX" d="M294.96,107.36c0,1.74-1.18,2.59-3,2.59h-2.01v3.34h-1.13v-8.54h3.15a2.623,2.623,0,0,1,2.99,2.61Zm-1.13.01a1.66,1.66,0,0,0-1.8-1.7h-2.09v3.35h2.02c1.15,0,1.87-.54,1.87-1.65"/>
      <path id="fu-4" data-name="fu" d="M298.64,106.82a2.055,2.055,0,0,1,2.36,2.06v2.92a3.777,3.777,0,0,0,.22,1.39v.09h-1.14a2.391,2.391,0,0,1-.15-.67,2.44,2.44,0,0,1-1.81.79,1.966,1.966,0,0,1-2.14-1.88c.02-1.47,1.26-2.11,2.87-2.09h1.06v-.5a1.181,1.181,0,0,0-1.34-1.24c-.67,0-1.36.39-1.37,1h-1.09c.12-1.2,1.21-1.85,2.52-1.88Zm-1.57,4.55a1.1,1.1,0,0,0,1.21,1.09,1.9,1.9,0,0,0,1.63-.95v-1.3h-.85c-1.33,0-1.99.39-1.99,1.17"/>
      <path id="gY-3" data-name="gY" d="M303.51,110.03c0,1.43.45,2.46,1.74,2.49a1.458,1.458,0,0,0,1.5-1.23h1.03a2.4,2.4,0,0,1-2.52,2.12c-1.85,0-2.89-1.42-2.83-3.41.06-1.87.96-3.13,2.82-3.17a2.388,2.388,0,0,1,2.53,2.3h-1.03a1.474,1.474,0,0,0-1.5-1.41c-1.23.02-1.74.97-1.74,2.32"/>
      <path id="fp-3" data-name="fp" d="M310.17,113.29h-1.09v-6.35h1.09Zm-.53-7.41a.593.593,0,0,1-.64-.62.646.646,0,1,1,.64.62"/>
      <path id="fn-3" data-name="fn" d="M314.6,112.52a1.969,1.969,0,0,0,1.67-.86l.66.52a2.659,2.659,0,0,1-2.39,1.23c-1.81,0-2.91-1.37-2.91-3.31a3.266,3.266,0,0,1,1.37-2.85,2.532,2.532,0,0,1,1.41-.42c1.76.01,2.63,1.28,2.61,3.15v.45h-4.3A1.938,1.938,0,0,0,314.6,112.52Zm1.33-2.99c-.02-1.06-.52-1.82-1.53-1.82s-1.55.82-1.65,1.82h3.18"/>
      <path id="fv-5" data-name="fv" d="M320.91,107.74a1.714,1.714,0,0,0-1.55,1.02v4.52h-1.09v-6.35h1.03l.04.8a2.326,2.326,0,0,1,1.9-.92c1.34,0,2.03.76,2.03,2.27v4.19h-1.09v-4.2c-.01-.9-.38-1.34-1.27-1.34"/>
      <path id="fr" d="M326.75,113.4c-1,0-1.47-.66-1.47-1.69v-3.94h-1.16v-.84h1.16v-1.54h1.09v1.54h1.18v.84h-1.18v3.94c-.05.73.54.87,1.21.69v.88a3.084,3.084,0,0,1-.83.12"/>
      <path id="fn-4" data-name="fn" d="M331.52,112.52a1.969,1.969,0,0,0,1.67-.86l.66.52a2.659,2.659,0,0,1-2.39,1.23c-1.81,0-2.91-1.37-2.91-3.31a3.266,3.266,0,0,1,1.37-2.85,2.532,2.532,0,0,1,1.41-.42c1.76.01,2.63,1.28,2.61,3.15v.45h-4.3A1.938,1.938,0,0,0,331.52,112.52Zm1.33-2.99c-.02-1.06-.52-1.82-1.53-1.82s-1.55.82-1.65,1.82h3.18"/>
    </g>
    <path id="Trazado_723532" data-name="Trazado 723532" d="M233.87,144.56a4.626,4.626,0,0,1,4.63-4.63H383.7a4.626,4.626,0,0,1,4.63,4.63h0v21.63a4.626,4.626,0,0,1-4.63,4.63H238.5a4.626,4.626,0,0,1-4.63-4.63V144.56Z" transform="translate(1868.83 -6499.16)" fill="#fff" stroke="#00bcd4" stroke-width="1.54"/>
    <g id="ax" transform="translate(1868.83 -6499.16)">
      <path id="he" d="M269.19,151.37h-2.75v7.61h-1.12v-7.61h-2.74v-.93h6.61v.93"/>
      <path id="fu-5" data-name="fu" d="M272.1,152.52a2.055,2.055,0,0,1,2.36,2.06v2.92a3.777,3.777,0,0,0,.22,1.39v.09h-1.14a2.391,2.391,0,0,1-.15-.67,2.44,2.44,0,0,1-1.81.79,1.966,1.966,0,0,1-2.14-1.88c.02-1.47,1.26-2.11,2.87-2.09h1.06v-.5a1.181,1.181,0,0,0-1.34-1.24c-.67,0-1.36.39-1.37,1h-1.09c.12-1.2,1.21-1.85,2.52-1.88Zm-1.57,4.55a1.1,1.1,0,0,0,1.21,1.09,1.9,1.9,0,0,0,1.63-.95v-1.3h-.85c-1.33,0-1.99.39-1.99,1.17"/>
      <path id="fs-3" data-name="fs" d="M279.23,153.61c-.96-.16-1.69.11-1.98.87v4.51h-1.09v-6.35h1.06l.02.73a1.686,1.686,0,0,1,1.51-.85,1.19,1.19,0,0,1,.48.08v1.01"/>
      <path id="fn-5" data-name="fn" d="M282.81,158.22a1.969,1.969,0,0,0,1.67-.86l.66.52a2.659,2.659,0,0,1-2.39,1.23c-1.81,0-2.91-1.37-2.91-3.31a3.266,3.266,0,0,1,1.37-2.85,2.532,2.532,0,0,1,1.41-.42c1.76.01,2.63,1.28,2.61,3.15v.45h-4.3a1.938,1.938,0,0,0,1.88,2.09Zm1.33-2.99c-.02-1.06-.52-1.82-1.53-1.82s-1.55.82-1.65,1.82h3.18"/>
      <path id="fu-6" data-name="fu" d="M288.95,152.52a2.055,2.055,0,0,1,2.36,2.06v2.92a3.777,3.777,0,0,0,.22,1.39v.09h-1.14a2.391,2.391,0,0,1-.15-.67,2.44,2.44,0,0,1-1.81.79,1.966,1.966,0,0,1-2.14-1.88c.02-1.47,1.26-2.11,2.87-2.09h1.06v-.5a1.181,1.181,0,0,0-1.34-1.24c-.67,0-1.36.39-1.37,1h-1.09c.12-1.2,1.21-1.85,2.52-1.88Zm-1.57,4.55a1.1,1.1,0,0,0,1.21,1.09,1.9,1.9,0,0,0,1.63-.95v-1.3h-.85c-1.33,0-1.99.39-1.99,1.17"/>
    </g>
    <g id="ay" transform="translate(1868.83 -6499.16)">
      <path id="hf" d="M298.07,157.39l1.48-4.76h1.16l-2.55,7.33c-.49,1.26-1.23,1.8-2.49,1.49v-.88c.98.09,1.42-.22,1.66-1.01l.24-.65-2.26-6.28h1.18"/>
    </g>
    <g id="az" transform="translate(1868.83 -6499.16)">
      <path id="fr-2" data-name="fr" d="M306.5,159.1c-1,0-1.47-.66-1.47-1.69v-3.94h-1.16v-.84h1.16v-1.54h1.09v1.54h1.18v.84h-1.18v3.94c-.05.73.54.87,1.21.69v.88a3.084,3.084,0,0,1-.83.12"/>
      <path id="fn-6" data-name="fn" d="M311.27,158.22a1.969,1.969,0,0,0,1.67-.86l.66.52a2.659,2.659,0,0,1-2.39,1.23c-1.81,0-2.91-1.37-2.91-3.31a3.266,3.266,0,0,1,1.37-2.85,2.532,2.532,0,0,1,1.41-.42c1.76.01,2.63,1.28,2.61,3.15v.45h-4.3a1.938,1.938,0,0,0,1.88,2.09Zm1.33-2.99c-.02-1.06-.52-1.82-1.53-1.82s-1.55.82-1.65,1.82h3.18"/>
      <path id="gY-4" data-name="gY" d="M315.74,155.73c0,1.43.45,2.46,1.74,2.49a1.458,1.458,0,0,0,1.5-1.23h1.03a2.4,2.4,0,0,1-2.52,2.12c-1.85,0-2.89-1.42-2.83-3.41.06-1.87.96-3.13,2.82-3.17a2.388,2.388,0,0,1,2.53,2.3h-1.03a1.474,1.474,0,0,0-1.5-1.41c-1.23.02-1.74.97-1.74,2.32"/>
      <path id="fv-6" data-name="fv" d="M323.86,153.44a1.714,1.714,0,0,0-1.55,1.02v4.52h-1.09v-6.35h1.03l.04.8a2.326,2.326,0,0,1,1.9-.92c1.34,0,2.03.76,2.03,2.27v4.19h-1.09v-4.2c-.01-.9-.38-1.34-1.27-1.34"/>
      <path id="ft-5" data-name="ft" d="M330.46,159.1c-1.8.04-2.95-1.45-2.89-3.35.06-1.88,1.03-3.2,2.88-3.23,1.81-.03,2.95,1.45,2.9,3.36-.05,1.89-1.03,3.19-2.89,3.22Zm-.01-5.69c-1.22,0-1.79,1.09-1.79,2.47,0,1.27.62,2.33,1.8,2.33,1.24,0,1.8-1.09,1.8-2.46,0-1.26-.64-2.34-1.81-2.34"/>
      <path id="ha-2" data-name="ha" d="M335.89,158.98H334.8v-9.01h1.09v9.01"/>
      <path id="ft-6" data-name="ft" d="M340.23,159.1c-1.8.04-2.95-1.45-2.89-3.35.06-1.88,1.03-3.2,2.88-3.23,1.81-.03,2.95,1.45,2.9,3.36-.05,1.89-1.03,3.19-2.89,3.22Zm-.01-5.69c-1.22,0-1.79,1.09-1.79,2.47,0,1.27.62,2.33,1.8,2.33,1.24,0,1.8-1.09,1.8-2.46,0-1.26-.64-2.34-1.81-2.34"/>
      <path id="fo-2" data-name="fo" d="M346.71,159.1c-1.65,0-2.49-1.52-2.49-3.34s.86-3.24,2.5-3.24a2.2,2.2,0,0,1,1.81.82l.05-.7h.99v6.19a2.489,2.489,0,0,1-2.69,2.65,2.917,2.917,0,0,1-2.35-1.1l.56-.65a2.121,2.121,0,0,0,1.71.86,1.547,1.547,0,0,0,1.68-1.7v-.55a2.233,2.233,0,0,1-1.78.75Zm.28-5.66c-1.23,0-1.68,1.04-1.68,2.44,0,1.27.5,2.3,1.67,2.3a1.6,1.6,0,0,0,1.51-.93v-2.9a1.618,1.618,0,0,0-1.5-.91"/>
      <path id="hg" d="M352.4,158.98h-1.09v-6.35h1.09Zm.01-8.99h1.31l-1.57,1.72h-.87"/>
      <path id="fu-7" data-name="fu" d="M356.65,152.52a2.055,2.055,0,0,1,2.36,2.06v2.92a3.777,3.777,0,0,0,.22,1.39v.09h-1.14a2.391,2.391,0,0,1-.15-.67,2.44,2.44,0,0,1-1.81.79,1.966,1.966,0,0,1-2.14-1.88c.02-1.47,1.26-2.11,2.87-2.09h1.06v-.5a1.181,1.181,0,0,0-1.34-1.24c-.67,0-1.36.39-1.37,1h-1.09c.12-1.2,1.21-1.85,2.52-1.88Zm-1.57,4.55a1.1,1.1,0,0,0,1.21,1.09,1.9,1.9,0,0,0,1.63-.95v-1.3h-.85c-1.33,0-1.99.39-1.99,1.17"/>
    </g>
    <path id="Trazado_723533" data-name="Trazado 723533" d="M233.87,191.54a4.626,4.626,0,0,1,4.63-4.63H383.7a4.626,4.626,0,0,1,4.63,4.63v21.63a4.626,4.626,0,0,1-4.63,4.63H238.5a4.626,4.626,0,0,1-4.63-4.63V191.54Z" transform="translate(1868.83 -6499.16)" fill="#fff" stroke="#00bcd4" stroke-width="1.54"/>
    <g id="aA" transform="translate(1868.83 -6499.16)">
      <path id="hh" d="M289.01,205.97h-1.13v-8.54h1.13v8.54"/>
      <path id="fv-7" data-name="fv" d="M293.54,200.42a1.714,1.714,0,0,0-1.55,1.02v4.52H290.9v-6.35h1.03l.04.8a2.326,2.326,0,0,1,1.9-.92c1.34,0,2.03.76,2.03,2.27v4.19h-1.09v-4.2c-.01-.9-.38-1.34-1.27-1.34"/>
      <path id="hi" d="M299.76,206.08c-1.62,0-2.49-1.57-2.49-3.34s.89-3.23,2.5-3.24a2.2,2.2,0,0,1,1.77.76v-3.31h1.09v9.01h-1l-.05-.68a2.212,2.212,0,0,1-1.81.8Zm.28-5.66c-1.23,0-1.69,1.04-1.69,2.44,0,1.28.51,2.3,1.68,2.3a1.587,1.587,0,0,0,1.51-.93v-2.92a1.589,1.589,0,0,0-1.5-.9"/>
      <path id="fp-4" data-name="fp" d="M305.49,205.97H304.4v-6.35h1.09Zm-.53-7.41a.593.593,0,0,1-.64-.62.646.646,0,1,1,.64.62"/>
      <path id="hj" d="M309.32,204.49l1.57-4.87H312l-2.28,6.35h-.83l-2.3-6.35h1.11"/>
      <path id="fp-5" data-name="fp" d="M314.22,205.97h-1.09v-6.35h1.09Zm-.53-7.41a.593.593,0,0,1-.64-.62.646.646,0,1,1,.64.62"/>
      <path id="hi-2" data-name="hi" d="M318.19,206.08c-1.62,0-2.49-1.57-2.49-3.34s.89-3.23,2.5-3.24a2.2,2.2,0,0,1,1.77.76v-3.31h1.09v9.01h-1l-.05-.68a2.212,2.212,0,0,1-1.81.8Zm.28-5.66c-1.23,0-1.69,1.04-1.69,2.44,0,1.28.51,2.3,1.68,2.3a1.587,1.587,0,0,0,1.51-.93v-2.92a1.589,1.589,0,0,0-1.5-.9"/>
      <path id="hk" d="M324.79,206.08c-1.41,0-2.08-.87-2.08-2.33v-4.13h1.09v4.1q0,1.44,1.17,1.44a1.614,1.614,0,0,0,1.65-.93v-4.62h1.09v6.35h-1.03l-.02-.63a2.292,2.292,0,0,1-1.86.75"/>
      <path id="ft-7" data-name="ft" d="M331.96,206.08c-1.8.04-2.95-1.45-2.89-3.35.06-1.88,1.03-3.2,2.88-3.23,1.81-.03,2.95,1.45,2.9,3.36-.05,1.89-1.03,3.19-2.89,3.22Zm-.01-5.69c-1.22,0-1.79,1.09-1.79,2.47,0,1.27.62,2.33,1.8,2.33,1.24,0,1.8-1.09,1.8-2.46,0-1.26-.64-2.34-1.81-2.34"/>
    </g>
    <path id="Trazado_723534" data-name="Trazado 723534" d="M233.87,237.24a4.626,4.626,0,0,1,4.63-4.63H383.7a4.626,4.626,0,0,1,4.63,4.63v21.63a4.626,4.626,0,0,1-4.63,4.63H238.5a4.626,4.626,0,0,1-4.63-4.63V237.24Z" transform="translate(1868.83 -6499.16)" fill="#fff" stroke="#00bcd4" stroke-width="1.54"/>
    <g id="aB" transform="translate(1868.83 -6499.16)">
      <path id="hl" d="M298.58,247.72h-3.7v3.03h4.3v.92h-5.43v-8.54h5.37v.93h-4.24v2.75h3.7v.92"/>
      <path id="hm" d="M302.55,251.78c-1.68-.01-2.52-1.53-2.52-3.34s.86-3.24,2.53-3.24a2.222,2.222,0,0,1,1.78.76l.05-.64h1v8.79H304.3v-3.03a2.276,2.276,0,0,1-1.75.7Zm.28-5.69c-1.22,0-1.71,1.07-1.71,2.47,0,1.28.54,2.33,1.7,2.33a1.627,1.627,0,0,0,1.48-.86v-3.11a1.634,1.634,0,0,0-1.47-.84"/>
      <path id="hk-2" data-name="hk" d="M309.19,251.78c-1.41,0-2.08-.87-2.08-2.33v-4.13h1.09v4.1q0,1.44,1.17,1.44a1.614,1.614,0,0,0,1.65-.93v-4.62h1.09v6.35h-1.03l-.02-.63a2.292,2.292,0,0,1-1.86.75"/>
      <path id="fp-6" data-name="fp" d="M314.93,251.66h-1.09v-6.35h1.09Zm-.53-7.41a.593.593,0,0,1-.64-.62.646.646,0,1,1,.64.62"/>
      <path id="hn" d="M319.55,245.2c1.71,0,2.48,1.47,2.48,3.36,0,1.74-.83,3.21-2.46,3.22a2.357,2.357,0,0,1-1.82-.73v3.06h-1.09v-8.79h.99l.05.7a2.229,2.229,0,0,1,1.84-.82Zm-.31,5.7c1.21,0,1.7-1.06,1.7-2.46,0-1.28-.54-2.32-1.71-2.32a1.6,1.6,0,0,0-1.48.87v3.03a1.592,1.592,0,0,0,1.49.87"/>
      <path id="ft-8" data-name="ft" d="M326.01,251.78c-1.8.04-2.95-1.45-2.89-3.35.06-1.88,1.03-3.2,2.88-3.23,1.81-.03,2.95,1.45,2.9,3.36-.05,1.89-1.03,3.19-2.89,3.22Zm-.01-5.69c-1.22,0-1.79,1.09-1.79,2.47,0,1.27.62,2.33,1.8,2.33,1.24,0,1.8-1.09,1.8-2.46,0-1.26-.64-2.34-1.81-2.34"/>
    </g>
    <path id="Trazado_723535" data-name="Trazado 723535" d="M450.12,98.86a4.626,4.626,0,0,1,4.63-4.63h145.2a4.626,4.626,0,0,1,4.63,4.63v83.41a4.626,4.626,0,0,1-4.63,4.63H454.75a4.626,4.626,0,0,1-4.63-4.63h0Z" transform="translate(1868.83 -6499.16)" fill="#fff" stroke="#4cebff" stroke-width="1.54"/>
    <g id="aC" transform="translate(1868.83 -6499.16)">
      <path id="ho" d="M480.88,135.82H477.3l-.8,2.23h-1.16l3.26-8.54h.99l3.27,8.54H481.7Zm-3.24-.93h2.9l-1.45-3.99"/>
      <path id="gY-5" data-name="gY" d="M484.63,134.79c0,1.43.45,2.46,1.74,2.49a1.458,1.458,0,0,0,1.5-1.23h1.03a2.4,2.4,0,0,1-2.52,2.12c-1.85,0-2.89-1.42-2.83-3.41.06-1.87.96-3.13,2.82-3.17a2.388,2.388,0,0,1,2.53,2.3h-1.03a1.474,1.474,0,0,0-1.5-1.41c-1.23.02-1.74.97-1.74,2.32"/>
      <path id="gY-6" data-name="gY" d="M490.92,134.79c0,1.43.45,2.46,1.74,2.49a1.458,1.458,0,0,0,1.5-1.23h1.03a2.4,2.4,0,0,1-2.52,2.12c-1.85,0-2.89-1.42-2.83-3.41.06-1.87.96-3.13,2.82-3.17a2.388,2.388,0,0,1,2.53,2.3h-1.03a1.474,1.474,0,0,0-1.5-1.41c-1.23.02-1.74.97-1.74,2.32"/>
      <path id="fp-7" data-name="fp" d="M497.58,138.05h-1.09V131.7h1.09Zm-.53-7.41a.593.593,0,0,1-.64-.62.646.646,0,1,1,.64.62"/>
      <path id="ft-9" data-name="ft" d="M501.92,138.17c-1.8.04-2.95-1.45-2.89-3.35.06-1.88,1.03-3.2,2.88-3.23,1.81-.03,2.95,1.45,2.9,3.36-.05,1.89-1.03,3.19-2.89,3.22Zm-.01-5.69c-1.22,0-1.79,1.09-1.79,2.47,0,1.27.62,2.33,1.8,2.33,1.24,0,1.8-1.09,1.8-2.46,0-1.26-.64-2.34-1.81-2.34"/>
      <path id="fv-8" data-name="fv" d="M508.8,132.51a1.714,1.714,0,0,0-1.55,1.02v4.52h-1.09V131.7h1.03l.04.8a2.326,2.326,0,0,1,1.9-.92c1.34,0,2.03.76,2.03,2.27v4.19h-1.09v-4.2c-.01-.9-.38-1.34-1.27-1.34"/>
      <path id="fn-7" data-name="fn" d="M515.49,137.28a1.969,1.969,0,0,0,1.67-.86l.66.52a2.659,2.659,0,0,1-2.39,1.23c-1.81,0-2.91-1.37-2.91-3.31a3.266,3.266,0,0,1,1.37-2.85,2.532,2.532,0,0,1,1.41-.42c1.76.01,2.63,1.28,2.61,3.15v.45h-4.3a1.938,1.938,0,0,0,1.88,2.09Zm1.33-2.99c-.02-1.06-.52-1.82-1.53-1.82s-1.55.82-1.65,1.82h3.18"/>
      <path id="fq-4" data-name="fq" d="M521.5,137.28c.71,0,1.36-.29,1.36-.92a.853.853,0,0,0-.33-.69c-.43-.35-1.96-.54-2.46-.84a1.515,1.515,0,0,1-.95-1.4,2.442,2.442,0,0,1,4.77.12H522.8a1.243,1.243,0,0,0-1.33-1.09c-.68,0-1.26.31-1.26.93a.668.668,0,0,0,.31.59c.45.31,1.94.53,2.44.82a1.561,1.561,0,0,1,.99,1.47c0,1.22-1.14,1.88-2.45,1.88a2.646,2.646,0,0,1-2.26-1.02,1.815,1.815,0,0,1-.33-1.05H520c.04.76.68,1.18,1.51,1.18"/>
    </g>
    <g id="aD" transform="translate(1868.83 -6499.16)">
      <path id="fp-8" data-name="fp" d="M529.51,138.05h-1.09V131.7h1.09Zm-.53-7.41a.593.593,0,0,1-.64-.62.646.646,0,1,1,.64.62"/>
      <path id="fv-9" data-name="fv" d="M533.88,132.51a1.714,1.714,0,0,0-1.55,1.02v4.52h-1.09V131.7h1.03l.04.8a2.326,2.326,0,0,1,1.9-.92c1.34,0,2.03.76,2.03,2.27v4.19h-1.09v-4.2c-.01-.9-.38-1.34-1.27-1.34"/>
      <path id="fq-5" data-name="fq" d="M540.21,137.28c.71,0,1.36-.29,1.36-.92a.853.853,0,0,0-.33-.69c-.43-.35-1.96-.54-2.46-.84a1.515,1.515,0,0,1-.95-1.4,2.442,2.442,0,0,1,4.77.12h-1.09a1.243,1.243,0,0,0-1.33-1.09c-.68,0-1.26.31-1.26.93a.668.668,0,0,0,.31.59c.45.31,1.94.53,2.44.82a1.561,1.561,0,0,1,.99,1.47c0,1.22-1.14,1.88-2.45,1.88a2.646,2.646,0,0,1-2.26-1.02,1.815,1.815,0,0,1-.33-1.05h1.09c.04.76.68,1.18,1.51,1.18"/>
      <path id="fn-8" data-name="fn" d="M546.76,137.28a1.969,1.969,0,0,0,1.67-.86l.66.52a2.659,2.659,0,0,1-2.39,1.23c-1.81,0-2.91-1.37-2.91-3.31a3.266,3.266,0,0,1,1.37-2.85,2.532,2.532,0,0,1,1.41-.42c1.76.01,2.63,1.28,2.61,3.15v.45h-4.3a1.938,1.938,0,0,0,1.88,2.09Zm1.33-2.99c-.02-1.06-.52-1.82-1.53-1.82s-1.55.82-1.65,1.82h3.18"/>
      <path id="fo-3" data-name="fo" d="M552.67,138.17c-1.65,0-2.49-1.52-2.49-3.34s.86-3.24,2.5-3.24a2.2,2.2,0,0,1,1.81.82l.05-.7h.99v6.19a2.489,2.489,0,0,1-2.69,2.65,2.916,2.916,0,0,1-2.35-1.1l.56-.65a2.121,2.121,0,0,0,1.71.86,1.547,1.547,0,0,0,1.68-1.7v-.55a2.233,2.233,0,0,1-1.78.75Zm.28-5.66c-1.23,0-1.68,1.04-1.68,2.44,0,1.27.5,2.3,1.67,2.3a1.6,1.6,0,0,0,1.51-.93v-2.9a1.618,1.618,0,0,0-1.5-.91"/>
      <path id="hk-3" data-name="hk" d="M559.24,138.17c-1.41,0-2.08-.87-2.08-2.33v-4.13h1.09v4.1q0,1.44,1.17,1.44a1.614,1.614,0,0,0,1.65-.93V131.7h1.09v6.35h-1.03l-.02-.63a2.292,2.292,0,0,1-1.86.75"/>
      <path id="fs-4" data-name="fs" d="M566.87,132.68c-.96-.16-1.69.11-1.98.87v4.51H563.8v-6.35h1.06l.02.73a1.686,1.686,0,0,1,1.51-.85,1.19,1.19,0,0,1,.48.08v1.01"/>
      <path id="fu-8" data-name="fu" d="M570.1,131.59a2.055,2.055,0,0,1,2.36,2.06v2.92a3.778,3.778,0,0,0,.22,1.39v.09h-1.14a2.392,2.392,0,0,1-.15-.67,2.44,2.44,0,0,1-1.81.79,1.966,1.966,0,0,1-2.14-1.88c.02-1.47,1.26-2.11,2.87-2.09h1.06v-.5a1.181,1.181,0,0,0-1.34-1.24c-.67,0-1.36.39-1.37,1h-1.09c.12-1.2,1.21-1.85,2.52-1.88Zm-1.57,4.55a1.1,1.1,0,0,0,1.21,1.09,1.9,1.9,0,0,0,1.63-.95v-1.3h-.85c-1.33,0-1.99.39-1.99,1.17"/>
      <path id="fq-6" data-name="fq" d="M576.5,137.28c.71,0,1.36-.29,1.36-.92a.853.853,0,0,0-.33-.69c-.43-.35-1.96-.54-2.46-.84a1.515,1.515,0,0,1-.95-1.4,2.442,2.442,0,0,1,4.77.12H577.8a1.243,1.243,0,0,0-1.33-1.09c-.68,0-1.26.31-1.26.93a.668.668,0,0,0,.31.59c.45.31,1.94.53,2.44.82a1.561,1.561,0,0,1,.99,1.47c0,1.22-1.14,1.88-2.45,1.88a2.646,2.646,0,0,1-2.26-1.02,1.815,1.815,0,0,1-.33-1.05H575c.04.76.68,1.18,1.51,1.18"/>
    </g>
    <g id="aE" transform="translate(1868.83 -6499.16)">
      <path id="hp" d="M479.6,148.23c-.09,2.57.64,4.82,2.01,5.99l-.22.66a4.821,4.821,0,0,1-1.49-1.45,8.911,8.911,0,0,1-1.03-7.32,6.366,6.366,0,0,1,2.52-3.63l.22.72c-1.18.9-1.94,2.94-2.01,5.03"/>
      <path id="fu-9" data-name="fu" d="M485.13,145.66a2.055,2.055,0,0,1,2.36,2.06v2.92a3.777,3.777,0,0,0,.22,1.39v.09h-1.14a2.391,2.391,0,0,1-.15-.67,2.44,2.44,0,0,1-1.81.79,1.966,1.966,0,0,1-2.14-1.88c.02-1.47,1.26-2.11,2.87-2.09h1.06v-.5a1.181,1.181,0,0,0-1.34-1.24c-.67,0-1.36.39-1.37,1H482.6c.12-1.2,1.21-1.85,2.52-1.88Zm-1.57,4.55a1.1,1.1,0,0,0,1.21,1.09,1.9,1.9,0,0,0,1.63-.95v-1.3h-.85c-1.33,0-1.99.39-1.99,1.17"/>
      <path id="gY-7" data-name="gY" d="M489.99,148.87c0,1.43.45,2.46,1.74,2.49a1.458,1.458,0,0,0,1.5-1.23h1.03a2.4,2.4,0,0,1-2.52,2.12c-1.85,0-2.89-1.42-2.83-3.41.06-1.87.96-3.13,2.82-3.17a2.388,2.388,0,0,1,2.53,2.3h-1.03a1.474,1.474,0,0,0-1.5-1.41c-1.23.02-1.74.97-1.74,2.32"/>
      <path id="gY-8" data-name="gY" d="M496.28,148.87c0,1.43.45,2.46,1.74,2.49a1.458,1.458,0,0,0,1.5-1.23h1.03a2.4,2.4,0,0,1-2.52,2.12c-1.85,0-2.89-1.42-2.83-3.41.06-1.87.96-3.13,2.82-3.17a2.388,2.388,0,0,1,2.53,2.3h-1.03a1.474,1.474,0,0,0-1.5-1.41c-1.23.02-1.74.97-1.74,2.32"/>
      <path id="fp-9" data-name="fp" d="M502.95,152.13h-1.09v-6.35h1.09Zm-.53-7.41a.593.593,0,0,1-.64-.62.646.646,0,1,1,.64.62"/>
      <path id="hq" d="M507.29,152.25c-1.8.04-2.95-1.45-2.89-3.35.06-1.88,1.03-3.2,2.88-3.23,1.81-.03,2.95,1.45,2.9,3.36-.05,1.89-1.03,3.19-2.89,3.22Zm-.01-5.69c-1.22,0-1.79,1.09-1.79,2.47,0,1.27.62,2.33,1.8,2.33,1.24,0,1.8-1.09,1.8-2.46,0-1.26-.64-2.34-1.81-2.34Zm.49-3.43h1.31l-1.57,1.72h-.87"/>
      <path id="fv-10" data-name="fv" d="M514.17,146.59a1.714,1.714,0,0,0-1.55,1.02v4.52h-1.09v-6.35h1.03l.04.8a2.326,2.326,0,0,1,1.9-.92c1.34,0,2.03.76,2.03,2.27v4.19h-1.09v-4.2c-.01-.9-.38-1.34-1.27-1.34"/>
    </g>
    <g id="aF" transform="translate(1868.83 -6499.16)">
      <path id="hk-4" data-name="hk" d="M523.2,152.25c-1.41,0-2.08-.87-2.08-2.33v-4.13h1.09v4.1q0,1.44,1.17,1.44a1.614,1.614,0,0,0,1.65-.93v-4.62h1.09v6.35h-1.03l-.02-.63a2.292,2.292,0,0,1-1.86.75"/>
    </g>
    <g id="aG" transform="translate(1868.83 -6499.16)">
      <path id="ft-10" data-name="ft" d="M533.34,152.25c-1.8.04-2.95-1.45-2.89-3.35.06-1.88,1.03-3.2,2.88-3.23,1.81-.03,2.95,1.45,2.9,3.36C536.18,150.92,535.2,152.22,533.34,152.25Zm-.01-5.69c-1.22,0-1.79,1.09-1.79,2.47,0,1.27.62,2.33,1.8,2.33,1.24,0,1.8-1.09,1.8-2.46,0-1.26-.64-2.34-1.81-2.34"/>
      <path id="hr" d="M544.04,146.59a1.372,1.372,0,0,0-1.47,1.33v4.21h-1.09v-4.16a1.21,1.21,0,0,0-1.36-1.38,1.46,1.46,0,0,0-1.46.91v4.63h-1.09v-6.35h1.03l.03.7a2.322,2.322,0,0,1,1.88-.82,1.808,1.808,0,0,1,1.81,1.02,2.372,2.372,0,0,1,2.02-1.02,1.925,1.925,0,0,1,2.12,2.21v4.25h-1.09v-4.19c-.01-.93-.39-1.36-1.36-1.36"/>
      <path id="fp-10" data-name="fp" d="M549.3,152.13h-1.09v-6.35h1.09Zm-.53-7.41a.593.593,0,0,1-.64-.62.646.646,0,1,1,.64.62"/>
      <path id="fq-7" data-name="fq" d="M553.37,151.36c.71,0,1.36-.29,1.36-.92a.853.853,0,0,0-.33-.69c-.43-.35-1.96-.54-2.46-.84a1.515,1.515,0,0,1-.95-1.4,2.442,2.442,0,0,1,4.77.12h-1.09a1.243,1.243,0,0,0-1.33-1.09c-.68,0-1.26.31-1.26.93a.668.668,0,0,0,.31.59c.45.31,1.94.53,2.44.82a1.561,1.561,0,0,1,.99,1.47c0,1.22-1.14,1.88-2.45,1.88a2.646,2.646,0,0,1-2.26-1.02,1.815,1.815,0,0,1-.33-1.05h1.09c.04.76.68,1.18,1.51,1.18"/>
      <path id="fp-11" data-name="fp" d="M558.41,152.13h-1.09v-6.35h1.09Zm-.53-7.41a.593.593,0,0,1-.64-.62.646.646,0,1,1,.64.62"/>
      <path id="hq-2" data-name="hq" d="M562.75,152.25c-1.8.04-2.95-1.45-2.89-3.35.06-1.88,1.03-3.2,2.88-3.23,1.81-.03,2.95,1.45,2.9,3.36C565.59,150.92,564.61,152.22,562.75,152.25Zm-.01-5.69c-1.22,0-1.79,1.09-1.79,2.47,0,1.27.62,2.33,1.8,2.33,1.24,0,1.8-1.09,1.8-2.46C564.55,147.64,563.91,146.56,562.74,146.56Zm.49-3.43h1.31l-1.57,1.72h-.87"/>
      <path id="fv-11" data-name="fv" d="M569.63,146.59a1.714,1.714,0,0,0-1.55,1.02v4.52h-1.09v-6.35h1.03l.04.8a2.326,2.326,0,0,1,1.9-.92c1.34,0,2.03.76,2.03,2.27v4.19H570.9v-4.2c-.01-.9-.38-1.34-1.27-1.34"/>
      <path id="hs" d="M573.03,154.22c1.72-1.27,2.46-4.95,1.75-7.87a6.08,6.08,0,0,0-1.75-3.2l.23-.66a6.533,6.533,0,0,1,2.53,3.64,9.87,9.87,0,0,1,0,5.09,6.535,6.535,0,0,1-2.53,3.66"/>
    </g>
    <path id="Trazado_723536" data-name="Trazado 723536" d="M450.12,222.43a4.626,4.626,0,0,1,4.63-4.63h145.2a4.626,4.626,0,0,1,4.63,4.63v84.63a4.626,4.626,0,0,1-4.63,4.63H454.75a4.626,4.626,0,0,1-4.63-4.63Z" transform="translate(1868.83 -6499.16)" fill="#fff" stroke="#4cebff" stroke-width="1.54"/>
    <g id="aH" transform="translate(1868.83 -6499.16)">
      <path id="ht" d="M500.12,267.46l2.44-7.05h1.23l-3.17,8.54h-1l-3.16-8.54h1.23"/>
      <path id="fp-12" data-name="fp" d="M505.94,268.96h-1.09v-6.35h1.09Zm-.53-7.41a.593.593,0,0,1-.64-.62.646.646,0,1,1,.64.62"/>
      <path id="ft-11" data-name="ft" d="M510.29,269.08c-1.8.04-2.95-1.45-2.89-3.35.06-1.88,1.03-3.2,2.88-3.23,1.81-.03,2.95,1.45,2.9,3.36-.05,1.89-1.03,3.19-2.89,3.22Zm-.01-5.69c-1.22,0-1.79,1.09-1.79,2.47,0,1.27.62,2.33,1.8,2.33,1.24,0,1.8-1.09,1.8-2.46,0-1.26-.64-2.34-1.81-2.34"/>
      <path id="ha-3" data-name="ha" d="M515.71,268.96h-1.09v-9.01h1.09v9.01"/>
      <path id="fu-10" data-name="fu" d="M519.92,262.5a2.055,2.055,0,0,1,2.36,2.06v2.92a3.778,3.778,0,0,0,.22,1.39v.09h-1.14a2.392,2.392,0,0,1-.15-.67,2.44,2.44,0,0,1-1.81.79,1.966,1.966,0,0,1-2.14-1.88c.02-1.47,1.26-2.11,2.87-2.09h1.06v-.5a1.181,1.181,0,0,0-1.34-1.24c-.67,0-1.36.39-1.37,1h-1.09c.12-1.2,1.21-1.85,2.52-1.88Zm-1.57,4.55a1.1,1.1,0,0,0,1.21,1.09,1.9,1.9,0,0,0,1.63-.95v-1.3h-.85c-1.33,0-1.99.39-1.99,1.17"/>
      <path id="gY-9" data-name="gY" d="M524.79,265.7c0,1.43.45,2.46,1.74,2.49a1.458,1.458,0,0,0,1.5-1.23h1.03a2.4,2.4,0,0,1-2.52,2.12c-1.85,0-2.89-1.42-2.83-3.41.06-1.87.96-3.13,2.82-3.17a2.388,2.388,0,0,1,2.53,2.3h-1.03a1.474,1.474,0,0,0-1.5-1.41c-1.23.02-1.74.97-1.74,2.32"/>
      <path id="fp-13" data-name="fp" d="M531.45,268.96h-1.09v-6.35h1.09Zm-.53-7.41a.593.593,0,0,1-.64-.62.646.646,0,1,1,.64.62"/>
      <path id="ft-12" data-name="ft" d="M535.79,269.08c-1.8.04-2.95-1.45-2.89-3.35.06-1.88,1.03-3.2,2.88-3.23,1.81-.03,2.95,1.45,2.9,3.36-.05,1.89-1.03,3.19-2.89,3.22Zm-.01-5.69c-1.22,0-1.79,1.09-1.79,2.47,0,1.27.62,2.33,1.8,2.33,1.24,0,1.8-1.09,1.8-2.46,0-1.26-.64-2.34-1.81-2.34"/>
      <path id="fv-12" data-name="fv" d="M542.67,263.42a1.714,1.714,0,0,0-1.55,1.02v4.52h-1.09v-6.35h1.03l.04.8a2.326,2.326,0,0,1,1.9-.92c1.34,0,2.03.76,2.03,2.27v4.19h-1.09v-4.2c-.01-.9-.38-1.34-1.27-1.34"/>
      <path id="fn-9" data-name="fn" d="M549.36,268.19a1.969,1.969,0,0,0,1.67-.86l.66.52a2.659,2.659,0,0,1-2.39,1.23c-1.81,0-2.91-1.37-2.91-3.31a3.266,3.266,0,0,1,1.37-2.85,2.532,2.532,0,0,1,1.41-.42c1.76.01,2.63,1.28,2.61,3.15v.45h-4.3a1.938,1.938,0,0,0,1.88,2.09Zm1.33-2.99c-.02-1.06-.52-1.82-1.53-1.82s-1.55.82-1.65,1.82h3.18"/>
      <path id="fq-8" data-name="fq" d="M555.37,268.19c.71,0,1.36-.29,1.36-.92a.853.853,0,0,0-.33-.69c-.43-.35-1.96-.54-2.46-.84a1.515,1.515,0,0,1-.95-1.4,2.442,2.442,0,0,1,4.77.12h-1.09a1.243,1.243,0,0,0-1.33-1.09c-.68,0-1.26.31-1.26.93a.668.668,0,0,0,.31.59c.45.31,1.94.53,2.44.82a1.561,1.561,0,0,1,.99,1.47c0,1.22-1.14,1.88-2.45,1.88a2.646,2.646,0,0,1-2.26-1.02,1.815,1.815,0,0,1-.33-1.05h1.09c.04.76.68,1.18,1.51,1.18"/>
    </g>
    <path id="Trazado_723537" data-name="Trazado 723537" d="M218.42,346.01a4.626,4.626,0,0,1,4.63-4.63H399.14a4.626,4.626,0,0,1,4.63,4.63v52.52a4.626,4.626,0,0,1-4.63,4.63H223.05a4.626,4.626,0,0,1-4.63-4.63V346.01Z" transform="translate(1868.83 -6499.16)" fill="#00bcd4" stroke="rgba(0,0,0,0)" stroke-width="2.32"/>
    <g id="aI" transform="translate(1868.83 -6499.16)">
      <path id="hu" d="M235.06,368.72a1.451,1.451,0,0,0,1.68-1.53h1.76a3.131,3.131,0,0,1-3.44,2.96c-2.29,0-3.53-1.74-3.53-4.14,0-2.73,1.02-4.59,3.55-4.63a3.135,3.135,0,0,1,3.43,3.02h-1.76c-.09-1.07-.54-1.57-1.67-1.57a1.544,1.544,0,0,0-1.32.63,5.037,5.037,0,0,0-.45,2.6,3.755,3.755,0,0,0,.42,2.02,1.48,1.48,0,0,0,1.32.64"/>
      <path id="fU-11" data-name="fU" d="M242.29,370.16a2.961,2.961,0,0,1-3.01-3.35c.05-1.94,1.07-3.23,3-3.23s3.02,1.36,3.02,3.36a2.962,2.962,0,0,1-3,3.23Zm-.01-5.21c-.99,0-1.3.83-1.3,1.98,0,1.06.36,1.86,1.31,1.86s1.31-.8,1.31-1.98c0-1.04-.38-1.86-1.32-1.86"/>
      <path id="fJ" d="M250.08,365.98c0-.73-.28-1.02-1.01-1.03a1.172,1.172,0,0,0-1.07.61v4.48h-1.7v-6.35h1.6l.05.73a2.2,2.2,0,0,1,1.82-.85c1.43,0,2.01.89,2.01,2.36v4.1h-1.7v-4.06"/>
      <path id="fQ-9" data-name="fQ" d="M255.28,370.16c-1.67,0-2.48-1.49-2.48-3.34s.82-3.23,2.49-3.24a1.938,1.938,0,0,1,1.53.69v-3.24h1.7v9.01h-1.53l-.08-.67a1.989,1.989,0,0,1-1.63.79Zm-.78-3.21c0,1.03.3,1.84,1.21,1.84a1.145,1.145,0,0,0,1.11-.66v-2.5a1.113,1.113,0,0,0-1.1-.66c-.82,0-1.23.66-1.23,1.99"/>
      <path id="fG" d="M261.62,370.04h-1.7v-6.35h1.7Zm-.85-7.11a.887.887,0,0,1-.95-.88.954.954,0,0,1,1.9,0,.887.887,0,0,1-.95.88"/>
      <path id="fH" d="M264.45,366.78c-.01,1.19.18,1.98,1.21,2.01a.968.968,0,0,0,1.07-.94h1.59a2.413,2.413,0,0,1-2.63,2.31c-1.9.02-2.93-1.36-2.93-3.37,0-1.88,1.08-3.21,2.92-3.21a2.433,2.433,0,0,1,2.64,2.48h-1.59a1.048,1.048,0,0,0-1.08-1.11c-.95.04-1.18.72-1.2,1.83"/>
      <path id="fG-2" data-name="fG" d="M271.07,370.04h-1.7v-6.35h1.7Zm-.85-7.11a.887.887,0,0,1-.95-.88.954.954,0,0,1,1.9,0,.887.887,0,0,1-.95.88"/>
      <path id="fU-12" data-name="fU" d="M275.22,370.16a2.961,2.961,0,0,1-3.01-3.35c.05-1.94,1.07-3.23,3-3.23s3.02,1.36,3.02,3.36a2.962,2.962,0,0,1-3,3.23Zm-.01-5.21c-.99,0-1.3.83-1.3,1.98,0,1.06.36,1.86,1.31,1.86s1.31-.8,1.31-1.98c0-1.04-.38-1.86-1.32-1.86"/>
      <path id="fJ-2" data-name="fJ" d="M283.01,365.98c0-.73-.28-1.02-1.01-1.03a1.172,1.172,0,0,0-1.07.61v4.48h-1.7v-6.35h1.6l.05.73a2.2,2.2,0,0,1,1.82-.85c1.43,0,2.01.89,2.01,2.36v4.1h-1.7v-4.06"/>
      <path id="fI" d="M291.39,369.01a2.968,2.968,0,0,1-2.48,1.14,3.018,3.018,0,0,1-3.15-3.3c.07-1.94,1.06-3.28,2.96-3.28s2.83,1.26,2.8,3.15v.69h-4.04a1.485,1.485,0,0,0,1.54,1.37,1.817,1.817,0,0,0,1.53-.71l.83.93Zm-1.53-2.75c.03-.82-.36-1.33-1.14-1.31-.76,0-1.12.57-1.22,1.31h2.36"/>
      <path id="fM" d="M294.94,368.95c.55,0,.99-.19.99-.67a.556.556,0,0,0-.31-.49,3.249,3.249,0,0,0-.99-.32c-1.51-.32-2.26-.96-2.26-1.92,0-1.22,1.19-1.98,2.53-1.98,1.44,0,2.65.73,2.66,2.05h-1.7c-.01-.53-.36-.84-.97-.84-.5,0-.89.24-.9.69a.517.517,0,0,0,.27.45,16.929,16.929,0,0,0,1.97.59,1.778,1.778,0,0,1,1.34,1.71c0,1.75-2.49,2.37-4.08,1.66a2.113,2.113,0,0,1-1.33-1.85h1.61c.03.62.5.93,1.17.93"/>
    </g>
    <g id="aJ" transform="translate(1868.83 -6499.16)">
      <path id="hv" d="M303.87,370.16c-1.68,0-2.48-1.48-2.48-3.35s.82-3.23,2.49-3.23a1.937,1.937,0,0,1,1.62.78l.11-.66h1.49v8.79h-1.7V369.5a1.954,1.954,0,0,1-1.54.66Zm-.79-3.23c0,1.04.31,1.86,1.22,1.86a1.137,1.137,0,0,0,1.1-.62v-2.62a1.206,1.206,0,0,0-2-.12,2.924,2.924,0,0,0-.32,1.51"/>
      <path id="fO-4" data-name="fO" d="M310.51,370.16c-1.41,0-2.11-.86-2.11-2.31v-4.16h1.7v4.1q0,.99.9.99a1.187,1.187,0,0,0,1.18-.6v-4.49h1.7v6.35h-1.6l-.05-.65a2.128,2.128,0,0,1-1.74.76"/>
      <path id="fI-2" data-name="fI" d="M320.56,369.01a2.968,2.968,0,0,1-2.48,1.14,3.018,3.018,0,0,1-3.15-3.3c.07-1.94,1.06-3.28,2.96-3.28s2.83,1.26,2.8,3.15v.69h-4.04a1.485,1.485,0,0,0,1.54,1.37,1.817,1.817,0,0,0,1.53-.71l.83.93Zm-1.53-2.75c.03-.82-.36-1.33-1.14-1.31-.76,0-1.12.57-1.22,1.31h2.36"/>
    </g>
    <g id="aK" transform="translate(1868.83 -6499.16)">
      <path id="fS-5" data-name="fS" d="M327.89,363.58c1.73,0,2.48,1.47,2.48,3.35,0,1.76-.83,3.22-2.46,3.23a1.951,1.951,0,0,1-1.55-.67v2.99h-1.7v-8.79h1.57l.06.62a1.993,1.993,0,0,1,1.61-.74Zm.78,3.23c0-1.03-.31-1.85-1.23-1.85a1.127,1.127,0,0,0-1.1.61v2.6a1.125,1.125,0,0,0,1.11.63c.81,0,1.21-.66,1.21-1.99"/>
      <path id="fP-14" data-name="fP" d="M334.98,365.28c-.84-.14-1.64,0-1.87.6v4.15h-1.7v-6.35h1.6l.05.76a1.584,1.584,0,0,1,1.94-.8"/>
      <path id="fI-3" data-name="fI" d="M341.08,369.01a2.968,2.968,0,0,1-2.48,1.14,3.018,3.018,0,0,1-3.15-3.3c.07-1.94,1.06-3.28,2.96-3.28s2.83,1.26,2.8,3.15v.69h-4.04a1.485,1.485,0,0,0,1.54,1.37,1.817,1.817,0,0,0,1.53-.71l.83.93Zm-1.53-2.75c.03-.82-.36-1.33-1.14-1.31-.76,0-1.12.57-1.22,1.31h2.36"/>
      <path id="fQ-10" data-name="fQ" d="M344.39,370.16c-1.67,0-2.48-1.49-2.48-3.34s.82-3.23,2.49-3.24a1.938,1.938,0,0,1,1.53.69v-3.24h1.7v9.01H346.1l-.08-.67a1.989,1.989,0,0,1-1.63.79Zm-.78-3.21c0,1.03.3,1.84,1.21,1.84a1.145,1.145,0,0,0,1.11-.66v-2.5a1.113,1.113,0,0,0-1.1-.66c-.82,0-1.23.66-1.23,1.99"/>
      <path id="fG-3" data-name="fG" d="M350.74,370.04h-1.7v-6.35h1.7Zm-.85-7.11a.887.887,0,0,1-.95-.88.954.954,0,0,1,1.9,0,.887.887,0,0,1-.95.88"/>
      <path id="fM-2" data-name="fM" d="M354.59,368.95c.55,0,.99-.19.99-.67a.556.556,0,0,0-.31-.49,3.249,3.249,0,0,0-.99-.32c-1.51-.32-2.26-.96-2.26-1.92,0-1.22,1.19-1.98,2.53-1.98,1.44,0,2.65.73,2.66,2.05h-1.7c-.01-.53-.36-.84-.97-.84-.5,0-.89.24-.9.69a.517.517,0,0,0,.27.45,16.929,16.929,0,0,0,1.97.59,1.778,1.778,0,0,1,1.34,1.71c0,1.75-2.49,2.37-4.08,1.66a2.113,2.113,0,0,1-1.33-1.85h1.61c.03.62.5.93,1.17.93"/>
      <path id="fS-6" data-name="fS" d="M361.55,363.58c1.73,0,2.48,1.47,2.48,3.35,0,1.76-.83,3.22-2.46,3.23a1.951,1.951,0,0,1-1.55-.67v2.99h-1.7v-8.79h1.57l.06.62a1.993,1.993,0,0,1,1.61-.74Zm.78,3.23c0-1.03-.31-1.85-1.23-1.85a1.127,1.127,0,0,0-1.1.61v2.6a1.125,1.125,0,0,0,1.11.63c.81,0,1.21-.66,1.21-1.99"/>
      <path id="fU-13" data-name="fU" d="M367.82,370.16a2.961,2.961,0,0,1-3.01-3.35c.05-1.94,1.07-3.23,3-3.23s3.02,1.36,3.02,3.36a2.962,2.962,0,0,1-3,3.23Zm-.01-5.21c-.99,0-1.3.83-1.3,1.98,0,1.06.36,1.86,1.31,1.86s1.31-.8,1.31-1.98c0-1.04-.38-1.86-1.32-1.86"/>
      <path id="fJ-3" data-name="fJ" d="M375.62,365.98c0-.73-.28-1.02-1.01-1.03a1.172,1.172,0,0,0-1.07.61v4.48h-1.7v-6.35h1.6l.05.73a2.2,2.2,0,0,1,1.82-.85c1.43,0,2.01.89,2.01,2.36v4.1h-1.7v-4.06"/>
      <path id="fI-4" data-name="fI" d="M383.99,369.01a2.968,2.968,0,0,1-2.48,1.14,3.018,3.018,0,0,1-3.15-3.3c.07-1.94,1.06-3.28,2.96-3.28s2.83,1.26,2.8,3.15v.69h-4.04a1.485,1.485,0,0,0,1.54,1.37,1.817,1.817,0,0,0,1.53-.71l.83.93Zm-1.53-2.75c.03-.82-.36-1.33-1.14-1.31-.76,0-1.12.57-1.22,1.31h2.36"/>
      <path id="fJ-4" data-name="fJ" d="M388.84,365.98c0-.73-.28-1.02-1.01-1.03a1.172,1.172,0,0,0-1.07.61v4.48h-1.7v-6.35h1.6l.05.73a2.2,2.2,0,0,1,1.82-.85c1.43,0,2.01.89,2.01,2.36v4.1h-1.7v-4.06"/>
    </g>
    <g id="aL" transform="translate(1868.83 -6499.16)">
      <path id="fK" d="M235.7,377.65a2.231,2.231,0,0,1,2.55,2.25v2.75a3.068,3.068,0,0,0,.25,1.37v.1h-1.71a1.925,1.925,0,0,1-.17-.57,2.038,2.038,0,0,1-1.6.69,2,2,0,0,1-2.16-1.9c.03-1.51,1.24-2.09,2.91-2.09h.78c.06-.8-.17-1.33-.94-1.33-.53,0-.92.26-.92.77h-1.7c.09-1.36,1.25-2.01,2.7-2.02Zm-1.14,4.56a.749.749,0,0,0,.83.73,1.279,1.279,0,0,0,1.16-.62v-1.09h-.63c-.89.01-1.36.3-1.36.98"/>
    </g>
    <g id="aM" transform="translate(1868.83 -6499.16)">
      <path id="fP-15" data-name="fP" d="M246.12,379.36c-.84-.14-1.64,0-1.87.6v4.15h-1.7v-6.35h1.6l.05.76a1.584,1.584,0,0,1,1.94-.8"/>
      <path id="fI-5" data-name="fI" d="M252.22,383.09a2.968,2.968,0,0,1-2.48,1.14,3.018,3.018,0,0,1-3.15-3.3c.07-1.94,1.06-3.28,2.96-3.28s2.83,1.26,2.8,3.15v.69h-4.04a1.485,1.485,0,0,0,1.54,1.37,1.817,1.817,0,0,0,1.53-.71l.83.93Zm-1.53-2.75c.03-.82-.36-1.33-1.14-1.31-.76,0-1.12.57-1.22,1.31h2.36"/>
      <path id="fK-2" data-name="fK" d="M255.9,377.65a2.231,2.231,0,0,1,2.55,2.25v2.75a3.068,3.068,0,0,0,.25,1.37v.1h-1.71a1.926,1.926,0,0,1-.17-.57,2.038,2.038,0,0,1-1.6.69,2,2,0,0,1-2.16-1.9c.03-1.51,1.24-2.09,2.91-2.09h.78c.06-.8-.17-1.33-.94-1.33-.53,0-.92.26-.92.77h-1.7c.09-1.36,1.25-2.01,2.7-2.02Zm-1.14,4.56a.749.749,0,0,0,.83.73,1.279,1.279,0,0,0,1.16-.62v-1.09h-.63c-.89.01-1.36.3-1.36.98"/>
      <path id="hw" d="M261.54,384.12h-1.7v-9.01h1.7v9.01"/>
      <path id="fG-4" data-name="fG" d="M264.73,384.12h-1.7v-6.35h1.7Zm-.85-7.11a.887.887,0,0,1-.95-.88.954.954,0,0,1,1.9,0,.887.887,0,0,1-.95.88"/>
      <path id="hx" d="M268.07,382.75h3.1v1.37H265.9v-1.03l2.99-3.94h-2.9v-1.37h5.09v1"/>
      <path id="fK-3" data-name="fK" d="M274.83,377.65a2.231,2.231,0,0,1,2.55,2.25v2.75a3.068,3.068,0,0,0,.25,1.37v.1h-1.71a1.926,1.926,0,0,1-.17-.57,2.038,2.038,0,0,1-1.6.69,2,2,0,0,1-2.16-1.9c.03-1.51,1.24-2.09,2.91-2.09h.78c.06-.8-.17-1.33-.94-1.33-.53,0-.92.26-.92.77h-1.7c.09-1.36,1.25-2.01,2.7-2.02Zm-1.14,4.56a.749.749,0,0,0,.83.73,1.279,1.279,0,0,0,1.16-.62v-1.09h-.63c-.89.01-1.36.3-1.36.98"/>
      <path id="fP-16" data-name="fP" d="M282.25,379.36c-.84-.14-1.64,0-1.87.6v4.15h-1.7v-6.35h1.6l.05.76a1.584,1.584,0,0,1,1.94-.8"/>
    </g>
    <g id="aN" transform="translate(1868.83 -6499.16)">
      <path id="fK-4" data-name="fK" d="M288.64,377.65a2.231,2.231,0,0,1,2.55,2.25v2.75a3.068,3.068,0,0,0,.25,1.37v.1h-1.71a1.926,1.926,0,0,1-.17-.57,2.038,2.038,0,0,1-1.6.69,2,2,0,0,1-2.16-1.9c.03-1.51,1.24-2.09,2.91-2.09h.78c.06-.8-.17-1.33-.94-1.33-.53,0-.92.26-.92.77h-1.7c.09-1.36,1.25-2.01,2.7-2.02Zm-1.14,4.56a.749.749,0,0,0,.83.73,1.279,1.279,0,0,0,1.16-.62v-1.09h-.63c-.89.01-1.36.3-1.36.98"/>
      <path id="fH-2" data-name="fH" d="M293.93,380.86c-.01,1.19.18,1.98,1.21,2.01a.968.968,0,0,0,1.07-.94h1.59a2.413,2.413,0,0,1-2.63,2.31c-1.9.02-2.93-1.36-2.93-3.37,0-1.88,1.08-3.21,2.92-3.21a2.433,2.433,0,0,1,2.64,2.48h-1.59a1.048,1.048,0,0,0-1.08-1.11c-.95.04-1.18.72-1.2,1.83"/>
      <path id="fH-3" data-name="fH" d="M300.19,380.86c-.01,1.19.18,1.98,1.21,2.01a.968.968,0,0,0,1.07-.94h1.59a2.413,2.413,0,0,1-2.63,2.31c-1.9.02-2.93-1.36-2.93-3.37,0-1.88,1.08-3.21,2.92-3.21a2.433,2.433,0,0,1,2.64,2.48h-1.59a1.048,1.048,0,0,0-1.08-1.11c-.95.04-1.18.72-1.2,1.83"/>
      <path id="fG-5" data-name="fG" d="M306.81,384.12h-1.7v-6.35h1.7Zm-.85-7.11a.887.887,0,0,1-.95-.88.954.954,0,0,1,1.9,0,.887.887,0,0,1-.95.88"/>
      <path id="fU-14" data-name="fU" d="M310.96,384.24a2.961,2.961,0,0,1-3.01-3.35c.05-1.94,1.07-3.23,3-3.23s3.02,1.36,3.02,3.36a2.962,2.962,0,0,1-3,3.23Zm-.01-5.21c-.99,0-1.3.83-1.3,1.98,0,1.06.36,1.86,1.31,1.86s1.31-.8,1.31-1.98c0-1.04-.38-1.86-1.32-1.86"/>
      <path id="fJ-5" data-name="fJ" d="M318.75,380.06c0-.73-.28-1.02-1.01-1.03a1.172,1.172,0,0,0-1.07.61v4.48h-1.7v-6.35h1.6l.05.73a2.2,2.2,0,0,1,1.82-.85c1.43,0,2.01.89,2.01,2.36v4.1h-1.7v-4.06"/>
      <path id="fI-6" data-name="fI" d="M327.13,383.09a2.968,2.968,0,0,1-2.48,1.14,3.018,3.018,0,0,1-3.15-3.3c.07-1.94,1.06-3.28,2.96-3.28s2.83,1.26,2.8,3.15v.69h-4.04a1.485,1.485,0,0,0,1.54,1.37,1.817,1.817,0,0,0,1.53-.71l.83.93Zm-1.53-2.75c.03-.82-.36-1.33-1.14-1.31-.76,0-1.12.57-1.22,1.31h2.36"/>
      <path id="fM-3" data-name="fM" d="M330.68,383.03c.55,0,.99-.19.99-.67a.556.556,0,0,0-.31-.49,3.249,3.249,0,0,0-.99-.32c-1.51-.32-2.26-.96-2.26-1.92,0-1.22,1.19-1.98,2.53-1.98,1.44,0,2.65.73,2.66,2.05h-1.7c-.01-.53-.36-.84-.97-.84-.5,0-.89.24-.9.69a.517.517,0,0,0,.27.45,16.929,16.929,0,0,0,1.97.59,1.778,1.778,0,0,1,1.34,1.71c0,1.75-2.49,2.37-4.08,1.66a2.113,2.113,0,0,1-1.33-1.85h1.61c.03.62.5.93,1.17.93"/>
    </g>
    <g id="aO" transform="translate(1868.83 -6499.16)">
      <path id="fG-6" data-name="fG" d="M339.18,384.12h-1.7v-6.35h1.7Zm-.85-7.11a.887.887,0,0,1-.95-.88.954.954,0,0,1,1.9,0,.887.887,0,0,1-.95.88"/>
      <path id="fJ-6" data-name="fJ" d="M344.33,380.06c0-.73-.28-1.02-1.01-1.03a1.172,1.172,0,0,0-1.07.61v4.48h-1.7v-6.35h1.6l.05.73a2.2,2.2,0,0,1,1.82-.85c1.43,0,2.01.89,2.01,2.36v4.1h-1.7v-4.06"/>
      <path id="fM-4" data-name="fM" d="M349.76,383.03c.55,0,.99-.19.99-.67a.556.556,0,0,0-.31-.49,3.249,3.249,0,0,0-.99-.32c-1.51-.32-2.26-.96-2.26-1.92,0-1.22,1.19-1.98,2.53-1.98,1.44,0,2.65.73,2.66,2.05h-1.7c-.01-.53-.36-.84-.97-.84-.5,0-.89.24-.9.69a.517.517,0,0,0,.27.45,16.929,16.929,0,0,0,1.97.59,1.778,1.778,0,0,1,1.34,1.71c0,1.75-2.49,2.37-4.08,1.66a2.113,2.113,0,0,1-1.33-1.85h1.61c.03.62.5.93,1.17.93"/>
      <path id="fI-7" data-name="fI" d="M358.88,383.09a2.968,2.968,0,0,1-2.48,1.14,3.018,3.018,0,0,1-3.15-3.3c.07-1.94,1.06-3.28,2.96-3.28s2.83,1.26,2.8,3.15v.69h-4.04a1.485,1.485,0,0,0,1.54,1.37,1.817,1.817,0,0,0,1.53-.71l.83.93Zm-1.53-2.75c.03-.82-.36-1.33-1.14-1.31-.76,0-1.12.57-1.22,1.31h2.36"/>
      <path id="fN-10" data-name="fN" d="M362.29,384.24c-1.67-.01-2.56-1.52-2.56-3.34s.9-3.24,2.57-3.24a1.946,1.946,0,0,1,1.62.72l.07-.6h1.54v6.14c-.05,1.79-1.22,2.69-3.05,2.71a3.152,3.152,0,0,1-2.36-1l.75-1.03a1.956,1.956,0,0,0,1.54.71c1.01,0,1.53-.63,1.43-1.72a1.954,1.954,0,0,1-1.54.66Zm.45-5.2c-.97,0-1.31.86-1.31,1.99,0,1.01.39,1.84,1.3,1.84a1.167,1.167,0,0,0,1.11-.58v-2.67a1.172,1.172,0,0,0-1.1-.58"/>
      <path id="fO-5" data-name="fO" d="M368.9,384.24c-1.41,0-2.11-.86-2.11-2.31v-4.16h1.7v4.1q0,.99.9.99a1.187,1.187,0,0,0,1.18-.6v-4.49h1.7v6.35h-1.6l-.05-.65a2.128,2.128,0,0,1-1.74.76"/>
      <path id="fP-17" data-name="fP" d="M377.13,379.36c-.84-.14-1.64,0-1.87.6v4.15h-1.7v-6.35h1.6l.05.76a1.584,1.584,0,0,1,1.94-.8"/>
      <path id="fK-5" data-name="fK" d="M380.35,377.65a2.231,2.231,0,0,1,2.55,2.25v2.75a3.068,3.068,0,0,0,.25,1.37v.1h-1.71a1.926,1.926,0,0,1-.17-.57,2.038,2.038,0,0,1-1.6.69,2,2,0,0,1-2.16-1.9c.03-1.51,1.24-2.09,2.91-2.09h.78c.06-.8-.17-1.33-.94-1.33-.53,0-.92.26-.92.77h-1.7c.09-1.36,1.25-2.01,2.7-2.02Zm-1.14,4.56a.749.749,0,0,0,.83.73,1.279,1.279,0,0,0,1.16-.62v-1.09h-.63c-.89.01-1.36.3-1.36.98"/>
      <path id="fM-5" data-name="fM" d="M386.66,383.03c.55,0,.99-.19.99-.67a.556.556,0,0,0-.31-.49,3.249,3.249,0,0,0-.99-.32c-1.51-.32-2.26-.96-2.26-1.92,0-1.22,1.19-1.98,2.53-1.98,1.44,0,2.65.73,2.66,2.05h-1.7c-.01-.53-.36-.84-.97-.84-.5,0-.89.24-.9.69a.517.517,0,0,0,.27.45,16.929,16.929,0,0,0,1.97.59,1.778,1.778,0,0,1,1.34,1.71c0,1.75-2.49,2.37-4.08,1.66a2.113,2.113,0,0,1-1.33-1.85h1.61c.03.62.5.93,1.17.93"/>
    </g>
    <path id="Trazado_723538" data-name="Trazado 723538" d="M435.29,346.01a4.626,4.626,0,0,1,4.63-4.63H616.01a4.626,4.626,0,0,1,4.63,4.63v52.52a4.626,4.626,0,0,1-4.63,4.63H439.92a4.626,4.626,0,0,1-4.63-4.63Z" transform="translate(1868.83 -6499.16)" fill="#4cebff" stroke="rgba(0,0,0,0)" stroke-width="2.32"/>
    <g id="aP" transform="translate(1868.83 -6499.16)">
      <path id="hy" d="M497.19,372.05h-3.38v3.49h-1.76V367h5.56v1.43h-3.8v2.21h3.38v1.42"/>
      <path id="fK-6" data-name="fK" d="M500.91,369.08a2.231,2.231,0,0,1,2.55,2.25v2.75a3.068,3.068,0,0,0,.25,1.37v.1H502a1.926,1.926,0,0,1-.17-.57,2.038,2.038,0,0,1-1.6.69,2,2,0,0,1-2.16-1.9c.03-1.51,1.24-2.09,2.91-2.09h.78c.06-.8-.17-1.33-.94-1.33-.53,0-.92.26-.92.77h-1.7c.09-1.36,1.25-2.01,2.7-2.02Zm-1.14,4.56a.749.749,0,0,0,.83.73,1.279,1.279,0,0,0,1.16-.62v-1.09h-.63c-.89.01-1.36.3-1.36.98"/>
      <path id="hw-2" data-name="hw" d="M506.56,375.54h-1.7v-9.01h1.7v9.01"/>
      <path id="hw-3" data-name="hw" d="M509.74,375.54h-1.7v-9.01h1.7v9.01"/>
      <path id="fK-7" data-name="fK" d="M513.73,369.08a2.231,2.231,0,0,1,2.55,2.25v2.75a3.069,3.069,0,0,0,.25,1.37v.1h-1.71a1.924,1.924,0,0,1-.17-.57,2.038,2.038,0,0,1-1.6.69,2,2,0,0,1-2.16-1.9c.03-1.51,1.24-2.09,2.91-2.09h.78c.06-.8-.17-1.33-.94-1.33-.53,0-.92.26-.92.77h-1.7c.09-1.36,1.25-2.01,2.7-2.02Zm-1.14,4.56a.749.749,0,0,0,.83.73,1.279,1.279,0,0,0,1.16-.62v-1.09h-.63c-.89.01-1.36.3-1.36.98"/>
      <path id="fM-6" data-name="fM" d="M520.03,374.46c.55,0,.99-.19.99-.67a.556.556,0,0,0-.31-.49,3.249,3.249,0,0,0-.99-.32c-1.51-.32-2.26-.96-2.26-1.92,0-1.22,1.19-1.98,2.53-1.98,1.44,0,2.65.73,2.66,2.05h-1.7c-.01-.53-.36-.84-.97-.84-.5,0-.89.24-.9.69a.517.517,0,0,0,.27.45,16.93,16.93,0,0,0,1.97.59,1.778,1.778,0,0,1,1.34,1.71c0,1.75-2.49,2.37-4.08,1.66a2.113,2.113,0,0,1-1.33-1.85h1.61c.03.62.5.93,1.17.93"/>
    </g>
    <g id="aQ" transform="translate(1868.83 -6499.16)">
      <path id="fK-8" data-name="fK" d="M529.34,369.08a2.231,2.231,0,0,1,2.55,2.25v2.75a3.069,3.069,0,0,0,.25,1.37v.1h-1.71a1.924,1.924,0,0,1-.17-.57,2.038,2.038,0,0,1-1.6.69,2,2,0,0,1-2.16-1.9c.03-1.51,1.24-2.09,2.91-2.09h.78c.06-.8-.17-1.33-.94-1.33-.53,0-.92.26-.92.77h-1.7c.09-1.36,1.25-2.01,2.7-2.02Zm-1.14,4.56a.749.749,0,0,0,.83.73,1.279,1.279,0,0,0,1.16-.62v-1.09h-.63c-.89.01-1.36.3-1.36.98"/>
      <path id="fH-4" data-name="fH" d="M534.62,372.28c-.01,1.19.18,1.98,1.21,2.01a.968.968,0,0,0,1.07-.94h1.59a2.413,2.413,0,0,1-2.63,2.31c-1.9.02-2.93-1.36-2.93-3.37,0-1.88,1.08-3.21,2.92-3.21a2.433,2.433,0,0,1,2.64,2.48H536.9a1.048,1.048,0,0,0-1.08-1.11c-.95.04-1.18.72-1.2,1.83"/>
      <path id="gb" d="M541.48,373.61c.01.49.15.65.65.66a2.533,2.533,0,0,0,.5-.04v1.28a3.515,3.515,0,0,1-1.03.15,1.609,1.609,0,0,1-1.82-1.8v-3.42h-.93V369.2h.93v-1.56h1.7v1.56h1.09v1.24h-1.09v3.17"/>
      <path id="fG-7" data-name="fG" d="M545.3,375.54h-1.7v-6.35h1.7Zm-.85-7.11a.887.887,0,0,1-.95-.88.954.954,0,0,1,1.9,0,.887.887,0,0,1-.95.88"/>
      <path id="gc" d="M549.08,373.47l1.18-4.28h1.77l-2.14,6.35h-1.62l-2.14-6.35h1.77"/>
      <path id="fK-9" data-name="fK" d="M555.27,369.08a2.231,2.231,0,0,1,2.55,2.25v2.75a3.069,3.069,0,0,0,.25,1.37v.1h-1.71a1.924,1.924,0,0,1-.17-.57,2.038,2.038,0,0,1-1.6.69,2,2,0,0,1-2.16-1.9c.03-1.51,1.24-2.09,2.91-2.09h.78c.06-.8-.17-1.33-.94-1.33-.53,0-.92.26-.92.77h-1.7c.09-1.36,1.25-2.01,2.7-2.02Zm-1.14,4.56a.749.749,0,0,0,.83.73,1.279,1.279,0,0,0,1.16-.62v-1.09h-.63c-.89.01-1.36.3-1.36.98"/>
      <path id="fM-7" data-name="fM" d="M561.58,374.46c.55,0,.99-.19.99-.67a.556.556,0,0,0-.31-.49,3.249,3.249,0,0,0-.99-.32c-1.51-.32-2.26-.96-2.26-1.92,0-1.22,1.19-1.98,2.53-1.98,1.44,0,2.65.73,2.66,2.05h-1.7c-.01-.53-.36-.84-.97-.84-.5,0-.89.24-.9.69a.517.517,0,0,0,.27.45,16.93,16.93,0,0,0,1.97.59,1.778,1.778,0,0,1,1.34,1.71c0,1.75-2.49,2.37-4.08,1.66a2.113,2.113,0,0,1-1.33-1.85h1.61c.03.62.5.93,1.17.93"/>
    </g>
    <path id="Trazado_723539" data-name="Trazado 723539" d="M17.61,98.86a4.626,4.626,0,0,1,4.63-4.63h145.2a4.626,4.626,0,0,1,4.63,4.63v83.41a4.626,4.626,0,0,1-4.63,4.63H22.25a4.626,4.626,0,0,1-4.63-4.63h0V98.86Z" transform="translate(1868.83 -6499.16)" fill="#fff" stroke="#7e5ee3" stroke-width="1.54"/>
    <g id="aR" transform="translate(1868.83 -6499.16)">
      <path id="hz" d="M56.79,133.49c.1,2.82-1.21,4.48-3.81,4.56H50.62v-8.54h2.41c2.39.05,3.68,1.58,3.77,3.98Zm-1.11.02c.02-1.83-.87-3.06-2.62-3.08H51.75v6.69h1.18c1.81,0,2.77-1.23,2.75-3.11v-.5"/>
      <path id="fn-11" data-name="fn" d="M61.01,137.28a1.969,1.969,0,0,0,1.67-.86l.66.52a2.659,2.659,0,0,1-2.39,1.23c-1.81,0-2.91-1.37-2.91-3.31a3.266,3.266,0,0,1,1.37-2.85,2.532,2.532,0,0,1,1.41-.42c1.76.01,2.63,1.28,2.61,3.15v.45h-4.3a1.938,1.938,0,0,0,1.88,2.09Zm1.33-2.99c-.02-1.06-.52-1.82-1.53-1.82s-1.55.82-1.65,1.82h3.18"/>
      <path id="fr-3" data-name="fr" d="M66.54,138.17c-1,0-1.47-.66-1.47-1.69v-3.94H63.91v-.84h1.16v-1.54h1.09v1.54h1.18v.84H66.16v3.94c-.05.73.54.87,1.21.69v.88a3.084,3.084,0,0,1-.83.12"/>
      <path id="fn-12" data-name="fn" d="M71.3,137.28a1.969,1.969,0,0,0,1.67-.86l.66.52a2.659,2.659,0,0,1-2.39,1.23c-1.81,0-2.91-1.37-2.91-3.31a3.266,3.266,0,0,1,1.37-2.85,2.532,2.532,0,0,1,1.41-.42c1.76.01,2.63,1.28,2.61,3.15v.45h-4.3a1.938,1.938,0,0,0,1.88,2.09Zm1.33-2.99c-.02-1.06-.52-1.82-1.53-1.82s-1.55.82-1.65,1.82h3.18"/>
      <path id="fs-7" data-name="fs" d="M78.04,132.68c-.96-.16-1.69.11-1.98.87v4.51H74.97v-6.35h1.06l.02.73a1.686,1.686,0,0,1,1.51-.85,1.19,1.19,0,0,1,.48.08v1.01"/>
      <path id="hr-2" data-name="hr" d="M85.49,132.51a1.372,1.372,0,0,0-1.47,1.33v4.21H82.93v-4.16a1.21,1.21,0,0,0-1.36-1.38,1.46,1.46,0,0,0-1.46.91v4.63H79.02V131.7h1.03l.03.7a2.322,2.322,0,0,1,1.88-.82,1.808,1.808,0,0,1,1.81,1.02,2.372,2.372,0,0,1,2.02-1.02,1.925,1.925,0,0,1,2.12,2.21v4.25H86.82v-4.19c-.01-.93-.39-1.36-1.36-1.36"/>
      <path id="fp-18" data-name="fp" d="M90.75,138.05H89.66V131.7h1.09Zm-.53-7.41a.593.593,0,0,1-.64-.62.646.646,0,1,1,.64.62"/>
      <path id="fv-13" data-name="fv" d="M95.12,132.51a1.714,1.714,0,0,0-1.55,1.02v4.52H92.48V131.7h1.03l.04.8a2.326,2.326,0,0,1,1.9-.92c1.34,0,2.03.76,2.03,2.27v4.19H96.39v-4.2c-.01-.9-.38-1.34-1.27-1.34"/>
      <path id="fu-15" data-name="fu" d="M101.58,131.59a2.055,2.055,0,0,1,2.36,2.06v2.92a3.777,3.777,0,0,0,.22,1.39v.09h-1.14a2.391,2.391,0,0,1-.15-.67,2.44,2.44,0,0,1-1.81.79,1.966,1.966,0,0,1-2.14-1.88c.02-1.47,1.26-2.11,2.87-2.09h1.06v-.5a1.181,1.181,0,0,0-1.34-1.24c-.67,0-1.36.39-1.37,1H99.05c.12-1.2,1.21-1.85,2.52-1.88Zm-1.57,4.55a1.1,1.1,0,0,0,1.21,1.09,1.9,1.9,0,0,0,1.63-.95v-1.3H102c-1.33,0-1.99.39-1.99,1.17"/>
      <path id="gY-10" data-name="gY" d="M106.45,134.79c0,1.43.45,2.46,1.74,2.49a1.458,1.458,0,0,0,1.5-1.23h1.03a2.4,2.4,0,0,1-2.52,2.12c-1.85,0-2.89-1.42-2.83-3.41.06-1.87.96-3.13,2.82-3.17a2.388,2.388,0,0,1,2.53,2.3h-1.03a1.474,1.474,0,0,0-1.5-1.41c-1.23.02-1.74.97-1.74,2.32"/>
      <path id="fp-19" data-name="fp" d="M113.12,138.05h-1.09V131.7h1.09Zm-.53-7.41a.593.593,0,0,1-.64-.62.646.646,0,1,1,.64.62"/>
      <path id="ft-13" data-name="ft" d="M117.46,138.17c-1.8.04-2.95-1.45-2.89-3.35.06-1.88,1.03-3.2,2.88-3.23,1.81-.03,2.95,1.45,2.9,3.36C120.3,136.84,119.32,138.14,117.46,138.17Zm-.01-5.69c-1.22,0-1.79,1.09-1.79,2.47,0,1.27.62,2.33,1.8,2.33,1.24,0,1.8-1.09,1.8-2.46,0-1.26-.64-2.34-1.81-2.34"/>
      <path id="fv-14" data-name="fv" d="M124.34,132.51a1.714,1.714,0,0,0-1.55,1.02v4.52H121.7V131.7h1.03l.04.8a2.326,2.326,0,0,1,1.9-.92c1.34,0,2.03.76,2.03,2.27v4.19h-1.09v-4.2c-.01-.9-.38-1.34-1.27-1.34"/>
      <path id="fn-13" data-name="fn" d="M131.03,137.28a1.969,1.969,0,0,0,1.67-.86l.66.52a2.659,2.659,0,0,1-2.39,1.23c-1.81,0-2.91-1.37-2.91-3.31a3.266,3.266,0,0,1,1.37-2.85,2.532,2.532,0,0,1,1.41-.42c1.76.01,2.63,1.28,2.61,3.15v.45h-4.3a1.938,1.938,0,0,0,1.88,2.09Zm1.33-2.99c-.02-1.06-.52-1.82-1.53-1.82s-1.55.82-1.65,1.82h3.18"/>
      <path id="fq-11" data-name="fq" d="M137.03,137.28c.71,0,1.36-.29,1.36-.92a.853.853,0,0,0-.33-.69c-.43-.35-1.96-.54-2.46-.84a1.515,1.515,0,0,1-.95-1.4,2.442,2.442,0,0,1,4.77.12h-1.09a1.243,1.243,0,0,0-1.33-1.09c-.68,0-1.26.31-1.26.93a.668.668,0,0,0,.31.59c.45.31,1.94.53,2.44.82a1.561,1.561,0,0,1,.99,1.47c0,1.22-1.14,1.88-2.45,1.88a2.646,2.646,0,0,1-2.26-1.02,1.815,1.815,0,0,1-.33-1.05h1.09c.04.76.68,1.18,1.51,1.18"/>
    </g>
    <g id="aS-2" data-name="aS" transform="translate(1868.83 -6499.16)">
      <path id="fo-6" data-name="fo" d="M71.93,152.25c-1.65,0-2.49-1.52-2.49-3.34s.86-3.24,2.5-3.24a2.2,2.2,0,0,1,1.81.82l.05-.7h.99v6.19a2.489,2.489,0,0,1-2.69,2.65,2.916,2.916,0,0,1-2.35-1.1l.56-.65a2.121,2.121,0,0,0,1.71.86,1.547,1.547,0,0,0,1.68-1.7v-.55a2.233,2.233,0,0,1-1.78.75Zm.28-5.66c-1.23,0-1.68,1.04-1.68,2.44,0,1.27.5,2.3,1.67,2.3a1.6,1.6,0,0,0,1.51-.93v-2.9a1.618,1.618,0,0,0-1.5-.91"/>
      <path id="fn-14" data-name="fn" d="M79.13,151.36a1.969,1.969,0,0,0,1.67-.86l.66.52a2.659,2.659,0,0,1-2.39,1.23c-1.81,0-2.91-1.37-2.91-3.31a3.266,3.266,0,0,1,1.37-2.85,2.532,2.532,0,0,1,1.41-.42c1.76.01,2.63,1.28,2.61,3.15v.45h-4.3a1.938,1.938,0,0,0,1.88,2.09Zm1.33-2.99c-.02-1.06-.52-1.82-1.53-1.82s-1.55.82-1.65,1.82h3.18"/>
      <path id="fv-15" data-name="fv" d="M85.44,146.59a1.714,1.714,0,0,0-1.55,1.02v4.52H82.8v-6.35h1.03l.04.8a2.326,2.326,0,0,1,1.9-.92c1.34,0,2.03.76,2.03,2.27v4.19H86.71v-4.2c-.01-.9-.38-1.34-1.27-1.34"/>
      <path id="fn-15" data-name="fn" d="M92.12,151.36a1.969,1.969,0,0,0,1.67-.86l.66.52a2.659,2.659,0,0,1-2.39,1.23c-1.81,0-2.91-1.37-2.91-3.31a3.266,3.266,0,0,1,1.37-2.85,2.532,2.532,0,0,1,1.41-.42c1.76.01,2.63,1.28,2.61,3.15v.45h-4.3a1.938,1.938,0,0,0,1.88,2.09Zm1.33-2.99c-.02-1.06-.52-1.82-1.53-1.82s-1.55.82-1.65,1.82h3.18"/>
      <path id="fs-8" data-name="fs" d="M98.86,146.76c-.96-.16-1.69.11-1.98.87v4.51H95.79v-6.35h1.06l.02.73a1.686,1.686,0,0,1,1.51-.85,1.19,1.19,0,0,1,.48.08v1.01"/>
      <path id="fu-16" data-name="fu" d="M102.1,145.66a2.055,2.055,0,0,1,2.36,2.06v2.92a3.777,3.777,0,0,0,.22,1.39v.09h-1.14a2.391,2.391,0,0,1-.15-.67,2.44,2.44,0,0,1-1.81.79,1.966,1.966,0,0,1-2.14-1.88c.02-1.47,1.26-2.11,2.87-2.09h1.06v-.5a1.181,1.181,0,0,0-1.34-1.24c-.67,0-1.36.39-1.37,1H99.57c.12-1.2,1.21-1.85,2.52-1.88Zm-1.57,4.55a1.1,1.1,0,0,0,1.21,1.09,1.9,1.9,0,0,0,1.63-.95v-1.3h-.85c-1.33,0-1.99.39-1.99,1.17"/>
      <path id="ha-4" data-name="ha" d="M107.34,152.13h-1.09v-9.01h1.09v9.01"/>
      <path id="fn-16" data-name="fn" d="M111.77,151.36a1.969,1.969,0,0,0,1.67-.86l.66.52a2.659,2.659,0,0,1-2.39,1.23c-1.81,0-2.91-1.37-2.91-3.31a3.266,3.266,0,0,1,1.37-2.85,2.532,2.532,0,0,1,1.41-.42c1.76.01,2.63,1.28,2.61,3.15v.45h-4.3a1.938,1.938,0,0,0,1.88,2.09Zm1.33-2.99c-.02-1.06-.52-1.82-1.53-1.82s-1.55.82-1.65,1.82h3.18"/>
      <path id="fq-12" data-name="fq" d="M117.78,151.36c.71,0,1.36-.29,1.36-.92a.853.853,0,0,0-.33-.69c-.43-.35-1.96-.54-2.46-.84a1.515,1.515,0,0,1-.95-1.4,2.442,2.442,0,0,1,4.77.12h-1.09a1.243,1.243,0,0,0-1.33-1.09c-.68,0-1.26.31-1.26.93a.668.668,0,0,0,.31.59c.45.31,1.94.53,2.44.82a1.561,1.561,0,0,1,.99,1.47c0,1.22-1.14,1.88-2.45,1.88a2.646,2.646,0,0,1-2.26-1.02,1.815,1.815,0,0,1-.33-1.05h1.09c.04.76.68,1.18,1.51,1.18"/>
    </g>
    <path id="Trazado_723540" data-name="Trazado 723540" d="M233.87,282.93a4.626,4.626,0,0,1,4.63-4.63H383.7a4.626,4.626,0,0,1,4.63,4.63v21.63a4.626,4.626,0,0,1-4.63,4.63H238.5a4.626,4.626,0,0,1-4.63-4.63V282.93Z" transform="translate(1868.83 -6499.16)" fill="#fff" stroke="#00bcd4" stroke-width="1.54"/>
    <g id="aT-2" data-name="aT" transform="translate(1868.83 -6499.16)">
      <path id="ho-2" data-name="ho" d="M291.15,295.13h-3.58l-.8,2.23h-1.16l3.26-8.54h.99l3.27,8.54h-1.16Zm-3.24-.93h2.9l-1.45-3.99"/>
      <path id="hr-3" data-name="hr" d="M300.56,291.82a1.372,1.372,0,0,0-1.47,1.33v4.21H298V293.2a1.21,1.21,0,0,0-1.36-1.38,1.46,1.46,0,0,0-1.46.91v4.63h-1.09v-6.35h1.03l.03.7a2.322,2.322,0,0,1,1.88-.82,1.808,1.808,0,0,1,1.81,1.02,2.372,2.372,0,0,1,2.02-1.02,1.925,1.925,0,0,1,2.12,2.21v4.25h-1.09v-4.19c-.01-.93-.39-1.36-1.36-1.36"/>
      <path id="hA-5" data-name="hA" d="M307.53,290.9c1.71,0,2.48,1.49,2.48,3.36,0,1.75-.84,3.21-2.46,3.22a2.21,2.21,0,0,1-1.86-.85l-.05.73h-1v-9.01h1.09v3.36a2.184,2.184,0,0,1,1.81-.82Zm-.26,5.66c1.21,0,1.65-1.03,1.65-2.42,0-1.31-.46-2.32-1.66-2.32a1.578,1.578,0,0,0-1.54,1v2.75a1.643,1.643,0,0,0,1.55,1"/>
      <path id="fp-20" data-name="fp" d="M312.55,297.36h-1.09v-6.35h1.09Zm-.53-7.41a.593.593,0,0,1-.64-.62.646.646,0,1,1,.64.62"/>
      <path id="fn-17" data-name="fn" d="M316.98,296.59a1.969,1.969,0,0,0,1.67-.86l.66.52a2.659,2.659,0,0,1-2.39,1.23c-1.81,0-2.91-1.37-2.91-3.31a3.266,3.266,0,0,1,1.37-2.85,2.532,2.532,0,0,1,1.41-.42c1.76.01,2.63,1.28,2.61,3.15v.45h-4.3A1.938,1.938,0,0,0,316.98,296.59Zm1.33-2.99c-.02-1.06-.52-1.82-1.53-1.82s-1.55.82-1.65,1.82h3.18"/>
      <path id="fv-16" data-name="fv" d="M323.29,291.82a1.714,1.714,0,0,0-1.55,1.02v4.52h-1.09v-6.35h1.03l.04.8a2.326,2.326,0,0,1,1.9-.92c1.34,0,2.03.76,2.03,2.27v4.19h-1.09v-4.2c-.01-.9-.38-1.34-1.27-1.34"/>
      <path id="fr-4" data-name="fr" d="M329.14,297.48c-1,0-1.47-.66-1.47-1.69v-3.94h-1.16v-.84h1.16v-1.54h1.09v1.54h1.18v.84h-1.18v3.94c-.05.73.54.87,1.21.69v.88a3.084,3.084,0,0,1-.83.12"/>
      <path id="fn-18" data-name="fn" d="M333.9,296.59a1.969,1.969,0,0,0,1.67-.86l.66.52a2.659,2.659,0,0,1-2.39,1.23c-1.81,0-2.91-1.37-2.91-3.31a3.266,3.266,0,0,1,1.37-2.85,2.532,2.532,0,0,1,1.41-.42c1.76.01,2.63,1.28,2.61,3.15v.45h-4.3A1.938,1.938,0,0,0,333.9,296.59Zm1.33-2.99c-.02-1.06-.52-1.82-1.53-1.82s-1.55.82-1.65,1.82h3.18"/>
    </g>
    <path id="Trazado_723541" data-name="Trazado 723541" d="M50.27,1.93,70.89,32.82,50.27,63.71H2.17L22.79,32.82,2.17,1.93h48.1Zm137.44,0,20.62,30.89L187.71,63.71h-48.1l20.62-30.89L139.61,1.93h48.1Z" transform="translate(1868.83 -6499.16)" fill="#7e5ee3" stroke="rgba(0,0,0,0)" stroke-width="2.32"/>
    <path id="Trazado_723542" data-name="Trazado 723542" d="M29.66,6.56a4.626,4.626,0,0,1,4.63-4.63H176.2a4.626,4.626,0,0,1,4.63,4.63V59.08a4.626,4.626,0,0,1-4.63,4.63H34.3a4.626,4.626,0,0,1-4.63-4.63V6.56Z" transform="translate(1868.83 -6499.16)" fill="#7e5ee3" stroke="rgba(0,0,0,0)" stroke-width="2.32"/>
    <path id="Trazado_723543" data-name="Trazado 723543" d="M256.43,1.93l20.62,30.89L256.43,63.71H208.31l20.62-30.89L208.32,1.93h48.12Zm137.44,0,20.62,30.89L393.87,63.71H345.78l20.61-30.89L345.77,1.93h48.11Z" transform="translate(1868.83 -6499.16)" fill="#00bcd4" stroke="rgba(0,0,0,0)" stroke-width="2.32"/>
    <path id="Trazado_723544" data-name="Trazado 723544" d="M235.81,6.56a4.626,4.626,0,0,1,4.63-4.63H382.36a4.626,4.626,0,0,1,4.63,4.63V59.08a4.626,4.626,0,0,1-4.63,4.63H240.44a4.626,4.626,0,0,1-4.63-4.63V6.56Z" transform="translate(1868.83 -6499.16)" fill="#00bcd4" stroke="rgba(0,0,0,0)" stroke-width="2.32"/>
    <path id="Trazado_723545" data-name="Trazado 723545" d="M462.59,1.93l20.62,30.89L462.59,63.71h-48.1l20.62-30.89L414.49,1.93h48.1Zm137.44,0,20.62,30.89L600.03,63.71h-48.1l20.62-30.89L551.93,1.93h48.1Z" transform="translate(1868.83 -6499.16)" fill="#4cebff" stroke="rgba(0,0,0,0)" stroke-width="2.32"/>
    <path id="Trazado_723546" data-name="Trazado 723546" d="M441.98,6.56a4.626,4.626,0,0,1,4.63-4.63H588.52a4.626,4.626,0,0,1,4.63,4.63V59.08a4.626,4.626,0,0,1-4.63,4.63H446.62a4.626,4.626,0,0,1-4.63-4.63V6.56Z" transform="translate(1868.83 -6499.16)" fill="#4cebff" stroke="rgba(0,0,0,0)" stroke-width="2.32"/>
    <path id="Trazado_723547" data-name="Trazado 723547" d="M44.81,5.79a4.626,4.626,0,0,1,4.63-4.63h118a4.626,4.626,0,0,1,4.63,4.63V59.85a4.626,4.626,0,0,1-4.63,4.63H49.45a4.626,4.626,0,0,1-4.63-4.63V5.79Z" transform="translate(1868.83 -6499.16)" fill="rgba(255,255,255,0)" stroke="rgba(0,0,0,0)" stroke-width="2.32"/>
    <g id="aU-2" data-name="aU" transform="translate(1868.83 -6499.16)">
      <path id="hB-2" data-name="hB" d="M70.22,20.16c2.67,0,4.17,1.5,4.17,4.2s-1.54,4.31-4.2,4.31-4.14-1.6-4.14-4.31S67.52,20.16,70.22,20.16Zm-.03,7.14c1.74,0,2.44-1.17,2.44-2.94,0-1.67-.7-2.87-2.4-2.87s-2.44,1.17-2.44,2.87.73,2.94,2.4,2.94" fill="#fff"/>
      <path id="hC-4" data-name="hC" d="M79.4,23.53c-1.3-.4-2,.43-2,1.9v3.1H75.73l-.03-6.34h1.57a9.112,9.112,0,0,0,.1,1.33c.2-.93.9-1.77,2.04-1.37v1.37" fill="#fff"/>
      <path id="hD-2" data-name="hD" d="M86.07,28.33c.37,2.94-4,3.54-5.47,1.74a2.323,2.323,0,0,1-.27-.7l1.64-.2A1.066,1.066,0,0,0,83.1,30c1.33,0,1.4-1.23,1.33-2.64a2.081,2.081,0,0,1-2.04,1.17c-1.77,0-2.34-1.44-2.34-3.24s.6-3.2,2.44-3.24a2.164,2.164,0,0,1,1.97,1.13l.07-1H86.1l-.03,6.14Zm-3-.97c1.07,0,1.37-.9,1.37-2.1s-.3-2.07-1.33-2.07-1.3.97-1.33,2.1c0,1.2.3,2.07,1.3,2.07" fill="#fff"/>
      <path id="hE-2" data-name="hE" d="M91.31,27.4a2.507,2.507,0,0,1-2.14,1.27,1.764,1.764,0,0,1-1.94-1.94c-.03-2,1.84-2.1,3.87-2.04.03-.87-.1-1.57-.93-1.57a.858.858,0,0,0-.93.9l-1.74-.07c.23-1.27,1.2-1.94,2.74-1.9s2.47.73,2.5,2.27l.03,2.74c-.03.47.4.6.83.5v.9c-1,.27-2.37.17-2.3-1.07Zm-1.6.1c.97,0,1.44-.8,1.4-1.9-1.07,0-2.2-.1-2.17,1,0,.57.27.9.77.9" fill="#fff"/>
      <path id="hF-2" data-name="hF" d="M98.05,22.06c2.9-.03,1.94,3.77,2.1,6.47H98.48c-.23-1.9.77-5.24-1.13-5.24s-1.13,3.24-1.3,5.24H94.38l-.03-6.34h1.57a8.388,8.388,0,0,0,.1,1.27,2.068,2.068,0,0,1,2.04-1.4" fill="#fff"/>
      <path id="hG-2" data-name="hG" d="M101.69,21.06V19.83h1.67v1.23Zm0,7.48V22.2h1.67v6.34h-1.67" fill="#fff"/>
      <path id="hH-2" data-name="hH" d="M104.59,28.53V27.36l3.17-4h-2.94V22.19h4.74v1.17l-3.14,3.97h3.44v1.2h-5.27" fill="#fff"/>
      <path id="hE-3" data-name="hE" d="M114.64,27.4a2.507,2.507,0,0,1-2.14,1.27,1.764,1.764,0,0,1-1.94-1.94c-.03-2,1.84-2.1,3.87-2.04.03-.87-.1-1.57-.93-1.57a.858.858,0,0,0-.93.9l-1.74-.07c.23-1.27,1.2-1.94,2.74-1.9s2.47.73,2.5,2.27l.03,2.74c-.03.47.4.6.83.5v.9c-1,.27-2.37.17-2.3-1.07Zm-1.6.1c.97,0,1.44-.8,1.4-1.9-1.07,0-2.2-.1-2.17,1,0,.57.27.9.77.9" fill="#fff"/>
      <path id="hI-3" data-name="hI" d="M123.21,26.43a2.631,2.631,0,0,1-2.87,2.24c-1.97,0-2.8-1.27-3-3.27-.4-3.67,5.14-4.57,5.81-1.2l-1.64.07a1.126,1.126,0,0,0-1.17-1.07c-1,0-1.17.93-1.27,2.14-.2,2.47,2.17,2.9,2.47,1" fill="#fff"/>
      <path id="hG-3" data-name="hG" d="M124.38,21.06V19.83h1.67v1.23Zm0,7.48V22.2h1.67v6.34h-1.67" fill="#fff"/>
      <path id="hJ-2" data-name="hJ" d="M130.56,22.06c2.14,0,3.2,1.2,3.2,3.3a2.971,2.971,0,0,1-3.24,3.3c-2.07,0-3.17-1.2-3.17-3.3s1.13-3.3,3.2-3.3Zm-.03,5.47c1.17,0,1.5-.93,1.5-2.17,0-1.33-.33-2.17-1.44-2.17s-1.5.87-1.5,2.17C129.09,26.56,129.42,27.53,130.53,27.53Zm-.93-5.94v-.17l1.5-1.7h1.5v.27l-2,1.6h-1" fill="#fff"/>
      <path id="hF-3" data-name="hF" d="M138.7,22.06c2.9-.03,1.94,3.77,2.1,6.47h-1.67c-.23-1.9.77-5.24-1.13-5.24s-1.13,3.24-1.3,5.24h-1.67L135,22.19h1.57a8.387,8.387,0,0,0,.1,1.27,2.068,2.068,0,0,1,2.04-1.4" fill="#fff"/>
    </g>
    <g id="aV-2" data-name="aV" transform="translate(1868.83 -6499.16)">
      <path id="hK-5" data-name="hK" d="M148.94,28.87c-.5,1.44-1.44,2.54-3.47,2.07V29.77a1.5,1.5,0,0,0,1.97-1.3l-2.5-6.27h1.74l1.6,4.94a50.875,50.875,0,0,1,1.47-4.94h1.7" fill="#fff"/>
    </g>
    <g id="aW-2" data-name="aW" transform="translate(1868.83 -6499.16)">
      <path id="hI-4" data-name="hI" d="M94.9,40.85a2.631,2.631,0,0,1-2.87,2.24c-1.97,0-2.8-1.27-3-3.27-.4-3.67,5.14-4.57,5.81-1.2l-1.64.07a1.126,1.126,0,0,0-1.17-1.07c-1,0-1.17.93-1.27,2.14-.2,2.47,2.17,2.9,2.47,1" fill="#fff"/>
      <path id="hL-2" data-name="hL" d="M98.07,43.08c-2.9.03-1.94-3.77-2.1-6.47h1.67c.23,1.9-.77,5.01,1.1,5.24,2-.17,1.17-3.24,1.33-5.24h1.67l.03,6.34H100.2a8.387,8.387,0,0,0-.1-1.27,2.081,2.081,0,0,1-2.04,1.4" fill="#fff"/>
      <path id="hM-2" data-name="hM" d="M103.37,42.95V34.24h1.67v8.71h-1.67" fill="#fff"/>
      <path id="hN-2" data-name="hN" d="M109.71,42.85c-1.2.47-2.9.23-2.9-1.4V37.71h-.8v-1.1h.9l.5-1.5h1.03v1.5h1.2v1.1h-1.2v3.3c-.03.77.53,1.03,1.27.83v1" fill="#fff"/>
      <path id="hL-3" data-name="hL" d="M112.68,43.08c-2.9.03-1.94-3.77-2.1-6.47h1.67c.23,1.9-.77,5.01,1.1,5.24,2-.17,1.17-3.24,1.33-5.24h1.67l.03,6.34h-1.57a8.387,8.387,0,0,0-.1-1.27,2.081,2.081,0,0,1-2.04,1.4" fill="#fff"/>
      <path id="hC-5" data-name="hC" d="M121.66,37.94c-1.3-.4-2,.43-2,1.9v3.1h-1.67l-.03-6.34h1.57a9.112,9.112,0,0,0,.1,1.33c.2-.93.9-1.77,2.04-1.37v1.37" fill="#fff"/>
      <path id="hE-4" data-name="hE" d="M126.27,41.82a2.507,2.507,0,0,1-2.14,1.27,1.764,1.764,0,0,1-1.94-1.94c-.03-2,1.84-2.1,3.87-2.04.03-.87-.1-1.57-.93-1.57a.858.858,0,0,0-.93.9l-1.74-.07c.23-1.27,1.2-1.94,2.74-1.9s2.47.73,2.5,2.27l.03,2.74c-.03.47.4.6.83.5v.9c-1,.27-2.37.17-2.3-1.07Zm-1.6.1c.97,0,1.44-.8,1.4-1.9-1.07,0-2.2-.1-2.17,1,0,.57.27.9.77.9" fill="#fff"/>
    </g>
    <path id="Trazado_723548" data-name="Trazado 723548" d="M233.87,7.34a4.626,4.626,0,0,1,4.63-4.63H383.7a4.626,4.626,0,0,1,4.63,4.63V59.86a4.626,4.626,0,0,1-4.63,4.63H238.5a4.626,4.626,0,0,1-4.63-4.63V7.34Z" transform="translate(1868.83 -6499.16)" fill="rgba(255,255,255,0)" stroke="rgba(0,0,0,0)" stroke-width="2.32"/>
    <g id="aX-2" data-name="aX" transform="translate(1868.83 -6499.16)">
      <path id="hO-3" data-name="hO" d="M249.06,29.51v2.57h4.24v1.33h-4.24v3.04h-1.74V28.17h6.11V29.5h-4.37"/>
      <path id="hP-2" data-name="hP" d="M258.27,35.32a2.507,2.507,0,0,1-2.14,1.27,1.764,1.764,0,0,1-1.94-1.94c-.03-2,1.84-2.1,3.87-2.04.03-.87-.1-1.57-.93-1.57a.858.858,0,0,0-.93.9l-1.74-.07c.23-1.27,1.2-1.94,2.74-1.9s2.47.73,2.5,2.27l.03,2.74c-.03.47.4.6.83.5v.9c-1,.27-2.37.17-2.3-1.07Zm-1.6.1c.97,0,1.44-.8,1.4-1.9-1.07,0-2.2-.1-2.17,1,0,.57.27.9.77.9"/>
      <path id="hQ-3" data-name="hQ" d="M266.85,34.35a2.631,2.631,0,0,1-2.87,2.24c-1.97,0-2.8-1.27-3-3.27-.4-3.67,5.14-4.57,5.81-1.2l-1.64.07a1.126,1.126,0,0,0-1.17-1.07c-1,0-1.17.93-1.27,2.14-.2,2.47,2.17,2.9,2.47,1"/>
      <path id="hR-4" data-name="hR" d="M271.02,36.35c-1.2.47-2.9.23-2.9-1.4V31.21h-.8v-1.1h.9l.5-1.5h1.03v1.5h1.2v1.1h-1.2v3.3c-.03.77.53,1.03,1.27.83v1"/>
      <path id="hS-2" data-name="hS" d="M274.82,29.98c2.14,0,3.2,1.2,3.2,3.3a2.971,2.971,0,0,1-3.24,3.3c-2.07,0-3.17-1.2-3.17-3.3s1.13-3.3,3.2-3.3Zm-.03,5.47c1.17,0,1.5-.93,1.5-2.17,0-1.33-.33-2.17-1.44-2.17s-1.5.87-1.5,2.17c0,1.2.33,2.17,1.44,2.17"/>
      <path id="hT-2" data-name="hT" d="M282.97,31.44c-1.3-.4-2,.43-2,1.9v3.1H279.3l-.03-6.34h1.57a9.112,9.112,0,0,0,.1,1.33c.2-.93.9-1.77,2.04-1.37v1.37"/>
      <path id="hU-2" data-name="hU" d="M289.31,34.85a2.683,2.683,0,0,1-2.74,1.74c-2-.07-2.97-1.23-2.97-3.34s1-3.27,3-3.27,2.77,1.5,2.8,3.6h-4.07c0,1.03.27,1.84,1.3,1.87a1.017,1.017,0,0,0,1.13-.73l1.54.13Zm-1.5-2.3c.17-1.54-1.9-2.1-2.34-.7a2.079,2.079,0,0,0-.13.7h2.47"/>
      <path id="hV-2" data-name="hV" d="M294.38,31.84c.03-.97-2.34-1.13-2.37-.13.5,1.54,3.94.23,3.97,2.87.03,2.77-5.47,2.54-5.74.3l1.44-.23c.13.63.67.83,1.47.83,1.1.27,1.9-1,.8-1.37-1.44-.47-3.4-.37-3.47-2.2-.07-2.67,5.14-2.47,5.37-.23"/>
    </g>
    <g id="aY-2" data-name="aY" transform="translate(1868.83 -6499.16)">
      <path id="hQ-4" data-name="hQ" d="M306.16,34.35a2.631,2.631,0,0,1-2.87,2.24c-1.97,0-2.8-1.27-3-3.27-.4-3.67,5.14-4.57,5.81-1.2l-1.64.07a1.126,1.126,0,0,0-1.17-1.07c-1,0-1.17.93-1.27,2.14-.2,2.47,2.17,2.9,2.47,1"/>
      <path id="hS-3" data-name="hS" d="M310.17,29.98c2.14,0,3.2,1.2,3.2,3.3a2.971,2.971,0,0,1-3.24,3.3c-2.07,0-3.17-1.2-3.17-3.3s1.13-3.3,3.2-3.3Zm-.03,5.47c1.17,0,1.5-.93,1.5-2.17,0-1.33-.33-2.17-1.44-2.17s-1.5.87-1.5,2.17c0,1.2.33,2.17,1.44,2.17"/>
      <path id="hW-4" data-name="hW" d="M318.31,29.98c2.9-.03,1.94,3.77,2.1,6.47h-1.67c-.23-1.9.77-5.24-1.13-5.24s-1.13,3.24-1.3,5.24h-1.67l-.03-6.34h1.57a8.387,8.387,0,0,0,.1,1.27,2.068,2.068,0,0,1,2.04-1.4"/>
      <path id="hR-5" data-name="hR" d="M324.95,36.35c-1.2.47-2.9.23-2.9-1.4V31.21h-.8v-1.1h.9l.5-1.5h1.03v1.5h1.2v1.1h-1.2v3.3c-.03.77.53,1.03,1.27.83v1"/>
      <path id="hT-3" data-name="hT" d="M329.59,31.44c-1.3-.4-2,.43-2,1.9v3.1h-1.67l-.03-6.34h1.57a9.112,9.112,0,0,0,.1,1.33c.2-.93.9-1.77,2.04-1.37v1.37"/>
      <path id="hX-2" data-name="hX" d="M330.59,28.97V27.74h1.67v1.23Zm0,7.48V30.11h1.67v6.34h-1.67"/>
      <path id="hY-2" data-name="hY" d="M337.6,29.98c1.74,0,2.34,1.44,2.34,3.27s-.63,3.3-2.44,3.34a2.048,2.048,0,0,1-1.94-1.17l-.07,1.03h-1.6l.03-8.71h1.67v3.47a2.019,2.019,0,0,1,2-1.23Zm-.7,5.47c1.03,0,1.33-.9,1.33-2.2s-.23-2.1-1.3-2.1-1.37.93-1.37,2.17.27,2.14,1.33,2.14"/>
      <path id="hZ-2" data-name="hZ" d="M343.24,36.58c-2.9.03-1.94-3.77-2.1-6.47h1.67c.23,1.9-.77,5.01,1.1,5.24,2-.17,1.17-3.24,1.33-5.24h1.67l.03,6.34h-1.57a8.387,8.387,0,0,0-.1-1.27,2.081,2.081,0,0,1-2.04,1.4"/>
      <path id="hR-6" data-name="hR" d="M351.55,36.35c-1.2.47-2.9.23-2.9-1.4V31.21h-.8v-1.1h.9l.5-1.5h1.03v1.5h1.2v1.1h-1.2v3.3c-.03.77.53,1.03,1.27.83v1"/>
      <path id="hX-3" data-name="hX" d="M352.52,28.97V27.74h1.67v1.23Zm0,7.48V30.11h1.67v6.34h-1.67"/>
      <path id="ia" d="M359.29,36.45h-1.97l-2.27-6.34h1.77l1.5,5.01,1.6-5.01h1.74"/>
      <path id="hS-4" data-name="hS" d="M365.36,29.98c2.14,0,3.2,1.2,3.2,3.3a2.971,2.971,0,0,1-3.24,3.3c-2.07,0-3.17-1.2-3.17-3.3s1.13-3.3,3.2-3.3Zm-.03,5.47c1.17,0,1.5-.93,1.5-2.17,0-1.33-.33-2.17-1.44-2.17s-1.5.87-1.5,2.17c0,1.2.33,2.17,1.44,2.17"/>
      <path id="hV-3" data-name="hV" d="M373.57,31.84c.03-.97-2.34-1.13-2.37-.13.5,1.54,3.94.23,3.97,2.87.03,2.77-5.47,2.54-5.74.3l1.44-.23c.13.63.67.83,1.47.83,1.1.27,1.9-1,.8-1.37-1.44-.47-3.4-.37-3.47-2.2-.07-2.67,5.14-2.47,5.37-.23"/>
    </g>
    <path id="Trazado_723549" data-name="Trazado 723549" d="M435.29,7.34a4.626,4.626,0,0,1,4.63-4.63H595.21a4.626,4.626,0,0,1,4.63,4.63V59.86a4.626,4.626,0,0,1-4.63,4.63H439.92a4.626,4.626,0,0,1-4.63-4.63V7.34Z" transform="translate(1868.83 -6499.16)" fill="rgba(255,255,255,0)" stroke="rgba(0,0,0,0)" stroke-width="2.32"/>
    <g id="aZ-2" data-name="aZ" transform="translate(1868.83 -6499.16)">
      <path id="ib" d="M457.76,19.73c3.1.03,6.87-.53,6.81,2.64-.03,2.5-2.3,2.94-5.07,2.74v2.9h-1.74Zm1.74,4.04c1.57,0,3.34.23,3.34-1.37s-1.8-1.3-3.34-1.3v2.67" fill="#333"/>
      <path id="gH" d="M469.47,23c-1.3-.4-2,.43-2,1.9V28H465.8l-.03-6.34h1.57a9.112,9.112,0,0,0,.1,1.33c.2-.93.9-1.77,2.04-1.37v1.37" fill="#333"/>
      <path id="gS" d="M473.31,21.53c2.14,0,3.2,1.2,3.2,3.3a2.971,2.971,0,0,1-3.24,3.3c-2.07,0-3.17-1.2-3.17-3.3s1.13-3.3,3.2-3.3ZM473.28,27c1.17,0,1.5-.93,1.5-2.17,0-1.33-.33-2.17-1.44-2.17s-1.5.87-1.5,2.17c0,1.2.33,2.17,1.44,2.17" fill="#333"/>
      <path id="ic" d="M481.45,21.53c1.74,0,2.34,1.44,2.34,3.27s-.63,3.3-2.44,3.34a2.048,2.048,0,0,1-1.94-1.17L479.34,28h-1.6l.03-8.71h1.67v3.47a2.019,2.019,0,0,1,2-1.23Zm-.7,5.47c1.03,0,1.33-.9,1.33-2.2s-.23-2.1-1.3-2.1-1.37.93-1.37,2.17.27,2.14,1.33,2.14" fill="#333"/>
      <path id="gP" d="M485.09,28V19.29h1.67V28h-1.67" fill="#333"/>
      <path id="gM" d="M493.77,26.4a2.683,2.683,0,0,1-2.74,1.74c-2-.07-2.97-1.23-2.97-3.34s1-3.27,3-3.27,2.77,1.5,2.8,3.6h-4.07c0,1.03.27,1.84,1.3,1.87a1.017,1.017,0,0,0,1.13-.73l1.54.13Zm-1.5-2.3c.17-1.54-1.9-2.1-2.34-.7a2.079,2.079,0,0,0-.13.7h2.47" fill="#333"/>
      <path id="gL" d="M501.61,22.76c-1.77.3-.93,3.34-1.13,5.24h-1.64V24.43c.03-.9-.17-1.64-.97-1.67-1.77.33-.9,3.34-1.1,5.24H495.1l-.03-6.34h1.57a8.387,8.387,0,0,0,.1,1.27c.33-1.77,3.37-1.87,3.6,0,.43-.73.8-1.44,1.97-1.4,2.74.03,1.7,3.87,1.9,6.47h-1.64V24.43c-.03-.83-.17-1.6-.97-1.67" fill="#333"/>
      <path id="gO" d="M509.39,26.87a2.507,2.507,0,0,1-2.14,1.27,1.764,1.764,0,0,1-1.94-1.94c-.03-2,1.84-2.1,3.87-2.04.03-.87-.1-1.57-.93-1.57a.858.858,0,0,0-.93.9l-1.74-.07c.23-1.27,1.2-1.94,2.74-1.9s2.47.73,2.5,2.27l.03,2.74c-.03.47.4.6.83.5v.9c-1,.27-2.37.17-2.3-1.07Zm-1.6.1c.97,0,1.44-.8,1.4-1.9-1.07,0-2.2-.1-2.17,1,0,.57.27.9.77.9" fill="#333"/>
      <path id="gI" d="M516.2,23.4c.03-.97-2.34-1.13-2.37-.13.5,1.54,3.94.23,3.97,2.87.03,2.77-5.47,2.54-5.74.3l1.44-.23c.13.63.67.83,1.47.83,1.1.27,1.9-1,.8-1.37-1.44-.47-3.4-.37-3.47-2.2-.07-2.67,5.14-2.47,5.37-.23" fill="#333"/>
    </g>
    <g id="ba" transform="translate(1868.83 -6499.16)">
      <path id="gU" d="M524.57,21.53a2.052,2.052,0,0,1,1.94,1.13l-.03-3.37h1.67l.03,8.71h-1.6a9.74,9.74,0,0,0-.1-1.03,2,2,0,0,1-2.04,1.17c-1.74,0-2.27-1.5-2.3-3.3,0-1.87.63-3.24,2.44-3.3Zm.57,5.47c1.1,0,1.33-1,1.37-2.2.03-1.23-.3-2.14-1.37-2.14s-1.27,1-1.3,2.17c0,1.44.43,2.17,1.3,2.17" fill="#333"/>
      <path id="id" d="M531.78,28.14c-2.9.03-1.94-3.77-2.1-6.47h1.67c.23,1.9-.77,5.01,1.1,5.24,2-.17,1.17-3.24,1.33-5.24h1.67l.03,6.34h-1.57a8.388,8.388,0,0,0-.1-1.27,2.081,2.081,0,0,1-2.04,1.4" fill="#333"/>
      <path id="gH-2" data-name="gH" d="M540.76,23c-1.3-.4-2,.43-2,1.9V28h-1.67l-.03-6.34h1.57a9.112,9.112,0,0,0,.1,1.33c.2-.93.9-1.77,2.04-1.37v1.37" fill="#333"/>
      <path id="gO-2" data-name="gO" d="M545.36,26.87a2.507,2.507,0,0,1-2.14,1.27,1.764,1.764,0,0,1-1.94-1.94c-.03-2,1.84-2.1,3.87-2.04.03-.87-.1-1.57-.93-1.57a.858.858,0,0,0-.93.9l-1.74-.07c.23-1.27,1.2-1.94,2.74-1.9s2.47.73,2.5,2.27l.03,2.74c-.03.47.4.6.83.5v.9c-1,.27-2.37.17-2.3-1.07Zm-1.6.1c.97,0,1.44-.8,1.4-1.9-1.07,0-2.2-.1-2.17,1,0,.57.27.9.77.9" fill="#333"/>
      <path id="gT" d="M552.1,21.53c2.9-.03,1.94,3.77,2.1,6.47h-1.67c-.23-1.9.77-5.24-1.13-5.24S550.27,26,550.1,28h-1.67l-.03-6.34h1.57a8.388,8.388,0,0,0,.1,1.27,2.068,2.068,0,0,1,2.04-1.4" fill="#333"/>
      <path id="gN" d="M558.75,27.9c-1.2.47-2.9.23-2.9-1.4V22.76h-.8v-1.1h.9l.5-1.5h1.03v1.5h1.2v1.1h-1.2v3.3c-.03.77.53,1.03,1.27.83v1" fill="#333"/>
      <path id="gM-2" data-name="gM" d="M565.05,26.4a2.683,2.683,0,0,1-2.74,1.74c-2-.07-2.97-1.23-2.97-3.34s1-3.27,3-3.27,2.77,1.5,2.8,3.6h-4.07c0,1.03.27,1.84,1.3,1.87a1.017,1.017,0,0,0,1.13-.73l1.54.13Zm-1.5-2.3c.17-1.54-1.9-2.1-2.34-.7a2.079,2.079,0,0,0-.13.7h2.47" fill="#333"/>
    </g>
    <g id="bb" transform="translate(1868.83 -6499.16)">
      <path id="gP-2" data-name="gP" d="M569.73,28V19.29h1.67V28h-1.67" fill="#333"/>
      <path id="gO-3" data-name="gO" d="M576.67,26.87a2.507,2.507,0,0,1-2.14,1.27,1.764,1.764,0,0,1-1.94-1.94c-.03-2,1.84-2.1,3.87-2.04.03-.87-.1-1.57-.93-1.57a.858.858,0,0,0-.93.9l-1.74-.07c.23-1.27,1.2-1.94,2.74-1.9s2.47.73,2.5,2.27l.03,2.74c-.03.47.4.6.83.5v.9c-1,.27-2.37.17-2.3-1.07Zm-1.6.1c.97,0,1.44-.8,1.4-1.9-1.07,0-2.2-.1-2.17,1,0,.57.27.9.77.9" fill="#333"/>
    </g>
    <g id="bc" transform="translate(1868.83 -6499.16)">
      <path id="gR" d="M457.46,35.95c1.77,0,2.34,1.47,2.34,3.27s-.63,3.27-2.44,3.34a2.316,2.316,0,0,1-1.97-1.13c.1,1.1.07,2.3.07,3.5h-1.67l-.03-8.84h1.6a9.731,9.731,0,0,0,.1,1.03A1.936,1.936,0,0,1,457.46,35.95Zm-.7,5.47c1.1,0,1.3-1.03,1.33-2.2,0-1.27-.3-2.14-1.33-2.14-1.87,0-1.84,4.34,0,4.34" fill="#333"/>
      <path id="gH-3" data-name="gH" d="M464.77,37.41c-1.3-.4-2,.43-2,1.9v3.1H461.1l-.03-6.34h1.57a9.112,9.112,0,0,0,.1,1.33c.2-.93.9-1.77,2.04-1.37V37.4" fill="#333"/>
      <path id="gM-3" data-name="gM" d="M471.11,40.82a2.683,2.683,0,0,1-2.74,1.74c-2-.07-2.97-1.23-2.97-3.34s1-3.27,3-3.27,2.77,1.5,2.8,3.6h-4.07c0,1.03.27,1.84,1.3,1.87a1.017,1.017,0,0,0,1.13-.73l1.54.13Zm-1.5-2.3c.17-1.54-1.9-2.1-2.34-.7a2.079,2.079,0,0,0-.13.7h2.47" fill="#333"/>
      <path id="gI-2" data-name="gI" d="M476.18,37.81c.03-.97-2.34-1.13-2.37-.13.5,1.54,3.94.23,3.97,2.87.03,2.77-5.47,2.54-5.74.3l1.44-.23c.13.63.67.83,1.47.83,1.1.27,1.9-1,.8-1.37-1.44-.47-3.4-.37-3.47-2.2-.07-2.67,5.14-2.47,5.37-.23" fill="#333"/>
      <path id="gN-2" data-name="gN" d="M482.12,42.32c-1.2.47-2.9.23-2.9-1.4V37.18h-.8v-1.1h.9l.5-1.5h1.03v1.5h1.2v1.1h-1.2v3.3c-.03.77.53,1.03,1.27.83v1" fill="#333"/>
      <path id="gO-4" data-name="gO" d="M486.69,41.28a2.507,2.507,0,0,1-2.14,1.27,1.764,1.764,0,0,1-1.94-1.94c-.03-2,1.84-2.1,3.87-2.04.03-.87-.1-1.57-.93-1.57a.858.858,0,0,0-.93.9l-1.74-.07c.23-1.27,1.2-1.94,2.74-1.9s2.47.73,2.5,2.27l.03,2.74c-.03.47.4.6.83.5v.9c-1,.27-2.37.17-2.3-1.07Zm-1.6.1c.97,0,1.44-.8,1.4-1.9-1.07,0-2.2-.1-2.17,1,0,.57.27.9.77.9" fill="#333"/>
      <path id="gW" d="M495.27,40.32a2.631,2.631,0,0,1-2.87,2.24c-1.97,0-2.8-1.27-3-3.27-.4-3.67,5.14-4.57,5.81-1.2l-1.64.07a1.126,1.126,0,0,0-1.17-1.07c-1,0-1.17.93-1.27,2.14-.2,2.47,2.17,2.9,2.47,1" fill="#333"/>
      <path id="gK" d="M496.44,34.94V33.71h1.67v1.23Zm0,7.48V36.08h1.67v6.34h-1.67" fill="#333"/>
      <path id="gV" d="M502.61,35.95c2.14,0,3.2,1.2,3.2,3.3a2.971,2.971,0,0,1-3.24,3.3c-2.07,0-3.17-1.2-3.17-3.3s1.13-3.3,3.2-3.3Zm-.03,5.47c1.17,0,1.5-.93,1.5-2.17,0-1.33-.33-2.17-1.44-2.17s-1.5.87-1.5,2.17c0,1.2.33,2.17,1.44,2.17Zm-.93-5.94v-.17l1.5-1.7h1.5v.27l-2,1.6h-1" fill="#333"/>
      <path id="gT-2" data-name="gT" d="M510.76,35.95c2.9-.03,1.94,3.77,2.1,6.47h-1.67c-.23-1.9.77-5.24-1.13-5.24s-1.13,3.24-1.3,5.24h-1.67l-.03-6.34h1.57a8.387,8.387,0,0,0,.1,1.27,2.068,2.068,0,0,1,2.04-1.4" fill="#333"/>
    </g>
    <g id="bd" transform="translate(1868.83 -6499.16)">
      <path id="gU-2" data-name="gU" d="M519.83,35.95a2.052,2.052,0,0,1,1.94,1.13l-.03-3.37h1.67l.03,8.71h-1.6a9.74,9.74,0,0,0-.1-1.03,2,2,0,0,1-2.04,1.17c-1.74,0-2.27-1.5-2.3-3.3,0-1.87.63-3.24,2.44-3.3Zm.57,5.47c1.1,0,1.33-1,1.37-2.2.03-1.23-.3-2.14-1.37-2.14s-1.27,1-1.3,2.17c0,1.44.43,2.17,1.3,2.17" fill="#333"/>
      <path id="gM-4" data-name="gM" d="M530.38,40.82a2.683,2.683,0,0,1-2.74,1.74c-2-.07-2.97-1.23-2.97-3.34s1-3.27,3-3.27,2.77,1.5,2.8,3.6H526.4c0,1.03.27,1.84,1.3,1.87a1.017,1.017,0,0,0,1.13-.73l1.54.13Zm-1.5-2.3c.17-1.54-1.9-2.1-2.34-.7a2.079,2.079,0,0,0-.13.7h2.47" fill="#333"/>
      <path id="gP-3" data-name="gP" d="M531.71,42.42V33.71h1.67v8.71h-1.67" fill="#333"/>
    </g>
    <g id="be" transform="translate(1868.83 -6499.16)">
      <path id="gI-3" data-name="gI" d="M542.13,37.81c.03-.97-2.34-1.13-2.37-.13.5,1.54,3.94.23,3.97,2.87.03,2.77-5.47,2.54-5.74.3l1.44-.23c.13.63.67.83,1.47.83,1.1.27,1.9-1,.8-1.37-1.44-.47-3.4-.37-3.47-2.2-.07-2.67,5.14-2.47,5.37-.23" fill="#333"/>
      <path id="gM-5" data-name="gM" d="M550.4,40.82a2.683,2.683,0,0,1-2.74,1.74c-2-.07-2.97-1.23-2.97-3.34s1-3.27,3-3.27,2.77,1.5,2.8,3.6h-4.07c0,1.03.27,1.84,1.3,1.87a1.017,1.017,0,0,0,1.13-.73l1.54.13Zm-1.5-2.3c.17-1.54-1.9-2.1-2.34-.7a2.079,2.079,0,0,0-.13.7h2.47" fill="#333"/>
      <path id="gH-4" data-name="gH" d="M555.41,37.41c-1.3-.4-2,.43-2,1.9v3.1h-1.67l-.03-6.34h1.57a9.112,9.112,0,0,0,.1,1.33c.2-.93.9-1.77,2.04-1.37V37.4" fill="#333"/>
      <path id="ie" d="M559.85,42.42h-1.97l-2.27-6.34h1.77l1.5,5.01,1.6-5.01h1.74" fill="#333"/>
      <path id="gK-2" data-name="gK" d="M563.08,34.94V33.71h1.67v1.23Zm0,7.48V36.08h1.67v6.34h-1.67" fill="#333"/>
      <path id="gW-2" data-name="gW" d="M571.93,40.32a2.631,2.631,0,0,1-2.87,2.24c-1.97,0-2.8-1.27-3-3.27-.4-3.67,5.14-4.57,5.81-1.2l-1.64.07a1.126,1.126,0,0,0-1.17-1.07c-1,0-1.17.93-1.27,2.14-.2,2.47,2.17,2.9,2.47,1" fill="#333"/>
      <path id="gK-3" data-name="gK" d="M573.1,34.94V33.71h1.67v1.23Zm0,7.48V36.08h1.67v6.34H573.1" fill="#333"/>
      <path id="gS-2" data-name="gS" d="M579.27,35.95c2.14,0,3.2,1.2,3.2,3.3a2.971,2.971,0,0,1-3.24,3.3c-2.07,0-3.17-1.2-3.17-3.3s1.13-3.3,3.2-3.3Zm-.03,5.47c1.17,0,1.5-.93,1.5-2.17,0-1.33-.33-2.17-1.44-2.17s-1.5.87-1.5,2.17c0,1.2.33,2.17,1.44,2.17" fill="#333"/>
    </g>
    <path id="Trazado_723550" data-name="Trazado 723550" d="M655.41,324.73a3.565,3.565,0,0,1-4.36-2.5,3.65,3.65,0,0,1-.12-.93V83.41a3.553,3.553,0,0,1,3.55-3.56,3.594,3.594,0,0,1,.93.12l21.93,5.85a6.035,6.035,0,0,1,4.48,5.83v221.4a6.027,6.027,0,0,1-4.48,5.83l-21.93,5.85Z" transform="translate(1868.83 -6499.16)" fill="#ffe1b1" stroke="rgba(0,0,0,0)" stroke-width="2.32"/>
    <g id="bf" transform="translate(1868.83 -6499.16)">
      <path id="fh-5" data-name="fh" d="M666.51,215.51v3.58h3.77v1.13h-8.54v-5.29h.93v4.17h2.92v-3.58h.92" fill="#333"/>
      <path id="if" d="M670.28,212.58v1.09h-6.35v-1.09Zm-8.99-.01v-1.31l1.72,1.57v.87" fill="#333"/>
      <path id="eY" d="M669.51,208.45c0-.71-.29-1.36-.92-1.36a.853.853,0,0,0-.69.33c-.35.43-.54,1.96-.84,2.46a1.515,1.515,0,0,1-1.4.95,2.442,2.442,0,0,1,.12-4.77v1.09a1.243,1.243,0,0,0-1.09,1.33c0,.68.31,1.26.93,1.26a.668.668,0,0,0,.59-.31c.31-.45.53-1.94.82-2.44a1.561,1.561,0,0,1,1.47-.99c1.22,0,1.88,1.14,1.88,2.45a2.646,2.646,0,0,1-1.02,2.26,1.815,1.815,0,0,1-1.05.33v-1.09c.76-.04,1.18-.68,1.18-1.51" fill="#333"/>
      <path id="eX" d="M670.28,203.41v1.09h-6.35v-1.09Zm-7.41.53a.593.593,0,0,1-.62.64.645.645,0,1,1,.62-.64" fill="#333"/>
      <path id="fj-7" data-name="fj" d="M667.02,200.87c1.43,0,2.46-.45,2.49-1.74a1.458,1.458,0,0,0-1.23-1.5V196.6a2.4,2.4,0,0,1,2.12,2.52c0,1.85-1.42,2.89-3.41,2.83-1.87-.06-3.13-.96-3.17-2.82a2.388,2.388,0,0,1,2.3-2.53v1.03a1.474,1.474,0,0,0-1.41,1.5c.02,1.23.97,1.74,2.32,1.74" fill="#333"/>
      <path id="fe" d="M663.81,192.92a2.055,2.055,0,0,1,2.06-2.36h2.92a3.777,3.777,0,0,0,1.39-.22h.09v1.14a2.39,2.39,0,0,1-.67.15,2.44,2.44,0,0,1,.79,1.81,1.966,1.966,0,0,1-1.88,2.14c-1.47-.02-2.11-1.26-2.09-2.87v-1.06h-.5a1.181,1.181,0,0,0-1.24,1.34c0,.67.39,1.36,1,1.37v1.09c-1.2-.12-1.85-1.21-1.88-2.52Zm4.55,1.57a1.1,1.1,0,0,0,1.09-1.21,1.9,1.9,0,0,0-.95-1.63h-1.3v.85c0,1.33.39,1.99,1.17,1.99" fill="#333"/>
      <path id="eY-2" data-name="eY" d="M669.51,186.52c0-.71-.29-1.36-.92-1.36a.853.853,0,0,0-.69.33c-.35.43-.54,1.96-.84,2.46a1.515,1.515,0,0,1-1.4.95,2.442,2.442,0,0,1,.12-4.77v1.09a1.243,1.243,0,0,0-1.09,1.33c0,.68.31,1.26.93,1.26a.668.668,0,0,0,.59-.31c.31-.45.53-1.94.82-2.44a1.561,1.561,0,0,1,1.47-.99c1.22,0,1.88,1.14,1.88,2.45a2.646,2.646,0,0,1-1.02,2.26,1.815,1.815,0,0,1-1.05.33v-1.09c.76-.04,1.18-.68,1.18-1.51" fill="#333"/>
    </g>
    <path id="Trazado_723551" data-name="Trazado 723551" d="M702.36,324.73a3.565,3.565,0,0,1-4.36-2.5,3.65,3.65,0,0,1-.12-.93V83.41a3.553,3.553,0,0,1,3.55-3.56,3.594,3.594,0,0,1,.93.12l21.93,5.85a6.035,6.035,0,0,1,4.48,5.83v221.4a6.027,6.027,0,0,1-4.48,5.83l-21.93,5.85Z" transform="translate(1868.83 -6499.16)" fill="#ffe1b1" stroke="rgba(0,0,0,0)" stroke-width="2.32"/>
    <g id="bg" transform="translate(1868.83 -6499.16)">
      <path id="fD" d="M715.01,238.33v3.58l2.23.8v1.16l-8.54-3.26v-.99l8.54-3.27v1.16l-2.23.82Zm-.93,3.24v-2.9l-3.99,1.45" fill="#333"/>
      <path id="fd-2" data-name="fd" d="M717.35,233.15c0,1.62-1.57,2.49-3.34,2.49s-3.23-.89-3.24-2.5a2.2,2.2,0,0,1,.76-1.77h-3.31v-1.09h9.01v1l-.68.05a2.212,2.212,0,0,1,.8,1.81Zm-5.66-.28c0,1.23,1.04,1.69,2.44,1.69,1.28,0,2.3-.51,2.3-1.68a1.587,1.587,0,0,0-.93-1.51h-2.92a1.589,1.589,0,0,0-.9,1.5" fill="#333"/>
      <path id="fx" d="M711.69,222.16a1.372,1.372,0,0,0,1.33,1.47h4.21v1.09h-4.16a1.21,1.21,0,0,0-1.38,1.36,1.46,1.46,0,0,0,.91,1.46h4.63v1.09h-6.35V227.6l.7-.03a2.322,2.322,0,0,1-.82-1.88,1.808,1.808,0,0,1,1.02-1.81,2.372,2.372,0,0,1-1.02-2.02,1.925,1.925,0,0,1,2.21-2.12h4.25v1.09h-4.19c-.93.01-1.36.39-1.36,1.36" fill="#333"/>
      <path id="eX-2" data-name="eX" d="M717.24,216.9v1.09h-6.35V216.9Zm-7.41.53a.593.593,0,0,1-.62.64.645.645,0,1,1,.62-.64" fill="#333"/>
      <path id="fl" d="M711.69,212.53a1.714,1.714,0,0,0,1.02,1.55h4.52v1.09h-6.35v-1.03l.8-.04a2.326,2.326,0,0,1-.92-1.9c0-1.34.76-2.03,2.27-2.03h4.19v1.09h-4.2c-.9.01-1.34.38-1.34,1.27" fill="#333"/>
      <path id="eX-3" data-name="eX" d="M717.24,207.35v1.09h-6.35v-1.09Zm-7.41.53a.593.593,0,0,1-.62.64.645.645,0,1,1,.62-.64" fill="#333"/>
      <path id="eY-3" data-name="eY" d="M716.47,203.28c0-.71-.29-1.36-.92-1.36a.853.853,0,0,0-.69.33c-.35.43-.54,1.96-.84,2.46a1.515,1.515,0,0,1-1.4.95,2.442,2.442,0,0,1,.12-4.77v1.09a1.243,1.243,0,0,0-1.09,1.33c0,.68.31,1.26.93,1.26a.668.668,0,0,0,.59-.31c.31-.45.53-1.94.82-2.44a1.561,1.561,0,0,1,1.47-.99c1.22,0,1.88,1.14,1.88,2.45a2.646,2.646,0,0,1-1.02,2.26,1.815,1.815,0,0,1-1.05.33v-1.09c.76-.04,1.18-.68,1.18-1.51" fill="#333"/>
      <path id="fw-3" data-name="fw" d="M717.35,197.57c0,1-.66,1.47-1.69,1.47h-3.94v1.16h-.84v-1.16h-1.54v-1.09h1.54v-1.18h.84v1.18h3.94c.73.05.87-.54.69-1.21h.88a3.083,3.083,0,0,1,.12.83" fill="#333"/>
      <path id="ff" d="M711.86,192.43c-.16.96.11,1.69.87,1.98h4.51v1.09h-6.35v-1.06l.73-.02a1.686,1.686,0,0,1-.85-1.51,1.19,1.19,0,0,1,.08-.48h1.01" fill="#333"/>
      <path id="fe-2" data-name="fe" d="M710.77,189.2a2.055,2.055,0,0,1,2.06-2.36h2.92a3.777,3.777,0,0,0,1.39-.22h.09v1.14a2.39,2.39,0,0,1-.67.15,2.44,2.44,0,0,1,.79,1.81,1.966,1.966,0,0,1-1.88,2.14c-1.47-.02-2.11-1.26-2.09-2.87v-1.06h-.5a1.181,1.181,0,0,0-1.24,1.34c0,.67.39,1.36,1,1.37v1.09c-1.2-.12-1.85-1.21-1.88-2.52Zm4.55,1.57a1.1,1.1,0,0,0,1.09-1.21,1.9,1.9,0,0,0-.95-1.63h-1.3v.85c0,1.33.39,1.99,1.17,1.99" fill="#333"/>
      <path id="fw-4" data-name="fw" d="M717.35,183.28c0,1-.66,1.47-1.69,1.47h-3.94v1.16h-.84v-1.16h-1.54v-1.09h1.54v-1.18h.84v1.18h3.94c.73.05.87-.54.69-1.21h.88a3.083,3.083,0,0,1,.12.83" fill="#333"/>
      <path id="eX-4" data-name="eX" d="M717.24,180.03v1.09h-6.35v-1.09Zm-7.41.53a.593.593,0,0,1-.62.64.645.645,0,1,1,.62-.64" fill="#333"/>
      <path id="fY" d="M715.76,176.2l-4.87-1.57v-1.11l6.35,2.28v.83l-6.35,2.3v-1.11" fill="#333"/>
      <path id="fe-3" data-name="fe" d="M710.77,170.09a2.055,2.055,0,0,1,2.06-2.36h2.92a3.777,3.777,0,0,0,1.39-.22h.09v1.14a2.39,2.39,0,0,1-.67.15,2.44,2.44,0,0,1,.79,1.81,1.966,1.966,0,0,1-1.88,2.14c-1.47-.02-2.11-1.26-2.09-2.87v-1.06h-.5a1.181,1.181,0,0,0-1.24,1.34c0,.67.39,1.36,1,1.37v1.09c-1.2-.12-1.85-1.21-1.88-2.52Zm4.55,1.57a1.1,1.1,0,0,0,1.09-1.21,1.9,1.9,0,0,0-.95-1.63h-1.3v.85c0,1.33.39,1.99,1.17,1.99" fill="#333"/>
      <path id="eY-4" data-name="eY" d="M716.47,163.69c0-.71-.29-1.36-.92-1.36a.853.853,0,0,0-.69.33c-.35.43-.54,1.96-.84,2.46a1.515,1.515,0,0,1-1.4.95,2.442,2.442,0,0,1,.12-4.77v1.09a1.243,1.243,0,0,0-1.09,1.33c0,.68.31,1.26.93,1.26a.668.668,0,0,0,.59-.31c.31-.45.53-1.94.82-2.44a1.561,1.561,0,0,1,1.47-.99c1.22,0,1.88,1.14,1.88,2.45a2.646,2.646,0,0,1-1.02,2.26,1.815,1.815,0,0,1-1.05.33v-1.09c.76-.04,1.18-.68,1.18-1.51" fill="#333"/>
    </g>
    <path id="Trazado_723552" data-name="Trazado 723552" d="M748.09,324.73a3.565,3.565,0,0,1-4.36-2.5,3.65,3.65,0,0,1-.12-.93V83.41a3.553,3.553,0,0,1,3.55-3.56,3.594,3.594,0,0,1,.93.12l21.93,5.85a6.035,6.035,0,0,1,4.48,5.83v221.4a6.027,6.027,0,0,1-4.48,5.83l-21.93,5.85Z" transform="translate(1868.83 -6499.16)" fill="#ffe1b1" stroke="rgba(0,0,0,0)" stroke-width="2.32"/>
    <g id="bh" transform="translate(1868.83 -6499.16)">
      <path id="ig" d="M762.96,220.6v1.13h-3.95v4.31h3.95v1.13h-8.54v-1.13h3.67v-4.31h-3.67V220.6h8.54" fill="#333"/>
      <path id="fZ" d="M763.08,216.71c0,1.41-.87,2.08-2.33,2.08h-4.13V217.7h4.1q1.44,0,1.44-1.17a1.614,1.614,0,0,0-.93-1.65h-4.62v-1.09h6.35v1.03l-.63.02a2.292,2.292,0,0,1,.75,1.86" fill="#333"/>
      <path id="fx-2" data-name="fx" d="M757.42,205.69a1.372,1.372,0,0,0,1.33,1.47h4.21v1.09H758.8a1.21,1.21,0,0,0-1.38,1.36,1.46,1.46,0,0,0,.91,1.46h4.63v1.09h-6.35v-1.03l.7-.03a2.322,2.322,0,0,1-.82-1.88,1.808,1.808,0,0,1,1.02-1.81,2.372,2.372,0,0,1-1.02-2.02,1.925,1.925,0,0,1,2.21-2.12h4.25v1.09h-4.19c-.93.01-1.36.39-1.36,1.36" fill="#333"/>
      <path id="fe-4" data-name="fe" d="M756.49,199.14a2.055,2.055,0,0,1,2.06-2.36h2.92a3.777,3.777,0,0,0,1.39-.22h.09v1.14a2.39,2.39,0,0,1-.67.15,2.44,2.44,0,0,1,.79,1.81,1.966,1.966,0,0,1-1.88,2.14c-1.47-.02-2.11-1.26-2.09-2.87v-1.06h-.5a1.181,1.181,0,0,0-1.24,1.34c0,.67.39,1.36,1,1.37v1.09c-1.2-.12-1.85-1.21-1.88-2.52Zm4.55,1.57a1.1,1.1,0,0,0,1.09-1.21,1.9,1.9,0,0,0-.95-1.63h-1.3v.85c0,1.33.39,1.99,1.17,1.99" fill="#333"/>
      <path id="fl-2" data-name="fl" d="M757.42,192.45a1.714,1.714,0,0,0,1.02,1.55h4.52v1.09h-6.35v-1.03l.8-.04a2.326,2.326,0,0,1-.92-1.9c0-1.34.76-2.03,2.27-2.03h4.19v1.09h-4.2c-.9.01-1.34.38-1.34,1.27" fill="#333"/>
      <path id="fe-5" data-name="fe" d="M756.49,185.98a2.055,2.055,0,0,1,2.06-2.36h2.92a3.777,3.777,0,0,0,1.39-.22h.09v1.14a2.39,2.39,0,0,1-.67.15,2.44,2.44,0,0,1,.79,1.81,1.966,1.966,0,0,1-1.88,2.14c-1.47-.02-2.11-1.26-2.09-2.87v-1.06h-.5a1.181,1.181,0,0,0-1.24,1.34c0,.67.39,1.36,1,1.37v1.09c-1.2-.12-1.85-1.21-1.88-2.52Zm4.55,1.57a1.1,1.1,0,0,0,1.09-1.21,1.9,1.9,0,0,0-.95-1.63h-1.3v.85c0,1.33.39,1.99,1.17,1.99" fill="#333"/>
      <path id="eY-5" data-name="eY" d="M762.19,179.58c0-.71-.29-1.36-.92-1.36a.853.853,0,0,0-.69.33c-.35.43-.54,1.96-.84,2.46a1.515,1.515,0,0,1-1.4.95,2.442,2.442,0,0,1,.12-4.77v1.09a1.243,1.243,0,0,0-1.09,1.33c0,.68.31,1.26.93,1.26a.668.668,0,0,0,.59-.31c.31-.45.53-1.94.82-2.44a1.561,1.561,0,0,1,1.47-.99c1.22,0,1.88,1.14,1.88,2.45a2.646,2.646,0,0,1-1.02,2.26,1.815,1.815,0,0,1-1.05.33v-1.09c.76-.04,1.18-.68,1.18-1.51" fill="#333"/>
    </g>
    <path id="Trazado_723553" data-name="Trazado 723553" d="M651.67,7.34a4.626,4.626,0,0,1,4.63-4.63H770.36a4.626,4.626,0,0,1,4.63,4.63V59.86a4.626,4.626,0,0,1-4.63,4.63H656.3a4.626,4.626,0,0,1-4.63-4.63Z" transform="translate(1868.83 -6499.16)" fill="#ff9d00" stroke="rgba(0,0,0,0)" stroke-width="2.32"/>
    <g id="bi" transform="translate(1868.83 -6499.16)">
      <path id="ih" d="M697.52,34.36c0,1.74-1.22,2.51-3.03,2.51h-3.32V28.33h2.99c1.87,0,3.16.63,3.16,2.34a1.856,1.856,0,0,1-1.22,1.81,1.812,1.812,0,0,1,1.41,1.88Zm-3.08,1.1c.77.01,1.32-.38,1.32-1.11a1.065,1.065,0,0,0-1.21-1.19h-1.61v2.31h1.51Zm1.13-4.61c0-.85-.5-1.09-1.4-1.09h-1.23v2.15h1.3c.89-.02,1.33-.37,1.33-1.06"/>
      <path id="fK-10" data-name="fK" d="M701.32,30.41a2.231,2.231,0,0,1,2.55,2.25v2.75a3.069,3.069,0,0,0,.25,1.37v.1h-1.71a1.925,1.925,0,0,1-.17-.57,2.038,2.038,0,0,1-1.6.69,2,2,0,0,1-2.16-1.9c.03-1.51,1.24-2.09,2.91-2.09h.78c.06-.8-.17-1.33-.94-1.33-.53,0-.92.26-.92.77h-1.7c.09-1.36,1.25-2.01,2.7-2.02Zm-1.14,4.56a.749.749,0,0,0,.83.73,1.279,1.279,0,0,0,1.16-.62V33.99h-.63c-.89.01-1.36.3-1.36.98"/>
      <path id="fP-21" data-name="fP" d="M708.74,32.12c-.84-.14-1.64,0-1.87.6v4.15h-1.7V30.52h1.6l.05.76a1.584,1.584,0,0,1,1.94-.8"/>
      <path id="fP-22" data-name="fP" d="M713.12,32.12c-.84-.14-1.64,0-1.87.6v4.15h-1.7V30.52h1.6l.05.76a1.584,1.584,0,0,1,1.94-.8"/>
      <path id="fI-8" data-name="fI" d="M719.22,35.85a2.968,2.968,0,0,1-2.48,1.14,3.018,3.018,0,0,1-3.15-3.3c.07-1.94,1.06-3.28,2.96-3.28s2.83,1.26,2.8,3.15v.69h-4.04a1.485,1.485,0,0,0,1.54,1.37,1.817,1.817,0,0,0,1.53-.71l.83.93Zm-1.53-2.75c.03-.82-.36-1.33-1.14-1.31-.76,0-1.12.57-1.22,1.31h2.36"/>
      <path id="fP-23" data-name="fP" d="M723.89,32.12c-.84-.14-1.64,0-1.87.6v4.15h-1.7V30.52h1.6l.05.76a1.584,1.584,0,0,1,1.94-.8"/>
      <path id="fK-11" data-name="fK" d="M727.11,30.41a2.231,2.231,0,0,1,2.55,2.25v2.75a3.069,3.069,0,0,0,.25,1.37v.1H728.2a1.925,1.925,0,0,1-.17-.57,2.038,2.038,0,0,1-1.6.69,2,2,0,0,1-2.16-1.9c.03-1.51,1.24-2.09,2.91-2.09h.78c.06-.8-.17-1.33-.94-1.33-.53,0-.92.26-.92.77h-1.7c.09-1.36,1.25-2.01,2.7-2.02Zm-1.14,4.56a.749.749,0,0,0,.83.73,1.279,1.279,0,0,0,1.16-.62V33.99h-.63c-.89.01-1.36.3-1.36.98"/>
      <path id="fM-8" data-name="fM" d="M733.42,35.79c.55,0,.99-.19.99-.67a.556.556,0,0,0-.31-.49,3.249,3.249,0,0,0-.99-.32c-1.51-.32-2.26-.96-2.26-1.92,0-1.22,1.19-1.98,2.53-1.98,1.44,0,2.65.73,2.66,2.05h-1.7c-.01-.53-.36-.84-.97-.84-.5,0-.89.24-.9.69a.517.517,0,0,0,.27.45,16.929,16.929,0,0,0,1.97.59,1.778,1.778,0,0,1,1.34,1.71c0,1.75-2.49,2.37-4.08,1.66a2.113,2.113,0,0,1-1.33-1.85h1.61c.03.62.5.93,1.17.93"/>
    </g>
    <path id="Trazado_723554" data-name="Trazado 723554" d="M188.62,365.88h20.85v-4.25l8.94,10.64-8.94,10.64v-4.25H188.62V365.88Zm215.16,0h20.85v-4.25l8.94,10.64-8.94,10.64v-4.25H403.78V365.88ZM782.76,195.97h20.87v-4.25l8.94,10.64L803.63,213v-4.25H782.78Z" transform="translate(1868.83 -6499.16)" fill="#ced4db" stroke="rgba(0,0,0,0)" stroke-width="2.32"/>
    <path id="Trazado_723555" data-name="Trazado 723555" d="M833.85,177.95a7.711,7.711,0,0,1,6.81-4.09h48.55c4.2,0,7.6,12.77,7.6,28.5s-3.4,28.5-7.6,28.5H840.66a7.73,7.73,0,0,1-6.81-4.09l-10.84-20.31a8.674,8.674,0,0,1,0-8.19l10.84-20.31Z" transform="translate(1868.83 -6499.16)" fill="#cc4e00" stroke="rgba(0,0,0,0)" stroke-width="2.32"/>
    <g id="bj" transform="translate(1868.83 -6499.16)">
      <path id="ii" d="M853.08,203.8h-4.83v3.27h5.67v2.02h-8.18v-12.2h8.16v2.04h-5.65v2.91h4.83v1.97" fill="#fff"/>
      <path id="ij" d="M856.72,209.18a1.3,1.3,0,0,1-1.37-1.28,1.372,1.372,0,0,1,2.74,0,1.286,1.286,0,0,1-1.37,1.28" fill="#fff"/>
      <path id="ik" d="M867.26,206.58h-4.41l-.84,2.51h-2.67l4.54-12.2h2.33l4.57,12.2h-2.67l-.85-2.51Zm-3.73-2.04h3.05l-1.53-4.57" fill="#fff"/>
      <path id="ij-2" data-name="ij" d="M873.26,209.18a1.3,1.3,0,0,1-1.37-1.28,1.372,1.372,0,0,1,2.74,0,1.286,1.286,0,0,1-1.37,1.28" fill="#fff"/>
    </g>
  </g>
</svg>
