<svg xmlns="http://www.w3.org/2000/svg" xmlns:xlink="http://www.w3.org/1999/xlink" width="95" height="95" viewBox="0 0 95 95">
  <defs>
    <clipPath id="clip-path">
      <rect id="Rect치ngulo_351418" data-name="Rect치ngulo 351418" width="86.592" height="83.553" transform="translate(0 0)" fill="none"/>
    </clipPath>
  </defs>
  <g id="Grupo_1009032" data-name="Grupo 1009032" transform="translate(4352 8210)">
    <rect id="Rect치ngulo_351403" data-name="Rect치ngulo 351403" width="95" height="95" transform="translate(-4352 -8210)" fill="none"/>
    <g id="Grupo_1009026" data-name="Grupo 1009026" transform="translate(-4348 -8204)">
      <g id="Grupo_1009025" data-name="Grupo 1009025" clip-path="url(#clip-path)">
        <path id="Trazado_721636" data-name="Trazado 721636" d="M86.592,32.662A32.662,32.662,0,1,1,53.93,0,32.661,32.661,0,0,1,86.592,32.662" fill="#dcfbff"/>
        <path id="Trazado_721637" data-name="Trazado 721637" d="M28.864,82.034V33.246a5.9,5.9,0,0,1,5.9-5.9H59.422a5.9,5.9,0,0,1,5.9,5.9V82.034" fill="#fff"/>
        <path id="Trazado_721638" data-name="Trazado 721638" d="M65.323,83.553a1.519,1.519,0,0,1-1.518-1.519V33.247a4.389,4.389,0,0,0-4.384-4.383H34.767a4.389,4.389,0,0,0-4.384,4.383V82.034a1.519,1.519,0,0,1-3.039,0V33.247a7.431,7.431,0,0,1,7.423-7.422H59.421a7.43,7.43,0,0,1,7.421,7.422V82.034a1.519,1.519,0,0,1-1.519,1.519" fill="#282828"/>
        <path id="Trazado_721639" data-name="Trazado 721639" d="M56.506,41.017H37.683a4.261,4.261,0,0,1-4.261-4.262V27.049a4.261,4.261,0,0,1,4.261-4.262H56.506a4.261,4.261,0,0,1,4.26,4.262v9.706a4.261,4.261,0,0,1-4.26,4.262" fill="#a9ba5a"/>
        <path id="Trazado_721640" data-name="Trazado 721640" d="M56.5,42.536H37.683a5.788,5.788,0,0,1-5.781-5.78V27.049a5.789,5.789,0,0,1,5.781-5.781H56.506a5.787,5.787,0,0,1,5.779,5.781v9.707a5.786,5.786,0,0,1-5.781,5.78M37.683,24.307a2.744,2.744,0,0,0-2.742,2.742v9.707A2.744,2.744,0,0,0,37.683,39.5H56.506a2.744,2.744,0,0,0,2.742-2.742V27.049a2.745,2.745,0,0,0-2.742-2.742Z" fill="#282828"/>
        <path id="Trazado_721641" data-name="Trazado 721641" d="M39.5,80.666V63.8H54.689V80.666" fill="#a9ba5a"/>
        <path id="Trazado_721642" data-name="Trazado 721642" d="M54.689,82.186a1.519,1.519,0,0,1-1.518-1.519V65.324H41.017V80.667a1.519,1.519,0,0,1-3.039,0V63.8a1.52,1.52,0,0,1,1.52-1.518H54.689a1.52,1.52,0,0,1,1.52,1.518V80.667a1.52,1.52,0,0,1-1.52,1.519" fill="#282828"/>
        <path id="Trazado_721643" data-name="Trazado 721643" d="M51.537,45.575a9.212,9.212,0,0,1,9.229,9.193V72.92H33.422V54.768a9.211,9.211,0,0,1,9.229-9.193Z" fill="#a9ba5a"/>
        <path id="Trazado_721644" data-name="Trazado 721644" d="M60.766,74.438H33.422A1.518,1.518,0,0,1,31.9,72.919V54.769A10.743,10.743,0,0,1,42.651,44.055h8.886A10.744,10.744,0,0,1,62.286,54.769v18.15a1.519,1.519,0,0,1-1.52,1.519M34.941,71.4H59.248V54.769a7.7,7.7,0,0,0-7.711-7.675H42.651a7.7,7.7,0,0,0-7.71,7.675Z" fill="#282828"/>
        <path id="Trazado_721645" data-name="Trazado 721645" d="M39.5,74.438a1.518,1.518,0,0,1-1.519-1.518V56.209a1.519,1.519,0,1,1,3.038,0V72.92A1.518,1.518,0,0,1,39.5,74.438" fill="#282828"/>
        <path id="Trazado_721646" data-name="Trazado 721646" d="M54.689,74.438a1.518,1.518,0,0,1-1.518-1.518V56.209a1.519,1.519,0,1,1,3.038,0V72.92a1.519,1.519,0,0,1-1.52,1.518" fill="#282828"/>
        <path id="Trazado_721647" data-name="Trazado 721647" d="M53.171,28.864H41.018v9.115a3.038,3.038,0,0,0,3.038,3.038v6.077a3.038,3.038,0,0,0,6.076,0V41.017a3.039,3.039,0,0,0,3.039-3.038Z" fill="#ffe8dc"/>
        <path id="Trazado_721648" data-name="Trazado 721648" d="M47.094,51.652A4.563,4.563,0,0,1,42.537,47.1V42.277a4.567,4.567,0,0,1-3.039-4.3V28.864a1.519,1.519,0,0,1,1.52-1.519H53.171a1.518,1.518,0,0,1,1.518,1.519v9.115a4.566,4.566,0,0,1-3.037,4.3V47.1a4.563,4.563,0,0,1-4.558,4.557M42.537,30.384v7.595A1.521,1.521,0,0,0,44.056,39.5a1.52,1.52,0,0,1,1.519,1.52V47.1a1.519,1.519,0,0,0,3.039,0V41.018a1.519,1.519,0,0,1,1.518-1.52,1.521,1.521,0,0,0,1.52-1.519V30.384Z" fill="#282828"/>
        <path id="Trazado_721649" data-name="Trazado 721649" d="M53.171,28.864H41.832a3.854,3.854,0,0,1-3.853-3.854V22.787h9.307a5.886,5.886,0,0,1,5.885,5.885Z" fill="#ffce56"/>
        <path id="Trazado_721650" data-name="Trazado 721650" d="M53.171,30.384H41.832a5.379,5.379,0,0,1-5.372-5.373V22.788a1.52,1.52,0,0,1,1.519-1.52h9.308a7.411,7.411,0,0,1,7.4,7.4v.192a1.518,1.518,0,0,1-1.518,1.52M39.5,24.307v.7a2.337,2.337,0,0,0,2.334,2.334h9.613a4.371,4.371,0,0,0-4.158-3.038Z" fill="#282828"/>
        <path id="Trazado_721651" data-name="Trazado 721651" d="M50.761,11.263a1.513,1.513,0,0,1-1.074-.445l-4.3-4.3a1.519,1.519,0,0,1,2.149-2.148l4.3,4.295a1.519,1.519,0,0,1-1.074,2.594" fill="#282828"/>
        <path id="Trazado_721652" data-name="Trazado 721652" d="M46.465,11.263a1.519,1.519,0,0,1-1.074-2.594l4.3-4.295a1.519,1.519,0,0,1,2.149,2.148l-4.3,4.3a1.513,1.513,0,0,1-1.074.445" fill="#282828"/>
        <path id="Trazado_721653" data-name="Trazado 721653" d="M17.582,37.979H6.724a5.206,5.206,0,0,1-5.2-5.205V18.231H22.787V32.774a5.206,5.206,0,0,1-5.2,5.205" fill="#81d4fa"/>
        <path id="Trazado_721654" data-name="Trazado 721654" d="M17.582,39.5H6.726A6.733,6.733,0,0,1,0,32.774V18.231a1.519,1.519,0,0,1,1.52-1.52H22.788a1.519,1.519,0,0,1,1.519,1.52V32.774A6.733,6.733,0,0,1,17.582,39.5M3.039,19.75V32.774a3.69,3.69,0,0,0,3.687,3.685H17.582a3.69,3.69,0,0,0,3.687-3.685V19.75Z" fill="#282828"/>
        <path id="Trazado_721655" data-name="Trazado 721655" d="M22.787,18.23H1.519V5.89A2.851,2.851,0,0,1,4.37,3.039H19.936A2.85,2.85,0,0,1,22.787,5.89Z" fill="#81d4fa"/>
        <path id="Trazado_721656" data-name="Trazado 721656" d="M22.788,19.75H1.52A1.519,1.519,0,0,1,0,18.23V5.89A4.375,4.375,0,0,1,4.371,1.52H19.937a4.374,4.374,0,0,1,4.37,4.37V18.23a1.519,1.519,0,0,1-1.519,1.52M3.039,16.711h18.23V5.89a1.333,1.333,0,0,0-1.332-1.332H4.371A1.333,1.333,0,0,0,3.039,5.89Z" fill="#282828"/>
        <path id="Trazado_721657" data-name="Trazado 721657" d="M20.509,75.957a9.886,9.886,0,0,1-9.874-9.874v-28.1a1.519,1.519,0,1,1,3.038,0v28.1a6.836,6.836,0,0,0,13.672,0V57.568a1.52,1.52,0,0,1,3.039,0v8.515a9.886,9.886,0,0,1-9.875,9.874" fill="#282828"/>
        <path id="Trazado_721658" data-name="Trazado 721658" d="M7.6,24.307H6.077a1.519,1.519,0,0,1,0-3.039H7.6a1.519,1.519,0,0,1,0,3.039" fill="#282828"/>
        <path id="Trazado_721659" data-name="Trazado 721659" d="M7.6,28.864H6.077a1.519,1.519,0,0,1,0-3.039H7.6a1.519,1.519,0,0,1,0,3.039" fill="#282828"/>
        <path id="Trazado_721660" data-name="Trazado 721660" d="M7.6,33.421H6.077a1.519,1.519,0,0,1,0-3.038H7.6a1.519,1.519,0,0,1,0,3.038" fill="#282828"/>
        <path id="Trazado_721661" data-name="Trazado 721661" d="M33.421,74.862V59.247H39.5V74.862a2.615,2.615,0,0,1-2.614,2.615h-.848a2.615,2.615,0,0,1-2.615-2.615" fill="#ffe8dc"/>
        <path id="Trazado_721662" data-name="Trazado 721662" d="M36.885,79h-.849A4.138,4.138,0,0,1,31.9,74.862V59.247a1.518,1.518,0,0,1,1.519-1.519H39.5a1.519,1.519,0,0,1,1.52,1.519V74.862A4.138,4.138,0,0,1,36.885,79m-1.944-18.23v14.1a1.1,1.1,0,0,0,1.095,1.1h.849a1.094,1.094,0,0,0,1.094-1.1v-14.1Z" fill="#282828"/>
        <path id="Trazado_721663" data-name="Trazado 721663" d="M54.689,74.862V59.247h6.077V74.862a2.615,2.615,0,0,1-2.614,2.615H57.3a2.615,2.615,0,0,1-2.615-2.615" fill="#ffe8dc"/>
        <path id="Trazado_721664" data-name="Trazado 721664" d="M58.152,79H57.3a4.138,4.138,0,0,1-4.133-4.134V59.247a1.518,1.518,0,0,1,1.518-1.519h6.077a1.519,1.519,0,0,1,1.52,1.519V74.862A4.139,4.139,0,0,1,58.152,79m-1.943-18.23v14.1a1.1,1.1,0,0,0,1.1,1.1h.848a1.1,1.1,0,0,0,1.1-1.1v-14.1Z" fill="#282828"/>
        <path id="Trazado_721665" data-name="Trazado 721665" d="M12.153,15.191a1.517,1.517,0,0,1-1.518-1.518V7.6a1.518,1.518,0,1,1,3.037,0v6.077a1.518,1.518,0,0,1-1.519,1.518" fill="#282828"/>
        <path id="Trazado_721666" data-name="Trazado 721666" d="M15.192,12.153H9.115a1.519,1.519,0,0,1,0-3.038h6.077a1.519,1.519,0,0,1,0,3.038" fill="#282828"/>
        <path id="Trazado_721667" data-name="Trazado 721667" d="M71.4,21.268a4.557,4.557,0,1,1,4.557-4.557A4.562,4.562,0,0,1,71.4,21.268m0-6.077a1.519,1.519,0,1,0,1.519,1.52,1.521,1.521,0,0,0-1.519-1.52" fill="#282828"/>
        <path id="Trazado_721668" data-name="Trazado 721668" d="M79.957,32.662a1.721,1.721,0,1,1-1.72-1.72,1.721,1.721,0,0,1,1.72,1.72" fill="#282828"/>
      </g>
    </g>
  </g>
</svg>
