<svg xmlns="http://www.w3.org/2000/svg" xmlns:xlink="http://www.w3.org/1999/xlink" width="95" height="95" viewBox="0 0 95 95">
  <defs>
    <clipPath id="clip-path">
      <rect id="Rectángulo_351407" data-name="Rectángulo 351407" width="94.186" height="89.629" transform="translate(0 0)" fill="none"/>
    </clipPath>
  </defs>
  <g id="Grupo_1009029" data-name="Grupo 1009029" transform="translate(4352 8638)">
    <rect id="Rectángulo_351399" data-name="Rectángulo 351399" width="95" height="95" transform="translate(-4352 -8638)" fill="none"/>
    <g id="Grupo_1009020" data-name="Grupo 1009020" transform="translate(-4352 -8635)">
      <g id="Grupo_1009019" data-name="Grupo 1009019" clip-path="url(#clip-path)">
        <path id="Trazado_721543" data-name="Trazado 721543" d="M82.034,46.334a32.66,32.66,0,1,1-9.566-23.1,32.661,32.661,0,0,1,9.566,23.1" fill="#dcfbff"/>
        <path id="Trazado_721544" data-name="Trazado 721544" d="M45.015,23.546a1.72,1.72,0,1,1-1.72-1.72,1.72,1.72,0,0,1,1.72,1.72" fill="#282828"/>
        <path id="Trazado_721545" data-name="Trazado 721545" d="M23.747,29.623a1.72,1.72,0,1,1-1.72-1.72,1.72,1.72,0,0,1,1.72,1.72" fill="#282828"/>
        <path id="Trazado_721546" data-name="Trazado 721546" d="M24.306,57.727V51.938a6.363,6.363,0,0,0-6.363-6.364H10.634V57.727Z" fill="#ffded5"/>
        <path id="Trazado_721547" data-name="Trazado 721547" d="M24.305,59.246H10.634a1.52,1.52,0,0,1-1.52-1.519V45.573a1.52,1.52,0,0,1,1.52-1.518h7.309a7.891,7.891,0,0,1,7.882,7.882v5.79a1.519,1.519,0,0,1-1.52,1.519M12.152,56.207H22.786v-4.27a4.849,4.849,0,0,0-4.843-4.844H12.152Z" fill="#282828"/>
        <path id="Trazado_721548" data-name="Trazado 721548" d="M55.49,50.132a7.768,7.768,0,0,0-7.064-4.558H30.613a6.307,6.307,0,0,0-6.308,6.306v5.847H89.629V53.539a3.407,3.407,0,0,0-3.408-3.407Z" fill="#81d4fa"/>
        <path id="Trazado_721549" data-name="Trazado 721549" d="M89.629,59.246H24.306a1.519,1.519,0,0,1-1.52-1.519V51.879a7.835,7.835,0,0,1,7.826-7.824H48.425a9.317,9.317,0,0,1,7.981,4.557H86.22a4.933,4.933,0,0,1,4.928,4.927v4.188a1.519,1.519,0,0,1-1.519,1.519m-63.8-3.039H88.109V53.539A1.891,1.891,0,0,0,86.22,51.65H55.49a1.517,1.517,0,0,1-1.381-.887,6.275,6.275,0,0,0-5.684-3.67H30.612a4.792,4.792,0,0,0-4.787,4.786Z" fill="#282828"/>
        <path id="Trazado_721550" data-name="Trazado 721550" d="M6.077,66.841H88.11a4.557,4.557,0,1,0,0-9.114H6.077a4.557,4.557,0,1,0,0,9.114" fill="#fff"/>
        <path id="Trazado_721551" data-name="Trazado 721551" d="M88.11,68.361H6.077a6.076,6.076,0,1,1,0-12.153H88.11a6.076,6.076,0,0,1,0,12.153M6.077,59.247a3.038,3.038,0,1,0,0,6.077H88.11a3.038,3.038,0,0,0,0-6.077Z" fill="#282828"/>
        <rect id="Rectángulo_351405" data-name="Rectángulo 351405" width="4.557" height="21.269" transform="translate(80.515 66.842)" fill="#b5a19c"/>
        <path id="Trazado_721552" data-name="Trazado 721552" d="M85.072,89.629H80.515A1.519,1.519,0,0,1,79,88.111V66.842a1.52,1.52,0,0,1,1.52-1.519h4.557a1.52,1.52,0,0,1,1.519,1.519V88.111a1.519,1.519,0,0,1-1.519,1.518m-3.038-3.038h1.518V68.361H82.034Z" fill="#282828"/>
        <rect id="Rectángulo_351406" data-name="Rectángulo 351406" width="4.557" height="21.269" transform="translate(7.595 66.842)" fill="#b5a19c"/>
        <path id="Trazado_721553" data-name="Trazado 721553" d="M12.152,89.629H7.595a1.518,1.518,0,0,1-1.518-1.518V66.842a1.519,1.519,0,0,1,1.518-1.519h4.557a1.52,1.52,0,0,1,1.52,1.519V88.111a1.52,1.52,0,0,1-1.52,1.518M9.115,86.591h1.519V68.361H9.115Z" fill="#282828"/>
        <path id="Trazado_721554" data-name="Trazado 721554" d="M28.863,51.65H51.65a3.038,3.038,0,1,1,0,6.077H28.863" fill="#ffe8dc"/>
        <path id="Trazado_721555" data-name="Trazado 721555" d="M51.65,59.247H28.863a1.52,1.52,0,0,1,0-3.039H51.65a1.519,1.519,0,0,0,0-3.038H28.863a1.519,1.519,0,1,1,0-3.038H51.65a4.558,4.558,0,0,1,0,9.115" fill="#282828"/>
        <path id="Trazado_721556" data-name="Trazado 721556" d="M10.634,48.612v9.115H8.086A3.529,3.529,0,0,1,4.557,54.2V42.535a6.077,6.077,0,0,1,6.077,6.077" fill="#ffce56"/>
        <path id="Trazado_721557" data-name="Trazado 721557" d="M10.634,59.247H8.087A5.055,5.055,0,0,1,3.038,54.2V42.536a1.519,1.519,0,0,1,1.52-1.519,7.6,7.6,0,0,1,7.594,7.6v9.114a1.519,1.519,0,0,1-1.518,1.52M6.077,44.315V54.2a2.013,2.013,0,0,0,2.01,2.01H9.115v-7.6a4.568,4.568,0,0,0-3.038-4.3" fill="#282828"/>
        <path id="Trazado_721558" data-name="Trazado 721558" d="M91.148,89.629H3.038a1.519,1.519,0,1,1,0-3.038h88.11a1.519,1.519,0,1,1,0,3.038" fill="#282828"/>
        <path id="Trazado_721559" data-name="Trazado 721559" d="M20.585,19.832a1.513,1.513,0,0,1-1.074-.445L14.953,14.83A1.519,1.519,0,1,1,17.1,12.681l4.558,4.557a1.52,1.52,0,0,1-1.074,2.594" fill="#282828"/>
        <path id="Trazado_721560" data-name="Trazado 721560" d="M16.028,19.832a1.52,1.52,0,0,1-1.074-2.594l4.557-4.557A1.52,1.52,0,1,1,21.66,14.83L17.1,19.387a1.509,1.509,0,0,1-1.073.445" fill="#282828"/>
        <path id="Trazado_721561" data-name="Trazado 721561" d="M45.574,37.979a4.558,4.558,0,1,1,4.557-4.557,4.562,4.562,0,0,1-4.557,4.557m0-6.077a1.519,1.519,0,1,0,1.519,1.52,1.521,1.521,0,0,0-1.519-1.52" fill="#282828"/>
        <path id="Trazado_721562" data-name="Trazado 721562" d="M87.551,20.9l.559-9.766a17.3,17.3,0,0,1-6.159,1.027c-4.37,0-8.014-1.308-8.851-3.045h-.362c-.838,1.737-4.482,3.045-8.852,3.045a17.3,17.3,0,0,1-6.159-1.027l.559,9.765a21.662,21.662,0,0,0,9.649,16.812l4.984,3.307,4.979-3.3A21.66,21.66,0,0,0,87.551,20.9" fill="#ffce56"/>
        <path id="Trazado_721563" data-name="Trazado 721563" d="M72.919,42.535a1.517,1.517,0,0,1-.84-.253L67.1,38.975A23.291,23.291,0,0,1,56.769,20.984l-.559-9.765a1.52,1.52,0,0,1,2.074-1.5,15.79,15.79,0,0,0,5.6.921c4.2,0,7.041-1.267,7.483-2.184a1.52,1.52,0,0,1,1.369-.86H73.1a1.518,1.518,0,0,1,1.369.86c.442.917,3.287,2.184,7.483,2.184a15.8,15.8,0,0,0,5.6-.921,1.519,1.519,0,0,1,2.073,1.5l-.558,9.766A23.3,23.3,0,0,1,78.738,38.98l-4.979,3.3a1.524,1.524,0,0,1-.84.252M59.367,13.2,59.8,20.81a20.243,20.243,0,0,0,8.974,15.634l4.143,2.749,4.14-2.746a20.236,20.236,0,0,0,8.976-15.636L86.47,13.2a21.036,21.036,0,0,1-4.519.473c-3.307,0-7.008-.766-9.032-2.442-2.024,1.676-5.725,2.442-9.033,2.442a21.043,21.043,0,0,1-4.519-.473M87.551,20.9h0Z" fill="#282828"/>
        <path id="Trazado_721564" data-name="Trazado 721564" d="M73.1,9.115h-.182v31.9l4.979-3.3A21.66,21.66,0,0,0,87.551,20.9l.558-9.766A17.287,17.287,0,0,1,81.95,12.16c-4.369,0-8.013-1.308-8.85-3.045" fill="#fc8c29"/>
        <path id="Trazado_721565" data-name="Trazado 721565" d="M72.919,42.536a1.52,1.52,0,0,1-1.519-1.52V9.115a1.519,1.519,0,0,1,1.519-1.52H73.1a1.521,1.521,0,0,1,1.369.86c.441.916,3.287,2.185,7.483,2.185a15.8,15.8,0,0,0,5.6-.922,1.52,1.52,0,0,1,2.073,1.5l-.558,9.766A23.3,23.3,0,0,1,78.738,38.98l-4.979,3.3a1.528,1.528,0,0,1-.84.253m1.519-30.343V38.186l2.621-1.738a20.239,20.239,0,0,0,8.976-15.637L86.47,13.2a21.1,21.1,0,0,1-4.519.473,18.069,18.069,0,0,1-7.513-1.485" fill="#282828"/>
        <path id="Trazado_721566" data-name="Trazado 721566" d="M72.918,4.557A1.518,1.518,0,0,1,71.4,3.038V1.518a1.518,1.518,0,0,1,3.037,0v1.52a1.519,1.519,0,0,1-1.519,1.519" fill="#282828"/>
        <path id="Trazado_721567" data-name="Trazado 721567" d="M77.475,6.077A1.52,1.52,0,0,1,76.4,3.483L77.92,1.965a1.519,1.519,0,1,1,2.149,2.148L78.55,5.632a1.513,1.513,0,0,1-1.075.445" fill="#282828"/>
        <path id="Trazado_721568" data-name="Trazado 721568" d="M68.361,6.077a1.513,1.513,0,0,1-1.074-.445L65.768,4.113a1.519,1.519,0,0,1,2.148-2.148l1.519,1.518a1.52,1.52,0,0,1-1.074,2.594" fill="#282828"/>
      </g>
    </g>
  </g>
</svg>
