<svg xmlns="http://www.w3.org/2000/svg" xmlns:xlink="http://www.w3.org/1999/xlink" width="95" height="95" viewBox="0 0 95 95">
  <defs>
    <clipPath id="clip-path">
      <rect id="Rectángulo_351386" data-name="Rectángulo 351386" width="89.629" height="91.15" transform="translate(0 0)" fill="none"/>
    </clipPath>
  </defs>
  <g id="Grupo_1009018" data-name="Grupo 1009018" transform="translate(4352 9063)">
    <rect id="Rectángulo_351394" data-name="Rectángulo 351394" width="95" height="95" transform="translate(-4352 -9063)" fill="none"/>
    <g id="Grupo_1009011" data-name="Grupo 1009011" transform="translate(-4349 -9061)">
      <g id="Grupo_1009010" data-name="Grupo 1009010" clip-path="url(#clip-path)">
        <path id="Trazado_721437" data-name="Trazado 721437" d="M65.323,32.662A32.661,32.661,0,1,1,32.661,0,32.661,32.661,0,0,1,65.323,32.662" fill="#dcfbff"/>
        <path id="Trazado_721438" data-name="Trazado 721438" d="M68.361,13.673a4.558,4.558,0,1,1,4.557-4.558,4.563,4.563,0,0,1-4.557,4.558m0-6.077A1.519,1.519,0,1,0,69.88,9.115,1.521,1.521,0,0,0,68.361,7.6" fill="#282828"/>
        <path id="Trazado_721439" data-name="Trazado 721439" d="M36.715,9.911A1.625,1.625,0,1,1,35.09,8.286a1.625,1.625,0,0,1,1.625,1.625" fill="#282828"/>
        <path id="Trazado_721440" data-name="Trazado 721440" d="M14.508,10.718a1.513,1.513,0,0,1-1.074-.445L8.876,5.716a1.519,1.519,0,0,1,2.149-2.148l4.557,4.557a1.519,1.519,0,0,1-1.074,2.593" fill="#282828"/>
        <path id="Trazado_721441" data-name="Trazado 721441" d="M9.951,10.718A1.519,1.519,0,0,1,8.877,8.125l4.557-4.557a1.519,1.519,0,0,1,2.149,2.148l-4.558,4.557a1.511,1.511,0,0,1-1.074.445" fill="#282828"/>
        <path id="Trazado_721442" data-name="Trazado 721442" d="M88.11,68.362H6.076V26.786a7.037,7.037,0,0,1,7.036-7.037h67.96a7.038,7.038,0,0,1,7.038,7.037Z" fill="#81d4fa"/>
        <path id="Trazado_721443" data-name="Trazado 721443" d="M88.11,69.882H6.076a1.518,1.518,0,0,1-1.519-1.52V26.786a8.566,8.566,0,0,1,8.556-8.556h67.96a8.566,8.566,0,0,1,8.556,8.556V68.362a1.518,1.518,0,0,1-1.519,1.52M7.595,66.843h79V26.786a5.524,5.524,0,0,0-5.517-5.518H13.113a5.524,5.524,0,0,0-5.518,5.518Z" fill="#282828"/>
        <path id="Trazado_721444" data-name="Trazado 721444" d="M88.11,68.362H6.076v3.6A7.036,7.036,0,0,0,13.112,79h67.96a7.037,7.037,0,0,0,7.037-7.036v-3.6Z" fill="#eaeaea"/>
        <path id="Trazado_721445" data-name="Trazado 721445" d="M81.074,80.516H13.113a8.566,8.566,0,0,1-8.556-8.557v-3.6a1.518,1.518,0,0,1,1.519-1.52H88.11a1.518,1.518,0,0,1,1.519,1.52v3.6a8.566,8.566,0,0,1-8.555,8.557M7.595,69.882v2.077a5.524,5.524,0,0,0,5.518,5.518h67.96a5.524,5.524,0,0,0,5.517-5.518V69.882Z" fill="#282828"/>
        <path id="Trazado_721446" data-name="Trazado 721446" d="M50.022,73.723A2.323,2.323,0,1,1,47.7,71.4a2.324,2.324,0,0,1,2.323,2.323" fill="#282828"/>
        <path id="Trazado_721447" data-name="Trazado 721447" d="M59.247,89.63H36.46L39.5,79H56.208Z" fill="#eaeaea"/>
        <path id="Trazado_721448" data-name="Trazado 721448" d="M59.246,91.15H36.459A1.52,1.52,0,0,1,35,89.212l3.039-10.634a1.522,1.522,0,0,1,1.462-1.1h16.71a1.523,1.523,0,0,1,1.462,1.1l3.037,10.634a1.52,1.52,0,0,1-1.461,1.938M38.473,88.111H57.232l-2.169-7.6H40.643Z" fill="#282828"/>
        <path id="Trazado_721449" data-name="Trazado 721449" d="M36.459,91.15H19.748a1.52,1.52,0,0,1,0-3.039H36.459a1.52,1.52,0,0,1,0,3.039" fill="#282828"/>
        <path id="Trazado_721450" data-name="Trazado 721450" d="M75.957,91.15H59.246a1.52,1.52,0,0,1,0-3.039H75.957a1.52,1.52,0,0,1,0,3.039" fill="#282828"/>
        <path id="Trazado_721451" data-name="Trazado 721451" d="M35.7,36.46H15.951a2.278,2.278,0,1,0,0,4.557h6.837v7.058L17.71,59.747a2.279,2.279,0,1,0,4.077,2.039l4.038-9.6,4.038,9.6a2.28,2.28,0,0,0,4.078-2.039L28.863,48.075V41.017H35.7a2.278,2.278,0,1,0,0-4.557" fill="#ffded5"/>
        <path id="Trazado_721452" data-name="Trazado 721452" d="M31.9,64.565a3.779,3.779,0,0,1-3.4-2.1l-2.68-6.36-2.638,6.27a3.85,3.85,0,0,1-5.134,1.789,3.8,3.8,0,0,1-1.7-5.1l4.917-11.31V42.537H15.95a3.8,3.8,0,0,1,0-7.6H35.7a3.8,3.8,0,0,1,0,7.6H30.382v5.221l4.95,11.383A3.8,3.8,0,0,1,31.9,64.565M25.825,50.671a1.519,1.519,0,0,1,1.4.93L31.264,61.2a.765.765,0,0,0,1.317-.771L27.471,48.68a1.511,1.511,0,0,1-.127-.606V41.018a1.519,1.519,0,0,1,1.52-1.52H35.7a.76.76,0,0,0,0-1.52H15.95a.76.76,0,0,0,0,1.52h6.837a1.519,1.519,0,0,1,1.519,1.52v7.057a1.507,1.507,0,0,1-.127.606L19.1,60.353a.785.785,0,0,0,.306,1.092.735.735,0,0,0,1.019-.339l4-9.5a1.518,1.518,0,0,1,1.4-.93" fill="#282828"/>
        <path id="Trazado_721453" data-name="Trazado 721453" d="M30.382,30.384a4.557,4.557,0,1,1-4.557-4.557,4.557,4.557,0,0,1,4.557,4.557" fill="#ffded5"/>
        <path id="Trazado_721454" data-name="Trazado 721454" d="M25.825,36.46A6.076,6.076,0,1,1,31.9,30.384a6.083,6.083,0,0,1-6.077,6.076m0-9.115a3.039,3.039,0,1,0,3.038,3.039,3.042,3.042,0,0,0-3.038-3.039" fill="#282828"/>
        <path id="Trazado_721455" data-name="Trazado 721455" d="M50.132,30.384H36.459a1.52,1.52,0,0,1,0-3.039H50.132a1.52,1.52,0,0,1,0,3.039" fill="#282828"/>
        <rect id="Rectángulo_351382" data-name="Rectángulo 351382" width="18.229" height="6.077" transform="translate(50.132 25.827)" fill="#a9ba5a"/>
        <path id="Trazado_721456" data-name="Trazado 721456" d="M68.361,33.422H50.132A1.519,1.519,0,0,1,48.613,31.9V25.827a1.518,1.518,0,0,1,1.519-1.52H68.361a1.518,1.518,0,0,1,1.519,1.52V31.9a1.519,1.519,0,0,1-1.519,1.519M51.65,30.384H66.841V27.345H51.65Z" fill="#282828"/>
        <rect id="Rectángulo_351383" data-name="Rectángulo 351383" width="22.787" height="6.077" transform="translate(56.207 36.461)" fill="#a9ba5a"/>
        <path id="Trazado_721457" data-name="Trazado 721457" d="M79,44.056H56.207a1.519,1.519,0,0,1-1.518-1.519V36.461a1.518,1.518,0,0,1,1.518-1.52H79a1.518,1.518,0,0,1,1.519,1.52v6.076A1.519,1.519,0,0,1,79,44.056M57.727,41.018H77.475V37.979H57.727Z" fill="#282828"/>
        <rect id="Rectángulo_351384" data-name="Rectángulo 351384" width="10.634" height="6.077" transform="translate(53.17 48.613)" fill="#a9ba5a"/>
        <path id="Trazado_721458" data-name="Trazado 721458" d="M63.8,56.209H53.17a1.518,1.518,0,0,1-1.52-1.519V48.613A1.518,1.518,0,0,1,53.17,47.1H63.8a1.518,1.518,0,0,1,1.519,1.518V54.69A1.518,1.518,0,0,1,63.8,56.209m-9.115-3.038h7.6V50.132h-7.6Z" fill="#282828"/>
        <path id="Trazado_721459" data-name="Trazado 721459" d="M54.689,41.018H42.536a1.52,1.52,0,1,1,0-3.039H54.689a1.52,1.52,0,0,1,0,3.039" fill="#282828"/>
        <path id="Trazado_721460" data-name="Trazado 721460" d="M51.65,53.171H37.978a1.52,1.52,0,0,1,0-3.039H51.65a1.52,1.52,0,0,1,0,3.039" fill="#282828"/>
        <rect id="Rectángulo_351385" data-name="Rectángulo 351385" width="18.23" height="21.268" transform="translate(69.88 47.095)" fill="#fff"/>
        <path id="Trazado_721461" data-name="Trazado 721461" d="M88.111,69.882H69.88a1.518,1.518,0,0,1-1.519-1.519V47.1a1.518,1.518,0,0,1,1.519-1.52H88.111a1.518,1.518,0,0,1,1.518,1.52V68.363a1.518,1.518,0,0,1-1.518,1.519M71.4,66.843H86.591V48.613H71.4Z" fill="#282828"/>
        <path id="Trazado_721462" data-name="Trazado 721462" d="M83.552,54.689H74.437a1.519,1.519,0,0,1,0-3.038h9.115a1.519,1.519,0,0,1,0,3.038" fill="#282828"/>
        <path id="Trazado_721463" data-name="Trazado 721463" d="M83.552,59.247H74.437a1.519,1.519,0,0,1,0-3.038h9.115a1.519,1.519,0,0,1,0,3.038" fill="#282828"/>
        <path id="Trazado_721464" data-name="Trazado 721464" d="M83.552,63.805H74.437a1.52,1.52,0,0,1,0-3.039h9.115a1.52,1.52,0,0,1,0,3.039" fill="#282828"/>
      </g>
    </g>
  </g>
</svg>
