<svg xmlns="http://www.w3.org/2000/svg" xmlns:xlink="http://www.w3.org/1999/xlink" width="95" height="95" viewBox="0 0 95 95">
  <defs>
    <clipPath id="clip-path">
      <rect id="Rect치ngulo_351417" data-name="Rect치ngulo 351417" width="89.629" height="91.15" transform="translate(0 0)" fill="none"/>
    </clipPath>
  </defs>
  <g id="Grupo_1009031" data-name="Grupo 1009031" transform="translate(3650 8638)">
    <rect id="Rect치ngulo_351401" data-name="Rect치ngulo 351401" width="95" height="95" transform="translate(-3650 -8638)" fill="none"/>
    <g id="Grupo_1009024" data-name="Grupo 1009024" transform="translate(-3647 -8636)">
      <g id="Grupo_1009023" data-name="Grupo 1009023" clip-path="url(#clip-path)">
        <path id="Trazado_721609" data-name="Trazado 721609" d="M65.323,32.662A32.661,32.661,0,1,1,32.661,0,32.661,32.661,0,0,1,65.323,32.662" fill="#dcfbff"/>
        <path id="Trazado_721610" data-name="Trazado 721610" d="M68.361,13.673a4.558,4.558,0,1,1,4.557-4.558,4.563,4.563,0,0,1-4.557,4.558m0-6.077A1.519,1.519,0,1,0,69.88,9.115,1.521,1.521,0,0,0,68.361,7.6" fill="#282828"/>
        <path id="Trazado_721611" data-name="Trazado 721611" d="M36.715,9.911A1.625,1.625,0,1,1,35.09,8.286a1.625,1.625,0,0,1,1.625,1.625" fill="#282828"/>
        <path id="Trazado_721612" data-name="Trazado 721612" d="M14.508,10.718a1.513,1.513,0,0,1-1.074-.445L8.876,5.716a1.519,1.519,0,0,1,2.149-2.148l4.557,4.557a1.519,1.519,0,0,1-1.074,2.593" fill="#282828"/>
        <path id="Trazado_721613" data-name="Trazado 721613" d="M9.951,10.718A1.519,1.519,0,0,1,8.877,8.125l4.557-4.557a1.519,1.519,0,0,1,2.149,2.148l-4.558,4.557a1.511,1.511,0,0,1-1.074.445" fill="#282828"/>
        <path id="Trazado_721614" data-name="Trazado 721614" d="M88.11,68.362H6.076V26.786a7.037,7.037,0,0,1,7.036-7.037h67.96a7.038,7.038,0,0,1,7.038,7.037Z" fill="#fff"/>
        <path id="Trazado_721615" data-name="Trazado 721615" d="M88.11,69.882H6.076a1.519,1.519,0,0,1-1.519-1.52V26.786a8.567,8.567,0,0,1,8.556-8.556h67.96a8.567,8.567,0,0,1,8.556,8.556V68.362a1.52,1.52,0,0,1-1.519,1.52M7.595,66.843h79V26.786a5.525,5.525,0,0,0-5.518-5.518H13.113a5.524,5.524,0,0,0-5.518,5.518Z" fill="#282828"/>
        <path id="Trazado_721616" data-name="Trazado 721616" d="M88.11,68.362H6.076v3.6A7.036,7.036,0,0,0,13.112,79h67.96a7.037,7.037,0,0,0,7.037-7.036v-3.6Z" fill="#eaeaea"/>
        <path id="Trazado_721617" data-name="Trazado 721617" d="M81.073,80.516H13.113a8.567,8.567,0,0,1-8.556-8.557v-3.6a1.519,1.519,0,0,1,1.519-1.52H88.11a1.52,1.52,0,0,1,1.519,1.52v3.6a8.567,8.567,0,0,1-8.556,8.557M7.595,69.882v2.077a5.524,5.524,0,0,0,5.518,5.518h67.96a5.524,5.524,0,0,0,5.517-5.518V69.882Z" fill="#282828"/>
        <path id="Trazado_721618" data-name="Trazado 721618" d="M50.022,73.723A2.323,2.323,0,1,1,47.7,71.4a2.324,2.324,0,0,1,2.323,2.323" fill="#282828"/>
        <path id="Trazado_721619" data-name="Trazado 721619" d="M59.247,89.63H36.46L39.5,79H56.208Z" fill="#eaeaea"/>
        <path id="Trazado_721620" data-name="Trazado 721620" d="M59.246,91.15H36.459A1.52,1.52,0,0,1,35,89.212l3.039-10.634a1.52,1.52,0,0,1,1.461-1.1h16.71a1.519,1.519,0,0,1,1.46,1.1l3.038,10.634a1.519,1.519,0,0,1-1.46,1.938M38.473,88.111H57.232l-2.169-7.6H40.643Z" fill="#282828"/>
        <path id="Trazado_721621" data-name="Trazado 721621" d="M36.459,91.15H19.748a1.52,1.52,0,0,1,0-3.039H36.459a1.52,1.52,0,0,1,0,3.039" fill="#282828"/>
        <path id="Trazado_721622" data-name="Trazado 721622" d="M75.957,91.15H59.246a1.52,1.52,0,0,1,0-3.039H75.957a1.52,1.52,0,0,1,0,3.039" fill="#282828"/>
        <path id="Trazado_721623" data-name="Trazado 721623" d="M22.55,30.51a3.953,3.953,0,0,0-2.8,1.171,3.954,3.954,0,0,0-2.8-1.171,4.1,4.1,0,0,0-4.034,4.163c0,3.469,6.836,7.736,6.836,7.736s6.836-4.267,6.836-7.736A4.1,4.1,0,0,0,22.55,30.51" fill="#e66353"/>
        <path id="Trazado_721624" data-name="Trazado 721624" d="M19.749,43.929a1.525,1.525,0,0,1-.805-.23c-1.261-.787-7.551-4.922-7.551-9.027a5.625,5.625,0,0,1,5.554-5.68,5.417,5.417,0,0,1,2.8.777,5.414,5.414,0,0,1,2.8-.777,5.625,5.625,0,0,1,5.554,5.68c0,4.1-6.29,8.24-7.551,9.027a1.522,1.522,0,0,1-.8.23m-2.8-11.9a2.584,2.584,0,0,0-2.515,2.642c0,1.6,2.931,4.269,5.317,5.918,2.385-1.649,5.317-4.318,5.317-5.918A2.585,2.585,0,0,0,22.55,32.03a2.438,2.438,0,0,0-1.729.728,1.517,1.517,0,0,1-2.145,0,2.442,2.442,0,0,0-1.729-.728" fill="#282828"/>
        <path id="Trazado_721625" data-name="Trazado 721625" d="M30.382,42.537a1.525,1.525,0,0,1-1.074-.445L25.2,37.978H21.268a1.519,1.519,0,1,1,0-3.037h4.557a1.518,1.518,0,0,1,1.074.445l2.732,2.732,2.329-8.153a1.52,1.52,0,0,1,2.82-.262L37.4,34.941h3.618a1.518,1.518,0,1,1,0,3.037H36.459a1.516,1.516,0,0,1-1.358-.839l-1.293-2.583-1.966,6.879a1.519,1.519,0,0,1-1.46,1.1" fill="#282828"/>
        <path id="Trazado_721626" data-name="Trazado 721626" d="M18.229,50.132H13.672a1.519,1.519,0,0,1,0-3.038h4.557a1.519,1.519,0,1,1,0,3.038" fill="#282828"/>
        <path id="Trazado_721627" data-name="Trazado 721627" d="M41.016,50.132H22.787a1.519,1.519,0,1,1,0-3.038H41.016a1.519,1.519,0,1,1,0,3.038" fill="#282828"/>
        <path id="Trazado_721628" data-name="Trazado 721628" d="M18.229,54.689H13.672a1.519,1.519,0,0,1,0-3.038h4.557a1.519,1.519,0,1,1,0,3.038" fill="#282828"/>
        <path id="Trazado_721629" data-name="Trazado 721629" d="M41.016,54.689H22.787a1.519,1.519,0,1,1,0-3.038H41.016a1.519,1.519,0,1,1,0,3.038" fill="#282828"/>
        <path id="Trazado_721630" data-name="Trazado 721630" d="M18.229,59.247H13.672a1.519,1.519,0,0,1,0-3.038h4.557a1.519,1.519,0,1,1,0,3.038" fill="#282828"/>
        <path id="Trazado_721631" data-name="Trazado 721631" d="M41.016,59.247H22.787a1.519,1.519,0,1,1,0-3.038H41.016a1.519,1.519,0,1,1,0,3.038" fill="#282828"/>
        <path id="Trazado_721632" data-name="Trazado 721632" d="M75.2,36.46H55.449a2.278,2.278,0,1,0,0,4.557h6.836v7.058L57.208,59.747a2.28,2.28,0,0,0,4.078,2.039l4.037-9.6,4.038,9.6a2.28,2.28,0,0,0,4.078-2.039L68.361,48.075V41.017H75.2a2.278,2.278,0,1,0,0-4.557" fill="#ffded5"/>
        <path id="Trazado_721633" data-name="Trazado 721633" d="M71.4,64.565a3.776,3.776,0,0,1-3.4-2.1l-2.68-6.36-2.638,6.27a3.853,3.853,0,0,1-5.135,1.789,3.8,3.8,0,0,1-1.7-5.1l4.917-11.31V42.537H55.448a3.8,3.8,0,1,1,0-7.6H75.2a3.8,3.8,0,1,1,0,7.6H69.88v5.221l4.95,11.383A3.8,3.8,0,0,1,71.4,64.565M65.323,50.671a1.519,1.519,0,0,1,1.4.93L70.761,61.2a.765.765,0,0,0,1.318-.771L66.969,48.68a1.511,1.511,0,0,1-.127-.606V41.018a1.52,1.52,0,0,1,1.519-1.52H75.2a.76.76,0,0,0,0-1.52H55.448a.76.76,0,0,0,0,1.52h6.837a1.52,1.52,0,0,1,1.519,1.52v7.057a1.523,1.523,0,0,1-.126.606L58.6,60.353a.785.785,0,0,0,.306,1.092.736.736,0,0,0,1.02-.339l4-9.5a1.516,1.516,0,0,1,1.4-.93" fill="#282828"/>
        <path id="Trazado_721634" data-name="Trazado 721634" d="M69.88,30.384a4.557,4.557,0,1,1-4.557-4.557,4.558,4.558,0,0,1,4.557,4.557" fill="#ffded5"/>
        <path id="Trazado_721635" data-name="Trazado 721635" d="M65.323,36.46A6.076,6.076,0,1,1,71.4,30.384a6.083,6.083,0,0,1-6.077,6.076m0-9.115a3.039,3.039,0,1,0,3.038,3.039,3.042,3.042,0,0,0-3.038-3.039" fill="#282828"/>
      </g>
    </g>
  </g>
</svg>
