<svg id="Grupo_1009253" data-name="Grupo 1009253" xmlns="http://www.w3.org/2000/svg" xmlns:xlink="http://www.w3.org/1999/xlink" width="482.832" height="56.687" viewBox="0 0 482.832 56.687">
  <defs>
    <clipPath id="clip-path">
      <rect id="Rectángulo_351501" data-name="Rectángulo 351501" width="482.832" height="56.686" fill="none"/>
    </clipPath>
    <clipPath id="clip-path-3">
      <rect id="Rectángulo_351465" data-name="Rectángulo 351465" width="36.656" height="50.971" fill="none"/>
    </clipPath>
    <clipPath id="clip-path-4">
      <rect id="Rectángulo_351466" data-name="Rectángulo 351466" width="16.81" height="6.676" fill="none"/>
    </clipPath>
    <clipPath id="clip-path-5">
      <rect id="Rectángulo_351467" data-name="Rectángulo 351467" width="7.016" height="17.666" fill="none"/>
    </clipPath>
    <clipPath id="clip-path-6">
      <rect id="Rectángulo_351468" data-name="Rectángulo 351468" width="12.947" height="14.619" fill="none"/>
    </clipPath>
    <clipPath id="clip-path-7">
      <rect id="Rectángulo_351469" data-name="Rectángulo 351469" width="8.24" height="10.489" fill="none"/>
    </clipPath>
    <clipPath id="clip-path-8">
      <rect id="Rectángulo_351470" data-name="Rectángulo 351470" width="31.642" height="45.31" fill="none"/>
    </clipPath>
    <clipPath id="clip-path-9">
      <rect id="Rectángulo_351471" data-name="Rectángulo 351471" width="43.343" height="12.891" fill="none"/>
    </clipPath>
    <clipPath id="clip-path-10">
      <rect id="Rectángulo_351472" data-name="Rectángulo 351472" width="35.807" height="28.711" fill="none"/>
    </clipPath>
    <clipPath id="clip-path-11">
      <rect id="Rectángulo_351473" data-name="Rectángulo 351473" width="35.799" height="29.186" fill="none"/>
    </clipPath>
    <clipPath id="clip-path-12">
      <rect id="Rectángulo_351474" data-name="Rectángulo 351474" width="10.097" height="23.771" fill="none"/>
    </clipPath>
    <clipPath id="clip-path-13">
      <rect id="Rectángulo_351475" data-name="Rectángulo 351475" width="7.367" height="8.146" fill="none"/>
    </clipPath>
    <clipPath id="clip-path-14">
      <rect id="Rectángulo_351476" data-name="Rectángulo 351476" width="12.159" height="23.96" fill="none"/>
    </clipPath>
    <clipPath id="clip-path-15">
      <rect id="Rectángulo_351477" data-name="Rectángulo 351477" width="8.264" height="8.361" fill="none"/>
    </clipPath>
    <clipPath id="clip-path-21">
      <rect id="Rectángulo_351483" data-name="Rectángulo 351483" width="36.995" height="36.994" fill="none"/>
    </clipPath>
    <clipPath id="clip-path-22">
      <rect id="Rectángulo_351484" data-name="Rectángulo 351484" width="23.593" height="30.062" fill="none"/>
    </clipPath>
    <clipPath id="clip-path-23">
      <rect id="Rectángulo_351486" data-name="Rectángulo 351486" width="20.478" height="42.402" fill="none"/>
    </clipPath>
    <clipPath id="clip-path-24">
      <rect id="Rectángulo_351487" data-name="Rectángulo 351487" width="15.619" height="28.64" fill="none"/>
    </clipPath>
    <clipPath id="clip-path-25">
      <rect id="Rectángulo_351488" data-name="Rectángulo 351488" width="30.998" height="55.659" fill="none"/>
    </clipPath>
    <clipPath id="clip-path-26">
      <rect id="Rectángulo_351489" data-name="Rectángulo 351489" width="8.262" height="9.27" fill="none"/>
    </clipPath>
    <clipPath id="clip-path-34">
      <rect id="Rectángulo_351497" data-name="Rectángulo 351497" width="23.292" height="27.868" fill="none"/>
    </clipPath>
    <clipPath id="clip-path-35">
      <rect id="Rectángulo_351498" data-name="Rectángulo 351498" width="16.873" height="42.041" fill="none"/>
    </clipPath>
    <clipPath id="clip-path-36">
      <rect id="Rectángulo_351499" data-name="Rectángulo 351499" width="23.076" height="23.906" fill="none"/>
    </clipPath>
  </defs>
  <g id="Grupo_1009251" data-name="Grupo 1009251" clip-path="url(#clip-path)">
    <g id="Grupo_1009250" data-name="Grupo 1009250" transform="translate(0 0)">
      <g id="Grupo_1009249" data-name="Grupo 1009249" clip-path="url(#clip-path)">
        <path id="Rectángulo_351463" data-name="Rectángulo 351463" d="M10.117,0H26.538A10.118,10.118,0,0,1,36.656,10.118V40.855A10.116,10.116,0,0,1,26.54,50.971H10.117A10.117,10.117,0,0,1,0,40.854V10.117A10.117,10.117,0,0,1,10.117,0Z" transform="translate(113.386 4.784)" fill="#fff"/>
        <g id="Grupo_1009149" data-name="Grupo 1009149" transform="translate(113.386 4.784)" opacity="0.2">
          <g id="Grupo_1009148" data-name="Grupo 1009148">
            <g id="Grupo_1009147" data-name="Grupo 1009147" clip-path="url(#clip-path-3)">
              <path id="Rectángulo_351464" data-name="Rectángulo 351464" d="M10.117,0H26.538A10.118,10.118,0,0,1,36.656,10.118V40.855A10.116,10.116,0,0,1,26.54,50.971H10.117A10.117,10.117,0,0,1,0,40.854V10.117A10.117,10.117,0,0,1,10.117,0Z" transform="translate(0 0)"/>
            </g>
          </g>
        </g>
        <path id="Trazado_721833" data-name="Trazado 721833" d="M199.128,7.443a6.193,6.193,0,0,1,6.194,6.193V51.074a6.194,6.194,0,0,1-6.194,6.194H176a6.193,6.193,0,0,1-6.193-6.194V13.636A6.193,6.193,0,0,1,176,7.443Zm0-1.146H176a7.348,7.348,0,0,0-7.339,7.339V51.074A7.348,7.348,0,0,0,176,58.414h23.123a7.348,7.348,0,0,0,7.34-7.34V13.636a7.348,7.348,0,0,0-7.34-7.339" transform="translate(-55.852 -2.086)" fill="#5d5d5d"/>
        <path id="Trazado_721834" data-name="Trazado 721834" d="M178.97,56.758a6.03,6.03,0,0,1-5.95-6.095V17.29a6.031,6.031,0,0,1,5.95-6.095h20.076A6.031,6.031,0,0,1,205,17.29V50.664a6.03,6.03,0,0,1-5.95,6.095Z" transform="translate(-57.294 -3.707)" fill="#fff"/>
        <path id="Trazado_721835" data-name="Trazado 721835" d="M181.827,34.226a3.495,3.495,0,0,1-.037-6.989l10.037-.108a3.495,3.495,0,0,1,.075,6.989l-10.075.108" transform="translate(-59.053 -8.984)" fill="#a091e2"/>
        <path id="Trazado_721836" data-name="Trazado 721836" d="M190.512,34.174a.525.525,0,0,1-.524-.519l-.064-5.939a.525.525,0,0,1,.519-.53l5.223-.056a3.495,3.495,0,0,1,.075,6.989l-5.228.056" transform="translate(-62.891 -8.984)" fill="#33c8db"/>
        <g id="Grupo_1009152" data-name="Grupo 1009152" transform="translate(119.412 18.649)" opacity="0.2">
          <g id="Grupo_1009151" data-name="Grupo 1009151">
            <g id="Grupo_1009150" data-name="Grupo 1009150" clip-path="url(#clip-path-4)">
              <path id="Trazado_721837" data-name="Trazado 721837" d="M193.456,27.883A3.426,3.426,0,0,1,193.669,29a3.5,3.5,0,0,1-3.457,3.532l-10.075.108a3.432,3.432,0,0,1-1.606-.413,3.5,3.5,0,0,0,3.278,2.336l10.075-.108a3.477,3.477,0,0,0,1.572-6.569" transform="translate(-178.531 -27.883)"/>
            </g>
          </g>
        </g>
        <path id="Trazado_721838" data-name="Trazado 721838" d="M195.625,30.321a4.021,4.021,0,0,0-4.018-3.976h-.044l-10.036.108a4.019,4.019,0,0,0,.043,8.038h.043l4.81-.052h0l5.122-.055h.1a3.993,3.993,0,0,0,2.829-1.207,4.163,4.163,0,0,0,.328-.387,3.971,3.971,0,0,0,.8-2.069q.017-.2.015-.4M181.6,33.442h-.032a2.97,2.97,0,0,1-.031-5.94l3.764-.04.064,5.939Zm10.036-.108-5.223.056-.064-5.939,5.223-.056h.032a2.97,2.97,0,0,1,.031,5.94" transform="translate(-58.794 -8.724)" fill="#5d5d5d"/>
        <path id="Trazado_721839" data-name="Trazado 721839" d="M182.385,29.256c.223.294-.085.9-.689,1.363s-1.275.592-1.5.3.086-.9.689-1.363,1.275-.592,1.5-.3" transform="translate(-59.647 -9.636)" fill="#fff"/>
        <path id="Trazado_721840" data-name="Trazado 721840" d="M176.878,50.041A3.672,3.672,0,0,1,184.221,50l.114,10.547a3.673,3.673,0,0,1-7.345.079s-.112-10.585-.112-10.587" transform="translate(-58.571 -15.355)" fill="#a091e2"/>
        <path id="Trazado_721841" data-name="Trazado 721841" d="M176.959,59.167a.551.551,0,0,1,.545-.551l6.242-.067a.547.547,0,0,1,.392.157.553.553,0,0,1,.166.388l.059,5.489a3.673,3.673,0,0,1-7.345.079l-.059-5.495" transform="translate(-58.598 -19.388)" fill="#33c8db"/>
        <g id="Grupo_1009155" data-name="Grupo 1009155" transform="translate(118.218 31.153)" opacity="0.2">
          <g id="Grupo_1009154" data-name="Grupo 1009154">
            <g id="Grupo_1009153" data-name="Grupo 1009153" clip-path="url(#clip-path-5)">
              <path id="Trazado_721842" data-name="Trazado 721842" d="M183.763,62.261a3.587,3.587,0,0,1-1.17.223,3.677,3.677,0,0,1-3.712-3.633s-.113-10.585-.113-10.587a3.613,3.613,0,0,1,.433-1.688,3.675,3.675,0,0,0-2.454,3.445s.113,10.587.113,10.587a3.654,3.654,0,0,0,6.9,1.652" transform="translate(-176.746 -46.577)"/>
            </g>
          </g>
        </g>
        <path id="Trazado_721843" data-name="Trazado 721843" d="M180.435,64.539a4.194,4.194,0,0,0,.841-.094,4.243,4.243,0,0,0,3.338-4.129v-.046L184.5,49.724a4.225,4.225,0,0,0-4.269-4.178,4.237,4.237,0,0,0-4.178,4.223v.046l.055,5.055v0l.058,5.382v.106a4.235,4.235,0,0,0,3.849,4.162q.209.018.42.016M177.155,49.8v-.035a3.121,3.121,0,0,1,6.242-.033l.042,3.956-6.242.067Zm.114,10.547-.059-5.489,6.242-.067.059,5.489v.034a3.121,3.121,0,0,1-6.242.033" transform="translate(-58.298 -15.082)" fill="#5d5d5d"/>
        <path id="Trazado_721844" data-name="Trazado 721844" d="M184.767,50.627c-.309.235-.95-.09-1.432-.724s-.622-1.34-.313-1.574.95.09,1.432.724.622,1.34.313,1.574" transform="translate(-60.551 -15.979)" fill="#fff"/>
        <path id="Trazado_721845" data-name="Trazado 721845" d="M200.218,66.2a3.672,3.672,0,0,1-5.062-5.321l7.6-7.312a3.672,3.672,0,0,1,5.091,5.294L200.218,66.2" transform="translate(-64.252 -17.402)" fill="#a091e2"/>
        <path id="Trazado_721846" data-name="Trazado 721846" d="M206.168,62.671a.552.552,0,0,1-.775-.019l-4.327-4.5a.547.547,0,0,1-.154-.393.553.553,0,0,1,.169-.387l3.956-3.805a3.672,3.672,0,0,1,5.091,5.294l-3.96,3.809" transform="translate(-66.53 -17.402)" fill="#33c8db"/>
        <g id="Grupo_1009158" data-name="Grupo 1009158" transform="translate(131.773 35.288)" opacity="0.2">
          <g id="Grupo_1009157" data-name="Grupo 1009157">
            <g id="Grupo_1009156" data-name="Grupo 1009156" clip-path="url(#clip-path-6)">
              <path id="Trazado_721847" data-name="Trazado 721847" d="M205.3,52.9a3.6,3.6,0,0,1,.965.7,3.677,3.677,0,0,1-.1,5.192l-7.632,7.339a3.611,3.611,0,0,1-1.526.841,3.674,3.674,0,0,0,4.19-.575l7.632-7.339A3.654,3.654,0,0,0,205.3,52.9" transform="translate(-197.011 -52.758)"/>
            </g>
          </g>
        </g>
        <path id="Trazado_721848" data-name="Trazado 721848" d="M208.074,53.013a4.18,4.18,0,0,0-.645-.548,4.241,4.241,0,0,0-5.293.4l-.028.027-.005.005-7.6,7.311a4.224,4.224,0,0,0,5.822,6.12l.033-.032,3.643-3.5,0,0,3.879-3.732.077-.074a4.2,4.2,0,0,0,1.295-2.962,4.4,4.4,0,0,0-.027-.533,4.178,4.178,0,0,0-.876-2.16,4.107,4.107,0,0,0-.276-.317M199.593,65.5l-.025.024a3.121,3.121,0,0,1-4.3-4.523l2.851-2.742,4.327,4.5Zm7.6-7.311L203.238,62l-4.327-4.5,3.956-3.805.025-.023a3.121,3.121,0,0,1,4.3,4.523" transform="translate(-63.978 -17.128)" fill="#5d5d5d"/>
        <path id="Trazado_721849" data-name="Trazado 721849" d="M196.7,66.564c.383.064.587.753.455,1.539s-.549,1.371-.932,1.307-.586-.753-.454-1.539.549-1.371.932-1.307" transform="translate(-64.815 -22.041)" fill="#fff"/>
        <path id="Trazado_721850" data-name="Trazado 721850" d="M196.65,51.12a2.525,2.525,0,0,1-3.787-3.34l4.766-5.465a2.525,2.525,0,0,1,3.805,3.32L196.65,51.12" transform="translate(-63.659 -13.728)" fill="#a091e2"/>
        <path id="Trazado_721851" data-name="Trazado 721851" d="M200.344,48.482a.379.379,0,0,1-.532.033l-3.235-2.821a.378.378,0,0,1-.036-.534l2.48-2.845a2.525,2.525,0,0,1,3.805,3.32l-2.483,2.847" transform="translate(-65.052 -13.728)" fill="#33c8db"/>
        <g id="Grupo_1009161" data-name="Grupo 1009161" transform="translate(130.16 27.821)" opacity="0.2">
          <g id="Grupo_1009160" data-name="Grupo 1009160">
            <g id="Grupo_1009159" data-name="Grupo 1009159" clip-path="url(#clip-path-7)">
              <path id="Trazado_721852" data-name="Trazado 721852" d="M199.432,41.761a2.479,2.479,0,0,1,.7.421,2.527,2.527,0,0,1,.243,3.562l-4.785,5.486a2.487,2.487,0,0,1-.994.668,2.526,2.526,0,0,0,2.835-.646l4.784-5.485a2.512,2.512,0,0,0-2.787-4.005" transform="translate(-194.6 -41.595)"/>
            </g>
          </g>
        </g>
        <path id="Trazado_721853" data-name="Trazado 721853" d="M201.252,41.6a2.905,2.905,0,0,0-4.076.256l-.017.019,0,0-4.766,5.465a2.9,2.9,0,0,0,4.356,3.841l.021-.024,2.284-2.619h0l2.432-2.789.048-.055a2.885,2.885,0,0,0,.708-2.106,2.825,2.825,0,0,0-.05-.363,2.87,2.87,0,0,0-.73-1.427c-.066-.07-.135-.136-.208-.2m-5.057,9.063-.016.018a2.146,2.146,0,0,1-3.219-2.839l1.788-2.049,3.234,2.821ZM200.96,45.2l-2.48,2.844-3.235-2.821,2.481-2.844.015-.017A2.146,2.146,0,0,1,200.96,45.2" transform="translate(-63.471 -13.54)" fill="#5d5d5d"/>
        <path id="Trazado_721854" data-name="Trazado 721854" d="M193.992,51.893c.266.021.447.48.4,1.027s-.294.972-.559.951-.447-.481-.4-1.027.293-.972.559-.951" transform="translate(-64.051 -17.184)" fill="#fff"/>
        <g id="Grupo_1009164" data-name="Grupo 1009164" transform="translate(115.976 8.076)" opacity="0.2">
          <g id="Grupo_1009163" data-name="Grupo 1009163">
            <g id="Grupo_1009162" data-name="Grupo 1009162" clip-path="url(#clip-path-8)">
              <path id="Trazado_721855" data-name="Trazado 721855" d="M200.772,12.074a6.187,6.187,0,0,1,.334,2V47.443a6.031,6.031,0,0,1-5.951,6.095H175.081a5.791,5.791,0,0,1-1.687-.253,5.968,5.968,0,0,0,5.616,4.1h20.075a6.031,6.031,0,0,0,5.951-6.095V17.915a6.085,6.085,0,0,0-4.264-5.841" transform="translate(-173.394 -12.074)"/>
            </g>
          </g>
        </g>
        <path id="Trazado_721856" data-name="Trazado 721856" d="M198.762,11.485a5.451,5.451,0,0,1,5.378,5.521V50.381a5.451,5.451,0,0,1-5.378,5.521H178.686a5.451,5.451,0,0,1-5.377-5.521V17.006a5.45,5.45,0,0,1,5.377-5.521Zm0-1.146H178.686a6.6,6.6,0,0,0-6.523,6.667V50.381a6.6,6.6,0,0,0,6.523,6.667h20.076a6.6,6.6,0,0,0,6.523-6.667V17.006a6.6,6.6,0,0,0-6.523-6.667" transform="translate(-57.01 -3.424)" fill="#5d5d5d"/>
        <path id="Trazado_721857" data-name="Trazado 721857" d="M169.874,14.65a6.629,6.629,0,1,1,0-13.258h31.381a6.629,6.629,0,1,1,0,13.258Z" transform="translate(-54.057 -0.461)" fill="#33c8db"/>
        <g id="Grupo_1009167" data-name="Grupo 1009167" transform="translate(110.652 1.381)" opacity="0.2">
          <g id="Grupo_1009166" data-name="Grupo 1009166">
            <g id="Grupo_1009165" data-name="Grupo 1009165" clip-path="url(#clip-path-9)">
              <path id="Trazado_721858" data-name="Trazado 721858" d="M204.3,2.065a6.617,6.617,0,0,1-5.333,10.551H167.589a6.6,6.6,0,0,1-2.156-.367,6.617,6.617,0,0,0,5.333,2.708h31.381A6.625,6.625,0,0,0,204.3,2.065" transform="translate(-165.433 -2.065)"/>
            </g>
          </g>
        </g>
        <path id="Trazado_721859" data-name="Trazado 721859" d="M200.971,1.681a6.056,6.056,0,1,1,0,12.112H169.59a6.056,6.056,0,1,1,0-12.112Zm0-1.146H169.59a7.2,7.2,0,1,0,0,14.4h31.381a7.2,7.2,0,1,0,0-14.4" transform="translate(-53.773 -0.177)" fill="#5d5d5d"/>
        <path id="Trazado_721860" data-name="Trazado 721860" d="M170.945,4.731c.554.676.01,2.04-1.217,3.045s-2.67,1.272-3.225.595-.01-2.04,1.217-3.045,2.67-1.272,3.225-.595" transform="translate(-55.064 -1.443)" fill="#fff"/>
        <path id="Trazado_721861" data-name="Trazado 721861" d="M379.025,34.1a.549.549,0,0,1-.5-.318L367.893,10.947a.549.549,0,0,1,.272-.734l16.919-7.65a13.038,13.038,0,0,1,5.407-1.171,13.145,13.145,0,0,1,5.422,25.122l-16.661,7.533a.556.556,0,0,1-.227.049" transform="translate(-121.807 -0.462)" fill="#33c8db"/>
        <g id="Grupo_1009170" data-name="Grupo 1009170" transform="translate(246.035 4.925)" opacity="0.2">
          <g id="Grupo_1009169" data-name="Grupo 1009169">
            <g id="Grupo_1009168" data-name="Grupo 1009168" clip-path="url(#clip-path-10)">
              <path id="Trazado_721862" data-name="Trazado 721862" d="M402.8,21.156a13.1,13.1,0,0,0-2.877-13.792,13.107,13.107,0,0,1-6.764,16.864l-11.09,5.014c-1.918-10.92-8.29-16.469-10.98-18.371l-2.919,1.32a.55.55,0,0,0-.272.734l10.634,22.832a.548.548,0,0,0,.725.269l16.661-7.533a13.056,13.056,0,0,0,6.882-7.336" transform="translate(-367.842 -7.364)"/>
            </g>
          </g>
        </g>
        <path id="Trazado_721863" data-name="Trazado 721863" d="M330.692,34.394a.556.556,0,0,1-.227-.049L313.8,26.812A13.143,13.143,0,1,1,324.633,2.861l16.919,7.65a.55.55,0,0,1,.272.734L331.191,34.076a.548.548,0,0,1-.5.318" transform="translate(-101.354 -0.56)" fill="#a091e2"/>
        <g id="Grupo_1009173" data-name="Grupo 1009173" transform="translate(204.723 4.648)" opacity="0.3">
          <g id="Grupo_1009172" data-name="Grupo 1009172">
            <g id="Grupo_1009171" data-name="Grupo 1009171" clip-path="url(#clip-path-11)">
              <path id="Trazado_721864" data-name="Trazado 721864" d="M330.692,36.136a.548.548,0,0,0,.5-.318l10.634-22.832a.55.55,0,0,0-.272-.734l-2.033-.919a25.412,25.412,0,0,0-11.06,16.87l-11.06-5A13.157,13.157,0,0,1,310.392,6.95a13.178,13.178,0,0,0-2.4,2.818A13.078,13.078,0,0,0,313.8,28.554l16.661,7.533a.556.556,0,0,0,.227.049" transform="translate(-306.077 -6.95)"/>
            </g>
          </g>
        </g>
        <path id="Trazado_721865" data-name="Trazado 721865" d="M318.95,1.968a12.555,12.555,0,0,1,5.18,1.121l16.919,7.65L330.416,33.571l-16.662-7.533a12.595,12.595,0,0,1,5.2-24.07m0-1.1A13.695,13.695,0,0,0,313.3,27.04l16.661,7.533a1.1,1.1,0,0,0,1.451-.538L342.047,11.2a1.1,1.1,0,0,0-.544-1.467l-16.919-7.65A13.582,13.582,0,0,0,318.95.868" transform="translate(-101.078 -0.288)" fill="#5d5d5d"/>
        <path id="Trazado_721866" data-name="Trazado 721866" d="M343.223,38.555a1.586,1.586,0,0,1-.636-.129c-2.4-1.043-1.055-7.551,1.508-13.44,2.179-5.005,5.665-10.391,8.173-10.391a1.589,1.589,0,0,1,.637.129c2.4,1.043,1.055,7.551-1.508,13.44-2.179,5-5.666,10.391-8.174,10.391" transform="translate(-113.029 -4.833)" fill="#fff"/>
        <g id="Grupo_1009176" data-name="Grupo 1009176" transform="translate(228.556 10.202)" opacity="0.2">
          <g id="Grupo_1009175" data-name="Grupo 1009175">
            <g id="Grupo_1009174" data-name="Grupo 1009174" clip-path="url(#clip-path-12)">
              <path id="Trazado_721867" data-name="Trazado 721867" d="M345.772,37.351a1.586,1.586,0,0,1-.636-.129c-2.4-1.043-1.055-7.551,1.508-13.44a32.785,32.785,0,0,1,5.162-8.529c-2.4.97-5.39,5.732-7.336,10.2-2.564,5.889-3.9,12.4-1.508,13.44a1.586,1.586,0,0,0,.636.129c.911,0,1.952-.717,3.011-1.861a2.266,2.266,0,0,1-.837.189" transform="translate(-341.709 -15.253)"/>
            </g>
          </g>
        </g>
        <path id="Trazado_721868" data-name="Trazado 721868" d="M351.994,14.873a1.033,1.033,0,0,1,.417.084c1.738.756.935,6.45-1.793,12.716-2.525,5.8-5.816,10.06-7.669,10.06a1.033,1.033,0,0,1-.417-.084c-1.738-.756-.935-6.45,1.793-12.716,2.525-5.8,5.816-10.06,7.669-10.06m0-1.1h0c-2.771,0-6.355,5.385-8.678,10.721-2,4.589-4.5,12.736-1.223,14.164a2.123,2.123,0,0,0,.855.175c2.77,0,6.355-5.385,8.678-10.721,2-4.589,4.5-12.736,1.223-14.164a2.123,2.123,0,0,0-.855-.175" transform="translate(-112.755 -4.561)" fill="#5d5d5d"/>
        <path id="Trazado_721869" data-name="Trazado 721869" d="M390.219,1.672a12.595,12.595,0,0,1,5.2,24.07l-16.661,7.533L368.118,10.444l16.919-7.65a12.558,12.558,0,0,1,5.181-1.121m0-1.1h0a13.578,13.578,0,0,0-5.634,1.219l-16.919,7.65a1.1,1.1,0,0,0-.544,1.467L377.755,33.74a1.1,1.1,0,0,0,1.451.538l16.661-7.533A13.695,13.695,0,0,0,390.219.572" transform="translate(-121.534 -0.19)" fill="#5d5d5d"/>
        <path id="Trazado_721870" data-name="Trazado 721870" d="M377.872,38.259c-2.508,0-5.995-5.386-8.173-10.391a34.781,34.781,0,0,1-2.612-8.567c-.381-2.708,0-4.393,1.1-4.873a1.586,1.586,0,0,1,.637-.129c2.508,0,5.994,5.386,8.173,10.391,2.564,5.889,3.9,12.4,1.508,13.44a1.586,1.586,0,0,1-.636.129" transform="translate(-121.51 -4.735)" fill="#fff"/>
        <path id="Trazado_721871" data-name="Trazado 721871" d="M368.554,14.576c1.853,0,5.144,4.259,7.669,10.06,2.728,6.266,3.531,11.959,1.793,12.716a1.034,1.034,0,0,1-.417.084c-1.853,0-5.144-4.259-7.669-10.06-2.728-6.267-3.53-11.959-1.793-12.716a1.022,1.022,0,0,1,.417-.084m0-1.1a2.14,2.14,0,0,0-.856.175c-1.374.6-1.854,2.433-1.428,5.455a35.327,35.327,0,0,0,2.651,8.71c2.324,5.336,5.907,10.721,8.678,10.721a2.126,2.126,0,0,0,.856-.175c3.28-1.428.775-9.575-1.223-14.164-2.323-5.337-5.907-10.721-8.678-10.721" transform="translate(-121.237 -4.463)" fill="#5d5d5d"/>
        <path id="Trazado_721872" data-name="Trazado 721872" d="M347.6,30.455a4.318,4.318,0,0,1-2.857-1.084.55.55,0,0,1-.147-.615q.267-.672.564-1.356a41.035,41.035,0,0,1,2.736-5.256.549.549,0,0,1,.467-.259.52.52,0,0,1,.11.011,4.324,4.324,0,0,1-.872,8.559" transform="translate(-114.098 -7.247)" fill="#fff"/>
        <g id="Grupo_1009179" data-name="Grupo 1009179" transform="translate(230.38 15.062)" opacity="0.2">
          <g id="Grupo_1009178" data-name="Grupo 1009178">
            <g id="Grupo_1009177" data-name="Grupo 1009177" clip-path="url(#clip-path-13)">
              <path id="Trazado_721873" data-name="Trazado 721873" d="M349.466,22.519a4.277,4.277,0,0,1-4.873,6.161c-.038.094-.081.191-.118.286a.55.55,0,0,0,.147.616,4.316,4.316,0,1,0,4.845-7.062" transform="translate(-344.436 -22.519)"/>
            </g>
          </g>
        </g>
        <path id="Trazado_721874" data-name="Trazado 721874" d="M348.093,22.163a3.773,3.773,0,1,1-3.255,6.523q.264-.663.557-1.34a40.231,40.231,0,0,1,2.7-5.184m0-1.1a1.1,1.1,0,0,0-.933.518,41.562,41.562,0,0,0-2.773,5.327c-.193.443-.379.892-.571,1.372a1.1,1.1,0,0,0,.294,1.231,4.872,4.872,0,1,0,4.2-8.427,1.123,1.123,0,0,0-.221-.022" transform="translate(-113.826 -6.975)" fill="#5d5d5d"/>
        <path id="Trazado_721875" data-name="Trazado 721875" d="M377.872,38.259c-2.508,0-5.995-5.386-8.173-10.391a34.781,34.781,0,0,1-2.612-8.567c-.381-2.708,0-4.393,1.1-4.873a1.583,1.583,0,0,1,.636-.129c.894,0,1.96.687,3.172,2.041a.55.55,0,0,1-.336.912,3.221,3.221,0,1,0,3.182,4.869.551.551,0,0,1,.469-.262h.021a.55.55,0,0,1,.468.3c.425.829.829,1.682,1.2,2.532,2.564,5.889,3.9,12.4,1.508,13.44a1.586,1.586,0,0,1-.636.129" transform="translate(-121.51 -4.735)" fill="#fff"/>
        <g id="Grupo_1009182" data-name="Grupo 1009182" transform="translate(246.427 9.563)" opacity="0.2">
          <g id="Grupo_1009181" data-name="Grupo 1009181">
            <g id="Grupo_1009180" data-name="Grupo 1009180" clip-path="url(#clip-path-14)">
              <path id="Trazado_721876" data-name="Trazado 721876" d="M372.825,16.339c-1.211-1.354-2.278-2.041-3.172-2.041a1.5,1.5,0,0,0-1.223.6,9.365,9.365,0,0,1,1.469,1.361.558.558,0,0,1,.031.046.046.046,0,0,1,.011.009,5.975,5.975,0,0,1,.675.88l0,.007v0c.057.092.112.184.16.278.054.057.109.113.163.171a.638.638,0,0,1,.119.179,3.183,3.183,0,0,1,1.425-.577.55.55,0,0,0,.336-.912" transform="translate(-368.429 -14.298)"/>
              <path id="Trazado_721877" data-name="Trazado 721877" d="M380.745,28.431c-.371-.851-.773-1.7-1.2-2.532a.549.549,0,0,0-.468-.3h-.021a.551.551,0,0,0-.47.263,3.217,3.217,0,0,1-1.345,1.217q.3.631.576,1.267c2.314,5.316,3.622,11.122,2.094,12.972a3.055,3.055,0,0,0,1.7.681,1.586,1.586,0,0,0,.636-.129c2.4-1.043,1.055-7.551-1.508-13.44" transform="translate(-371.348 -18.041)"/>
            </g>
          </g>
        </g>
        <path id="Trazado_721878" data-name="Trazado 721878" d="M368.554,14.576c.738,0,1.706.677,2.761,1.858a3.771,3.771,0,1,0,3.725,5.7c.407.793.8,1.629,1.183,2.5,2.728,6.267,3.531,11.96,1.793,12.716a1.033,1.033,0,0,1-.417.084c-1.853,0-5.144-4.259-7.669-10.06-2.728-6.267-3.531-11.96-1.793-12.716a1.044,1.044,0,0,1,.417-.083m0-1.1h0a2.134,2.134,0,0,0-.855.175c-1.374.6-1.854,2.433-1.429,5.455a35.361,35.361,0,0,0,2.652,8.71c2.323,5.336,5.907,10.721,8.678,10.721a2.129,2.129,0,0,0,.856-.175c1.374-.6,1.854-2.433,1.428-5.454a35.328,35.328,0,0,0-2.651-8.71c-.377-.866-.785-1.729-1.214-2.564a1.1,1.1,0,0,0-.937-.6h-.041a1.1,1.1,0,0,0-.938.525,2.671,2.671,0,1,1-2.639-4.036,1.1,1.1,0,0,0,.673-1.823c-1.338-1.5-2.51-2.225-3.581-2.225" transform="translate(-121.237 -4.463)" fill="#5d5d5d"/>
        <path id="Trazado_721879" data-name="Trazado 721879" d="M369.636,41.6a4.423,4.423,0,1,1,4.423-4.423,4.427,4.427,0,0,1-4.423,4.423" transform="translate(-120.937 -10.847)" fill="#fbf7f7"/>
        <g id="Grupo_1009185" data-name="Grupo 1009185" transform="translate(244.607 22.143)" opacity="0.2">
          <g id="Grupo_1009184" data-name="Grupo 1009184">
            <g id="Grupo_1009183" data-name="Grupo 1009183" clip-path="url(#clip-path-15)">
              <path id="Trazado_721880" data-name="Trazado 721880" d="M371.551,33.106a4.415,4.415,0,0,1-5.844,6.121,4.42,4.42,0,1,0,5.844-6.121" transform="translate(-365.707 -33.106)"/>
            </g>
          </g>
        </g>
        <path id="Trazado_721881" data-name="Trazado 721881" d="M369.364,33.034a3.873,3.873,0,1,1-3.873,3.873,3.872,3.872,0,0,1,3.873-3.873m0-1.1a4.973,4.973,0,1,0,4.973,4.973,4.978,4.978,0,0,0-4.973-4.973" transform="translate(-120.664 -10.575)" fill="#5d5d5d"/>
        <path id="Trazado_721882" data-name="Trazado 721882" d="M352.136,47.852a4.423,4.423,0,1,1,4.423-4.423,4.427,4.427,0,0,1-4.423,4.423" transform="translate(-115.142 -12.917)" fill="#fbf7f7"/>
        <g id="Grupo_1009188" data-name="Grupo 1009188" transform="translate(232.902 26.323)" opacity="0.2">
          <g id="Grupo_1009187" data-name="Grupo 1009187">
            <g id="Grupo_1009186" data-name="Grupo 1009186" clip-path="url(#clip-path-15)">
              <path id="Trazado_721883" data-name="Trazado 721883" d="M354.052,39.356a4.415,4.415,0,0,1-5.845,6.121,4.42,4.42,0,1,0,5.845-6.121" transform="translate(-348.207 -39.356)"/>
            </g>
          </g>
        </g>
        <path id="Trazado_721884" data-name="Trazado 721884" d="M351.864,39.284a3.873,3.873,0,1,1-3.873,3.873,3.872,3.872,0,0,1,3.873-3.873m0-1.1a4.973,4.973,0,1,0,4.973,4.973,4.978,4.978,0,0,0-4.973-4.973" transform="translate(-114.869 -12.645)" fill="#5d5d5d"/>
        <path id="Trazado_721885" data-name="Trazado 721885" d="M360.636,59.977a4.423,4.423,0,1,1,4.423-4.423,4.427,4.427,0,0,1-4.423,4.423" transform="translate(-117.957 -16.932)" fill="#fbf7f7"/>
        <g id="Grupo_1009191" data-name="Grupo 1009191" transform="translate(238.587 34.433)" opacity="0.2">
          <g id="Grupo_1009190" data-name="Grupo 1009190">
            <g id="Grupo_1009189" data-name="Grupo 1009189" clip-path="url(#clip-path-15)">
              <path id="Trazado_721886" data-name="Trazado 721886" d="M362.552,51.481a4.415,4.415,0,0,1-5.845,6.121,4.42,4.42,0,1,0,5.845-6.121" transform="translate(-356.707 -51.481)"/>
            </g>
          </g>
        </g>
        <path id="Trazado_721887" data-name="Trazado 721887" d="M360.364,51.409a3.873,3.873,0,1,1-3.873,3.873,3.872,3.872,0,0,1,3.873-3.873m0-1.1a4.973,4.973,0,1,0,4.973,4.973,4.978,4.978,0,0,0-4.973-4.973" transform="translate(-117.684 -16.66)" fill="#5d5d5d"/>
        <path id="Trazado_721888" data-name="Trazado 721888" d="M375.761,61.477a4.423,4.423,0,1,1,4.423-4.423,4.427,4.427,0,0,1-4.423,4.423" transform="translate(-122.965 -17.429)" fill="#fbf7f7"/>
        <g id="Grupo_1009194" data-name="Grupo 1009194" transform="translate(248.704 35.436)" opacity="0.2">
          <g id="Grupo_1009193" data-name="Grupo 1009193">
            <g id="Grupo_1009192" data-name="Grupo 1009192" clip-path="url(#clip-path-15)">
              <path id="Trazado_721889" data-name="Trazado 721889" d="M377.677,52.981a4.415,4.415,0,0,1-5.845,6.121,4.42,4.42,0,1,0,5.845-6.121" transform="translate(-371.832 -52.981)"/>
            </g>
          </g>
        </g>
        <path id="Trazado_721890" data-name="Trazado 721890" d="M375.489,52.909a3.873,3.873,0,1,1-3.873,3.873,3.872,3.872,0,0,1,3.873-3.873m0-1.1a4.973,4.973,0,1,0,4.973,4.973,4.978,4.978,0,0,0-4.973-4.973" transform="translate(-122.693 -17.156)" fill="#5d5d5d"/>
        <path id="Trazado_721891" data-name="Trazado 721891" d="M366.886,78.977a4.423,4.423,0,1,1,4.423-4.423,4.427,4.427,0,0,1-4.423,4.423" transform="translate(-120.026 -23.224)" fill="#fbf7f7"/>
        <g id="Grupo_1009197" data-name="Grupo 1009197" transform="translate(242.767 47.142)" opacity="0.2">
          <g id="Grupo_1009196" data-name="Grupo 1009196">
            <g id="Grupo_1009195" data-name="Grupo 1009195" clip-path="url(#clip-path-15)">
              <path id="Trazado_721892" data-name="Trazado 721892" d="M368.8,70.481a4.415,4.415,0,0,1-5.845,6.121,4.42,4.42,0,1,0,5.845-6.121" transform="translate(-362.957 -70.481)"/>
            </g>
          </g>
        </g>
        <path id="Trazado_721893" data-name="Trazado 721893" d="M366.614,70.409a3.873,3.873,0,1,1-3.873,3.873,3.872,3.872,0,0,1,3.873-3.873m0-1.1a4.973,4.973,0,1,0,4.973,4.973,4.978,4.978,0,0,0-4.973-4.973" transform="translate(-119.754 -22.951)" fill="#5d5d5d"/>
        <path id="Trazado_721894" data-name="Trazado 721894" d="M349.136,70.352a4.423,4.423,0,1,1,4.423-4.423,4.427,4.427,0,0,1-4.423,4.423" transform="translate(-114.149 -20.367)" fill="#fbf7f7"/>
        <g id="Grupo_1009200" data-name="Grupo 1009200" transform="translate(230.895 41.373)" opacity="0.2">
          <g id="Grupo_1009199" data-name="Grupo 1009199">
            <g id="Grupo_1009198" data-name="Grupo 1009198" clip-path="url(#clip-path-15)">
              <path id="Trazado_721895" data-name="Trazado 721895" d="M351.052,61.856a4.415,4.415,0,0,1-5.845,6.121,4.42,4.42,0,1,0,5.845-6.121" transform="translate(-345.207 -61.856)"/>
            </g>
          </g>
        </g>
        <path id="Trazado_721896" data-name="Trazado 721896" d="M348.864,61.784a3.873,3.873,0,1,1-3.873,3.873,3.872,3.872,0,0,1,3.873-3.873m0-1.1a4.973,4.973,0,1,0,4.973,4.973,4.978,4.978,0,0,0-4.973-4.973" transform="translate(-113.876 -20.095)" fill="#5d5d5d"/>
        <path id="Trazado_721897" data-name="Trazado 721897" d="M405.7,5.069c-.1.638-1.981.861-4.191.5s-3.917-1.174-3.812-1.812,1.981-.861,4.191-.5,3.916,1.174,3.812,1.812" transform="translate(-131.693 -1.021)" fill="#fff"/>
        <path id="Trazado_721898" data-name="Trazado 721898" d="M325.336,4.511c.088.641-1.641,1.405-3.859,1.708s-4.089.029-4.176-.611S318.941,4.2,321.16,3.9s4.088-.029,4.176.611" transform="translate(-105.07 -1.251)" fill="#fff"/>
        <path id="Trazado_721899" data-name="Trazado 721899" d="M528.915,59.679a18.5,18.5,0,1,1,18.5-18.5,18.518,18.518,0,0,1-18.5,18.5" transform="translate(-169.02 -7.512)" fill="#ffb03e"/>
        <g id="Grupo_1009203" data-name="Grupo 1009203" transform="translate(341.398 15.172)" opacity="0.2">
          <g id="Grupo_1009202" data-name="Grupo 1009202">
            <g id="Grupo_1009201" data-name="Grupo 1009201" clip-path="url(#clip-path-21)">
              <path id="Trazado_721900" data-name="Trazado 721900" d="M528.915,59.679a18.5,18.5,0,1,1,18.5-18.5,18.518,18.518,0,0,1-18.5,18.5" transform="translate(-510.418 -22.684)"/>
            </g>
          </g>
        </g>
        <path id="Trazado_721901" data-name="Trazado 721901" d="M528.654,22.95a17.969,17.969,0,1,1-17.969,17.969A17.969,17.969,0,0,1,528.654,22.95m0-1.056a19.025,19.025,0,1,0,19.025,19.025,19.047,19.047,0,0,0-19.025-19.025" transform="translate(-168.758 -7.25)" fill="#5d5d5d"/>
        <path id="Trazado_721902" data-name="Trazado 721902" d="M530.475,58.087a15.346,15.346,0,1,1,15.346-15.346,15.363,15.363,0,0,1-15.346,15.346" transform="translate(-170.58 -9.072)" fill="#ffb03e"/>
        <g id="Grupo_1009206" data-name="Grupo 1009206" transform="translate(351.538 18.841)" opacity="0.2">
          <g id="Grupo_1009205" data-name="Grupo 1009205">
            <g id="Grupo_1009204" data-name="Grupo 1009204" clip-path="url(#clip-path-22)">
              <path id="Trazado_721903" data-name="Trazado 721903" d="M538.168,28.17a15.34,15.34,0,0,1-12.59,27.649,15.341,15.341,0,1,0,12.59-27.649" transform="translate(-525.577 -28.17)"/>
            </g>
          </g>
        </g>
        <path id="Trazado_721904" data-name="Trazado 721904" d="M530.236,27.638A14.863,14.863,0,1,1,515.373,42.5a14.863,14.863,0,0,1,14.863-14.863m0-.967a15.83,15.83,0,1,0,15.83,15.83,15.848,15.848,0,0,0-15.83-15.83" transform="translate(-170.34 -8.832)" fill="#5d5d5d"/>
        <path id="Trazado_721905" data-name="Trazado 721905" d="M542.106,33.646,519.842,55.589a15.7,15.7,0,0,0,1.522,1.49l22.252-21.932a15.688,15.688,0,0,0-1.511-1.5" transform="translate(-172.14 -11.142)" fill="#5d5d5d"/>
        <path id="Rectángulo_351485" data-name="Rectángulo 351485" d="M11.424,0h0A11.423,11.423,0,0,1,22.848,11.423v20.2A11.423,11.423,0,0,1,11.424,43.05h0A11.424,11.424,0,0,1,0,31.626v-20.2A11.424,11.424,0,0,1,11.424,0Z" transform="translate(332.113 12.492)" fill="#a091e2"/>
        <g id="Grupo_1009209" data-name="Grupo 1009209" transform="translate(334.594 12.917)" opacity="0.3">
          <g id="Grupo_1009208" data-name="Grupo 1009208">
            <g id="Grupo_1009207" data-name="Grupo 1009207" clip-path="url(#clip-path-23)">
              <path id="Trazado_721906" data-name="Trazado 721906" d="M513.115,19.312a11.282,11.282,0,0,1,2.369,6.914V46.573a11.364,11.364,0,0,1-11.351,11.351h-.144a11.288,11.288,0,0,1-3.743-.647,11.329,11.329,0,0,0,8.983,4.437h.144a11.364,11.364,0,0,0,11.351-11.352V30.016a11.361,11.361,0,0,0-7.608-10.7" transform="translate(-500.245 -19.312)"/>
            </g>
          </g>
        </g>
        <path id="Trazado_721907" data-name="Trazado 721907" d="M507.77,18.944a10.823,10.823,0,0,1,10.823,10.823V50.114A10.822,10.822,0,0,1,507.77,60.937h-.144A10.823,10.823,0,0,1,496.8,50.114V29.767a10.823,10.823,0,0,1,10.823-10.823Zm0-1.056h-.144a11.892,11.892,0,0,0-11.879,11.879V50.114a11.892,11.892,0,0,0,11.879,11.879h.144a11.892,11.892,0,0,0,11.879-11.879V29.767A11.892,11.892,0,0,0,507.77,17.888" transform="translate(-164.162 -5.924)" fill="#5d5d5d"/>
        <path id="Trazado_721908" data-name="Trazado 721908" d="M496.453,30.351a.529.529,0,0,1-.528-.528V13.468A11.771,11.771,0,0,1,507.683,1.711h.15A11.771,11.771,0,0,1,519.59,13.468V29.823a.529.529,0,0,1-.528.528Z" transform="translate(-164.221 -0.567)" fill="#fff"/>
        <g id="Grupo_1009212" data-name="Grupo 1009212" transform="translate(339.751 1.032)" opacity="0.2">
          <g id="Grupo_1009211" data-name="Grupo 1009211">
            <g id="Grupo_1009210" data-name="Grupo 1009210" clip-path="url(#clip-path-24)">
              <path id="Trazado_721909" data-name="Trazado 721909" d="M511.816,1.544h-.15a11.679,11.679,0,0,0-3.712.61,11.767,11.767,0,0,1,8.818,11.371V29.879a.514.514,0,0,1-.108.305h6.38a.528.528,0,0,0,.528-.528V13.3A11.771,11.771,0,0,0,511.816,1.544" transform="translate(-507.955 -1.544)"/>
            </g>
          </g>
        </g>
        <path id="Trazado_721910" data-name="Trazado 721910" d="M507.57,1.977A11.23,11.23,0,0,1,518.8,13.207V29.561H496.192V13.207A11.229,11.229,0,0,1,507.421,1.977Zm0-1.056h-.15a12.3,12.3,0,0,0-12.286,12.286V29.561a1.056,1.056,0,0,0,1.057,1.056H518.8a1.056,1.056,0,0,0,1.056-1.056V13.207A12.3,12.3,0,0,0,507.57.921" transform="translate(-163.959 -0.305)" fill="#5d5d5d"/>
        <path id="Trazado_721911" data-name="Trazado 721911" d="M507.423,46.848h-8.7V58.441l2.118-9.809Z" transform="translate(-165.149 -15.513)" fill="#fff"/>
        <path id="Trazado_721912" data-name="Trazado 721912" d="M541.309,37.025l-7.915,7.135V33.681l1.56,6.466Z" transform="translate(-176.628 -11.153)" fill="#fff"/>
        <g id="Grupo_1009215" data-name="Grupo 1009215" transform="translate(451.069 0.681)" opacity="0.2">
          <g id="Grupo_1009214" data-name="Grupo 1009214">
            <g id="Grupo_1009213" data-name="Grupo 1009213" clip-path="url(#clip-path-25)">
              <path id="Trazado_721913" data-name="Trazado 721913" d="M701.343,1.018H701.2V48.139a4,4,0,0,1-4.039,3.94H674.385v.659a4,4,0,0,0,4.04,3.94h22.918a4,4,0,0,0,4.039-3.94V4.957a4,4,0,0,0-4.039-3.939" transform="translate(-674.385 -1.018)"/>
            </g>
          </g>
        </g>
        <path id="Trazado_721914" data-name="Trazado 721914" d="M701.464,0H678.546a4.509,4.509,0,0,0-4.554,4.453V52.233a4.509,4.509,0,0,0,4.554,4.453h22.919a4.509,4.509,0,0,0,4.553-4.453V4.453A4.509,4.509,0,0,0,701.464,0M678.546,55.659a3.477,3.477,0,0,1-3.526-3.425V4.453a3.477,3.477,0,0,1,3.526-3.425h10.945V55.659Zm26.444-3.425a3.477,3.477,0,0,1-3.526,3.425H690.518V1.027h10.946a3.477,3.477,0,0,1,3.526,3.425Z" transform="translate(-223.186 0)" fill="#5d5d5d"/>
        <path id="Trazado_721915" data-name="Trazado 721915" d="M707.528,18.3a4.8,4.8,0,1,1,4.8-4.8,4.8,4.8,0,0,1-4.8,4.8" transform="translate(-232.703 -2.883)" fill="#a091e2"/>
        <path id="Trazado_721916" data-name="Trazado 721916" d="M707.528,35.963a4.8,4.8,0,1,1,4.8-4.8,4.8,4.8,0,0,1-4.8,4.8" transform="translate(-232.703 -8.733)" fill="#a091e2"/>
        <path id="Trazado_721917" data-name="Trazado 721917" d="M707.528,53.63a4.8,4.8,0,1,1,4.8-4.8,4.8,4.8,0,0,1-4.8,4.8" transform="translate(-232.703 -14.583)" fill="#a091e2"/>
        <path id="Trazado_721918" data-name="Trazado 721918" d="M707.528,71.3a4.8,4.8,0,1,1,4.8-4.8,4.8,4.8,0,0,1-4.8,4.8" transform="translate(-232.703 -20.434)" fill="#a091e2"/>
        <path id="Trazado_721919" data-name="Trazado 721919" d="M684.484,18.3a4.8,4.8,0,1,1,4.8-4.8,4.8,4.8,0,0,1-4.8,4.8" transform="translate(-225.072 -2.883)" fill="#33c8db"/>
        <path id="Trazado_721920" data-name="Trazado 721920" d="M684.484,35.963a4.8,4.8,0,1,1,4.8-4.8,4.8,4.8,0,0,1-4.8,4.8" transform="translate(-225.072 -8.733)" fill="#33c8db"/>
        <path id="Trazado_721921" data-name="Trazado 721921" d="M684.484,53.63a4.8,4.8,0,1,1,4.8-4.8,4.8,4.8,0,0,1-4.8,4.8" transform="translate(-225.072 -14.583)" fill="#33c8db"/>
        <path id="Trazado_721922" data-name="Trazado 721922" d="M684.484,71.3a4.8,4.8,0,1,1,4.8-4.8,4.8,4.8,0,0,1-4.8,4.8" transform="translate(-225.072 -20.434)" fill="#33c8db"/>
        <g id="Grupo_1009218" data-name="Grupo 1009218" transform="translate(471.192 5.976)" opacity="0.2">
          <g id="Grupo_1009217" data-name="Grupo 1009217">
            <g id="Grupo_1009216" data-name="Grupo 1009216" clip-path="url(#clip-path-26)">
              <path id="Trazado_721923" data-name="Trazado 721923" d="M709.647,8.935a4.786,4.786,0,0,1-5.178,7.779,4.791,4.791,0,1,0,5.178-7.779" transform="translate(-704.47 -8.935)"/>
            </g>
          </g>
        </g>
        <path id="Trazado_721924" data-name="Trazado 721924" d="M705.537,15.048c0,.647-.262,1.171-.585,1.171s-.585-.524-.585-1.171.262-1.171.585-1.171.585.524.585,1.171" transform="translate(-233.244 -4.596)" fill="#fff"/>
        <g id="Grupo_1009221" data-name="Grupo 1009221" transform="translate(471.192 17.848)" opacity="0.2">
          <g id="Grupo_1009220" data-name="Grupo 1009220">
            <g id="Grupo_1009219" data-name="Grupo 1009219" clip-path="url(#clip-path-26)">
              <path id="Trazado_721925" data-name="Trazado 721925" d="M709.647,26.685a4.786,4.786,0,0,1-5.178,7.779,4.791,4.791,0,1,0,5.178-7.779" transform="translate(-704.47 -26.685)"/>
            </g>
          </g>
        </g>
        <path id="Trazado_721926" data-name="Trazado 721926" d="M705.537,32.8c0,.647-.262,1.171-.585,1.171s-.585-.524-.585-1.171.262-1.171.585-1.171.585.524.585,1.171" transform="translate(-233.244 -10.473)" fill="#fff"/>
        <g id="Grupo_1009224" data-name="Grupo 1009224" transform="translate(471.025 29.72)" opacity="0.2">
          <g id="Grupo_1009223" data-name="Grupo 1009223">
            <g id="Grupo_1009222" data-name="Grupo 1009222" clip-path="url(#clip-path-26)">
              <path id="Trazado_721927" data-name="Trazado 721927" d="M709.4,44.435a4.786,4.786,0,0,1-5.178,7.779,4.791,4.791,0,1,0,5.178-7.779" transform="translate(-704.22 -44.435)"/>
            </g>
          </g>
        </g>
        <path id="Trazado_721928" data-name="Trazado 721928" d="M705.287,50.548c0,.647-.262,1.171-.585,1.171s-.585-.524-.585-1.171.262-1.171.585-1.171.585.524.585,1.171" transform="translate(-233.161 -16.351)" fill="#fff"/>
        <g id="Grupo_1009227" data-name="Grupo 1009227" transform="translate(471.025 41.425)" opacity="0.2">
          <g id="Grupo_1009226" data-name="Grupo 1009226">
            <g id="Grupo_1009225" data-name="Grupo 1009225" clip-path="url(#clip-path-26)">
              <path id="Trazado_721929" data-name="Trazado 721929" d="M709.4,61.935a4.786,4.786,0,0,1-5.178,7.779,4.791,4.791,0,1,0,5.178-7.779" transform="translate(-704.22 -61.935)"/>
            </g>
          </g>
        </g>
        <path id="Trazado_721930" data-name="Trazado 721930" d="M705.287,68.048c0,.647-.262,1.171-.585,1.171s-.585-.524-.585-1.171.262-1.171.585-1.171.585.524.585,1.171" transform="translate(-233.161 -22.146)" fill="#fff"/>
        <g id="Grupo_1009230" data-name="Grupo 1009230" transform="translate(455.724 6.143)" opacity="0.2">
          <g id="Grupo_1009229" data-name="Grupo 1009229">
            <g id="Grupo_1009228" data-name="Grupo 1009228" clip-path="url(#clip-path-26)">
              <path id="Trazado_721931" data-name="Trazado 721931" d="M686.522,9.185a4.786,4.786,0,0,1-5.178,7.779,4.791,4.791,0,1,0,5.178-7.779" transform="translate(-681.345 -9.185)"/>
            </g>
          </g>
        </g>
        <path id="Trazado_721932" data-name="Trazado 721932" d="M682.412,15.3c0,.647-.262,1.171-.585,1.171s-.585-.524-.585-1.171.262-1.171.585-1.171.585.524.585,1.171" transform="translate(-225.586 -4.678)" fill="#fff"/>
        <g id="Grupo_1009233" data-name="Grupo 1009233" transform="translate(455.724 18.015)" opacity="0.2">
          <g id="Grupo_1009232" data-name="Grupo 1009232">
            <g id="Grupo_1009231" data-name="Grupo 1009231" clip-path="url(#clip-path-26)">
              <path id="Trazado_721933" data-name="Trazado 721933" d="M686.522,26.935a4.786,4.786,0,0,1-5.178,7.779,4.791,4.791,0,1,0,5.178-7.779" transform="translate(-681.345 -26.935)"/>
            </g>
          </g>
        </g>
        <path id="Trazado_721934" data-name="Trazado 721934" d="M682.412,33.048c0,.647-.262,1.171-.585,1.171s-.585-.524-.585-1.171.262-1.171.585-1.171.585.524.585,1.171" transform="translate(-225.586 -10.556)" fill="#fff"/>
        <g id="Grupo_1009236" data-name="Grupo 1009236" transform="translate(455.557 29.888)" opacity="0.2">
          <g id="Grupo_1009235" data-name="Grupo 1009235">
            <g id="Grupo_1009234" data-name="Grupo 1009234" clip-path="url(#clip-path-26)">
              <path id="Trazado_721935" data-name="Trazado 721935" d="M686.272,44.685a4.786,4.786,0,0,1-5.178,7.779,4.791,4.791,0,1,0,5.178-7.779" transform="translate(-681.095 -44.685)"/>
            </g>
          </g>
        </g>
        <path id="Trazado_721936" data-name="Trazado 721936" d="M682.162,50.8c0,.647-.262,1.171-.585,1.171s-.585-.524-.585-1.171.262-1.171.585-1.171.585.524.585,1.171" transform="translate(-225.504 -16.434)" fill="#fff"/>
        <g id="Grupo_1009239" data-name="Grupo 1009239" transform="translate(455.557 41.593)" opacity="0.2">
          <g id="Grupo_1009238" data-name="Grupo 1009238">
            <g id="Grupo_1009237" data-name="Grupo 1009237" clip-path="url(#clip-path-26)">
              <path id="Trazado_721937" data-name="Trazado 721937" d="M686.272,62.185a4.786,4.786,0,0,1-5.178,7.779,4.791,4.791,0,1,0,5.178-7.779" transform="translate(-681.095 -62.185)"/>
            </g>
          </g>
        </g>
        <path id="Trazado_721938" data-name="Trazado 721938" d="M682.162,68.3c0,.646-.262,1.171-.585,1.171s-.585-.524-.585-1.171.262-1.171.585-1.171.585.524.585,1.171" transform="translate(-225.504 -22.229)" fill="#fff"/>
        <path id="Trazado_721939" data-name="Trazado 721939" d="M707.274,7.938a5.309,5.309,0,1,0,5.309,5.309,5.315,5.315,0,0,0-5.309-5.309m-3.116,2.378q-.155.166-.293.347a4.53,4.53,0,0,1,.293-.347m-1.165,2.93a4.257,4.257,0,0,1,.872-2.582l5.992,5.992a4.276,4.276,0,0,1-6.864-3.409m6.864,3.409a4.418,4.418,0,0,0,.347-.293,4.278,4.278,0,0,1-.347.293m.359-.3a4,4,0,0,0,.316-.331,4.227,4.227,0,0,1-.316.331m.317-.332L704.5,9.989a4.148,4.148,0,0,0-.332.317,4.278,4.278,0,0,1,6.364,5.715" transform="translate(-232.449 -2.629)" fill="#5d5d5d"/>
        <path id="Trazado_721940" data-name="Trazado 721940" d="M707.274,25.6a5.309,5.309,0,1,0,5.309,5.309,5.315,5.315,0,0,0-5.309-5.309M704.5,27.656a3.989,3.989,0,0,0-.331.316,4.216,4.216,0,0,1,.331-.316m-.342.328a4.278,4.278,0,0,0-.293.347,4.278,4.278,0,0,1,.293-.347m-1.165,2.93a4.257,4.257,0,0,1,.872-2.582l5.992,5.992a4.276,4.276,0,0,1-6.864-3.409m6.864,3.409a4.279,4.279,0,0,0,.347-.293,4.279,4.279,0,0,1-.347.293m.359-.3a4.115,4.115,0,0,0,.316-.332,4.357,4.357,0,0,1-.316.332m.317-.332L704.5,27.656a4.279,4.279,0,0,1,6.032,6.032" transform="translate(-232.449 -8.479)" fill="#5d5d5d"/>
        <path id="Trazado_721941" data-name="Trazado 721941" d="M707.274,43.272a5.309,5.309,0,1,0,5.309,5.309,5.315,5.315,0,0,0-5.309-5.309M704.5,45.323a4.117,4.117,0,0,0-.332.316,4.359,4.359,0,0,1,.332-.316m-.342.328a4.277,4.277,0,0,0-.293.347,4.277,4.277,0,0,1,.293-.347m-1.165,2.93A4.257,4.257,0,0,1,703.865,46l5.992,5.992a4.276,4.276,0,0,1-6.864-3.409m6.864,3.409a4.418,4.418,0,0,0,.347-.293,4.278,4.278,0,0,1-.347.293m.359-.3a4.115,4.115,0,0,0,.316-.332,4.357,4.357,0,0,1-.316.332m.317-.332L704.5,45.323a4.279,4.279,0,0,1,6.032,6.032" transform="translate(-232.449 -14.329)" fill="#5d5d5d"/>
        <path id="Trazado_721942" data-name="Trazado 721942" d="M707.274,60.939a5.309,5.309,0,1,0,5.309,5.309,5.314,5.314,0,0,0-5.309-5.309M704.5,62.99a4.114,4.114,0,0,0-.331.316,4.229,4.229,0,0,1,.331-.316m-.342.328a4.417,4.417,0,0,0-.293.347,4.276,4.276,0,0,1,.293-.347m-1.165,2.93a4.257,4.257,0,0,1,.872-2.582l5.992,5.992a4.276,4.276,0,0,1-6.864-3.409m6.864,3.409a4.408,4.408,0,0,0,.347-.293,4.268,4.268,0,0,1-.347.293m.359-.3a4.085,4.085,0,0,0,.316-.33,4.085,4.085,0,0,1-.316.33m.317-.332L704.5,62.99a4.278,4.278,0,0,1,6.032,6.032" transform="translate(-232.449 -20.18)" fill="#5d5d5d"/>
        <path id="Trazado_721943" data-name="Trazado 721943" d="M684.231,7.938a5.309,5.309,0,1,0,5.309,5.309,5.314,5.314,0,0,0-5.309-5.309m-3.116,2.378a4.29,4.29,0,0,0-.293.347,4.145,4.145,0,0,1,.293-.347m-1.166,2.93a4.257,4.257,0,0,1,.872-2.582l5.992,5.992a4.276,4.276,0,0,1-6.864-3.409m6.864,3.409q.182-.138.348-.294a4.285,4.285,0,0,1-.348.294m.359-.3a4.237,4.237,0,0,0,.316-.332,4.237,4.237,0,0,1-.316.332m.317-.332-6.032-6.032a4.243,4.243,0,0,0-.332.317,4.278,4.278,0,0,1,6.364,5.715" transform="translate(-224.818 -2.629)" fill="#5d5d5d"/>
        <path id="Trazado_721944" data-name="Trazado 721944" d="M684.231,25.6a5.309,5.309,0,1,0,5.309,5.309,5.315,5.315,0,0,0-5.309-5.309m-3.116,2.379a4.377,4.377,0,0,0-.292.346,4.377,4.377,0,0,1,.292-.346m-1.165,2.93a4.257,4.257,0,0,1,.872-2.582l5.992,5.992a4.276,4.276,0,0,1-6.864-3.409m6.864,3.409q.182-.138.348-.293a4.418,4.418,0,0,1-.348.293m.359-.3a4.236,4.236,0,0,0,.316-.332,4.236,4.236,0,0,1-.316.332m.317-.332-6.032-6.032a4.13,4.13,0,0,0-.332.317,4.278,4.278,0,0,1,6.364,5.715" transform="translate(-224.818 -8.479)" fill="#5d5d5d"/>
        <path id="Trazado_721945" data-name="Trazado 721945" d="M684.231,43.272a5.309,5.309,0,1,0,5.309,5.309,5.314,5.314,0,0,0-5.309-5.309m-3.116,2.379a4.533,4.533,0,0,0-.293.346,4.372,4.372,0,0,1,.293-.346m-1.165,2.93A4.257,4.257,0,0,1,680.822,46l5.992,5.992a4.276,4.276,0,0,1-6.864-3.409m6.864,3.409a4.415,4.415,0,0,0,.348-.294,4.286,4.286,0,0,1-.348.294m.359-.3a4.236,4.236,0,0,0,.316-.332,4.364,4.364,0,0,1-.316.332m.317-.332-6.032-6.032a4.244,4.244,0,0,0-.332.317,4.278,4.278,0,0,1,6.364,5.715" transform="translate(-224.818 -14.329)" fill="#5d5d5d"/>
        <path id="Trazado_721946" data-name="Trazado 721946" d="M684.231,60.939a5.309,5.309,0,1,0,5.309,5.309,5.314,5.314,0,0,0-5.309-5.309m-3.116,2.379a4.418,4.418,0,0,0-.293.347,4.265,4.265,0,0,1,.293-.347m-1.165,2.93a4.257,4.257,0,0,1,.872-2.582l5.992,5.992a4.276,4.276,0,0,1-6.864-3.409m6.864,3.409q.182-.138.348-.293a4.416,4.416,0,0,1-.348.293m.359-.3a4.22,4.22,0,0,0,.316-.331,4.22,4.22,0,0,1-.316.331m.317-.332-6.032-6.032a4.243,4.243,0,0,0-.332.317,4.278,4.278,0,0,1,6.364,5.715" transform="translate(-224.818 -20.18)" fill="#5d5d5d"/>
        <path id="Trazado_721947" data-name="Trazado 721947" d="M40.641,51.9a13.941,13.941,0,1,1,0-19.715,13.942,13.942,0,0,1,0,19.715" transform="translate(-5.577 -9.305)" fill="#f4a337"/>
        <path id="Trazado_721948" data-name="Trazado 721948" d="M40.1,51.35a11.367,11.367,0,1,1,0-16.075,11.367,11.367,0,0,1,0,16.075" transform="translate(-6.851 -10.579)" fill="#ffb03e"/>
        <path id="Trazado_721949" data-name="Trazado 721949" d="M21.447,52.3a13.811,13.811,0,0,0,2.123,2.123l19.6-19.6A13.812,13.812,0,0,0,41.047,32.7Z" transform="translate(-7.102 -10.829)" fill="#f4a337"/>
        <g id="Grupo_1009242" data-name="Grupo 1009242" transform="translate(16.106 18.882)" opacity="0.2">
          <g id="Grupo_1009241" data-name="Grupo 1009241">
            <g id="Grupo_1009240" data-name="Grupo 1009240" clip-path="url(#clip-path-34)">
              <path id="Trazado_721950" data-name="Trazado 721950" d="M43.288,32.308a13.931,13.931,0,0,0-13.68-3.545,12.773,12.773,0,1,1-5.529,23.718A13.932,13.932,0,0,0,43.288,32.308" transform="translate(-24.079 -28.23)"/>
            </g>
          </g>
        </g>
        <path id="Trazado_721951" data-name="Trazado 721951" d="M30.622,56.151A14.276,14.276,0,1,1,40.716,51.97a14.178,14.178,0,0,1-10.094,4.182m0-27.875a13.6,13.6,0,1,0,9.621,3.978,13.561,13.561,0,0,0-9.621-3.978" transform="translate(-5.415 -9.142)" fill="#5e5d5d"/>
        <path id="Trazado_721952" data-name="Trazado 721952" d="M31.9,54.845a11.7,11.7,0,1,1,8.274-3.422A11.661,11.661,0,0,1,31.9,54.845m0-22.723a11.027,11.027,0,1,0,7.8,3.226,11,11,0,0,0-7.8-3.226" transform="translate(-6.689 -10.416)" fill="#5e5d5d"/>
        <path id="Trazado_721953" data-name="Trazado 721953" d="M23.372,54.651l-.233-.189a14.36,14.36,0,0,1-1.146-1.027,14.552,14.552,0,0,1-1.028-1.146l-.189-.234L40.8,32.03l.234.189a14.153,14.153,0,0,1,2.174,2.174l.189.233Zm-1.7-2.55c.255.3.519.591.789.861s.559.535.861.789L42.5,34.58c-.254-.3-.519-.591-.789-.861s-.56-.536-.861-.789Z" transform="translate(-6.88 -10.607)" fill="#5e5d5d"/>
        <path id="Trazado_721954" data-name="Trazado 721954" d="M12.841,55.383h0a9.945,9.945,0,0,1-9.916-9.916V22.226a9.916,9.916,0,1,1,19.832,0V45.467a9.945,9.945,0,0,1-9.916,9.916" transform="translate(-0.969 -4.077)" fill="#5ec8fb"/>
        <g id="Grupo_1009245" data-name="Grupo 1009245" transform="translate(4.832 9.432)" opacity="0.2">
          <g id="Grupo_1009244" data-name="Grupo 1009244">
            <g id="Grupo_1009243" data-name="Grupo 1009243" clip-path="url(#clip-path-35)">
              <path id="Trazado_721955" data-name="Trazado 721955" d="M18.545,14.1A9.884,9.884,0,0,1,21.5,21.147V44.388A9.945,9.945,0,0,1,11.589,54.3a9.813,9.813,0,0,1-4.366-1.031A9.9,9.9,0,0,0,24.1,46.227V22.986A9.936,9.936,0,0,0,18.545,14.1" transform="translate(-7.223 -14.102)"/>
            </g>
          </g>
        </g>
        <path id="Trazado_721956" data-name="Trazado 721956" d="M12.675,55.551A10.262,10.262,0,0,1,2.425,45.3V22.06a10.25,10.25,0,1,1,20.5,0V45.3a10.262,10.262,0,0,1-10.25,10.25m0-43.073A9.592,9.592,0,0,0,3.094,22.06V45.3a9.581,9.581,0,0,0,19.163,0V22.06a9.592,9.592,0,0,0-9.581-9.581" transform="translate(-0.803 -3.911)" fill="#5e5d5d"/>
        <path id="Trazado_721957" data-name="Trazado 721957" d="M.834,33.2A.335.335,0,0,1,.5,32.868V18.425A10.393,10.393,0,0,1,10.881,8.044h2.313A10.393,10.393,0,0,1,23.576,18.425V32.868a.335.335,0,0,1-.334.334Z" transform="translate(-0.166 -2.664)" fill="#b29eee"/>
        <g id="Grupo_1009248" data-name="Grupo 1009248" transform="translate(0.418 6.549)" opacity="0.2">
          <g id="Grupo_1009247" data-name="Grupo 1009247">
            <g id="Grupo_1009246" data-name="Grupo 1009246" clip-path="url(#clip-path-36)">
              <path id="Trazado_721958" data-name="Trazado 721958" d="M18.259,9.792a10.312,10.312,0,0,1,2.014,6.119V30.353a.334.334,0,0,1-.334.334H.625v2.675a.334.334,0,0,0,.334.334H23.366a.334.334,0,0,0,.334-.334V18.921a10.39,10.39,0,0,0-5.442-9.129" transform="translate(-0.625 -9.792)"/>
            </g>
          </g>
        </g>
        <path id="Trazado_721959" data-name="Trazado 721959" d="M13.029,8.213A10.077,10.077,0,0,1,23.076,18.26V32.7H.669V18.26A10.077,10.077,0,0,1,10.716,8.213Zm0-.669H10.716A10.728,10.728,0,0,0,0,18.26V32.7a.669.669,0,0,0,.669.669H23.076a.669.669,0,0,0,.669-.669V18.26A10.728,10.728,0,0,0,13.029,7.544" transform="translate(0 -2.498)" fill="#5e5d5d"/>
        <path id="Trazado_721960" data-name="Trazado 721960" d="M10.571,10.4c.462.577-.567,2.167-2.3,3.552S4.765,15.989,4.3,15.412s.567-2.166,2.3-3.552,3.508-2.039,3.97-1.462" transform="translate(-1.388 -3.374)" fill="#fff"/>
        <path id="Trazado_721961" data-name="Trazado 721961" d="M6.214,59.039h0a1.174,1.174,0,0,1-1.171-1.171V48.421a1.171,1.171,0,0,1,2.341,0v9.448a1.174,1.174,0,0,1-1.171,1.171" transform="translate(-1.67 -15.647)" fill="#fff"/>
        <path id="Trazado_721962" data-name="Trazado 721962" d="M46.48,38.633l-3.429,3.429a.627.627,0,0,1-.887-.887l3.429-3.429a.627.627,0,0,1,.887.887" transform="translate(-13.902 -12.439)" fill="#fff"/>
      </g>
    </g>
  </g>
</svg>
