<svg xmlns="http://www.w3.org/2000/svg" width="90" height="90" viewBox="0 0 90 90">
  <g id="Grupo_1008336" data-name="Grupo 1008336" transform="translate(-290 -976)">
    <rect id="Rectángulo_346076" data-name="Rectángulo 346076" width="90" height="90" transform="translate(290 976)" fill="none"/>
    <g id="_037-clock" data-name="037-clock" transform="translate(297 983)">
      <path id="Trazado_720767" data-name="Trazado 720767" d="M122.994,97.208a1.267,1.267,0,0,1,1.267-1.267h2.652a29.693,29.693,0,0,0-3.374-12.573L121.25,84.7a1.267,1.267,0,1,1-1.275-2.19l2.294-1.336a30.141,30.141,0,0,0-9.2-9.2l-1.336,2.295A1.267,1.267,0,1,1,109.545,73l1.333-2.289A29.693,29.693,0,0,0,98.3,67.332v2.652a1.267,1.267,0,0,1-2.534,0V67.332a29.7,29.7,0,0,0-12.578,3.376L84.514,73a1.267,1.267,0,1,1-2.2,1.267L81,71.979a30.142,30.142,0,0,0-9.2,9.2l2.281,1.329a1.267,1.267,0,1,1-1.276,2.19l-2.275-1.325a29.694,29.694,0,0,0-3.369,12.565H69.8a1.267,1.267,0,1,1,0,2.534H67.162a29.694,29.694,0,0,0,3.372,12.57l2.277-1.315a1.267,1.267,0,0,1,1.267,2.2L71.8,113.238a30.142,30.142,0,0,0,9.2,9.2l1.312-2.274a1.267,1.267,0,0,1,2.2,1.267L83.2,123.712a29.694,29.694,0,0,0,12.57,3.372V124.45a1.267,1.267,0,0,1,2.534,0v2.633a29.507,29.507,0,0,0,11.125-2.651V108.285a7.815,7.815,0,0,1,15.608-.575,29.817,29.817,0,0,0,1.875-9.235h-2.651A1.267,1.267,0,0,1,122.994,97.208Z" transform="translate(-58.537 -58.726)" fill="#c9f0fd"/>
      <path id="Trazado_720768" data-name="Trazado 720768" d="M61.28,58.773a1.267,1.267,0,0,0,1.267-2.2l-6.609-3.812a4.895,4.895,0,0,0-1.588-5.04v-11.7a3.138,3.138,0,0,0-6.277,0V47.716c-.117.1-.23.2-.337.306l-2.252-1.3a1.267,1.267,0,0,0-1.27,2.193l2.249,1.3q-.058.216-.1.44l-7.114,4.113A3.174,3.174,0,0,0,38.1,59.045l.016.027a3.17,3.17,0,0,0,2.723,1.544,3.1,3.1,0,0,0,1.563-.422l7.1-4.1a4.887,4.887,0,0,0,5.17-1.129ZM50.607,36.027a.6.6,0,0,1,1.208,0v10.6a4.775,4.775,0,0,0-1.208,0ZM41.124,58a.6.6,0,1,1-.6-1.045l6.159-3.56a4.922,4.922,0,0,0,.6,1.042Zm10.087-4.139a2.372,2.372,0,1,1,2.363-2.381,2.372,2.372,0,0,1-2.363,2.381ZM84.433,70.945a38.477,38.477,0,1,0-18.947,16.3A7.8,7.8,0,0,0,75.206,89a10.143,10.143,0,0,0,9.227-18.056Zm-11.081,13.3a7.609,7.609,0,0,1,8.785-11.563l.059.021a7.6,7.6,0,0,1,1.762.936ZM51.211,77.457a1.267,1.267,0,0,0-1.267,1.267v2.633a29.694,29.694,0,0,1-12.57-3.372l1.314-2.277a1.267,1.267,0,0,0-2.2-1.267l-1.312,2.274a30.142,30.142,0,0,1-9.2-9.2L28.251,66.2a1.267,1.267,0,0,0-1.267-2.2L24.707,65.32a29.694,29.694,0,0,1-3.372-12.57h2.633a1.267,1.267,0,0,0,0-2.534H21.335A29.694,29.694,0,0,1,24.7,37.651l2.275,1.325a1.267,1.267,0,1,0,1.276-2.19l-2.281-1.329a30.142,30.142,0,0,1,9.2-9.2l1.319,2.287a1.267,1.267,0,1,0,2.2-1.267l-1.322-2.291a29.7,29.7,0,0,1,12.578-3.376v2.652a1.267,1.267,0,1,0,2.534,0V21.607a29.693,29.693,0,0,1,12.573,3.374L63.718,27.27a1.267,1.267,0,1,0,2.19,1.276l1.336-2.295a30.141,30.141,0,0,1,9.2,9.2l-2.294,1.336a1.267,1.267,0,1,0,1.275,2.19l2.289-1.333a29.693,29.693,0,0,1,3.374,12.573H78.435a1.267,1.267,0,0,0,0,2.534h2.651a29.818,29.818,0,0,1-1.875,9.235,7.815,7.815,0,0,0-15.608.574V78.707a29.5,29.5,0,0,1-11.124,2.651V78.725A1.267,1.267,0,0,0,51.211,77.457Zm14.926-14.9a5.281,5.281,0,1,1,10.563,0V70.1a10.1,10.1,0,0,0-2.289.992H66.137ZM51.211,87.449A35.922,35.922,0,1,1,82.044,70a10.12,10.12,0,0,0-2.487-.31c-.108,0-.216,0-.323.008V67.807A32.354,32.354,0,1,0,63.6,81.47v.7a7.773,7.773,0,0,0,.552,2.878,35.637,35.637,0,0,1-12.943,2.4Zm20.207,0a5.287,5.287,0,0,1-5.281-5.281V73.629h5.394a10.115,10.115,0,0,0,1.15,13.662,5.26,5.26,0,0,1-1.263.157Zm8.139,0a7.576,7.576,0,0,1-4.414-1.414L85.75,75.428a7.609,7.609,0,0,1-6.193,12.021Z" transform="translate(-12.71 -13)"/>
      <g id="Grupo_1008334" data-name="Grupo 1008334" transform="translate(2.534 2.534)">
        <path id="Trazado_720769" data-name="Trazado 720769" d="M186.7,271.593a.6.6,0,1,0,.6,1.045l6.164-3.563a4.923,4.923,0,0,1-.6-1.042Z" transform="translate(-161.418 -230.17)" fill="#64b9fc"/>
        <path id="Trazado_720770" data-name="Trazado 720770" d="M253.166,165.758v-10.6a.6.6,0,0,0-1.208,0v10.6a4.774,4.774,0,0,1,1.208,0Z" transform="translate(-216.595 -134.669)" fill="#64b9fc"/>
        <path id="Trazado_720771" data-name="Trazado 720771" d="M64.677,100.914a35.636,35.636,0,0,0,12.943-2.4,7.773,7.773,0,0,1-.551-2.878v-.7a32.124,32.124,0,0,1-12.391,2.451A32.459,32.459,0,1,1,92.7,81.273v1.894c.108,0,.215-.008.323-.008a10.12,10.12,0,0,1,2.487.31,35.967,35.967,0,1,0-30.833,17.447Z" transform="translate(-28.71 -29)" fill="#64b9fc"/>
      </g>
      <path id="Trazado_720772" data-name="Trazado 720772" d="M411.271,419.134a7.609,7.609,0,0,0,6.193-12.021l-10.606,10.606A7.576,7.576,0,0,0,411.271,419.134Z" transform="translate(-344.423 -344.685)" fill="#23f1a8"/>
      <path id="Trazado_720773" data-name="Trazado 720773" d="M350,297.807v8.537h8.274a10.106,10.106,0,0,1,2.289-.992v-7.545a5.281,5.281,0,1,0-10.563,0Z" transform="translate(-296.573 -248.249)" fill="#fcb44d"/>
      <path id="Trazado_720774" data-name="Trazado 720774" d="M243.118,241.026a2.372,2.372,0,1,0,2.363,2.363A2.372,2.372,0,0,0,243.118,241.026Z" transform="translate(-204.617 -204.906)" fill="#8d9da7"/>
      <path id="Trazado_720775" data-name="Trazado 720775" d="M353.265,401.961a10.07,10.07,0,0,1,2.128-6.2H350V404.3a5.271,5.271,0,0,0,6.544,5.125A10.128,10.128,0,0,1,353.265,401.961Z" transform="translate(-296.573 -335.133)" fill="#fb4a59"/>
      <path id="Trazado_720776" data-name="Trazado 720776" d="M396.866,387.341l-.059-.021a7.6,7.6,0,0,0-8.785,11.564l10.606-10.606A7.6,7.6,0,0,0,396.866,387.341Z" transform="translate(-327.381 -327.642)" fill="#23f1a8"/>
    </g>
  </g>
</svg>
