<svg xmlns="http://www.w3.org/2000/svg" width="90" height="90" viewBox="0 0 90 90">
  <g id="Grupo_1008341" data-name="Grupo 1008341" transform="translate(-600 -976)">
    <rect id="Rectángulo_346077" data-name="Rectángulo 346077" width="90" height="90" transform="translate(600 976)" fill="none"/>
    <g id="_005-clipboard" data-name="005-clipboard" transform="translate(610 983)">
      <path id="Trazado_720777" data-name="Trazado 720777" d="M180.671,32.728s-.01,0-.015-.007l-8.522,0a1.267,1.267,0,0,1-1.267-1.267,2.456,2.456,0,0,0-4.912,0,1.267,1.267,0,0,1-1.267,1.267h-8.535v4.819h24.521Z" transform="translate(-141.342 -26.466)" fill="#8d9da7"/>
      <path id="Trazado_720778" data-name="Trazado 720778" d="M138.364,84.753v3.8a2.542,2.542,0,0,1-2.54,2.54H111.313a2.542,2.542,0,0,1-2.539-2.539v-3.8h-5.9V144h33.744v-6.385a1.267,1.267,0,0,1,1.267-1.267h6.385V84.753Z" transform="translate(-96.5 -73.387)" fill="#eceeee"/>
      <path id="Trazado_720779" data-name="Trazado 720779" d="M115.526,18H104.177a2.539,2.539,0,0,0-2.2-1.272H94.552a4.991,4.991,0,0,0-9.655,0H77.469A2.539,2.539,0,0,0,75.271,18H63.922a1.267,1.267,0,0,0-1.267,1.267V88.717a1.267,1.267,0,0,0,1.267,1.267h51.6a1.267,1.267,0,0,0,1.267-1.267V19.264A1.267,1.267,0,0,0,115.526,18Zm-5.1,57.965h-6.386a1.267,1.267,0,0,0-1.267,1.267v6.385H69.025V24.367h5.9v3.8a2.542,2.542,0,0,0,2.539,2.54h24.511a2.542,2.542,0,0,0,2.539-2.539v-3.8h5.9ZM108.631,78.5,105.3,81.822V78.5ZM101.986,28.16c0,.005-.011.014-.006.014l-24.516,0V26.611h24.522Zm-24.517-8.9H86a1.267,1.267,0,0,0,1.267-1.267,2.456,2.456,0,0,1,4.912,0,1.267,1.267,0,0,0,1.267,1.267l8.522,0c.005,0,.014.011.015.007v4.814H77.463V19.258Zm36.79,68.192H65.189V20.531h9.74v1.3H67.758A1.267,1.267,0,0,0,66.491,23.1V84.881a1.267,1.267,0,0,0,1.267,1.267h36.279a1.267,1.267,0,0,0,.9-.371l7.652-7.653a1.267,1.267,0,0,0,.371-.9V23.1a1.267,1.267,0,0,0-1.267-1.267h-7.17v-1.3h9.739ZM86.286,48a1.267,1.267,0,0,0,1.267,1.267h4.34A1.267,1.267,0,0,0,93.161,48V45.659h2.344a1.267,1.267,0,0,0,1.267-1.267v-4.34a1.267,1.267,0,0,0-1.267-1.267H93.161V36.44a1.267,1.267,0,0,0-1.267-1.267h-4.34a1.267,1.267,0,0,0-1.267,1.267v2.344H83.942a1.267,1.267,0,0,0-1.267,1.267v4.34a1.267,1.267,0,0,0,1.267,1.267h2.344Zm-1.077-4.879V41.318h2.344a1.267,1.267,0,0,0,1.267-1.267V37.707h1.806v2.344a1.267,1.267,0,0,0,1.267,1.267h2.344v1.806H91.894a1.267,1.267,0,0,0-1.267,1.267v2.344H88.821V44.391a1.267,1.267,0,0,0-1.267-1.267Zm9.6,10.759a1.267,1.267,0,0,1,0,2.534H85.4a1.267,1.267,0,0,1,0-2.534ZM105.4,59.29a1.267,1.267,0,1,1,0,2.534h-20a1.267,1.267,0,1,1,0-2.534ZM84.134,65.74A1.267,1.267,0,0,1,85.4,64.473h9.411a1.267,1.267,0,0,1,0,2.534H85.4a1.267,1.267,0,0,1-1.267-1.267Zm22.536,5.407a1.267,1.267,0,0,1-1.267,1.267h-20a1.267,1.267,0,0,1,0-2.534h20a1.267,1.267,0,0,1,1.267,1.268ZM79.453,53.883H74.045a1.267,1.267,0,0,0-1.267,1.267v5.407a1.267,1.267,0,0,0,1.267,1.267h5.408a1.267,1.267,0,0,0,1.267-1.267V55.15A1.267,1.267,0,0,0,79.453,53.883ZM78.185,59.29H75.312V56.418h2.874Zm1.267,5.183H74.045a1.267,1.267,0,0,0-1.267,1.267v5.407a1.267,1.267,0,0,0,1.267,1.267h5.408a1.267,1.267,0,0,0,1.267-1.267V65.741a1.267,1.267,0,0,0-1.267-1.267ZM78.185,69.88H75.312V67.008h2.874ZM88.452,18.01a1.27,1.27,0,1,1,.372.9A1.272,1.272,0,0,1,88.452,18.01Zm43.5,31.817-.021-.024c-.409-.47-.578-.664-.566-1.819V38.966a2.735,2.735,0,0,0-2.711-2.726l-.825-.022V34.568a1.267,1.267,0,0,0-1.267-1.267h-.38V31.388a3.11,3.11,0,0,0-6.22,0V33.3h-.379a1.267,1.267,0,0,0-1.267,1.267V71.578a1.267,1.267,0,0,0,.138.575l3.5,6.867a1.267,1.267,0,0,0,2.258,0l3.5-6.886a1.265,1.265,0,0,0,.138-.575l-.016-32.806.76.021c.119,0,.24.07.24.192v9a4.423,4.423,0,0,0,1.189,3.5l.02.024a1.267,1.267,0,1,0,1.911-1.665Zm-11.1-1.343H125.3l.011,22.213a6.791,6.791,0,0,1-4.463.015Zm0-2.534V35.836H125.3L125.3,45.95ZM122.5,31.388a.593.593,0,0,1,.585-.585.584.584,0,0,1,.566.585V33.3H122.5Zm.584,44.262-1.068-2.1a8.919,8.919,0,0,0,2.135-.006Z" transform="translate(-62.655 -13.001)"/>
      <path id="Trazado_720780" data-name="Trazado 720780" d="M335.231,426.474h-3.326V429.8Z" transform="translate(-289.255 -360.979)" fill="#ccdadd"/>
      <path id="Trazado_720781" data-name="Trazado 720781" d="M142.558,287.093h2.873v2.873h-2.873Z" transform="translate(-129.901 -243.676)" fill="#23f1a8"/>
      <path id="Trazado_720782" data-name="Trazado 720782" d="M208.653,175.658V178h1.806v-2.344a1.267,1.267,0,0,1,1.267-1.267h2.344v-1.806h-2.344a1.267,1.267,0,0,1-1.267-1.267v-2.344h-1.806v2.344a1.267,1.267,0,0,1-1.267,1.267h-2.344v1.806h2.344A1.267,1.267,0,0,1,208.653,175.658Z" transform="translate(-182.487 -144.267)" fill="#fb4a59"/>
      <path id="Trazado_720783" data-name="Trazado 720783" d="M142.558,353.949h2.873v2.873h-2.873Z" transform="translate(-129.901 -299.942)" fill="#23f1a8"/>
      <path id="Trazado_720784" data-name="Trazado 720784" d="M127.725,60.538h-9.739v1.3h7.171a1.267,1.267,0,0,1,1.267,1.267v54.129a1.267,1.267,0,0,1-.371.9l-7.653,7.653a1.267,1.267,0,0,1-.9.371H81.224a1.267,1.267,0,0,1-1.267-1.267V63.106a1.267,1.267,0,0,1,1.267-1.267H88.4v-1.3H78.656v66.919h49.069Z" transform="translate(-76.121 -53.008)" fill="#fcb44d"/>
      <path id="Trazado_720785" data-name="Trazado 720785" d="M180.667,100.472V98.923H156.145v1.558l24.516,0S180.665,100.477,180.667,100.472Z" transform="translate(-141.336 -85.313)" fill="#748e99"/>
      <path id="Trazado_720786" data-name="Trazado 720786" d="M437.4,395.255l1.067,2.1,1.068-2.1A8.917,8.917,0,0,1,437.4,395.255Z" transform="translate(-378.04 -334.7)" fill="#fb4a59"/>
      <path id="Trazado_720787" data-name="Trazado 720787" d="M434.508,157.16h-4.445v10.114h4.45Z" transform="translate(-371.865 -134.325)" fill="#fb4a59"/>
      <path id="Trazado_720788" data-name="Trazado 720788" d="M430.063,237.01v22.228a6.791,6.791,0,0,0,4.463-.015l-.011-22.213Z" transform="translate(-371.865 -201.527)" fill="#eceeee"/>
      <path id="Trazado_720789" data-name="Trazado 720789" d="M441.609,125.971a.584.584,0,0,0-.566-.585.593.593,0,0,0-.585.585v1.913h1.152Z" transform="translate(-380.613 -107.584)" fill="#8d9da7"/>
    </g>
  </g>
</svg>
