<svg xmlns="http://www.w3.org/2000/svg" width="90" height="90" viewBox="0 0 90 90">
  <g id="Grupo_1008343" data-name="Grupo 1008343" transform="translate(-1220 -976)">
    <rect id="Rectángulo_350967" data-name="Rectángulo 350967" width="90" height="90" transform="translate(1220 976)" fill="none"/>
    <g id="_049-doctor" data-name="049-doctor" transform="translate(1234 983)">
      <path id="Trazado_720803" data-name="Trazado 720803" d="M121,75.9c-.083-2.911-.278-9.729-6.561-11.652l-2.615-.81a6.646,6.646,0,0,0-6.572-5.72H98.606v-2.2a14.345,14.345,0,0,0,5.593-9.079h1.185a5.449,5.449,0,0,0,2.744-10.153L109.2,28.2a12.343,12.343,0,0,0-3.146-9.826A16.032,16.032,0,0,0,94.157,13H84.8c-4.784,0-7.818,1.93-9.028,5.738a12.4,12.4,0,0,0-4.7,12.242l.973,5.306a5.446,5.446,0,0,0,2.743,10.158h1.184a14.347,14.347,0,0,0,5.594,9.084v2.189H74.923a6.658,6.658,0,0,0-6.591,5.725l-2.592.8c-6.287,1.924-6.482,8.742-6.565,11.658l-.318,12.779a1.267,1.267,0,0,0,1.267,1.3h59.929a1.267,1.267,0,0,0,1.267-1.3Zm-12.07-13.359-7.389-2.289h3.71a4.107,4.107,0,0,1,3.679,2.289Zm-8.915,11.105,1.734,3.885-3.718,9.917H96.565l3.754-24.922,3.119.966-.048,6.479L100.432,72.1a1.267,1.267,0,0,0-.416,1.544ZM79.726,72.1l-2.942-2.131-.048-6.48,3.118-.966,3.738,24.921H82.144l-3.72-9.92,1.718-3.886a1.267,1.267,0,0,0-.416-1.539Zm3.84-1.92a26.136,26.136,0,0,0,13.036,0L94,87.449H86.155ZM105.383,43.91h-.978V38.081h.978a2.915,2.915,0,0,1,0,5.829ZM73.568,30.521A9.772,9.772,0,0,1,77.6,20.541a1.267,1.267,0,0,0,.491-.7c.544-2,1.8-4.3,6.71-4.3h9.355a13.463,13.463,0,0,1,9.994,4.514,9.846,9.846,0,0,1,2.54,7.822l-1.022,7.682c-.1,0-.19-.007-.285-.007H104.4a10.283,10.283,0,0,0-.713-3.5c-1.3-2.559-3.592-2.56-5.826-2.557a17,17,0,0,1-3.461-.246,32.4,32.4,0,0,1-8.6-3.369c-2.747-1.493-4.782-.94-6-.213-2.766,1.645-4.026,5.71-4.026,8.791v1.09h-.978c-.1,0-.2,0-.3.009Zm-1.7,10.464a2.918,2.918,0,0,1,2.924-2.905h.978V43.91h-.978A2.927,2.927,0,0,1,71.867,40.986ZM78.3,44.017V34.456c0-2.4.977-5.537,2.787-6.613a2.625,2.625,0,0,1,1.368-.376,4.543,4.543,0,0,1,2.137.641,34.772,34.772,0,0,0,9.311,3.624,18.8,18.8,0,0,0,3.845.3h.132c2.23,0,3,.093,3.54,1.162a8.559,8.559,0,0,1,.446,2.6v8.233a11.783,11.783,0,1,1-23.567,0ZM90.078,58.344a14.241,14.241,0,0,0,5.993-1.315v3.247a1.267,1.267,0,0,0,.892,1.21l.908.281-.852,5.657a23.15,23.15,0,0,1-6.94,1.051,22.716,22.716,0,0,1-6.926-1.052L82.3,61.768l.909-.281a1.267,1.267,0,0,0,.892-1.21V57.034a14.209,14.209,0,0,0,5.974,1.31ZM74.922,60.252h3.71l-7.408,2.3a4.127,4.127,0,0,1,3.7-2.3ZM69.534,77.242a1.717,1.717,0,1,1-1.727,1.708A1.717,1.717,0,0,1,69.534,77.242Zm-7.826-1.268c.117-4.109.777-8.078,4.778-9.3l1.782-.552V74.9a4.261,4.261,0,1,0,2.534,0V65.332l3.407-1.056.046,6.356a1.267,1.267,0,0,0,.524,1.017l2.631,1.906L75.9,76.977a1.267,1.267,0,0,0-.027.957l3.568,9.515H61.422Zm39.03,11.476,3.568-9.514a1.267,1.267,0,0,0-.029-.961l-1.526-3.418,2.643-1.9a1.267,1.267,0,0,0,.527-1.019l.046-6.356,3.388,1.05V71.38a5.37,5.37,0,0,0-4.079,5.211v8.682a1.267,1.267,0,0,0,1.267,1.267h1.4a1.267,1.267,0,1,0,0-2.534h-.136V76.592a2.824,2.824,0,0,1,2.655-2.822,1.255,1.255,0,0,0,.157.011,1.285,1.285,0,0,0,.157-.011,2.832,2.832,0,0,1,2.673,2.822v7.414h-.136a1.267,1.267,0,1,0,0,2.534h1.4a1.267,1.267,0,0,0,1.267-1.267V76.592a5.373,5.373,0,0,0-4.1-5.212V66.112l1.8.559c4,1.223,4.656,5.194,4.773,9.3l.285,11.48Z" transform="translate(-58.856 -13)"/>
      <path id="Trazado_720804" data-name="Trazado 720804" d="M117.1,422a1.717,1.717,0,1,0-1.727-1.727A1.717,1.717,0,0,0,117.1,422Z" transform="translate(-106.417 -354.32)" fill="#8d9da7"/>
      <path id="Trazado_720805" data-name="Trazado 720805" d="M214.659,292.273a14.209,14.209,0,0,1-5.974-1.31v3.242a1.267,1.267,0,0,1-.892,1.21l-.909.282.848,5.656a22.716,22.716,0,0,0,6.926,1.052,23.152,23.152,0,0,0,6.94-1.051l.852-5.657-.908-.281a1.267,1.267,0,0,1-.892-1.21v-3.247A14.241,14.241,0,0,1,214.659,292.273Z" transform="translate(-183.437 -246.929)" fill="#ffd4cf"/>
      <path id="Trazado_720806" data-name="Trazado 720806" d="M89.531,349.416l1.513-3.421-2.631-1.906a1.267,1.267,0,0,1-.524-1.017l-.046-6.356-3.407,1.056v9.566a4.261,4.261,0,1,1-2.534,0v-8.781l-1.782.552c-4,1.224-4.66,5.2-4.778,9.3l-.286,11.476H93.071L89.5,350.374a1.267,1.267,0,0,1,.027-.957Z" transform="translate(-72.49 -285.439)" fill="#e9f1f3"/>
      <path id="Trazado_720807" data-name="Trazado 720807" d="M171.742,326.632l.048,6.48,2.942,2.131a1.267,1.267,0,0,1,.416,1.539l-1.719,3.886,3.72,9.92H178.6l-3.737-24.922Z" transform="translate(-153.861 -276.139)" fill="#d1d9db"/>
      <path id="Trazado_720808" data-name="Trazado 720808" d="M346.413,171.335v5.829h.978a2.915,2.915,0,1,0,0-5.829Z" transform="translate(-300.863 -146.255)" fill="#f9c9c5"/>
      <path id="Trazado_720809" data-name="Trazado 720809" d="M193.409,132.671A11.806,11.806,0,0,0,205.2,120.878v-8.233a8.558,8.558,0,0,0-.446-2.6c-.541-1.069-1.31-1.162-3.54-1.162h-.132a18.791,18.791,0,0,1-3.845-.3,34.783,34.783,0,0,1-9.311-3.624,4.544,4.544,0,0,0-2.137-.641,2.625,2.625,0,0,0-1.368.376c-1.81,1.077-2.787,4.21-2.787,6.613v9.561A11.8,11.8,0,0,0,193.409,132.671Z" transform="translate(-162.187 -89.861)" fill="#ffd4cf"/>
      <path id="Trazado_720810" data-name="Trazado 720810" d="M300.368,336.781a1.267,1.267,0,0,1,.416-1.545l2.958-2.131.048-6.479-3.119-.966-3.755,24.923h1.466l3.719-9.917Z" transform="translate(-259.208 -276.134)" fill="#d1d9db"/>
      <path id="Trazado_720811" data-name="Trazado 720811" d="M157.007,39.13c1.223-.727,3.257-1.281,6,.213a32.383,32.383,0,0,0,8.6,3.369,17.008,17.008,0,0,0,3.461.246c2.233,0,4.529,0,5.826,2.557a10.283,10.283,0,0,1,.713,3.5h.982c.1,0,.19,0,.285.007l1.022-7.682a9.847,9.847,0,0,0-2.54-7.822A13.463,13.463,0,0,0,171.369,29h-9.355c-4.91,0-6.166,2.3-6.71,4.3a1.267,1.267,0,0,1-.491.7,9.774,9.774,0,0,0-4.032,9.981l.923,5.033c.1-.005.2-.009.3-.009h.978v-1.09c0-3.081,1.259-7.147,4.026-8.792Z" transform="translate(-136.067 -26.466)" fill="#748e99"/>
      <path id="Trazado_720812" data-name="Trazado 720812" d="M141,174.24a2.927,2.927,0,0,0,2.924,2.924h.978v-5.829h-.978A2.918,2.918,0,0,0,141,174.24Z" transform="translate(-127.988 -146.254)" fill="#f9c9c5"/>
      <path id="Trazado_720813" data-name="Trazado 720813" d="M221.366,374.836a25.52,25.52,0,0,1-6.512-.827l2.589,17.264h7.847l2.6-17.263A25.621,25.621,0,0,1,221.366,374.836Z" transform="translate(-190.144 -316.825)" fill="#64b9fc"/>
      <path id="Trazado_720814" data-name="Trazado 720814" d="M336.218,339.105l-1.8-.559v5.268a5.373,5.373,0,0,1,4.1,5.212v8.682a1.267,1.267,0,0,1-1.267,1.267h-1.4a1.267,1.267,0,1,1,0-2.534h.136v-7.414A2.832,2.832,0,0,0,333.3,346.2a1.288,1.288,0,0,1-.157.011,1.262,1.262,0,0,1-.157-.011,2.823,2.823,0,0,0-2.655,2.822v7.414h.136a1.267,1.267,0,0,1,0,2.534h-1.4a1.267,1.267,0,0,1-1.267-1.267v-8.682a5.37,5.37,0,0,1,4.078-5.211v-6.054l-3.388-1.05-.046,6.356a1.267,1.267,0,0,1-.527,1.019l-2.643,1.9,1.526,3.418a1.267,1.267,0,0,1,.029.961l-3.568,9.514h18.015l-.285-11.48C340.874,344.3,340.214,340.328,336.218,339.105Z" transform="translate(-281.38 -285.435)" fill="#e9f1f3"/>
    </g>
  </g>
</svg>
