<svg xmlns="http://www.w3.org/2000/svg" xmlns:xlink="http://www.w3.org/1999/xlink" width="95" height="95" viewBox="0 0 95 95">
  <defs>
    <clipPath id="clip-path">
      <rect id="Rectángulo_351416" data-name="Rectángulo 351416" width="91.15" height="80.515" transform="translate(0 0)" fill="none"/>
    </clipPath>
  </defs>
  <g id="Grupo_1009030" data-name="Grupo 1009030" transform="translate(4001 8638)">
    <rect id="Rectángulo_351400" data-name="Rectángulo 351400" width="95" height="95" transform="translate(-4001 -8638)" fill="none"/>
    <g id="Grupo_1009022" data-name="Grupo 1009022" transform="translate(-3999 -8631)">
      <g id="Grupo_1009021" data-name="Grupo 1009021" clip-path="url(#clip-path)">
        <path id="Trazado_721569" data-name="Trazado 721569" d="M78.236,40.257a30.383,30.383,0,1,1-8.9-21.483,30.381,30.381,0,0,1,8.9,21.483" fill="#dcfbff"/>
        <path id="Trazado_721570" data-name="Trazado 721570" d="M87.22,21.9a1.513,1.513,0,0,1-1.074-.445l-4.3-4.3A1.519,1.519,0,0,1,84,15.008l4.3,4.295A1.519,1.519,0,0,1,87.22,21.9" fill="#282828"/>
        <path id="Trazado_721571" data-name="Trazado 721571" d="M82.924,21.9A1.52,1.52,0,0,1,81.851,19.3l4.3-4.295a1.519,1.519,0,0,1,2.149,2.148l-4.3,4.3a1.511,1.511,0,0,1-1.074.445" fill="#282828"/>
        <path id="Trazado_721572" data-name="Trazado 721572" d="M42.537,59.247H85.073a4.557,4.557,0,0,1,0,9.115H42.537a4.557,4.557,0,1,1,0-9.115" fill="#81d4fa"/>
        <path id="Trazado_721573" data-name="Trazado 721573" d="M85.073,69.881H42.537a6.077,6.077,0,1,1,0-12.154H85.073a6.077,6.077,0,1,1,0,12.154M42.537,60.766a3.039,3.039,0,1,0,0,6.077H85.073a3.039,3.039,0,0,0,0-6.077Z" fill="#282828"/>
        <path id="Trazado_721574" data-name="Trazado 721574" d="M77.749,41.017H49.859A4.285,4.285,0,0,0,45.575,45.3V59.247H82.034V45.3a4.285,4.285,0,0,0-4.285-4.286" fill="#81d4fa"/>
        <path id="Trazado_721575" data-name="Trazado 721575" d="M82.034,60.766H45.575a1.519,1.519,0,0,1-1.52-1.52V45.3a5.81,5.81,0,0,1,5.8-5.8H77.75a5.81,5.81,0,0,1,5.8,5.8V59.246a1.518,1.518,0,0,1-1.519,1.52m-34.94-3.039H80.515V45.3a2.769,2.769,0,0,0-2.765-2.766H49.859A2.769,2.769,0,0,0,47.094,45.3Z" fill="#282828"/>
        <rect id="Rectángulo_351408" data-name="Rectángulo 351408" width="4.557" height="10.634" transform="translate(42.537 68.362)" fill="#6b4f5b"/>
        <path id="Trazado_721576" data-name="Trazado 721576" d="M47.094,80.515H42.537A1.518,1.518,0,0,1,41.018,79V68.362a1.518,1.518,0,0,1,1.519-1.519h4.557a1.518,1.518,0,0,1,1.519,1.519V79a1.519,1.519,0,0,1-1.519,1.519m-3.039-3.038h1.519v-7.6H44.055Z" fill="#282828"/>
        <rect id="Rectángulo_351409" data-name="Rectángulo 351409" width="4.557" height="10.634" transform="translate(80.516 68.362)" fill="#6b4f5b"/>
        <path id="Trazado_721577" data-name="Trazado 721577" d="M85.073,80.515H80.516A1.518,1.518,0,0,1,79,79V68.362a1.518,1.518,0,0,1,1.52-1.519h4.557a1.517,1.517,0,0,1,1.518,1.519V79a1.518,1.518,0,0,1-1.518,1.519m-3.039-3.038h1.519v-7.6H82.034Z" fill="#282828"/>
        <path id="Trazado_721578" data-name="Trazado 721578" d="M88.11,80.515H1.519a1.519,1.519,0,1,1,0-3.038H88.11a1.519,1.519,0,0,1,0,3.038" fill="#282828"/>
        <path id="Trazado_721579" data-name="Trazado 721579" d="M69.882,1.519A1.52,1.52,0,1,1,68.363,0a1.519,1.519,0,0,1,1.519,1.519" fill="#282828"/>
        <path id="Trazado_721580" data-name="Trazado 721580" d="M34.941,9.115A4.557,4.557,0,1,1,39.5,4.557a4.563,4.563,0,0,1-4.557,4.558m0-6.077A1.52,1.52,0,1,0,36.46,4.557a1.521,1.521,0,0,0-1.519-1.519" fill="#282828"/>
        <rect id="Rectángulo_351410" data-name="Rectángulo 351410" width="18.23" height="6.077" transform="translate(54.689 53.17)" fill="#a9ba5a"/>
        <path id="Trazado_721581" data-name="Trazado 721581" d="M72.919,60.766H54.689a1.518,1.518,0,0,1-1.518-1.519V53.17a1.518,1.518,0,0,1,1.518-1.519h18.23a1.519,1.519,0,0,1,1.52,1.519v6.077a1.519,1.519,0,0,1-1.52,1.519m-16.71-3.038H71.4V54.69H56.209Z" fill="#282828"/>
        <path id="Trazado_721582" data-name="Trazado 721582" d="M75.957,53.17H51.651V40.359A8.458,8.458,0,0,1,60.109,31.9H67.5a8.457,8.457,0,0,1,8.456,8.457Z" fill="#a9ba5a"/>
        <path id="Trazado_721583" data-name="Trazado 721583" d="M75.957,54.689H51.651a1.518,1.518,0,0,1-1.519-1.519V40.359a9.988,9.988,0,0,1,9.977-9.977H67.5a9.988,9.988,0,0,1,9.977,9.977V53.17a1.519,1.519,0,0,1-1.52,1.519M53.171,51.65H74.439V40.359A6.946,6.946,0,0,0,67.5,33.421H60.109a6.945,6.945,0,0,0-6.938,6.938Z" fill="#282828"/>
        <path id="Trazado_721584" data-name="Trazado 721584" d="M74.439,72.918h-7.6V58.487a3.8,3.8,0,1,1,7.6,0Z" fill="#a9ba5a"/>
        <path id="Trazado_721585" data-name="Trazado 721585" d="M74.439,74.438h-7.6a1.52,1.52,0,0,1-1.52-1.52V58.487a5.317,5.317,0,0,1,10.634,0V72.918a1.519,1.519,0,0,1-1.518,1.52M68.362,71.4h4.557V58.487a2.278,2.278,0,0,0-4.557,0Z" fill="#282828"/>
        <path id="Trazado_721586" data-name="Trazado 721586" d="M60.766,72.918H53.171V58.487a3.8,3.8,0,1,1,7.595,0Z" fill="#a9ba5a"/>
        <path id="Trazado_721587" data-name="Trazado 721587" d="M60.766,74.438H53.171a1.519,1.519,0,0,1-1.52-1.52V58.487a5.317,5.317,0,1,1,10.634,0V72.918a1.519,1.519,0,0,1-1.519,1.52M54.689,71.4h4.557V58.487a2.278,2.278,0,0,0-4.557,0Z" fill="#282828"/>
        <path id="Trazado_721588" data-name="Trazado 721588" d="M60.766,79H53.171V76.716a3.8,3.8,0,1,1,7.595,0Z" fill="#fff"/>
        <path id="Trazado_721589" data-name="Trazado 721589" d="M60.766,80.515H53.171A1.518,1.518,0,0,1,51.651,79V76.717a5.317,5.317,0,1,1,10.634,0V79a1.518,1.518,0,0,1-1.519,1.519m-6.077-3.038h4.557v-.76a2.278,2.278,0,1,0-4.557,0Z" fill="#282828"/>
        <path id="Trazado_721590" data-name="Trazado 721590" d="M74.439,79h-7.6V76.716a3.8,3.8,0,1,1,7.6,0Z" fill="#fff"/>
        <path id="Trazado_721591" data-name="Trazado 721591" d="M74.439,80.515h-7.6A1.519,1.519,0,0,1,65.323,79V76.717a5.317,5.317,0,0,1,10.634,0V79a1.518,1.518,0,0,1-1.518,1.519m-6.077-3.038h4.557v-.76a2.278,2.278,0,1,0-4.557,0Z" fill="#282828"/>
        <path id="Trazado_721592" data-name="Trazado 721592" d="M69.882,48.613H57.729a1.518,1.518,0,0,1-1.52-1.519V42.536a1.519,1.519,0,1,1,3.038,0v3.039h9.116V42.536a1.519,1.519,0,1,1,3.037,0v4.558a1.518,1.518,0,0,1-1.518,1.519" fill="#282828"/>
        <rect id="Rectángulo_351411" data-name="Rectángulo 351411" width="6.077" height="6.077" transform="translate(60.766 47.094)" fill="#bf7e68"/>
        <path id="Trazado_721593" data-name="Trazado 721593" d="M66.843,54.69H60.766a1.519,1.519,0,0,1-1.519-1.52V47.094a1.518,1.518,0,0,1,1.519-1.519h6.077a1.518,1.518,0,0,1,1.519,1.519V53.17a1.518,1.518,0,0,1-1.519,1.52m-4.558-3.039h3.038V48.613H62.285Z" fill="#282828"/>
        <path id="Trazado_721594" data-name="Trazado 721594" d="M69.882,19.749H57.729v9.116A3.037,3.037,0,0,0,60.766,31.9V34.94a3.039,3.039,0,1,0,6.077,0V31.9a3.038,3.038,0,0,0,3.039-3.037Z" fill="#bf7e68"/>
        <path id="Trazado_721595" data-name="Trazado 721595" d="M63.8,39.5a4.563,4.563,0,0,1-4.558-4.558V33.161a4.567,4.567,0,0,1-3.038-4.3V19.749a1.518,1.518,0,0,1,1.52-1.519H69.881A1.517,1.517,0,0,1,71.4,19.749v9.115a4.567,4.567,0,0,1-3.037,4.3V34.94A4.563,4.563,0,0,1,63.8,39.5m-4.558-18.23v7.6a1.521,1.521,0,0,0,1.519,1.519,1.518,1.518,0,0,1,1.52,1.519V34.94a1.519,1.519,0,1,0,3.038,0V31.9a1.519,1.519,0,0,1,1.519-1.519,1.522,1.522,0,0,0,1.52-1.519v-7.6Z" fill="#282828"/>
        <path id="Trazado_721596" data-name="Trazado 721596" d="M69.882,19.749H58.543A3.853,3.853,0,0,1,54.69,15.9V13.672H64a5.887,5.887,0,0,1,5.885,5.886Z" fill="#6b4f5b"/>
        <path id="Trazado_721597" data-name="Trazado 721597" d="M69.882,21.268H58.543A5.378,5.378,0,0,1,53.171,15.9V13.671a1.518,1.518,0,0,1,1.519-1.518H64a7.412,7.412,0,0,1,7.4,7.4v.192a1.519,1.519,0,0,1-1.518,1.52M56.209,15.191v.7a2.338,2.338,0,0,0,2.334,2.334h9.613A4.373,4.373,0,0,0,64,15.191Z" fill="#282828"/>
        <rect id="Rectángulo_351412" data-name="Rectángulo 351412" width="27.345" height="48.613" transform="translate(6.077 21.268)" fill="#fff"/>
        <path id="Trazado_721598" data-name="Trazado 721598" d="M33.421,71.4H6.077a1.518,1.518,0,0,1-1.518-1.519V21.268a1.518,1.518,0,0,1,1.518-1.519H33.421a1.519,1.519,0,0,1,1.52,1.519V69.881a1.519,1.519,0,0,1-1.52,1.519M7.6,68.362H31.9V22.788H7.6Z" fill="#282828"/>
        <path id="Trazado_721599" data-name="Trazado 721599" d="M27.345,30.383H22.788V25.826H16.711v4.557H12.154V36.46h4.557v4.557h6.077V36.46h4.557Z" fill="#e66353"/>
        <path id="Trazado_721600" data-name="Trazado 721600" d="M22.787,42.536H16.711a1.518,1.518,0,0,1-1.519-1.519V37.979H12.153a1.52,1.52,0,0,1-1.519-1.52V30.383a1.518,1.518,0,0,1,1.519-1.519h3.039V25.825a1.518,1.518,0,0,1,1.519-1.519h6.076a1.52,1.52,0,0,1,1.52,1.519v3.039h3.038a1.518,1.518,0,0,1,1.519,1.519v6.076a1.52,1.52,0,0,1-1.519,1.52H24.307v3.038a1.52,1.52,0,0,1-1.52,1.519M18.23,39.5h3.038V36.459a1.519,1.519,0,0,1,1.519-1.519h3.039V31.9H22.787a1.519,1.519,0,0,1-1.519-1.519V27.345H18.23v3.038A1.519,1.519,0,0,1,16.711,31.9H13.673V34.94h3.038a1.519,1.519,0,0,1,1.519,1.519Z" fill="#282828"/>
        <rect id="Rectángulo_351413" data-name="Rectángulo 351413" width="27.345" height="9.115" transform="translate(6.077 45.575)" fill="#81d4fa"/>
        <path id="Trazado_721601" data-name="Trazado 721601" d="M33.421,56.209H6.077A1.518,1.518,0,0,1,4.559,54.69V45.575a1.518,1.518,0,0,1,1.518-1.519H33.421a1.519,1.519,0,0,1,1.52,1.519V54.69a1.519,1.519,0,0,1-1.52,1.519M7.6,53.17H31.9V47.093H7.6Z" fill="#282828"/>
        <path id="Trazado_721602" data-name="Trazado 721602" d="M27.345,51.65H12.154a1.519,1.519,0,1,1,0-3.038H27.345a1.519,1.519,0,1,1,0,3.038" fill="#282828"/>
        <path id="Trazado_721603" data-name="Trazado 721603" d="M16.711,62.284a3.039,3.039,0,1,1-3.038-3.038,3.039,3.039,0,0,1,3.038,3.038" fill="#e66353"/>
        <path id="Trazado_721604" data-name="Trazado 721604" d="M13.673,66.843a4.558,4.558,0,1,1,4.557-4.559,4.563,4.563,0,0,1-4.557,4.559m0-6.077a1.519,1.519,0,1,0,1.52,1.518,1.521,1.521,0,0,0-1.52-1.518" fill="#282828"/>
        <path id="Trazado_721605" data-name="Trazado 721605" d="M27.345,62.284a3.038,3.038,0,1,1-3.038-3.038,3.039,3.039,0,0,1,3.038,3.038" fill="#a9ba5a"/>
        <path id="Trazado_721606" data-name="Trazado 721606" d="M24.307,66.843a4.558,4.558,0,1,1,4.557-4.559,4.563,4.563,0,0,1-4.557,4.559m0-6.077a1.519,1.519,0,1,0,1.519,1.518,1.521,1.521,0,0,0-1.519-1.518" fill="#282828"/>
        <rect id="Rectángulo_351414" data-name="Rectángulo 351414" width="18.23" height="4.557" transform="translate(10.634 69.881)" fill="#b5a19c"/>
        <path id="Trazado_721607" data-name="Trazado 721607" d="M28.864,75.958H10.634a1.52,1.52,0,0,1-1.518-1.52V69.881a1.519,1.519,0,0,1,1.518-1.519h18.23a1.52,1.52,0,0,1,1.52,1.519v4.557a1.521,1.521,0,0,1-1.52,1.52M12.153,72.919H27.344V71.4H12.153Z" fill="#282828"/>
        <rect id="Rectángulo_351415" data-name="Rectángulo 351415" width="27.345" height="4.557" transform="translate(6.077 74.438)" fill="#fff"/>
        <path id="Trazado_721608" data-name="Trazado 721608" d="M33.421,80.515H6.077A1.518,1.518,0,0,1,4.559,79V74.438a1.518,1.518,0,0,1,1.518-1.519H33.421a1.519,1.519,0,0,1,1.52,1.519V79a1.519,1.519,0,0,1-1.52,1.519M7.6,77.477H31.9V75.958H7.6Z" fill="#282828"/>
      </g>
    </g>
  </g>
</svg>
