<svg xmlns="http://www.w3.org/2000/svg" xmlns:xlink="http://www.w3.org/1999/xlink" width="95" height="95" viewBox="0 0 95 95">
  <defs>
    <clipPath id="clip-path">
      <rect id="Rectángulo_351393" data-name="Rectángulo 351393" width="94.186" height="86.592" transform="translate(0 0)" fill="none"/>
    </clipPath>
  </defs>
  <g id="Grupo_1009016" data-name="Grupo 1009016" transform="translate(3650 9061)">
    <rect id="Rectángulo_351396" data-name="Rectángulo 351396" width="95" height="95" transform="translate(-3650 -9061)" fill="none"/>
    <g id="Grupo_1009015" data-name="Grupo 1009015" transform="translate(-3650 -9056)">
      <g id="Grupo_1009014" data-name="Grupo 1009014" clip-path="url(#clip-path)">
        <path id="Trazado_721504" data-name="Trazado 721504" d="M86.591,40.258a32.659,32.659,0,1,1-9.566-23.1,32.661,32.661,0,0,1,9.566,23.1" fill="#dcfbff"/>
        <path id="Trazado_721505" data-name="Trazado 721505" d="M39.5,42.537H36.459a3.039,3.039,0,0,1,0-6.077H39.5Z" fill="#ffded5"/>
        <path id="Trazado_721506" data-name="Trazado 721506" d="M39.5,44.056H36.459a4.557,4.557,0,0,1,0-9.115H39.5a1.518,1.518,0,0,1,1.519,1.52v6.076A1.518,1.518,0,0,1,39.5,44.056m-3.038-6.077a1.52,1.52,0,0,0,0,3.039h1.519V37.979Z" fill="#282828"/>
        <path id="Trazado_721507" data-name="Trazado 721507" d="M51.65,85.073H63.8l1.52-33.421V34.941H50.131V51.652Z" fill="#fff"/>
        <path id="Trazado_721508" data-name="Trazado 721508" d="M63.8,86.592H51.651a1.519,1.519,0,0,1-1.517-1.451L48.614,51.72V34.94a1.519,1.519,0,0,1,1.518-1.519H65.323a1.519,1.519,0,0,1,1.519,1.519V51.651l-1.521,33.49A1.519,1.519,0,0,1,63.8,86.592M53.1,83.553h9.249l1.453-31.97V36.46H51.651V51.651Z" fill="#282828"/>
        <path id="Trazado_721509" data-name="Trazado 721509" d="M71.4,32.671v18.98H65.323V63.805H50.131V41.017H44.055V32.671a11.4,11.4,0,0,1,11.4-11.4H60a11.4,11.4,0,0,1,11.4,11.4" fill="#fff"/>
        <path id="Trazado_721510" data-name="Trazado 721510" d="M65.323,65.323H50.131A1.519,1.519,0,0,1,48.612,63.8V42.536H44.055a1.519,1.519,0,0,1-1.519-1.519V32.67A12.936,12.936,0,0,1,55.457,19.749H60A12.935,12.935,0,0,1,72.918,32.67V51.651A1.519,1.519,0,0,1,71.4,53.17H66.841V63.8a1.518,1.518,0,0,1-1.518,1.519M51.65,62.285H63.8V51.651a1.519,1.519,0,0,1,1.52-1.519H69.88V32.67A9.9,9.9,0,0,0,60,22.787H55.457a9.9,9.9,0,0,0-9.884,9.883V39.5h4.558a1.518,1.518,0,0,1,1.519,1.519Z" fill="#282828"/>
        <path id="Trazado_721511" data-name="Trazado 721511" d="M50.131,34.34v8.2H39.5V36.46h4.559V31.9" fill="#fff"/>
        <path id="Trazado_721512" data-name="Trazado 721512" d="M50.131,44.055H39.5a1.518,1.518,0,0,1-1.518-1.519V36.46A1.519,1.519,0,0,1,39.5,34.94h3.039V31.9a1.519,1.519,0,1,1,3.038,0V36.46a1.518,1.518,0,0,1-1.518,1.518H41.017v3.039h7.6V34.34a1.519,1.519,0,1,1,3.037,0v8.2a1.518,1.518,0,0,1-1.519,1.519" fill="#282828"/>
        <path id="Trazado_721513" data-name="Trazado 721513" d="M54.689,7.6H63.8V5.05a3.531,3.531,0,0,0-3.53-3.531H48.612A6.076,6.076,0,0,0,54.689,7.6" fill="#6b4f5b"/>
        <path id="Trazado_721514" data-name="Trazado 721514" d="M63.8,9.116H54.69a7.6,7.6,0,0,1-7.6-7.6A1.519,1.519,0,0,1,48.613,0H60.275a5.055,5.055,0,0,1,5.049,5.049V7.6a1.519,1.519,0,0,1-1.52,1.52M50.392,3.039a4.565,4.565,0,0,0,4.3,3.038h7.6V5.049a2.013,2.013,0,0,0-2.01-2.01Z" fill="#282828"/>
        <path id="Trazado_721515" data-name="Trazado 721515" d="M65.323,53.171A1.519,1.519,0,0,1,63.8,51.652V33.422a1.519,1.519,0,1,1,3.038,0v18.23a1.52,1.52,0,0,1-1.519,1.519" fill="#282828"/>
        <rect id="Rectángulo_351389" data-name="Rectángulo 351389" width="12.153" height="6.077" transform="translate(51.65 7.596)" fill="#ffe8dc"/>
        <path id="Trazado_721516" data-name="Trazado 721516" d="M63.8,15.192H51.65a1.519,1.519,0,0,1-1.519-1.519V7.6A1.519,1.519,0,0,1,51.65,6.077H63.8A1.519,1.519,0,0,1,65.323,7.6v6.077A1.519,1.519,0,0,1,63.8,15.192M53.17,12.153h9.115V9.115H53.17Z" fill="#282828"/>
        <path id="Trazado_721517" data-name="Trazado 721517" d="M54.689,21.269v1.518a3.038,3.038,0,1,0,6.075,0V21.269Z" fill="#ffe8dc"/>
        <path id="Trazado_721518" data-name="Trazado 721518" d="M57.727,27.344a4.562,4.562,0,0,1-4.557-4.557V21.269a1.519,1.519,0,0,1,1.52-1.52h6.075a1.519,1.519,0,0,1,1.52,1.52v1.518a4.562,4.562,0,0,1-4.558,4.557m-1.519-4.557a1.52,1.52,0,0,0,3.039,0Z" fill="#282828"/>
        <path id="Trazado_721519" data-name="Trazado 721519" d="M57.727,39.5a1.518,1.518,0,0,1-1.519-1.519V25.826a1.519,1.519,0,1,1,3.038,0V37.979A1.518,1.518,0,0,1,57.727,39.5" fill="#282828"/>
        <path id="Trazado_721520" data-name="Trazado 721520" d="M24.306,54.689V48.9a6.363,6.363,0,0,0-6.363-6.363H10.634V54.689Z" fill="#ffded5"/>
        <path id="Trazado_721521" data-name="Trazado 721521" d="M24.305,56.209H10.634a1.519,1.519,0,0,1-1.52-1.52V42.537a1.519,1.519,0,0,1,1.52-1.519h7.309A7.89,7.89,0,0,1,25.825,48.9v5.789a1.519,1.519,0,0,1-1.52,1.52M12.152,53.171H22.786V48.9a4.85,4.85,0,0,0-4.843-4.844H12.152Z" fill="#282828"/>
        <path id="Trazado_721522" data-name="Trazado 721522" d="M55.49,47.094a7.767,7.767,0,0,0-7.064-4.557H30.613a6.307,6.307,0,0,0-6.308,6.306v5.846H69.88V47.094Z" fill="#f4aeab"/>
        <path id="Trazado_721523" data-name="Trazado 721523" d="M69.88,56.209H24.306a1.519,1.519,0,0,1-1.52-1.52V48.843a7.834,7.834,0,0,1,7.826-7.825H48.425a9.317,9.317,0,0,1,7.981,4.557H69.88a1.518,1.518,0,0,1,1.52,1.519v7.595a1.519,1.519,0,0,1-1.52,1.52M25.825,53.171H68.361V48.614H55.49a1.518,1.518,0,0,1-1.381-.888,6.275,6.275,0,0,0-5.684-3.67H30.612a4.793,4.793,0,0,0-4.787,4.787Z" fill="#282828"/>
        <path id="Trazado_721524" data-name="Trazado 721524" d="M6.077,63.805H88.11a4.558,4.558,0,0,0,0-9.116H6.077a4.558,4.558,0,1,0,0,9.116" fill="#fff"/>
        <path id="Trazado_721525" data-name="Trazado 721525" d="M88.11,65.323H6.077a6.076,6.076,0,1,1,0-12.152H88.11a6.076,6.076,0,0,1,0,12.152M6.077,56.209a3.038,3.038,0,1,0,0,6.077H88.11a3.038,3.038,0,0,0,0-6.077Z" fill="#282828"/>
        <rect id="Rectángulo_351390" data-name="Rectángulo 351390" width="4.557" height="21.268" transform="translate(80.515 63.805)" fill="#b5a19c"/>
        <path id="Trazado_721526" data-name="Trazado 721526" d="M85.072,86.592H80.515A1.519,1.519,0,0,1,79,85.073V63.805a1.519,1.519,0,0,1,1.52-1.52h4.557a1.518,1.518,0,0,1,1.519,1.52V85.073a1.519,1.519,0,0,1-1.519,1.519m-3.038-3.039h1.518V65.323H82.034Z" fill="#282828"/>
        <rect id="Rectángulo_351391" data-name="Rectángulo 351391" width="4.557" height="21.268" transform="translate(7.595 63.805)" fill="#b5a19c"/>
        <path id="Trazado_721527" data-name="Trazado 721527" d="M12.152,86.592H7.595a1.518,1.518,0,0,1-1.518-1.519V63.805a1.518,1.518,0,0,1,1.518-1.52h4.557a1.519,1.519,0,0,1,1.52,1.52V85.073a1.52,1.52,0,0,1-1.52,1.519M9.115,83.553h1.519V65.323H9.115Z" fill="#282828"/>
        <path id="Trazado_721528" data-name="Trazado 721528" d="M28.863,48.614H51.65a3.038,3.038,0,1,1,0,6.075H28.863" fill="#ffe8dc"/>
        <path id="Trazado_721529" data-name="Trazado 721529" d="M51.65,56.209H28.863a1.519,1.519,0,1,1,0-3.038H51.65a1.52,1.52,0,0,0,0-3.039H28.863a1.519,1.519,0,1,1,0-3.038H51.65a4.557,4.557,0,0,1,0,9.115" fill="#282828"/>
        <path id="Trazado_721530" data-name="Trazado 721530" d="M91.148,86.592H3.038a1.52,1.52,0,1,1,0-3.039h88.11a1.52,1.52,0,1,1,0,3.039" fill="#282828"/>
        <path id="Trazado_721531" data-name="Trazado 721531" d="M81.475,26.586a1.721,1.721,0,1,1-1.721-1.72,1.721,1.721,0,0,1,1.721,1.72" fill="#282828"/>
        <path id="Trazado_721532" data-name="Trazado 721532" d="M18.229,16.525a1.517,1.517,0,0,1-1.518-1.518v-2.15a1.519,1.519,0,1,1,3.037,0v2.15a1.518,1.518,0,0,1-1.519,1.518" fill="#282828"/>
        <path id="Trazado_721533" data-name="Trazado 721533" d="M18.229,25.123A1.517,1.517,0,0,1,16.711,23.6v-2.15a1.518,1.518,0,1,1,3.037,0V23.6a1.518,1.518,0,0,1-1.519,1.519" fill="#282828"/>
        <path id="Trazado_721534" data-name="Trazado 721534" d="M15.006,19.75h-2.15a1.52,1.52,0,0,1,0-3.039h2.15a1.519,1.519,0,1,1,0,3.039" fill="#282828"/>
        <path id="Trazado_721535" data-name="Trazado 721535" d="M23.6,19.75H21.453a1.519,1.519,0,0,1,0-3.039H23.6a1.519,1.519,0,0,1,0,3.039" fill="#282828"/>
        <path id="Trazado_721536" data-name="Trazado 721536" d="M79,15.193a4.558,4.558,0,1,1,4.557-4.558A4.563,4.563,0,0,1,79,15.193m0-6.077a1.519,1.519,0,1,0,1.519,1.519A1.521,1.521,0,0,0,79,9.116" fill="#282828"/>
        <rect id="Rectángulo_351392" data-name="Rectángulo 351392" width="3.039" height="21.268" transform="translate(56.208 63.805)" fill="#282828"/>
        <path id="Trazado_721537" data-name="Trazado 721537" d="M59.592,21.269h-3.73a4.212,4.212,0,0,1-4.212-4.212V13.673H63.8v3.384a4.212,4.212,0,0,1-4.212,4.212" fill="#fff"/>
        <path id="Trazado_721538" data-name="Trazado 721538" d="M59.592,22.787H55.863a5.738,5.738,0,0,1-5.732-5.73V13.673a1.519,1.519,0,0,1,1.52-1.52H63.8a1.518,1.518,0,0,1,1.519,1.52v3.384a5.737,5.737,0,0,1-5.731,5.73m-6.422-7.6v1.865a2.7,2.7,0,0,0,2.693,2.692h3.729a2.7,2.7,0,0,0,2.693-2.692V15.192Z" fill="#282828"/>
        <path id="Trazado_721539" data-name="Trazado 721539" d="M10.634,50.132V45.575A6.076,6.076,0,0,0,4.557,39.5V51.16a3.529,3.529,0,0,0,3.529,3.529h16.22V50.132Z" fill="#ffce56"/>
        <path id="Trazado_721540" data-name="Trazado 721540" d="M24.306,56.209H8.087A5.055,5.055,0,0,1,3.038,51.16V39.5a1.519,1.519,0,0,1,1.52-1.519,7.6,7.6,0,0,1,7.594,7.6v3.039H24.306a1.518,1.518,0,0,1,1.519,1.518v4.557a1.519,1.519,0,0,1-1.519,1.52M6.077,41.277V51.16a2.014,2.014,0,0,0,2.01,2.011h14.7v-1.52H10.634a1.518,1.518,0,0,1-1.519-1.519V45.575a4.568,4.568,0,0,0-3.038-4.3" fill="#282828"/>
        <path id="Trazado_721541" data-name="Trazado 721541" d="M69.881,54.689H89.629V50.5a3.407,3.407,0,0,0-3.407-3.408H69.881Z" fill="#ffe8dc"/>
        <path id="Trazado_721542" data-name="Trazado 721542" d="M89.629,56.209H69.881a1.519,1.519,0,0,1-1.52-1.52V47.094a1.518,1.518,0,0,1,1.52-1.519H86.22A4.933,4.933,0,0,1,91.148,50.5v4.187a1.518,1.518,0,0,1-1.519,1.52M71.4,53.171H88.109V50.5a1.89,1.89,0,0,0-1.889-1.888H71.4Z" fill="#282828"/>
      </g>
    </g>
  </g>
</svg>
