<svg xmlns="http://www.w3.org/2000/svg" xmlns:xlink="http://www.w3.org/1999/xlink" width="95" height="95" viewBox="0 0 95 95">
  <defs>
    <clipPath id="clip-path">
      <rect id="Rectángulo_351388" data-name="Rectángulo 351388" width="91.15" height="89.629" transform="translate(0 0)" fill="none"/>
    </clipPath>
  </defs>
  <g id="Grupo_1009017" data-name="Grupo 1009017" transform="translate(4001 9063)">
    <rect id="Rectángulo_351395" data-name="Rectángulo 351395" width="95" height="95" transform="translate(-4001 -9063)" fill="none"/>
    <g id="Grupo_1009013" data-name="Grupo 1009013" transform="translate(-3999 -9060)">
      <g id="Grupo_1009012" data-name="Grupo 1009012" clip-path="url(#clip-path)">
        <path id="Trazado_721465" data-name="Trazado 721465" d="M77.477,38.738A32.661,32.661,0,1,1,44.816,6.077,32.662,32.662,0,0,1,77.477,38.738" fill="#dcfbff"/>
        <path id="Trazado_721466" data-name="Trazado 721466" d="M19.75,15.191,31.9,28.863a4.558,4.558,0,0,0,4.558-4.557V13.672A4.558,4.558,0,0,0,31.9,9.114V7.595a6.076,6.076,0,1,0-12.153,0Z" fill="#ffce56"/>
        <path id="Trazado_721467" data-name="Trazado 721467" d="M31.9,30.382a1.519,1.519,0,0,1-1.136-.51L18.614,16.2a1.52,1.52,0,0,1-.384-1.009v-7.6a7.6,7.6,0,0,1,15.191,0v.194a6.083,6.083,0,0,1,4.558,5.883V24.306A6.082,6.082,0,0,1,31.9,30.382M21.268,14.614l11.26,12.664a3.04,3.04,0,0,0,2.413-2.972V13.672A3.042,3.042,0,0,0,31.9,10.634a1.518,1.518,0,0,1-1.519-1.519V7.595a4.558,4.558,0,0,0-9.116,0Z" fill="#282828"/>
        <path id="Trazado_721468" data-name="Trazado 721468" d="M89.63,89.629H1.52a1.519,1.519,0,1,1,0-3.038H89.63a1.519,1.519,0,1,1,0,3.038" fill="#282828"/>
        <path id="Trazado_721469" data-name="Trazado 721469" d="M54.035,23.546a1.624,1.624,0,1,1-1.624-1.624,1.624,1.624,0,0,1,1.624,1.624" fill="#282828"/>
        <path id="Trazado_721470" data-name="Trazado 721470" d="M65.323,88.111H77.476L79,54.69V37.979H63.8V54.69Z" fill="#fff"/>
        <path id="Trazado_721471" data-name="Trazado 721471" d="M77.476,89.629H65.323a1.519,1.519,0,0,1-1.517-1.45l-1.52-33.421V37.978A1.518,1.518,0,0,1,63.8,36.459H79a1.518,1.518,0,0,1,1.519,1.519V54.689L79,88.179a1.522,1.522,0,0,1-1.519,1.45m-10.7-3.038h9.249l1.453-31.97V39.5H65.323V54.689Z" fill="#282828"/>
        <path id="Trazado_721472" data-name="Trazado 721472" d="M71.4,89.629a1.517,1.517,0,0,1-1.518-1.518V62.284a1.518,1.518,0,0,1,3.037,0V88.111A1.518,1.518,0,0,1,71.4,89.629" fill="#282828"/>
        <path id="Trazado_721473" data-name="Trazado 721473" d="M79,54.689h6.077v3.038a3.038,3.038,0,1,1-6.077,0Z" fill="#ffe8dc"/>
        <path id="Trazado_721474" data-name="Trazado 721474" d="M82.034,62.284a4.562,4.562,0,0,1-4.557-4.557V54.689A1.519,1.519,0,0,1,79,53.169h6.076a1.518,1.518,0,0,1,1.518,1.52v3.038a4.562,4.562,0,0,1-4.557,4.557m-1.518-6.077v1.52a1.519,1.519,0,0,0,3.038,0v-1.52Z" fill="#282828"/>
        <path id="Trazado_721475" data-name="Trazado 721475" d="M85.073,35.709v18.98H79V66.841H63.805V44.055H57.728V35.709a11.4,11.4,0,0,1,11.4-11.4H73.67a11.4,11.4,0,0,1,11.4,11.4" fill="#fff"/>
        <path id="Trazado_721476" data-name="Trazado 721476" d="M79,68.361H63.8a1.518,1.518,0,0,1-1.519-1.52V45.574H57.728a1.52,1.52,0,0,1-1.52-1.519V35.708A12.937,12.937,0,0,1,69.13,22.787h4.539A12.935,12.935,0,0,1,86.591,35.708V54.689a1.517,1.517,0,0,1-1.519,1.518H80.515V66.841A1.518,1.518,0,0,1,79,68.361M65.323,65.323H77.476V54.689A1.518,1.518,0,0,1,79,53.17h4.557V35.708a9.9,9.9,0,0,0-9.884-9.883H69.132a9.9,9.9,0,0,0-9.886,9.883v6.828H63.8a1.518,1.518,0,0,1,1.519,1.519Z" fill="#282828"/>
        <path id="Trazado_721477" data-name="Trazado 721477" d="M63.8,37.377v8.2H53.171V39.5h4.557V34.94" fill="#fff"/>
        <path id="Trazado_721478" data-name="Trazado 721478" d="M63.805,47.093H53.171a1.518,1.518,0,0,1-1.519-1.519V39.5a1.519,1.519,0,0,1,1.519-1.519h3.038V34.94a1.519,1.519,0,0,1,3.038,0V39.5a1.518,1.518,0,0,1-1.519,1.519H54.69v3.039h7.6V37.377a1.519,1.519,0,0,1,3.038,0v8.2a1.519,1.519,0,0,1-1.519,1.519" fill="#282828"/>
        <path id="Trazado_721479" data-name="Trazado 721479" d="M53.171,45.574H50.132a3.038,3.038,0,0,1,0-6.077h3.039Z" fill="#ffded5"/>
        <path id="Trazado_721480" data-name="Trazado 721480" d="M53.171,47.093H50.132a4.557,4.557,0,0,1,0-9.115h3.039A1.518,1.518,0,0,1,54.689,39.5v6.076a1.518,1.518,0,0,1-1.518,1.52m-3.039-6.077a1.52,1.52,0,0,0,0,3.039h1.519V41.016Z" fill="#282828"/>
        <path id="Trazado_721481" data-name="Trazado 721481" d="M68.362,9.115h9.115V6.569a3.53,3.53,0,0,0-3.53-3.531H62.285a6.076,6.076,0,0,0,6.077,6.077" fill="#ffce56"/>
        <path id="Trazado_721482" data-name="Trazado 721482" d="M77.476,10.634H68.362a7.6,7.6,0,0,1-7.6-7.6,1.519,1.519,0,0,1,1.519-1.52H73.947A5.055,5.055,0,0,1,79,6.567V9.114a1.519,1.519,0,0,1-1.52,1.52M64.064,4.557a4.565,4.565,0,0,0,4.3,3.038h7.6V6.567a2.013,2.013,0,0,0-2.01-2.01Z" fill="#282828"/>
        <path id="Trazado_721483" data-name="Trazado 721483" d="M79,56.207a1.518,1.518,0,0,1-1.519-1.518V36.459a1.519,1.519,0,1,1,3.038,0v18.23A1.518,1.518,0,0,1,79,56.207" fill="#282828"/>
        <path id="Trazado_721484" data-name="Trazado 721484" d="M5.588,49.362a1.72,1.72,0,1,1-1.72-1.72,1.721,1.721,0,0,1,1.72,1.72" fill="#282828"/>
        <path id="Trazado_721485" data-name="Trazado 721485" d="M12.153,56.632V54.689H18.23v1.943a2.615,2.615,0,0,1-2.614,2.615h-.848a2.615,2.615,0,0,1-2.615-2.615" fill="#ffe8dc"/>
        <path id="Trazado_721486" data-name="Trazado 721486" d="M15.617,60.766h-.849a4.141,4.141,0,0,1-4.134-4.135V54.689a1.519,1.519,0,0,1,1.52-1.52H18.23a1.519,1.519,0,0,1,1.52,1.52v1.942a4.14,4.14,0,0,1-4.133,4.135m-1.944-4.559v.424a1.1,1.1,0,0,0,1.095,1.1h.849a1.1,1.1,0,0,0,1.094-1.1v-.424Z" fill="#282828"/>
        <path id="Trazado_721487" data-name="Trazado 721487" d="M33.421,56.632V54.689H39.5v1.943a2.615,2.615,0,0,1-2.614,2.615h-.848a2.615,2.615,0,0,1-2.615-2.615" fill="#ffe8dc"/>
        <path id="Trazado_721488" data-name="Trazado 721488" d="M36.885,60.766h-.849A4.14,4.14,0,0,1,31.9,56.631V54.689a1.518,1.518,0,0,1,1.519-1.52H39.5a1.519,1.519,0,0,1,1.52,1.52v1.942a4.14,4.14,0,0,1-4.133,4.135m-1.944-4.559v.424a1.1,1.1,0,0,0,1.095,1.1h.849a1.1,1.1,0,0,0,1.094-1.1v-.424Z" fill="#282828"/>
        <path id="Trazado_721489" data-name="Trazado 721489" d="M31.9,88.111H19.75L18.23,56.36V37.979H33.421V56.36Z" fill="#ffe8dc"/>
        <path id="Trazado_721490" data-name="Trazado 721490" d="M31.9,89.629H19.749a1.52,1.52,0,0,1-1.518-1.447L16.713,56.431l0-18.453a1.519,1.519,0,0,1,1.52-1.519H33.421a1.518,1.518,0,0,1,1.519,1.519V56.359L33.42,88.182A1.52,1.52,0,0,1,31.9,89.629M21.2,86.591h9.257L31.9,56.286V39.5H19.749V56.359Z" fill="#282828"/>
        <path id="Trazado_721491" data-name="Trazado 721491" d="M30.269,27.345A9.211,9.211,0,0,1,39.5,36.538V54.69H12.154V36.538a9.211,9.211,0,0,1,9.229-9.193Z" fill="#f4aeab"/>
        <path id="Trazado_721492" data-name="Trazado 721492" d="M39.5,56.208H12.154a1.518,1.518,0,0,1-1.52-1.519V36.538A10.743,10.743,0,0,1,21.383,25.825h8.886A10.743,10.743,0,0,1,41.018,36.538V54.689a1.518,1.518,0,0,1-1.52,1.519M13.673,53.17H37.979V36.538a7.7,7.7,0,0,0-7.71-7.675H21.383a7.7,7.7,0,0,0-7.71,7.675Z" fill="#282828"/>
        <path id="Trazado_721493" data-name="Trazado 721493" d="M25.826,89.629a1.518,1.518,0,0,1-1.519-1.518V62.284a1.519,1.519,0,0,1,3.038,0V88.111a1.519,1.519,0,0,1-1.519,1.518" fill="#282828"/>
        <path id="Trazado_721494" data-name="Trazado 721494" d="M18.23,56.207a1.518,1.518,0,0,1-1.519-1.518V37.978a1.519,1.519,0,1,1,3.038,0V54.689a1.518,1.518,0,0,1-1.519,1.518" fill="#282828"/>
        <path id="Trazado_721495" data-name="Trazado 721495" d="M33.421,56.207A1.517,1.517,0,0,1,31.9,54.689V37.978a1.518,1.518,0,1,1,3.037,0V54.689a1.518,1.518,0,0,1-1.519,1.518" fill="#282828"/>
        <path id="Trazado_721496" data-name="Trazado 721496" d="M31.9,10.634H19.75v9.115a3.038,3.038,0,0,0,3.037,3.038v6.076a3.038,3.038,0,1,0,6.077,0V22.787A3.039,3.039,0,0,0,31.9,19.749Z" fill="#ffe8dc"/>
        <path id="Trazado_721497" data-name="Trazado 721497" d="M25.826,33.421a4.564,4.564,0,0,1-4.558-4.559V24.046a4.568,4.568,0,0,1-3.038-4.3V10.634a1.519,1.519,0,0,1,1.52-1.52H31.9a1.518,1.518,0,0,1,1.518,1.52v9.114a4.567,4.567,0,0,1-3.037,4.3v4.816a4.564,4.564,0,0,1-4.558,4.559M21.268,12.153v7.595a1.522,1.522,0,0,0,1.519,1.52,1.518,1.518,0,0,1,1.52,1.519v6.075a1.519,1.519,0,1,0,3.038,0V22.787a1.518,1.518,0,0,1,1.519-1.519,1.522,1.522,0,0,0,1.52-1.52V12.153Z" fill="#282828"/>
        <path id="Trazado_721498" data-name="Trazado 721498" d="M77.477,9.115H65.324v9.114a3.038,3.038,0,0,0,3.038,3.039v4.558a3.039,3.039,0,0,0,6.077,0V21.268a3.039,3.039,0,0,0,3.038-3.039Z" fill="#ffe8dc"/>
        <path id="Trazado_721499" data-name="Trazado 721499" d="M71.4,30.382a4.562,4.562,0,0,1-4.557-4.557v-3.3a4.565,4.565,0,0,1-3.038-4.3V9.115a1.519,1.519,0,0,1,1.519-1.52H77.477A1.519,1.519,0,0,1,79,9.115v9.114a4.566,4.566,0,0,1-3.039,4.3v3.3A4.562,4.562,0,0,1,71.4,30.382M66.843,10.634v7.6a1.521,1.521,0,0,0,1.519,1.52,1.518,1.518,0,0,1,1.52,1.519v4.557a1.519,1.519,0,1,0,3.038,0V21.268a1.518,1.518,0,0,1,1.519-1.519,1.52,1.52,0,0,0,1.518-1.52v-7.6Z" fill="#282828"/>
        <path id="Trazado_721500" data-name="Trazado 721500" d="M71.4,42.536a1.517,1.517,0,0,1-1.518-1.519V28.863a1.518,1.518,0,0,1,3.037,0V41.017A1.518,1.518,0,0,1,71.4,42.536" fill="#282828"/>
        <path id="Trazado_721501" data-name="Trazado 721501" d="M49.242,11.262a1.513,1.513,0,0,1-1.074-.445l-4.3-4.3A1.519,1.519,0,0,1,46.02,4.373l4.3,4.3a1.519,1.519,0,0,1-1.074,2.593" fill="#282828"/>
        <path id="Trazado_721502" data-name="Trazado 721502" d="M44.945,11.262a1.519,1.519,0,0,1-1.073-2.593l4.295-4.3a1.52,1.52,0,1,1,2.149,2.149l-4.3,4.3a1.507,1.507,0,0,1-1.074.445" fill="#282828"/>
        <rect id="Rectángulo_351387" data-name="Rectángulo 351387" width="15.191" height="15.191" transform="translate(18.23 54.689)" fill="#f4aeab"/>
        <path id="Trazado_721503" data-name="Trazado 721503" d="M33.421,71.4H18.23a1.519,1.519,0,0,1-1.519-1.52V54.689A1.518,1.518,0,0,1,18.23,53.17H33.421a1.518,1.518,0,0,1,1.52,1.519V69.88a1.519,1.519,0,0,1-1.52,1.52M19.75,68.361H31.9V56.208H19.75Z" fill="#282828"/>
      </g>
    </g>
  </g>
</svg>
