<svg xmlns="http://www.w3.org/2000/svg" xmlns:xlink="http://www.w3.org/1999/xlink" width="95" height="95" viewBox="0 0 95 95">
  <defs>
    <clipPath id="clip-path">
      <rect id="Rectángulo_351422" data-name="Rectángulo 351422" width="94.186" height="79.624" transform="translate(0 0)" fill="none"/>
    </clipPath>
  </defs>
  <g id="Grupo_1009033" data-name="Grupo 1009033" transform="translate(4001 8210)">
    <rect id="Rectángulo_351404" data-name="Rectángulo 351404" width="95" height="95" transform="translate(-4001 -8210)" fill="none"/>
    <g id="Grupo_1009028" data-name="Grupo 1009028" transform="translate(-4001 -8202)">
      <g id="Grupo_1009027" data-name="Grupo 1009027" clip-path="url(#clip-path)">
        <path id="Trazado_721669" data-name="Trazado 721669" d="M80.515,33.291a32.66,32.66,0,1,1-9.567-23.1,32.662,32.662,0,0,1,9.567,23.1" fill="#dcfbff"/>
        <path id="Trazado_721670" data-name="Trazado 721670" d="M24.306,44.684V38.9a6.363,6.363,0,0,0-6.363-6.363H10.634V44.684Z" fill="#ffded5"/>
        <path id="Trazado_721671" data-name="Trazado 721671" d="M24.305,46.2H10.634a1.521,1.521,0,0,1-1.52-1.52V32.531a1.52,1.52,0,0,1,1.52-1.519h7.309a7.891,7.891,0,0,1,7.882,7.882v5.789a1.52,1.52,0,0,1-1.52,1.52M12.152,43.165H22.786V38.894a4.851,4.851,0,0,0-4.843-4.845H12.152Z" fill="#282828"/>
        <path id="Trazado_721672" data-name="Trazado 721672" d="M55.49,37.088a7.767,7.767,0,0,0-7.064-4.557H30.613a6.306,6.306,0,0,0-6.306,6.306v5.846H89.629V40.5a3.408,3.408,0,0,0-3.408-3.408Z" fill="#81d4fa"/>
        <path id="Trazado_721673" data-name="Trazado 721673" d="M89.629,46.2H24.306a1.52,1.52,0,0,1-1.52-1.52V38.837a7.835,7.835,0,0,1,7.826-7.825H48.425a9.319,9.319,0,0,1,7.981,4.557H86.22A4.933,4.933,0,0,1,91.148,40.5v4.186a1.52,1.52,0,0,1-1.519,1.52m-63.8-3.038H88.109V40.5a1.891,1.891,0,0,0-1.889-1.889H55.49a1.516,1.516,0,0,1-1.381-.888,6.276,6.276,0,0,0-5.684-3.671H30.612a4.793,4.793,0,0,0-4.787,4.788Z" fill="#282828"/>
        <path id="Trazado_721674" data-name="Trazado 721674" d="M6.077,53.8H88.11a4.558,4.558,0,0,0,0-9.116H6.077a4.558,4.558,0,1,0,0,9.116" fill="#fff"/>
        <path id="Trazado_721675" data-name="Trazado 721675" d="M88.11,55.319H6.077a6.077,6.077,0,1,1,0-12.154H88.11a6.077,6.077,0,0,1,0,12.154M6.077,46.2a3.038,3.038,0,1,0,0,6.077H88.11a3.038,3.038,0,0,0,0-6.077Z" fill="#282828"/>
        <rect id="Rectángulo_351419" data-name="Rectángulo 351419" width="4.558" height="12.153" transform="translate(77.475 53.799)" fill="#b5a19c"/>
        <path id="Trazado_721676" data-name="Trazado 721676" d="M82.034,67.471H77.475a1.519,1.519,0,0,1-1.518-1.519V53.8a1.519,1.519,0,0,1,1.518-1.52h4.559a1.519,1.519,0,0,1,1.518,1.52V65.952a1.519,1.519,0,0,1-1.518,1.519M79,64.433h1.519V55.319H79Z" fill="#282828"/>
        <path id="Trazado_721677" data-name="Trazado 721677" d="M28.863,38.608H51.65a3.038,3.038,0,1,1,0,6.076H28.863" fill="#ffe8dc"/>
        <path id="Trazado_721678" data-name="Trazado 721678" d="M51.65,46.2H28.863a1.519,1.519,0,1,1,0-3.038H51.65a1.52,1.52,0,0,0,0-3.039H28.863a1.519,1.519,0,1,1,0-3.038H51.65a4.557,4.557,0,0,1,0,9.115" fill="#282828"/>
        <path id="Trazado_721679" data-name="Trazado 721679" d="M10.634,35.569v9.115H8.086a3.529,3.529,0,0,1-3.529-3.53V29.492a6.077,6.077,0,0,1,6.077,6.077" fill="#ffce56"/>
        <path id="Trazado_721680" data-name="Trazado 721680" d="M10.634,46.2H8.087a5.054,5.054,0,0,1-5.049-5.048V29.493a1.518,1.518,0,0,1,1.52-1.518,7.6,7.6,0,0,1,7.594,7.594v9.115A1.518,1.518,0,0,1,10.634,46.2M6.077,31.273v9.882a2.013,2.013,0,0,0,2.01,2.011H9.115v-7.6a4.565,4.565,0,0,0-3.038-4.3" fill="#282828"/>
        <path id="Trazado_721681" data-name="Trazado 721681" d="M67.471,7.334A1.513,1.513,0,0,1,66.4,6.889l-4.3-4.3A1.519,1.519,0,0,1,64.249.445l4.3,4.3a1.519,1.519,0,0,1-1.074,2.593" fill="#282828"/>
        <path id="Trazado_721682" data-name="Trazado 721682" d="M63.174,7.334A1.519,1.519,0,0,1,62.1,4.741l4.3-4.3a1.519,1.519,0,0,1,2.149,2.148l-4.3,4.3a1.513,1.513,0,0,1-1.074.445" fill="#282828"/>
        <rect id="Rectángulo_351420" data-name="Rectángulo 351420" width="54.689" height="4.557" transform="translate(19.749 68.99)" fill="#b5a19c"/>
        <path id="Trazado_721683" data-name="Trazado 721683" d="M74.438,75.067H19.749a1.52,1.52,0,0,1-1.52-1.52V68.99a1.519,1.519,0,0,1,1.52-1.519H74.438a1.519,1.519,0,0,1,1.519,1.519v4.557a1.52,1.52,0,0,1-1.519,1.52m-53.17-3.039h51.65V70.51H21.268Z" fill="#282828"/>
        <path id="Trazado_721684" data-name="Trazado 721684" d="M86.591,71.269a6.837,6.837,0,1,1-6.837-6.836,6.836,6.836,0,0,1,6.837,6.836" fill="#b5a19c"/>
        <path id="Trazado_721685" data-name="Trazado 721685" d="M79.754,79.625a8.355,8.355,0,1,1,8.355-8.356,8.364,8.364,0,0,1-8.355,8.356m0-13.672a5.317,5.317,0,1,0,5.318,5.316,5.322,5.322,0,0,0-5.318-5.316" fill="#282828"/>
        <path id="Trazado_721686" data-name="Trazado 721686" d="M82.034,71.269a2.279,2.279,0,1,1-2.28-2.279,2.279,2.279,0,0,1,2.28,2.279" fill="#6b4f5b"/>
        <path id="Trazado_721687" data-name="Trazado 721687" d="M79.754,75.067a3.8,3.8,0,1,1,3.8-3.8,3.8,3.8,0,0,1-3.8,3.8m0-4.557a.759.759,0,1,0,.76.759.759.759,0,0,0-.76-.759" fill="#282828"/>
        <rect id="Rectángulo_351421" data-name="Rectángulo 351421" width="4.558" height="12.153" transform="translate(12.152 53.799)" fill="#b5a19c"/>
        <path id="Trazado_721688" data-name="Trazado 721688" d="M16.711,67.471H12.152a1.519,1.519,0,0,1-1.518-1.519V53.8a1.519,1.519,0,0,1,1.518-1.52h4.559a1.519,1.519,0,0,1,1.518,1.52V65.952a1.519,1.519,0,0,1-1.518,1.519m-3.039-3.038h1.519V55.319H13.672Z" fill="#282828"/>
        <path id="Trazado_721689" data-name="Trazado 721689" d="M21.268,71.269a6.836,6.836,0,1,1-6.836-6.836,6.836,6.836,0,0,1,6.836,6.836" fill="#b5a19c"/>
        <path id="Trazado_721690" data-name="Trazado 721690" d="M14.432,79.625a8.355,8.355,0,1,1,8.354-8.356,8.365,8.365,0,0,1-8.354,8.356m0-13.672a5.317,5.317,0,1,0,5.316,5.316,5.323,5.323,0,0,0-5.316-5.316" fill="#282828"/>
        <path id="Trazado_721691" data-name="Trazado 721691" d="M16.711,71.269a2.28,2.28,0,1,1-2.279-2.279,2.278,2.278,0,0,1,2.279,2.279" fill="#6b4f5b"/>
        <path id="Trazado_721692" data-name="Trazado 721692" d="M14.432,75.067a3.8,3.8,0,1,1,3.8-3.8,3.8,3.8,0,0,1-3.8,3.8m0-4.557a.759.759,0,1,0,.759.759.759.759,0,0,0-.759-.759" fill="#282828"/>
        <path id="Trazado_721693" data-name="Trazado 721693" d="M86.591,31.012H65.323a1.519,1.519,0,0,1,0-3.038H86.591a1.519,1.519,0,0,1,0,3.038" fill="#282828"/>
        <path id="Trazado_721694" data-name="Trazado 721694" d="M71.4,24.935H62.284a1.519,1.519,0,1,1,0-3.038H71.4a1.52,1.52,0,0,0,0-3.039H68.361a1.518,1.518,0,1,1,0-3.037H71.4a4.557,4.557,0,0,1,0,9.114" fill="#282828"/>
        <path id="Trazado_721695" data-name="Trazado 721695" d="M57.727,24.935H51.65a1.519,1.519,0,1,1,0-3.038h6.077a1.519,1.519,0,0,1,0,3.038" fill="#282828"/>
        <path id="Trazado_721696" data-name="Trazado 721696" d="M45.574,24.935h-31.9a1.519,1.519,0,1,1,0-3.038h31.9a1.519,1.519,0,0,1,0,3.038" fill="#282828"/>
        <path id="Trazado_721697" data-name="Trazado 721697" d="M51.65,18.858H30.382a1.519,1.519,0,0,1,0-3.038H51.65a1.519,1.519,0,0,0,0-3.039H47.419a1.519,1.519,0,1,1,0-3.038H51.65a4.557,4.557,0,0,1,0,9.115" fill="#282828"/>
        <path id="Trazado_721698" data-name="Trazado 721698" d="M92.668,29.492a1.52,1.52,0,1,1-1.52-1.518,1.519,1.519,0,0,1,1.52,1.518" fill="#282828"/>
        <path id="Trazado_721699" data-name="Trazado 721699" d="M10.634,23.416A1.52,1.52,0,1,1,9.115,21.9a1.519,1.519,0,0,1,1.519,1.518" fill="#282828"/>
        <path id="Trazado_721700" data-name="Trazado 721700" d="M27.345,17.34a1.519,1.519,0,1,1-1.519-1.519,1.519,1.519,0,0,1,1.519,1.519" fill="#282828"/>
      </g>
    </g>
  </g>
</svg>
