<svg xmlns="http://www.w3.org/2000/svg" width="824.09" height="360.06" viewBox="0 0 824.09 360.06">
  <g id="Grupo_1009487" data-name="Grupo 1009487" transform="translate(-388.88 -817.88)">
    <path id="Trazado_723463" data-name="Trazado 723463" d="M1.12,5.59A4.468,4.468,0,0,1,5.59,1.12H369.37a4.468,4.468,0,0,1,4.47,4.47V41.37a4.468,4.468,0,0,1-4.47,4.47H5.59a4.468,4.468,0,0,1-4.47-4.47V5.59Z" transform="translate(388.88 817.88)" fill="#00bcd4" stroke="rgba(0,0,0,0)" stroke-width="2.24"/>
    <g id="a" transform="translate(388.88 817.88)">
      <path id="eO" d="M152.09,20.91c0,2.44-1.88,3.77-4.46,3.73H145.5v4.15h-2.43V17.01h4.59c2.61.04,4.42,1.35,4.42,3.9Zm-2.45.02a1.824,1.824,0,0,0-1.92-1.95H145.5v3.7h2.17c1.22,0,1.97-.57,1.97-1.75" fill="#fff"/>
      <path id="eP" d="M158.52,22.23c-1.16-.19-2.26,0-2.58.83v5.73H153.6V20.04h2.21l.06,1.04a2.193,2.193,0,0,1,2.68-1.1" fill="#fff"/>
      <path id="eQ" d="M166.93,27.37a4.084,4.084,0,0,1-3.41,1.58,4.158,4.158,0,0,1-4.34-4.55c.1-2.67,1.46-4.52,4.08-4.52s3.9,1.73,3.86,4.34v.95h-5.57a2.058,2.058,0,0,0,2.13,1.89,2.507,2.507,0,0,0,2.11-.98l1.15,1.29Zm-2.11-3.79c.04-1.12-.5-1.83-1.57-1.81-1.05,0-1.54.78-1.68,1.81h3.25" fill="#fff"/>
      <path id="eR" d="M173.54,23.21c-.02-1-.32-1.43-1.32-1.44a1.526,1.526,0,0,0-1.44.83v6.19h-2.34V20.04h2.19l.07.98a3.081,3.081,0,0,1,2.52-1.14,2.334,2.334,0,0,1,2.32,1.33,3,3,0,0,1,2.63-1.33c2.01,0,2.81,1.22,2.81,3.32v5.59h-2.35V23.21c-.02-.99-.32-1.42-1.32-1.43a1.461,1.461,0,0,0-1.46,1v6.01h-2.33V23.22" fill="#fff"/>
      <path id="eQ-2" data-name="eQ" d="M190.22,27.37a4.084,4.084,0,0,1-3.41,1.58,4.158,4.158,0,0,1-4.34-4.55c.1-2.67,1.46-4.52,4.08-4.52s3.9,1.73,3.86,4.34v.95h-5.57a2.058,2.058,0,0,0,2.13,1.89,2.507,2.507,0,0,0,2.11-.98l1.15,1.29Zm-2.11-3.79c.04-1.12-.5-1.83-1.57-1.81-1.05,0-1.54.78-1.68,1.81h3.25" fill="#fff"/>
      <path id="eP-2" data-name="eP" d="M196.65,22.23c-1.16-.19-2.26,0-2.58.83v5.73h-2.34V20.04h2.21l.06,1.04a2.193,2.193,0,0,1,2.68-1.1" fill="#fff"/>
      <path id="eS" d="M199.6,24.29c-.02,1.64.24,2.73,1.67,2.77a1.331,1.331,0,0,0,1.47-1.3h2.19a3.328,3.328,0,0,1-3.62,3.19c-2.62.03-4.04-1.88-4.04-4.64,0-2.59,1.49-4.43,4.03-4.43a3.358,3.358,0,0,1,3.64,3.42h-2.19a1.444,1.444,0,0,0-1.49-1.53c-1.31.05-1.63.99-1.65,2.52" fill="#fff"/>
      <path id="eT" d="M209.83,19.87c2.05-.03,3.52,1.08,3.52,3.1v3.79a4.025,4.025,0,0,0,.35,1.88v.14h-2.36a2.317,2.317,0,0,1-.23-.78,2.838,2.838,0,0,1-2.21.95,2.767,2.767,0,0,1-2.98-2.62c.04-2.09,1.71-2.89,4.01-2.89h1.08c.09-1.11-.23-1.84-1.29-1.84-.73,0-1.26.36-1.26,1.06h-2.34c.12-1.87,1.72-2.77,3.72-2.79Zm-1.58,6.28a1.033,1.033,0,0,0,1.15,1,1.789,1.789,0,0,0,1.6-.85V24.8h-.87c-1.23.02-1.88.41-1.88,1.35" fill="#fff"/>
      <path id="eU" d="M218.19,28.95c-2.3,0-3.41-2.05-3.41-4.6s1.13-4.46,3.43-4.47a2.7,2.7,0,0,1,2.11.95V16.37h2.35V28.79h-2.11l-.11-.93a2.739,2.739,0,0,1-2.25,1.09Zm-1.08-4.43c0,1.42.41,2.54,1.67,2.54a1.583,1.583,0,0,0,1.53-.91V22.7a1.531,1.531,0,0,0-1.51-.91c-1.12,0-1.69.91-1.69,2.74" fill="#fff"/>
      <path id="eV" d="M228.27,28.95c-2.6,0-4.21-1.89-4.15-4.62.06-2.68,1.47-4.46,4.13-4.46s4.16,1.87,4.16,4.63c0,2.58-1.6,4.45-4.14,4.45Zm-.02-7.18c-1.37,0-1.8,1.14-1.8,2.73,0,1.46.49,2.56,1.81,2.56s1.8-1.11,1.8-2.73c0-1.44-.52-2.56-1.82-2.56" fill="#fff"/>
    </g>
    <path id="Trazado_723464" data-name="Trazado 723464" d="M1.12,80.14a4.468,4.468,0,0,1,4.47-4.47H115.92a4.468,4.468,0,0,1,4.47,4.47v95.42a4.468,4.468,0,0,1-4.47,4.47H5.59a4.468,4.468,0,0,1-4.47-4.47V80.14Z" transform="translate(388.88 817.88)" fill="#ffe1b1" stroke="rgba(0,0,0,0)" stroke-width="2.24"/>
    <g id="b" transform="translate(388.88 817.88)">
      <path id="eW" d="M41.42,119.81c.12,3.49-1.5,5.55-4.73,5.66H33.76v-10.6h2.99c2.97.07,4.56,1.96,4.67,4.94Zm-1.38.03c.02-2.27-1.08-3.8-3.25-3.82H35.16v8.31h1.47c2.24,0,3.44-1.52,3.41-3.87v-.62" fill="#333"/>
      <path id="eX" d="M44.79,125.46H43.44v-7.88h1.35Zm-.66-9.2a.722.722,0,0,1-.79-.76.8.8,0,0,1,1.59,0,.73.73,0,0,1-.8.76" fill="#333"/>
      <path id="eY" d="M49.84,124.51c.88,0,1.69-.36,1.69-1.14a1.048,1.048,0,0,0-.41-.85c-.53-.44-2.43-.67-3.06-1.04a1.875,1.875,0,0,1-1.18-1.73c0-1.38,1.4-2.31,2.91-2.31,1.62,0,3.01.94,3.01,2.46H51.45a1.53,1.53,0,0,0-1.65-1.35c-.85,0-1.57.39-1.57,1.16a.823.823,0,0,0,.39.74c.55.38,2.41.66,3.03,1.01a1.945,1.945,0,0,1,1.23,1.83c0,1.51-1.42,2.33-3.04,2.33a3.291,3.291,0,0,1-2.81-1.27,2.226,2.226,0,0,1-.41-1.3h1.35c.04.94.84,1.47,1.88,1.47" fill="#333"/>
      <path id="eZ" d="M57.97,124.51a2.445,2.445,0,0,0,2.07-1.06l.82.64a3.315,3.315,0,0,1-2.97,1.52c-2.24,0-3.61-1.7-3.61-4.11a4.035,4.035,0,0,1,1.7-3.53,3.144,3.144,0,0,1,1.75-.52c2.18.01,3.27,1.59,3.24,3.91v.56H55.63a2.416,2.416,0,0,0,2.34,2.6Zm1.65-3.71c-.02-1.31-.64-2.26-1.89-2.26s-1.92,1.02-2.05,2.26h3.95" fill="#333"/>
      <path id="fa" d="M65.8,118.58a2.11,2.11,0,0,0-1.92,1.27v5.61H62.53v-7.88H63.8l.04.99a2.867,2.867,0,0,1,2.36-1.14c1.67,0,2.52.94,2.52,2.82v5.21H67.37v-5.21c-.01-1.11-.47-1.67-1.58-1.67Zm.83-3.33a.8.8,0,0,0,.73-.82l.9.09a1.61,1.61,0,0,1-1.57,1.76c-.82,0-1.21-.69-1.96-.69a.762.762,0,0,0-.72.82l-.9-.05a1.65,1.65,0,0,1,1.56-1.8c.78,0,1.2.7,1.96.7" fill="#333"/>
      <path id="fb" d="M73.99,125.61c-2.23.04-3.66-1.8-3.59-4.16.07-2.33,1.27-3.97,3.57-4.01,2.24-.04,3.66,1.8,3.6,4.17-.07,2.34-1.27,3.95-3.58,4Zm-.01-7.06c-1.51,0-2.22,1.35-2.22,3.06,0,1.57.77,2.9,2.23,2.9,1.54,0,2.23-1.35,2.23-3.06,0-1.56-.79-2.9-2.25-2.9" fill="#333"/>
    </g>
    <g id="c" transform="translate(388.88 817.88)">
      <path id="fc" d="M85.52,123.49l1.83-5.9h1.44l-3.17,9.09c-.61,1.56-1.53,2.23-3.09,1.85v-1.09c1.22.12,1.76-.27,2.06-1.26l.3-.8-2.81-7.79h1.47" fill="#333"/>
    </g>
    <g id="d" transform="translate(388.88 817.88)">
      <path id="fd" d="M31.39,143.08c-2.01,0-3.09-1.94-3.09-4.15s1.1-4,3.11-4.02a2.709,2.709,0,0,1,2.19.95v-4.11h1.35v11.18H33.71l-.07-.84a2.747,2.747,0,0,1-2.25.99Zm.35-7.03c-1.53,0-2.1,1.29-2.1,3.03,0,1.59.63,2.85,2.08,2.85a1.975,1.975,0,0,0,1.87-1.15v-3.62a1.978,1.978,0,0,0-1.86-1.11" fill="#333"/>
      <path id="eZ-2" data-name="eZ" d="M40.38,141.98a2.445,2.445,0,0,0,2.07-1.06l.82.64a3.315,3.315,0,0,1-2.97,1.52c-2.24,0-3.61-1.7-3.61-4.11a4.035,4.035,0,0,1,1.7-3.53,3.144,3.144,0,0,1,1.75-.52c2.18.01,3.27,1.59,3.24,3.91v.56H38.04a2.416,2.416,0,0,0,2.34,2.6Zm1.65-3.71c-.02-1.31-.64-2.26-1.89-2.26s-1.92,1.02-2.05,2.26h3.95" fill="#333"/>
      <path id="eY-2" data-name="eY" d="M47.83,141.98c.88,0,1.69-.36,1.69-1.14a1.048,1.048,0,0,0-.41-.85c-.53-.44-2.43-.67-3.06-1.04a1.874,1.874,0,0,1-1.18-1.73c0-1.38,1.4-2.31,2.91-2.31,1.62,0,3.01.94,3.01,2.46H49.44a1.53,1.53,0,0,0-1.65-1.35c-.85,0-1.57.39-1.57,1.16a.823.823,0,0,0,.39.74c.55.38,2.41.66,3.03,1.01a1.945,1.945,0,0,1,1.23,1.83c0,1.51-1.42,2.33-3.04,2.33a3.291,3.291,0,0,1-2.81-1.27,2.226,2.226,0,0,1-.41-1.3h1.35c.04.94.84,1.47,1.88,1.47" fill="#333"/>
      <path id="fe" d="M55.69,134.91c1.73-.03,2.93.92,2.93,2.56v3.63a4.369,4.369,0,0,0,.28,1.73v.12H57.49a2.735,2.735,0,0,1-.19-.83,3.026,3.026,0,0,1-2.24.98,2.451,2.451,0,0,1-2.66-2.33c.03-1.83,1.56-2.61,3.57-2.59h1.31v-.62a1.473,1.473,0,0,0-1.67-1.54c-.84,0-1.69.49-1.7,1.24H52.56c.15-1.49,1.5-2.3,3.13-2.33Zm-1.94,5.65a1.364,1.364,0,0,0,1.51,1.35,2.344,2.344,0,0,0,2.02-1.18v-1.62H56.22c-1.65,0-2.48.48-2.48,1.45" fill="#333"/>
      <path id="ff" d="M64.54,136.27c-1.19-.2-2.1.13-2.46,1.08v5.59H60.73v-7.88h1.31l.02.91a2.09,2.09,0,0,1,1.88-1.06,1.55,1.55,0,0,1,.6.1v1.25" fill="#333"/>
      <path id="ff-2" data-name="ff" d="M69.58,136.27c-1.19-.2-2.1.13-2.46,1.08v5.59H65.77v-7.88h1.31l.02.91a2.09,2.09,0,0,1,1.88-1.06,1.55,1.55,0,0,1,.6.1v1.25" fill="#333"/>
      <path id="fb-2" data-name="fb" d="M73.91,143.08c-2.23.04-3.66-1.8-3.59-4.16.07-2.33,1.27-3.97,3.57-4.01,2.24-.04,3.66,1.8,3.6,4.17C77.42,141.42,76.22,143.03,73.91,143.08Zm-.01-7.06c-1.51,0-2.22,1.35-2.22,3.06,0,1.57.77,2.9,2.23,2.9,1.54,0,2.23-1.35,2.23-3.06,0-1.56-.79-2.9-2.25-2.9" fill="#333"/>
      <path id="fg" d="M80.64,142.94H79.29V131.76h1.35v11.18" fill="#333"/>
      <path id="fg-2" data-name="fg" d="M84.26,142.94H82.91V131.76h1.35v11.18" fill="#333"/>
      <path id="fb-3" data-name="fb" d="M89.65,143.08c-2.23.04-3.66-1.8-3.59-4.16.07-2.33,1.27-3.97,3.57-4.01,2.24-.04,3.66,1.8,3.6,4.17C93.16,141.42,91.96,143.03,89.65,143.08Zm-.01-7.06c-1.51,0-2.22,1.35-2.22,3.06,0,1.57.77,2.9,2.23,2.9,1.54,0,2.23-1.35,2.23-3.06,0-1.56-.79-2.9-2.25-2.9" fill="#333"/>
    </g>
    <path id="Trazado_723465" data-name="Trazado 723465" d="M135.3,80.14a4.468,4.468,0,0,1,4.47-4.47H250.1a4.468,4.468,0,0,1,4.47,4.47v95.42a4.468,4.468,0,0,1-4.47,4.47H139.77a4.468,4.468,0,0,1-4.47-4.47Z" transform="translate(388.88 817.88)" fill="#ffe1b1" stroke="rgba(0,0,0,0)" stroke-width="2.24"/>
    <g id="e" transform="translate(388.88 817.88)">
      <path id="fh" d="M163.41,128.89h-4.45v4.68h-1.4v-10.6h6.57v1.15h-5.17v3.63h4.45v1.14" fill="#333"/>
      <path id="fe-2" data-name="fe" d="M168.42,125.55c1.73-.03,2.93.92,2.93,2.56v3.63a4.369,4.369,0,0,0,.28,1.73v.12h-1.41a2.736,2.736,0,0,1-.19-.83,3.026,3.026,0,0,1-2.24.98,2.451,2.451,0,0,1-2.66-2.33c.03-1.83,1.56-2.61,3.57-2.59h1.31v-.62a1.473,1.473,0,0,0-1.67-1.54c-.84,0-1.69.49-1.7,1.24h-1.35c.15-1.49,1.5-2.3,3.13-2.33Zm-1.94,5.65a1.364,1.364,0,0,0,1.51,1.35,2.344,2.344,0,0,0,2.02-1.18v-1.62h-1.06c-1.65,0-2.48.48-2.48,1.45" fill="#333"/>
      <path id="fi" d="M177.06,125.55c2.13,0,3.07,1.85,3.07,4.17,0,2.17-1.04,3.98-3.06,4a2.739,2.739,0,0,1-2.31-1.06l-.07.91h-1.24V122.39h1.35v4.17a2.731,2.731,0,0,1,2.25-1.01Zm-.32,7.03c1.51,0,2.05-1.27,2.05-3.01,0-1.63-.58-2.88-2.06-2.88a1.957,1.957,0,0,0-1.91,1.24v3.41a2.045,2.045,0,0,0,1.93,1.24" fill="#333"/>
      <path id="ff-3" data-name="ff" d="M185.63,126.9c-1.19-.2-2.1.13-2.46,1.08v5.59h-1.35v-7.88h1.31l.02.91a2.09,2.09,0,0,1,1.88-1.06,1.55,1.55,0,0,1,.6.1v1.25" fill="#333"/>
      <path id="eX-2" data-name="eX" d="M188.33,133.57h-1.35v-7.88h1.35Zm-.66-9.2a.722.722,0,0,1-.79-.76.8.8,0,0,1,1.59,0,.73.73,0,0,1-.8.76" fill="#333"/>
      <path id="fj" d="M191.49,129.53c0,1.78.56,3.06,2.16,3.09a1.815,1.815,0,0,0,1.86-1.53h1.27a2.977,2.977,0,0,1-3.13,2.63c-2.3,0-3.59-1.76-3.51-4.24.08-2.32,1.19-3.88,3.5-3.93a2.958,2.958,0,0,1,3.14,2.85h-1.27a1.836,1.836,0,0,0-1.86-1.75c-1.52.03-2.15,1.21-2.15,2.88" fill="#333"/>
      <path id="fe-3" data-name="fe" d="M201.36,125.55c1.73-.03,2.93.92,2.93,2.56v3.63a4.369,4.369,0,0,0,.28,1.73v.12h-1.41a2.736,2.736,0,0,1-.19-.83,3.026,3.026,0,0,1-2.24.98,2.451,2.451,0,0,1-2.66-2.33c.03-1.83,1.56-2.61,3.57-2.59h1.31v-.62a1.473,1.473,0,0,0-1.67-1.54c-.84,0-1.69.49-1.7,1.24h-1.35c.15-1.49,1.5-2.3,3.13-2.33Zm-1.94,5.65a1.364,1.364,0,0,0,1.51,1.35,2.344,2.344,0,0,0,2.02-1.18v-1.62h-1.06c-1.65,0-2.48.48-2.48,1.45" fill="#333"/>
      <path id="fj-2" data-name="fj" d="M207.4,129.53c0,1.78.56,3.06,2.16,3.09a1.815,1.815,0,0,0,1.86-1.53h1.27a2.977,2.977,0,0,1-3.13,2.63c-2.3,0-3.59-1.76-3.51-4.24.08-2.32,1.19-3.88,3.5-3.93a2.958,2.958,0,0,1,3.14,2.85h-1.27a1.836,1.836,0,0,0-1.86-1.75c-1.52.03-2.15,1.21-2.15,2.88" fill="#333"/>
      <path id="eX-3" data-name="eX" d="M215.67,133.57h-1.35v-7.88h1.35Zm-.66-9.2a.722.722,0,0,1-.79-.76.8.8,0,0,1,1.59,0,.73.73,0,0,1-.8.76" fill="#333"/>
      <path id="fk" d="M221.06,133.72c-2.23.04-3.66-1.8-3.59-4.16.07-2.33,1.27-3.97,3.57-4.01,2.24-.04,3.66,1.8,3.6,4.17-.07,2.34-1.27,3.95-3.58,4Zm-.01-7.06c-1.51,0-2.22,1.35-2.22,3.06,0,1.57.77,2.9,2.23,2.9,1.54,0,2.23-1.35,2.23-3.06,0-1.56-.79-2.9-2.25-2.9Zm.61-4.25h1.63l-1.95,2.14h-1.08" fill="#333"/>
      <path id="fl" d="M229.6,126.69a2.11,2.11,0,0,0-1.92,1.27v5.61h-1.35v-7.88h1.27l.04.99a2.867,2.867,0,0,1,2.36-1.14c1.67,0,2.52.94,2.52,2.82v5.21h-1.35v-5.21c-.01-1.11-.47-1.67-1.58-1.67" fill="#333"/>
    </g>
    <path id="Trazado_723466" data-name="Trazado 723466" d="M269.48,80.14a4.468,4.468,0,0,1,4.47-4.47h47.71a52.18,52.18,0,0,1,0,104.36H273.95a4.468,4.468,0,0,1-4.47-4.47Z" transform="translate(388.88 817.88)" fill="#ffcd7c" stroke="rgba(0,0,0,0)" stroke-width="2.24"/>
    <g id="f" transform="translate(388.88 817.88)">
      <path id="fm" d="M302.61,116.1a2.914,2.914,0,0,1-2.02,2.82l2.49,4.5v.09h-1.5l-2.3-4.29h-2.49v4.29h-1.41v-10.6h3.51c2.26-.01,3.72,1.01,3.72,3.19Zm-1.41,0c0-1.36-.87-2.04-2.28-2.04h-2.14v4.02h2.15a2.008,2.008,0,0,0,2.27-1.98"/>
      <path id="fn" d="M307.69,122.55a2.445,2.445,0,0,0,2.07-1.06l.82.64a3.315,3.315,0,0,1-2.97,1.52c-2.24,0-3.61-1.7-3.61-4.11a4.035,4.035,0,0,1,1.7-3.53,3.144,3.144,0,0,1,1.75-.52c2.18.01,3.27,1.59,3.24,3.91v.56h-5.34a2.416,2.416,0,0,0,2.34,2.6Zm1.65-3.71c-.02-1.31-.64-2.26-1.89-2.26s-1.92,1.02-2.05,2.26h3.95"/>
      <path id="fo" d="M315.02,123.65c-2.05,0-3.09-1.89-3.09-4.15s1.07-4.02,3.11-4.02a2.713,2.713,0,0,1,2.25,1.02l.07-.87h1.23v7.69a3.081,3.081,0,0,1-3.34,3.29,3.6,3.6,0,0,1-2.91-1.36l.7-.81a2.642,2.642,0,0,0,2.12,1.07,1.913,1.913,0,0,0,2.08-2.11v-.68a2.77,2.77,0,0,1-2.21.93Zm.35-7.03c-1.52,0-2.09,1.3-2.09,3.03,0,1.58.63,2.85,2.07,2.85a1.978,1.978,0,0,0,1.87-1.16v-3.6a2,2,0,0,0-1.86-1.13"/>
      <path id="fp" d="M322.08,123.51h-1.35v-7.88h1.35Zm-.66-9.2a.722.722,0,0,1-.79-.76.8.8,0,0,1,1.59,0,.73.73,0,0,1-.8.76"/>
      <path id="fq" d="M327.13,122.55c.88,0,1.69-.36,1.69-1.14a1.048,1.048,0,0,0-.41-.85c-.53-.44-2.43-.67-3.06-1.04a1.874,1.874,0,0,1-1.18-1.73c0-1.38,1.4-2.31,2.91-2.31,1.62,0,3.01.94,3.01,2.46h-1.35a1.53,1.53,0,0,0-1.65-1.35c-.85,0-1.57.39-1.57,1.16a.823.823,0,0,0,.39.74c.55.38,2.41.66,3.03,1.01a1.945,1.945,0,0,1,1.23,1.83c0,1.51-1.42,2.33-3.04,2.33a3.291,3.291,0,0,1-2.81-1.27,2.226,2.226,0,0,1-.41-1.3h1.35c.04.94.84,1.47,1.88,1.47"/>
      <path id="fr" d="M334.22,123.65c-1.24,0-1.83-.82-1.82-2.1v-4.88h-1.43v-1.04h1.43v-1.91h1.35v1.91h1.47v1.04h-1.47v4.88c-.07.91.67,1.08,1.51.86v1.09a4.274,4.274,0,0,1-1.03.15"/>
      <path id="fs" d="M340.6,116.84c-1.19-.2-2.1.13-2.46,1.08v5.59h-1.35v-7.88h1.31l.02.91a2.09,2.09,0,0,1,1.88-1.06,1.55,1.55,0,0,1,.6.1v1.25"/>
      <path id="ft" d="M344.92,123.65c-2.23.04-3.66-1.8-3.59-4.16.07-2.33,1.27-3.97,3.57-4.01,2.24-.04,3.66,1.8,3.6,4.17-.07,2.34-1.27,3.95-3.58,4Zm-.01-7.06c-1.51,0-2.22,1.35-2.22,3.06,0,1.57.77,2.9,2.23,2.9,1.54,0,2.23-1.35,2.23-3.06,0-1.56-.79-2.9-2.25-2.9"/>
    </g>
    <g id="g" transform="translate(388.88 817.88)">
      <path id="fq-2" data-name="fq" d="M296.69,140.02c.88,0,1.69-.36,1.69-1.14a1.048,1.048,0,0,0-.41-.85c-.53-.44-2.43-.67-3.06-1.04a1.874,1.874,0,0,1-1.18-1.73c0-1.38,1.4-2.31,2.91-2.31,1.62,0,3.01.94,3.01,2.46H298.3a1.53,1.53,0,0,0-1.65-1.35c-.85,0-1.57.39-1.57,1.16a.823.823,0,0,0,.39.74c.55.38,2.41.66,3.03,1.01a1.945,1.945,0,0,1,1.23,1.83c0,1.51-1.42,2.33-3.04,2.33a3.291,3.291,0,0,1-2.81-1.27,2.226,2.226,0,0,1-.41-1.3h1.35c.04.94.84,1.47,1.88,1.47"/>
      <path id="fu" d="M304.54,132.96c1.73-.03,2.93.92,2.93,2.56v3.63a4.369,4.369,0,0,0,.28,1.73V141h-1.41a2.736,2.736,0,0,1-.19-.83,3.026,3.026,0,0,1-2.24.98,2.451,2.451,0,0,1-2.66-2.33c.03-1.83,1.56-2.61,3.57-2.59h1.31v-.62a1.473,1.473,0,0,0-1.67-1.54c-.84,0-1.69.49-1.7,1.24h-1.35c.15-1.49,1.5-2.3,3.13-2.33Zm-1.94,5.65a1.364,1.364,0,0,0,1.51,1.35,2.344,2.344,0,0,0,2.02-1.18v-1.62h-1.06c-1.65,0-2.48.48-2.48,1.45"/>
      <path id="fv" d="M312.86,134.1a2.11,2.11,0,0,0-1.92,1.27v5.61h-1.35V133.1h1.27l.04.99a2.867,2.867,0,0,1,2.36-1.14c1.67,0,2.52.94,2.52,2.82v5.21h-1.35v-5.21c-.01-1.11-.47-1.67-1.58-1.67"/>
      <path id="fp-2" data-name="fp" d="M319.28,140.98h-1.35V133.1h1.35Zm-.66-9.2a.722.722,0,0,1-.79-.76.8.8,0,0,1,1.59,0,.73.73,0,0,1-.8.76"/>
      <path id="fr-2" data-name="fr" d="M323.73,141.12c-1.24,0-1.83-.82-1.82-2.1v-4.88h-1.43V133.1h1.43v-1.91h1.35v1.91h1.47v1.04h-1.47v4.88c-.07.91.67,1.08,1.51.86v1.09a4.274,4.274,0,0,1-1.03.15"/>
      <path id="fu-2" data-name="fu" d="M329.37,132.96c1.73-.03,2.93.92,2.93,2.56v3.63a4.369,4.369,0,0,0,.28,1.73V141h-1.41a2.736,2.736,0,0,1-.19-.83,3.026,3.026,0,0,1-2.24.98,2.451,2.451,0,0,1-2.66-2.33c.03-1.83,1.56-2.61,3.57-2.59h1.31v-.62a1.473,1.473,0,0,0-1.67-1.54c-.84,0-1.69.49-1.7,1.24h-1.35c.15-1.49,1.5-2.3,3.13-2.33Zm-1.94,5.65a1.364,1.364,0,0,0,1.51,1.35,2.344,2.344,0,0,0,2.02-1.18v-1.62H329.9c-1.65,0-2.48.48-2.48,1.45"/>
      <path id="fs-2" data-name="fs" d="M338.22,134.31c-1.19-.2-2.1.13-2.46,1.08v5.59h-1.35V133.1h1.31l.02.91a2.09,2.09,0,0,1,1.88-1.06,1.55,1.55,0,0,1,.6.1v1.25"/>
      <path id="fp-3" data-name="fp" d="M340.92,140.98h-1.35V133.1h1.35Zm-.66-9.2a.722.722,0,0,1-.79-.76.8.8,0,0,1,1.59,0,.73.73,0,0,1-.8.76"/>
      <path id="ft-2" data-name="ft" d="M346.31,141.12c-2.23.04-3.66-1.8-3.59-4.16.07-2.33,1.27-3.97,3.57-4.01,2.24-.04,3.66,1.8,3.6,4.17-.07,2.34-1.27,3.95-3.58,4Zm-.01-7.06c-1.51,0-2.22,1.35-2.22,3.06,0,1.57.77,2.9,2.23,2.9,1.54,0,2.23-1.35,2.23-3.06,0-1.56-.79-2.9-2.25-2.9"/>
    </g>
    <path id="Trazado_723467" data-name="Trazado 723467" d="M1.12,214.32a4.468,4.468,0,0,1,4.47-4.47H175.55a4.468,4.468,0,0,1,4.47,4.47V250.1a4.468,4.468,0,0,1-4.47,4.47H5.59a4.468,4.468,0,0,1-4.47-4.47h0V214.32Z" transform="translate(388.88 817.88)" fill="#d8cef7" stroke="rgba(0,0,0,0)" stroke-width="2.24"/>
    <g id="h" transform="translate(388.88 817.88)">
      <path id="fh-2" data-name="fh" d="M52.99,224.59H48.54v4.68h-1.4v-10.6h6.57v1.15H48.54v3.63h4.45v1.14" fill="#333"/>
      <path id="fe-4" data-name="fe" d="M57.99,221.25c1.73-.03,2.93.92,2.93,2.56v3.63a4.369,4.369,0,0,0,.28,1.73v.12H59.79a2.735,2.735,0,0,1-.19-.83,3.026,3.026,0,0,1-2.24.98,2.451,2.451,0,0,1-2.66-2.33c.03-1.83,1.56-2.61,3.57-2.59h1.31v-.62a1.473,1.473,0,0,0-1.67-1.54c-.84,0-1.69.49-1.7,1.24H54.86c.15-1.49,1.5-2.3,3.13-2.33Zm-1.94,5.65a1.364,1.364,0,0,0,1.51,1.35,2.344,2.344,0,0,0,2.02-1.18v-1.62H58.52c-1.65,0-2.48.48-2.48,1.45" fill="#333"/>
      <path id="fi-2" data-name="fi" d="M66.63,221.25c2.13,0,3.07,1.85,3.07,4.17,0,2.17-1.04,3.98-3.06,4a2.739,2.739,0,0,1-2.31-1.06l-.07.91H63.02V218.09h1.35v4.17a2.731,2.731,0,0,1,2.25-1.01Zm-.32,7.03c1.51,0,2.05-1.27,2.05-3.01,0-1.63-.58-2.88-2.06-2.88a1.957,1.957,0,0,0-1.91,1.24v3.41a2.045,2.045,0,0,0,1.93,1.24" fill="#333"/>
      <path id="ff-4" data-name="ff" d="M75.21,222.6c-1.19-.2-2.1.13-2.46,1.08v5.59H71.4v-7.88h1.31l.02.91a2.09,2.09,0,0,1,1.88-1.06,1.55,1.55,0,0,1,.6.1v1.25" fill="#333"/>
      <path id="eX-4" data-name="eX" d="M77.91,229.27H76.56v-7.88h1.35Zm-.66-9.2a.722.722,0,0,1-.79-.76.8.8,0,0,1,1.59,0,.73.73,0,0,1-.8.76" fill="#333"/>
      <path id="fj-3" data-name="fj" d="M81.06,225.23c0,1.78.56,3.06,2.16,3.09a1.815,1.815,0,0,0,1.86-1.53h1.27a2.977,2.977,0,0,1-3.13,2.63c-2.3,0-3.59-1.76-3.51-4.24.08-2.32,1.19-3.88,3.5-3.93a2.958,2.958,0,0,1,3.14,2.85H85.08a1.836,1.836,0,0,0-1.86-1.75c-1.52.03-2.15,1.21-2.15,2.88" fill="#333"/>
      <path id="fe-5" data-name="fe" d="M90.93,221.25c1.73-.03,2.93.92,2.93,2.56v3.63a4.369,4.369,0,0,0,.28,1.73v.12H92.73a2.736,2.736,0,0,1-.19-.83,3.026,3.026,0,0,1-2.24.98,2.451,2.451,0,0,1-2.66-2.33c.03-1.83,1.56-2.61,3.57-2.59h1.31v-.62a1.473,1.473,0,0,0-1.67-1.54c-.84,0-1.69.49-1.7,1.24H87.8c.15-1.49,1.5-2.3,3.13-2.33Zm-1.94,5.65a1.364,1.364,0,0,0,1.51,1.35,2.344,2.344,0,0,0,2.02-1.18v-1.62H91.46c-1.65,0-2.48.48-2.48,1.45" fill="#333"/>
      <path id="fl-2" data-name="fl" d="M99.25,222.39a2.11,2.11,0,0,0-1.92,1.27v5.61H95.98v-7.88h1.27l.04.99a2.867,2.867,0,0,1,2.36-1.14c1.67,0,2.52.94,2.52,2.82v5.21h-1.35v-5.21c-.01-1.11-.47-1.67-1.58-1.67" fill="#333"/>
      <path id="fw" d="M106.5,229.41c-1.24,0-1.83-.82-1.82-2.1v-4.88h-1.43v-1.04h1.43v-1.91h1.35v1.91h1.47v1.04h-1.47v4.88c-.07.91.67,1.08,1.51.86v1.09a4.274,4.274,0,0,1-1.03.15" fill="#333"/>
      <path id="eZ-3" data-name="eZ" d="M112.42,228.31a2.445,2.445,0,0,0,2.07-1.06l.82.64a3.315,3.315,0,0,1-2.97,1.52c-2.24,0-3.61-1.7-3.61-4.11a4.035,4.035,0,0,1,1.7-3.53,3.144,3.144,0,0,1,1.75-.52c2.18.01,3.27,1.59,3.24,3.91v.56h-5.34a2.416,2.416,0,0,0,2.34,2.6Zm1.65-3.71c-.02-1.31-.64-2.26-1.89-2.26s-1.92,1.02-2.05,2.26h3.95" fill="#333"/>
      <path id="eY-3" data-name="eY" d="M119.87,228.31c.88,0,1.69-.36,1.69-1.14a1.048,1.048,0,0,0-.41-.85c-.53-.44-2.43-.67-3.06-1.04a1.874,1.874,0,0,1-1.18-1.73c0-1.38,1.4-2.31,2.91-2.31,1.62,0,3.01.94,3.01,2.46h-1.35a1.53,1.53,0,0,0-1.65-1.35c-.85,0-1.57.39-1.57,1.16a.823.823,0,0,0,.39.74c.55.38,2.41.66,3.03,1.01a1.945,1.945,0,0,1,1.23,1.83c0,1.51-1.42,2.33-3.04,2.33a3.291,3.291,0,0,1-2.81-1.27,2.226,2.226,0,0,1-.41-1.3H118c.04.94.84,1.47,1.88,1.47" fill="#333"/>
    </g>
    <g id="i" transform="translate(388.88 817.88)">
      <path id="eZ-4" data-name="eZ" d="M131.69,228.31a2.445,2.445,0,0,0,2.07-1.06l.82.64a3.315,3.315,0,0,1-2.97,1.52c-2.24,0-3.61-1.7-3.61-4.11a4.035,4.035,0,0,1,1.7-3.53,3.144,3.144,0,0,1,1.75-.52c2.18.01,3.27,1.59,3.24,3.91v.56h-5.34a2.416,2.416,0,0,0,2.34,2.6Zm1.65-3.71c-.02-1.31-.64-2.26-1.89-2.26s-1.92,1.02-2.05,2.26h3.95" fill="#333"/>
    </g>
    <g id="j" transform="translate(388.88 817.88)">
      <path id="eX-5" data-name="eX" d="M48.38,246.74H47.03v-7.88h1.35Zm-.66-9.2a.722.722,0,0,1-.79-.76.8.8,0,0,1,1.59,0,.73.73,0,0,1-.8.76" fill="#333"/>
      <path id="fx" d="M58.55,239.86a1.7,1.7,0,0,0-1.82,1.65v5.23H55.38v-5.16a1.506,1.506,0,0,0-1.68-1.72,1.8,1.8,0,0,0-1.81,1.13v5.75H50.54v-7.88h1.27l.04.87a2.9,2.9,0,0,1,2.34-1.02,2.25,2.25,0,0,1,2.25,1.27,2.953,2.953,0,0,1,2.51-1.27c1.73,0,2.64.92,2.64,2.74v5.28H60.24v-5.2c-.01-1.16-.49-1.68-1.68-1.68" fill="#333"/>
      <path id="fy" d="M67.19,238.72c2.12,0,3.07,1.83,3.07,4.17,0,2.16-1.03,3.99-3.05,4a2.93,2.93,0,0,1-2.26-.91v3.79H63.6V238.86h1.23l.07.87a2.778,2.778,0,0,1,2.29-1.02Zm-.39,7.07c1.51,0,2.11-1.31,2.11-3.05,0-1.59-.67-2.88-2.13-2.88a1.962,1.962,0,0,0-1.83,1.08v3.76a1.981,1.981,0,0,0,1.85,1.08" fill="#333"/>
      <path id="fb-4" data-name="fb" d="M75.2,246.89c-2.23.04-3.66-1.8-3.59-4.16.07-2.33,1.27-3.97,3.57-4.01,2.24-.04,3.66,1.8,3.6,4.17C78.71,245.23,77.51,246.84,75.2,246.89Zm-.01-7.06c-1.51,0-2.22,1.35-2.22,3.06,0,1.57.77,2.9,2.23,2.9,1.54,0,2.23-1.35,2.23-3.06,0-1.56-.79-2.9-2.25-2.9" fill="#333"/>
      <path id="ff-5" data-name="ff" d="M84.28,240.07c-1.19-.2-2.1.13-2.46,1.08v5.59H80.47v-7.88h1.31l.02.91a2.09,2.09,0,0,1,1.88-1.06,1.55,1.55,0,0,1,.6.1v1.25" fill="#333"/>
      <path id="fw-2" data-name="fw" d="M88.18,246.89c-1.24,0-1.83-.82-1.82-2.1v-4.88H84.93v-1.04h1.43v-1.91h1.35v1.91h1.47v1.04H87.71v4.88c-.07.91.67,1.08,1.51.86v1.09a4.274,4.274,0,0,1-1.03.15" fill="#333"/>
      <path id="fe-6" data-name="fe" d="M93.82,238.72c1.73-.03,2.93.92,2.93,2.56v3.63a4.369,4.369,0,0,0,.28,1.73v.12H95.62a2.736,2.736,0,0,1-.19-.83,3.026,3.026,0,0,1-2.24.98,2.451,2.451,0,0,1-2.66-2.33c.03-1.83,1.56-2.61,3.57-2.59h1.31v-.62a1.473,1.473,0,0,0-1.67-1.54c-.84,0-1.69.49-1.7,1.24H90.69c.15-1.49,1.5-2.3,3.13-2.33Zm-1.94,5.65a1.364,1.364,0,0,0,1.51,1.35,2.344,2.344,0,0,0,2.02-1.18v-1.62H94.35c-1.65,0-2.48.48-2.48,1.45" fill="#333"/>
      <path id="fd-2" data-name="fd" d="M101.63,246.89c-2.01,0-3.09-1.94-3.09-4.15s1.1-4,3.11-4.02a2.709,2.709,0,0,1,2.19.95v-4.11h1.35v11.18h-1.24l-.07-.84a2.747,2.747,0,0,1-2.25.99Zm.35-7.03c-1.53,0-2.1,1.29-2.1,3.03,0,1.59.63,2.85,2.08,2.85a1.975,1.975,0,0,0,1.87-1.15v-3.62a1.978,1.978,0,0,0-1.86-1.11" fill="#333"/>
      <path id="fb-5" data-name="fb" d="M110.5,246.89c-2.23.04-3.66-1.8-3.59-4.16.07-2.33,1.27-3.97,3.57-4.01,2.24-.04,3.66,1.8,3.6,4.17C114.01,245.23,112.81,246.84,110.5,246.89Zm-.01-7.06c-1.51,0-2.22,1.35-2.22,3.06,0,1.57.77,2.9,2.23,2.9,1.54,0,2.23-1.35,2.23-3.06,0-1.56-.79-2.9-2.25-2.9" fill="#333"/>
      <path id="ff-6" data-name="ff" d="M119.58,240.07c-1.19-.2-2.1.13-2.46,1.08v5.59h-1.35v-7.88h1.31l.02.91a2.09,2.09,0,0,1,1.88-1.06,1.55,1.55,0,0,1,.6.1v1.25" fill="#333"/>
      <path id="eZ-5" data-name="eZ" d="M124.02,245.79a2.445,2.445,0,0,0,2.07-1.06l.82.64a3.315,3.315,0,0,1-2.97,1.52c-2.24,0-3.61-1.7-3.61-4.11a4.035,4.035,0,0,1,1.7-3.53,3.144,3.144,0,0,1,1.75-.52c2.18.01,3.27,1.59,3.24,3.91v.56h-5.34a2.416,2.416,0,0,0,2.34,2.6Zm1.65-3.71c-.02-1.31-.64-2.26-1.89-2.26s-1.92,1.02-2.05,2.26h3.95" fill="#333"/>
      <path id="eY-4" data-name="eY" d="M131.47,245.79c.88,0,1.69-.36,1.69-1.14a1.048,1.048,0,0,0-.41-.85c-.53-.44-2.43-.67-3.06-1.04a1.874,1.874,0,0,1-1.18-1.73c0-1.38,1.4-2.31,2.91-2.31,1.62,0,3.01.94,3.01,2.46h-1.35a1.53,1.53,0,0,0-1.65-1.35c-.85,0-1.57.39-1.57,1.16a.823.823,0,0,0,.39.74c.55.38,2.41.66,3.03,1.01a1.945,1.945,0,0,1,1.23,1.83c0,1.51-1.42,2.33-3.04,2.33a3.291,3.291,0,0,1-2.81-1.27,2.226,2.226,0,0,1-.41-1.3h1.35c.04.94.84,1.47,1.88,1.47" fill="#333"/>
    </g>
    <path id="Trazado_723468" data-name="Trazado 723468" d="M194.94,214.32a4.468,4.468,0,0,1,4.47-4.47H369.37a4.468,4.468,0,0,1,4.47,4.47V250.1a4.468,4.468,0,0,1-4.47,4.47H199.41a4.468,4.468,0,0,1-4.47-4.47h0V214.32Z" transform="translate(388.88 817.88)" fill="#d8cef7" stroke="rgba(0,0,0,0)" stroke-width="2.24"/>
    <g id="k" transform="translate(388.88 817.88)">
      <path id="fz" d="M261.57,237.65h-1.4v-10.6h1.4v10.6" fill="#333"/>
      <path id="fA-2" data-name="fA" d="M272.27,237.65h-1.41l-5.34-8.17v8.17h-1.41v-10.6h1.41l5.35,8.2v-8.2h1.39v10.6" fill="#333"/>
      <path id="fB-6" data-name="fB" d="M278.26,235.8l3.03-8.74h1.53l-3.93,10.6h-1.24l-3.92-10.6h1.52" fill="#333"/>
      <path id="fz-2" data-name="fz" d="M285.74,237.65h-1.4v-10.6h1.4v10.6" fill="#333"/>
      <path id="fC-2" data-name="fC" d="M290.1,227.05l3.47,8.65,3.47-8.65h1.81v10.6h-1.4c-.03-2.93.03-5.78.13-8.58l-3.48,8.58h-1.07l-3.47-8.56c.11,2.8.17,5.63.14,8.56h-1.4v-10.6h1.81" fill="#333"/>
      <path id="fD-3" data-name="fD" d="M307.3,234.89h-4.44l-1,2.77h-1.44l4.05-10.6h1.22l4.05,10.6h-1.43l-1.01-2.77Zm-4.02-1.15h3.6l-1.81-4.96" fill="#333"/>
    </g>
    <path id="Trazado_723469" data-name="Trazado 723469" d="M165.12,358.94V296.32H150.21l37.27-26.84,37.27,26.84H209.84v62.62H165.11Z" transform="translate(388.88 817.88)" fill="#4cebff" stroke="rgba(0,0,0,0)" stroke-width="2.24"/>
    <path id="Trazado_723470" data-name="Trazado 723470" d="M1.12,318.68a4.468,4.468,0,0,1,4.47-4.47H369.37a4.468,4.468,0,0,1,4.47,4.47v35.78a4.468,4.468,0,0,1-4.47,4.47H5.59a4.468,4.468,0,0,1-4.47-4.47V318.68Z" transform="translate(388.88 817.88)" fill="#4cebff" stroke="rgba(0,0,0,0)" stroke-width="2.24"/>
    <g id="l" transform="translate(388.88 817.88)">
      <path id="fE-7" data-name="fE" d="M82.2,337.42H78.01v2.84h4.92v1.75H75.82v-10.6h7.09v1.77H78v2.53h4.19v1.71"/>
      <path id="fF-7" data-name="fF" d="M84.52,333.47c-.08-2.15,1.78-3.2,3.96-2.64l-.02,1.63a2.838,2.838,0,0,0-.64-.07c-.79,0-1.19.37-1.19,1.11v.63H88.2v1.54H86.63V342H84.52v-6.33H83.35v-1.54h1.17v-.67"/>
      <path id="fG-3" data-name="fG" d="M91.51,342.02H89.4v-7.88h2.11Zm-1.06-8.82a1.1,1.1,0,0,1-1.18-1.09,1.185,1.185,0,0,1,2.36,0,1.1,1.1,0,0,1-1.18,1.09"/>
      <path id="fH-3" data-name="fH" d="M95.02,337.97c-.01,1.48.22,2.46,1.5,2.5a1.194,1.194,0,0,0,1.32-1.17h1.97a2.99,2.99,0,0,1-3.26,2.87c-2.36.03-3.64-1.69-3.64-4.18,0-2.33,1.34-3.99,3.63-3.99a3.032,3.032,0,0,1,3.28,3.08H97.85a1.3,1.3,0,0,0-1.34-1.38c-1.18.04-1.47.9-1.49,2.27"/>
      <path id="fG-4" data-name="fG" d="M103.24,342.02h-2.11v-7.88h2.11Zm-1.06-8.82a1.1,1.1,0,0,1-1.18-1.09,1.185,1.185,0,0,1,2.36,0,1.1,1.1,0,0,1-1.18,1.09"/>
      <path id="fI-3" data-name="fI" d="M111.67,340.74a3.671,3.671,0,0,1-3.07,1.42,3.748,3.748,0,0,1-3.91-4.1c.09-2.4,1.31-4.07,3.68-4.07s3.51,1.56,3.47,3.91v.86h-5.02a1.847,1.847,0,0,0,1.91,1.7,2.268,2.268,0,0,0,1.9-.88l1.03,1.16Zm-1.9-3.41c.04-1.01-.45-1.65-1.41-1.63-.95,0-1.39.71-1.51,1.63h2.93"/>
      <path id="fJ-4" data-name="fJ" d="M117.68,336.98c0-.9-.35-1.27-1.26-1.27a1.443,1.443,0,0,0-1.33.76v5.55h-2.1v-7.88h1.98l.07.91a2.733,2.733,0,0,1,2.26-1.06c1.78,0,2.49,1.1,2.49,2.93v5.09h-2.1v-5.04"/>
      <path id="fH-4" data-name="fH" d="M123.15,337.97c-.01,1.48.22,2.46,1.5,2.5a1.194,1.194,0,0,0,1.32-1.17h1.97a2.99,2.99,0,0,1-3.26,2.87c-2.36.03-3.64-1.69-3.64-4.18,0-2.33,1.34-3.99,3.63-3.99a3.032,3.032,0,0,1,3.28,3.08h-1.97a1.3,1.3,0,0,0-1.34-1.38c-1.18.04-1.47.9-1.49,2.27"/>
      <path id="fG-5" data-name="fG" d="M131.37,342.02h-2.11v-7.88h2.11Zm-1.06-8.82a1.1,1.1,0,0,1-1.18-1.09,1.185,1.185,0,0,1,2.36,0,1.1,1.1,0,0,1-1.18,1.09"/>
      <path id="fK-2" data-name="fK" d="M136.32,334c1.85-.03,3.17.98,3.17,2.79v3.41a3.787,3.787,0,0,0,.31,1.7v.12h-2.13a2.393,2.393,0,0,1-.21-.71,2.536,2.536,0,0,1-1.99.85,2.485,2.485,0,0,1-2.68-2.36c.04-1.88,1.54-2.6,3.61-2.6h.97c.08-1-.21-1.65-1.16-1.65-.66,0-1.14.33-1.14.95h-2.1c.11-1.68,1.55-2.49,3.35-2.51Zm-1.42,5.66a.927.927,0,0,0,1.03.9,1.633,1.633,0,0,0,1.44-.76v-1.35h-.79c-1.11.01-1.69.37-1.69,1.22"/>
      <path id="fL-3" data-name="fL" d="M141.64,344.68l-1.1-.58a4.754,4.754,0,0,0,.76-2.24v-1.63h1.78a6.447,6.447,0,0,1-.41,3.09,4.442,4.442,0,0,1-1.03,1.36"/>
    </g>
    <g id="m" transform="translate(388.88 817.88)">
      <path id="fM-2" data-name="fM" d="M151.49,340.67c.68,0,1.22-.24,1.22-.83a.665.665,0,0,0-.39-.6,4.777,4.777,0,0,0-1.22-.4c-1.87-.39-2.81-1.19-2.81-2.39,0-1.51,1.48-2.45,3.14-2.45,1.79,0,3.28.9,3.3,2.54h-2.1c-.01-.66-.45-1.04-1.2-1.04-.63,0-1.1.3-1.11.85a.676.676,0,0,0,.33.56,20,20,0,0,0,2.44.73,2.217,2.217,0,0,1,1.67,2.12c0,2.17-3.09,2.94-5.07,2.06a2.617,2.617,0,0,1-1.65-2.3h1.99c.04.77.63,1.16,1.45,1.16"/>
      <path id="fI-4" data-name="fI" d="M162.81,340.74a3.671,3.671,0,0,1-3.07,1.42,3.748,3.748,0,0,1-3.91-4.1c.09-2.4,1.31-4.07,3.68-4.07s3.51,1.56,3.47,3.91v.86h-5.02a1.847,1.847,0,0,0,1.91,1.7,2.268,2.268,0,0,0,1.9-.88l1.03,1.16Zm-1.9-3.41c.04-1.01-.45-1.65-1.41-1.63-.95,0-1.39.71-1.51,1.63h2.93"/>
      <path id="fN-2" data-name="fN" d="M167.04,342.16c-2.07-.01-3.17-1.89-3.17-4.14s1.11-4.03,3.19-4.03a2.457,2.457,0,0,1,2.02.89l.09-.74h1.91v7.61c-.06,2.22-1.51,3.33-3.79,3.36a3.908,3.908,0,0,1-2.93-1.24l.93-1.28a2.45,2.45,0,0,0,1.91.88c1.25,0,1.89-.78,1.77-2.14a2.425,2.425,0,0,1-1.91.82Zm.55-6.46c-1.2,0-1.62,1.07-1.62,2.47,0,1.25.48,2.29,1.61,2.29a1.472,1.472,0,0,0,1.38-.72v-3.31a1.461,1.461,0,0,0-1.36-.72"/>
      <path id="fO-2" data-name="fO" d="M175.25,342.16c-1.75,0-2.61-1.07-2.61-2.86v-5.16h2.1v5.09c0,.82.37,1.23,1.12,1.23a1.494,1.494,0,0,0,1.47-.74v-5.58h2.11v7.88h-1.98l-.06-.8a2.645,2.645,0,0,1-2.15.95"/>
      <path id="fP-4" data-name="fP" d="M185.45,336.11c-1.04-.17-2.03,0-2.32.75v5.15h-2.1v-7.88h1.99l.06.94a1.979,1.979,0,0,1,2.41-.99"/>
      <path id="fG-6" data-name="fG" d="M188.69,342.02h-2.11v-7.88h2.11Zm-1.06-8.82a1.1,1.1,0,0,1-1.18-1.09,1.185,1.185,0,0,1,2.36,0,1.1,1.1,0,0,1-1.18,1.09"/>
      <path id="fQ-3" data-name="fQ" d="M193.16,342.16c-2.07,0-3.07-1.85-3.07-4.14s1.02-4.01,3.09-4.03a2.4,2.4,0,0,1,1.9.86v-4.02h2.11v11.18h-1.9l-.1-.84a2.454,2.454,0,0,1-2.02.98Zm-.97-3.99c0,1.28.37,2.29,1.51,2.29a1.428,1.428,0,0,0,1.38-.82v-3.11a1.376,1.376,0,0,0-1.36-.82c-1.01,0-1.52.82-1.52,2.47"/>
      <path id="fK-3" data-name="fK" d="M202.03,334c1.85-.03,3.17.98,3.17,2.79v3.41a3.787,3.787,0,0,0,.31,1.7v.12h-2.13a2.393,2.393,0,0,1-.21-.71,2.536,2.536,0,0,1-1.99.85,2.485,2.485,0,0,1-2.68-2.36c.04-1.88,1.54-2.6,3.61-2.6h.97c.08-1-.21-1.65-1.16-1.65-.66,0-1.14.33-1.14.95h-2.1c.11-1.68,1.55-2.49,3.35-2.51Zm-1.42,5.66a.927.927,0,0,0,1.03.9,1.633,1.633,0,0,0,1.44-.76v-1.35h-.79c-1.11.01-1.69.37-1.69,1.22"/>
      <path id="fQ-4" data-name="fQ" d="M209.56,342.16c-2.07,0-3.07-1.85-3.07-4.14s1.02-4.01,3.09-4.03a2.4,2.4,0,0,1,1.9.86v-4.02h2.11v11.18h-1.9l-.1-.84a2.454,2.454,0,0,1-2.02.98Zm-.97-3.99c0,1.28.37,2.29,1.51,2.29a1.428,1.428,0,0,0,1.38-.82v-3.11a1.376,1.376,0,0,0-1.36-.82c-1.01,0-1.52.82-1.52,2.47"/>
      <path id="fL-4" data-name="fL" d="M215.76,344.68l-1.1-.58a4.754,4.754,0,0,0,.76-2.24v-1.63h1.78a6.447,6.447,0,0,1-.41,3.09,4.442,4.442,0,0,1-1.03,1.36"/>
    </g>
    <g id="n" transform="translate(388.88 817.88)">
      <path id="fQ-5" data-name="fQ" d="M225.31,342.16c-2.07,0-3.07-1.85-3.07-4.14s1.02-4.01,3.09-4.03a2.4,2.4,0,0,1,1.9.86v-4.02h2.11v11.18h-1.9l-.1-.84a2.454,2.454,0,0,1-2.02.98Zm-.97-3.99c0,1.28.37,2.29,1.51,2.29a1.428,1.428,0,0,0,1.38-.82v-3.11a1.376,1.376,0,0,0-1.36-.82c-1.01,0-1.52.82-1.52,2.47"/>
      <path id="fI-5" data-name="fI" d="M237.67,340.74a3.671,3.671,0,0,1-3.07,1.42,3.748,3.748,0,0,1-3.91-4.1c.09-2.4,1.31-4.07,3.68-4.07s3.51,1.56,3.47,3.91v.86h-5.02a1.847,1.847,0,0,0,1.91,1.7,2.268,2.268,0,0,0,1.9-.88l1.03,1.16Zm-1.9-3.41c.04-1.01-.45-1.65-1.41-1.63-.95,0-1.39.71-1.51,1.63h2.93"/>
      <path id="fM-3" data-name="fM" d="M242.07,340.67c.68,0,1.22-.24,1.22-.83a.665.665,0,0,0-.39-.6,4.777,4.777,0,0,0-1.22-.4c-1.87-.39-2.81-1.19-2.81-2.39,0-1.51,1.48-2.45,3.14-2.45,1.79,0,3.28.9,3.3,2.54h-2.1c-.01-.66-.45-1.04-1.2-1.04-.63,0-1.1.3-1.11.85a.676.676,0,0,0,.33.56,20,20,0,0,0,2.44.73,2.217,2.217,0,0,1,1.67,2.12c0,2.17-3.09,2.94-5.07,2.06a2.617,2.617,0,0,1-1.65-2.3h1.99c.04.77.63,1.16,1.45,1.16"/>
      <path id="fI-6" data-name="fI" d="M253.39,340.74a3.671,3.671,0,0,1-3.07,1.42,3.748,3.748,0,0,1-3.91-4.1c.09-2.4,1.31-4.07,3.68-4.07s3.51,1.56,3.47,3.91v.86h-5.02a1.847,1.847,0,0,0,1.91,1.7,2.268,2.268,0,0,0,1.9-.88l1.03,1.16Zm-1.9-3.41c.04-1.01-.45-1.65-1.41-1.63-.95,0-1.39.71-1.51,1.63h2.93"/>
      <path id="fR-3" data-name="fR" d="M259.34,337c-.01-.9-.29-1.29-1.19-1.3a1.376,1.376,0,0,0-1.3.74v5.57h-2.1v-7.88h1.97l.07.88a2.78,2.78,0,0,1,2.26-1.03,2.107,2.107,0,0,1,2.09,1.2,2.7,2.7,0,0,1,2.37-1.2c1.81,0,2.53,1.1,2.53,2.99V342h-2.11v-5.02c-.01-.9-.28-1.28-1.19-1.29a1.311,1.311,0,0,0-1.31.9V342h-2.1v-5.02"/>
      <path id="fS-3" data-name="fS" d="M271.68,334c2.15,0,3.07,1.82,3.07,4.16,0,2.18-1.03,4-3.06,4.01a2.475,2.475,0,0,1-1.93-.83v3.71h-2.1V334.14h1.95l.07.77a2.471,2.471,0,0,1,1.99-.92Zm.97,4c0-1.27-.39-2.29-1.52-2.29a1.372,1.372,0,0,0-1.36.76v3.22a1.391,1.391,0,0,0,1.38.78c1,0,1.51-.82,1.51-2.47"/>
      <path id="fI-7" data-name="fI" d="M282.75,340.74a3.671,3.671,0,0,1-3.07,1.42,3.748,3.748,0,0,1-3.91-4.1c.09-2.4,1.31-4.07,3.68-4.07s3.51,1.56,3.47,3.91v.86H277.9a1.847,1.847,0,0,0,1.91,1.7,2.268,2.268,0,0,0,1.9-.88l1.03,1.16Zm-1.9-3.41c.04-1.01-.45-1.65-1.41-1.63-.95,0-1.39.71-1.51,1.63h2.93"/>
      <path id="fT-3" data-name="fT" d="M288.76,336.98c0-.9-.35-1.27-1.26-1.27a1.443,1.443,0,0,0-1.33.76v5.55h-2.1v-7.88h1.98l.07.91a2.733,2.733,0,0,1,2.26-1.06c1.78,0,2.49,1.1,2.49,2.93v5.09h-2.1v-5.04Zm-.38-5.44a.637.637,0,0,0,.63-.69l1.22.08a1.8,1.8,0,0,1-1.65,1.94c-.78,0-1.27-.65-1.99-.63a.62.62,0,0,0-.61.7l-1.22-.07a1.81,1.81,0,0,1,1.65-1.94c.68,0,1.32.64,1.99.62"/>
      <path id="fU-3" data-name="fU" d="M295.87,342.16c-2.34,0-3.79-1.7-3.73-4.16.06-2.41,1.32-4.01,3.72-4.01s3.74,1.68,3.74,4.16a3.671,3.671,0,0,1-3.73,4Zm-.01-6.46c-1.23,0-1.62,1.03-1.62,2.46,0,1.32.44,2.31,1.63,2.31s1.62-1,1.62-2.46c0-1.3-.47-2.31-1.64-2.31"/>
    </g>
    <path id="Trazado_723471" data-name="Trazado 723471" d="M448.39,5.59a4.468,4.468,0,0,1,4.47-4.47H816.64a4.468,4.468,0,0,1,4.47,4.47V41.37a4.468,4.468,0,0,1-4.47,4.47H452.86a4.468,4.468,0,0,1-4.47-4.47Z" transform="translate(388.88 817.88)" fill="#00bcd4" stroke="rgba(0,0,0,0)" stroke-width="2.24"/>
    <g id="o" transform="translate(388.88 817.88)">
      <path id="eO-2" data-name="eO" d="M593.03,20.91c0,2.44-1.88,3.77-4.46,3.73h-2.13v4.15h-2.43V17.01h4.59c2.61.04,4.42,1.35,4.42,3.9Zm-2.45.02a1.824,1.824,0,0,0-1.92-1.95h-2.22v3.7h2.17c1.22,0,1.97-.57,1.97-1.75" fill="#fff"/>
      <path id="eV-2" data-name="eV" d="M598.22,28.95c-2.6,0-4.21-1.89-4.15-4.62.06-2.68,1.47-4.46,4.13-4.46s4.16,1.87,4.16,4.63c0,2.58-1.6,4.45-4.14,4.45Zm-.02-7.18c-1.37,0-1.8,1.14-1.8,2.73,0,1.46.49,2.56,1.81,2.56s1.8-1.11,1.8-2.73c0-1.44-.52-2.56-1.82-2.56" fill="#fff"/>
      <path id="fV-2" data-name="fV" d="M607.18,27.29c.76,0,1.36-.27,1.36-.92a.758.758,0,0,0-.43-.67,4.673,4.673,0,0,0-1.36-.44c-2.08-.44-3.12-1.32-3.12-2.65,0-1.68,1.64-2.73,3.49-2.73,1.99,0,3.65,1,3.66,2.82h-2.34c-.02-.74-.5-1.16-1.33-1.16-.7,0-1.22.33-1.24.95a.723.723,0,0,0,.37.62,20.5,20.5,0,0,0,2.71.81,2.465,2.465,0,0,1,1.85,2.35c0,2.41-3.43,3.27-5.63,2.29A2.89,2.89,0,0,1,603.34,26h2.22c.04.86.7,1.29,1.61,1.29" fill="#fff"/>
      <path id="fW-3" data-name="fW" d="M615.12,26.12c.02.67.2.9.9.91a3.545,3.545,0,0,0,.69-.06v1.77a4.834,4.834,0,0,1-1.42.21,2.22,2.22,0,0,1-2.51-2.48V21.75H611.5V20.04h1.28V17.89h2.34v2.15h1.5v1.71h-1.5v4.37" fill="#fff"/>
    </g>
    <g id="p" transform="translate(388.88 817.88)">
      <path id="eR-2" data-name="eR" d="M627.14,23.21c-.02-1-.32-1.43-1.32-1.44a1.526,1.526,0,0,0-1.44.83v6.19h-2.34V20.04h2.19l.07.98a3.081,3.081,0,0,1,2.52-1.14,2.334,2.334,0,0,1,2.32,1.33,3,3,0,0,1,2.63-1.33c2.01,0,2.81,1.22,2.81,3.32v5.59h-2.35V23.21c-.02-.99-.32-1.42-1.32-1.43a1.461,1.461,0,0,0-1.46,1v6.01h-2.33V23.22" fill="#fff"/>
      <path id="eQ-3" data-name="eQ" d="M643.83,27.37a4.084,4.084,0,0,1-3.41,1.58,4.158,4.158,0,0,1-4.34-4.55c.1-2.67,1.46-4.52,4.08-4.52s3.9,1.73,3.86,4.34v.95h-5.57a2.058,2.058,0,0,0,2.13,1.89,2.507,2.507,0,0,0,2.11-.98l1.15,1.29Zm-2.11-3.79c.04-1.12-.5-1.83-1.57-1.81-1.05,0-1.54.78-1.68,1.81h3.25" fill="#fff"/>
      <path id="eP-3" data-name="eP" d="M650.26,22.23c-1.16-.19-2.26,0-2.58.83v5.73h-2.34V20.04h2.21l.06,1.04a2.193,2.193,0,0,1,2.68-1.1" fill="#fff"/>
      <path id="eS-2" data-name="eS" d="M653.2,24.29c-.02,1.64.24,2.73,1.67,2.77a1.331,1.331,0,0,0,1.47-1.3h2.19a3.328,3.328,0,0,1-3.62,3.19c-2.62.03-4.04-1.88-4.04-4.64,0-2.59,1.49-4.43,4.03-4.43a3.358,3.358,0,0,1,3.64,3.42h-2.19a1.444,1.444,0,0,0-1.49-1.53c-1.31.05-1.63.99-1.65,2.52" fill="#fff"/>
      <path id="eT-2" data-name="eT" d="M663.43,19.87c2.05-.03,3.52,1.08,3.52,3.1v3.79a4.026,4.026,0,0,0,.35,1.88v.14h-2.36a2.317,2.317,0,0,1-.23-.78,2.838,2.838,0,0,1-2.21.95,2.767,2.767,0,0,1-2.98-2.62c.04-2.09,1.71-2.89,4.01-2.89h1.08c.09-1.11-.23-1.84-1.29-1.84-.73,0-1.26.36-1.26,1.06h-2.34c.12-1.87,1.72-2.77,3.72-2.79Zm-1.58,6.28a1.033,1.033,0,0,0,1.15,1,1.789,1.789,0,0,0,1.6-.85V24.8h-.87c-1.23.02-1.88.41-1.88,1.35" fill="#fff"/>
      <path id="eU-2" data-name="eU" d="M671.8,28.95c-2.3,0-3.41-2.05-3.41-4.6s1.13-4.46,3.43-4.47a2.7,2.7,0,0,1,2.11.95V16.37h2.35V28.79h-2.11l-.11-.93a2.739,2.739,0,0,1-2.25,1.09Zm-1.08-4.43c0,1.42.41,2.54,1.67,2.54a1.583,1.583,0,0,0,1.53-.91V22.7a1.531,1.531,0,0,0-1.51-.91c-1.12,0-1.69.91-1.69,2.74" fill="#fff"/>
      <path id="eV-3" data-name="eV" d="M681.87,28.95c-2.6,0-4.21-1.89-4.15-4.62.06-2.68,1.47-4.46,4.13-4.46s4.16,1.87,4.16,4.63c0,2.58-1.6,4.45-4.14,4.45Zm-.02-7.18c-1.37,0-1.8,1.14-1.8,2.73,0,1.46.49,2.56,1.81,2.56s1.8-1.11,1.8-2.73c0-1.44-.52-2.56-1.82-2.56" fill="#fff"/>
    </g>
    <path id="Trazado_723472" data-name="Trazado 723472" d="M448.39,214.32a4.468,4.468,0,0,1,4.47-4.47H816.64a4.468,4.468,0,0,1,4.47,4.47V250.1a4.468,4.468,0,0,1-4.47,4.47H452.86a4.468,4.468,0,0,1-4.47-4.47h0Z" transform="translate(388.88 817.88)" fill="#d8cef7" stroke="rgba(0,0,0,0)" stroke-width="2.24"/>
    <g id="q" transform="translate(388.88 817.88)">
      <path id="fX-2" data-name="fX" d="M497.86,230.29c0,2.16-1.47,3.21-3.73,3.21h-2.5v4.15h-1.4v-10.6h3.91c2.16-.04,3.71,1.19,3.71,3.24Zm-1.4.01a2.041,2.041,0,0,0-2.23-2.1h-2.59v4.16h2.51c1.43,0,2.31-.67,2.31-2.05" fill="#333"/>
      <path id="ff-8" data-name="ff" d="M503.24,230.99c-1.19-.2-2.1.13-2.46,1.08v5.59h-1.35v-7.88h1.31l.02.91a2.09,2.09,0,0,1,1.88-1.06,1.55,1.55,0,0,1,.6.1v1.25" fill="#333"/>
      <path id="eZ-6" data-name="eZ" d="M507.68,236.7a2.445,2.445,0,0,0,2.07-1.06l.82.64a3.315,3.315,0,0,1-2.97,1.52c-2.24,0-3.61-1.7-3.61-4.11a4.035,4.035,0,0,1,1.7-3.53,3.144,3.144,0,0,1,1.75-.52c2.18.01,3.27,1.59,3.24,3.91v.56h-5.34a2.416,2.416,0,0,0,2.34,2.6Zm1.65-3.71c-.02-1.31-.64-2.26-1.89-2.26s-1.92,1.02-2.05,2.26h3.95" fill="#333"/>
      <path id="eY-5" data-name="eY" d="M515.13,236.7c.88,0,1.69-.36,1.69-1.14a1.048,1.048,0,0,0-.41-.85c-.53-.44-2.43-.67-3.06-1.04a1.875,1.875,0,0,1-1.18-1.73c0-1.38,1.4-2.31,2.91-2.31,1.62,0,3.01.94,3.01,2.46h-1.35a1.53,1.53,0,0,0-1.65-1.35c-.85,0-1.57.39-1.57,1.16a.823.823,0,0,0,.39.74c.55.38,2.41.66,3.03,1.01a1.945,1.945,0,0,1,1.23,1.83c0,1.51-1.42,2.33-3.04,2.33a3.291,3.291,0,0,1-2.81-1.27,2.225,2.225,0,0,1-.41-1.3h1.35c.04.94.84,1.47,1.88,1.47" fill="#333"/>
      <path id="fw-4" data-name="fw" d="M522.22,237.8c-1.24,0-1.83-.82-1.82-2.1v-4.88h-1.43v-1.04h1.43v-1.91h1.35v1.91h1.47v1.04h-1.47v4.88c-.07.91.67,1.08,1.51.86v1.09a4.274,4.274,0,0,1-1.03.15" fill="#333"/>
      <path id="fe-8" data-name="fe" d="M527.86,229.63c1.73-.03,2.93.92,2.93,2.56v3.63a4.369,4.369,0,0,0,.28,1.73v.12h-1.41a2.735,2.735,0,0,1-.19-.83,3.026,3.026,0,0,1-2.24.98,2.451,2.451,0,0,1-2.66-2.33c.03-1.83,1.56-2.61,3.57-2.59h1.31v-.62a1.473,1.473,0,0,0-1.67-1.54c-.84,0-1.69.49-1.7,1.24h-1.35c.15-1.49,1.5-2.3,3.13-2.33Zm-1.94,5.65a1.364,1.364,0,0,0,1.51,1.35,2.344,2.344,0,0,0,2.02-1.18v-1.62h-1.06c-1.65,0-2.48.48-2.48,1.45" fill="#333"/>
      <path id="fd-4" data-name="fd" d="M535.67,237.8c-2.01,0-3.09-1.94-3.09-4.15s1.1-4,3.11-4.02a2.709,2.709,0,0,1,2.19.95v-4.11h1.35v11.18h-1.24l-.07-.84a2.747,2.747,0,0,1-2.25.99Zm.35-7.03c-1.53,0-2.1,1.29-2.1,3.03,0,1.59.63,2.85,2.08,2.85a1.975,1.975,0,0,0,1.87-1.15v-3.62a1.978,1.978,0,0,0-1.86-1.11" fill="#333"/>
      <path id="fb-7" data-name="fb" d="M544.54,237.8c-2.23.04-3.66-1.8-3.59-4.16.07-2.33,1.27-3.97,3.57-4.01,2.24-.04,3.66,1.8,3.6,4.17-.07,2.34-1.27,3.95-3.58,4Zm-.01-7.06c-1.51,0-2.22,1.35-2.22,3.06,0,1.57.77,2.9,2.23,2.9,1.54,0,2.23-1.35,2.23-3.06,0-1.56-.79-2.9-2.25-2.9" fill="#333"/>
      <path id="ff-9" data-name="ff" d="M553.62,230.99c-1.19-.2-2.1.13-2.46,1.08v5.59h-1.35v-7.88h1.31l.02.91a2.09,2.09,0,0,1,1.88-1.06,1.55,1.55,0,0,1,.6.1v1.25" fill="#333"/>
      <path id="eZ-7" data-name="eZ" d="M558.06,236.7a2.445,2.445,0,0,0,2.07-1.06l.82.64a3.315,3.315,0,0,1-2.97,1.52c-2.24,0-3.61-1.7-3.61-4.11a4.035,4.035,0,0,1,1.7-3.53,3.144,3.144,0,0,1,1.75-.52c2.18.01,3.27,1.59,3.24,3.91v.56h-5.34a2.416,2.416,0,0,0,2.34,2.6Zm1.65-3.71c-.02-1.31-.64-2.26-1.89-2.26s-1.92,1.02-2.05,2.26h3.95" fill="#333"/>
      <path id="eY-6" data-name="eY" d="M565.52,236.7c.88,0,1.69-.36,1.69-1.14a1.048,1.048,0,0,0-.41-.85c-.53-.44-2.43-.67-3.06-1.04a1.875,1.875,0,0,1-1.18-1.73c0-1.38,1.4-2.31,2.91-2.31,1.62,0,3.01.94,3.01,2.46h-1.35a1.53,1.53,0,0,0-1.65-1.35c-.85,0-1.57.39-1.57,1.16a.823.823,0,0,0,.39.74c.55.38,2.41.66,3.03,1.01a1.945,1.945,0,0,1,1.23,1.83c0,1.51-1.42,2.33-3.04,2.33a3.291,3.291,0,0,1-2.81-1.27,2.225,2.225,0,0,1-.41-1.3h1.35c.04.94.84,1.47,1.88,1.47" fill="#333"/>
    </g>
    <g id="r" transform="translate(388.88 817.88)">
      <path id="fd-5" data-name="fd" d="M576.76,237.8c-2.01,0-3.09-1.94-3.09-4.15s1.1-4,3.11-4.02a2.709,2.709,0,0,1,2.19.95v-4.11h1.35v11.18h-1.24l-.07-.84a2.747,2.747,0,0,1-2.25.99Zm.35-7.03c-1.53,0-2.1,1.29-2.1,3.03,0,1.59.63,2.85,2.08,2.85a1.975,1.975,0,0,0,1.87-1.15v-3.62a1.978,1.978,0,0,0-1.86-1.11" fill="#333"/>
      <path id="eZ-8" data-name="eZ" d="M585.75,236.7a2.445,2.445,0,0,0,2.07-1.06l.82.64a3.315,3.315,0,0,1-2.97,1.52c-2.24,0-3.61-1.7-3.61-4.11a4.035,4.035,0,0,1,1.7-3.53,3.144,3.144,0,0,1,1.75-.52c2.18.01,3.27,1.59,3.24,3.91v.56h-5.34a2.416,2.416,0,0,0,2.34,2.6Zm1.65-3.71c-.02-1.31-.64-2.26-1.89-2.26s-1.92,1.02-2.05,2.26h3.95" fill="#333"/>
    </g>
    <g id="s" transform="translate(388.88 817.88)">
      <path id="eY-7" data-name="eY" d="M596.89,236.7c.88,0,1.69-.36,1.69-1.14a1.048,1.048,0,0,0-.41-.85c-.53-.44-2.43-.67-3.06-1.04a1.875,1.875,0,0,1-1.18-1.73c0-1.38,1.4-2.31,2.91-2.31,1.62,0,3.01.94,3.01,2.46H598.5a1.53,1.53,0,0,0-1.65-1.35c-.85,0-1.57.39-1.57,1.16a.823.823,0,0,0,.39.74c.55.38,2.41.66,3.03,1.01a1.945,1.945,0,0,1,1.23,1.83c0,1.51-1.42,2.33-3.04,2.33a3.291,3.291,0,0,1-2.81-1.27,2.225,2.225,0,0,1-.41-1.3h1.35c.04.94.84,1.47,1.88,1.47" fill="#333"/>
      <path id="eZ-9" data-name="eZ" d="M605.02,236.7a2.445,2.445,0,0,0,2.07-1.06l.82.64a3.315,3.315,0,0,1-2.97,1.52c-2.24,0-3.61-1.7-3.61-4.11a4.035,4.035,0,0,1,1.7-3.53,3.144,3.144,0,0,1,1.75-.52c2.18.01,3.27,1.59,3.24,3.91v.56h-5.34a2.416,2.416,0,0,0,2.34,2.6Zm1.65-3.71c-.02-1.31-.64-2.26-1.89-2.26s-1.92,1.02-2.05,2.26h3.95" fill="#333"/>
      <path id="ff-10" data-name="ff" d="M613.39,230.99c-1.19-.2-2.1.13-2.46,1.08v5.59h-1.35v-7.88h1.31l.02.91a2.09,2.09,0,0,1,1.88-1.06,1.55,1.55,0,0,1,.6.1v1.25" fill="#333"/>
      <path id="fY-2" data-name="fY" d="M617.36,235.83l1.95-6.05h1.38l-2.82,7.88h-1.03l-2.85-7.88h1.38" fill="#333"/>
      <path id="eX-6" data-name="eX" d="M623.44,237.65h-1.35v-7.88h1.35Zm-.66-9.2a.722.722,0,0,1-.79-.76.8.8,0,0,1,1.59,0,.73.73,0,0,1-.8.76" fill="#333"/>
      <path id="fj-5" data-name="fj" d="M626.59,233.61c0,1.78.56,3.06,2.16,3.09a1.815,1.815,0,0,0,1.86-1.53h1.27a2.977,2.977,0,0,1-3.13,2.63c-2.3,0-3.59-1.76-3.51-4.24.08-2.32,1.19-3.88,3.5-3.93a2.958,2.958,0,0,1,3.14,2.85h-1.27a1.836,1.836,0,0,0-1.86-1.75c-1.52.03-2.15,1.21-2.15,2.88" fill="#333"/>
      <path id="eX-7" data-name="eX" d="M634.86,237.65h-1.35v-7.88h1.35Zm-.66-9.2a.722.722,0,0,1-.79-.76.8.8,0,0,1,1.59,0,.73.73,0,0,1-.8.76" fill="#333"/>
      <path id="fb-8" data-name="fb" d="M640.25,237.8c-2.23.04-3.66-1.8-3.59-4.16.07-2.33,1.27-3.97,3.57-4.01,2.24-.04,3.66,1.8,3.6,4.17-.07,2.34-1.27,3.95-3.58,4Zm-.01-7.06c-1.51,0-2.22,1.35-2.22,3.06,0,1.57.77,2.9,2.23,2.9,1.54,0,2.23-1.35,2.23-3.06,0-1.56-.79-2.9-2.25-2.9" fill="#333"/>
      <path id="eY-8" data-name="eY" d="M648.42,236.7c.88,0,1.69-.36,1.69-1.14a1.048,1.048,0,0,0-.41-.85c-.53-.44-2.43-.67-3.06-1.04a1.875,1.875,0,0,1-1.18-1.73c0-1.38,1.4-2.31,2.91-2.31,1.62,0,3.01.94,3.01,2.46h-1.35a1.53,1.53,0,0,0-1.65-1.35c-.85,0-1.57.39-1.57,1.16a.823.823,0,0,0,.39.74c.55.38,2.41.66,3.03,1.01a1.945,1.945,0,0,1,1.23,1.83c0,1.51-1.42,2.33-3.04,2.33a3.291,3.291,0,0,1-2.81-1.27,2.225,2.225,0,0,1-.41-1.3h1.35c.04.94.84,1.47,1.88,1.47" fill="#333"/>
    </g>
    <g id="r-2" data-name="r" transform="translate(388.88 817.88)">
      <path id="fd-6" data-name="fd" d="M659.67,237.8c-2.01,0-3.09-1.94-3.09-4.15s1.1-4,3.11-4.02a2.709,2.709,0,0,1,2.19.95v-4.11h1.35v11.18h-1.24l-.07-.84a2.747,2.747,0,0,1-2.25.99Zm.35-7.03c-1.53,0-2.1,1.29-2.1,3.03,0,1.59.63,2.85,2.08,2.85a1.975,1.975,0,0,0,1.87-1.15v-3.62a1.978,1.978,0,0,0-1.86-1.11" fill="#333"/>
      <path id="eZ-10" data-name="eZ" d="M668.65,236.7a2.445,2.445,0,0,0,2.07-1.06l.82.64a3.315,3.315,0,0,1-2.97,1.52c-2.24,0-3.61-1.7-3.61-4.11a4.035,4.035,0,0,1,1.7-3.53,3.144,3.144,0,0,1,1.75-.52c2.18.01,3.27,1.59,3.24,3.91v.56h-5.34a2.416,2.416,0,0,0,2.34,2.6Zm1.65-3.71c-.02-1.31-.64-2.26-1.89-2.26s-1.92,1.02-2.05,2.26h3.95" fill="#333"/>
    </g>
    <g id="t" transform="translate(388.88 817.88)">
      <path id="eY-9" data-name="eY" d="M679.79,236.7c.88,0,1.69-.36,1.69-1.14a1.048,1.048,0,0,0-.41-.85c-.53-.44-2.43-.67-3.06-1.04a1.875,1.875,0,0,1-1.18-1.73c0-1.38,1.4-2.31,2.91-2.31,1.62,0,3.01.94,3.01,2.46H681.4a1.53,1.53,0,0,0-1.65-1.35c-.85,0-1.57.39-1.57,1.16a.823.823,0,0,0,.39.74c.55.38,2.41.66,3.03,1.01a1.945,1.945,0,0,1,1.23,1.83c0,1.51-1.42,2.33-3.04,2.33a3.291,3.291,0,0,1-2.81-1.27,2.225,2.225,0,0,1-.41-1.3h1.35c.04.94.84,1.47,1.88,1.47" fill="#333"/>
      <path id="fe-9" data-name="fe" d="M687.65,229.63c1.73-.03,2.93.92,2.93,2.56v3.63a4.369,4.369,0,0,0,.28,1.73v.12h-1.41a2.735,2.735,0,0,1-.19-.83,3.026,3.026,0,0,1-2.24.98,2.451,2.451,0,0,1-2.66-2.33c.03-1.83,1.56-2.61,3.57-2.59h1.31v-.62a1.473,1.473,0,0,0-1.67-1.54c-.84,0-1.69.49-1.7,1.24h-1.35c.15-1.49,1.5-2.3,3.13-2.33Zm-1.94,5.65a1.364,1.364,0,0,0,1.51,1.35,2.344,2.344,0,0,0,2.02-1.18v-1.62h-1.06c-1.65,0-2.48.48-2.48,1.45" fill="#333"/>
      <path id="fg-7" data-name="fg" d="M694.16,237.65h-1.35V226.47h1.35v11.18" fill="#333"/>
      <path id="fZ-3" data-name="fZ" d="M698.87,237.8c-1.75,0-2.58-1.08-2.58-2.9v-5.12h1.35v5.09c0,1.19.49,1.79,1.46,1.79a2.02,2.02,0,0,0,2.05-1.15v-5.73h1.35v7.88h-1.28l-.03-.78a2.852,2.852,0,0,1-2.31.92" fill="#333"/>
      <path id="fd-7" data-name="fd" d="M707.3,237.8c-2.01,0-3.09-1.94-3.09-4.15s1.1-4,3.11-4.02a2.709,2.709,0,0,1,2.19.95v-4.11h1.35v11.18h-1.24l-.07-.84a2.747,2.747,0,0,1-2.25.99Zm.35-7.03c-1.53,0-2.1,1.29-2.1,3.03,0,1.59.63,2.85,2.08,2.85a1.975,1.975,0,0,0,1.87-1.15v-3.62a1.978,1.978,0,0,0-1.86-1.11" fill="#333"/>
    </g>
    <g id="u" transform="translate(388.88 817.88)">
      <path id="ga" d="M719.43,233.7h-3.55v-1.1h3.55v1.1" fill="#333"/>
    </g>
    <g id="v" transform="translate(388.88 817.88)">
      <path id="fZ-4" data-name="fZ" d="M726.99,237.8c-1.75,0-2.58-1.08-2.58-2.9v-5.12h1.35v5.09c0,1.19.49,1.79,1.46,1.79a2.02,2.02,0,0,0,2.05-1.15v-5.73h1.35v7.88h-1.28l-.03-.78a2.852,2.852,0,0,1-2.31.92" fill="#333"/>
      <path id="eY-10" data-name="eY" d="M735.55,236.7c.88,0,1.69-.36,1.69-1.14a1.048,1.048,0,0,0-.41-.85c-.53-.44-2.43-.67-3.06-1.04a1.875,1.875,0,0,1-1.18-1.73c0-1.38,1.4-2.31,2.91-2.31,1.62,0,3.01.94,3.01,2.46h-1.35a1.53,1.53,0,0,0-1.65-1.35c-.85,0-1.57.39-1.57,1.16a.823.823,0,0,0,.39.74c.55.38,2.41.66,3.03,1.01a1.945,1.945,0,0,1,1.23,1.83c0,1.51-1.42,2.33-3.04,2.33a3.291,3.291,0,0,1-2.81-1.27,2.225,2.225,0,0,1-.41-1.3h1.35c.04.94.84,1.47,1.88,1.47" fill="#333"/>
      <path id="fZ-5" data-name="fZ" d="M742.9,237.8c-1.75,0-2.58-1.08-2.58-2.9v-5.12h1.35v5.09c0,1.19.49,1.79,1.46,1.79a2.02,2.02,0,0,0,2.05-1.15v-5.73h1.35v7.88h-1.28l-.03-.78a2.852,2.852,0,0,1-2.31.92" fill="#333"/>
      <path id="fe-10" data-name="fe" d="M751.62,229.63c1.73-.03,2.93.92,2.93,2.56v3.63a4.369,4.369,0,0,0,.28,1.73v.12h-1.41a2.735,2.735,0,0,1-.19-.83,3.026,3.026,0,0,1-2.24.98,2.451,2.451,0,0,1-2.66-2.33c.03-1.83,1.56-2.61,3.57-2.59h1.31v-.62a1.473,1.473,0,0,0-1.67-1.54c-.84,0-1.69.49-1.7,1.24h-1.35c.15-1.49,1.5-2.3,3.13-2.33Zm-1.94,5.65a1.364,1.364,0,0,0,1.51,1.35,2.344,2.344,0,0,0,2.02-1.18v-1.62h-1.06c-1.65,0-2.48.48-2.48,1.45" fill="#333"/>
      <path id="ff-11" data-name="ff" d="M760.48,230.99c-1.19-.2-2.1.13-2.46,1.08v5.59h-1.35v-7.88h1.31l.02.91a2.09,2.09,0,0,1,1.88-1.06,1.55,1.55,0,0,1,.6.1v1.25" fill="#333"/>
      <path id="eX-8" data-name="eX" d="M763.18,237.65h-1.35v-7.88h1.35Zm-.66-9.2a.722.722,0,0,1-.79-.76.8.8,0,0,1,1.59,0,.73.73,0,0,1-.8.76" fill="#333"/>
      <path id="fb-9" data-name="fb" d="M768.57,237.8c-2.23.04-3.66-1.8-3.59-4.16.07-2.33,1.27-3.97,3.57-4.01,2.24-.04,3.66,1.8,3.6,4.17-.07,2.34-1.27,3.95-3.58,4Zm-.01-7.06c-1.51,0-2.22,1.35-2.22,3.06,0,1.57.77,2.9,2.23,2.9,1.54,0,2.23-1.35,2.23-3.06,0-1.56-.79-2.9-2.25-2.9" fill="#333"/>
      <path id="eY-11" data-name="eY" d="M776.73,236.7c.88,0,1.69-.36,1.69-1.14a1.048,1.048,0,0,0-.41-.85c-.53-.44-2.43-.67-3.06-1.04a1.875,1.875,0,0,1-1.18-1.73c0-1.38,1.4-2.31,2.91-2.31,1.62,0,3.01.94,3.01,2.46h-1.35a1.53,1.53,0,0,0-1.65-1.35c-.85,0-1.57.39-1.57,1.16a.823.823,0,0,0,.39.74c.55.38,2.41.66,3.03,1.01a1.945,1.945,0,0,1,1.23,1.83c0,1.51-1.42,2.33-3.04,2.33a3.291,3.291,0,0,1-2.81-1.27,2.225,2.225,0,0,1-.41-1.3h1.35c.04.94.84,1.47,1.88,1.47" fill="#333"/>
    </g>
    <path id="Trazado_723473" data-name="Trazado 723473" d="M612.39,358.94V296.32H597.48l37.27-26.84,37.27,26.84H657.11v62.62H612.38Z" transform="translate(388.88 817.88)" fill="#4cebff" stroke="rgba(0,0,0,0)" stroke-width="2.24"/>
    <path id="Trazado_723474" data-name="Trazado 723474" d="M448.39,318.68a4.468,4.468,0,0,1,4.47-4.47H816.64a4.468,4.468,0,0,1,4.47,4.47v35.78a4.468,4.468,0,0,1-4.47,4.47H452.86a4.468,4.468,0,0,1-4.47-4.47Z" transform="translate(388.88 817.88)" fill="#4cebff" stroke="rgba(0,0,0,0)" stroke-width="2.24"/>
    <g id="w" transform="translate(388.88 817.88)">
      <path id="fE-11" data-name="fE" d="M524.92,337.42h-4.19v2.84h4.92v1.75h-7.11v-10.6h7.09v1.77h-4.91v2.53h4.19v1.71"/>
      <path id="fF-12" data-name="fF" d="M527.23,333.47c-.08-2.15,1.78-3.2,3.96-2.64l-.02,1.63a2.838,2.838,0,0,0-.64-.07c-.79,0-1.19.37-1.19,1.11v.63h1.57v1.54h-1.57V342h-2.11v-6.33h-1.17v-1.54h1.17v-.67"/>
      <path id="fI-8" data-name="fI" d="M538.52,340.74a3.671,3.671,0,0,1-3.07,1.42,3.748,3.748,0,0,1-3.91-4.1c.09-2.4,1.31-4.07,3.68-4.07s3.51,1.56,3.47,3.91v.86h-5.02a1.847,1.847,0,0,0,1.91,1.7,2.268,2.268,0,0,0,1.9-.88l1.03,1.16Zm-1.9-3.41c.04-1.01-.45-1.65-1.41-1.63-.95,0-1.39.71-1.51,1.63h2.93"/>
      <path id="fH-5" data-name="fH" d="M541.66,337.97c-.01,1.48.22,2.46,1.5,2.5a1.194,1.194,0,0,0,1.32-1.17h1.97a2.99,2.99,0,0,1-3.26,2.87c-2.36.03-3.64-1.69-3.64-4.18,0-2.33,1.34-3.99,3.63-3.99a3.032,3.032,0,0,1,3.28,3.08h-1.97a1.3,1.3,0,0,0-1.34-1.38c-1.18.04-1.47.9-1.49,2.27"/>
      <path id="gb" d="M550.18,339.62c.01.6.18.81.81.82a2.939,2.939,0,0,0,.62-.05v1.59a4.542,4.542,0,0,1-1.27.19,1.994,1.994,0,0,1-2.26-2.23V335.7h-1.15v-1.54h1.15v-1.94h2.1v1.94h1.35v1.54h-1.35v3.93"/>
      <path id="fG-8" data-name="fG" d="M554.92,342.02h-2.11v-7.88h2.11Zm-1.06-8.82a1.1,1.1,0,0,1-1.18-1.09,1.185,1.185,0,0,1,2.36,0,1.1,1.1,0,0,1-1.18,1.09"/>
      <path id="gc" d="M559.6,339.45l1.46-5.31h2.2l-2.66,7.88h-2.01l-2.66-7.88h2.2"/>
      <path id="fG-9" data-name="fG" d="M566.4,342.02h-2.11v-7.88h2.11Zm-1.06-8.82a1.1,1.1,0,0,1-1.18-1.09,1.185,1.185,0,0,1,2.36,0,1.1,1.1,0,0,1-1.18,1.09"/>
      <path id="fQ-6" data-name="fQ" d="M570.88,342.16c-2.07,0-3.07-1.85-3.07-4.14s1.02-4.01,3.09-4.03a2.4,2.4,0,0,1,1.9.86v-4.02h2.11v11.18h-1.9l-.1-.84a2.454,2.454,0,0,1-2.02.98Zm-.97-3.99c0,1.28.37,2.29,1.51,2.29a1.428,1.428,0,0,0,1.38-.82v-3.11a1.376,1.376,0,0,0-1.36-.82c-1.01,0-1.52.82-1.52,2.47"/>
      <path id="fK-4" data-name="fK" d="M579.75,334c1.85-.03,3.17.98,3.17,2.79v3.41a3.787,3.787,0,0,0,.31,1.7v.12H581.1a2.393,2.393,0,0,1-.21-.71,2.536,2.536,0,0,1-1.99.85,2.485,2.485,0,0,1-2.68-2.36c.04-1.88,1.54-2.6,3.61-2.6h.97c.08-1-.21-1.65-1.16-1.65-.66,0-1.14.33-1.14.95h-2.1c.11-1.68,1.55-2.49,3.35-2.51Zm-1.42,5.66a.927.927,0,0,0,1.03.9,1.633,1.633,0,0,0,1.44-.76v-1.35h-.79c-1.11.01-1.69.37-1.69,1.22"/>
      <path id="fQ-7" data-name="fQ" d="M587.28,342.16c-2.07,0-3.07-1.85-3.07-4.14s1.02-4.01,3.09-4.03a2.4,2.4,0,0,1,1.9.86v-4.02h2.11v11.18h-1.9l-.1-.84a2.454,2.454,0,0,1-2.02.98Zm-.97-3.99c0,1.28.37,2.29,1.51,2.29a1.428,1.428,0,0,0,1.38-.82v-3.11a1.376,1.376,0,0,0-1.36-.82c-1.01,0-1.52.82-1.52,2.47"/>
      <path id="fL-5" data-name="fL" d="M593.48,344.68l-1.1-.58a4.754,4.754,0,0,0,.76-2.24v-1.63h1.78a6.448,6.448,0,0,1-.41,3.09,4.442,4.442,0,0,1-1.03,1.36"/>
    </g>
    <g id="m-2" data-name="m" transform="translate(388.88 817.88)">
      <path id="fM-4" data-name="fM" d="M603.33,340.67c.68,0,1.22-.24,1.22-.83a.665.665,0,0,0-.39-.6,4.777,4.777,0,0,0-1.22-.4c-1.87-.39-2.81-1.19-2.81-2.39,0-1.51,1.48-2.45,3.14-2.45,1.79,0,3.28.9,3.3,2.54h-2.1c-.01-.66-.45-1.04-1.2-1.04-.63,0-1.1.3-1.11.85a.676.676,0,0,0,.33.56,20,20,0,0,0,2.44.73,2.217,2.217,0,0,1,1.67,2.12c0,2.17-3.09,2.94-5.07,2.06a2.617,2.617,0,0,1-1.65-2.3h1.99c.04.77.63,1.16,1.45,1.16"/>
      <path id="fI-9" data-name="fI" d="M614.65,340.74a3.671,3.671,0,0,1-3.07,1.42,3.748,3.748,0,0,1-3.91-4.1c.09-2.4,1.31-4.07,3.68-4.07s3.51,1.56,3.47,3.91v.86H609.8a1.847,1.847,0,0,0,1.91,1.7,2.268,2.268,0,0,0,1.9-.88l1.03,1.16Zm-1.9-3.41c.04-1.01-.45-1.65-1.41-1.63-.95,0-1.39.71-1.51,1.63h2.93"/>
      <path id="fN-3" data-name="fN" d="M618.88,342.16c-2.07-.01-3.17-1.89-3.17-4.14s1.11-4.03,3.19-4.03a2.457,2.457,0,0,1,2.02.89l.09-.74h1.91v7.61c-.06,2.22-1.51,3.33-3.79,3.36a3.908,3.908,0,0,1-2.93-1.24l.93-1.28a2.45,2.45,0,0,0,1.91.88c1.25,0,1.89-.78,1.77-2.14a2.425,2.425,0,0,1-1.91.82Zm.55-6.46c-1.2,0-1.62,1.07-1.62,2.47,0,1.25.48,2.29,1.61,2.29a1.472,1.472,0,0,0,1.38-.72v-3.31a1.461,1.461,0,0,0-1.36-.72"/>
      <path id="fO-3" data-name="fO" d="M627.08,342.16c-1.75,0-2.61-1.07-2.61-2.86v-5.16h2.1v5.09c0,.82.37,1.23,1.12,1.23a1.494,1.494,0,0,0,1.47-.74v-5.58h2.11v7.88h-1.98l-.06-.8a2.645,2.645,0,0,1-2.15.95"/>
      <path id="fP-5" data-name="fP" d="M637.29,336.11c-1.04-.17-2.03,0-2.32.75v5.15h-2.1v-7.88h1.99l.06.94a1.979,1.979,0,0,1,2.41-.99"/>
      <path id="fG-10" data-name="fG" d="M640.52,342.02h-2.11v-7.88h2.11Zm-1.06-8.82a1.1,1.1,0,0,1-1.18-1.09,1.185,1.185,0,0,1,2.36,0,1.1,1.1,0,0,1-1.18,1.09"/>
      <path id="fQ-8" data-name="fQ" d="M645,342.16c-2.07,0-3.07-1.85-3.07-4.14s1.02-4.01,3.09-4.03a2.4,2.4,0,0,1,1.9.86v-4.02h2.11v11.18h-1.9l-.1-.84a2.454,2.454,0,0,1-2.02.98Zm-.97-3.99c0,1.28.37,2.29,1.51,2.29a1.428,1.428,0,0,0,1.38-.82v-3.11a1.376,1.376,0,0,0-1.36-.82c-1.01,0-1.52.82-1.52,2.47"/>
      <path id="fK-5" data-name="fK" d="M653.86,334c1.85-.03,3.17.98,3.17,2.79v3.41a3.787,3.787,0,0,0,.31,1.7v.12h-2.13a2.393,2.393,0,0,1-.21-.71,2.536,2.536,0,0,1-1.99.85,2.485,2.485,0,0,1-2.68-2.36c.04-1.88,1.54-2.6,3.61-2.6h.97c.08-1-.21-1.65-1.16-1.65-.66,0-1.14.33-1.14.95h-2.1c.11-1.68,1.55-2.49,3.35-2.51Zm-1.42,5.66a.927.927,0,0,0,1.03.9,1.633,1.633,0,0,0,1.44-.76v-1.35h-.79c-1.11.01-1.69.37-1.69,1.22"/>
      <path id="fQ-9" data-name="fQ" d="M661.39,342.16c-2.07,0-3.07-1.85-3.07-4.14s1.02-4.01,3.09-4.03a2.4,2.4,0,0,1,1.9.86v-4.02h2.11v11.18h-1.9l-.1-.84a2.454,2.454,0,0,1-2.02.98Zm-.97-3.99c0,1.28.37,2.29,1.51,2.29a1.428,1.428,0,0,0,1.38-.82v-3.11a1.376,1.376,0,0,0-1.36-.82c-1.01,0-1.52.82-1.52,2.47"/>
      <path id="fL-6" data-name="fL" d="M667.59,344.68l-1.1-.58a4.754,4.754,0,0,0,.76-2.24v-1.63h1.78a6.448,6.448,0,0,1-.41,3.09,4.442,4.442,0,0,1-1.03,1.36"/>
    </g>
    <g id="n-2" data-name="n" transform="translate(388.88 817.88)">
      <path id="fQ-10" data-name="fQ" d="M677.14,342.16c-2.07,0-3.07-1.85-3.07-4.14s1.02-4.01,3.09-4.03a2.4,2.4,0,0,1,1.9.86v-4.02h2.11v11.18h-1.9l-.1-.84a2.454,2.454,0,0,1-2.02.98Zm-.97-3.99c0,1.28.37,2.29,1.51,2.29a1.428,1.428,0,0,0,1.38-.82v-3.11a1.376,1.376,0,0,0-1.36-.82c-1.01,0-1.52.82-1.52,2.47"/>
      <path id="fI-10" data-name="fI" d="M689.5,340.74a3.671,3.671,0,0,1-3.07,1.42,3.748,3.748,0,0,1-3.91-4.1c.09-2.4,1.31-4.07,3.68-4.07s3.51,1.56,3.47,3.91v.86h-5.02a1.847,1.847,0,0,0,1.91,1.7,2.268,2.268,0,0,0,1.9-.88l1.03,1.16Zm-1.9-3.41c.04-1.01-.45-1.65-1.41-1.63-.95,0-1.39.71-1.51,1.63h2.93"/>
      <path id="fM-5" data-name="fM" d="M693.9,340.67c.68,0,1.22-.24,1.22-.83a.665.665,0,0,0-.39-.6,4.777,4.777,0,0,0-1.22-.4c-1.87-.39-2.81-1.19-2.81-2.39,0-1.51,1.48-2.45,3.14-2.45,1.79,0,3.28.9,3.3,2.54h-2.1c-.01-.66-.45-1.04-1.2-1.04-.63,0-1.1.3-1.11.85a.676.676,0,0,0,.33.56,20,20,0,0,0,2.44.73,2.217,2.217,0,0,1,1.67,2.12c0,2.17-3.09,2.94-5.07,2.06a2.617,2.617,0,0,1-1.65-2.3h1.99c.04.77.63,1.16,1.45,1.16"/>
      <path id="fI-11" data-name="fI" d="M705.22,340.74a3.671,3.671,0,0,1-3.07,1.42,3.748,3.748,0,0,1-3.91-4.1c.09-2.4,1.31-4.07,3.68-4.07s3.51,1.56,3.47,3.91v.86h-5.02a1.847,1.847,0,0,0,1.91,1.7,2.268,2.268,0,0,0,1.9-.88l1.03,1.16Zm-1.9-3.41c.04-1.01-.45-1.65-1.41-1.63-.95,0-1.39.71-1.51,1.63h2.93"/>
      <path id="fR-4" data-name="fR" d="M711.17,337c-.01-.9-.29-1.29-1.19-1.3a1.376,1.376,0,0,0-1.3.74v5.57h-2.1v-7.88h1.97l.07.88a2.78,2.78,0,0,1,2.26-1.03,2.107,2.107,0,0,1,2.09,1.2,2.7,2.7,0,0,1,2.37-1.2c1.81,0,2.53,1.1,2.53,2.99V342h-2.11v-5.02c-.01-.9-.28-1.28-1.19-1.29a1.311,1.311,0,0,0-1.31.9V342h-2.1v-5.02"/>
      <path id="fS-4" data-name="fS" d="M723.51,334c2.15,0,3.07,1.82,3.07,4.16,0,2.18-1.03,4-3.06,4.01a2.475,2.475,0,0,1-1.93-.83v3.71h-2.1V334.14h1.95l.07.77a2.471,2.471,0,0,1,1.99-.92Zm.97,4c0-1.27-.39-2.29-1.52-2.29a1.372,1.372,0,0,0-1.36.76v3.22a1.391,1.391,0,0,0,1.38.78c1,0,1.51-.82,1.51-2.47"/>
      <path id="fI-12" data-name="fI" d="M734.58,340.74a3.671,3.671,0,0,1-3.07,1.42,3.748,3.748,0,0,1-3.91-4.1c.09-2.4,1.31-4.07,3.68-4.07s3.51,1.56,3.47,3.91v.86h-5.02a1.847,1.847,0,0,0,1.91,1.7,2.268,2.268,0,0,0,1.9-.88l1.03,1.16Zm-1.9-3.41c.04-1.01-.45-1.65-1.41-1.63-.95,0-1.39.71-1.51,1.63h2.93"/>
      <path id="fT-4" data-name="fT" d="M740.6,336.98c0-.9-.35-1.27-1.26-1.27a1.443,1.443,0,0,0-1.33.76v5.55h-2.1v-7.88h1.98l.07.91a2.733,2.733,0,0,1,2.26-1.06c1.78,0,2.49,1.1,2.49,2.93v5.09h-2.1v-5.04Zm-.38-5.44a.637.637,0,0,0,.63-.69l1.22.08a1.8,1.8,0,0,1-1.65,1.94c-.78,0-1.27-.65-1.99-.63a.62.62,0,0,0-.61.7l-1.22-.07a1.81,1.81,0,0,1,1.65-1.94c.68,0,1.32.64,1.99.62"/>
      <path id="fU-4" data-name="fU" d="M747.7,342.16c-2.34,0-3.79-1.7-3.73-4.16.06-2.41,1.32-4.01,3.72-4.01s3.74,1.68,3.74,4.16a3.671,3.671,0,0,1-3.73,4Zm-.01-6.46c-1.23,0-1.62,1.03-1.62,2.46,0,1.32.44,2.31,1.63,2.31s1.62-1,1.62-2.46c0-1.3-.47-2.31-1.64-2.31"/>
    </g>
    <path id="Trazado_723475" data-name="Trazado 723475" d="M448.39,65.23a4.468,4.468,0,0,1,4.47-4.47h95.42a4.468,4.468,0,0,1,4.47,4.47V87.77a4.468,4.468,0,0,1-4.47,4.47H452.86a4.468,4.468,0,0,1-4.47-4.47V65.23Z" transform="translate(388.88 817.88)" fill="#ffe1b1" stroke="rgba(0,0,0,0)" stroke-width="5.96"/>
    <g id="x" transform="translate(388.88 817.88)">
      <path id="fX-3" data-name="fX" d="M478.87,75.62c0,1.68-1.14,2.5-2.9,2.5h-1.94v3.23h-1.09V73.11h3.04a2.542,2.542,0,0,1,2.89,2.52Zm-1.09.01a1.6,1.6,0,0,0-1.74-1.64h-2.02v3.23h1.95c1.11,0,1.8-.52,1.8-1.6" fill="#333"/>
      <path id="fg-11" data-name="fg" d="M481.23,81.34h-1.05v-8.7h1.05v8.7" fill="#333"/>
      <path id="fe-12" data-name="fe" d="M485.29,75.1a1.983,1.983,0,0,1,2.28,1.99v2.82a3.312,3.312,0,0,0,.22,1.34v.09h-1.1a2.209,2.209,0,0,1-.15-.65,2.365,2.365,0,0,1-1.74.76,1.91,1.91,0,0,1-2.07-1.81c.02-1.42,1.21-2.03,2.77-2.02h1.02v-.48a1.149,1.149,0,0,0-1.3-1.2c-.65,0-1.31.38-1.32.97h-1.05a2.207,2.207,0,0,1,2.43-1.81Zm-1.51,4.39a1.058,1.058,0,0,0,1.17,1.05,1.807,1.807,0,0,0,1.57-.92V78.36h-.82c-1.29,0-1.93.37-1.93,1.13" fill="#333"/>
      <path id="fl-7" data-name="fl" d="M491.75,75.99a1.628,1.628,0,0,0-1.49.99v4.37h-1.05V75.22h.99l.03.77a2.227,2.227,0,0,1,1.83-.88c1.3,0,1.96.73,1.96,2.19v4.05h-1.05V77.3c-.01-.87-.37-1.3-1.23-1.3" fill="#333"/>
      <path id="eZ-11" data-name="eZ" d="M498.21,80.6a1.9,1.9,0,0,0,1.61-.83l.64.5a2.582,2.582,0,0,1-2.31,1.18c-1.74,0-2.81-1.32-2.81-3.2a3.156,3.156,0,0,1,1.32-2.75,2.465,2.465,0,0,1,1.36-.41c1.7.01,2.54,1.23,2.52,3.04v.44h-4.15a1.872,1.872,0,0,0,1.82,2.02Zm1.29-2.88c-.02-1.02-.5-1.76-1.47-1.76s-1.49.79-1.6,1.76h3.07" fill="#333"/>
      <path id="fe-13" data-name="fe" d="M504.14,75.1a1.983,1.983,0,0,1,2.28,1.99v2.82a3.312,3.312,0,0,0,.22,1.34v.09h-1.1a2.209,2.209,0,0,1-.15-.65,2.365,2.365,0,0,1-1.74.76,1.91,1.91,0,0,1-2.07-1.81c.02-1.42,1.21-2.03,2.77-2.02h1.02v-.48a1.149,1.149,0,0,0-1.3-1.2c-.65,0-1.31.38-1.32.97H501.7a2.207,2.207,0,0,1,2.43-1.81Zm-1.51,4.39a1.058,1.058,0,0,0,1.17,1.05,1.807,1.807,0,0,0,1.57-.92V78.36h-.82c-1.29,0-1.93.37-1.93,1.13" fill="#333"/>
      <path id="fj-6" data-name="fj" d="M508.84,78.2c0,1.38.44,2.38,1.68,2.4a1.394,1.394,0,0,0,1.44-1.19h.99a2.319,2.319,0,0,1-2.43,2.04c-1.79,0-2.79-1.37-2.73-3.3.06-1.81.93-3.02,2.72-3.06a2.3,2.3,0,0,1,2.44,2.22h-.99a1.428,1.428,0,0,0-1.45-1.36c-1.18.02-1.68.94-1.68,2.24" fill="#333"/>
      <path id="eX-9" data-name="eX" d="M515.27,81.34h-1.05V75.21h1.05Zm-.52-7.16a.57.57,0,0,1-.62-.59.62.62,0,0,1,1.24,0,.565.565,0,0,1-.62.59" fill="#333"/>
      <path id="fk-6" data-name="fk" d="M519.46,81.46c-1.73.03-2.85-1.4-2.79-3.23.06-1.81.99-3.09,2.78-3.12,1.74-.03,2.85,1.4,2.8,3.24-.05,1.82-.99,3.07-2.79,3.11Zm-.01-5.49c-1.18,0-1.73,1.05-1.73,2.38,0,1.22.6,2.25,1.74,2.25,1.19,0,1.74-1.05,1.74-2.38,0-1.21-.62-2.26-1.75-2.26Zm.48-3.31h1.27l-1.52,1.66h-.84" fill="#333"/>
      <path id="fl-8" data-name="fl" d="M526.1,75.99a1.628,1.628,0,0,0-1.49.99v4.37h-1.05V75.22h.99l.03.77a2.227,2.227,0,0,1,1.83-.88c1.3,0,1.96.73,1.96,2.19v4.05h-1.05V77.3c-.01-.87-.37-1.3-1.23-1.3" fill="#333"/>
    </g>
    <path id="Trazado_723476" data-name="Trazado 723476" d="M448.39,124.86a4.468,4.468,0,0,1,4.47-4.47h95.42a4.468,4.468,0,0,1,4.47,4.47v20.87a4.468,4.468,0,0,1-4.47,4.47H452.86a4.468,4.468,0,0,1-4.47-4.47V124.86Z" transform="translate(388.88 817.88)" fill="#ffe1b1" stroke="rgba(0,0,0,0)" stroke-width="5.96"/>
    <g id="y" transform="translate(388.88 817.88)">
      <path id="gd" d="M479.17,140.11c1.01,0,1.78-.4,1.78-1.31a1.134,1.134,0,0,0-.42-.94,4.813,4.813,0,0,0-1.54-.65,5.226,5.226,0,0,1-2.04-.99,1.854,1.854,0,0,1-.63-1.44c0-1.39,1.31-2.25,2.8-2.25a2.9,2.9,0,0,1,2.54,1.23,2.346,2.346,0,0,1,.37,1.26h-1.09c0-1.04-.73-1.6-1.82-1.6-.97,0-1.69.43-1.7,1.34a1.08,1.08,0,0,0,.43.85,4.249,4.249,0,0,0,1.45.64,3.9,3.9,0,0,1,2.47,1.45,1.927,1.927,0,0,1,.28,1.09c-.01,1.45-1.31,2.25-2.87,2.21-1.69-.05-3.06-.84-3.12-2.5h1.09c0,1.06.91,1.61,2.03,1.61" fill="#333"/>
      <path id="eZ-12" data-name="eZ" d="M485.87,140.14a1.9,1.9,0,0,0,1.61-.83l.64.5a2.582,2.582,0,0,1-2.31,1.18c-1.74,0-2.81-1.32-2.81-3.2a3.156,3.156,0,0,1,1.32-2.75,2.465,2.465,0,0,1,1.36-.41c1.7.01,2.54,1.23,2.52,3.04v.44h-4.15a1.872,1.872,0,0,0,1.82,2.02Zm1.29-2.88c-.02-1.02-.5-1.76-1.47-1.76s-1.49.79-1.6,1.76h3.07" fill="#333"/>
      <path id="fg-12" data-name="fg" d="M490.55,140.89H489.5v-8.7h1.05v8.7" fill="#333"/>
      <path id="eZ-13" data-name="eZ" d="M494.83,140.14a1.9,1.9,0,0,0,1.61-.83l.64.5a2.582,2.582,0,0,1-2.31,1.18c-1.74,0-2.81-1.32-2.81-3.2a3.156,3.156,0,0,1,1.32-2.75,2.465,2.465,0,0,1,1.36-.41c1.7.01,2.54,1.23,2.52,3.04v.44h-4.15a1.872,1.872,0,0,0,1.82,2.02Zm1.29-2.88c-.02-1.02-.5-1.76-1.47-1.76s-1.49.79-1.6,1.76h3.07" fill="#333"/>
      <path id="fj-7" data-name="fj" d="M499.15,137.74c0,1.38.44,2.38,1.68,2.4a1.394,1.394,0,0,0,1.44-1.19h.99a2.319,2.319,0,0,1-2.43,2.04c-1.79,0-2.79-1.37-2.73-3.3.06-1.81.93-3.02,2.72-3.06a2.3,2.3,0,0,1,2.44,2.22h-.99a1.428,1.428,0,0,0-1.45-1.36c-1.18.02-1.68.94-1.68,2.24" fill="#333"/>
      <path id="fj-8" data-name="fj" d="M505.22,137.74c0,1.38.44,2.38,1.68,2.4a1.394,1.394,0,0,0,1.44-1.19h.99a2.319,2.319,0,0,1-2.43,2.04c-1.79,0-2.79-1.37-2.73-3.3.06-1.81.93-3.02,2.72-3.06a2.3,2.3,0,0,1,2.44,2.22h-.99a1.428,1.428,0,0,0-1.45-1.36c-1.18.02-1.68.94-1.68,2.24" fill="#333"/>
      <path id="eX-10" data-name="eX" d="M511.65,140.89H510.6v-6.13h1.05Zm-.52-7.16a.57.57,0,0,1-.62-.59.62.62,0,0,1,1.24,0,.565.565,0,0,1-.62.59" fill="#333"/>
      <path id="fk-7" data-name="fk" d="M515.84,141c-1.73.03-2.85-1.4-2.79-3.23.06-1.81.99-3.09,2.78-3.12,1.74-.03,2.85,1.4,2.8,3.24-.05,1.82-.99,3.07-2.79,3.11Zm-.01-5.49c-1.18,0-1.73,1.05-1.73,2.38,0,1.22.6,2.25,1.74,2.25,1.19,0,1.74-1.05,1.74-2.38,0-1.21-.62-2.26-1.75-2.26Zm.48-3.31h1.27l-1.52,1.66h-.84" fill="#333"/>
      <path id="fl-9" data-name="fl" d="M522.48,135.54a1.628,1.628,0,0,0-1.49.99v4.37h-1.05v-6.13h.99l.03.77a2.227,2.227,0,0,1,1.83-.88c1.3,0,1.96.73,1.96,2.19v4.05H523.7v-4.05c-.01-.87-.37-1.3-1.23-1.3" fill="#333"/>
    </g>
    <path id="Trazado_723477" data-name="Trazado 723477" d="M582.57,65.23a4.468,4.468,0,0,1,4.47-4.47h95.42a4.468,4.468,0,0,1,4.47,4.47V86.94a4.468,4.468,0,0,1-4.47,4.47H587.04a4.468,4.468,0,0,1-4.47-4.47Z" transform="translate(388.88 817.88)" fill="#ffe1b1" stroke="rgba(0,0,0,0)" stroke-width="5.96"/>
    <g id="z" transform="translate(388.88 817.88)">
      <path id="fD-8" data-name="fD" d="M609.97,79.15h-3.45l-.78,2.15h-1.12l3.15-8.24h.95l3.15,8.24h-1.12l-.79-2.15Zm-3.13-.89h2.8l-1.4-3.86" fill="#333"/>
      <path id="fd-9" data-name="fd" d="M614.97,81.41c-1.56,0-2.41-1.51-2.41-3.23s.85-3.11,2.42-3.13a2.075,2.075,0,0,1,1.7.74V72.6h1.05v8.7h-.96l-.05-.66a2.113,2.113,0,0,1-1.75.77Zm.27-5.46c-1.19,0-1.63,1-1.63,2.36,0,1.23.49,2.22,1.62,2.22a1.549,1.549,0,0,0,1.46-.89V76.83a1.53,1.53,0,0,0-1.44-.87" fill="#333"/>
      <path id="ge" d="M621.53,81.41c-1.62-.01-2.43-1.47-2.43-3.23s.83-3.13,2.44-3.13a2.152,2.152,0,0,1,1.72.73l.05-.62h.96v8.48h-1.05V80.72a2.214,2.214,0,0,1-1.69.68Zm.27-5.49c-1.18,0-1.65,1.03-1.65,2.38,0,1.24.52,2.25,1.64,2.25a1.583,1.583,0,0,0,1.43-.83v-3a1.569,1.569,0,0,0-1.42-.81" fill="#333"/>
      <path id="fZ-6" data-name="fZ" d="M627.93,81.41c-1.36,0-2.01-.84-2.01-2.25V75.17h1.05v3.96c0,.93.38,1.39,1.13,1.39a1.584,1.584,0,0,0,1.6-.89V75.17h1.05V81.3h-1l-.02-.61a2.228,2.228,0,0,1-1.79.72" fill="#333"/>
      <path id="eX-11" data-name="eX" d="M633.48,81.3h-1.05V75.17h1.05Zm-.52-7.16a.57.57,0,0,1-.62-.59.62.62,0,0,1,1.24,0,.565.565,0,0,1-.62.59" fill="#333"/>
      <path id="eY-12" data-name="eY" d="M637.41,80.55c.69,0,1.31-.28,1.31-.88a.788.788,0,0,0-.32-.66c-.41-.34-1.89-.52-2.38-.81a1.46,1.46,0,0,1-.92-1.35,2.051,2.051,0,0,1,2.26-1.79,2.094,2.094,0,0,1,2.34,1.91h-1.05a1.194,1.194,0,0,0-1.29-1.05c-.67,0-1.22.3-1.22.9a.637.637,0,0,0,.3.57c.43.29,1.87.51,2.36.79a1.516,1.516,0,0,1,.96,1.42c0,1.18-1.1,1.81-2.36,1.81a2.568,2.568,0,0,1-2.19-.99,1.706,1.706,0,0,1-.32-1.01h1.05c.03.73.66,1.14,1.46,1.14" fill="#333"/>
      <path id="eX-12" data-name="eX" d="M642.27,81.3h-1.05V75.17h1.05Zm-.52-7.16a.57.57,0,0,1-.62-.59.62.62,0,0,1,1.24,0,.565.565,0,0,1-.62.59" fill="#333"/>
      <path id="fj-9" data-name="fj" d="M644.72,78.15c0,1.38.44,2.38,1.68,2.4a1.394,1.394,0,0,0,1.44-1.19h.99a2.319,2.319,0,0,1-2.43,2.04c-1.79,0-2.79-1.37-2.73-3.3.06-1.81.93-3.02,2.72-3.06a2.3,2.3,0,0,1,2.44,2.22h-.99a1.428,1.428,0,0,0-1.45-1.36c-1.18.02-1.68.94-1.68,2.24" fill="#333"/>
      <path id="eX-13" data-name="eX" d="M651.15,81.3H650.1V75.17h1.05Zm-.52-7.16a.57.57,0,0,1-.62-.59.62.62,0,0,1,1.24,0,.565.565,0,0,1-.62.59" fill="#333"/>
      <path id="fk-8" data-name="fk" d="M655.34,81.41c-1.73.03-2.85-1.4-2.79-3.23.06-1.81.99-3.09,2.78-3.12,1.74-.03,2.85,1.4,2.8,3.24-.05,1.82-.99,3.07-2.79,3.11Zm-.01-5.49c-1.18,0-1.73,1.05-1.73,2.38,0,1.22.6,2.25,1.74,2.25,1.19,0,1.74-1.05,1.74-2.38,0-1.21-.62-2.26-1.75-2.26Zm.48-3.31h1.27l-1.52,1.66h-.84" fill="#333"/>
      <path id="fl-10" data-name="fl" d="M661.99,75.95a1.628,1.628,0,0,0-1.49.99v4.37h-1.05V75.18h.99l.03.77a2.227,2.227,0,0,1,1.83-.88c1.3,0,1.96.73,1.96,2.19v4.05h-1.05V77.26c-.01-.87-.37-1.3-1.23-1.3" fill="#333"/>
    </g>
    <path id="Trazado_723478" data-name="Trazado 723478" d="M582.57,124.86a4.468,4.468,0,0,1,4.47-4.47h95.42a4.468,4.468,0,0,1,4.47,4.47v21.27a4.468,4.468,0,0,1-4.47,4.47H587.04a4.468,4.468,0,0,1-4.47-4.47Z" transform="translate(388.88 817.88)" fill="#ffe1b1" stroke="rgba(0,0,0,0)" stroke-width="5.96"/>
    <g id="A-2" data-name="A" transform="translate(388.88 817.88)">
      <path id="fz-7" data-name="fz" d="M608.56,140.89h-1.09v-8.24h1.09v8.24" fill="#333"/>
      <path id="fl-11" data-name="fl" d="M612.92,135.54a1.628,1.628,0,0,0-1.49.99v4.37h-1.05v-6.13h.99l.03.77a2.227,2.227,0,0,1,1.83-.88c1.3,0,1.96.73,1.96,2.19v4.05h-1.05v-4.05c-.01-.87-.37-1.3-1.23-1.3" fill="#333"/>
      <path id="eY-13" data-name="eY" d="M619.03,140.14c.69,0,1.31-.28,1.31-.88a.788.788,0,0,0-.32-.66c-.41-.34-1.89-.52-2.38-.81a1.46,1.46,0,0,1-.92-1.35,2.051,2.051,0,0,1,2.26-1.79,2.094,2.094,0,0,1,2.34,1.91h-1.05a1.194,1.194,0,0,0-1.29-1.05c-.67,0-1.22.3-1.22.9a.637.637,0,0,0,.3.57c.43.29,1.87.51,2.36.79a1.516,1.516,0,0,1,.96,1.42c0,1.18-1.1,1.81-2.36,1.81a2.568,2.568,0,0,1-2.19-.99,1.706,1.706,0,0,1-.32-1.01h1.05c.03.73.66,1.14,1.46,1.14" fill="#333"/>
      <path id="fw-5" data-name="fw" d="M624.55,141c-.97,0-1.42-.63-1.42-1.63v-3.8h-1.12v-.81h1.12v-1.48h1.05v1.48h1.14v.81h-1.14v3.8c-.05.71.52.84,1.17.67v.85a3.272,3.272,0,0,1-.8.11" fill="#333"/>
      <path id="fe-14" data-name="fe" d="M628.93,134.65a1.983,1.983,0,0,1,2.28,1.99v2.82a3.312,3.312,0,0,0,.22,1.34v.09h-1.1a2.21,2.21,0,0,1-.15-.65,2.365,2.365,0,0,1-1.74.76,1.91,1.91,0,0,1-2.07-1.81c.02-1.42,1.21-2.03,2.77-2.02h1.02v-.48a1.149,1.149,0,0,0-1.3-1.2c-.65,0-1.31.38-1.32.97h-1.05a2.207,2.207,0,0,1,2.43-1.81Zm-1.51,4.39a1.058,1.058,0,0,0,1.17,1.05,1.807,1.807,0,0,0,1.57-.92v-1.26h-.82c-1.29,0-1.93.37-1.93,1.13" fill="#333"/>
      <path id="fg-13" data-name="fg" d="M633.99,140.89h-1.05v-8.7h1.05v8.7" fill="#333"/>
      <path id="fe-15" data-name="fe" d="M638.05,134.65a1.983,1.983,0,0,1,2.28,1.99v2.82a3.312,3.312,0,0,0,.22,1.34v.09h-1.1a2.21,2.21,0,0,1-.15-.65,2.365,2.365,0,0,1-1.74.76,1.91,1.91,0,0,1-2.07-1.81c.02-1.42,1.21-2.03,2.77-2.02h1.02v-.48a1.149,1.149,0,0,0-1.3-1.2c-.65,0-1.31.38-1.32.97h-1.05a2.207,2.207,0,0,1,2.43-1.81Zm-1.51,4.39a1.058,1.058,0,0,0,1.17,1.05,1.807,1.807,0,0,0,1.57-.92v-1.26h-.82c-1.29,0-1.93.37-1.93,1.13" fill="#333"/>
      <path id="fj-10" data-name="fj" d="M642.75,137.74c0,1.38.44,2.38,1.68,2.4a1.394,1.394,0,0,0,1.44-1.19h.99a2.319,2.319,0,0,1-2.43,2.04c-1.79,0-2.79-1.37-2.73-3.3.06-1.81.93-3.02,2.72-3.06a2.3,2.3,0,0,1,2.44,2.22h-.99a1.428,1.428,0,0,0-1.45-1.36c-1.18.02-1.68.94-1.68,2.24" fill="#333"/>
      <path id="eX-14" data-name="eX" d="M649.18,140.89h-1.05v-6.13h1.05Zm-.52-7.16a.57.57,0,0,1-.62-.59.62.62,0,0,1,1.24,0,.565.565,0,0,1-.62.59" fill="#333"/>
      <path id="fk-9" data-name="fk" d="M653.37,141c-1.73.03-2.85-1.4-2.79-3.23.06-1.81.99-3.09,2.78-3.12,1.74-.03,2.85,1.4,2.8,3.24-.05,1.82-.99,3.07-2.79,3.11Zm-.01-5.49c-1.18,0-1.73,1.05-1.73,2.38,0,1.22.6,2.25,1.74,2.25,1.19,0,1.74-1.05,1.74-2.38,0-1.21-.62-2.26-1.75-2.26Zm.48-3.31h1.27l-1.52,1.66h-.84" fill="#333"/>
      <path id="fl-12" data-name="fl" d="M660.01,135.54a1.628,1.628,0,0,0-1.49.99v4.37h-1.05v-6.13h.99l.03.77a2.227,2.227,0,0,1,1.83-.88c1.3,0,1.96.73,1.96,2.19v4.05h-1.05v-4.05c-.01-.87-.37-1.3-1.23-1.3" fill="#333"/>
    </g>
    <path id="Trazado_723479" data-name="Trazado 723479" d="M716.75,64.39a4.468,4.468,0,0,1,4.47-4.47h95.42a4.468,4.468,0,0,1,4.47,4.47V86.93a4.468,4.468,0,0,1-4.47,4.47H721.22a4.468,4.468,0,0,1-4.47-4.47Z" transform="translate(388.88 817.88)" fill="#ffe1b1" stroke="rgba(0,0,0,0)" stroke-width="5.96"/>
    <g id="B-2" data-name="B" transform="translate(388.88 817.88)">
      <path id="gf" d="M762.65,79.74a1.717,1.717,0,0,0,1.9-1.88V72.27h1.09v5.61a2.722,2.722,0,0,1-3,2.75,2.665,2.665,0,0,1-2.97-2.74V72.27h1.08v5.58a1.733,1.733,0,0,0,1.9,1.89" fill="#333"/>
      <path id="eY-14" data-name="eY" d="M769.45,79.77c.69,0,1.31-.28,1.31-.88a.788.788,0,0,0-.32-.66c-.41-.34-1.89-.52-2.38-.81a1.46,1.46,0,0,1-.92-1.35,2.051,2.051,0,0,1,2.26-1.79,2.094,2.094,0,0,1,2.34,1.91h-1.05a1.194,1.194,0,0,0-1.29-1.05c-.67,0-1.22.3-1.22.9a.637.637,0,0,0,.3.57c.43.29,1.87.51,2.36.79a1.516,1.516,0,0,1,.96,1.42c0,1.18-1.1,1.81-2.36,1.81a2.568,2.568,0,0,1-2.19-.99,1.706,1.706,0,0,1-.32-1.01h1.05c.03.73.66,1.14,1.46,1.14" fill="#333"/>
      <path id="fb-10" data-name="fb" d="M775.69,80.63c-1.73.03-2.85-1.4-2.79-3.23.06-1.81.99-3.09,2.78-3.12,1.74-.03,2.85,1.4,2.8,3.24-.05,1.82-.99,3.07-2.79,3.11Zm-.01-5.49c-1.18,0-1.73,1.05-1.73,2.38,0,1.22.6,2.25,1.74,2.25,1.19,0,1.74-1.05,1.74-2.38,0-1.21-.62-2.26-1.75-2.26" fill="#333"/>
    </g>
    <path id="Trazado_723480" data-name="Trazado 723480" d="M716.75,124.86a4.468,4.468,0,0,1,4.47-4.47h95.42a4.468,4.468,0,0,1,4.47,4.47v20.87a4.468,4.468,0,0,1-4.47,4.47H721.22a4.468,4.468,0,0,1-4.47-4.47V124.86Z" transform="translate(388.88 817.88)" fill="#ffe1b1" stroke="rgba(0,0,0,0)" stroke-width="5.96"/>
    <g id="C-2" data-name="C" transform="translate(388.88 817.88)">
      <path id="fC-3" data-name="fC" d="M732.41,132.64l2.7,6.73,2.7-6.73h1.41v8.24h-1.09c-.02-2.28.02-4.5.1-6.68l-2.71,6.68h-.83l-2.7-6.66c.08,2.17.13,4.38.11,6.66h-1.09v-8.24h1.4" fill="#333"/>
      <path id="fe-16" data-name="fe" d="M743.35,134.65a1.983,1.983,0,0,1,2.28,1.99v2.82a3.312,3.312,0,0,0,.22,1.34v.09h-1.1a2.21,2.21,0,0,1-.15-.65,2.365,2.365,0,0,1-1.74.76,1.91,1.91,0,0,1-2.07-1.81c.02-1.42,1.21-2.03,2.77-2.02h1.02v-.48a1.149,1.149,0,0,0-1.3-1.2c-.65,0-1.31.38-1.32.97h-1.05a2.207,2.207,0,0,1,2.43-1.81Zm-1.51,4.39a1.058,1.058,0,0,0,1.17,1.05,1.807,1.807,0,0,0,1.57-.92v-1.26h-.82c-1.29,0-1.93.37-1.93,1.13" fill="#333"/>
      <path id="fl-13" data-name="fl" d="M749.81,135.54a1.628,1.628,0,0,0-1.49.99v4.37h-1.05v-6.13h.99l.03.77a2.227,2.227,0,0,1,1.83-.88c1.3,0,1.96.73,1.96,2.19v4.05h-1.05v-4.05c-.01-.87-.37-1.3-1.23-1.3" fill="#333"/>
      <path id="fw-6" data-name="fw" d="M755.46,141c-.97,0-1.42-.63-1.42-1.63v-3.8h-1.12v-.81h1.12v-1.48h1.05v1.48h1.14v.81h-1.14v3.8c-.05.71.52.84,1.17.67v.85a3.272,3.272,0,0,1-.8.11" fill="#333"/>
      <path id="eZ-14" data-name="eZ" d="M760.06,140.14a1.9,1.9,0,0,0,1.61-.83l.64.5a2.582,2.582,0,0,1-2.31,1.18c-1.74,0-2.81-1.32-2.81-3.2a3.156,3.156,0,0,1,1.32-2.75,2.465,2.465,0,0,1,1.36-.41c1.7.01,2.54,1.23,2.52,3.04v.44h-4.15a1.872,1.872,0,0,0,1.82,2.02Zm1.29-2.88c-.02-1.02-.5-1.76-1.47-1.76s-1.49.79-1.6,1.76h3.07" fill="#333"/>
      <path id="fl-14" data-name="fl" d="M766.14,135.54a1.628,1.628,0,0,0-1.49.99v4.37H763.6v-6.13h.99l.03.77a2.227,2.227,0,0,1,1.83-.88c1.3,0,1.96.73,1.96,2.19v4.05h-1.05v-4.05c-.01-.87-.37-1.3-1.23-1.3" fill="#333"/>
      <path id="eX-15" data-name="eX" d="M771.14,140.89h-1.05v-6.13h1.05Zm-.52-7.16a.57.57,0,0,1-.62-.59.62.62,0,0,1,1.24,0,.565.565,0,0,1-.62.59" fill="#333"/>
      <path id="fx-4" data-name="fx" d="M779.04,135.54a1.326,1.326,0,0,0-1.42,1.29v4.07h-1.05v-4.01a1.174,1.174,0,0,0-1.31-1.34,1.392,1.392,0,0,0-1.41.88v4.47H772.8v-6.13h.99l.03.68a2.252,2.252,0,0,1,1.82-.79,1.757,1.757,0,0,1,1.75.99,2.3,2.3,0,0,1,1.95-.99,1.859,1.859,0,0,1,2.05,2.13v4.11h-1.05v-4.04c-.01-.9-.38-1.31-1.31-1.31" fill="#333"/>
      <path id="eX-16" data-name="eX" d="M784.11,140.89h-1.05v-6.13h1.05Zm-.52-7.16a.57.57,0,0,1-.62-.59.62.62,0,0,1,1.24,0,.565.565,0,0,1-.62.59" fill="#333"/>
      <path id="eZ-15" data-name="eZ" d="M788.39,140.14a1.9,1.9,0,0,0,1.61-.83l.64.5a2.582,2.582,0,0,1-2.31,1.18c-1.74,0-2.81-1.32-2.81-3.2a3.156,3.156,0,0,1,1.32-2.75,2.465,2.465,0,0,1,1.36-.41c1.7.01,2.54,1.23,2.52,3.04v.44h-4.15a1.872,1.872,0,0,0,1.82,2.02Zm1.29-2.88c-.02-1.02-.5-1.76-1.47-1.76s-1.49.79-1.6,1.76h3.07" fill="#333"/>
      <path id="fl-15" data-name="fl" d="M794.48,135.54a1.628,1.628,0,0,0-1.49.99v4.37h-1.05v-6.13h.99l.03.77a2.227,2.227,0,0,1,1.83-.88c1.3,0,1.96.73,1.96,2.19v4.05H795.7v-4.05c-.01-.87-.37-1.3-1.23-1.3" fill="#333"/>
      <path id="fw-7" data-name="fw" d="M800.12,141c-.97,0-1.42-.63-1.42-1.63v-3.8h-1.12v-.81h1.12v-1.48h1.05v1.48h1.14v.81h-1.14v3.8c-.05.71.52.84,1.17.67v.85a3.272,3.272,0,0,1-.8.11" fill="#333"/>
      <path id="fb-11" data-name="fb" d="M804.52,141c-1.73.03-2.85-1.4-2.79-3.23.06-1.81.99-3.09,2.78-3.12,1.74-.03,2.85,1.4,2.8,3.24-.05,1.82-.99,3.07-2.79,3.11Zm-.01-5.49c-1.18,0-1.73,1.05-1.73,2.38,0,1.22.6,2.25,1.74,2.25,1.19,0,1.74-1.05,1.74-2.38,0-1.21-.62-2.26-1.75-2.26" fill="#333"/>
    </g>
    <path id="Trazado_723481" data-name="Trazado 723481" d="M583.17,169.59a4.468,4.468,0,0,1,4.47-4.47h95.42a4.468,4.468,0,0,1,4.47,4.47v21.27a4.468,4.468,0,0,1-4.47,4.47H587.64a4.468,4.468,0,0,1-4.47-4.47Z" transform="translate(388.88 817.88)" fill="#ffe1b1" stroke="rgba(0,0,0,0)" stroke-width="5.96"/>
    <g id="D-2" data-name="D" transform="translate(388.88 817.88)">
      <path id="eW-2" data-name="eW" d="M599.55,181.21c.1,2.72-1.17,4.32-3.68,4.4h-2.28v-8.24h2.33c2.31.05,3.55,1.52,3.64,3.84Zm-1.08.02c.02-1.77-.84-2.96-2.53-2.97h-1.27v6.46h1.14c1.74,0,2.68-1.18,2.66-3.01v-.48" fill="#333"/>
      <path id="eX-17" data-name="eX" d="M602.17,185.61h-1.05v-6.13h1.05Zm-.52-7.16a.57.57,0,0,1-.62-.59.62.62,0,0,1,1.24,0,.565.565,0,0,1-.62.59" fill="#333"/>
      <path id="eY-15" data-name="eY" d="M606.1,184.87c.69,0,1.31-.28,1.31-.88a.788.788,0,0,0-.32-.66c-.41-.34-1.89-.52-2.38-.81a1.46,1.46,0,0,1-.92-1.35,2.051,2.051,0,0,1,2.26-1.79,2.094,2.094,0,0,1,2.34,1.91h-1.05a1.194,1.194,0,0,0-1.29-1.05c-.67,0-1.22.3-1.22.9a.637.637,0,0,0,.3.57c.43.29,1.87.51,2.36.79a1.516,1.516,0,0,1,.96,1.42c0,1.18-1.1,1.81-2.36,1.81a2.568,2.568,0,0,1-2.19-.99,1.706,1.706,0,0,1-.32-1.01h1.05c.03.73.66,1.14,1.46,1.14" fill="#333"/>
      <path id="fy-3" data-name="fy" d="M612.61,179.37c1.65,0,2.39,1.42,2.39,3.24,0,1.68-.8,3.1-2.37,3.11a2.275,2.275,0,0,1-1.76-.71v2.95h-1.05v-8.48h.96l.05.68a2.146,2.146,0,0,1,1.78-.79Zm-.3,5.5c1.17,0,1.64-1.02,1.64-2.37,0-1.23-.52-2.24-1.65-2.24a1.553,1.553,0,0,0-1.43.84v2.93a1.537,1.537,0,0,0,1.44.84" fill="#333"/>
      <path id="fb-12" data-name="fb" d="M618.84,185.73c-1.73.03-2.85-1.4-2.79-3.23.06-1.81.99-3.09,2.78-3.12,1.74-.03,2.85,1.4,2.8,3.24-.05,1.82-.99,3.07-2.79,3.11Zm-.01-5.49c-1.18,0-1.73,1.05-1.73,2.38,0,1.22.6,2.25,1.74,2.25,1.19,0,1.74-1.05,1.74-2.38,0-1.21-.62-2.26-1.75-2.26" fill="#333"/>
      <path id="eY-16" data-name="eY" d="M625.2,184.87c.69,0,1.31-.28,1.31-.88a.788.788,0,0,0-.32-.66c-.41-.34-1.89-.52-2.38-.81a1.46,1.46,0,0,1-.92-1.35,2.051,2.051,0,0,1,2.26-1.79,2.094,2.094,0,0,1,2.34,1.91h-1.05a1.194,1.194,0,0,0-1.29-1.05c-.67,0-1.22.3-1.22.9a.637.637,0,0,0,.3.57c.43.29,1.87.51,2.36.79a1.516,1.516,0,0,1,.96,1.42c0,1.18-1.1,1.81-2.36,1.81a2.568,2.568,0,0,1-2.19-.99,1.706,1.706,0,0,1-.32-1.01h1.05c.03.73.66,1.14,1.46,1.14" fill="#333"/>
      <path id="eX-18" data-name="eX" d="M630.06,185.61h-1.05v-6.13h1.05Zm-.52-7.16a.57.57,0,0,1-.62-.59.62.62,0,0,1,1.24,0,.565.565,0,0,1-.62.59" fill="#333"/>
      <path id="fj-11" data-name="fj" d="M632.51,182.47c0,1.38.44,2.38,1.68,2.4a1.394,1.394,0,0,0,1.44-1.19h.99a2.319,2.319,0,0,1-2.43,2.04c-1.79,0-2.79-1.37-2.73-3.3.06-1.81.93-3.02,2.72-3.06a2.3,2.3,0,0,1,2.44,2.22h-.99a1.428,1.428,0,0,0-1.45-1.36c-1.18.02-1.68.94-1.68,2.24" fill="#333"/>
      <path id="eX-19" data-name="eX" d="M638.94,185.61h-1.05v-6.13h1.05Zm-.52-7.16a.57.57,0,0,1-.62-.59.62.62,0,0,1,1.24,0,.565.565,0,0,1-.62.59" fill="#333"/>
      <path id="fk-10" data-name="fk" d="M643.13,185.73c-1.73.03-2.85-1.4-2.79-3.23.06-1.81.99-3.09,2.78-3.12,1.74-.03,2.85,1.4,2.8,3.24-.05,1.82-.99,3.07-2.79,3.11Zm-.01-5.49c-1.18,0-1.73,1.05-1.73,2.38,0,1.22.6,2.25,1.74,2.25,1.19,0,1.74-1.05,1.74-2.38,0-1.21-.62-2.26-1.75-2.26Zm.48-3.31h1.27l-1.52,1.66h-.84" fill="#333"/>
      <path id="fl-16" data-name="fl" d="M649.78,180.26a1.628,1.628,0,0,0-1.49.99v4.37h-1.05v-6.13h.99l.03.77a2.227,2.227,0,0,1,1.83-.88c1.3,0,1.96.73,1.96,2.19v4.05H651v-4.05c-.01-.87-.37-1.3-1.23-1.3" fill="#333"/>
    </g>
    <g id="E-2" data-name="E" transform="translate(388.88 817.88)">
      <path id="gg" d="M659.7,177.74c-.93-.22-1.68.16-1.63,1.1v.65h1.31v.81h-1.31v5.32h-1.05V180.3h-.97v-.81h.97v-.63c-.07-1.55,1.18-2.36,2.73-1.96" fill="#333"/>
      <path id="eX-20" data-name="eX" d="M661.67,185.61h-1.05v-6.13h1.05Zm-.52-7.16a.57.57,0,0,1-.62-.59.62.62,0,0,1,1.24,0,.565.565,0,0,1-.62.59" fill="#333"/>
      <path id="fl-17" data-name="fl" d="M665.88,180.26a1.628,1.628,0,0,0-1.49.99v4.37h-1.05v-6.13h.99l.03.77a2.227,2.227,0,0,1,1.83-.88c1.3,0,1.96.73,1.96,2.19v4.05H667.1v-4.05c-.01-.87-.37-1.3-1.23-1.3" fill="#333"/>
      <path id="fe-17" data-name="fe" d="M672.12,179.37a1.983,1.983,0,0,1,2.28,1.99v2.82a3.312,3.312,0,0,0,.22,1.34v.09h-1.1a2.21,2.21,0,0,1-.15-.65,2.365,2.365,0,0,1-1.74.76,1.91,1.91,0,0,1-2.07-1.81c.02-1.42,1.21-2.03,2.77-2.02h1.02v-.48a1.149,1.149,0,0,0-1.3-1.2c-.65,0-1.31.38-1.32.97h-1.05a2.207,2.207,0,0,1,2.43-1.81Zm-1.51,4.39a1.058,1.058,0,0,0,1.17,1.05,1.807,1.807,0,0,0,1.57-.92v-1.26h-.82c-1.29,0-1.93.37-1.93,1.13" fill="#333"/>
      <path id="fg-14" data-name="fg" d="M677.19,185.61h-1.05v-8.7h1.05v8.7" fill="#333"/>
    </g>
    <path id="Trazado_723482" data-name="Trazado 723482" d="M375.71,127.85h30.94a4.468,4.468,0,0,0,4.47-4.47V80.98a4.468,4.468,0,0,1,4.47-4.47h14.27" transform="translate(388.88 817.88)" fill="none" stroke="#00bcd4" stroke-width="3.73"/>
    <path id="Trazado_723483" data-name="Trazado 723483" d="M375.75,129.71h-1.98l.07-1.86-.07-1.86h1.98v3.73Z" transform="translate(388.88 817.88)" fill="#00bcd4" stroke="#00bcd4" stroke-width="0.04"/>
    <path id="Trazado_723484" data-name="Trazado 723484" d="M442.35,76.5l-10.63,3.45V73.04l10.63,3.46Z" transform="translate(388.88 817.88)" fill="#00bcd4" stroke="#00bcd4" stroke-width="3.73"/>
    <path id="Trazado_723485" data-name="Trazado 723485" d="M500.57,92.98v13.05a.278.278,0,0,1-.27.28h0a.278.278,0,0,0-.28.27v.03" transform="translate(388.88 817.88)" fill="none" stroke="#7e5ee3" stroke-width="1.49"/>
    <path id="Trazado_723486" data-name="Trazado 723486" d="M501.32,93h-1.49v-.76h1.49Z" transform="translate(388.88 817.88)" fill="#7e5ee3" stroke="#7e5ee3" stroke-width="0.04"/>
    <path id="Trazado_723487" data-name="Trazado 723487" d="M500.01,117.98l-3.45-10.63h6.91Z" transform="translate(388.88 817.88)" fill="#7e5ee3" stroke="#7e5ee3" stroke-width="1.49"/>
    <path id="Trazado_723488" data-name="Trazado 723488" d="M553.5,135.3h2.24a4.468,4.468,0,0,0,4.47-4.47V80.56a4.468,4.468,0,0,1,4.47-4.47h4.1" transform="translate(388.88 817.88)" fill="none" stroke="#7e5ee3" stroke-width="1.49"/>
    <path id="Trazado_723489" data-name="Trazado 723489" d="M553.52,136.05h-.77v-1.49h.77Z" transform="translate(388.88 817.88)" fill="#7e5ee3" stroke="#7e5ee3" stroke-width="0.04"/>
    <path id="Trazado_723490" data-name="Trazado 723490" d="M580.16,76.08l-10.63,3.45V72.61Z" transform="translate(388.88 817.88)" fill="#7e5ee3" stroke="#7e5ee3" stroke-width="1.49"/>
    <path id="Trazado_723491" data-name="Trazado 723491" d="M634.75,92.14V106.6" transform="translate(388.88 817.88)" fill="none" stroke="#7e5ee3" stroke-width="1.49"/>
    <path id="Trazado_723492" data-name="Trazado 723492" d="M635.5,92.17h-1.49v-.76h1.49Z" transform="translate(388.88 817.88)" fill="#7e5ee3" stroke="#7e5ee3" stroke-width="0.04"/>
    <path id="Trazado_723493" data-name="Trazado 723493" d="M634.75,117.98l-3.45-10.63h6.91l-3.46,10.63Z" transform="translate(388.88 817.88)" fill="#7e5ee3" stroke="#7e5ee3" stroke-width="1.49"/>
    <path id="Trazado_723494" data-name="Trazado 723494" d="M687.68,135.5h2.24a4.468,4.468,0,0,0,4.47-4.47V80.14a4.468,4.468,0,0,1,4.47-4.47h4.1" transform="translate(388.88 817.88)" fill="none" stroke="#7e5ee3" stroke-width="1.49"/>
    <path id="Trazado_723495" data-name="Trazado 723495" d="M687.7,136.25h-.77v-1.49h.77Z" transform="translate(388.88 817.88)" fill="#7e5ee3" stroke="#7e5ee3" stroke-width="0.04"/>
    <path id="Trazado_723496" data-name="Trazado 723496" d="M714.34,75.66l-10.63,3.45v-6.9l10.63,3.45Z" transform="translate(388.88 817.88)" fill="#7e5ee3" stroke="#7e5ee3" stroke-width="1.49"/>
    <path id="Trazado_723497" data-name="Trazado 723497" d="M768.94,92.14V106.6" transform="translate(388.88 817.88)" fill="none" stroke="#7e5ee3" stroke-width="1.49"/>
    <path id="Trazado_723498" data-name="Trazado 723498" d="M769.68,92.17h-1.49v-.76h1.49Z" transform="translate(388.88 817.88)" fill="#7e5ee3" stroke="#7e5ee3" stroke-width="0.04"/>
    <path id="Trazado_723499" data-name="Trazado 723499" d="M768.94,117.98l-3.45-10.63h6.91l-3.46,10.63Z" transform="translate(388.88 817.88)" fill="#7e5ee3" stroke="#7e5ee3" stroke-width="1.49"/>
    <path id="Trazado_723500" data-name="Trazado 723500" d="M768.94,150.95v24.8a4.468,4.468,0,0,1-4.47,4.47H701.33" transform="translate(388.88 817.88)" fill="none" stroke="#7e5ee3" stroke-width="1.49"/>
    <path id="Trazado_723501" data-name="Trazado 723501" d="M769.68,150.98h-1.49v-.77h1.49Z" transform="translate(388.88 817.88)" fill="#7e5ee3" stroke="#7e5ee3" stroke-width="0.04"/>
    <path id="Trazado_723502" data-name="Trazado 723502" d="M689.95,180.23l10.63-3.46v6.91Z" transform="translate(388.88 817.88)" fill="#7e5ee3" stroke="#7e5ee3" stroke-width="1.49"/>
  </g>
</svg>
