<svg xmlns="http://www.w3.org/2000/svg" xmlns:xlink="http://www.w3.org/1999/xlink" width="1027.5" height="331.701" viewBox="0 0 1027.5 331.701">
  <defs>
    <clipPath id="clip-path">
      <rect id="Rectángulo_351526" data-name="Rectángulo 351526" width="1027.5" height="331.701" fill="none"/>
    </clipPath>
    <filter id="Trazado_722270" x="-4.549" y="-4.549" width="346.8" height="346.8" filterUnits="userSpaceOnUse">
      <feOffset dx="3" dy="3" input="SourceAlpha"/>
      <feGaussianBlur stdDeviation="3" result="blur"/>
      <feFlood flood-opacity="0.161"/>
      <feComposite operator="in" in2="blur"/>
      <feComposite in="SourceGraphic"/>
    </filter>
    <filter id="Rectángulo_351504" x="440.298" y="-4.549" width="598.235" height="76.024" filterUnits="userSpaceOnUse">
      <feOffset dx="3" dy="3" input="SourceAlpha"/>
      <feGaussianBlur stdDeviation="3" result="blur-2"/>
      <feFlood flood-opacity="0.161"/>
      <feComposite operator="in" in2="blur-2"/>
      <feComposite in="SourceGraphic"/>
    </filter>
    <filter id="Rectángulo_351509" x="439.298" y="62.145" width="600.235" height="78.024" filterUnits="userSpaceOnUse">
      <feOffset dx="3" dy="3" input="SourceAlpha"/>
      <feGaussianBlur stdDeviation="3" result="blur-3"/>
      <feFlood flood-opacity="0.161"/>
      <feComposite operator="in" in2="blur-3"/>
      <feComposite in="SourceGraphic"/>
    </filter>
    <filter id="Rectángulo_351512" x="439.298" y="129.839" width="600.235" height="78.024" filterUnits="userSpaceOnUse">
      <feOffset dx="3" dy="3" input="SourceAlpha"/>
      <feGaussianBlur stdDeviation="3" result="blur-4"/>
      <feFlood flood-opacity="0.161"/>
      <feComposite operator="in" in2="blur-4"/>
      <feComposite in="SourceGraphic"/>
    </filter>
    <filter id="Rectángulo_351516" x="439.298" y="262.49" width="600.235" height="78.023" filterUnits="userSpaceOnUse">
      <feOffset dx="3" dy="3" input="SourceAlpha"/>
      <feGaussianBlur stdDeviation="3" result="blur-5"/>
      <feFlood flood-opacity="0.161"/>
      <feComposite operator="in" in2="blur-5"/>
      <feComposite in="SourceGraphic"/>
    </filter>
    <filter id="Rectángulo_351523" x="439.298" y="197.533" width="600.235" height="78.024" filterUnits="userSpaceOnUse">
      <feOffset dx="3" dy="3" input="SourceAlpha"/>
      <feGaussianBlur stdDeviation="3" result="blur-6"/>
      <feFlood flood-opacity="0.161"/>
      <feComposite operator="in" in2="blur-6"/>
      <feComposite in="SourceGraphic"/>
    </filter>
  </defs>
  <g id="Grupo_1009476" data-name="Grupo 1009476" transform="translate(-287.5 -1716.002)">
    <g id="Grupo_1009290" data-name="Grupo 1009290" transform="translate(287.5 1716.002)" clip-path="url(#clip-path)">
      <g transform="matrix(1, 0, 0, 1, 0, 0)" filter="url(#Trazado_722270)">
        <path id="Trazado_722270-2" data-name="Trazado 722270" d="M330.3,165.9A164.4,164.4,0,1,1,165.9,1.5,164.386,164.386,0,0,1,330.3,165.9" transform="translate(-0.05 -0.05)" fill="#00bcd4"/>
      </g>
      <circle id="Elipse_5054" data-name="Elipse 5054" cx="164.4" cy="164.4" r="164.4" transform="translate(1.451 1.451)" fill="none" stroke="#fff" stroke-width="3"/>
      <path id="Trazado_722271" data-name="Trazado 722271" d="M298.54,167.02A131.52,131.52,0,1,1,167.02,35.5,131.533,131.533,0,0,1,298.54,167.02" transform="translate(-1.169 -1.169)" fill="#7e5ee3"/>
      <circle id="Elipse_5055" data-name="Elipse 5055" cx="131.52" cy="131.52" r="131.52" transform="translate(34.331 34.331)" fill="none" stroke="#fff" stroke-width="3"/>
      <path id="Trazado_722272" data-name="Trazado 722272" d="M266.78,168.14A98.64,98.64,0,1,1,168.14,69.5a98.644,98.644,0,0,1,98.64,98.64" transform="translate(-2.289 -2.289)" fill="#6db1ff"/>
      <circle id="Elipse_5056" data-name="Elipse 5056" cx="98.64" cy="98.64" r="98.64" transform="translate(67.211 67.211)" fill="none" stroke="#fff" stroke-width="3"/>
      <path id="Trazado_722273" data-name="Trazado 722273" d="M235.02,169.26a65.76,65.76,0,1,1-65.76-65.76,65.767,65.767,0,0,1,65.76,65.76" transform="translate(-3.409 -3.409)" fill="#4cebff"/>
      <circle id="Elipse_5057" data-name="Elipse 5057" cx="65.76" cy="65.76" r="65.76" transform="translate(100.091 100.091)" fill="none" stroke="#fff" stroke-width="3"/>
      <path id="Trazado_722274" data-name="Trazado 722274" d="M203.26,170.38a32.88,32.88,0,1,1-32.88-32.88,32.877,32.877,0,0,1,32.88,32.88" transform="translate(-4.529 -4.529)" fill="#ff9d00"/>
      <circle id="Elipse_5058" data-name="Elipse 5058" cx="32.88" cy="32.88" r="32.88" transform="translate(132.971 132.971)" fill="none" stroke="#fff" stroke-width="3"/>
      <g transform="matrix(1, 0, 0, 1, 0, 0)" filter="url(#Rectángulo_351504)">
        <rect id="Rectángulo_351504-2" data-name="Rectángulo 351504" width="580.235" height="58.024" rx="6" transform="translate(446.3 1.45)" fill="#fff"/>
      </g>
      <rect id="Rectángulo_351505" data-name="Rectángulo 351505" width="580.235" height="58.024" rx="6" transform="translate(446.298 1.451)" fill="none" stroke="#ff9d00" stroke-width="2"/>
      <path id="Trazado_722275" data-name="Trazado 722275" d="M611.356,25.431h-3.928v10.9h-1.6v-10.9H601.9V24.1h9.452Z" transform="translate(-19.827 -0.794)" fill="#333"/>
      <path id="Trazado_722276" data-name="Trazado 722276" d="M617.04,28.739c-1.368-.226-2.418.151-2.837,1.243v6.446H612.65V27.345h1.511l.025,1.049a2.418,2.418,0,0,1,2.165-1.218,1.639,1.639,0,0,1,.689.118Z" transform="translate(-20.181 -0.895)" fill="#333"/>
      <path id="Trazado_722277" data-name="Trazado 722277" d="M621.844,27.177c2-.034,3.383,1.058,3.383,2.947V34.3a5.182,5.182,0,0,0,.319,1.989v.134h-1.629a3.2,3.2,0,0,1-.219-.957,3.476,3.476,0,0,1-2.586,1.125,2.82,2.82,0,0,1-3.064-2.686c.034-2.107,1.8-3.014,4.114-2.989h1.511v-.713a1.7,1.7,0,0,0-1.922-1.78c-.965,0-1.948.563-1.955,1.436h-1.562c.168-1.721,1.729-2.653,3.61-2.686M619.6,33.691a1.565,1.565,0,0,0,1.738,1.553,2.651,2.651,0,0,0,2.333-1.36V32.021h-1.217c-1.905,0-2.854.553-2.854,1.67" transform="translate(-20.359 -0.895)" fill="#333"/>
      <path id="Trazado_722278" data-name="Trazado 722278" d="M629.434,35.166h5.314v1.268h-7.211V35.292l5.012-6.656h-4.937V27.35H634.5v1.1" transform="translate(-20.672 -0.901)" fill="#333"/>
      <path id="Trazado_722279" data-name="Trazado 722279" d="M640.325,27.177c2-.034,3.383,1.058,3.383,2.947V34.3a5.183,5.183,0,0,0,.319,1.989v.134H642.4a3.2,3.2,0,0,1-.219-.957,3.477,3.477,0,0,1-2.586,1.125,2.82,2.82,0,0,1-3.064-2.686c.034-2.107,1.8-3.014,4.114-2.989h1.511v-.713a1.7,1.7,0,0,0-1.923-1.78c-.965,0-1.948.563-1.955,1.436h-1.562c.168-1.721,1.729-2.653,3.61-2.686m-2.242,6.514a1.565,1.565,0,0,0,1.738,1.553,2.651,2.651,0,0,0,2.334-1.36V32.021h-1.218c-1.905,0-2.854.553-2.854,1.67" transform="translate(-20.968 -0.895)" fill="#333"/>
      <path id="Trazado_722280" data-name="Trazado 722280" d="M650.617,27.053c2.452,0,3.542,2.132,3.542,4.81,0,2.5-1.2,4.592-3.526,4.609a3.158,3.158,0,0,1-2.66-1.218L647.9,36.3H646.47V23.41h1.553v4.81a3.148,3.148,0,0,1,2.594-1.167m-.369,8.1c1.738,0,2.359-1.469,2.359-3.467,0-1.881-.663-3.316-2.375-3.316a2.282,2.282,0,0,0-2.208,1.427v3.928a2.349,2.349,0,0,0,2.224,1.427" transform="translate(-21.295 -0.771)" fill="#333"/>
      <path id="Trazado_722281" data-name="Trazado 722281" d="M658.131,36.321h-1.553V27.238h1.553Zm-.764-10.611a.842.842,0,0,1-.915-.881.919.919,0,0,1,1.838,0,.845.845,0,0,1-.924.881" transform="translate(-21.624 -0.788)" fill="#333"/>
      <rect id="Rectángulo_351506" data-name="Rectángulo 351506" width="1.553" height="12.894" transform="translate(639.126 22.639)" fill="#333"/>
      <path id="Trazado_722282" data-name="Trazado 722282" d="M666.76,36.321h-1.553V27.238h1.553ZM666,25.71a.842.842,0,0,1-.915-.881.919.919,0,0,1,1.838,0,.845.845,0,0,1-.924.881" transform="translate(-21.909 -0.788)" fill="#333"/>
      <path id="Trazado_722283" data-name="Trazado 722283" d="M672.564,36.472c-2.317,0-3.568-2.242-3.568-4.785,0-2.5,1.268-4.617,3.585-4.634a3.138,3.138,0,0,1,2.527,1.092V23.41h1.552V36.3h-1.426l-.075-.974a3.157,3.157,0,0,1-2.595,1.142m.4-8.1c-1.763,0-2.418,1.485-2.418,3.492,0,1.83.73,3.291,2.4,3.291a2.273,2.273,0,0,0,2.157-1.327V29.655a2.279,2.279,0,0,0-2.141-1.284" transform="translate(-22.038 -0.771)" fill="#333"/>
      <path id="Trazado_722284" data-name="Trazado 722284" d="M682.938,27.177c2-.034,3.383,1.058,3.383,2.947V34.3a5.182,5.182,0,0,0,.319,1.989v.134h-1.629a3.2,3.2,0,0,1-.219-.957,3.476,3.476,0,0,1-2.586,1.125,2.82,2.82,0,0,1-3.064-2.686c.034-2.107,1.8-3.014,4.114-2.989h1.511v-.713a1.7,1.7,0,0,0-1.922-1.78c-.965,0-1.948.563-1.955,1.436h-1.562c.168-1.721,1.729-2.653,3.61-2.686M680.7,33.691a1.565,1.565,0,0,0,1.738,1.553,2.651,2.651,0,0,0,2.333-1.36V32.021H683.55c-1.905,0-2.854.553-2.854,1.67" transform="translate(-22.372 -0.895)" fill="#333"/>
      <path id="Trazado_722285" data-name="Trazado 722285" d="M692.259,36.472c-2.317,0-3.567-2.242-3.567-4.785,0-2.5,1.268-4.617,3.585-4.634a3.138,3.138,0,0,1,2.527,1.092V23.41h1.552V36.3H694.93l-.075-.974a3.157,3.157,0,0,1-2.595,1.142m.4-8.1c-1.763,0-2.418,1.485-2.418,3.492,0,1.83.73,3.291,2.4,3.291a2.273,2.273,0,0,0,2.157-1.327V29.655a2.279,2.279,0,0,0-2.141-1.284" transform="translate(-22.686 -0.771)" fill="#333"/>
      <path id="Trazado_722286" data-name="Trazado 722286" d="M706.686,36.472c-2.317,0-3.567-2.242-3.567-4.785,0-2.5,1.268-4.617,3.585-4.634a3.138,3.138,0,0,1,2.527,1.092V23.41h1.552V36.3h-1.426l-.075-.974a3.157,3.157,0,0,1-2.595,1.142m.4-8.1c-1.763,0-2.418,1.485-2.418,3.492,0,1.83.73,3.291,2.4,3.291a2.273,2.273,0,0,0,2.158-1.327V29.655a2.279,2.279,0,0,0-2.141-1.284" transform="translate(-23.162 -0.771)" fill="#333"/>
      <path id="Trazado_722287" data-name="Trazado 722287" d="M717.375,35.328a2.843,2.843,0,0,0,2.391-1.225l.949.739a3.824,3.824,0,0,1-3.424,1.754c-2.586.009-4.164-1.964-4.164-4.742a4.647,4.647,0,0,1,1.956-4.071,3.629,3.629,0,0,1,2.014-.6c2.518.016,3.77,1.83,3.736,4.507v.646H714.68a2.78,2.78,0,0,0,2.7,3m1.905-4.272c-.025-1.511-.739-2.6-2.183-2.6-1.427,0-2.216,1.175-2.367,2.6h4.55" transform="translate(-23.491 -0.895)" fill="#333"/>
      <rect id="Rectángulo_351507" data-name="Rectángulo 351507" width="1.553" height="12.894" transform="translate(703.529 22.639)" fill="#333"/>
      <path id="Trazado_722288" data-name="Trazado 722288" d="M735.382,36.6c-2.568.05-4.222-2.074-4.138-4.793.084-2.687,1.469-4.576,4.122-4.625,2.586-.043,4.222,2.073,4.147,4.81-.075,2.7-1.469,4.558-4.13,4.608m-.016-8.144c-1.747,0-2.561,1.554-2.561,3.536,0,1.813.891,3.339,2.577,3.339,1.772,0,2.577-1.56,2.577-3.524,0-1.8-.915-3.351-2.594-3.351" transform="translate(-24.088 -0.895)" fill="#333"/>
      <path id="Trazado_722289" data-name="Trazado 722289" d="M745.136,35.328c1.015,0,1.948-.411,1.948-1.309a1.2,1.2,0,0,0-.47-.983c-.613-.5-2.8-.772-3.526-1.2a2.164,2.164,0,0,1-1.36-2c0-1.595,1.611-2.661,3.358-2.661,1.872,0,3.476,1.083,3.467,2.837h-1.562a1.772,1.772,0,0,0-1.905-1.561c-1,0-1.8.445-1.8,1.335a.949.949,0,0,0,.445.848c.637.436,2.778.755,3.492,1.166a2.24,2.24,0,0,1,1.419,2.107c0,1.747-1.637,2.686-3.5,2.686a3.793,3.793,0,0,1-3.241-1.461,2.594,2.594,0,0,1-.479-1.5h1.553c.05,1.082.974,1.7,2.166,1.7" transform="translate(-24.423 -0.895)" fill="#333"/>
      <path id="Trazado_722290" data-name="Trazado 722290" d="M758.553,36.472c-2.317,0-3.568-2.242-3.568-4.785,0-2.5,1.268-4.617,3.585-4.634a3.138,3.138,0,0,1,2.527,1.092V23.41h1.552V36.3h-1.426l-.075-.974a3.157,3.157,0,0,1-2.595,1.142m.4-8.1c-1.763,0-2.418,1.485-2.418,3.492,0,1.83.73,3.291,2.4,3.291a2.273,2.273,0,0,0,2.158-1.327V29.655a2.279,2.279,0,0,0-2.141-1.284" transform="translate(-24.87 -0.771)" fill="#333"/>
      <path id="Trazado_722291" data-name="Trazado 722291" d="M767.09,36.321h-1.553V27.238h1.553Zm-.764-10.611a.842.842,0,0,1-.915-.881.919.919,0,0,1,1.838,0,.845.845,0,0,1-.924.881" transform="translate(-25.214 -0.788)" fill="#333"/>
      <path id="Trazado_722292" data-name="Trazado 722292" d="M773.044,35.328c1.015,0,1.948-.411,1.948-1.309a1.2,1.2,0,0,0-.47-.983c-.613-.5-2.8-.772-3.526-1.2a2.164,2.164,0,0,1-1.36-2c0-1.595,1.611-2.661,3.358-2.661,1.872,0,3.476,1.083,3.467,2.837H774.9a1.772,1.772,0,0,0-1.905-1.561c-1,0-1.8.445-1.8,1.335a.949.949,0,0,0,.445.848c.637.436,2.778.755,3.492,1.166a2.24,2.24,0,0,1,1.419,2.107c0,1.747-1.637,2.686-3.5,2.686a3.793,3.793,0,0,1-3.241-1.461,2.594,2.594,0,0,1-.479-1.5h1.553c.05,1.082.974,1.7,2.166,1.7" transform="translate(-25.342 -0.895)" fill="#333"/>
      <path id="Trazado_722293" data-name="Trazado 722293" d="M783.013,27.177c2.443,0,3.542,2.107,3.542,4.81,0,2.493-1.184,4.6-3.517,4.609a3.342,3.342,0,0,1-2.6-1.049V39.92h-1.553V27.345H780.3l.075,1.007a3.2,3.2,0,0,1,2.636-1.175m-.445,8.151c1.738,0,2.434-1.511,2.434-3.517,0-1.831-.772-3.316-2.451-3.316a2.288,2.288,0,0,0-2.116,1.25v4.34a2.279,2.279,0,0,0,2.132,1.243" transform="translate(-25.657 -0.895)" fill="#333"/>
      <path id="Trazado_722294" data-name="Trazado 722294" d="M792.57,36.6c-2.569.05-4.222-2.074-4.138-4.793.084-2.687,1.469-4.576,4.122-4.625,2.586-.043,4.222,2.073,4.147,4.81-.075,2.7-1.469,4.558-4.13,4.608m-.016-8.144c-1.747,0-2.561,1.554-2.561,3.536,0,1.813.891,3.339,2.577,3.339,1.772,0,2.577-1.56,2.577-3.524,0-1.8-.915-3.351-2.594-3.351" transform="translate(-25.972 -0.895)" fill="#333"/>
      <path id="Trazado_722295" data-name="Trazado 722295" d="M802.324,35.328c1.015,0,1.948-.411,1.948-1.309a1.2,1.2,0,0,0-.47-.983c-.613-.5-2.8-.772-3.526-1.2a2.164,2.164,0,0,1-1.36-2c0-1.595,1.611-2.661,3.358-2.661,1.872,0,3.476,1.083,3.467,2.837h-1.562a1.772,1.772,0,0,0-1.905-1.561c-1,0-1.8.445-1.8,1.335a.949.949,0,0,0,.445.848c.637.436,2.778.755,3.492,1.166a2.24,2.24,0,0,1,1.419,2.107c0,1.747-1.637,2.686-3.5,2.686a3.793,3.793,0,0,1-3.241-1.461,2.593,2.593,0,0,1-.478-1.5h1.552c.05,1.082.974,1.7,2.166,1.7" transform="translate(-26.307 -0.895)" fill="#333"/>
      <path id="Trazado_722296" data-name="Trazado 722296" d="M809.85,36.321H808.3V27.238h1.553Zm-.764-10.611a.842.842,0,0,1-.915-.881.919.919,0,0,1,1.838,0,.845.845,0,0,1-.924.881" transform="translate(-26.622 -0.788)" fill="#333"/>
      <path id="Trazado_722297" data-name="Trazado 722297" d="M815.092,36.527c-1.435,0-2.107-.94-2.1-2.418V28.476H811.34v-1.2h1.654v-2.2h1.553v2.2h1.7v1.2h-1.7v5.633c-.075,1.049.772,1.25,1.738.99v1.259a4.64,4.64,0,0,1-1.192.168" transform="translate(-26.726 -0.826)" fill="#333"/>
      <path id="Trazado_722298" data-name="Trazado 722298" d="M819.972,36.321h-1.553V27.238h1.553Zm-.764-10.611a.842.842,0,0,1-.915-.881.919.919,0,0,1,1.838,0,.845.845,0,0,1-.923.881" transform="translate(-26.956 -0.788)" fill="#333"/>
      <path id="Trazado_722299" data-name="Trazado 722299" d="M825.564,34.327l2.249-6.976H829.4l-3.257,9.084H824.96l-3.291-9.084h1.587" transform="translate(-27.067 -0.901)" fill="#333"/>
      <path id="Trazado_722300" data-name="Trazado 722300" d="M834.792,36.6c-2.569.05-4.222-2.074-4.138-4.793.084-2.687,1.469-4.576,4.122-4.625,2.586-.043,4.222,2.073,4.147,4.81-.075,2.7-1.469,4.558-4.13,4.608m-.016-8.144c-1.747,0-2.561,1.554-2.561,3.536,0,1.813.891,3.339,2.577,3.339,1.772,0,2.577-1.56,2.577-3.524,0-1.8-.915-3.351-2.594-3.351" transform="translate(-27.363 -0.895)" fill="#333"/>
      <path id="Trazado_722301" data-name="Trazado 722301" d="M844.546,35.328c1.016,0,1.948-.411,1.948-1.309a1.2,1.2,0,0,0-.47-.983c-.613-.5-2.8-.772-3.526-1.2a2.164,2.164,0,0,1-1.36-2c0-1.595,1.611-2.661,3.358-2.661,1.872,0,3.476,1.083,3.467,2.837H846.4a1.772,1.772,0,0,0-1.905-1.561c-1,0-1.8.445-1.8,1.335a.949.949,0,0,0,.445.848c.637.436,2.778.755,3.492,1.166a2.24,2.24,0,0,1,1.419,2.107c0,1.747-1.637,2.686-3.5,2.686a3.793,3.793,0,0,1-3.241-1.461,2.593,2.593,0,0,1-.478-1.5h1.552c.05,1.082.974,1.7,2.166,1.7" transform="translate(-27.698 -0.895)" fill="#333"/>
      <path id="Trazado_722302" data-name="Trazado 722302" d="M864.019,28.5a1.959,1.959,0,0,0-2.1,1.905v6.028h-1.562V30.477A1.734,1.734,0,0,0,858.42,28.5a2.085,2.085,0,0,0-2.09,1.3v6.632h-1.553V27.345h1.469l.042,1.007a3.357,3.357,0,0,1,2.7-1.175,2.6,2.6,0,0,1,2.594,1.461,3.394,3.394,0,0,1,2.9-1.461c1.989,0,3.039,1.058,3.039,3.165v6.086h-1.553V30.434c-.016-1.335-.562-1.939-1.939-1.939" transform="translate(-28.157 -0.895)" fill="#333"/>
      <path id="Trazado_722303" data-name="Trazado 722303" d="M874.206,35.2a2.842,2.842,0,0,0,2.393-1.226l.949.739a3.826,3.826,0,0,1-3.425,1.755c-2.585.008-4.163-1.965-4.163-4.743a4.65,4.65,0,0,1,1.955-4.071,3.632,3.632,0,0,1,2.015-.6c2.518.016,3.769,1.83,3.736,4.507v.647h-6.153a2.781,2.781,0,0,0,2.694,3m1.906-4.273c-.025-1.511-.739-2.6-2.183-2.6-1.427,0-2.216,1.176-2.367,2.6Zm-1.427-7.5h1.88l-2.249,2.468h-1.25" transform="translate(-28.657 -0.772)" fill="#333"/>
      <path id="Trazado_722304" data-name="Trazado 722304" d="M882.963,36.472c-2.317,0-3.568-2.242-3.568-4.785,0-2.5,1.268-4.617,3.585-4.634a3.138,3.138,0,0,1,2.527,1.092V23.41h1.552V36.3h-1.426l-.075-.974a3.157,3.157,0,0,1-2.595,1.142m.4-8.1c-1.763,0-2.418,1.485-2.418,3.492,0,1.83.73,3.291,2.4,3.291a2.273,2.273,0,0,0,2.158-1.327V29.655a2.279,2.279,0,0,0-2.141-1.284" transform="translate(-28.968 -0.771)" fill="#333"/>
      <path id="Trazado_722305" data-name="Trazado 722305" d="M891.5,36.321h-1.553V27.238H891.5Zm-.764-10.611a.842.842,0,0,1-.915-.881.919.919,0,0,1,1.838,0,.845.845,0,0,1-.924.881" transform="translate(-29.312 -0.788)" fill="#333"/>
      <path id="Trazado_722306" data-name="Trazado 722306" d="M895.262,31.769c0,2.048.646,3.526,2.493,3.56a2.074,2.074,0,0,0,2.141-1.763h1.469a3.436,3.436,0,0,1-3.61,3.03c-2.653,0-4.138-2.031-4.046-4.886.093-2.678,1.377-4.474,4.037-4.533a3.413,3.413,0,0,1,3.619,3.291H899.9a2.113,2.113,0,0,0-2.15-2.015c-1.754.034-2.484,1.394-2.484,3.316" transform="translate(-29.44 -0.895)" fill="#333"/>
      <path id="Trazado_722307" data-name="Trazado 722307" d="M907.144,36.6c-2.568.05-4.222-2.074-4.138-4.793.084-2.687,1.469-4.576,4.122-4.625,2.586-.043,4.222,2.073,4.147,4.81-.075,2.7-1.469,4.558-4.13,4.608m-.016-8.144c-1.747,0-2.561,1.554-2.561,3.536,0,1.813.891,3.339,2.577,3.339,1.772,0,2.577-1.56,2.577-3.524,0-1.8-.915-3.351-2.594-3.351" transform="translate(-29.746 -0.895)" fill="#333"/>
      <path id="Trazado_722308" data-name="Trazado 722308" d="M916.9,35.328c1.015,0,1.948-.411,1.948-1.309a1.2,1.2,0,0,0-.47-.983c-.613-.5-2.8-.772-3.526-1.2a2.164,2.164,0,0,1-1.36-2c0-1.595,1.611-2.661,3.358-2.661,1.872,0,3.476,1.083,3.467,2.837h-1.562a1.772,1.772,0,0,0-1.905-1.561c-1,0-1.8.445-1.8,1.335a.949.949,0,0,0,.445.848c.637.436,2.778.755,3.492,1.166A2.24,2.24,0,0,1,920.4,33.91c0,1.747-1.637,2.686-3.5,2.686a3.793,3.793,0,0,1-3.241-1.461,2.593,2.593,0,0,1-.478-1.5h1.552c.05,1.082.974,1.7,2.166,1.7" transform="translate(-30.081 -0.895)" fill="#333"/>
      <rect id="Rectángulo_351508" data-name="Rectángulo 351508" width="580.235" height="58.024" rx="6" transform="translate(446.298 69.145)" fill="#fff"/>
      <g transform="matrix(1, 0, 0, 1, 0, 0)" filter="url(#Rectángulo_351509)">
        <rect id="Rectángulo_351509-2" data-name="Rectángulo 351509" width="580.235" height="58.024" rx="6" transform="translate(446.3 69.14)" fill="#fff" stroke="#4cebff" stroke-width="2"/>
      </g>
      <path id="Trazado_722309" data-name="Trazado 722309" d="M641.689,105.171c1.5,0,2.636-.588,2.636-1.939a1.67,1.67,0,0,0-.63-1.394,7.275,7.275,0,0,0-2.283-.965,7.537,7.537,0,0,1-3.022-1.47,2.788,2.788,0,0,1-.941-2.14c0-2.057,1.94-3.332,4.155-3.332a4.319,4.319,0,0,1,3.77,1.83,3.434,3.434,0,0,1,.545,1.872H644.3c0-1.544-1.083-2.376-2.7-2.376-1.444,0-2.51.638-2.527,1.981a1.583,1.583,0,0,0,.638,1.259,6.294,6.294,0,0,0,2.149.949c1.721.5,2.9.974,3.66,2.149a2.9,2.9,0,0,1,.42,1.62c-.016,2.15-1.939,3.341-4.256,3.274-2.5-.068-4.541-1.251-4.625-3.711h1.62c0,1.57,1.343,2.393,3.006,2.393" transform="translate(-20.986 -3.094)" fill="#333"/>
      <path id="Trazado_722310" data-name="Trazado 722310" d="M651.971,105.328a2.844,2.844,0,0,0,2.393-1.225l.949.739a3.824,3.824,0,0,1-3.424,1.754c-2.586.009-4.164-1.964-4.164-4.742a4.647,4.647,0,0,1,1.956-4.071,3.629,3.629,0,0,1,2.014-.6c2.518.016,3.77,1.83,3.736,4.507v.646h-6.153a2.78,2.78,0,0,0,2.694,3m1.906-4.272c-.025-1.511-.739-2.6-2.183-2.6-1.427,0-2.216,1.175-2.367,2.6h4.55" transform="translate(-21.337 -3.201)" fill="#333"/>
      <path id="Trazado_722311" data-name="Trazado 722311" d="M661.32,98.5a2.432,2.432,0,0,0-2.216,1.46v6.473H657.55V97.345h1.47l.05,1.141a3.318,3.318,0,0,1,2.719-1.309c1.922,0,2.905,1.083,2.905,3.249v6h-1.553v-6.01c-.017-1.284-.546-1.923-1.822-1.923" transform="translate(-21.66 -3.201)" fill="#333"/>
      <path id="Trazado_722312" data-name="Trazado 722312" d="M670.687,105.328c1.015,0,1.948-.411,1.948-1.309a1.2,1.2,0,0,0-.47-.983c-.613-.5-2.8-.772-3.526-1.2a2.164,2.164,0,0,1-1.36-2c0-1.595,1.611-2.661,3.358-2.661,1.872,0,3.476,1.083,3.467,2.837h-1.562a1.772,1.772,0,0,0-1.905-1.561c-1,0-1.8.445-1.8,1.335a.949.949,0,0,0,.445.848c.637.436,2.778.755,3.492,1.166a2.24,2.24,0,0,1,1.419,2.107c0,1.747-1.637,2.686-3.5,2.686a3.793,3.793,0,0,1-3.241-1.461,2.594,2.594,0,0,1-.479-1.5h1.553c.05,1.082.974,1.7,2.166,1.7" transform="translate(-21.971 -3.201)" fill="#333"/>
      <path id="Trazado_722313" data-name="Trazado 722313" d="M678.214,106.321h-1.553V97.238h1.553ZM677.45,95.71a.842.842,0,0,1-.915-.881.919.919,0,0,1,1.838,0,.845.845,0,0,1-.924.881" transform="translate(-22.286 -3.094)" fill="#333"/>
      <path id="Trazado_722314" data-name="Trazado 722314" d="M684.987,97.053c2.452,0,3.543,2.132,3.543,4.81,0,2.5-1.2,4.592-3.526,4.609a3.159,3.159,0,0,1-2.661-1.218l-.076,1.049h-1.425V93.41h1.552v4.81a3.15,3.15,0,0,1,2.594-1.167m-.368,8.1c1.738,0,2.358-1.469,2.358-3.467,0-1.881-.662-3.316-2.375-3.316a2.282,2.282,0,0,0-2.208,1.427v3.928a2.35,2.35,0,0,0,2.225,1.427" transform="translate(-22.428 -3.077)" fill="#333"/>
      <path id="Trazado_722315" data-name="Trazado 722315" d="M692.5,106.321h-1.553V97.238H692.5Zm-.764-10.611a.842.842,0,0,1-.915-.881.919.919,0,0,1,1.838,0,.845.845,0,0,1-.924.881" transform="translate(-22.757 -3.094)" fill="#333"/>
      <rect id="Rectángulo_351510" data-name="Rectángulo 351510" width="1.553" height="12.894" transform="translate(672.364 90.333)" fill="#333"/>
      <path id="Trazado_722316" data-name="Trazado 722316" d="M701.131,106.321h-1.554V97.238h1.554Zm-.764-10.611a.843.843,0,0,1-.916-.881.919.919,0,0,1,1.838,0,.845.845,0,0,1-.923.881" transform="translate(-23.041 -3.094)" fill="#333"/>
      <path id="Trazado_722317" data-name="Trazado 722317" d="M706.933,106.472c-2.317,0-3.567-2.242-3.567-4.785,0-2.5,1.268-4.617,3.585-4.634a3.137,3.137,0,0,1,2.527,1.092V93.41h1.552V106.3H709.6l-.075-.974a3.157,3.157,0,0,1-2.595,1.142m.4-8.1c-1.763,0-2.418,1.485-2.418,3.492,0,1.83.73,3.291,2.4,3.291a2.273,2.273,0,0,0,2.157-1.327V99.655a2.279,2.279,0,0,0-2.141-1.284" transform="translate(-23.17 -3.077)" fill="#333"/>
      <path id="Trazado_722318" data-name="Trazado 722318" d="M717.309,97.177c2-.034,3.383,1.058,3.383,2.947V104.3a5.183,5.183,0,0,0,.319,1.989v.134h-1.629a3.2,3.2,0,0,1-.219-.957,3.478,3.478,0,0,1-2.586,1.125,2.82,2.82,0,0,1-3.064-2.686c.034-2.107,1.8-3.014,4.114-2.989h1.511v-.713a1.7,1.7,0,0,0-1.923-1.78c-.965,0-1.948.563-1.955,1.436H713.7c.168-1.721,1.729-2.653,3.61-2.686m-2.242,6.514a1.565,1.565,0,0,0,1.738,1.553,2.651,2.651,0,0,0,2.334-1.36v-1.864h-1.218c-1.905,0-2.854.553-2.854,1.67" transform="translate(-23.504 -3.201)" fill="#333"/>
      <path id="Trazado_722319" data-name="Trazado 722319" d="M726.63,106.472c-2.317,0-3.567-2.242-3.567-4.785,0-2.5,1.268-4.617,3.585-4.634a3.138,3.138,0,0,1,2.527,1.092V93.41h1.552V106.3H729.3l-.075-.974a3.157,3.157,0,0,1-2.595,1.142m.4-8.1c-1.763,0-2.418,1.485-2.418,3.492,0,1.83.73,3.291,2.4,3.291a2.273,2.273,0,0,0,2.158-1.327V99.655a2.279,2.279,0,0,0-2.141-1.284" transform="translate(-23.819 -3.077)" fill="#333"/>
      <path id="Trazado_722320" data-name="Trazado 722320" d="M740.818,104.159l2.116-6.808H744.6l-3.652,10.485c-.705,1.8-1.763,2.577-3.568,2.132v-1.259c1.4.134,2.032-.31,2.376-1.453l.343-.924-3.24-8.982h1.7" transform="translate(-24.273 -3.207)" fill="#333"/>
      <path id="Trazado_722321" data-name="Trazado 722321" d="M755.083,98.739c-1.368-.226-2.418.151-2.837,1.243v6.446h-1.553V97.345H752.2l.025,1.049a2.418,2.418,0,0,1,2.165-1.218,1.639,1.639,0,0,1,.689.118Z" transform="translate(-24.729 -3.201)" fill="#333"/>
      <path id="Trazado_722322" data-name="Trazado 722322" d="M760.383,105.328a2.843,2.843,0,0,0,2.391-1.225l.949.739A3.824,3.824,0,0,1,760.3,106.6c-2.586.009-4.164-1.964-4.164-4.742a4.647,4.647,0,0,1,1.956-4.071,3.629,3.629,0,0,1,2.014-.6c2.518.016,3.77,1.83,3.736,4.507v.646h-6.153a2.78,2.78,0,0,0,2.7,3m1.905-4.272c-.025-1.511-.739-2.6-2.183-2.6-1.427,0-2.217,1.175-2.367,2.6h4.55" transform="translate(-24.908 -3.201)" fill="#333"/>
      <path id="Trazado_722323" data-name="Trazado 722323" d="M770.092,97.177c2.443,0,3.542,2.107,3.542,4.81,0,2.493-1.184,4.6-3.517,4.609a3.342,3.342,0,0,1-2.6-1.049v4.373h-1.553V97.345h1.419l.075,1.007a3.2,3.2,0,0,1,2.636-1.175m-.445,8.151c1.738,0,2.434-1.511,2.434-3.517,0-1.831-.772-3.316-2.451-3.316a2.288,2.288,0,0,0-2.116,1.25v4.34a2.279,2.279,0,0,0,2.132,1.243" transform="translate(-25.232 -3.201)" fill="#333"/>
      <path id="Trazado_722324" data-name="Trazado 722324" d="M780.326,98.739c-1.368-.226-2.418.151-2.837,1.243v6.446h-1.553V97.345h1.512l.025,1.049a2.418,2.418,0,0,1,2.165-1.218,1.639,1.639,0,0,1,.689.118Z" transform="translate(-25.56 -3.201)" fill="#333"/>
      <path id="Trazado_722325" data-name="Trazado 722325" d="M785.625,105.328a2.844,2.844,0,0,0,2.392-1.225l.949.739a3.824,3.824,0,0,1-3.424,1.754c-2.586.009-4.164-1.964-4.164-4.742a4.647,4.647,0,0,1,1.956-4.071,3.629,3.629,0,0,1,2.014-.6c2.518.016,3.77,1.83,3.736,4.507v.646h-6.153a2.78,2.78,0,0,0,2.694,3m1.906-4.272c-.025-1.511-.739-2.6-2.183-2.6-1.427,0-2.216,1.175-2.367,2.6h4.55" transform="translate(-25.74 -3.201)" fill="#333"/>
      <path id="Trazado_722326" data-name="Trazado 722326" d="M794.533,105.328c1.015,0,1.948-.411,1.948-1.309a1.2,1.2,0,0,0-.47-.983c-.613-.5-2.8-.772-3.526-1.2a2.164,2.164,0,0,1-1.36-2c0-1.595,1.611-2.661,3.358-2.661,1.872,0,3.476,1.083,3.467,2.837h-1.562a1.772,1.772,0,0,0-1.905-1.561c-1,0-1.8.445-1.8,1.335a.949.949,0,0,0,.445.848c.637.436,2.778.755,3.492,1.166a2.24,2.24,0,0,1,1.419,2.107c0,1.747-1.637,2.686-3.5,2.686a3.793,3.793,0,0,1-3.241-1.461,2.594,2.594,0,0,1-.479-1.5h1.553c.05,1.082.974,1.7,2.166,1.7" transform="translate(-26.05 -3.201)" fill="#333"/>
      <path id="Trazado_722327" data-name="Trazado 722327" d="M804.211,105.328A2.843,2.843,0,0,0,806.6,104.1l.949.739a3.824,3.824,0,0,1-3.424,1.754c-2.586.009-4.164-1.964-4.164-4.742a4.647,4.647,0,0,1,1.956-4.071,3.629,3.629,0,0,1,2.014-.6c2.518.016,3.77,1.83,3.736,4.507v.646h-6.153a2.78,2.78,0,0,0,2.7,3m1.905-4.272c-.025-1.511-.739-2.6-2.183-2.6-1.427,0-2.216,1.175-2.367,2.6h4.55" transform="translate(-26.352 -3.201)" fill="#333"/>
      <path id="Trazado_722328" data-name="Trazado 722328" d="M813.56,98.5a2.432,2.432,0,0,0-2.217,1.46v6.473h-1.553V97.345h1.47l.05,1.141a3.318,3.318,0,0,1,2.719-1.309c1.923,0,2.905,1.083,2.905,3.249v6h-1.553v-6.01c-.017-1.284-.546-1.923-1.821-1.923" transform="translate(-26.675 -3.201)" fill="#333"/>
      <path id="Trazado_722329" data-name="Trazado 722329" d="M822.214,106.527c-1.435,0-2.107-.94-2.1-2.418V98.476h-1.654v-1.2h1.654v-2.2h1.553v2.2h1.7v1.2h-1.7v5.633c-.075,1.049.772,1.25,1.738.99v1.259a4.639,4.639,0,0,1-1.192.168" transform="translate(-26.961 -3.132)" fill="#333"/>
      <path id="Trazado_722330" data-name="Trazado 722330" d="M828.932,97.177c2-.034,3.383,1.058,3.383,2.947V104.3a5.183,5.183,0,0,0,.319,1.989v.134h-1.628a3.2,3.2,0,0,1-.219-.957A3.478,3.478,0,0,1,828.2,106.6a2.82,2.82,0,0,1-3.064-2.686c.034-2.107,1.8-3.014,4.114-2.989h1.511v-.713a1.7,1.7,0,0,0-1.922-1.78c-.965,0-1.948.563-1.955,1.436h-1.562c.168-1.721,1.729-2.653,3.61-2.686m-2.242,6.514a1.565,1.565,0,0,0,1.738,1.553,2.651,2.651,0,0,0,2.334-1.36v-1.864h-1.218c-1.905,0-2.854.553-2.854,1.67" transform="translate(-27.181 -3.201)" fill="#333"/>
      <path id="Trazado_722331" data-name="Trazado 722331" d="M837.692,106.527c-1.435,0-2.107-.94-2.1-2.418V98.476H833.94v-1.2h1.653v-2.2h1.553v2.2h1.7v1.2h-1.7v5.633c-.075,1.049.772,1.25,1.738.99v1.259a4.633,4.633,0,0,1-1.191.168" transform="translate(-27.471 -3.132)" fill="#333"/>
      <path id="Trazado_722332" data-name="Trazado 722332" d="M842.571,106.321h-1.553V97.238h1.553Zm-.763-10.611a.843.843,0,0,1-.916-.881.919.919,0,0,1,1.838,0,.845.845,0,0,1-.923.881" transform="translate(-27.7 -3.094)" fill="#333"/>
      <path id="Trazado_722333" data-name="Trazado 722333" d="M848.164,104.327l2.249-6.976H852l-3.257,9.084H847.56l-3.291-9.084h1.587" transform="translate(-27.811 -3.207)" fill="#333"/>
      <path id="Trazado_722334" data-name="Trazado 722334" d="M855.5,106.321h-1.553V97.238H855.5Zm-.764-10.611a.842.842,0,0,1-.915-.881.919.919,0,0,1,1.838,0,.845.845,0,0,1-.924.881" transform="translate(-28.126 -3.094)" fill="#333"/>
      <path id="Trazado_722335" data-name="Trazado 722335" d="M861.3,106.472c-2.317,0-3.568-2.242-3.568-4.785,0-2.5,1.268-4.617,3.585-4.634a3.137,3.137,0,0,1,2.527,1.092V93.41H865.4V106.3H863.97l-.075-.974a3.157,3.157,0,0,1-2.595,1.142m.4-8.1c-1.764,0-2.418,1.485-2.418,3.492,0,1.83.729,3.291,2.4,3.291a2.273,2.273,0,0,0,2.158-1.327V99.655a2.279,2.279,0,0,0-2.14-1.284" transform="translate(-28.255 -3.077)" fill="#333"/>
      <path id="Trazado_722336" data-name="Trazado 722336" d="M871.675,97.177c2-.034,3.383,1.058,3.383,2.947V104.3a5.183,5.183,0,0,0,.319,1.989v.134h-1.629a3.2,3.2,0,0,1-.219-.957,3.476,3.476,0,0,1-2.586,1.125,2.82,2.82,0,0,1-3.064-2.686c.034-2.107,1.8-3.014,4.114-2.989H873.5v-.713a1.7,1.7,0,0,0-1.922-1.78c-.965,0-1.948.563-1.955,1.436h-1.562c.168-1.721,1.729-2.653,3.61-2.686m-2.242,6.514a1.565,1.565,0,0,0,1.738,1.553,2.651,2.651,0,0,0,2.333-1.36v-1.864h-1.217c-1.905,0-2.854.553-2.854,1.67" transform="translate(-28.589 -3.201)" fill="#333"/>
      <path id="Trazado_722337" data-name="Trazado 722337" d="M881,106.472c-2.317,0-3.567-2.242-3.567-4.785,0-2.5,1.268-4.617,3.585-4.634a3.138,3.138,0,0,1,2.527,1.092V93.41h1.552V106.3h-1.426l-.075-.974A3.157,3.157,0,0,1,881,106.472m.4-8.1c-1.763,0-2.418,1.485-2.418,3.492,0,1.83.73,3.291,2.4,3.291a2.273,2.273,0,0,0,2.158-1.327V99.655a2.279,2.279,0,0,0-2.141-1.284" transform="translate(-28.904 -3.077)" fill="#333"/>
      <rect id="Rectángulo_351511" data-name="Rectángulo 351511" width="580.235" height="58.024" rx="6" transform="translate(446.298 136.839)" fill="#fff"/>
      <g transform="matrix(1, 0, 0, 1, 0, 0)" filter="url(#Rectángulo_351512)">
        <rect id="Rectángulo_351512-2" data-name="Rectángulo 351512" width="580.235" height="58.024" rx="6" transform="translate(446.3 136.84)" fill="#fff" stroke="#6db1ff" stroke-width="2"/>
      </g>
      <path id="Trazado_722338" data-name="Trazado 722338" d="M510.65,170.929H505.52v5.4h-1.611V164.1h7.571v1.326h-5.96v4.181h5.129Z" transform="translate(-16.599 -5.406)" fill="#333"/>
      <path id="Trazado_722339" data-name="Trazado 722339" d="M517.014,176.6c-2.568.05-4.222-2.073-4.138-4.793.084-2.686,1.469-4.575,4.122-4.625,2.586-.043,4.222,2.073,4.147,4.81-.075,2.7-1.469,4.558-4.13,4.608M517,168.454c-1.747,0-2.561,1.553-2.561,3.535,0,1.813.891,3.34,2.577,3.34,1.772,0,2.577-1.561,2.577-3.525,0-1.8-.915-3.35-2.594-3.35" transform="translate(-16.895 -5.507)" fill="#333"/>
      <path id="Trazado_722340" data-name="Trazado 722340" d="M527.83,168.739c-1.368-.226-2.418.151-2.837,1.243v6.446H523.44v-9.083h1.511l.025,1.049a2.418,2.418,0,0,1,2.165-1.218,1.639,1.639,0,0,1,.689.118Z" transform="translate(-17.243 -5.507)" fill="#333"/>
      <path id="Trazado_722341" data-name="Trazado 722341" d="M538.689,168.5a1.959,1.959,0,0,0-2.1,1.905v6.028h-1.562v-5.951a1.734,1.734,0,0,0-1.939-1.982,2.085,2.085,0,0,0-2.09,1.3v6.632h-1.553v-9.083h1.469l.042,1.007a3.357,3.357,0,0,1,2.7-1.175,2.6,2.6,0,0,1,2.594,1.461,3.394,3.394,0,0,1,2.9-1.461c1.989,0,3.038,1.058,3.038,3.165v6.086h-1.553v-5.994c-.016-1.335-.562-1.939-1.939-1.939" transform="translate(-17.441 -5.507)" fill="#333"/>
      <path id="Trazado_722342" data-name="Trazado 722342" d="M548.563,167.177c2-.034,3.383,1.058,3.383,2.947V174.3a5.182,5.182,0,0,0,.319,1.989v.134h-1.629a3.2,3.2,0,0,1-.219-.957,3.478,3.478,0,0,1-2.586,1.125,2.82,2.82,0,0,1-3.064-2.686c.034-2.107,1.8-3.014,4.114-2.989h1.511v-.713a1.7,1.7,0,0,0-1.922-1.78c-.965,0-1.948.563-1.955,1.436h-1.562c.168-1.721,1.729-2.653,3.61-2.686m-2.242,6.514a1.565,1.565,0,0,0,1.738,1.553,2.651,2.651,0,0,0,2.333-1.36v-1.864h-1.217c-1.905,0-2.854.553-2.854,1.67" transform="translate(-17.945 -5.507)" fill="#333"/>
      <path id="Trazado_722343" data-name="Trazado 722343" d="M555.844,171.769c0,2.048.646,3.526,2.493,3.56a2.074,2.074,0,0,0,2.141-1.763h1.469a3.437,3.437,0,0,1-3.61,3.03c-2.653,0-4.138-2.031-4.046-4.886.093-2.678,1.377-4.474,4.037-4.533a3.413,3.413,0,0,1,3.619,3.291h-1.469a2.113,2.113,0,0,0-2.15-2.015c-1.754.034-2.484,1.394-2.484,3.316" transform="translate(-18.259 -5.507)" fill="#333"/>
      <path id="Trazado_722344" data-name="Trazado 722344" d="M565.7,176.321h-1.553v-9.083H565.7Zm-.764-10.611a.842.842,0,0,1-.915-.881.919.919,0,0,1,1.838,0,.845.845,0,0,1-.924.881" transform="translate(-18.58 -5.4)" fill="#333"/>
      <path id="Trazado_722345" data-name="Trazado 722345" d="M572.04,176.473c-2.568.05-4.222-2.074-4.138-4.794.083-2.686,1.469-4.575,4.122-4.625,2.585-.042,4.222,2.073,4.147,4.81-.075,2.7-1.469,4.559-4.13,4.609m-.016-8.144c-1.747,0-2.561,1.553-2.561,3.535,0,1.813.89,3.341,2.577,3.341,1.772,0,2.577-1.562,2.577-3.526,0-1.8-.915-3.35-2.594-3.35m.7-4.9h1.88l-2.249,2.468h-1.25" transform="translate(-18.707 -5.383)" fill="#333"/>
      <path id="Trazado_722346" data-name="Trazado 722346" d="M582.236,168.5a2.432,2.432,0,0,0-2.216,1.46v6.473h-1.553v-9.083h1.47l.05,1.141a3.318,3.318,0,0,1,2.719-1.309c1.923,0,2.905,1.083,2.905,3.249v6h-1.553v-6.01c-.017-1.284-.546-1.923-1.822-1.923" transform="translate(-19.055 -5.507)" fill="#333"/>
      <path id="Trazado_722347" data-name="Trazado 722347" d="M596.515,175.328a2.844,2.844,0,0,0,2.393-1.225l.949.739a3.825,3.825,0,0,1-3.424,1.754c-2.586.009-4.164-1.964-4.164-4.742a4.647,4.647,0,0,1,1.956-4.071,3.629,3.629,0,0,1,2.014-.6c2.518.016,3.77,1.83,3.736,4.507v.646h-6.153a2.78,2.78,0,0,0,2.694,3m1.906-4.272c-.025-1.511-.739-2.6-2.183-2.6-1.427,0-2.217,1.175-2.367,2.6h4.55" transform="translate(-19.51 -5.507)" fill="#333"/>
      <path id="Trazado_722348" data-name="Trazado 722348" d="M608.184,176.321h-1.553v-9.083h1.553Zm-.764-10.611a.842.842,0,0,1-.915-.881.919.919,0,0,1,1.838,0,.845.845,0,0,1-.924.881" transform="translate(-19.979 -5.4)" fill="#333"/>
      <path id="Trazado_722349" data-name="Trazado 722349" d="M614.58,168.5a2.433,2.433,0,0,0-2.217,1.46v6.473H610.81v-9.083h1.469l.05,1.141a3.32,3.32,0,0,1,2.719-1.309c1.924,0,2.906,1.083,2.906,3.249v6H616.4v-6.01c-.017-1.284-.546-1.923-1.821-1.923" transform="translate(-20.121 -5.507)" fill="#333"/>
      <path id="Trazado_722350" data-name="Trazado 722350" d="M625.331,164.629c-1.377-.319-2.493.235-2.418,1.629v.957h1.939v1.2h-1.939V176.3H621.36v-7.883h-1.435v-1.2h1.435v-.932c-.1-2.3,1.747-3.492,4.055-2.913" transform="translate(-20.421 -5.377)" fill="#333"/>
      <path id="Trazado_722351" data-name="Trazado 722351" d="M630.5,176.6c-2.569.05-4.222-2.073-4.138-4.793.084-2.686,1.469-4.575,4.122-4.625,2.586-.043,4.222,2.073,4.147,4.81-.075,2.7-1.469,4.558-4.13,4.608m-.016-8.143c-1.746,0-2.561,1.553-2.561,3.535,0,1.813.891,3.34,2.577,3.34,1.772,0,2.577-1.561,2.577-3.525,0-1.8-.915-3.35-2.594-3.35" transform="translate(-20.633 -5.507)" fill="#333"/>
      <path id="Trazado_722352" data-name="Trazado 722352" d="M641.32,168.739c-1.368-.226-2.418.151-2.837,1.243v6.446H636.93v-9.083h1.511l.025,1.049a2.418,2.418,0,0,1,2.165-1.218,1.639,1.639,0,0,1,.689.118Z" transform="translate(-20.981 -5.507)" fill="#333"/>
      <path id="Trazado_722353" data-name="Trazado 722353" d="M652.179,168.5a1.959,1.959,0,0,0-2.1,1.905v6.028h-1.562v-5.951a1.734,1.734,0,0,0-1.939-1.982,2.085,2.085,0,0,0-2.09,1.3v6.632h-1.553v-9.083h1.469l.042,1.007a3.357,3.357,0,0,1,2.7-1.175,2.6,2.6,0,0,1,2.594,1.461,3.394,3.394,0,0,1,2.9-1.461c1.989,0,3.038,1.058,3.038,3.165v6.086h-1.553v-5.994c-.016-1.335-.562-1.939-1.939-1.939" transform="translate(-21.179 -5.507)" fill="#333"/>
      <path id="Trazado_722354" data-name="Trazado 722354" d="M662.053,167.177c2-.034,3.383,1.058,3.383,2.947V174.3a5.183,5.183,0,0,0,.319,1.989v.134h-1.629a3.2,3.2,0,0,1-.219-.957,3.476,3.476,0,0,1-2.586,1.125,2.82,2.82,0,0,1-3.064-2.686c.034-2.107,1.8-3.014,4.114-2.989h1.51v-.713a1.7,1.7,0,0,0-1.922-1.78c-.965,0-1.948.563-1.955,1.436h-1.562c.168-1.721,1.729-2.653,3.61-2.686m-2.242,6.514a1.565,1.565,0,0,0,1.738,1.553,2.651,2.651,0,0,0,2.333-1.36v-1.864h-1.218c-1.905,0-2.854.553-2.854,1.67" transform="translate(-21.684 -5.507)" fill="#333"/>
      <path id="Trazado_722355" data-name="Trazado 722355" d="M669.333,171.769c0,2.048.646,3.526,2.493,3.56a2.074,2.074,0,0,0,2.141-1.763h1.469a3.437,3.437,0,0,1-3.61,3.03c-2.653,0-4.138-2.031-4.046-4.886.093-2.678,1.377-4.474,4.037-4.533a3.413,3.413,0,0,1,3.619,3.291h-1.469a2.113,2.113,0,0,0-2.15-2.015c-1.754.034-2.484,1.394-2.484,3.316" transform="translate(-21.997 -5.507)" fill="#333"/>
      <path id="Trazado_722356" data-name="Trazado 722356" d="M679.19,176.321h-1.553v-9.083h1.553Zm-.763-10.611a.843.843,0,0,1-.916-.881.919.919,0,0,1,1.838,0,.845.845,0,0,1-.923.881" transform="translate(-22.318 -5.4)" fill="#333"/>
      <path id="Trazado_722357" data-name="Trazado 722357" d="M685.53,176.473c-2.569.05-4.222-2.074-4.138-4.794.084-2.686,1.469-4.575,4.122-4.625,2.585-.042,4.222,2.073,4.147,4.81-.075,2.7-1.469,4.559-4.13,4.609m-.016-8.144c-1.746,0-2.561,1.553-2.561,3.535,0,1.813.89,3.341,2.577,3.341,1.772,0,2.577-1.562,2.577-3.526,0-1.8-.915-3.35-2.594-3.35m.705-4.9h1.88l-2.249,2.468H684.6" transform="translate(-22.446 -5.383)" fill="#333"/>
      <path id="Trazado_722358" data-name="Trazado 722358" d="M695.725,168.5a2.432,2.432,0,0,0-2.217,1.46v6.473h-1.553v-9.083h1.47l.05,1.141a3.318,3.318,0,0,1,2.719-1.309c1.923,0,2.905,1.083,2.905,3.249v6h-1.553v-6.01c-.017-1.284-.546-1.923-1.822-1.923" transform="translate(-22.794 -5.507)" fill="#333"/>
      <path id="Trazado_722359" data-name="Trazado 722359" d="M710.3,167.177c2.443,0,3.542,2.107,3.542,4.81,0,2.493-1.184,4.6-3.517,4.609a3.342,3.342,0,0,1-2.6-1.049v4.373h-1.553V167.345h1.419l.075,1.007a3.2,3.2,0,0,1,2.636-1.175m-.445,8.151c1.738,0,2.434-1.511,2.434-3.517,0-1.831-.772-3.316-2.451-3.316a2.288,2.288,0,0,0-2.116,1.25v4.34a2.279,2.279,0,0,0,2.132,1.243" transform="translate(-23.262 -5.507)" fill="#333"/>
      <path id="Trazado_722360" data-name="Trazado 722360" d="M719.979,175.328a2.844,2.844,0,0,0,2.393-1.225l.949.739A3.824,3.824,0,0,1,719.9,176.6c-2.586.009-4.164-1.964-4.164-4.742a4.647,4.647,0,0,1,1.956-4.071,3.629,3.629,0,0,1,2.014-.6c2.518.016,3.77,1.83,3.736,4.507v.646h-6.153a2.78,2.78,0,0,0,2.694,3m1.906-4.272c-.025-1.511-.739-2.6-2.183-2.6-1.427,0-2.216,1.175-2.367,2.6h4.55" transform="translate(-23.577 -5.507)" fill="#333"/>
      <path id="Trazado_722361" data-name="Trazado 722361" d="M729.948,168.739c-1.368-.226-2.418.151-2.837,1.243v6.446h-1.553v-9.083h1.511l.025,1.049a2.418,2.418,0,0,1,2.165-1.218,1.639,1.639,0,0,1,.689.118Z" transform="translate(-23.901 -5.507)" fill="#333"/>
      <path id="Trazado_722362" data-name="Trazado 722362" d="M740.807,168.5a1.959,1.959,0,0,0-2.1,1.905v6.028h-1.562v-5.951a1.734,1.734,0,0,0-1.939-1.982,2.085,2.085,0,0,0-2.09,1.3v6.632h-1.553v-9.083h1.469l.042,1.007a3.357,3.357,0,0,1,2.7-1.175,2.6,2.6,0,0,1,2.594,1.461,3.394,3.394,0,0,1,2.9-1.461c1.989,0,3.039,1.058,3.039,3.165v6.086h-1.553v-5.994c-.016-1.335-.562-1.939-1.939-1.939" transform="translate(-24.099 -5.507)" fill="#333"/>
      <path id="Trazado_722363" data-name="Trazado 722363" d="M750.681,167.177c2-.034,3.383,1.058,3.383,2.947V174.3a5.183,5.183,0,0,0,.319,1.989v.134h-1.629a3.2,3.2,0,0,1-.219-.957,3.478,3.478,0,0,1-2.586,1.125,2.82,2.82,0,0,1-3.064-2.686c.034-2.107,1.8-3.014,4.114-2.989h1.511v-.713a1.7,1.7,0,0,0-1.923-1.78c-.965,0-1.948.563-1.955,1.436h-1.562c.168-1.721,1.729-2.653,3.61-2.686m-2.242,6.514a1.565,1.565,0,0,0,1.738,1.553,2.651,2.651,0,0,0,2.334-1.36v-1.864h-1.218c-1.905,0-2.854.553-2.854,1.67" transform="translate(-24.603 -5.507)" fill="#333"/>
      <path id="Trazado_722364" data-name="Trazado 722364" d="M760.595,168.5a2.432,2.432,0,0,0-2.216,1.46v6.473h-1.553v-9.083h1.47l.05,1.141a3.318,3.318,0,0,1,2.719-1.309c1.923,0,2.905,1.083,2.905,3.249v6h-1.553v-6.01c-.017-1.284-.546-1.923-1.822-1.923" transform="translate(-24.931 -5.507)" fill="#333"/>
      <path id="Trazado_722365" data-name="Trazado 722365" d="M770.473,175.328a2.844,2.844,0,0,0,2.393-1.225l.949.739a3.825,3.825,0,0,1-3.424,1.754c-2.586.009-4.164-1.964-4.164-4.742a4.647,4.647,0,0,1,1.956-4.071,3.629,3.629,0,0,1,2.014-.6c2.518.016,3.77,1.83,3.736,4.507v.646h-6.153a2.78,2.78,0,0,0,2.694,3m1.906-4.272c-.025-1.511-.739-2.6-2.183-2.6-1.427,0-2.217,1.175-2.367,2.6h4.55" transform="translate(-25.24 -5.507)" fill="#333"/>
      <path id="Trazado_722366" data-name="Trazado 722366" d="M779.823,168.5a2.432,2.432,0,0,0-2.216,1.46v6.473h-1.553v-9.083h1.47l.05,1.141a3.318,3.318,0,0,1,2.719-1.309c1.922,0,2.905,1.083,2.905,3.249v6h-1.553v-6.01c-.017-1.284-.546-1.923-1.822-1.923" transform="translate(-25.564 -5.507)" fill="#333"/>
      <path id="Trazado_722367" data-name="Trazado 722367" d="M788.477,176.527c-1.435,0-2.107-.94-2.1-2.418v-5.633h-1.654v-1.2h1.654v-2.2h1.553v2.2h1.7v1.2h-1.7v5.633c-.075,1.049.772,1.25,1.738.99v1.259a4.639,4.639,0,0,1-1.192.168" transform="translate(-25.85 -5.438)" fill="#333"/>
      <path id="Trazado_722368" data-name="Trazado 722368" d="M795.509,175.328A2.843,2.843,0,0,0,797.9,174.1l.949.739a3.824,3.824,0,0,1-3.424,1.754c-2.586.009-4.164-1.964-4.164-4.742a4.647,4.647,0,0,1,1.956-4.071,3.629,3.629,0,0,1,2.014-.6c2.518.016,3.77,1.83,3.736,4.507v.646h-6.153a2.78,2.78,0,0,0,2.7,3m1.905-4.272c-.025-1.511-.739-2.6-2.183-2.6-1.427,0-2.216,1.175-2.367,2.6h4.55" transform="translate(-26.065 -5.507)" fill="#333"/>
      <path id="Trazado_722369" data-name="Trazado 722369" d="M808.665,176.472c-2.317,0-3.567-2.242-3.567-4.785,0-2.5,1.268-4.617,3.585-4.634a3.138,3.138,0,0,1,2.527,1.092V163.41h1.552V176.3h-1.426l-.075-.974a3.157,3.157,0,0,1-2.595,1.142m.4-8.1c-1.763,0-2.418,1.485-2.418,3.492,0,1.83.73,3.291,2.4,3.291a2.273,2.273,0,0,0,2.158-1.327v-4.172a2.279,2.279,0,0,0-2.141-1.284" transform="translate(-26.521 -5.383)" fill="#333"/>
      <path id="Trazado_722370" data-name="Trazado 722370" d="M819.355,175.328a2.843,2.843,0,0,0,2.392-1.225l.949.739a3.824,3.824,0,0,1-3.424,1.754c-2.586.009-4.164-1.964-4.164-4.742a4.647,4.647,0,0,1,1.956-4.071,3.629,3.629,0,0,1,2.014-.6c2.518.016,3.77,1.83,3.736,4.507v.646H816.66a2.78,2.78,0,0,0,2.7,3m1.905-4.272c-.025-1.511-.739-2.6-2.183-2.6-1.427,0-2.216,1.175-2.367,2.6h4.55" transform="translate(-26.851 -5.507)" fill="#333"/>
      <rect id="Rectángulo_351513" data-name="Rectángulo 351513" width="1.553" height="12.894" transform="translate(802.149 158.027)" fill="#333"/>
      <path id="Trazado_722371" data-name="Trazado 722371" d="M837.361,176.6c-2.568.05-4.222-2.073-4.138-4.793.084-2.686,1.469-4.575,4.122-4.625,2.586-.043,4.222,2.073,4.147,4.81-.075,2.7-1.469,4.558-4.13,4.608m-.016-8.143c-1.747,0-2.561,1.553-2.561,3.535,0,1.813.891,3.34,2.577,3.34,1.772,0,2.577-1.561,2.577-3.525,0-1.8-.915-3.35-2.594-3.35" transform="translate(-27.447 -5.507)" fill="#333"/>
      <path id="Trazado_722372" data-name="Trazado 722372" d="M847.115,175.328c1.015,0,1.948-.411,1.948-1.309a1.2,1.2,0,0,0-.47-.983c-.613-.5-2.8-.772-3.526-1.2a2.164,2.164,0,0,1-1.36-2c0-1.595,1.611-2.661,3.358-2.661,1.872,0,3.476,1.083,3.467,2.837H848.97a1.772,1.772,0,0,0-1.905-1.561c-1,0-1.8.445-1.8,1.335a.949.949,0,0,0,.445.848c.637.436,2.778.755,3.492,1.166a2.24,2.24,0,0,1,1.419,2.107c0,1.747-1.637,2.686-3.5,2.686a3.793,3.793,0,0,1-3.241-1.461,2.594,2.594,0,0,1-.479-1.5h1.553c.05,1.082.974,1.7,2.166,1.7" transform="translate(-27.782 -5.507)" fill="#333"/>
      <path id="Trazado_722373" data-name="Trazado 722373" d="M860.881,167.177c2-.034,3.383,1.058,3.383,2.947V174.3a5.182,5.182,0,0,0,.319,1.989v.134h-1.629a3.2,3.2,0,0,1-.219-.957,3.476,3.476,0,0,1-2.586,1.125,2.82,2.82,0,0,1-3.064-2.686c.034-2.107,1.8-3.014,4.114-2.989h1.51v-.713a1.7,1.7,0,0,0-1.922-1.78c-.965,0-1.948.563-1.955,1.436h-1.562c.168-1.721,1.729-2.653,3.61-2.686m-2.242,6.514a1.565,1.565,0,0,0,1.738,1.553,2.651,2.651,0,0,0,2.333-1.36v-1.864h-1.218c-1.905,0-2.854.553-2.854,1.67" transform="translate(-28.233 -5.507)" fill="#333"/>
      <path id="Trazado_722374" data-name="Trazado 722374" d="M868.161,171.769c0,2.048.646,3.526,2.493,3.56a2.074,2.074,0,0,0,2.141-1.763h1.469a3.437,3.437,0,0,1-3.61,3.03c-2.653,0-4.138-2.031-4.046-4.886.093-2.678,1.377-4.474,4.037-4.533a3.413,3.413,0,0,1,3.619,3.291H872.8a2.113,2.113,0,0,0-2.15-2.015c-1.754.034-2.484,1.394-2.484,3.316" transform="translate(-28.547 -5.507)" fill="#333"/>
      <path id="Trazado_722375" data-name="Trazado 722375" d="M878.946,176.527c-1.435,0-2.107-.94-2.1-2.418v-5.633h-1.654v-1.2h1.654v-2.2H878.4v2.2h1.7v1.2h-1.7v5.633c-.075,1.049.772,1.25,1.738.99v1.259a4.639,4.639,0,0,1-1.192.168" transform="translate(-28.83 -5.438)" fill="#333"/>
      <path id="Trazado_722376" data-name="Trazado 722376" d="M885.677,176.6c-2.569.05-4.222-2.073-4.138-4.793.084-2.686,1.469-4.575,4.122-4.625,2.586-.043,4.222,2.073,4.147,4.81-.075,2.7-1.469,4.558-4.13,4.608m-.016-8.143c-1.747,0-2.561,1.553-2.561,3.535,0,1.813.891,3.34,2.577,3.34,1.772,0,2.577-1.561,2.577-3.525,0-1.8-.915-3.35-2.594-3.35" transform="translate(-29.039 -5.507)" fill="#333"/>
      <path id="Trazado_722377" data-name="Trazado 722377" d="M896.493,168.739c-1.368-.226-2.418.151-2.837,1.243v6.446H892.1v-9.083h1.511l.025,1.049a2.418,2.418,0,0,1,2.165-1.218,1.639,1.639,0,0,1,.689.118Z" transform="translate(-29.387 -5.507)" fill="#333"/>
      <path id="Trazado_722378" data-name="Trazado 722378" d="M901.793,175.328a2.844,2.844,0,0,0,2.393-1.225l.949.739a3.825,3.825,0,0,1-3.424,1.754c-2.586.009-4.164-1.964-4.164-4.742a4.647,4.647,0,0,1,1.956-4.071,3.629,3.629,0,0,1,2.014-.6c2.518.016,3.77,1.83,3.736,4.507v.646H899.1a2.78,2.78,0,0,0,2.694,3m1.906-4.272c-.025-1.511-.739-2.6-2.183-2.6-1.427,0-2.216,1.175-2.367,2.6h4.55" transform="translate(-29.566 -5.507)" fill="#333"/>
      <path id="Trazado_722379" data-name="Trazado 722379" d="M910.7,175.328c1.015,0,1.948-.411,1.948-1.309a1.2,1.2,0,0,0-.47-.983c-.613-.5-2.8-.772-3.526-1.2a2.164,2.164,0,0,1-1.36-2c0-1.595,1.611-2.661,3.358-2.661,1.872,0,3.476,1.083,3.467,2.837h-1.562a1.772,1.772,0,0,0-1.905-1.561c-1,0-1.8.445-1.8,1.335a.949.949,0,0,0,.445.848c.637.436,2.778.755,3.492,1.166a2.24,2.24,0,0,1,1.419,2.107c0,1.747-1.637,2.686-3.5,2.686a3.793,3.793,0,0,1-3.241-1.461,2.593,2.593,0,0,1-.478-1.5h1.552c.05,1.082.974,1.7,2.166,1.7" transform="translate(-29.877 -5.507)" fill="#333"/>
      <path id="Trazado_722380" data-name="Trazado 722380" d="M922.628,176.321h-1.553v-9.083h1.553Zm-.764-10.611a.842.842,0,0,1-.915-.881.919.919,0,0,1,1.838,0,.845.845,0,0,1-.923.881" transform="translate(-30.337 -5.4)" fill="#333"/>
      <path id="Trazado_722381" data-name="Trazado 722381" d="M929.024,168.5a2.432,2.432,0,0,0-2.216,1.46v6.473h-1.553v-9.083h1.47l.05,1.141a3.318,3.318,0,0,1,2.719-1.309c1.922,0,2.905,1.083,2.905,3.249v6h-1.553v-6.01c-.017-1.284-.546-1.923-1.822-1.923" transform="translate(-30.479 -5.507)" fill="#333"/>
      <path id="Trazado_722382" data-name="Trazado 722382" d="M938.03,174.327l2.249-6.976h1.587l-3.257,9.084h-1.184l-3.291-9.084h1.587" transform="translate(-30.771 -5.513)" fill="#333"/>
      <path id="Trazado_722383" data-name="Trazado 722383" d="M947.257,176.6c-2.569.05-4.222-2.073-4.138-4.793.084-2.686,1.469-4.575,4.122-4.625,2.586-.043,4.222,2.073,4.147,4.81-.075,2.7-1.469,4.558-4.13,4.608m-.016-8.143c-1.746,0-2.561,1.553-2.561,3.535,0,1.813.891,3.34,2.577,3.34,1.772,0,2.577-1.561,2.577-3.525,0-1.8-.915-3.35-2.594-3.35" transform="translate(-31.067 -5.507)" fill="#333"/>
      <rect id="Rectángulo_351514" data-name="Rectángulo 351514" width="1.553" height="12.894" transform="translate(922.402 158.027)" fill="#333"/>
      <path id="Trazado_722384" data-name="Trazado 722384" d="M960.943,176.6c-2.023-.009-2.981-1.243-2.981-3.341v-5.91h1.553v5.868c0,1.376.563,2.065,1.679,2.065a2.334,2.334,0,0,0,2.367-1.326v-6.607h1.553v9.083h-1.478l-.033-.9a3.3,3.3,0,0,1-2.661,1.066" transform="translate(-31.556 -5.513)" fill="#333"/>
      <path id="Trazado_722385" data-name="Trazado 722385" d="M968.934,171.769c0,2.048.646,3.526,2.493,3.56a2.074,2.074,0,0,0,2.141-1.763h1.469a3.437,3.437,0,0,1-3.61,3.03c-2.653,0-4.138-2.031-4.046-4.886.093-2.678,1.377-4.474,4.037-4.533a3.413,3.413,0,0,1,3.619,3.291h-1.469a2.113,2.113,0,0,0-2.15-2.015c-1.754.034-2.484,1.394-2.484,3.316" transform="translate(-31.867 -5.507)" fill="#333"/>
      <path id="Trazado_722386" data-name="Trazado 722386" d="M981.493,168.739c-1.368-.226-2.418.151-2.837,1.243v6.446H977.1v-9.083h1.511l.025,1.049a2.418,2.418,0,0,1,2.165-1.218,1.639,1.639,0,0,1,.688.118Z" transform="translate(-32.187 -5.507)" fill="#333"/>
      <path id="Trazado_722387" data-name="Trazado 722387" d="M986.3,167.177c2-.034,3.382,1.058,3.382,2.947V174.3a5.162,5.162,0,0,0,.32,1.989v.134H988.37a3.231,3.231,0,0,1-.219-.957,3.475,3.475,0,0,1-2.586,1.125,2.819,2.819,0,0,1-3.063-2.686c.033-2.107,1.8-3.014,4.113-2.989h1.511v-.713a1.7,1.7,0,0,0-1.922-1.78c-.965,0-1.949.563-1.956,1.436h-1.562c.168-1.721,1.73-2.653,3.611-2.686m-2.242,6.514a1.564,1.564,0,0,0,1.738,1.553,2.651,2.651,0,0,0,2.333-1.36v-1.864H986.91c-1.906,0-2.854.553-2.854,1.67" transform="translate(-32.365 -5.507)" fill="#333"/>
      <path id="Trazado_722388" data-name="Trazado 722388" d="M995.618,176.472c-2.317,0-3.567-2.242-3.567-4.785,0-2.5,1.268-4.617,3.585-4.634a3.137,3.137,0,0,1,2.527,1.092V163.41h1.552V176.3h-1.426l-.075-.974a3.157,3.157,0,0,1-2.595,1.142m.4-8.1c-1.763,0-2.418,1.485-2.418,3.492,0,1.83.73,3.291,2.4,3.291a2.273,2.273,0,0,0,2.157-1.327v-4.172a2.279,2.279,0,0,0-2.141-1.284" transform="translate(-32.679 -5.383)" fill="#333"/>
      <path id="Trazado_722389" data-name="Trazado 722389" d="M1006.181,176.6c-2.569.05-4.222-2.073-4.138-4.793.084-2.686,1.469-4.575,4.122-4.625,2.586-.043,4.222,2.073,4.147,4.81-.075,2.7-1.469,4.558-4.13,4.608m-.016-8.143c-1.746,0-2.561,1.553-2.561,3.535,0,1.813.891,3.34,2.577,3.34,1.772,0,2.577-1.561,2.577-3.525,0-1.8-.915-3.35-2.594-3.35" transform="translate(-33.008 -5.507)" fill="#333"/>
      <path id="Trazado_722390" data-name="Trazado 722390" d="M1015.935,175.328c1.015,0,1.948-.411,1.948-1.309a1.2,1.2,0,0,0-.47-.983c-.613-.5-2.8-.772-3.526-1.2a2.164,2.164,0,0,1-1.36-2c0-1.595,1.611-2.661,3.358-2.661,1.872,0,3.476,1.083,3.467,2.837h-1.562a1.772,1.772,0,0,0-1.905-1.561c-1,0-1.8.445-1.8,1.335a.949.949,0,0,0,.445.848c.637.436,2.778.755,3.492,1.166a2.24,2.24,0,0,1,1.419,2.107c0,1.747-1.637,2.686-3.5,2.686a3.793,3.793,0,0,1-3.241-1.461,2.593,2.593,0,0,1-.478-1.5h1.552c.05,1.082.974,1.7,2.166,1.7" transform="translate(-33.344 -5.507)" fill="#333"/>
      <rect id="Rectángulo_351515" data-name="Rectángulo 351515" width="580.235" height="58.024" rx="6" transform="translate(446.298 269.49)" fill="#fff"/>
      <g transform="matrix(1, 0, 0, 1, 0, 0)" filter="url(#Rectángulo_351516)">
        <rect id="Rectángulo_351516-2" data-name="Rectángulo 351516" width="580.235" height="58.024" rx="6" transform="translate(446.3 269.49)" fill="#fff" stroke="#00bcd4" stroke-width="2"/>
      </g>
      <path id="Trazado_722391" data-name="Trazado 722391" d="M490.406,310.3h-5.121l-1.151,3.189h-1.661l4.667-12.222h1.41l4.676,12.222h-1.654Zm-4.634-1.327h4.155l-2.082-5.716" transform="translate(-15.893 -9.924)" fill="#333"/>
      <path id="Trazado_722392" data-name="Trazado 722392" d="M499.432,305.9c-1.368-.226-2.418.151-2.837,1.243v6.446h-1.553v-9.083h1.512l.025,1.049a2.418,2.418,0,0,1,2.165-1.218,1.639,1.639,0,0,1,.689.118Z" transform="translate(-16.307 -10.025)" fill="#333"/>
      <path id="Trazado_722393" data-name="Trazado 722393" d="M504.106,313.693c-1.435,0-2.107-.94-2.1-2.418v-5.633h-1.654v-1.2h1.654v-2.2h1.553v2.2h1.7v1.2h-1.7v5.633c-.075,1.049.772,1.25,1.738.99v1.259a4.64,4.64,0,0,1-1.192.168" transform="translate(-16.482 -9.956)" fill="#333"/>
      <path id="Trazado_722394" data-name="Trazado 722394" d="M508.986,313.487h-1.552V304.4h1.552Zm-.763-10.611a.843.843,0,0,1-.916-.881.919.919,0,0,1,1.838,0,.844.844,0,0,1-.923.881" transform="translate(-16.711 -9.918)" fill="#333"/>
      <path id="Trazado_722395" data-name="Trazado 722395" d="M512.749,308.936c0,2.048.646,3.526,2.493,3.56a2.074,2.074,0,0,0,2.141-1.763h1.469a3.437,3.437,0,0,1-3.61,3.03c-2.653,0-4.138-2.031-4.046-4.886.093-2.678,1.377-4.474,4.037-4.533a3.413,3.413,0,0,1,3.619,3.291h-1.469a2.113,2.113,0,0,0-2.15-2.015c-1.754.034-2.484,1.394-2.484,3.316" transform="translate(-16.839 -10.025)" fill="#333"/>
      <path id="Trazado_722396" data-name="Trazado 722396" d="M523.864,313.768c-2.023-.009-2.981-1.243-2.981-3.341v-5.91h1.553v5.868c0,1.376.563,2.065,1.679,2.065a2.334,2.334,0,0,0,2.367-1.326v-6.607h1.553V313.6h-1.478l-.033-.9a3.3,3.3,0,0,1-2.661,1.066" transform="translate(-17.158 -10.031)" fill="#333"/>
      <rect id="Rectángulo_351517" data-name="Rectángulo 351517" width="1.553" height="12.894" transform="translate(513.371 290.676)" fill="#333"/>
      <path id="Trazado_722397" data-name="Trazado 722397" d="M538.559,304.344c2-.034,3.383,1.058,3.383,2.947v4.181a5.183,5.183,0,0,0,.319,1.989v.134h-1.629a3.2,3.2,0,0,1-.219-.957,3.478,3.478,0,0,1-2.586,1.125,2.82,2.82,0,0,1-3.064-2.686c.034-2.107,1.8-3.014,4.114-2.989h1.511v-.713a1.7,1.7,0,0,0-1.923-1.78c-.965,0-1.948.563-1.955,1.436h-1.562c.168-1.721,1.729-2.653,3.61-2.687m-2.242,6.514a1.565,1.565,0,0,0,1.738,1.553,2.651,2.651,0,0,0,2.334-1.36v-1.864h-1.218c-1.905,0-2.854.553-2.854,1.67" transform="translate(-17.616 -10.025)" fill="#333"/>
      <path id="Trazado_722398" data-name="Trazado 722398" d="M545.839,308.936c0,2.048.646,3.526,2.493,3.56a2.074,2.074,0,0,0,2.141-1.763h1.469a3.437,3.437,0,0,1-3.61,3.03c-2.653,0-4.138-2.031-4.046-4.886.093-2.678,1.377-4.474,4.037-4.533a3.413,3.413,0,0,1,3.619,3.291h-1.469a2.113,2.113,0,0,0-2.15-2.015c-1.754.034-2.484,1.394-2.484,3.316" transform="translate(-17.929 -10.025)" fill="#333"/>
      <path id="Trazado_722399" data-name="Trazado 722399" d="M555.7,313.487h-1.553V304.4H555.7Zm-.764-10.611a.842.842,0,0,1-.915-.881.919.919,0,0,1,1.838,0,.845.845,0,0,1-.924.881" transform="translate(-18.25 -9.918)" fill="#333"/>
      <path id="Trazado_722400" data-name="Trazado 722400" d="M562.036,313.64c-2.569.05-4.222-2.074-4.138-4.794.083-2.686,1.469-4.575,4.122-4.625,2.585-.042,4.222,2.073,4.147,4.81-.075,2.7-1.469,4.559-4.13,4.609m-.016-8.144c-1.747,0-2.561,1.553-2.561,3.535,0,1.813.89,3.341,2.577,3.341,1.772,0,2.577-1.562,2.577-3.526,0-1.8-.915-3.35-2.594-3.35m.7-4.9h1.88l-2.249,2.468H561.1" transform="translate(-18.378 -9.902)" fill="#333"/>
      <path id="Trazado_722401" data-name="Trazado 722401" d="M572.231,305.662a2.432,2.432,0,0,0-2.216,1.46v6.473h-1.553v-9.083h1.47l.05,1.141a3.318,3.318,0,0,1,2.719-1.309c1.923,0,2.905,1.083,2.905,3.249v6h-1.553v-6.01c-.017-1.284-.546-1.923-1.822-1.923" transform="translate(-18.726 -10.025)" fill="#333"/>
      <path id="Trazado_722402" data-name="Trazado 722402" d="M586.511,312.494a2.844,2.844,0,0,0,2.393-1.225l.949.739a3.824,3.824,0,0,1-3.424,1.754c-2.586.009-4.164-1.964-4.164-4.742a4.647,4.647,0,0,1,1.956-4.071,3.629,3.629,0,0,1,2.014-.6c2.518.016,3.77,1.83,3.736,4.507v.646h-6.153a2.78,2.78,0,0,0,2.694,3m1.906-4.272c-.025-1.511-.739-2.6-2.183-2.6-1.427,0-2.216,1.175-2.367,2.6h4.55" transform="translate(-19.18 -10.025)" fill="#333"/>
      <path id="Trazado_722403" data-name="Trazado 722403" d="M595.86,305.662a2.432,2.432,0,0,0-2.216,1.46v6.473H592.09v-9.083h1.47l.05,1.141a3.318,3.318,0,0,1,2.719-1.309c1.922,0,2.905,1.083,2.905,3.249v6h-1.553v-6.01c-.017-1.284-.546-1.923-1.822-1.923" transform="translate(-19.504 -10.025)" fill="#333"/>
      <path id="Trazado_722404" data-name="Trazado 722404" d="M604.514,313.693c-1.435,0-2.107-.94-2.1-2.418v-5.633h-1.654v-1.2h1.654v-2.2h1.553v2.2h1.7v1.2h-1.7v5.633c-.075,1.049.772,1.25,1.738.99v1.259a4.639,4.639,0,0,1-1.192.168" transform="translate(-19.79 -9.956)" fill="#333"/>
      <path id="Trazado_722405" data-name="Trazado 722405" d="M612.1,305.9c-1.369-.226-2.418.151-2.837,1.243v6.446h-1.554v-9.083h1.512l.025,1.049a2.418,2.418,0,0,1,2.165-1.218,1.647,1.647,0,0,1,.69.118Z" transform="translate(-20.019 -10.025)" fill="#333"/>
      <path id="Trazado_722406" data-name="Trazado 722406" d="M617.4,312.494a2.843,2.843,0,0,0,2.392-1.225l.949.739a3.824,3.824,0,0,1-3.424,1.754c-2.586.009-4.164-1.964-4.164-4.742a4.647,4.647,0,0,1,1.956-4.071,3.629,3.629,0,0,1,2.014-.6c2.518.016,3.77,1.83,3.736,4.507v.646H614.7a2.78,2.78,0,0,0,2.7,3m1.905-4.272c-.025-1.511-.739-2.6-2.183-2.6-1.427,0-2.216,1.175-2.367,2.6h4.55" transform="translate(-20.198 -10.025)" fill="#333"/>
      <rect id="Rectángulo_351518" data-name="Rectángulo 351518" width="1.553" height="12.894" transform="translate(606.845 290.676)" fill="#333"/>
      <path id="Trazado_722407" data-name="Trazado 722407" d="M635.4,313.762c-2.568.05-4.222-2.073-4.138-4.793.084-2.686,1.469-4.575,4.122-4.625,2.586-.043,4.222,2.073,4.147,4.81-.075,2.7-1.469,4.558-4.13,4.608m-.016-8.143c-1.747,0-2.561,1.553-2.561,3.535,0,1.813.891,3.34,2.577,3.34,1.772,0,2.577-1.561,2.577-3.525,0-1.8-.915-3.35-2.594-3.35" transform="translate(-20.795 -10.025)" fill="#333"/>
      <path id="Trazado_722408" data-name="Trazado 722408" d="M645.158,312.494c1.015,0,1.948-.411,1.948-1.308a1.2,1.2,0,0,0-.47-.983c-.613-.5-2.8-.773-3.526-1.2a2.161,2.161,0,0,1-1.36-2c0-1.6,1.611-2.661,3.358-2.661,1.872,0,3.476,1.083,3.467,2.837h-1.562a1.771,1.771,0,0,0-1.905-1.561c-1,0-1.8.445-1.8,1.334a.949.949,0,0,0,.445.849c.637.436,2.778.754,3.492,1.165a2.242,2.242,0,0,1,1.419,2.108c0,1.746-1.637,2.686-3.5,2.686a3.793,3.793,0,0,1-3.241-1.46,2.6,2.6,0,0,1-.479-1.5h1.553c.05,1.082.974,1.694,2.166,1.694" transform="translate(-21.13 -10.025)" fill="#333"/>
      <path id="Trazado_722409" data-name="Trazado 722409" d="M658.923,304.344c2-.034,3.383,1.058,3.383,2.947v4.181a5.183,5.183,0,0,0,.319,1.989v.134H661a3.2,3.2,0,0,1-.219-.957,3.476,3.476,0,0,1-2.586,1.125,2.82,2.82,0,0,1-3.064-2.686c.034-2.107,1.8-3.014,4.114-2.989h1.51v-.713a1.7,1.7,0,0,0-1.922-1.78c-.965,0-1.948.563-1.955,1.436h-1.562c.168-1.721,1.729-2.653,3.61-2.687m-2.242,6.514a1.565,1.565,0,0,0,1.738,1.553,2.651,2.651,0,0,0,2.333-1.36v-1.864h-1.217c-1.905,0-2.854.553-2.854,1.67" transform="translate(-21.581 -10.025)" fill="#333"/>
      <path id="Trazado_722410" data-name="Trazado 722410" d="M666.2,308.936c0,2.048.646,3.526,2.493,3.56a2.073,2.073,0,0,0,2.141-1.763h1.469a3.437,3.437,0,0,1-3.61,3.03c-2.653,0-4.138-2.031-4.046-4.886.093-2.678,1.377-4.474,4.037-4.533a3.413,3.413,0,0,1,3.619,3.291h-1.469a2.113,2.113,0,0,0-2.15-2.015c-1.754.034-2.484,1.394-2.484,3.316" transform="translate(-21.894 -10.025)" fill="#333"/>
      <path id="Trazado_722411" data-name="Trazado 722411" d="M676.988,313.693c-1.435,0-2.107-.94-2.1-2.418v-5.633h-1.654v-1.2h1.654v-2.2h1.553v2.2h1.7v1.2h-1.7v5.633c-.075,1.049.772,1.25,1.738.99v1.259a4.639,4.639,0,0,1-1.192.168" transform="translate(-22.177 -9.956)" fill="#333"/>
      <path id="Trazado_722412" data-name="Trazado 722412" d="M683.72,313.762c-2.569.05-4.222-2.073-4.138-4.793.084-2.686,1.469-4.575,4.122-4.625,2.586-.043,4.222,2.073,4.147,4.81-.075,2.7-1.469,4.558-4.13,4.608m-.016-8.143c-1.746,0-2.561,1.553-2.561,3.535,0,1.813.891,3.34,2.577,3.34,1.772,0,2.577-1.561,2.577-3.525,0-1.8-.915-3.35-2.594-3.35" transform="translate(-22.386 -10.025)" fill="#333"/>
      <path id="Trazado_722413" data-name="Trazado 722413" d="M694.536,305.9c-1.368-.226-2.418.151-2.837,1.243v6.446h-1.553v-9.083h1.511l.025,1.049a2.418,2.418,0,0,1,2.165-1.218,1.638,1.638,0,0,1,.688.118Z" transform="translate(-22.734 -10.025)" fill="#333"/>
      <path id="Trazado_722414" data-name="Trazado 722414" d="M699.835,312.494a2.844,2.844,0,0,0,2.393-1.225l.949.739a3.824,3.824,0,0,1-3.424,1.754c-2.586.009-4.164-1.964-4.164-4.742a4.647,4.647,0,0,1,1.956-4.071,3.629,3.629,0,0,1,2.014-.6c2.518.016,3.77,1.83,3.736,4.507v.646h-6.153a2.78,2.78,0,0,0,2.694,3m1.906-4.272c-.025-1.511-.739-2.6-2.183-2.6-1.427,0-2.216,1.175-2.367,2.6h4.55" transform="translate(-22.914 -10.025)" fill="#333"/>
      <path id="Trazado_722415" data-name="Trazado 722415" d="M708.743,312.494c1.015,0,1.948-.411,1.948-1.308a1.2,1.2,0,0,0-.47-.983c-.613-.5-2.8-.773-3.526-1.2a2.161,2.161,0,0,1-1.36-2c0-1.6,1.611-2.661,3.358-2.661,1.872,0,3.476,1.083,3.467,2.837H710.6a1.772,1.772,0,0,0-1.905-1.561c-1,0-1.8.445-1.8,1.334a.949.949,0,0,0,.445.849c.637.436,2.778.754,3.492,1.165a2.242,2.242,0,0,1,1.419,2.108c0,1.746-1.637,2.686-3.5,2.686a3.793,3.793,0,0,1-3.241-1.46,2.6,2.6,0,0,1-.478-1.5h1.552c.05,1.082.974,1.694,2.166,1.694" transform="translate(-23.224 -10.025)" fill="#333"/>
      <path id="Trazado_722416" data-name="Trazado 722416" d="M722.159,313.639c-2.317,0-3.568-2.242-3.568-4.785,0-2.5,1.268-4.617,3.585-4.634a3.138,3.138,0,0,1,2.527,1.092v-4.735h1.552v12.894H724.83l-.075-.974a3.157,3.157,0,0,1-2.595,1.142m.4-8.1c-1.763,0-2.418,1.485-2.418,3.492,0,1.83.73,3.291,2.4,3.291a2.273,2.273,0,0,0,2.157-1.327v-4.172a2.279,2.279,0,0,0-2.141-1.284" transform="translate(-23.671 -9.901)" fill="#333"/>
      <path id="Trazado_722417" data-name="Trazado 722417" d="M732.848,312.494a2.843,2.843,0,0,0,2.392-1.225l.949.739a3.825,3.825,0,0,1-3.424,1.754c-2.586.009-4.164-1.964-4.164-4.742a4.647,4.647,0,0,1,1.956-4.071,3.629,3.629,0,0,1,2.014-.6c2.518.016,3.77,1.83,3.736,4.507v.646h-6.153a2.78,2.78,0,0,0,2.7,3m1.906-4.272c-.025-1.511-.74-2.6-2.184-2.6-1.427,0-2.216,1.175-2.367,2.6h4.551" transform="translate(-24.001 -10.025)" fill="#333"/>
      <rect id="Rectángulo_351519" data-name="Rectángulo 351519" width="1.553" height="12.894" transform="translate(714.237 290.676)" fill="#333"/>
      <path id="Trazado_722418" data-name="Trazado 722418" d="M751.272,304.344c2.443,0,3.542,2.106,3.542,4.81,0,2.493-1.184,4.6-3.517,4.608a3.342,3.342,0,0,1-2.6-1.048v4.373h-1.553V304.512h1.419l.075,1.007a3.2,3.2,0,0,1,2.636-1.175m-.445,8.15c1.738,0,2.434-1.51,2.434-3.516,0-1.831-.772-3.316-2.451-3.316a2.286,2.286,0,0,0-2.116,1.25v4.339a2.279,2.279,0,0,0,2.132,1.243" transform="translate(-24.612 -10.025)" fill="#333"/>
      <path id="Trazado_722419" data-name="Trazado 722419" d="M761.506,305.9c-1.368-.226-2.418.151-2.837,1.243v6.446h-1.553v-9.083h1.512l.025,1.049a2.418,2.418,0,0,1,2.165-1.218,1.639,1.639,0,0,1,.689.118Z" transform="translate(-24.94 -10.025)" fill="#333"/>
      <path id="Trazado_722420" data-name="Trazado 722420" d="M766.671,313.762c-2.568.05-4.222-2.073-4.138-4.793.084-2.686,1.469-4.575,4.122-4.625,2.586-.043,4.222,2.073,4.147,4.81-.075,2.7-1.469,4.558-4.13,4.608m-.016-8.143c-1.747,0-2.561,1.553-2.561,3.535,0,1.813.891,3.34,2.577,3.34,1.772,0,2.577-1.561,2.577-3.525,0-1.8-.915-3.35-2.594-3.35" transform="translate(-25.119 -10.025)" fill="#333"/>
      <path id="Trazado_722421" data-name="Trazado 722421" d="M776.283,313.763c-2.359,0-3.567-2.175-3.567-4.785,0-2.543,1.234-4.634,3.585-4.634a3.132,3.132,0,0,1,2.594,1.175l.075-1.007h1.419v8.864a3.56,3.56,0,0,1-3.853,3.795,4.174,4.174,0,0,1-3.358-1.57l.806-.932a3.029,3.029,0,0,0,2.443,1.234,2.209,2.209,0,0,0,2.4-2.434v-.78a3.206,3.206,0,0,1-2.544,1.074m.4-8.1c-1.754,0-2.409,1.494-2.409,3.492,0,1.822.721,3.291,2.393,3.291a2.276,2.276,0,0,0,2.157-1.335v-4.148a2.312,2.312,0,0,0-2.141-1.3" transform="translate(-25.454 -10.025)" fill="#333"/>
      <path id="Trazado_722422" data-name="Trazado 722422" d="M787.461,305.9c-1.368-.226-2.418.151-2.837,1.243v6.446h-1.553v-9.083h1.512l.025,1.049a2.418,2.418,0,0,1,2.165-1.218,1.639,1.639,0,0,1,.689.118Z" transform="translate(-25.795 -10.025)" fill="#333"/>
      <path id="Trazado_722423" data-name="Trazado 722423" d="M792.265,304.344c2-.034,3.383,1.058,3.383,2.947v4.181a5.183,5.183,0,0,0,.319,1.989v.134h-1.629a3.2,3.2,0,0,1-.219-.957,3.476,3.476,0,0,1-2.586,1.125,2.82,2.82,0,0,1-3.064-2.686c.034-2.107,1.8-3.014,4.114-2.989h1.51v-.713a1.7,1.7,0,0,0-1.923-1.78c-.965,0-1.948.563-1.955,1.436h-1.562c.168-1.721,1.729-2.653,3.61-2.687m-2.242,6.514a1.565,1.565,0,0,0,1.738,1.553,2.651,2.651,0,0,0,2.333-1.36v-1.864h-1.218c-1.905,0-2.854.553-2.854,1.67" transform="translate(-25.973 -10.025)" fill="#333"/>
      <path id="Trazado_722424" data-name="Trazado 722424" d="M807.643,305.662a1.959,1.959,0,0,0-2.1,1.905v6.028h-1.562v-5.951a1.734,1.734,0,0,0-1.939-1.982,2.085,2.085,0,0,0-2.09,1.3v6.632H798.4v-9.083h1.469l.042,1.007a3.357,3.357,0,0,1,2.7-1.175,2.6,2.6,0,0,1,2.594,1.461,3.394,3.394,0,0,1,2.9-1.461c1.989,0,3.039,1.058,3.039,3.165v6.086h-1.553V307.6c-.016-1.335-.562-1.939-1.939-1.939" transform="translate(-26.3 -10.025)" fill="#333"/>
      <path id="Trazado_722425" data-name="Trazado 722425" d="M817.517,304.344c2-.034,3.383,1.058,3.383,2.947v4.181a5.183,5.183,0,0,0,.319,1.989v.134H819.59a3.2,3.2,0,0,1-.219-.957,3.478,3.478,0,0,1-2.586,1.125,2.82,2.82,0,0,1-3.064-2.686c.034-2.107,1.8-3.014,4.114-2.989h1.511v-.713a1.7,1.7,0,0,0-1.923-1.78c-.965,0-1.948.563-1.955,1.436h-1.562c.168-1.721,1.729-2.653,3.61-2.687m-2.242,6.514a1.565,1.565,0,0,0,1.738,1.553,2.651,2.651,0,0,0,2.334-1.36v-1.864h-1.218c-1.905,0-2.854.553-2.854,1.67" transform="translate(-26.805 -10.025)" fill="#333"/>
      <path id="Trazado_722426" data-name="Trazado 722426" d="M831.832,305.662a2.432,2.432,0,0,0-2.216,1.46v6.473h-1.553v-9.083h1.47l.05,1.141a3.318,3.318,0,0,1,2.719-1.309c1.923,0,2.905,1.083,2.905,3.249v6h-1.553v-6.01c-.017-1.284-.546-1.923-1.822-1.923" transform="translate(-27.277 -10.025)" fill="#333"/>
      <path id="Trazado_722427" data-name="Trazado 722427" d="M841.4,304.344c2-.034,3.383,1.058,3.383,2.947v4.181a5.183,5.183,0,0,0,.319,1.989v.134H843.47a3.2,3.2,0,0,1-.219-.957,3.476,3.476,0,0,1-2.586,1.125,2.82,2.82,0,0,1-3.064-2.686c.034-2.107,1.8-3.014,4.114-2.989h1.51v-.713a1.7,1.7,0,0,0-1.923-1.78c-.965,0-1.948.563-1.955,1.436h-1.562c.168-1.721,1.729-2.653,3.61-2.687m-2.242,6.514a1.565,1.565,0,0,0,1.738,1.553,2.651,2.651,0,0,0,2.333-1.36v-1.864h-1.218c-1.905,0-2.854.553-2.854,1.67" transform="translate(-27.592 -10.025)" fill="#333"/>
      <path id="Trazado_722428" data-name="Trazado 722428" d="M848.678,308.936c0,2.048.646,3.526,2.493,3.56a2.074,2.074,0,0,0,2.141-1.763h1.469a3.436,3.436,0,0,1-3.61,3.03c-2.653,0-4.138-2.031-4.046-4.886.093-2.678,1.377-4.474,4.037-4.533a3.413,3.413,0,0,1,3.619,3.291h-1.469a2.113,2.113,0,0,0-2.15-2.015c-1.754.034-2.484,1.394-2.484,3.316" transform="translate(-27.905 -10.025)" fill="#333"/>
      <path id="Trazado_722429" data-name="Trazado 722429" d="M858.535,313.487h-1.553V304.4h1.553Zm-.764-10.611a.842.842,0,0,1-.915-.881.919.919,0,0,1,1.838,0,.845.845,0,0,1-.924.881" transform="translate(-28.226 -9.918)" fill="#333"/>
      <path id="Trazado_722430" data-name="Trazado 722430" d="M864.874,313.762c-2.568.05-4.222-2.073-4.138-4.793.084-2.686,1.469-4.575,4.122-4.625,2.586-.043,4.222,2.073,4.147,4.81-.075,2.7-1.469,4.558-4.13,4.608m-.016-8.143c-1.747,0-2.561,1.553-2.561,3.535,0,1.813.891,3.34,2.577,3.34,1.772,0,2.577-1.561,2.577-3.525,0-1.8-.915-3.35-2.594-3.35" transform="translate(-28.354 -10.025)" fill="#333"/>
      <path id="Trazado_722431" data-name="Trazado 722431" d="M875.07,305.662a2.432,2.432,0,0,0-2.216,1.46v6.473H871.3v-9.083h1.47l.05,1.141a3.318,3.318,0,0,1,2.719-1.309c1.922,0,2.905,1.083,2.905,3.249v6h-1.553v-6.01c-.017-1.284-.546-1.923-1.822-1.923" transform="translate(-28.702 -10.025)" fill="#333"/>
      <path id="Trazado_722432" data-name="Trazado 722432" d="M884.635,304.344c2-.034,3.383,1.058,3.383,2.947v4.181a5.183,5.183,0,0,0,.319,1.989v.134h-1.628a3.2,3.2,0,0,1-.219-.957,3.477,3.477,0,0,1-2.586,1.125,2.82,2.82,0,0,1-3.064-2.686c.034-2.107,1.8-3.014,4.114-2.989h1.511v-.713a1.7,1.7,0,0,0-1.922-1.78c-.965,0-1.948.563-1.955,1.436h-1.562c.168-1.721,1.729-2.653,3.61-2.687m-2.242,6.514a1.565,1.565,0,0,0,1.738,1.553,2.651,2.651,0,0,0,2.334-1.36v-1.864h-1.218c-1.905,0-2.854.553-2.854,1.67" transform="translate(-29.016 -10.025)" fill="#333"/>
      <rect id="Rectángulo_351520" data-name="Rectángulo 351520" width="1.553" height="12.894" transform="translate(861.57 290.676)" fill="#333"/>
      <path id="Trazado_722433" data-name="Trazado 722433" d="M902.672,313.639c-2.317,0-3.568-2.242-3.568-4.785,0-2.5,1.268-4.617,3.585-4.634a3.138,3.138,0,0,1,2.527,1.092v-4.735h1.552v12.894h-1.426l-.075-.974a3.157,3.157,0,0,1-2.595,1.142m.4-8.1c-1.763,0-2.418,1.485-2.418,3.492,0,1.83.73,3.291,2.4,3.291a2.273,2.273,0,0,0,2.157-1.327v-4.172a2.279,2.279,0,0,0-2.141-1.284" transform="translate(-29.618 -9.901)" fill="#333"/>
      <path id="Trazado_722434" data-name="Trazado 722434" d="M913.361,312.494a2.843,2.843,0,0,0,2.392-1.225l.949.739a3.824,3.824,0,0,1-3.424,1.754c-2.586.009-4.164-1.964-4.164-4.742a4.647,4.647,0,0,1,1.956-4.071,3.629,3.629,0,0,1,2.014-.6c2.518.016,3.77,1.83,3.736,4.507v.646h-6.153a2.78,2.78,0,0,0,2.7,3m1.905-4.272c-.025-1.511-.739-2.6-2.183-2.6-1.427,0-2.216,1.175-2.367,2.6h4.55" transform="translate(-29.947 -10.025)" fill="#333"/>
      <path id="Trazado_722435" data-name="Trazado 722435" d="M925.955,313.693c-1.435,0-2.107-.94-2.1-2.418v-5.633H922.2v-1.2h1.654v-2.2h1.553v2.2h1.7v1.2h-1.7v5.633c-.075,1.049.772,1.25,1.738.99v1.259a4.639,4.639,0,0,1-1.192.168" transform="translate(-30.379 -9.956)" fill="#333"/>
      <path id="Trazado_722436" data-name="Trazado 722436" d="M932.987,312.494a2.843,2.843,0,0,0,2.391-1.225l.949.739a3.824,3.824,0,0,1-3.424,1.754c-2.586.009-4.164-1.964-4.164-4.742a4.647,4.647,0,0,1,1.956-4.071,3.629,3.629,0,0,1,2.014-.6c2.518.016,3.77,1.83,3.736,4.507v.646h-6.153a2.78,2.78,0,0,0,2.7,3m1.905-4.272c-.025-1.511-.739-2.6-2.183-2.6-1.427,0-2.216,1.175-2.367,2.6h4.55" transform="translate(-30.594 -10.025)" fill="#333"/>
      <path id="Trazado_722437" data-name="Trazado 722437" d="M939.7,308.936c0,2.048.646,3.526,2.493,3.56a2.073,2.073,0,0,0,2.141-1.763h1.469a3.437,3.437,0,0,1-3.61,3.03c-2.653,0-4.138-2.031-4.046-4.886.093-2.678,1.377-4.474,4.037-4.533a3.413,3.413,0,0,1,3.619,3.291h-1.469a2.113,2.113,0,0,0-2.15-2.015c-1.754.034-2.484,1.394-2.484,3.316" transform="translate(-30.904 -10.025)" fill="#333"/>
      <path id="Trazado_722438" data-name="Trazado 722438" d="M951.641,305.662a2.432,2.432,0,0,0-2.216,1.46v6.473h-1.553v-9.083h1.47l.05,1.141a3.318,3.318,0,0,1,2.719-1.309c1.922,0,2.905,1.083,2.905,3.249v6h-1.553v-6.01c-.017-1.284-.546-1.923-1.822-1.923" transform="translate(-31.224 -10.025)" fill="#333"/>
      <path id="Trazado_722439" data-name="Trazado 722439" d="M961.393,313.762c-2.568.05-4.222-2.073-4.138-4.793.084-2.686,1.469-4.575,4.122-4.625,2.586-.043,4.222,2.073,4.147,4.81-.075,2.7-1.469,4.558-4.13,4.608m-.016-8.143c-1.747,0-2.561,1.553-2.561,3.535,0,1.813.891,3.34,2.577,3.34,1.772,0,2.577-1.561,2.577-3.525,0-1.8-.915-3.35-2.594-3.35" transform="translate(-31.533 -10.025)" fill="#333"/>
      <path id="Trazado_722440" data-name="Trazado 722440" d="M970.656,311.493l2.249-6.976h1.587l-3.257,9.084h-1.184l-3.291-9.084h1.587" transform="translate(-31.846 -10.031)" fill="#333"/>
      <path id="Trazado_722441" data-name="Trazado 722441" d="M977.988,313.487h-1.553V304.4h1.553Zm-.764-10.611a.842.842,0,0,1-.915-.881.919.919,0,0,1,1.838,0,.845.845,0,0,1-.924.881" transform="translate(-32.161 -9.918)" fill="#333"/>
      <path id="Trazado_722442" data-name="Trazado 722442" d="M983.8,313.763c-2.359,0-3.568-2.175-3.568-4.785,0-2.543,1.234-4.634,3.585-4.634a3.132,3.132,0,0,1,2.594,1.175l.075-1.007h1.419v8.864a3.56,3.56,0,0,1-3.853,3.795,4.174,4.174,0,0,1-3.358-1.57l.806-.932a3.029,3.029,0,0,0,2.443,1.234,2.209,2.209,0,0,0,2.4-2.434v-.78a3.206,3.206,0,0,1-2.544,1.074m.4-8.1c-1.754,0-2.409,1.494-2.409,3.492,0,1.822.721,3.291,2.393,3.291a2.276,2.276,0,0,0,2.157-1.335v-4.148a2.312,2.312,0,0,0-2.141-1.3" transform="translate(-32.29 -10.025)" fill="#333"/>
      <path id="Trazado_722443" data-name="Trazado 722443" d="M992.276,313.487h-1.553V304.4h1.553Zm-.764-10.611A.842.842,0,0,1,990.6,302a.919.919,0,0,1,1.838,0,.845.845,0,0,1-.924.881" transform="translate(-32.631 -9.918)" fill="#333"/>
      <rect id="Rectángulo_351521" data-name="Rectángulo 351521" width="1.553" height="12.894" transform="translate(962.264 290.676)" fill="#333"/>
      <path id="Trazado_722444" data-name="Trazado 722444" d="M1002.743,304.344c2-.034,3.383,1.058,3.383,2.947v4.181a5.182,5.182,0,0,0,.319,1.989v.134h-1.629a3.2,3.2,0,0,1-.219-.957,3.478,3.478,0,0,1-2.586,1.125,2.82,2.82,0,0,1-3.064-2.686c.034-2.107,1.8-3.014,4.114-2.989h1.51v-.713a1.7,1.7,0,0,0-1.922-1.78c-.965,0-1.948.563-1.955,1.436h-1.562c.168-1.721,1.729-2.653,3.61-2.687m-2.242,6.514a1.565,1.565,0,0,0,1.738,1.553,2.651,2.651,0,0,0,2.333-1.36v-1.864h-1.218c-1.905,0-2.854.553-2.854,1.67" transform="translate(-32.907 -10.025)" fill="#333"/>
      <path id="Trazado_722445" data-name="Trazado 722445" d="M1012.657,305.662a2.432,2.432,0,0,0-2.216,1.46v6.473h-1.553v-9.083h1.47l.05,1.141a3.318,3.318,0,0,1,2.719-1.309c1.922,0,2.905,1.083,2.905,3.249v6h-1.553v-6.01c-.017-1.284-.546-1.923-1.822-1.923" transform="translate(-33.234 -10.025)" fill="#333"/>
      <path id="Trazado_722446" data-name="Trazado 722446" d="M1019.832,308.936c0,2.048.646,3.526,2.493,3.56a2.074,2.074,0,0,0,2.141-1.763h1.469a3.437,3.437,0,0,1-3.61,3.03c-2.653,0-4.138-2.031-4.046-4.886.093-2.678,1.377-4.474,4.037-4.533a3.413,3.413,0,0,1,3.619,3.291h-1.469a2.113,2.113,0,0,0-2.15-2.015c-1.754.034-2.484,1.394-2.484,3.316" transform="translate(-33.543 -10.025)" fill="#333"/>
      <path id="Trazado_722447" data-name="Trazado 722447" d="M1029.689,313.487h-1.552V304.4h1.552Zm-.763-10.611a.843.843,0,0,1-.916-.881.919.919,0,0,1,1.838,0,.844.844,0,0,1-.922.881" transform="translate(-33.864 -9.918)" fill="#333"/>
      <path id="Trazado_722448" data-name="Trazado 722448" d="M1035.842,304.344c2-.034,3.383,1.058,3.383,2.947v4.181a5.185,5.185,0,0,0,.319,1.989v.134h-1.628a3.2,3.2,0,0,1-.219-.957,3.478,3.478,0,0,1-2.586,1.125,2.82,2.82,0,0,1-3.064-2.686c.034-2.107,1.8-3.014,4.113-2.989h1.511v-.713a1.7,1.7,0,0,0-1.923-1.78c-.965,0-1.948.563-1.955,1.436h-1.562c.168-1.721,1.729-2.653,3.61-2.687m-2.242,6.514a1.565,1.565,0,0,0,1.738,1.553,2.653,2.653,0,0,0,2.334-1.36v-1.864h-1.218c-1.905,0-2.854.553-2.854,1.67" transform="translate(-33.997 -10.025)" fill="#333"/>
      <rect id="Rectángulo_351522" data-name="Rectángulo 351522" width="580.235" height="58.024" rx="6" transform="translate(446.298 204.533)" fill="#fff"/>
      <g transform="matrix(1, 0, 0, 1, 0, 0)" filter="url(#Rectángulo_351523)">
        <rect id="Rectángulo_351523-2" data-name="Rectángulo 351523" width="580.235" height="58.024" rx="6" transform="translate(446.3 204.53)" fill="#fff" stroke="#7e5ee3" stroke-width="2"/>
      </g>
      <rect id="Rectángulo_351524" data-name="Rectángulo 351524" width="1.612" height="12.223" transform="translate(575.608 226.392)" fill="#333"/>
      <path id="Trazado_722449" data-name="Trazado 722449" d="M603.447,238.5a2.432,2.432,0,0,0-2.216,1.46v6.473h-1.553v-9.083h1.47l.05,1.141a3.318,3.318,0,0,1,2.719-1.309c1.923,0,2.905,1.083,2.905,3.249v6h-1.553v-6.01c-.017-1.284-.546-1.923-1.822-1.923" transform="translate(-19.754 -7.813)" fill="#333"/>
      <path id="Trazado_722450" data-name="Trazado 722450" d="M614.2,234.629c-1.377-.319-2.493.235-2.418,1.629v.957h1.939v1.2H611.78V246.3h-1.553v-7.882h-1.435v-1.2h1.435v-.932c-.1-2.3,1.746-3.492,4.055-2.913" transform="translate(-20.054 -7.683)" fill="#333"/>
      <path id="Trazado_722451" data-name="Trazado 722451" d="M619.371,246.6c-2.568.049-4.222-2.074-4.138-4.793.084-2.686,1.469-4.576,4.122-4.625,2.586-.044,4.222,2.073,4.147,4.81-.075,2.7-1.469,4.558-4.13,4.608m-.016-8.144c-1.747,0-2.561,1.554-2.561,3.536,0,1.813.891,3.339,2.577,3.339,1.772,0,2.577-1.56,2.577-3.524,0-1.8-.915-3.351-2.594-3.351" transform="translate(-20.266 -7.813)" fill="#333"/>
      <path id="Trazado_722452" data-name="Trazado 722452" d="M630.187,238.739c-1.368-.226-2.418.151-2.837,1.243v6.446H625.8v-9.083h1.512l.025,1.049a2.418,2.418,0,0,1,2.165-1.218,1.639,1.639,0,0,1,.689.118Z" transform="translate(-20.614 -7.813)" fill="#333"/>
      <path id="Trazado_722453" data-name="Trazado 722453" d="M641.046,238.5a1.959,1.959,0,0,0-2.1,1.905v6.028h-1.562v-5.951a1.734,1.734,0,0,0-1.939-1.982,2.085,2.085,0,0,0-2.09,1.3v6.632H631.8v-9.083h1.469l.042,1.007a3.357,3.357,0,0,1,2.7-1.175,2.6,2.6,0,0,1,2.594,1.461,3.394,3.394,0,0,1,2.9-1.461c1.989,0,3.038,1.058,3.038,3.165v6.086h-1.553v-5.994c-.016-1.335-.562-1.939-1.939-1.939" transform="translate(-20.812 -7.813)" fill="#333"/>
      <path id="Trazado_722454" data-name="Trazado 722454" d="M650.92,237.177c2-.034,3.383,1.058,3.383,2.947V244.3a5.18,5.18,0,0,0,.319,1.989v.134h-1.629a3.2,3.2,0,0,1-.219-.957,3.478,3.478,0,0,1-2.586,1.125,2.82,2.82,0,0,1-3.064-2.686c.034-2.107,1.8-3.014,4.114-2.989h1.51v-.713a1.7,1.7,0,0,0-1.922-1.78c-.965,0-1.948.563-1.955,1.436H647.31c.168-1.721,1.729-2.653,3.61-2.686m-2.242,6.514a1.565,1.565,0,0,0,1.738,1.553,2.651,2.651,0,0,0,2.333-1.36v-1.864h-1.218c-1.905,0-2.854.553-2.854,1.67" transform="translate(-21.317 -7.813)" fill="#333"/>
      <path id="Trazado_722455" data-name="Trazado 722455" d="M658.2,241.769c0,2.048.646,3.526,2.493,3.56a2.073,2.073,0,0,0,2.141-1.763H664.3a3.437,3.437,0,0,1-3.61,3.03c-2.653,0-4.138-2.031-4.046-4.886.093-2.678,1.377-4.474,4.038-4.533a3.413,3.413,0,0,1,3.619,3.291h-1.469a2.112,2.112,0,0,0-2.15-2.015c-1.754.034-2.484,1.394-2.484,3.316" transform="translate(-21.631 -7.813)" fill="#333"/>
      <path id="Trazado_722456" data-name="Trazado 722456" d="M668.058,246.321H666.5v-9.083h1.553Zm-.764-10.611a.842.842,0,0,1-.915-.881.919.919,0,0,1,1.838,0,.845.845,0,0,1-.924.881" transform="translate(-21.951 -7.706)" fill="#333"/>
      <path id="Trazado_722457" data-name="Trazado 722457" d="M674.4,246.473c-2.568.05-4.222-2.074-4.138-4.794.083-2.686,1.469-4.575,4.122-4.625,2.585-.042,4.222,2.073,4.147,4.81-.075,2.7-1.469,4.559-4.13,4.609m-.016-8.144c-1.747,0-2.561,1.553-2.561,3.535,0,1.813.89,3.341,2.577,3.341,1.772,0,2.577-1.562,2.577-3.526,0-1.8-.915-3.35-2.594-3.35m.7-4.9h1.88l-2.249,2.468h-1.25" transform="translate(-22.079 -7.689)" fill="#333"/>
      <path id="Trazado_722458" data-name="Trazado 722458" d="M684.593,238.5a2.433,2.433,0,0,0-2.218,1.46v6.473h-1.552v-9.083h1.469l.05,1.141a3.32,3.32,0,0,1,2.719-1.309c1.923,0,2.906,1.083,2.906,3.249v6h-1.554v-6.01c-.017-1.284-.546-1.923-1.821-1.923" transform="translate(-22.427 -7.813)" fill="#333"/>
      <path id="Trazado_722459" data-name="Trazado 722459" d="M698,244.327l2.249-6.976h1.587l-3.257,9.084h-1.184L694.1,237.35h1.587" transform="translate(-22.865 -7.819)" fill="#333"/>
      <path id="Trazado_722460" data-name="Trazado 722460" d="M707.371,245.328a2.843,2.843,0,0,0,2.392-1.225l.949.739a3.824,3.824,0,0,1-3.424,1.754c-2.586.009-4.164-1.964-4.164-4.742a4.647,4.647,0,0,1,1.956-4.071,3.629,3.629,0,0,1,2.014-.6c2.518.016,3.77,1.83,3.736,4.507v.646h-6.153a2.78,2.78,0,0,0,2.7,3m1.905-4.272c-.025-1.511-.739-2.6-2.183-2.6-1.427,0-2.216,1.175-2.367,2.6h4.55" transform="translate(-23.162 -7.813)" fill="#333"/>
      <path id="Trazado_722461" data-name="Trazado 722461" d="M717.34,238.739c-1.368-.226-2.418.151-2.837,1.243v6.446H712.95v-9.083h1.512l.025,1.049a2.418,2.418,0,0,1,2.165-1.218,1.639,1.639,0,0,1,.689.118Z" transform="translate(-23.485 -7.813)" fill="#333"/>
      <path id="Trazado_722462" data-name="Trazado 722462" d="M722.144,237.177c2-.034,3.383,1.058,3.383,2.947V244.3a5.183,5.183,0,0,0,.319,1.989v.134h-1.629a3.2,3.2,0,0,1-.219-.957,3.476,3.476,0,0,1-2.586,1.125,2.82,2.82,0,0,1-3.064-2.686c.034-2.107,1.8-3.014,4.114-2.989h1.51v-.713a1.7,1.7,0,0,0-1.922-1.78c-.965,0-1.948.563-1.955,1.436h-1.562c.168-1.721,1.729-2.653,3.61-2.686m-2.242,6.514a1.565,1.565,0,0,0,1.738,1.553,2.651,2.651,0,0,0,2.333-1.36v-1.864h-1.217c-1.905,0-2.854.553-2.854,1.67" transform="translate(-23.663 -7.813)" fill="#333"/>
      <path id="Trazado_722463" data-name="Trazado 722463" d="M729.734,245.166h5.314v1.268h-7.211v-1.142l5.012-6.656h-4.937V237.35H734.8v1.1" transform="translate(-23.976 -7.819)" fill="#333"/>
      <path id="Trazado_722464" data-name="Trazado 722464" d="M737.017,249.114l-.881-.6c.814-1.108.881-2.007.822-3.668h1.519a5.746,5.746,0,0,1-.42,2.913,4.127,4.127,0,0,1-1.041,1.36" transform="translate(-24.249 -8.065)" fill="#333"/>
      <path id="Trazado_722465" data-name="Trazado 722465" d="M748.7,246.6c-2.568.049-4.222-2.074-4.138-4.793.084-2.686,1.469-4.576,4.122-4.625,2.586-.044,4.222,2.073,4.147,4.81-.075,2.7-1.469,4.558-4.13,4.608m-.016-8.144c-1.747,0-2.561,1.554-2.561,3.536,0,1.813.891,3.339,2.577,3.339,1.772,0,2.577-1.56,2.577-3.524,0-1.8-.915-3.351-2.594-3.351" transform="translate(-24.527 -7.813)" fill="#333"/>
      <path id="Trazado_722466" data-name="Trazado 722466" d="M759.258,237.177c2.443,0,3.542,2.107,3.542,4.81,0,2.493-1.184,4.6-3.517,4.609a3.342,3.342,0,0,1-2.6-1.049v4.373h-1.553V237.345h1.419l.075,1.007a3.2,3.2,0,0,1,2.636-1.175m-.445,8.151c1.738,0,2.434-1.511,2.434-3.517,0-1.831-.772-3.316-2.451-3.316a2.288,2.288,0,0,0-2.116,1.25v4.34a2.279,2.279,0,0,0,2.132,1.243" transform="translate(-24.875 -7.813)" fill="#333"/>
      <path id="Trazado_722467" data-name="Trazado 722467" d="M768.815,246.6c-2.568.049-4.222-2.074-4.138-4.793.084-2.686,1.469-4.576,4.122-4.625,2.586-.044,4.222,2.073,4.147,4.81-.075,2.7-1.469,4.558-4.13,4.608m-.016-8.144c-1.747,0-2.561,1.554-2.561,3.536,0,1.813.891,3.339,2.577,3.339,1.772,0,2.577-1.56,2.577-3.524,0-1.8-.915-3.351-2.594-3.351" transform="translate(-25.189 -7.813)" fill="#333"/>
      <path id="Trazado_722468" data-name="Trazado 722468" d="M779.631,238.739c-1.368-.226-2.418.151-2.837,1.243v6.446h-1.553v-9.083h1.512l.025,1.049a2.418,2.418,0,0,1,2.165-1.218,1.639,1.639,0,0,1,.689.118Z" transform="translate(-25.537 -7.813)" fill="#333"/>
      <path id="Trazado_722469" data-name="Trazado 722469" d="M784.306,246.527c-1.435,0-2.107-.94-2.1-2.418v-5.633h-1.654v-1.2h1.654v-2.2h1.553v2.2h1.7v1.2h-1.7v5.633c-.075,1.049.772,1.25,1.738.99v1.259a4.639,4.639,0,0,1-1.192.168" transform="translate(-25.712 -7.744)" fill="#333"/>
      <path id="Trazado_722470" data-name="Trazado 722470" d="M790.443,246.6c-2.023-.009-2.98-1.243-2.98-3.341v-5.91h1.553v5.868c0,1.376.563,2.065,1.679,2.065a2.334,2.334,0,0,0,2.367-1.326v-6.607h1.553v9.083h-1.478l-.033-.9a3.3,3.3,0,0,1-2.661,1.066" transform="translate(-25.94 -7.819)" fill="#333"/>
      <path id="Trazado_722471" data-name="Trazado 722471" d="M801.068,238.5a2.432,2.432,0,0,0-2.216,1.46v6.473H797.3v-9.083h1.47l.05,1.141a3.319,3.319,0,0,1,2.719-1.309c1.922,0,2.905,1.083,2.905,3.249v6H802.89v-6.01c-.017-1.284-.546-1.923-1.822-1.923" transform="translate(-26.264 -7.813)" fill="#333"/>
      <path id="Trazado_722472" data-name="Trazado 722472" d="M810.634,237.177c2-.034,3.382,1.058,3.382,2.947V244.3a5.161,5.161,0,0,0,.32,1.989v.134h-1.63a3.233,3.233,0,0,1-.219-.957A3.476,3.476,0,0,1,809.9,246.6a2.819,2.819,0,0,1-3.063-2.686c.033-2.107,1.8-3.014,4.113-2.989h1.511v-.713a1.7,1.7,0,0,0-1.922-1.78c-.965,0-1.949.563-1.956,1.436h-1.562c.168-1.721,1.73-2.653,3.611-2.686m-2.242,6.514a1.564,1.564,0,0,0,1.738,1.553,2.651,2.651,0,0,0,2.333-1.36v-1.864h-1.217c-1.906,0-2.854.553-2.854,1.67" transform="translate(-26.578 -7.813)" fill="#333"/>
      <path id="Trazado_722473" data-name="Trazado 722473" d="M824.117,244.159l2.116-6.808h1.661l-3.652,10.485c-.7,1.8-1.763,2.577-3.568,2.132v-1.259c1.4.134,2.032-.31,2.376-1.453l.343-.924-3.24-8.982h1.7" transform="translate(-27.017 -7.819)" fill="#333"/>
      <path id="Trazado_722474" data-name="Trazado 722474" d="M835.127,241.769c0,2.048.646,3.526,2.493,3.56a2.073,2.073,0,0,0,2.141-1.763h1.469a3.437,3.437,0,0,1-3.61,3.03c-2.653,0-4.138-2.031-4.046-4.886.093-2.678,1.377-4.474,4.037-4.533a3.413,3.413,0,0,1,3.619,3.291h-1.469a2.113,2.113,0,0,0-2.15-2.015c-1.754.034-2.484,1.394-2.484,3.316" transform="translate(-27.459 -7.813)" fill="#333"/>
      <path id="Trazado_722475" data-name="Trazado 722475" d="M847.01,246.6c-2.569.049-4.222-2.074-4.138-4.793.084-2.686,1.469-4.576,4.122-4.625,2.586-.044,4.222,2.073,4.147,4.81-.075,2.7-1.469,4.558-4.13,4.608m-.016-8.144c-1.746,0-2.561,1.554-2.561,3.536,0,1.813.891,3.339,2.577,3.339,1.772,0,2.577-1.56,2.577-3.524,0-1.8-.915-3.351-2.594-3.351" transform="translate(-27.765 -7.813)" fill="#333"/>
      <path id="Trazado_722476" data-name="Trazado 722476" d="M857.2,238.5a2.432,2.432,0,0,0-2.216,1.46v6.473h-1.553v-9.083h1.47l.05,1.141a3.318,3.318,0,0,1,2.719-1.309c1.923,0,2.905,1.083,2.905,3.249v6h-1.553v-6.01c-.017-1.284-.546-1.923-1.822-1.923" transform="translate(-28.113 -7.813)" fill="#333"/>
      <path id="Trazado_722477" data-name="Trazado 722477" d="M867.957,234.629c-1.377-.319-2.493.235-2.418,1.629v.957h1.939v1.2h-1.939V246.3h-1.553v-7.882h-1.435v-1.2h1.435v-.932c-.1-2.3,1.747-3.492,4.055-2.913" transform="translate(-28.413 -7.683)" fill="#333"/>
      <path id="Trazado_722478" data-name="Trazado 722478" d="M871.1,246.321h-1.553v-9.083H871.1Zm-.763-10.611a.843.843,0,0,1-.916-.881.919.919,0,0,1,1.838,0,.845.845,0,0,1-.923.881" transform="translate(-28.64 -7.706)" fill="#333"/>
      <path id="Trazado_722479" data-name="Trazado 722479" d="M876.907,246.472c-2.317,0-3.567-2.242-3.567-4.785,0-2.5,1.268-4.617,3.585-4.634a3.137,3.137,0,0,1,2.527,1.092V233.41H881V246.3h-1.426l-.075-.974a3.157,3.157,0,0,1-2.595,1.142m.4-8.1c-1.763,0-2.418,1.485-2.418,3.492,0,1.83.73,3.291,2.4,3.291a2.273,2.273,0,0,0,2.157-1.327v-4.172a2.279,2.279,0,0,0-2.141-1.284" transform="translate(-28.769 -7.689)" fill="#333"/>
      <path id="Trazado_722480" data-name="Trazado 722480" d="M887.6,245.328a2.844,2.844,0,0,0,2.393-1.225l.949.739a3.824,3.824,0,0,1-3.424,1.754c-2.586.009-4.164-1.964-4.164-4.742a4.647,4.647,0,0,1,1.956-4.071,3.629,3.629,0,0,1,2.014-.6c2.518.016,3.77,1.83,3.736,4.507v.646H884.9a2.78,2.78,0,0,0,2.694,3m1.906-4.272c-.025-1.511-.739-2.6-2.183-2.6-1.427,0-2.216,1.175-2.367,2.6h4.55" transform="translate(-29.099 -7.813)" fill="#333"/>
      <path id="Trazado_722481" data-name="Trazado 722481" d="M896.945,238.5a2.432,2.432,0,0,0-2.216,1.46v6.473h-1.553v-9.083h1.47l.05,1.141a3.318,3.318,0,0,1,2.719-1.309c1.922,0,2.905,1.083,2.905,3.249v6h-1.553v-6.01c-.017-1.284-.546-1.923-1.822-1.923" transform="translate(-29.422 -7.813)" fill="#333"/>
      <path id="Trazado_722482" data-name="Trazado 722482" d="M904.121,241.769c0,2.048.646,3.526,2.493,3.56a2.074,2.074,0,0,0,2.141-1.763h1.469a3.436,3.436,0,0,1-3.61,3.03c-2.653,0-4.138-2.031-4.046-4.886.093-2.678,1.377-4.474,4.037-4.533a3.413,3.413,0,0,1,3.619,3.291h-1.469a2.113,2.113,0,0,0-2.15-2.015c-1.754.034-2.484,1.394-2.484,3.316" transform="translate(-29.732 -7.813)" fill="#333"/>
      <path id="Trazado_722483" data-name="Trazado 722483" d="M913.978,246.321h-1.553v-9.083h1.553Zm-.764-10.611a.842.842,0,0,1-.915-.881.919.919,0,0,1,1.838,0,.845.845,0,0,1-.924.881" transform="translate(-30.052 -7.706)" fill="#333"/>
      <path id="Trazado_722484" data-name="Trazado 722484" d="M920.13,237.177c2-.034,3.383,1.058,3.383,2.947V244.3a5.183,5.183,0,0,0,.319,1.989v.134H922.2a3.2,3.2,0,0,1-.219-.957A3.477,3.477,0,0,1,919.4,246.6a2.82,2.82,0,0,1-3.064-2.686c.034-2.107,1.8-3.014,4.114-2.989h1.511v-.713a1.7,1.7,0,0,0-1.922-1.78c-.965,0-1.948.563-1.955,1.436H916.52c.168-1.721,1.729-2.653,3.61-2.686m-2.242,6.514a1.565,1.565,0,0,0,1.738,1.553,2.651,2.651,0,0,0,2.334-1.36v-1.864h-1.218c-1.905,0-2.854.553-2.854,1.67" transform="translate(-30.185 -7.813)" fill="#333"/>
      <rect id="Rectángulo_351525" data-name="Rectángulo 351525" width="1.553" height="12.894" transform="translate(895.896 225.721)" fill="#333"/>
      <path id="Trazado_722485" data-name="Trazado 722485" d="M433.2,32.16l-4.11.261-10,1.064-9.506,1.393-9.158,1.741-8.916,2.1-8.771,2.447-8.733,2.843-8.849,3.288-9.11,3.839-9.6,4.526-10.473,5.483-12.03,6.963L308.45,77.97l-95.207,65.47-17.31,10.028-16.227,8.471-4.835,2.36" transform="translate(-5.76 -1.059)" fill="none" stroke="#5e5e5e" stroke-linejoin="round" stroke-width="2"/>
      <path id="Trazado_722486" data-name="Trazado 722486" d="M456.785,31.484l-13.636,4.971L442.84,27.5Z" transform="translate(-14.588 -0.906)" fill="#5e5e5e"/>
      <path id="Trazado_722487" data-name="Trazado 722487" d="M456.785,31.484l-13.636,4.971L442.84,27.5Z" transform="translate(-14.588 -0.906)" fill="none" stroke="#5e5e5e" stroke-width="2"/>
      <line id="Línea_432" data-name="Línea 432" x1="0.89" y2="0.426" transform="translate(168.21 163.24)" fill="none" stroke="#5e5e5e" stroke-width="2"/>
      <path id="Trazado_722488" data-name="Trazado 722488" d="M434.837,102.1l-6.557.416-11.082,1.16-10.638,1.576-10.444,1.992L385.623,109.7l-10.86,3.046-11.8,3.849-13.9,5.174-20.5,8.675L257,162.261l-20.144,7.495-12.311,4.091" transform="translate(-7.397 -3.363)" fill="none" stroke="#5e5e5e" stroke-linejoin="round" stroke-width="2"/>
      <path id="Trazado_722489" data-name="Trazado 722489" d="M456.786,101.463l-13.636,4.932-.29-8.955Z" transform="translate(-14.588 -3.21)" fill="#5e5e5e"/>
      <path id="Trazado_722490" data-name="Trazado 722490" d="M456.786,101.463l-13.636,4.932-.29-8.955Z" transform="translate(-14.588 -3.21)" fill="none" stroke="#5e5e5e" stroke-width="2"/>
      <line id="Línea_433" data-name="Línea 433" x1="0.938" y2="0.319" transform="translate(216.225 170.463)" fill="none" stroke="#5e5e5e" stroke-width="2"/>
      <path id="Trazado_722491" data-name="Trazado 722491" d="M435.383,172l-10.5.677-12.8,1.335-12.446,1.837-12.572,2.418L373.6,181.419l-15.908,4.448-27.242,8.965-61.457,20.821-23.983,6.711-3.888.967" transform="translate(-7.943 -5.666)" fill="none" stroke="#5e5e5e" stroke-linejoin="round" stroke-width="2"/>
      <path id="Trazado_722492" data-name="Trazado 722492" d="M456.786,171.46l-13.665,4.855-.251-8.965Z" transform="translate(-14.589 -5.513)" fill="#5e5e5e"/>
      <path id="Trazado_722493" data-name="Trazado 722493" d="M456.786,171.46l-13.665,4.855-.251-8.965Z" transform="translate(-14.589 -5.513)" fill="none" stroke="#5e5e5e" stroke-width="2"/>
      <line id="Línea_434" data-name="Línea 434" x1="0.967" y2="0.242" transform="translate(232.22 217.666)" fill="none" stroke="#5e5e5e" stroke-width="2"/>
      <path id="Trazado_722494" data-name="Trazado 722494" d="M433.777,241.88l-3.7.077-19.68,1.228-18.713,1.973-18.742,2.766-20.279,3.868-26.111,6.17-120.786,31.7L192.37,292.37" transform="translate(-6.337 -7.968)" fill="none" stroke="#5e5e5e" stroke-linejoin="round" stroke-width="2"/>
      <path id="Trazado_722495" data-name="Trazado 722495" d="M456.787,241.427l-13.694,4.768-.193-8.965Z" transform="translate(-14.59 -7.815)" fill="#5e5e5e"/>
      <path id="Trazado_722496" data-name="Trazado 722496" d="M456.787,241.427l-13.694,4.768-.193-8.965Z" transform="translate(-14.59 -7.815)" fill="none" stroke="#5e5e5e" stroke-width="2"/>
      <line id="Línea_435" data-name="Línea 435" x1="0.967" y2="0.193" transform="translate(185.095 284.393)" fill="none" stroke="#5e5e5e" stroke-width="2"/>
      <path id="Trazado_722497" data-name="Trazado 722497" d="M433.657,309.04l-36.12.735L343.924,313.2,188.73,327.588" transform="translate(-6.217 -10.18)" fill="none" stroke="#5e5e5e" stroke-linejoin="round" stroke-width="2"/>
      <path id="Trazado_722498" data-name="Trazado 722498" d="M456.787,308.587l-13.7,4.768-.193-8.965Z" transform="translate(-14.589 -10.027)" fill="#5e5e5e"/>
      <path id="Trazado_722499" data-name="Trazado 722499" d="M456.787,308.587l-13.7,4.768-.193-8.965Z" transform="translate(-14.589 -10.027)" fill="none" stroke="#5e5e5e" stroke-width="2"/>
      <line id="Línea_436" data-name="Línea 436" x1="0.986" y2="0.097" transform="translate(181.546 317.389)" fill="none" stroke="#5e5e5e" stroke-width="2"/>
    </g>
  </g>
</svg>
