<svg xmlns="http://www.w3.org/2000/svg" xmlns:xlink="http://www.w3.org/1999/xlink" width="295" height="370" viewBox="0 0 295 370">
  <defs>
    <clipPath id="clip-path">
      <rect id="Rectángulo_351110" data-name="Rectángulo 351110" width="294.443" height="369.701" fill="none"/>
    </clipPath>
    <clipPath id="clip-path-3">
      <rect id="Rectángulo_351089" data-name="Rectángulo 351089" width="152.69" height="48.663" transform="translate(63.604 219.302)" fill="none"/>
    </clipPath>
    <clipPath id="clip-path-4">
      <rect id="Rectángulo_351090" data-name="Rectángulo 351090" width="3.913" height="15.333" transform="translate(184.16 16.104)" fill="none"/>
    </clipPath>
    <clipPath id="clip-path-5">
      <rect id="Rectángulo_351102" data-name="Rectángulo 351102" width="11.735" height="24.994" transform="translate(104.281 282.595)" fill="none"/>
    </clipPath>
    <clipPath id="clip-path-6">
      <rect id="Rectángulo_351103" data-name="Rectángulo 351103" width="21.934" height="13.726" transform="translate(86.838 317.31)" fill="none"/>
    </clipPath>
    <clipPath id="clip-path-7">
      <rect id="Rectángulo_351108" data-name="Rectángulo 351108" width="7.841" height="19.446" transform="translate(46.03 236.088)" fill="none"/>
    </clipPath>
  </defs>
  <g id="Grupo_1008332" data-name="Grupo 1008332" transform="translate(-179.667 -1523)">
    <rect id="Rectángulo_350922" data-name="Rectángulo 350922" width="295" height="370" rx="15" transform="translate(179.667 1523)" fill="none"/>
    <g id="Grupo_1008331" data-name="Grupo 1008331" transform="translate(179.667 1523)">
      <g id="Grupo_1008330" data-name="Grupo 1008330" clip-path="url(#clip-path)">
        <rect id="Rectángulo_351053" data-name="Rectángulo 351053" width="46.513" height="41.613" transform="translate(243.863 86.56)" fill="#fafafa"/>
        <g id="Grupo_1008329" data-name="Grupo 1008329">
          <g id="Grupo_1008328" data-name="Grupo 1008328" clip-path="url(#clip-path)">
            <path id="Trazado_720601" data-name="Trazado 720601" d="M290.376,128.173s-.008-.267-.012-.772-.007-1.258-.012-2.23c-.006-1.954-.015-4.81-.027-8.447-.013-7.271-.032-17.66-.054-30.164l.105.105-46.509.019h0l.124-.124c-.005,15.139-.01,29.385-.015,41.613l-.109-.11,33.641.056,9.489.029,2.512.012.648.007c.146,0,.223.006.223.006s-.069,0-.211.006l-.636.006-2.49.013-9.464.029-33.712.055h-.11v-.11c0-12.228-.009-26.474-.015-41.613v-.125h.129l46.509.019h.106v.106c-.022,12.531-.041,22.944-.054,30.231-.012,3.627-.021,6.475-.027,8.423-.005.964-.009,1.7-.012,2.209s-.012.75-.012.75" fill="#e1e1e1"/>
            <path id="Trazado_720602" data-name="Trazado 720602" d="M261.7,93.953c0,.069-2.448.124-5.467.124s-5.469-.055-5.469-.124,2.448-.124,5.469-.124,5.467.055,5.467.124" fill="#e1e1e1"/>
            <path id="Trazado_720603" data-name="Trazado 720603" d="M281.406,97.078c0,.069-6.726.124-15.021.124s-15.022-.055-15.022-.124,6.724-.124,15.022-.124,15.021.055,15.021.124" fill="#e1e1e1"/>
            <rect id="Rectángulo_351054" data-name="Rectángulo 351054" width="1.96" height="1.96" transform="translate(250.842 102.37)" fill="#e1e1e1"/>
            <rect id="Rectángulo_351055" data-name="Rectángulo 351055" width="1.96" height="1.96" transform="translate(255.666 102.37)" fill="#e1e1e1"/>
            <rect id="Rectángulo_351056" data-name="Rectángulo 351056" width="1.96" height="1.96" transform="translate(260.578 102.281)" fill="#e1e1e1"/>
            <rect id="Rectángulo_351057" data-name="Rectángulo 351057" width="1.96" height="1.96" transform="translate(265.313 102.37)" fill="#e1e1e1"/>
            <rect id="Rectángulo_351058" data-name="Rectángulo 351058" width="1.96" height="1.96" transform="translate(270.137 102.37)" fill="#e1e1e1"/>
            <rect id="Rectángulo_351059" data-name="Rectángulo 351059" width="1.96" height="1.96" transform="translate(274.96 102.37)" fill="#e1e1e1"/>
            <rect id="Rectángulo_351060" data-name="Rectángulo 351060" width="1.96" height="1.96" transform="translate(279.784 102.37)" fill="#ececec"/>
            <rect id="Rectángulo_351061" data-name="Rectángulo 351061" width="1.96" height="1.96" transform="translate(250.842 106.536)" fill="#ececec"/>
            <rect id="Rectángulo_351062" data-name="Rectángulo 351062" width="1.96" height="1.96" transform="translate(255.666 106.536)" fill="#e1e1e1"/>
            <rect id="Rectángulo_351063" data-name="Rectángulo 351063" width="1.96" height="1.96" transform="translate(260.489 106.536)" fill="#ececec"/>
            <rect id="Rectángulo_351064" data-name="Rectángulo 351064" width="1.96" height="1.96" transform="translate(265.313 106.536)" fill="#e1e1e1"/>
            <rect id="Rectángulo_351065" data-name="Rectángulo 351065" width="1.96" height="1.96" transform="translate(270.137 106.536)" fill="#e1e1e1"/>
            <rect id="Rectángulo_351066" data-name="Rectángulo 351066" width="1.96" height="1.96" transform="translate(275.049 106.447)" fill="#e1e1e1"/>
            <rect id="Rectángulo_351067" data-name="Rectángulo 351067" width="1.96" height="1.96" transform="translate(279.784 106.536)" fill="#e1e1e1"/>
            <rect id="Rectángulo_351068" data-name="Rectángulo 351068" width="1.96" height="1.96" transform="translate(250.842 110.702)" fill="#e1e1e1"/>
            <rect id="Rectángulo_351069" data-name="Rectángulo 351069" width="1.96" height="1.96" transform="translate(255.755 110.613)" fill="#e1e1e1"/>
            <rect id="Rectángulo_351070" data-name="Rectángulo 351070" width="1.96" height="1.96" transform="translate(260.489 110.702)" fill="#e1e1e1"/>
            <rect id="Rectángulo_351071" data-name="Rectángulo 351071" width="1.96" height="1.96" transform="translate(265.313 110.702)" fill="#ececec"/>
            <rect id="Rectángulo_351072" data-name="Rectángulo 351072" width="1.96" height="1.96" transform="translate(270.137 110.702)" fill="#e1e1e1"/>
            <rect id="Rectángulo_351073" data-name="Rectángulo 351073" width="1.96" height="1.96" transform="translate(274.96 110.702)" fill="#e1e1e1"/>
            <rect id="Rectángulo_351074" data-name="Rectángulo 351074" width="1.96" height="1.96" transform="translate(279.784 110.702)" fill="#e1e1e1"/>
            <rect id="Rectángulo_351075" data-name="Rectángulo 351075" width="1.96" height="1.96" transform="translate(250.842 114.868)" fill="#e1e1e1"/>
            <rect id="Rectángulo_351076" data-name="Rectángulo 351076" width="1.96" height="1.96" transform="translate(255.666 114.868)" fill="#e1e1e1"/>
            <rect id="Rectángulo_351077" data-name="Rectángulo 351077" width="1.96" height="1.96" transform="translate(260.489 114.868)" fill="#e1e1e1"/>
            <rect id="Rectángulo_351078" data-name="Rectángulo 351078" width="1.96" height="1.96" transform="translate(265.402 114.779)" fill="#e1e1e1"/>
            <rect id="Rectángulo_351079" data-name="Rectángulo 351079" width="1.96" height="1.96" transform="translate(270.137 114.868)" fill="#e1e1e1"/>
            <rect id="Rectángulo_351080" data-name="Rectángulo 351080" width="1.96" height="1.96" transform="translate(274.96 114.868)" fill="#ececec"/>
            <rect id="Rectángulo_351081" data-name="Rectángulo 351081" width="1.96" height="1.96" transform="translate(279.784 114.868)" fill="#e1e1e1"/>
            <rect id="Rectángulo_351082" data-name="Rectángulo 351082" width="1.96" height="1.96" transform="translate(250.842 119.034)" fill="#e1e1e1"/>
            <rect id="Rectángulo_351083" data-name="Rectángulo 351083" width="1.96" height="1.96" transform="translate(255.666 119.034)" fill="#ececec"/>
            <rect id="Rectángulo_351084" data-name="Rectángulo 351084" width="1.96" height="1.96" transform="translate(260.489 119.034)" fill="#e1e1e1"/>
            <rect id="Rectángulo_351085" data-name="Rectángulo 351085" width="1.96" height="1.96" transform="translate(265.313 119.034)" fill="#e1e1e1"/>
            <rect id="Rectángulo_351086" data-name="Rectángulo 351086" width="1.96" height="1.96" transform="translate(270.137 119.034)" fill="#e1e1e1"/>
            <rect id="Rectángulo_351087" data-name="Rectángulo 351087" width="1.96" height="1.96" transform="translate(275.049 118.945)" fill="#e1e1e1"/>
            <rect id="Rectángulo_351088" data-name="Rectángulo 351088" width="1.96" height="1.96" transform="translate(279.784 119.034)" fill="#e1e1e1"/>
            <path id="Trazado_720604" data-name="Trazado 720604" d="M286.668,52.874a24.13,24.13,0,1,1-24.13-24.13,24.13,24.13,0,0,1,24.13,24.13" fill="#e1e1e1"/>
            <path id="Trazado_720605" data-name="Trazado 720605" d="M284.627,52.631A21.837,21.837,0,1,1,262.79,30.794a21.837,21.837,0,0,1,21.837,21.837" fill="#fff"/>
            <path id="Trazado_720606" data-name="Trazado 720606" d="M240.732,51.321s.007.121.007.357,0,.591,0,1.045q0,.345-.005.769c.01.283.05.591.077.925s.064.694.1,1.078a11.693,11.693,0,0,0,.207,1.214,20.918,20.918,0,0,0,2.043,5.978,21.837,21.837,0,0,0,5.146,6.56l.9.765c.317.24.653.462.984.7s.658.49,1.025.686l1.1.618.558.311.591.26,1.2.529c.408.165.838.283,1.262.428a10.953,10.953,0,0,0,1.3.386,20.481,20.481,0,0,0,2.738.5c.469.047.94.124,1.418.148l1.448.02c.243,0,.488.017.732,0l.735-.064c.49-.049.988-.073,1.483-.142a23.152,23.152,0,0,0,2.963-.662l.741-.218c.124-.037.249-.07.371-.112l.361-.146,1.453-.587c.477-.219.938-.481,1.411-.722.233-.128.479-.234.7-.381l.674-.439a24.7,24.7,0,0,0,2.611-1.939l1.188-1.148.3-.289.272-.314.543-.636.546-.637.486-.689.485-.693.244-.348c.074-.12.141-.246.211-.369l.842-1.488q.346-.786.7-1.576a23.324,23.324,0,0,0,1.577-6.8,23.357,23.357,0,0,0-.672-6.954q-.244-.83-.485-1.653-.321-.8-.64-1.587l-.161-.394-.2-.376-.391-.751-.392-.747-.457-.7-.456-.7-.228-.348-.259-.326-1.028-1.293a24.548,24.548,0,0,0-2.336-2.265l-.61-.523c-.2-.175-.432-.313-.646-.47-.438-.3-.861-.62-1.3-.9l-1.364-.773-.339-.191c-.116-.058-.236-.107-.353-.16l-.706-.313a23.176,23.176,0,0,0-2.852-1.044c-.482-.133-.972-.222-1.452-.334l-.72-.16c-.24-.048-.485-.062-.726-.095l-1.439-.169c-.477-.039-.954-.024-1.425-.039a20.431,20.431,0,0,0-2.78.139,11.028,11.028,0,0,0-1.34.212c-.439.09-.882.15-1.308.26l-1.257.367-.62.181-.594.236-1.169.469c-.389.147-.739.369-1.105.546s-.722.366-1.067.562l-.99.641a21.843,21.843,0,0,0-5.959,5.832,20.936,20.936,0,0,0-2.807,5.659,11.789,11.789,0,0,0-.364,1.176q-.127.565-.239,1.056c-.07.328-.15.628-.2.907s-.067.535-.1.763q-.087.675-.133,1.036c-.032.234-.054.353-.054.353s.006-.12.029-.355.061-.588.109-1.04c.025-.23.053-.485.083-.767s.12-.582.187-.912.147-.683.229-1.062A11.742,11.742,0,0,1,241.723,46a20.853,20.853,0,0,1,2.785-5.707,21.9,21.9,0,0,1,5.976-5.9l1-.65c.348-.2.712-.378,1.074-.571s.72-.4,1.113-.554l1.177-.476.6-.24.625-.184,1.268-.374c.43-.112.876-.174,1.319-.266a11.233,11.233,0,0,1,1.352-.217,20.464,20.464,0,0,1,2.8-.146c.476.013.958,0,1.44.035l1.453.168c.243.033.49.047.733.1l.727.159c.485.113.98.2,1.467.336a23.259,23.259,0,0,1,2.883,1.05l.714.315c.119.054.24.1.357.161l.343.193,1.379.779c.45.282.877.6,1.32.908.216.159.449.3.654.474l.617.528a24.7,24.7,0,0,1,2.363,2.287l1.04,1.306.262.329.231.352.461.708.463.711.4.754.4.759.2.381.163.4q.322.8.647,1.6.246.833.492,1.672a23.6,23.6,0,0,1,.681,7.031,23.573,23.573,0,0,1-1.6,6.879l-.706,1.592-.851,1.506c-.072.124-.139.251-.214.372l-.247.352-.491.7-.492.7-.552.645-.549.641-.276.318-.3.292-1.2,1.159a24.941,24.941,0,0,1-2.641,1.957l-.681.443c-.226.148-.475.255-.71.384-.479.243-.945.507-1.427.728l-1.469.591-.365.147c-.124.042-.25.075-.375.113l-.749.219a23.289,23.289,0,0,1-2.995.664c-.5.069-1,.093-1.5.141l-.742.063c-.247.016-.494,0-.739,0l-1.463-.024c-.482-.025-.957-.1-1.431-.152a20.5,20.5,0,0,1-2.762-.512,11.092,11.092,0,0,1-1.312-.392c-.427-.148-.862-.268-1.273-.436l-1.208-.536-.595-.265-.562-.315-1.1-.627c-.369-.2-.689-.468-1.031-.694s-.671-.464-.99-.706l-.9-.775a21.9,21.9,0,0,1-5.155-6.628,20.854,20.854,0,0,1-2.015-6.023,11.664,11.664,0,0,1-.2-1.221q-.048-.579-.088-1.083c-.024-.335-.059-.645-.066-.928s.012-.541.017-.771c.012-.455.022-.8.028-1.046s.018-.356.018-.356" fill="#ececec"/>
            <path id="Trazado_720607" data-name="Trazado 720607" d="M272.737,53.229a4.5,4.5,0,0,1-.776.052l-2.135.043c-1.812.025-4.336.043-7.185.047H262.5v-.142c0-.456,0-.936,0-1.423,0-3.184.016-6.064.042-8.148.018-1.006.033-1.838.045-2.469a5.488,5.488,0,0,1,.055-.9,5.485,5.485,0,0,1,.055.9c.012.631.027,1.463.045,2.469.026,2.084.042,4.964.042,8.148,0,.487,0,.967,0,1.423l-.141-.14c2.849,0,5.373.02,7.185.046.869.017,1.586.033,2.135.043a4.719,4.719,0,0,1,.776.051" fill="#e1e1e1"/>
            <path id="Trazado_720608" data-name="Trazado 720608" d="M262.708,34.195a6.1,6.1,0,0,1,.142,1.845,6.09,6.09,0,0,1-.142,1.845,6.127,6.127,0,0,1-.142-1.845,6.138,6.138,0,0,1,.142-1.845" fill="#e1e1e1"/>
            <path id="Trazado_720609" data-name="Trazado 720609" d="M272.717,37.159a5.927,5.927,0,0,1-1.185,1.387,5.948,5.948,0,0,1-1.387,1.185,5.924,5.924,0,0,1,1.186-1.386,5.953,5.953,0,0,1,1.386-1.186" fill="#e1e1e1"/>
            <path id="Trazado_720610" data-name="Trazado 720610" d="M278.569,43.552a7.613,7.613,0,0,1-1.514,1.01,7.657,7.657,0,0,1-1.594.879,8.082,8.082,0,0,1,3.108-1.889" fill="#e1e1e1"/>
            <path id="Trazado_720611" data-name="Trazado 720611" d="M282,53.039a22.361,22.361,0,0,1-5.032,0,22.36,22.36,0,0,1,5.032,0" fill="#e1e1e1"/>
            <path id="Trazado_720612" data-name="Trazado 720612" d="M247.108,52.7a19.957,19.957,0,0,1-4.753,0,19.958,19.958,0,0,1,4.753,0" fill="#e1e1e1"/>
            <path id="Trazado_720613" data-name="Trazado 720613" d="M249.576,59.766a10.461,10.461,0,0,1-1.8,1.629A10.373,10.373,0,0,1,245.8,62.8a10.571,10.571,0,0,1,1.8-1.629,10.448,10.448,0,0,1,1.975-1.407" fill="#e1e1e1"/>
            <path id="Trazado_720614" data-name="Trazado 720614" d="M255.663,65.228a16.193,16.193,0,0,1-1.222,2.118,16.21,16.21,0,0,1-1.3,2.074A7.962,7.962,0,0,1,254.2,67.2a7.964,7.964,0,0,1,1.466-1.972" fill="#e1e1e1"/>
            <path id="Trazado_720615" data-name="Trazado 720615" d="M262.708,72.273a11.29,11.29,0,0,1-.142-2.515,11.3,11.3,0,0,1,.142-2.516,11.226,11.226,0,0,1,.142,2.516,11.221,11.221,0,0,1-.142,2.515" fill="#e1e1e1"/>
            <path id="Trazado_720616" data-name="Trazado 720616" d="M273.554,68.921a10.837,10.837,0,0,1-3.765-3.282,23.123,23.123,0,0,1,1.877,1.647,23.07,23.07,0,0,1,1.888,1.635" fill="#e1e1e1"/>
            <path id="Trazado_720617" data-name="Trazado 720617" d="M278.644,63.439a8.713,8.713,0,0,1-1.666-1.465,8.738,8.738,0,0,1-1.465-1.666,8.738,8.738,0,0,1,1.666,1.465,8.826,8.826,0,0,1,1.465,1.666" fill="#e1e1e1"/>
            <path id="Trazado_720618" data-name="Trazado 720618" d="M249.344,45.938a6.729,6.729,0,0,1-1.47-1.269A6.735,6.735,0,0,1,246.6,43.2a6.735,6.735,0,0,1,1.471,1.27,6.729,6.729,0,0,1,1.269,1.47" fill="#e1e1e1"/>
            <path id="Trazado_720619" data-name="Trazado 720619" d="M255.626,39.32a6.457,6.457,0,0,1-1.445-1.238,6.473,6.473,0,0,1-1.245-1.44,6.507,6.507,0,0,1,1.445,1.238,6.473,6.473,0,0,1,1.245,1.44" fill="#e1e1e1"/>
            <path id="Trazado_720620" data-name="Trazado 720620" d="M243.237,52.846a21.835,21.835,0,0,1,20.539-21.8c-.43-.025-.862-.042-1.3-.042a21.837,21.837,0,0,0,0,43.674c.437,0,.869-.017,1.3-.042a21.835,21.835,0,0,1-20.539-21.795" fill="#f5f5f5"/>
            <path id="Trazado_720621" data-name="Trazado 720621" d="M294.443,369.271c0,.237-65.919.43-147.214.43C65.9,369.7,0,369.508,0,369.271s65.9-.43,147.229-.43c81.295,0,147.214.193,147.214.43" fill="#1a2e35"/>
            <path id="Trazado_720622" data-name="Trazado 720622" d="M222.311,273.8H55.081a7.35,7.35,0,0,1-7.35-7.35V22.926a7.35,7.35,0,0,1,7.35-7.35h167.23a7.35,7.35,0,0,1,7.35,7.35V266.449a7.35,7.35,0,0,1-7.35,7.35" fill="#e1e1e1"/>
            <path id="Trazado_720623" data-name="Trazado 720623" d="M222.311,273.8s.189-.016.563-.037a7.969,7.969,0,0,0,1.638-.318,7.587,7.587,0,0,0,2.4-1.3,7.378,7.378,0,0,0,2.206-3.04,6.974,6.974,0,0,0,.477-2.222c.042-.8.01-1.656.018-2.546q0-2.674-.008-5.846c0-4.226-.011-9.1-.017-14.59-.013-21.956-.032-53.723-.056-92.976-.006-19.627-.013-41.126-.021-64.205q0-17.31-.009-35.768,0-9.22,0-18.706-.006-4.739-.013-9.54a7.163,7.163,0,0,0-5.587-6.78,10.148,10.148,0,0,0-2.386-.182H204.253l-20.157,0-41.572,0-87.422,0a7.175,7.175,0,0,0-7.177,6.82c-.036,3.7-.01,7.427-.018,11.121q0,11.093,0,22.035,0,21.881,0,43.083c0,28.245-.007,55.49-.01,81.444s-.012,50.617-.017,73.7q0,4.328,0,8.58c.007,1.415-.017,2.836.014,4.228a7.146,7.146,0,0,0,1.305,3.84,7.3,7.3,0,0,0,3.14,2.514,7.72,7.72,0,0,0,1.955.5c.666.059,1.354.046,2.037.047l8.116,0,30.808.012,92.971.056,25.277.033,6.573.017c1.481.006,2.24.018,2.24.018s-.759.012-2.24.018l-6.573.018-25.277.033-92.971.055-30.808.012-8.116,0c-.682,0-1.365.014-2.067-.047a8.042,8.042,0,0,1-2.031-.518,7.566,7.566,0,0,1-3.264-2.61,7.414,7.414,0,0,1-1.359-3.99c-.032-1.416-.009-2.819-.017-4.24q0-4.252,0-8.58c0-23.081-.01-47.744-.016-73.7s-.007-53.2-.01-81.444q0-21.184,0-43.083V33.693c.008-3.7-.019-7.4.018-11.138A7.525,7.525,0,0,1,55.1,15.4l87.422,0,41.572,0,20.157,0h17.263a10.421,10.421,0,0,1,2.458.191,7.486,7.486,0,0,1,5.836,7.086q0,4.806.009,9.55,0,9.483,0,18.706-.006,18.44-.009,35.768c-.008,23.079-.015,44.578-.022,64.205-.023,39.253-.042,71.02-.056,92.976-.006,5.489-.011,10.364-.016,14.59q0,3.168-.008,5.846c-.011.893.019,1.74-.026,2.551a7.069,7.069,0,0,1-.491,2.243,7.424,7.424,0,0,1-2.238,3.055,7.563,7.563,0,0,1-2.427,1.3,7.691,7.691,0,0,1-1.648.3c-.375.016-.564.019-.564.019" fill="#1a2e35"/>
            <g id="Grupo_1008315" data-name="Grupo 1008315" opacity="0.3">
              <g id="Grupo_1008314" data-name="Grupo 1008314">
                <g id="Grupo_1008313" data-name="Grupo 1008313" clip-path="url(#clip-path-3)">
                  <path id="Trazado_720624" data-name="Trazado 720624" d="M63.6,267.965h152.69l-1.675-31.759V219.3L63.6,242.9Z"/>
                </g>
              </g>
            </g>
            <g id="Grupo_1008318" data-name="Grupo 1008318" opacity="0.3">
              <g id="Grupo_1008317" data-name="Grupo 1008317">
                <g id="Grupo_1008316" data-name="Grupo 1008316" clip-path="url(#clip-path-4)">
                  <path id="Trazado_720625" data-name="Trazado 720625" d="M184.6,16.1l3.47,10.291v5.042h-3.912Z"/>
                </g>
              </g>
            </g>
            <path id="Trazado_720626" data-name="Trazado 720626" d="M55.845,25.923v237.2h165.7V25.923Z" fill="#fff"/>
            <path id="Trazado_720627" data-name="Trazado 720627" d="M221.547,220.711s-.009-.307-.013-.912-.007-1.509-.012-2.695c-.005-2.381-.014-5.907-.024-10.5-.01-9.193-.025-22.655-.043-39.744-.016-34.186-.038-82.882-.064-140.937l.156.156-165.7.02.176-.176v.211c-.017,91.185-.032,174.457-.043,236.992l-.133-.132,90.463.058,24.667.036,6.424.018c1.448.007,2.19.02,2.19.02s-.742.013-2.19.019l-6.424.019-24.667.036-90.463.058h-.132v-.132c-.011-62.535-.027-145.807-.044-236.992v-.387h.176l165.7.02h.156v.156c-.026,58.055-.048,106.751-.064,140.937-.018,17.089-.033,30.551-.043,39.744-.011,4.593-.019,8.119-.024,10.5-.005,1.187-.01,2.087-.012,2.695s-.013.912-.013.912" fill="#1a2e35"/>
            <path id="Trazado_720628" data-name="Trazado 720628" d="M184.6,33.462h-83.84V14.18A5.034,5.034,0,0,1,105.8,9.146h73.772A5.034,5.034,0,0,1,184.6,14.18Z" fill="#1a2e35"/>
            <path id="Trazado_720629" data-name="Trazado 720629" d="M153.352,0H132.013l2.494,18.291h16.074Z" fill="#1a2e35"/>
            <path id="Trazado_720630" data-name="Trazado 720630" d="M179.217,9.145c0,.1-16.358.176-36.533.176s-36.536-.079-36.536-.176,16.355-.176,36.536-.176,36.533.079,36.533.176" fill="#375a64"/>
            <path id="Trazado_720631" data-name="Trazado 720631" d="M102.639,29.539c-.1,0-.176-3.44-.176-7.682s.079-7.683.176-7.683.176,3.439.176,7.683-.079,7.682-.176,7.682" fill="#375a64"/>
            <path id="Trazado_720632" data-name="Trazado 720632" d="M181.889,27.72a69.333,69.333,0,0,1-.176-6.975,69.333,69.333,0,0,1,.176-6.975,69.341,69.341,0,0,1,.176,6.975,69.341,69.341,0,0,1-.176,6.975" fill="#375a64"/>
            <path id="Trazado_720633" data-name="Trazado 720633" d="M177.845,30.955c0,.1-16.792.176-37.5.176s-37.5-.079-37.5-.176,16.788-.176,37.5-.176,37.5.079,37.5.176" fill="#375a64"/>
            <rect id="Rectángulo_351091" data-name="Rectángulo 351091" width="91.51" height="5.625" transform="translate(109.058 71.445)" fill="#e1e1e1"/>
            <rect id="Rectángulo_351092" data-name="Rectángulo 351092" width="41.515" height="5.586" transform="translate(109.058 82.936)" fill="#e1e1e1"/>
            <path id="Trazado_720634" data-name="Trazado 720634" d="M96.672,90.2H81.662a3.073,3.073,0,0,1-3.073-3.074V72.118a3.073,3.073,0,0,1,3.073-3.074h15.01a3.073,3.073,0,0,1,3.073,3.074V87.127A3.073,3.073,0,0,1,96.672,90.2" fill="#7e5ee3"/>
            <path id="Trazado_720635" data-name="Trazado 720635" d="M88.863,84.663l-5.927-4.58,1.6-2.068,3.975,3.071,5.652-6.5L96.134,76.3Z" fill="#fff"/>
            <rect id="Rectángulo_351093" data-name="Rectángulo 351093" width="91.51" height="5.625" transform="translate(109.058 106.273)" fill="#e1e1e1"/>
            <rect id="Rectángulo_351094" data-name="Rectángulo 351094" width="41.515" height="5.586" transform="translate(109.058 117.764)" fill="#e1e1e1"/>
            <path id="Trazado_720636" data-name="Trazado 720636" d="M96.672,125.028H81.662a3.073,3.073,0,0,1-3.073-3.074V106.945a3.073,3.073,0,0,1,3.073-3.074h15.01a3.073,3.073,0,0,1,3.073,3.074v15.009a3.073,3.073,0,0,1-3.073,3.074" fill="#7e5ee3"/>
            <path id="Trazado_720637" data-name="Trazado 720637" d="M88.863,119.49l-5.927-4.58,1.6-2.068,3.975,3.071,5.652-6.5,1.973,1.715Z" fill="#fff"/>
            <rect id="Rectángulo_351095" data-name="Rectángulo 351095" width="91.51" height="5.625" transform="translate(109.058 143.589)" fill="#e1e1e1"/>
            <rect id="Rectángulo_351096" data-name="Rectángulo 351096" width="41.515" height="5.586" transform="translate(109.058 155.079)" fill="#e1e1e1"/>
            <rect id="Rectángulo_351097" data-name="Rectángulo 351097" width="91.51" height="5.625" transform="translate(109.058 178.086)" fill="#e1e1e1"/>
            <rect id="Rectángulo_351098" data-name="Rectángulo 351098" width="41.515" height="5.586" transform="translate(109.058 189.577)" fill="#e1e1e1"/>
            <path id="Trazado_720638" data-name="Trazado 720638" d="M96.672,162.344H81.662a3.073,3.073,0,0,1-3.073-3.074V144.261a3.073,3.073,0,0,1,3.073-3.074h15.01a3.073,3.073,0,0,1,3.073,3.074V159.27a3.073,3.073,0,0,1-3.073,3.074" fill="#7e5ee3"/>
            <path id="Trazado_720639" data-name="Trazado 720639" d="M88.863,156.806l-5.927-4.58,1.6-2.068,3.975,3.071,5.652-6.5,1.973,1.715Z" fill="#fff"/>
            <path id="Trazado_720640" data-name="Trazado 720640" d="M96.974,198.182H81.36a3.134,3.134,0,0,1-3.13-3.131V179.438a3.134,3.134,0,0,1,3.13-3.131H96.974a3.134,3.134,0,0,1,3.131,3.131v15.613a3.134,3.134,0,0,1-3.131,3.131M81.36,177.025a2.416,2.416,0,0,0-2.413,2.413v15.613a2.417,2.417,0,0,0,2.413,2.414H96.974a2.416,2.416,0,0,0,2.413-2.414V179.438a2.416,2.416,0,0,0-2.413-2.413Z" fill="#7e5ee3"/>
            <rect id="Rectángulo_351099" data-name="Rectángulo 351099" width="91.51" height="5.625" transform="translate(109.058 217.548)" fill="#e1e1e1"/>
            <rect id="Rectángulo_351100" data-name="Rectángulo 351100" width="41.515" height="5.586" transform="translate(109.058 229.038)" fill="#e1e1e1"/>
            <path id="Trazado_720641" data-name="Trazado 720641" d="M96.974,237.644H81.36a3.134,3.134,0,0,1-3.13-3.131V218.9a3.134,3.134,0,0,1,3.13-3.131H96.974a3.134,3.134,0,0,1,3.131,3.131v15.613a3.134,3.134,0,0,1-3.131,3.131M81.36,216.487a2.416,2.416,0,0,0-2.413,2.413v15.613a2.417,2.417,0,0,0,2.413,2.414H96.974a2.416,2.416,0,0,0,2.413-2.414V218.9a2.416,2.416,0,0,0-2.413-2.413Z" fill="#7e5ee3"/>
            <rect id="Rectángulo_351101" data-name="Rectángulo 351101" width="91.237" height="7.811" transform="translate(98.044 49.665)" fill="#7e5ee3"/>
            <path id="Trazado_720642" data-name="Trazado 720642" d="M113.787,350.277s-2.747-18.882-2.518-29.868-.013-23.346-.013-23.346h1.265s-.857,21.807.076,34.958,3.388,18.256,3.388,18.256Z" fill="#1a2e35"/>
            <path id="Trazado_720643" data-name="Trazado 720643" d="M121.968,275.819a3.335,3.335,0,0,0-1.153-1.688,3.215,3.215,0,0,0-2.752.019c-3.824,1.353-7.213,8.482-8.759,12.232l5.077,17.106c9.163-8.5,10.75-19.653,7.587-27.669" fill="#375a64"/>
            <path id="Trazado_720644" data-name="Trazado 720644" d="M120.519,274.822a.956.956,0,0,1-.074.223l-.248.623c-.223.539-.535,1.322-.908,2.293-.748,1.942-1.7,4.658-2.552,7.718s-1.432,5.879-1.792,7.93c-.181,1.024-.317,1.856-.4,2.432-.044.269-.08.488-.108.662a.994.994,0,0,1-.052.229,1.035,1.035,0,0,1,.01-.234c.018-.176.041-.4.07-.668.061-.58.175-1.416.338-2.446a72.826,72.826,0,0,1,4.352-15.677c.392-.966.725-1.742.971-2.271l.285-.608a.96.96,0,0,1,.112-.206" fill="#1a2e35"/>
            <path id="Trazado_720645" data-name="Trazado 720645" d="M112.124,307.589a15.49,15.49,0,0,1-7.825-13.006c-.183-3.8.984-7.521,2.3-11.084a1.432,1.432,0,0,1,.538-.8,1.365,1.365,0,0,1,1.3.2c3.458,1.969,5.553,5.723,6.667,9.543a19.256,19.256,0,0,1,.783,7.847,13.042,13.042,0,0,1-3.765,7.3" fill="#375a64"/>
            <path id="Trazado_720646" data-name="Trazado 720646" d="M112.124,307.589a1,1,0,0,1-.019-.229c0-.174-.007-.391-.012-.657,0-.57-.025-1.394-.072-2.411a65.866,65.866,0,0,0-.883-7.9c-.528-3.064-1.168-5.807-1.64-7.79-.233-.971-.424-1.766-.563-2.348-.06-.26-.108-.472-.147-.641a.954.954,0,0,1-.037-.227,1.023,1.023,0,0,1,.078.217c.048.166.11.375.184.63.157.549.373,1.345.628,2.333.509,1.975,1.174,4.719,1.7,7.791a57.73,57.73,0,0,1,.825,7.932c.028,1.02.029,1.847.005,2.418-.011.266-.019.483-.027.656a.957.957,0,0,1-.023.229" fill="#1a2e35"/>
            <g id="Grupo_1008321" data-name="Grupo 1008321" opacity="0.3">
              <g id="Grupo_1008320" data-name="Grupo 1008320">
                <g id="Grupo_1008319" data-name="Grupo 1008319" clip-path="url(#clip-path-5)">
                  <path id="Trazado_720647" data-name="Trazado 720647" d="M112.124,307.589a15.49,15.49,0,0,1-7.825-13.006c-.183-3.8.984-7.521,2.3-11.084a1.432,1.432,0,0,1,.538-.8,1.365,1.365,0,0,1,1.3.2c3.458,1.969,5.553,5.723,6.667,9.543a19.256,19.256,0,0,1,.783,7.847,13.042,13.042,0,0,1-3.765,7.3"/>
                </g>
              </g>
            </g>
            <path id="Trazado_720648" data-name="Trazado 720648" d="M117.493,336.48c4.683,1.029,8.54,4.332,13.058,5.938,2.989,1.063,6.37,1.439,8.756,3.529a7.416,7.416,0,0,0-3.249-3.233,58.314,58.314,0,0,0-11.835-5.65c-2.126-.734-4.432-1.347-6.6-.742" fill="#375a64"/>
            <path id="Trazado_720649" data-name="Trazado 720649" d="M110.722,340.653c-5.865-.1-12.041-5.088-17.879-5.386,6.11-1.973,14.857-.361,17.879,5.386" fill="#375a64"/>
            <path id="Trazado_720650" data-name="Trazado 720650" d="M113.013,326.583a19.077,19.077,0,0,1,9.377-.638,56.98,56.98,0,0,1,9.154,2.488c-.3-2.035-1.949-3.565-3.5-4.92a24.44,24.44,0,0,0-3.675-2.825,8.2,8.2,0,0,0-4.409-1.244A6.972,6.972,0,0,0,115.1,321.9a8.084,8.084,0,0,0-2.084,4.686" fill="#375a64"/>
            <path id="Trazado_720651" data-name="Trazado 720651" d="M100.976,320.107c-3.692-3.152-9.284-2.844-14.138-2.735a115.139,115.139,0,0,1,21.926,13.664c.2-3.431-3.124-6.947-7.788-10.929" fill="#375a64"/>
            <g id="Grupo_1008324" data-name="Grupo 1008324" opacity="0.3">
              <g id="Grupo_1008323" data-name="Grupo 1008323">
                <g id="Grupo_1008322" data-name="Grupo 1008322" clip-path="url(#clip-path-6)">
                  <path id="Trazado_720652" data-name="Trazado 720652" d="M100.976,320.107c-3.692-3.152-9.284-2.844-14.138-2.735a115.139,115.139,0,0,1,21.926,13.664c.2-3.431-3.124-6.947-7.788-10.929"/>
                </g>
              </g>
            </g>
            <path id="Trazado_720653" data-name="Trazado 720653" d="M114.674,315.756a41.059,41.059,0,0,1,5.678-3.3c1.943-.883,3.756-2.29,5.633-3.306a61.6,61.6,0,0,0,6.776-4.783,17.6,17.6,0,0,1,7.421-3.542,14.584,14.584,0,0,0-6.753.391,43.509,43.509,0,0,0-6.357,2.473,31,31,0,0,0-8.165,4.733c-2.354,2.106-4.482,4.185-4.233,7.334" fill="#375a64"/>
            <path id="Trazado_720654" data-name="Trazado 720654" d="M130.444,340.653a.788.788,0,0,1-.186-.08l-.511-.265c-.442-.235-1.076-.584-1.875-.985-.4-.209-.833-.427-1.308-.65s-.982-.464-1.523-.7a22.381,22.381,0,0,0-3.612-1.259,7.763,7.763,0,0,0-3.762-.094,10.692,10.692,0,0,0-1.594.476,8.052,8.052,0,0,0-1.287.661,8.2,8.2,0,0,0-1.617,1.335c-.34.364-.5.587-.52.576a.707.707,0,0,1,.1-.173,5.4,5.4,0,0,1,.354-.457,7.553,7.553,0,0,1,1.6-1.406,8,8,0,0,1,1.3-.7,10.583,10.583,0,0,1,1.615-.5,7.826,7.826,0,0,1,3.855.079,21.436,21.436,0,0,1,3.641,1.285c.542.241,1.053.478,1.522.719s.909.457,1.3.675c.792.419,1.416.788,1.846,1.045l.492.3a.739.739,0,0,1,.165.117" fill="#1a2e35"/>
            <path id="Trazado_720655" data-name="Trazado 720655" d="M106.347,337.746a1.317,1.317,0,0,1,.367.107,8.187,8.187,0,0,1,.956.416,11.6,11.6,0,0,1,4.9,4.708,8.141,8.141,0,0,1,.454.938,1.377,1.377,0,0,1,.122.363c-.034.015-.253-.482-.7-1.227A12.986,12.986,0,0,0,107.6,338.4c-.762-.421-1.268-.62-1.254-.654" fill="#1a2e35"/>
            <path id="Trazado_720656" data-name="Trazado 720656" d="M93.37,319.813a1.23,1.23,0,0,1,.25.074l.7.25,1.11.41c.432.161.9.4,1.434.632a33.911,33.911,0,0,1,7.635,4.865,37.206,37.206,0,0,1,3.561,3.506,39.514,39.514,0,0,1,2.527,3.2c.67.949,1.178,1.739,1.526,2.286.164.258.3.466.4.629a1.214,1.214,0,0,1,.13.226,1.228,1.228,0,0,1-.165-.2c-.1-.137-.251-.341-.434-.608-.369-.534-.9-1.31-1.578-2.244s-1.54-2.014-2.551-3.161a39.129,39.129,0,0,0-3.552-3.475,35.792,35.792,0,0,0-7.563-4.89c-.526-.242-.989-.488-1.416-.658l-1.094-.441-.689-.287a1.231,1.231,0,0,1-.236-.114" fill="#1a2e35"/>
            <path id="Trazado_720657" data-name="Trazado 720657" d="M121.814,323.286a2.046,2.046,0,0,1-.468-.06l-.538-.1c-.21-.04-.455-.041-.721-.069a7.39,7.39,0,0,0-4.031.795,7.276,7.276,0,0,0-1.834,1.362,8.292,8.292,0,0,0-1.179,1.457,12.063,12.063,0,0,0-.806,1.539,1.667,1.667,0,0,1,.119-.457,6.572,6.572,0,0,1,.561-1.16,7.759,7.759,0,0,1,1.168-1.515,7.131,7.131,0,0,1,6.015-2.168c.27.037.517.049.727.1l.537.135a2.009,2.009,0,0,1,.45.14" fill="#1a2e35"/>
            <path id="Trazado_720658" data-name="Trazado 720658" d="M127.709,305a1.211,1.211,0,0,1-.222.137l-.654.355c-.569.307-1.388.759-2.383,1.345s-2.157,1.324-3.4,2.211a28.4,28.4,0,0,0-3.793,3.178,9.641,9.641,0,0,0-1.552,2.009c-.384.738-.751,1.451-1.089,2.136a38.824,38.824,0,0,0-1.63,3.709,22.73,22.73,0,0,0-.792,2.612c-.15.628-.205.982-.225.979a1.232,1.232,0,0,1,.023-.26c.021-.169.057-.418.122-.736a19.449,19.449,0,0,1,.733-2.645,35.634,35.634,0,0,1,1.6-3.744c.334-.689.7-1.4,1.08-2.145a9.735,9.735,0,0,1,1.583-2.06,27.485,27.485,0,0,1,3.833-3.19c1.253-.883,2.432-1.6,3.434-2.181s1.839-1.005,2.42-1.29l.673-.321a1.286,1.286,0,0,1,.241-.1" fill="#1a2e35"/>
            <path id="Trazado_720659" data-name="Trazado 720659" d="M111.262,322.758a2.381,2.381,0,0,1-.116-.494c-.069-.362-.155-.816-.257-1.355a38.21,38.21,0,0,0-1.109-4.4,38.6,38.6,0,0,0-1.675-4.219l-.572-1.256a2.39,2.39,0,0,1-.188-.471,2.309,2.309,0,0,1,.261.435c.156.287.375.7.633,1.228a28.982,28.982,0,0,1,2.8,8.658c.092.577.158,1.045.191,1.369a2.373,2.373,0,0,1,.036.507" fill="#1a2e35"/>
            <path id="Trazado_720660" data-name="Trazado 720660" d="M110.838,309.414a15.914,15.914,0,0,0-1.907-6.332,20.9,20.9,0,0,0-14.168-10.565l13.116,19.549,1.694,3.49a10.029,10.029,0,0,0,1.265-6.142" fill="#375a64"/>
            <rect id="Rectángulo_351104" data-name="Rectángulo 351104" width="30.5" height="5.406" transform="translate(99.153 347.941)" fill="#7e5ee3"/>
            <path id="Trazado_720661" data-name="Trazado 720661" d="M101.431,352.275l2.6,16.774h20.248l3.1-16.774Z" fill="#7e5ee3"/>
            <path id="Trazado_720662" data-name="Trazado 720662" d="M129.636,353.354c0,.059-6.88.107-15.364.107s-15.366-.048-15.366-.107,6.878-.107,15.366-.107,15.364.048,15.364.107" fill="#1a2e35"/>
            <path id="Trazado_720663" data-name="Trazado 720663" d="M222.038,159.938l-1.617-3.838a15.889,15.889,0,1,0-2.681,5.02l0,.008Z" fill="#fff"/>
            <path id="Trazado_720664" data-name="Trazado 720664" d="M222.038,159.938a1.984,1.984,0,0,1-.263.087l-.811.243-3.207.933a.076.076,0,0,1-.094-.051.078.078,0,0,1,0-.052l0-.008.128.077a15.78,15.78,0,0,1-6.046,4.731,16.382,16.382,0,0,1-4.912,1.3,15.958,15.958,0,0,1-5.754-.493,16.311,16.311,0,0,1-5.692-2.887,15.659,15.659,0,0,1-4.388-5.328,16.374,16.374,0,0,1-1.724-7.138,16.077,16.077,0,0,1,6.968-13.3,16.33,16.33,0,0,1,6.923-2.661,15.627,15.627,0,0,1,6.939.627,16.323,16.323,0,0,1,5.623,3.123,16.071,16.071,0,0,1,3.651,4.523q.3.62.582,1.219c.183.4.31.822.461,1.22a14.329,14.329,0,0,1,.616,2.383,15.764,15.764,0,0,1-.556,7.635l0-.051c.5,1.239.894,2.207,1.17,2.886.123.31.218.554.291.737a1.779,1.779,0,0,1,.089.244,2.494,2.494,0,0,1-.125-.259c-.082-.184-.19-.429-.33-.74-.289-.661-.7-1.6-1.231-2.811a.089.089,0,0,1,0-.051,15.847,15.847,0,0,0,.461-7.548,14.429,14.429,0,0,0-.625-2.341c-.155-.391-.282-.8-.463-1.2l-.58-1.193a15.856,15.856,0,0,0-3.608-4.419,16.073,16.073,0,0,0-5.525-3.038,15.29,15.29,0,0,0-6.787-.594,16,16,0,0,0-6.763,2.611,15.737,15.737,0,0,0-6.806,12.992,16.042,16.042,0,0,0,1.672,6.978,15.346,15.346,0,0,0,4.278,5.224,16.03,16.03,0,0,0,5.565,2.852,15.742,15.742,0,0,0,5.645.515,16.14,16.14,0,0,0,4.84-1.243,15.818,15.818,0,0,0,6.026-4.6.078.078,0,0,1,.108-.013.076.076,0,0,1,.023.09l0,.008-.091-.1,3.186-.835.838-.214a2.706,2.706,0,0,1,.3-.068" fill="#1a2e35"/>
            <path id="Trazado_720665" data-name="Trazado 720665" d="M201.629,151.7a1.734,1.734,0,1,1-1.734-1.734,1.734,1.734,0,0,1,1.734,1.734" fill="#1a2e35"/>
            <path id="Trazado_720666" data-name="Trazado 720666" d="M207.471,151.7a1.734,1.734,0,1,1-1.734-1.734,1.734,1.734,0,0,1,1.734,1.734" fill="#1a2e35"/>
            <path id="Trazado_720667" data-name="Trazado 720667" d="M213.159,151.7a1.734,1.734,0,1,1-1.734-1.734,1.734,1.734,0,0,1,1.734,1.734" fill="#1a2e35"/>
            <path id="Trazado_720668" data-name="Trazado 720668" d="M61.735,127.229l.755-4.427a15.083,15.083,0,1,1,3.476,4.135l0,.007Z" fill="#fff"/>
            <path id="Trazado_720669" data-name="Trazado 720669" d="M61.735,127.229a2.371,2.371,0,0,0,.264-.007l.805-.04,3.171-.175a.063.063,0,0,0,.059-.066.082.082,0,0,0-.012-.034l-.005-.006-.092.085a15.1,15.1,0,0,0,6.585,3.207,15.438,15.438,0,0,0,2.324.3c.4.027.818,0,1.239,0,.21-.007.423,0,.635-.019l.643-.074a15,15,0,0,0,5.265-1.608A15.134,15.134,0,0,0,90.4,112.06a15.069,15.069,0,0,0-9.183-10.815,15.034,15.034,0,0,0-6.871-1.043,15.183,15.183,0,0,0-13.927,15.572,15,15,0,0,0,2.012,7.06l-.007-.043c-.228,1.438-.4,2.55-.527,3.32-.055.359-.1.638-.128.842a2.677,2.677,0,0,0-.036.276s.025-.1.062-.3.092-.489.161-.853c.138-.757.337-1.851.6-3.266a.07.07,0,0,0-.007-.043A14.974,14.974,0,0,1,74.372,100.5a14.755,14.755,0,0,1,6.732,1.032,15.084,15.084,0,0,1,3.125,1.7,14.727,14.727,0,0,1,5.872,8.9,14.892,14.892,0,0,1-.083,6.866,15.027,15.027,0,0,1-7.523,9.567,14.827,14.827,0,0,1-5.171,1.607l-.633.077c-.209.023-.419.013-.626.022-.414,0-.821.033-1.221.008a14.908,14.908,0,0,1-8.838-3.384.062.062,0,0,0-.089.007.065.065,0,0,0,0,.078l0,.006.047-.1-3.124.248-.82.07c-.186.016-.287.03-.287.03" fill="#1a2e35"/>
            <path id="Trazado_720670" data-name="Trazado 720670" d="M69.063,116.384l1.662-1.662,3.2,2.849,6.291-6.053,1.543,1.661-8.071,7.6Z" fill="#7e5ee3"/>
            <path id="Trazado_720671" data-name="Trazado 720671" d="M280.332,289.923c.02-.187.037-.374.046-.56.159-3.581-1.295-7.013-2.695-10.314-3.754-8.851-7.385-18.241-6.331-27.792,1.4-12.631,10.683-23.077,14-35.293a3.328,3.328,0,1,1,6.386,1.873c-3.693,11.424-12.117,21.439-13.44,33.42-1.055,9.551,2.576,18.941,6.33,27.792,1.4,3.3,2.854,6.733,2.7,10.314s-2.463,7.345-6.012,7.919h-52.78a3.325,3.325,0,0,1-3.329-3.32v-.719a3.325,3.325,0,0,1,3.329-3.32Z" fill="#375a64"/>
            <path id="Trazado_720672" data-name="Trazado 720672" d="M290.946,369.049h-76.59a3.367,3.367,0,0,1-2.731-1.443,4.131,4.131,0,0,1-.559-3.7l21.8-66.809,1.137.371-21.8,66.809a2.933,2.933,0,0,0,.39,2.627,2.185,2.185,0,0,0,1.763.949h76.59a2.155,2.155,0,0,0,1.73-.9,2.935,2.935,0,0,0,.459-2.552L274.4,297.444l1.152-.323,18.737,66.952a4.138,4.138,0,0,1-.658,3.6,3.366,3.366,0,0,1-2.683,1.378" fill="#e1e1e1"/>
            <path id="Trazado_720673" data-name="Trazado 720673" d="M183.524,247.782s2.789-6.778,5.545-8.212a35.175,35.175,0,0,1,6.264-2.351H207.6l.122,7.942a5.4,5.4,0,0,1-4.2,1.44c-2.428-.336-8.49-1.834-8.49-1.834l-2.993.163-2.757,3.537s-2.239.68-1.451-1.438,1.14-3.052,1.14-3.052-2.649,4.122-3.665,4.311a2.249,2.249,0,0,1-1.782-.506" fill="#7c4236"/>
            <path id="Trazado_720674" data-name="Trazado 720674" d="M234.223,222.219l-9.762,14.041-16.861.959-.23,7.7,12.705,2.5a20.478,20.478,0,0,0,18.236-5.413l1.86-16.983Z" fill="#c27460"/>
            <path id="Trazado_720675" data-name="Trazado 720675" d="M226.653,338.672,238,349.768s-8.191,15.815-6.307,18.08l23.685-22.288-16.924-18.049Z" fill="#1a2e35"/>
            <path id="Trazado_720676" data-name="Trazado 720676" d="M244.406,341.908a1.258,1.258,0,0,1,1.655.412,1.277,1.277,0,0,1-.487,1.658,1.325,1.325,0,0,1-1.75-.445,1.342,1.342,0,0,1,.7-1.68" fill="#e1e1e1"/>
            <path id="Trazado_720677" data-name="Trazado 720677" d="M255.377,345.56l-1.781-1.749-22.043,22.023s-.644,1.425.139,2.013Z" fill="#375a64"/>
            <path id="Trazado_720678" data-name="Trazado 720678" d="M237.508,350.016c.107.106.732-.389,1.633-.574.9-.208,1.64-.011,1.7-.155.086-.121-.7-.611-1.793-.368s-1.666,1.021-1.545,1.1" fill="#fff"/>
            <path id="Trazado_720679" data-name="Trazado 720679" d="M235.942,353.322c.074.131.751-.155,1.581-.063.834.067,1.406.473,1.517.359.125-.084-.4-.8-1.436-.893s-1.758.491-1.662.6" fill="#fff"/>
            <path id="Trazado_720680" data-name="Trazado 720680" d="M237.189,357.455c.127-.076-.229-.772-1.092-1.09s-1.63-.047-1.592.09c.019.151.674.141,1.379.413.711.255,1.18.684,1.3.587" fill="#fff"/>
            <path id="Trazado_720681" data-name="Trazado 720681" d="M235.22,347.186c.143.054.531-.6,1.224-1.169s1.387-.859,1.359-1.009c-.008-.142-.887-.078-1.695.608s-1.026,1.538-.888,1.57" fill="#fff"/>
            <path id="Trazado_720682" data-name="Trazado 720682" d="M227.986,259.586c-2.074,0-52.617,14.723-58.086,19.7s-9.56,66.564-9.56,66.564l21.192,7.266s4.466-30.078,7.173-39.792a49.674,49.674,0,0,0,1.657-14.934l41.962-18.274Z" fill="#1a2e35"/>
            <path id="Trazado_720683" data-name="Trazado 720683" d="M229.26,262.842c-.943.415-37.665,16.093-41.116,26.6-2.812,8.56.458,16.1,4.386,21.988,4.436,6.649,36.961,36.329,36.961,36.329l18.357-13.126-31.472-32.5s16.513-10.194,17.079-10.194,17.731-1.134,23.172-1.75c5.081-.576,7.862-7.862,7.862-7.862l4.532-20.89-34.058-7.86Z" fill="#1a2e35"/>
            <path id="Trazado_720684" data-name="Trazado 720684" d="M229.26,262.842s.118-.21.359-.611l1.079-1.781,4.217-6.908.021-.034.04.009,34.069,7.808.106.024-.023.106c-1.357,6.28-2.881,13.335-4.515,20.894l0,.011,0,.008a18.3,18.3,0,0,1-3.234,5.236,9.316,9.316,0,0,1-2.49,1.982,3.813,3.813,0,0,1-.737.339,4.349,4.349,0,0,1-.778.249c-.268.05-.538.114-.806.152l-.8.085c-4.3.425-8.746.743-13.32,1.076l-6.955.474-1.77.108-.227.01c-.049,0-.043.016-.066.018a.688.688,0,0,0-.086.037c-.127.055-.259.129-.388.2l-.778.43c-1.033.587-2.064,1.2-3.1,1.815-4.136,2.473-8.339,5.049-12.614,7.683l.029-.235L241.063,327.4l6.9,7.123.125.13-.147.1L229.579,347.88l-.1.072-.091-.084q-9.859-9.036-18.877-17.648c-2.995-2.864-5.909-5.689-8.711-8.492s-5.521-5.555-7.972-8.422c-.321-.345-.585-.741-.876-1.109a12.984,12.984,0,0,1-.817-1.14c-.508-.778-.992-1.565-1.438-2.366a32.619,32.619,0,0,1-2.28-4.91,24.219,24.219,0,0,1-1.266-5.091,21.341,21.341,0,0,1-.035-5.068,18.671,18.671,0,0,1,1.144-4.752,13.785,13.785,0,0,1,2.709-3.833,45.44,45.44,0,0,1,6.773-5.579,131.647,131.647,0,0,1,12.85-7.7c3.874-2.066,7.256-3.72,10.025-5.034s4.933-2.283,6.4-2.928l1.67-.722c.378-.16.573-.234.573-.234s-.189.092-.562.259l-1.659.747c-1.459.661-3.614,1.646-6.376,2.974s-6.134,3-10,5.074a132.52,132.52,0,0,0-12.81,7.724,45.376,45.376,0,0,0-6.729,5.566,13.57,13.57,0,0,0-2.657,3.772,18.506,18.506,0,0,0-1.12,4.69,21.079,21.079,0,0,0,.043,5.011,23.992,23.992,0,0,0,1.261,5.037,32.3,32.3,0,0,0,2.27,4.868c.443.8.925,1.576,1.432,2.35a12.771,12.771,0,0,0,.809,1.126c.288.364.547.751.867,1.1,2.442,2.849,5.165,5.6,7.966,8.4s5.717,5.619,8.714,8.48c5.994,5.722,12.309,11.613,18.882,17.632l-.191-.011L247.757,334.5l-.021.234-6.9-7.122-24.572-25.383-.131-.135.16-.1c4.278-2.633,8.482-5.207,12.623-7.679,1.036-.616,2.067-1.227,3.1-1.816l.785-.433c.135-.069.262-.141.407-.2a.966.966,0,0,1,.118-.049.644.644,0,0,1,.15-.031l.216-.009,1.765-.106,6.953-.468c4.572-.329,9.022-.643,13.313-1.062a7.134,7.134,0,0,0,3.028-.792,9.059,9.059,0,0,0,2.421-1.924,18.064,18.064,0,0,0,3.19-5.149l-.006.018c1.646-7.556,3.182-14.608,4.55-20.886l.082.129-34.045-7.911.061-.025-4.272,6.889-1.1,1.762c-.248.394-.379.589-.379.589" fill="#375a64"/>
            <path id="Trazado_720685" data-name="Trazado 720685" d="M232.6,162.394a3.444,3.444,0,0,1-2.036-6.543,3.583,3.583,0,0,1,2.586-6.289,4.287,4.287,0,0,1,6.135-4.062,4.819,4.819,0,0,1,5.9-.635,3.428,3.428,0,0,1,3.52,5.531" fill="#1a2e35"/>
            <path id="Trazado_720686" data-name="Trazado 720686" d="M246.224,148.186l-.754.067a14.609,14.609,0,0,0-13.324,14.666c.054,7.082.206,14.9.586,18.673.787,7.8,8.707,8.327,8.707,8.327l.169,9.442,18.9-2.263-1.333-34.183c-.017-8.172-4.788-14.973-12.956-14.729" fill="#c27460"/>
            <path id="Trazado_720687" data-name="Trazado 720687" d="M241.428,189.917a18.962,18.962,0,0,0,9.915-3.905s-2.012,5.977-9.868,5.962Z" fill="#7c4236"/>
            <path id="Trazado_720688" data-name="Trazado 720688" d="M234.964,170.162a1.119,1.119,0,0,0,1.175,1.03,1.071,1.071,0,0,0,1.061-1.107,1.12,1.12,0,0,0-1.174-1.031,1.071,1.071,0,0,0-1.062,1.108" fill="#1a2e35"/>
            <path id="Trazado_720689" data-name="Trazado 720689" d="M234.163,166.592c.151.133.941-.567,2.141-.67,1.2-.12,2.134.42,2.251.261.058-.071-.106-.321-.514-.566a3.072,3.072,0,0,0-1.818-.389,2.945,2.945,0,0,0-1.688.715c-.344.316-.446.59-.372.649" fill="#1a2e35"/>
            <path id="Trazado_720690" data-name="Trazado 720690" d="M245.757,169.54a1.119,1.119,0,0,0,1.175,1.03,1.07,1.07,0,0,0,1.061-1.107,1.12,1.12,0,0,0-1.174-1.031,1.071,1.071,0,0,0-1.062,1.108" fill="#1a2e35"/>
            <path id="Trazado_720691" data-name="Trazado 720691" d="M245.981,165.772c.151.133.942-.567,2.142-.67,1.2-.12,2.133.42,2.25.261.058-.07-.1-.321-.514-.566a3.078,3.078,0,0,0-1.817-.389,2.948,2.948,0,0,0-1.689.715c-.343.316-.446.59-.372.649" fill="#1a2e35"/>
            <path id="Trazado_720692" data-name="Trazado 720692" d="M242.412,175.059a8.044,8.044,0,0,0-1.98-.179c-.31,0-.605-.04-.675-.245a1.567,1.567,0,0,1,.124-.927q.333-1.15.7-2.414a40.3,40.3,0,0,0,1.5-6.284,40.349,40.349,0,0,0-2,6.15q-.346,1.269-.661,2.425a1.779,1.779,0,0,0-.053,1.216.771.771,0,0,0,.544.4,2.091,2.091,0,0,0,.527.028,7.84,7.84,0,0,0,1.976-.173" fill="#1a2e35"/>
            <path id="Trazado_720693" data-name="Trazado 720693" d="M244.531,161.246c.185.29,1.185-.131,2.448-.283,1.259-.182,2.347-.037,2.435-.364.037-.155-.212-.409-.69-.612a3.823,3.823,0,0,0-1.936-.231,3.68,3.68,0,0,0-1.784.724c-.4.319-.556.627-.473.766" fill="#1a2e35"/>
            <path id="Trazado_720694" data-name="Trazado 720694" d="M233.667,161.647c.277.25,1.243-.12,2.433-.239,1.186-.153,2.216-.011,2.423-.317.089-.147-.093-.407-.557-.626a3.9,3.9,0,0,0-2.019-.271,3.839,3.839,0,0,0-1.894.719c-.4.318-.509.611-.386.734" fill="#1a2e35"/>
            <path id="Trazado_720695" data-name="Trazado 720695" d="M232.58,159.27s1.628-5.074,3.886-6.424c2.733-1.634,4.239,1.391,6.893.39s5.263-2.568,8.23-.71c3.247,2.033,1.964,3.774,2.458,7.223,2.005,13.984,4.922,17.731,5.067,11.048.016-.732,1.977-1.487,2-4.577.035-4.007-.239-8.843-1.374-11.584-.958-2.31-2.458-3.832-5.047-5.427-4.088-2.518-9.361-2.114-12.907-1.438s-10.078,5.4-9.211,11.5" fill="#1a2e35"/>
            <path id="Trazado_720696" data-name="Trazado 720696" d="M258.6,170.628a2.129,2.129,0,0,1,2.108-2.246c1.469.01,3.164.694,3.334,3.713.3,5.355-5.138,4.553-5.155,4.4-.013-.1-.181-3.625-.287-5.867" fill="#c27460"/>
            <path id="Trazado_720697" data-name="Trazado 720697" d="M259.936,174.415c.022-.018.1.06.259.124a.938.938,0,0,0,.7-.025,2.312,2.312,0,0,0,.951-2.132,3.077,3.077,0,0,0-.336-1.32,1.08,1.08,0,0,0-.742-.677.475.475,0,0,0-.536.287c-.064.153-.024.258-.051.269s-.12-.083-.09-.307a.6.6,0,0,1,.192-.347.7.7,0,0,1,.508-.165,1.31,1.31,0,0,1,1.021.775,3.171,3.171,0,0,1,.408,1.474,2.428,2.428,0,0,1-1.231,2.39,1,1,0,0,1-.861-.094c-.173-.123-.208-.241-.19-.252" fill="#7c4236"/>
            <path id="Trazado_720698" data-name="Trazado 720698" d="M257.578,160.291a5.083,5.083,0,0,1-2.169,1.244,1.748,1.748,0,0,1-2.041-1.054c-.1-.366-.044-.805-.313-1.071-.322-.317-.851-.162-1.294-.075-1.538.3-3.5-1.252-4.033-2.728a1.4,1.4,0,0,1-1.828.55,5.016,5.016,0,0,1-1.388-1.03,2.2,2.2,0,0,0-1.914-.754,5.289,5.289,0,0,1-1.139.358c-.707,0-1.121-.791-1.289-1.478s-.322-1.491-.949-1.817a2.806,2.806,0,0,0-1.914.116c-.637.152-1.484.074-1.705-.542a1.269,1.269,0,0,1,.153-.99,3.473,3.473,0,0,1,3.967-1.67,4.705,4.705,0,0,1,8.532-1.67,4.776,4.776,0,0,1,7.758,1.062,3.461,3.461,0,0,1,4.331,4.672,3.287,3.287,0,0,1,2.032,2.448,1.882,1.882,0,0,1-1.954,2.1,1.917,1.917,0,0,1-3.134,2.2" fill="#1a2e35"/>
            <path id="Trazado_720699" data-name="Trazado 720699" d="M239.464,150.957a.291.291,0,0,0,.01.1c.013.063.025.16.059.282a3.363,3.363,0,0,0,.479.995,3.836,3.836,0,0,0,1.3,1.157,3.578,3.578,0,0,0,2.243.431l-.1-.11a1.937,1.937,0,0,0,.238,1.464,5.52,5.52,0,0,0,1.03,1.233,3.994,3.994,0,0,0,.651.56,1.874,1.874,0,0,0,.875.239,1.957,1.957,0,0,0,1.664-.768l-.205-.039a4.023,4.023,0,0,0,1.944,2.621,2.933,2.933,0,0,0,1.8.419,5.253,5.253,0,0,0,1.7-.532l-.148-.05a4.2,4.2,0,0,0,1.409,1.536,2.251,2.251,0,0,0,1.9.343,2.954,2.954,0,0,0,2.062-2.5l-.116.067a2.765,2.765,0,0,0,1.859.108,3,3,0,0,0,1.229-.684,2.609,2.609,0,0,0,.539-.705,1.237,1.237,0,0,0,.111-.289,3.217,3.217,0,0,1-.71.927,2.968,2.968,0,0,1-1.2.625,2.638,2.638,0,0,1-1.757-.131l-.105-.048-.011.115a2.785,2.785,0,0,1-1.955,2.323,2.042,2.042,0,0,1-1.73-.33,4.02,4.02,0,0,1-1.326-1.459l-.051-.1-.1.044a5.123,5.123,0,0,1-1.621.508,2.7,2.7,0,0,1-1.666-.392,3.805,3.805,0,0,1-1.838-2.469l-.055-.25-.15.21a1.739,1.739,0,0,1-1.469.678,1.657,1.657,0,0,1-.774-.206,3.87,3.87,0,0,1-.615-.525,5.4,5.4,0,0,1-1-1.177,1.756,1.756,0,0,1-.235-1.324l.033-.132-.134.021a3.449,3.449,0,0,1-2.146-.379,3.83,3.83,0,0,1-1.282-1.091,4.146,4.146,0,0,1-.629-1.316" fill="#375a64"/>
            <path id="Trazado_720700" data-name="Trazado 720700" d="M242.514,178.9c.012-.2,1.35-.043,2.437-1.074s1.112-2.472,1.3-2.46c.086-.009.222.349.166.952a3.351,3.351,0,0,1-1.01,2.063,2.92,2.92,0,0,1-2.033.815c-.566-.016-.879-.205-.86-.3" fill="#1a2e35"/>
            <path id="Trazado_720701" data-name="Trazado 720701" d="M165.158,337.923l-2.468,17.132s-19.2,2.966-19.979,6.083l34.869,6.511,5-26.519Z" fill="#1a2e35"/>
            <path id="Trazado_720702" data-name="Trazado 720702" d="M173.735,355.638a1.373,1.373,0,0,1,.7,1.723,1.393,1.393,0,0,1-1.774.639,1.447,1.447,0,0,1-.734-1.829,1.464,1.464,0,0,1,1.927-.467" fill="#e1e1e1"/>
            <path id="Trazado_720703" data-name="Trazado 720703" d="M177.581,367.649l.393-2.694L144.4,359.719s-1.669.35-1.683,1.419Z" fill="#375a64"/>
            <path id="Trazado_720704" data-name="Trazado 720704" d="M162.156,354.782c-.024.162.814.395,1.557,1.069.761.657,1.065,1.437,1.234,1.4.162,0,.085-1.014-.83-1.816s-1.971-.81-1.961-.655" fill="#fff"/>
            <path id="Trazado_720705" data-name="Trazado 720705" d="M158.237,355.531c-.067.149.62.561,1.073,1.351.478.778.489,1.543.66,1.567.155.056.446-.867-.138-1.839s-1.563-1.232-1.6-1.079" fill="#fff"/>
            <path id="Trazado_720706" data-name="Trazado 720706" d="M155.4,359.29c.148.063.533-.7.257-1.663s-1.007-1.465-1.1-1.344c-.121.114.31.685.523,1.48.234.79.158,1.479.324,1.527" fill="#fff"/>
            <path id="Trazado_720707" data-name="Trazado 720707" d="M163.176,350.947c.045.16.866.084,1.817.326.956.223,1.649.669,1.763.547.12-.1-.5-.832-1.626-1.1s-2.014.087-1.954.229" fill="#fff"/>
            <path id="Trazado_720708" data-name="Trazado 720708" d="M240.751,200.577l.716-3.242,19.046-9.457,1.66,2.592s7.128,5.8,9.857,10.833-.508,46.254-.964,52.269c-.917,12.123-5.447,27.989-5.447,27.989s-6.111-4.254-24.091-11.637S222.585,259.2,222.585,259.2l10.6-13.436Z" fill="#7e5ee3"/>
            <path id="Trazado_720709" data-name="Trazado 720709" d="M241.038,201.711c-.107.6-8.714,21.27-8.714,21.27s4.472,2.495,5.1,2.62,3.618-23.89,3.618-23.89" fill="#7e5ee3"/>
            <path id="Trazado_720710" data-name="Trazado 720710" d="M240.171,205.1c.085.014-.679,5.266-1.706,11.731s-1.928,11.7-2.013,11.683.679-5.265,1.706-11.732,1.928-11.7,2.013-11.682" fill="#1a2e35"/>
            <path id="Trazado_720711" data-name="Trazado 720711" d="M179.752,246.455s5.13-7.57,8.187-8.9a37.775,37.775,0,0,1,6.883-2.048l12.9,1.725-.23,7.7a5.8,5.8,0,0,1-4.6,1.228c-2.575-.541-8.953-2.6-8.953-2.6l-3.216-.049L187.5,247.1s-2.448.561-1.446-1.648,1.448-3.182,1.448-3.182-3.144,4.215-4.246,4.341a22.2,22.2,0,0,1-3.507-.154" fill="#c27460"/>
            <path id="Trazado_720712" data-name="Trazado 720712" d="M247.163,216.138l-8.943,20.784-30.62.3-.23,7.7s29.527,10.411,37.39,8.389,20.9-29.827,20.9-29.827Z" fill="#c27460"/>
            <path id="Trazado_720713" data-name="Trazado 720713" d="M254.4,198.6c-.836.759-3.6,4.009-6.556,11.074s-7.1,15.321-7.1,15.321l21.11,8.416s4.812-11.073,7.045-16c1.7-3.752,2.892-11.129,1.342-14.7s-8.492-10.778-15.844-4.113" fill="#7e5ee3"/>
            <path id="Trazado_720714" data-name="Trazado 720714" d="M254.4,198.6s.062-.066.193-.185.323-.3.6-.513a10.514,10.514,0,0,1,2.6-1.539,7.954,7.954,0,0,1,4.736-.351,11.305,11.305,0,0,1,5.409,3.235,12.921,12.921,0,0,1,2.2,2.976,9.7,9.7,0,0,1,.919,3.908,27.916,27.916,0,0,1-1.1,8.754,32.344,32.344,0,0,1-1.746,4.455l-2,4.553c-1.361,3.1-2.77,6.3-4.215,9.58l-.06.138-.14-.056-.306-.123c-7.477-2.985-14.557-5.814-20.8-8.306l-.142-.056.068-.138c1.972-3.952,3.718-7.633,5.213-10.933s2.645-6.265,3.893-8.584a35.224,35.224,0,0,1,3.219-5.2,15.243,15.243,0,0,1,1.045-1.239,3.953,3.953,0,0,1,.409-.38.606.606,0,0,1-.094.106c-.071.078-.163.177-.281.3-.242.276-.589.694-1.007,1.263a37.294,37.294,0,0,0-3.142,5.218c-1.22,2.32-2.335,5.3-3.828,8.605s-3.212,7-5.176,10.963l-.073-.194,20.809,8.278.306.123-.2.082c1.446-3.282,2.858-6.485,4.222-9.579l2.009-4.552a32.19,32.19,0,0,0,1.742-4.412,27.815,27.815,0,0,0,1.117-8.659,9.46,9.46,0,0,0-.876-3.813,12.738,12.738,0,0,0-2.148-2.933,11.171,11.171,0,0,0-5.292-3.218,7.848,7.848,0,0,0-4.653.295,10.866,10.866,0,0,0-2.608,1.475c-.277.2-.472.381-.613.487s-.214.161-.214.161" fill="#1a2e35"/>
            <path id="Trazado_720715" data-name="Trazado 720715" d="M193.286,239.4a7.708,7.708,0,0,0-5.866,2.965,2.272,2.272,0,0,1,.526-.877,6.093,6.093,0,0,1,4.322-2.184,2.265,2.265,0,0,1,1.018.1" fill="#7c4236"/>
            <path id="Trazado_720716" data-name="Trazado 720716" d="M242.97,225.882a.849.849,0,0,1-.068.215l-.237.606c-.23.558-.544,1.322-.936,2.275l-3.381,8-.035.083h-.092l-9.3.107-15.077.1-4.569,0-1.242-.017a2.244,2.244,0,0,1-.433-.028,2.407,2.407,0,0,1,.432-.035l1.242-.041,4.568-.094,15.076-.193,9.3-.075-.127.085c1.422-3.245,2.623-5.987,3.484-7.954l1.009-2.244c.112-.238.2-.433.277-.589a.855.855,0,0,1,.109-.2" fill="#7c4236"/>
            <rect id="Rectángulo_351105" data-name="Rectángulo 351105" width="4.719" height="115.325" transform="translate(15.494 253.572)" fill="#375a64"/>
            <rect id="Rectángulo_351106" data-name="Rectángulo 351106" width="4.719" height="114.526" transform="translate(209.183 254.385)" fill="#375a64"/>
            <rect id="Rectángulo_351107" data-name="Rectángulo 351107" width="214.872" height="6.959" transform="translate(3.705 252.435)" fill="#375a64"/>
            <path id="Trazado_720717" data-name="Trazado 720717" d="M216.509,259.395c0,.086-25.074.156-56,.156s-56-.07-56-.156,25.069-.156,56-.156,56,.07,56,.156" fill="#1a2e35"/>
            <path id="Trazado_720718" data-name="Trazado 720718" d="M165.641,211.728h0a1.3,1.3,0,0,1,1.52,1.037l7.263,38.488h35.317a.956.956,0,1,1,0,1.912H172.285v-.153l-.171.032-7.51-39.8a1.3,1.3,0,0,1,1.037-1.52" fill="#1a2e35"/>
            <path id="Trazado_720719" data-name="Trazado 720719" d="M18.55,121.921a19.172,19.172,0,0,1,14.137-8.681c3.355-.355,4.807.219,7.285.656a10.649,10.649,0,0,1,6.4,3.461,17.852,17.852,0,0,1,4.2,7.808,25.622,25.622,0,0,1,.277,8.507,33.773,33.773,0,0,1-3.648,10.406l-5.1,1.086c-4.271.528-8.6,1.056-12.865.45s-8.518-2.49-11.08-5.949c-3.558-4.8-2.971-12.8.39-17.744" fill="#1a2e35"/>
            <path id="Trazado_720720" data-name="Trazado 720720" d="M25.449,121.255l9.977-5.034,2.73.074c6.082-.521,10.873,5.811,11.352,10.732.531,5.466.965,12.162.456,16.272-1.026,8.264-7.886,9.556-7.886,9.556s1.15,9.638,1.445,12.356l-16.561-5.062-4-35.873a2.894,2.894,0,0,1,2.487-3.021" fill="#ffc19d"/>
            <path id="Trazado_720721" data-name="Trazado 720721" d="M37.632,142.485a1.733,1.733,0,0,1,.5-1.118,1.773,1.773,0,0,1,2.129-.313,2.372,2.372,0,0,1,1.1,2.138,2.156,2.156,0,0,1-1.458,1.029,2.522,2.522,0,0,1-.287.035,1.938,1.938,0,0,1-1.346-.4,1.727,1.727,0,0,1-.635-1.372" fill="#ff9c6a"/>
            <path id="Trazado_720722" data-name="Trazado 720722" d="M47.923,134.41a1.054,1.054,0,0,1-.98,1.1,1.008,1.008,0,0,1-1.119-.913,1.055,1.055,0,0,1,.979-1.1,1.01,1.01,0,0,1,1.12.914" fill="#1a2e35"/>
            <path id="Trazado_720723" data-name="Trazado 720723" d="M47.9,129.927c-.126.142-.945-.422-2.079-.38-1.134.025-1.946.637-2.074.5-.063-.059.062-.312.415-.588a2.9,2.9,0,0,1,1.655-.573,2.779,2.779,0,0,1,1.661.475c.358.256.484.5.422.564" fill="#1a2e35"/>
            <path id="Trazado_720724" data-name="Trazado 720724" d="M41.433,139.427a7.535,7.535,0,0,1,1.831-.4c.289-.04.561-.107.6-.306a1.475,1.475,0,0,0-.223-.852q-.444-1.038-.932-2.177a38.072,38.072,0,0,1-2.12-5.7,37.971,37.971,0,0,1,2.575,5.519q.468,1.147.9,2.191a1.679,1.679,0,0,1,.189,1.132.731.731,0,0,1-.462.44,1.986,1.986,0,0,1-.49.085,7.4,7.4,0,0,1-1.867.066" fill="#1a2e35"/>
            <path id="Trazado_720725" data-name="Trazado 720725" d="M42.091,152.844a20.923,20.923,0,0,1-11.108-2.561s3.126,5.6,11.327,4.548Z" fill="#ff9c6a"/>
            <path id="Trazado_720726" data-name="Trazado 720726" d="M47.9,126.453c-.181.284-1.056.128-2.068.247-1.016.086-1.844.415-2.076.173-.1-.119,0-.392.341-.683a3.222,3.222,0,0,1,3.338-.338c.392.216.543.464.465.6" fill="#1a2e35"/>
            <path id="Trazado_720727" data-name="Trazado 720727" d="M36.278,135.26a1.055,1.055,0,0,0,1.091.989,1.009,1.009,0,0,0,1.016-1.026,1.055,1.055,0,0,0-1.089-.99,1.01,1.01,0,0,0-1.018,1.027" fill="#1a2e35"/>
            <path id="Trazado_720728" data-name="Trazado 720728" d="M32.582,130.852c.14.128.9-.519,2.027-.6,1.13-.094,2,.429,2.116.281.056-.066-.095-.3-.475-.541a2.89,2.89,0,0,0-1.706-.395,2.773,2.773,0,0,0-1.6.646c-.329.293-.43.549-.361.606" fill="#1a2e35"/>
            <path id="Trazado_720729" data-name="Trazado 720729" d="M34.076,126.852c.237.245,1.1-.07,2.148-.14,1.048-.1,1.951.067,2.141-.214.083-.135-.072-.385-.474-.608a3.254,3.254,0,0,0-1.77-.326,3.208,3.208,0,0,0-1.686.611c-.357.285-.464.557-.359.677" fill="#1a2e35"/>
            <path id="Trazado_720730" data-name="Trazado 720730" d="M25.592,137.9c-.022-.612-.779-2.031-1.387-2.1-1.623-.2-4.528.032-4.416,4.133.155,5.605,5.751,4.294,5.756,4.133,0-.125.124-4.048.047-6.161" fill="#ffc19d"/>
            <path id="Trazado_720731" data-name="Trazado 720731" d="M23.943,142.052c-.025-.017-.1.071-.258.151a.976.976,0,0,1-.73.035,2.415,2.415,0,0,1-1.178-2.137,3.229,3.229,0,0,1,.235-1.406,1.128,1.128,0,0,1,.714-.769.5.5,0,0,1,.584.251c.079.155.046.268.076.277s.118-.1.067-.327a.622.622,0,0,0-.231-.346.739.739,0,0,0-.543-.128,1.376,1.376,0,0,0-1,.9,3.32,3.32,0,0,0-.3,1.572,2.536,2.536,0,0,0,1.491,2.382,1.046,1.046,0,0,0,.889-.173c.17-.143.2-.269.176-.279" fill="#ff9c6a"/>
            <path id="Trazado_720732" data-name="Trazado 720732" d="M23.979,135.827l1.548,1.343c8.923-5.87,18-21.846,15.653-21.193a17.89,17.89,0,0,0-8.824-.169c-4.479,1.18-12.9,4.226-12.293,9.578a28.093,28.093,0,0,0,3.916,10.441" fill="#1a2e35"/>
            <path id="Trazado_720733" data-name="Trazado 720733" d="M21.358,113.419c2.172,1.27,4.108,4.971,3.219,7.325a7.381,7.381,0,0,1-9.432,8.249,7.1,7.1,0,0,1-4-3.086,8.535,8.535,0,0,1-.874-5.93,9.444,9.444,0,0,1,3.927-6.2,6.977,6.977,0,0,1,7.16-.353" fill="#1a2e35"/>
            <path id="Trazado_720734" data-name="Trazado 720734" d="M20.866,135.841a5.318,5.318,0,0,0,1.021-.442c.644-.312,1.563-.788,2.675-1.424a40.424,40.424,0,0,0,8.039-5.944,26.887,26.887,0,0,0,5.817-8.123,19.345,19.345,0,0,0,1.038-2.855,4.862,4.862,0,0,0,.227-1.09c-.081-.025-.431,1.53-1.537,3.818a28.7,28.7,0,0,1-5.841,7.945,45.264,45.264,0,0,1-7.9,5.991c-1.086.665-1.98,1.18-2.6,1.536a5.844,5.844,0,0,0-.943.588" fill="#375a64"/>
            <path id="Trazado_720735" data-name="Trazado 720735" d="M15.975,131.633c.077,0,.11-1.044.423-2.69a21.245,21.245,0,0,1,6.125-11.308c1.208-1.161,2.067-1.761,2.022-1.824a2.5,2.5,0,0,0-.639.369,13.68,13.68,0,0,0-1.587,1.235A19.289,19.289,0,0,0,16.1,128.892a13.789,13.789,0,0,0-.168,2,2.5,2.5,0,0,0,.041.737" fill="#375a64"/>
            <path id="Trazado_720736" data-name="Trazado 720736" d="M21.929,144.635a2.1,2.1,0,1,0,2.1-2.1,2.1,2.1,0,0,0-2.1,2.1" fill="#1a2e35"/>
            <path id="Trazado_720737" data-name="Trazado 720737" d="M41.7,143.374c-.023-.2-1.334.03-2.462-.928s-1.229-2.378-1.414-2.356c-.086,0-.2.357-.112.949a3.316,3.316,0,0,0,1.106,1.98,2.89,2.89,0,0,0,2.05.693c.557-.046.856-.25.832-.338" fill="#1a2e35"/>
            <path id="Trazado_720738" data-name="Trazado 720738" d="M11.787,214.747s-6.26,22.087-2.541,34.077c2.231,7.194,33.541,46.821,35.049,48.526,1.05,1.186-13.387,38.621-16.028,46.418l16.6,8.046s20.772-44.167,22.041-51.908c1.631-9.941-21.736-52.465-20.878-53.035l8.4-17.519-6.97-18.042s-29.378.318-35.378.8Z" fill="#1a2e35"/>
            <path id="Trazado_720739" data-name="Trazado 720739" d="M48.1,227.771s40.5,14.368,45.063,16.8c4.978,2.651,8.738,11.951,4.587,19.857S57.193,294.97,57.193,294.97L48.1,281.135l26.348-20.753-28.522-6.72-9.289-11.008Z" fill="#1a2e35"/>
            <path id="Trazado_720740" data-name="Trazado 720740" d="M66.908,299.653a14.848,14.848,0,0,0-.02-2.815,31.653,31.653,0,0,0-2.05-7.4c-.576-1.523-1.268-3.167-2-4.943-.37-.883-.72-1.822-1.085-2.771s-.788-1.91-1.212-2.9c-1.727-3.948-3.694-8.262-5.761-12.788-3.341-7.261-6.428-13.968-8.9-19.35l-.025-.053.013-.056c1.054-4.363,1.982-7.933,2.686-10.4.355-1.234.654-2.192.888-2.834a6.456,6.456,0,0,1,.3-.719,1.015,1.015,0,0,1,.146-.224,1.094,1.094,0,0,1-.1.246c-.071.157-.146.409-.255.729-.2.649-.472,1.613-.8,2.852-.648,2.48-1.527,6.061-2.544,10.429l-.011-.109c2.521,5.345,5.647,12.043,8.979,19.319,2.068,4.527,4.024,8.846,5.734,12.809.421,1,.842,1.957,1.2,2.922s.7,1.882,1.063,2.77c.713,1.779,1.391,3.434,1.953,4.969a30.144,30.144,0,0,1,1.936,7.486,8.283,8.283,0,0,1-.141,2.831" fill="#375a64"/>
            <g id="Grupo_1008327" data-name="Grupo 1008327" opacity="0.3">
              <g id="Grupo_1008326" data-name="Grupo 1008326">
                <g id="Grupo_1008325" data-name="Grupo 1008325" clip-path="url(#clip-path-7)">
                  <path id="Trazado_720741" data-name="Trazado 720741" d="M48.675,236.088c-.079.291,0,10.639,0,10.639l5.2,8.807-4.15-.977-3.691-7.686Z"/>
                </g>
              </g>
            </g>
            <path id="Trazado_720742" data-name="Trazado 720742" d="M71.654,234.506c-1.169-1.147-4.6-4.366-7.006-6.621a1.407,1.407,0,0,1,.935-2.433l27.734-.567a1.412,1.412,0,0,1,1.08.471l5.8,6.512a1.407,1.407,0,0,1-1.014,2.343l-26.5.7a1.4,1.4,0,0,1-1.02-.4" fill="#375a64"/>
            <path id="Trazado_720743" data-name="Trazado 720743" d="M63.8,229.522a24.347,24.347,0,0,1,6.446-1.751c3.223-.321,4.834,1.036,6.56.876s6.446.3,6.446,1.566-6.561,1.726-6.561,1.726l5.755,1.842s6.561-.806,6.676,0-5.87,1.611-8.632,1.956-18.762.576-21.064,0-18.646-10.474-18.646-10.474l7.827-8.057Z" fill="#ffc19d"/>
            <path id="Trazado_720744" data-name="Trazado 720744" d="M23.5,157.476a13.445,13.445,0,0,0-10.1,9.347c-2.141,6.815,1.942,34.821,3.678,39.877S37.5,228.03,39.141,226.647s10.751-9.441,10.751-9.441L35.27,199.925s.774-20.519-.194-24.39S27.563,157.089,23.5,157.476" fill="#7e5ee3"/>
            <path id="Trazado_720745" data-name="Trazado 720745" d="M14.357,191.634c1.069,9.726-1.019,13.908-1.019,13.908a7.557,7.557,0,0,0-2.722,4.983,1.423,1.423,0,0,0,1.465,1.583l35.378-.8s4.95.472,4.845-4.222c-.117-5.239,1.326-23.649-.576-30.887-.656-2.5-8.735-14.675-8.735-14.675l-16.865-9.563-1.784,4.6s-5.351,1.953-7.8,5.1a17.716,17.716,0,0,0-3.385,6.876c-1.463,5.04.62,17.881,1.193,23.1" fill="#7e5ee3"/>
            <path id="Trazado_720746" data-name="Trazado 720746" d="M103.305,175.4s-.309-.277-1.382.069-4.122,1.844-5.5,2.2-4.382,1.511-4.382,1.511a6.059,6.059,0,0,0-3.79,1.274c-2.12,1.466-8.1,5.418-8.1,5.418l2.055,5.821a12.159,12.159,0,0,1,2.969-.193,9.169,9.169,0,0,0,4.241-.174c1.626-.488,3.828-1.368,3.828-1.368s2.145.175,2.708-.6-.043-2.184-.043-2.184,2.1-1.93,1.2-3.016-2.03-2.287-2.03-2.287,6.243-3.31,7.423-4.186,1.411-1.58.811-2.282" fill="#ffc19d"/>
            <path id="Trazado_720747" data-name="Trazado 720747" d="M80.142,185.873l-19.417,6.535-7.845,3.964,11.013,5.937,18.3-10.616Z" fill="#ffc19d"/>
            <path id="Trazado_720748" data-name="Trazado 720748" d="M91.9,181.075a9.683,9.683,0,0,1-.24,5l-.088.307-.162-.264c1.287.232,2.435.458,3.26.644.848.169,1.3.527,1.254.571a11.079,11.079,0,0,0-1.306-.292c-.834-.111-1.991-.291-3.28-.515l-.226-.04.064-.224c.027-.1.056-.2.086-.3a25.5,25.5,0,0,0,.638-4.893" fill="#ff9c6a"/>
            <path id="Trazado_720749" data-name="Trazado 720749" d="M91.81,183.836c.015-.034.174-.017.4.13a1.565,1.565,0,0,1,.633.9l-.209-.145a7.036,7.036,0,0,1,1.1-.107,4.267,4.267,0,0,1,2.476.507c-.032.116-1.118-.124-2.468-.093-.38.008-.739.032-1.054.063l-.177.017-.032-.162c-.148-.752-.723-1.044-.668-1.115" fill="#ff9c6a"/>
            <path id="Trazado_720750" data-name="Trazado 720750" d="M94.735,182.347c.067.1-.456.542-.927,1.215s-.722,1.307-.839,1.277-.029-.774.5-1.517,1.213-1.071,1.265-.975" fill="#ff9c6a"/>
            <path id="Trazado_720751" data-name="Trazado 720751" d="M42.625,157.254l1.95,5.238c2.122,2.013,7.408,7.668,8.411,11.56,1.313,5.091,7.229,17.886,7.229,17.886s13.416-5.72,14.342-4.781,5.625,11.965,4.079,14.278-15.247,8.379-20.789,7.016-10.8-9.386-10.8-9.386Z" fill="#7e5ee3"/>
            <path id="Trazado_720752" data-name="Trazado 720752" d="M51.434,174.1a7.4,7.4,0,0,1,.439,1.194,11.093,11.093,0,0,1,.4,1.439,19.3,19.3,0,0,1,.4,1.94,36.087,36.087,0,0,1,.462,5.131c.032,1.939-.035,4.069-.175,6.3-.306,4.454-.621,8.473-.585,11.389-.015.729.028,1.387.043,1.966s.047,1.076.082,1.482a7.535,7.535,0,0,1,.053,1.27,7.3,7.3,0,0,1-.213-1.254c-.061-.406-.121-.9-.153-1.485s-.1-1.242-.106-1.974c-.111-2.932.16-6.976.466-11.42.139-2.222.217-4.34.206-6.265a39.8,39.8,0,0,0-.369-5.093c-.413-2.881-1.041-4.59-.95-4.617" fill="#1a2e35"/>
            <path id="Trazado_720753" data-name="Trazado 720753" d="M60.012,199.522a36.634,36.634,0,0,1,.112-7.777,36.629,36.629,0,0,1-.112,7.777" fill="#1a2e35"/>
            <path id="Trazado_720754" data-name="Trazado 720754" d="M34.98,173.193a2,2,0,0,1,.031.47c0,.353.009.8.015,1.346.017,1.225.039,2.9.067,4.949.049,4.177.267,9.958.1,16.337a9.185,9.185,0,0,0,.817,4.433,19.864,19.864,0,0,0,2.63,3.378l4.837,5.525,3.233,3.749.863,1.033a1.968,1.968,0,0,1,.28.379,2.1,2.1,0,0,1-.343-.324c-.241-.258-.547-.583-.922-.982l-3.333-3.663-4.9-5.467a19.753,19.753,0,0,1-2.7-3.439,9.511,9.511,0,0,1-.872-4.625c.172-6.377,0-12.148.026-16.331,0-2.091.025-3.784.065-4.954.017-.584.042-1.038.062-1.346a2.053,2.053,0,0,1,.053-.468" fill="#1a2e35"/>
            <path id="Trazado_720755" data-name="Trazado 720755" d="M22.832,157.476c.018.047-.8.279-2.137,1a14.775,14.775,0,0,0-4.776,4.191,14.168,14.168,0,0,0-2.045,3.886,13.315,13.315,0,0,0-.586,2.376c-.116.831-.185,1.712-.243,2.605a45.571,45.571,0,0,0,.01,5.627c.13,1.944.4,3.962.606,6.03.437,4.136.854,8.073,1.233,11.663a59.267,59.267,0,0,0,1.4,9.434,16.353,16.353,0,0,0,2.748,5.746,13.117,13.117,0,0,0,1.155,1.308,3.793,3.793,0,0,1,.431.435c0,.005-.049-.024-.131-.086s-.206-.154-.356-.288a10.679,10.679,0,0,1-1.225-1.268,15.9,15.9,0,0,1-2.9-5.768,56.75,56.75,0,0,1-1.5-9.473c-.389-3.588-.816-7.525-1.265-11.659-.207-2.07-.472-4.08-.6-6.05a44.868,44.868,0,0,1,.014-5.675c.065-.9.137-1.778.263-2.636a13.575,13.575,0,0,1,.622-2.434,14.29,14.29,0,0,1,2.136-3.949,14.44,14.44,0,0,1,4.935-4.157,10.792,10.792,0,0,1,1.622-.687,3.337,3.337,0,0,1,.59-.17" fill="#1a2e35"/>
            <path id="Trazado_720756" data-name="Trazado 720756" d="M42.88,162.668a4.31,4.31,0,0,1-.819-.489L39.9,160.714l.229-.115c-.01,1.1-.022,2.392-.035,3.811l0,.3-.272-.137-4.469-2.247c-3.048-1.545-5.8-2.965-7.775-4.011l-2.335-1.258a4.464,4.464,0,0,1-.83-.512,4.381,4.381,0,0,1,.9.368l2.394,1.14c2.014.98,4.783,2.358,7.83,3.9l4.453,2.278-.275.165c.046-1.418.088-2.708.124-3.809l.009-.281.221.166,2.081,1.572a4.293,4.293,0,0,1,.726.618" fill="#1a2e35"/>
            <path id="Trazado_720757" data-name="Trazado 720757" d="M49.149,339.583l-6.542,13.7s12.558,11.511,11.61,14.164l-28.6-12.229,9.265-21.776Z" fill="#1a2e35"/>
            <path id="Trazado_720758" data-name="Trazado 720758" d="M34.268,348.327a1.2,1.2,0,0,0-1.352.914,1.223,1.223,0,0,0,.983,1.33,1.269,1.269,0,0,0,1.426-.976,1.284,1.284,0,0,0-1.178-1.28" fill="#e1e1e1"/>
            <path id="Trazado_720759" data-name="Trazado 720759" d="M25.615,355.216l1.025-2.157,27.04,12.532s1.047,1.068.537,1.854Z" fill="#375a64"/>
            <path id="Trazado_720760" data-name="Trazado 720760" d="M43.13,353.341c-.062.13-.786-.109-1.656.022-.875.108-1.477.529-1.582.421-.118-.08.431-.78,1.489-.92s1.832.369,1.749.477" fill="#fff"/>
            <path id="Trazado_720761" data-name="Trazado 720761" d="M45.623,355.8c-.023.141-.725.107-1.441.463-.727.335-1.107.887-1.244.822-.14-.035.1-.85,1-1.275s1.74-.137,1.689-.01" fill="#fff"/>
            <path id="Trazado_720762" data-name="Trazado 720762" d="M45.862,359.918c-.139-.026-.049-.769.622-1.338s1.448-.578,1.46-.443c.032.142-.559.349-1.1.825s-.835,1-.98.956" fill="#fff"/>
          </g>
        </g>
      </g>
    </g>
  </g>
</svg>
