<svg xmlns="http://www.w3.org/2000/svg" width="90" height="90" viewBox="0 0 90 90">
  <g id="Grupo_1008342" data-name="Grupo 1008342" transform="translate(-910 -976)">
    <rect id="Rectángulo_350966" data-name="Rectángulo 350966" width="90" height="90" transform="translate(910 976)" fill="none"/>
    <g id="_041-effervescent" data-name="041-effervescent" transform="translate(917 986)">
      <path id="Trazado_720790" data-name="Trazado 720790" d="M87.2,135.635c-6.459,0-12.461-1.291-18.349-2.558-10.44-2.246-20.315-4.369-31.9.815L40.61,176.3H85.463a2.547,2.547,0,0,1,1.765-.711h2.729a12.255,12.255,0,0,1,7.449-21.982c.364,0,.723.019,1.078.05l1.714-19.943a44.146,44.146,0,0,1-13,1.917Z" transform="translate(-33.155 -115.596)" fill="#fcb44d"/>
      <path id="Trazado_720791" data-name="Trazado 720791" d="M36.686,83.469a11.711,11.711,0,0,0,19.9,8.352,4.324,4.324,0,0,0,3.5-7.857c.009-.17.015-.336.015-.5a11.639,11.639,0,0,0-2.039-6.593V70.5a1.267,1.267,0,1,0-2.534,0V74.2a11.644,11.644,0,0,0-7.133-2.433c-.247,0-.491.01-.735.025V66.444a1.267,1.267,0,0,0-2.534,0V72.23a11.679,11.679,0,0,0-3.751,1.878V70.354a1.267,1.267,0,0,0-2.534,0v6.365a11.638,11.638,0,0,0-2.151,6.751Zm6.19,7.307L55.7,77.935A9.123,9.123,0,0,1,57.563,83.4a4.328,4.328,0,0,0-3.087,6.925A9.178,9.178,0,0,1,42.876,90.776ZM57.915,89.5a1.792,1.792,0,1,1,0-3.583,1.825,1.825,0,0,1,1.8,1.8,1.794,1.794,0,0,1-1.8,1.782ZM48.393,74.3a9.124,9.124,0,0,1,5.515,1.848L41.082,88.987A9.158,9.158,0,0,1,48.393,74.3ZM31.5,84.325a4.326,4.326,0,1,0-4.317-4.335A4.326,4.326,0,0,0,31.5,84.325Zm0-6.118a1.794,1.794,0,0,1,1.8,1.782,1.825,1.825,0,0,1-1.8,1.8,1.792,1.792,0,1,1,0-3.583Zm2.021-8.661a5.018,5.018,0,1,0-5.028-5.028,5.018,5.018,0,0,0,5.028,5.028Zm0-7.5a2.484,2.484,0,1,1-2.493,2.474,2.484,2.484,0,0,1,2.493-2.474Zm31.168,4.471a4.232,4.232,0,1,0-4.223-4.242,4.232,4.232,0,0,0,4.223,4.242Zm0-5.931A1.7,1.7,0,1,1,63,62.273a1.7,1.7,0,0,1,1.689-1.689ZM45.124,62.89v-.019a1.267,1.267,0,0,1,2.534,0v.019a1.267,1.267,0,0,1-2.534,0Zm10.4,3.573v-.019a1.267,1.267,0,0,1,2.534,0v.019a1.267,1.267,0,1,1-2.534,0Zm31.892,29H84.682A12.248,12.248,0,0,0,80.8,74.019L83.778,39.4a3.5,3.5,0,0,0-.93-2.78l-.016-.017a3.605,3.605,0,0,0-2.653-1.137H16.589a3.584,3.584,0,0,0-2.635,1.137l-.016.017a3.538,3.538,0,0,0-.95,2.766L18,97.557a8.484,8.484,0,0,0,8.484,7.778H87.418a2.552,2.552,0,0,0,2.539-2.558V98.024a2.552,2.552,0,0,0-2.539-2.558Zm-10.2,0a9.663,9.663,0,0,1-5.91-2.012L84.937,79.829a9.712,9.712,0,0,1-7.715,15.638Zm-7.7-3.8A9.716,9.716,0,0,1,83.145,78.036ZM15.789,38.354a1.061,1.061,0,0,1,.8-.351H80.178a1.068,1.068,0,0,1,.818.351.943.943,0,0,1,.261.786L80.25,50.858C68.69,54.664,58.786,52.534,49.2,50.472c-10.159-2.186-20.649-4.442-32.661.628L15.514,39.175a1.02,1.02,0,0,1,.276-.821Zm.982,15.411C28.355,48.58,38.23,50.7,48.67,52.95c5.887,1.267,11.889,2.558,18.349,2.558a44.14,44.14,0,0,0,13-1.917L78.3,73.534c-.356-.032-.715-.05-1.078-.05a12.255,12.255,0,0,0-7.449,21.982h-2.73a2.547,2.547,0,0,0-1.765.711H20.427Zm4.041,44.946H64.487v4.065c0,.008,0,.016,0,.024h-38a5.951,5.951,0,0,1-5.674-4.088Zm66.612,4.065c0,.013-.011.022-.009.024H67.045a.027.027,0,0,1-.024-.024v-1.109h10.2a1.267,1.267,0,1,0,0-2.534h-10.2V98.023A.027.027,0,0,1,67.045,98H87.406a.035.035,0,0,1,.016.026Z" transform="translate(-12.972 -35.468)"/>
      <path id="Trazado_720792" data-name="Trazado 720792" d="M374.572,430.22H354.211a.027.027,0,0,0-.024.024v1.109h10.2a1.267,1.267,0,0,1,0,2.534h-10.2V435a.027.027,0,0,0,.024.024h20.37s.009-.011.009-.024v-4.752A.035.035,0,0,0,374.572,430.22Z" transform="translate(-300.138 -367.691)" fill="#fb9927"/>
      <g id="Grupo_1008335" data-name="Grupo 1008335" transform="translate(18.055 25.115)">
        <path id="Trazado_720793" data-name="Trazado 720793" d="M330.383,194.022a1.7,1.7,0,1,0,1.689,1.689A1.7,1.7,0,0,0,330.383,194.022Z" transform="translate(-296.722 -194.022)" fill="#ffd496"/>
        <path id="Trazado_720794" data-name="Trazado 720794" d="M287.23,353.937a1.792,1.792,0,1,0,1.8,1.8A1.825,1.825,0,0,0,287.23,353.937Z" transform="translate(-260.341 -328.606)" fill="#ffd496"/>
        <path id="Trazado_720795" data-name="Trazado 720795" d="M129.445,208.208a2.484,2.484,0,1,0-2.493-2.493A2.484,2.484,0,0,0,129.445,208.208Z" transform="translate(-126.952 -201.78)" fill="#ffd496"/>
      </g>
      <path id="Trazado_720796" data-name="Trazado 720796" d="M357.255,301.193a9.663,9.663,0,0,0,2.012,5.91l13.626-13.626a9.712,9.712,0,0,0-15.638,7.716Z" transform="translate(-302.72 -250.911)" fill="#fb9927"/>
      <path id="Trazado_720797" data-name="Trazado 720797" d="M106.137,434.722H62.462a5.951,5.951,0,0,0,5.674,4.088h38c0-.008,0-.016,0-.024Z" transform="translate(-54.623 -371.48)" fill="#9ce6fb"/>
      <path id="Trazado_720798" data-name="Trazado 720798" d="M216.446,309.023a9.123,9.123,0,0,0-1.862-5.461L201.76,316.4a9.178,9.178,0,0,0,11.6-.456,4.328,4.328,0,0,1,3.087-6.925Z" transform="translate(-171.856 -261.096)" fill="#fb9927"/>
      <path id="Trazado_720799" data-name="Trazado 720799" d="M120.416,305.278a1.792,1.792,0,1,0,0,3.583,1.825,1.825,0,0,0,1.8-1.8A1.794,1.794,0,0,0,120.416,305.278Z" transform="translate(-101.889 -262.54)" fill="#ffd496"/>
      <path id="Trazado_720800" data-name="Trazado 720800" d="M187.854,280.594a9.158,9.158,0,0,0-7.312,14.69l12.826-12.842A9.124,9.124,0,0,0,187.854,280.594Z" transform="translate(-152.433 -241.766)" fill="#fb9927"/>
      <path id="Trazado_720801" data-name="Trazado 720801" d="M387.185,331.149a9.712,9.712,0,0,0,7.715-15.638l-13.626,13.626A9.664,9.664,0,0,0,387.185,331.149Z" transform="translate(-322.935 -271.152)" fill="#fb9927"/>
      <path id="Trazado_720802" data-name="Trazado 720802" d="M62.669,63.936c9.584,2.062,19.488,4.192,31.047.386L94.723,52.6a.943.943,0,0,0-.261-.786,1.068,1.068,0,0,0-.818-.351H30.055a1.061,1.061,0,0,0-.8.351,1.02,1.02,0,0,0-.276.821l1.028,11.926C42.02,59.494,52.509,61.75,62.669,63.936Z" transform="translate(-26.438 -48.933)" fill="#c9f0fd"/>
    </g>
  </g>
</svg>
